  0
SECTION
  2
HEADER
  9
$ACADVER
  1
AC1014
  9
$HANDSEED
  5
FFFF
  9
$MEASUREMENT
 70
     1
  0
ENDSEC
  0
SECTION
  2
TABLES
  0
TABLE
  2
VPORT
  5
8
330
0
100
AcDbSymbolTable
 70
     4
  0
VPORT
  5
2E
330
8
100
AcDbSymbolTableRecord
100
AcDbViewportTableRecord
  2
*ACTIVE
 70
     0
 10
0.0
 20
0.0
 11
1.0
 21
1.0
 12
210.0
 22
148.5
 13
0.0
 23
0.0
 14
10.0
 24
10.0
 15
10.0
 25
10.0
 16
0.0
 26
0.0
 36
1.0
 17
0.0
 27
0.0
 37
0.0
 40
341.0
 41
1.24
 42
50.0
 43
0.0
 44
0.0
 50
0.0
 51
0.0
 71
     0
 72
   100
 73
     1
 74
     3
 75
     0
 76
     0
 77
     0
 78
     0
  0
ENDTAB
  0
TABLE
  2
LTYPE
  5
5
330
0
100
AcDbSymbolTable
 70
     1
  0
LTYPE
  5
14
330
5
100
AcDbSymbolTableRecord
100
AcDbLinetypeTableRecord
  2
BYBLOCK
 70
     0
  3

 72
    65
 73
     0
 40
0.0
  0
LTYPE
  5
15
330
5
100
AcDbSymbolTableRecord
100
AcDbLinetypeTableRecord
  2
BYLAYER
 70
     0
  3

 72
    65
 73
     0
 40
0.0
  0
LTYPE
  5
16
330
5
100
AcDbSymbolTableRecord
100
AcDbLinetypeTableRecord
  2
CONTINUOUS
 70
     0
  3
Solid line
 72
    65
 73
     0
 40
0.0
  0
ENDTAB
  0
TABLE
  2
LAYER
  5
2
100
AcDbSymbolTable
 70
31
  0
LAYER
  5
50
100
AcDbSymbolTableRecord
100
AcDbLayerTableRecord
  2
0
 70
0
  6
CONTINUOUS
  0
LAYER
  5
51
100
AcDbSymbolTableRecord
100
AcDbLayerTableRecord
  2
Layer_1
 70
0
  6
CONTINUOUS
  0
LAYER
  5
52
100
AcDbSymbolTableRecord
100
AcDbLayerTableRecord
  2
part-1
 70
0
  6
CONTINUOUS
  0
LAYER
  5
53
100
AcDbSymbolTableRecord
100
AcDbLayerTableRecord
  2
part-2
 70
0
  6
CONTINUOUS
  0
LAYER
  5
54
100
AcDbSymbolTableRecord
100
AcDbLayerTableRecord
  2
part-3
 70
0
  6
CONTINUOUS
  0
LAYER
  5
55
100
AcDbSymbolTableRecord
100
AcDbLayerTableRecord
  2
part-4
 70
0
  6
CONTINUOUS
  0
LAYER
  5
56
100
AcDbSymbolTableRecord
100
AcDbLayerTableRecord
  2
part-5
 70
0
  6
CONTINUOUS
  0
LAYER
  5
57
100
AcDbSymbolTableRecord
100
AcDbLayerTableRecord
  2
part-6
 70
0
  6
CONTINUOUS
  0
LAYER
  5
58
100
AcDbSymbolTableRecord
100
AcDbLayerTableRecord
  2
part-7
 70
0
  6
CONTINUOUS
  0
LAYER
  5
59
100
AcDbSymbolTableRecord
100
AcDbLayerTableRecord
  2
part-8
 70
0
  6
CONTINUOUS
  0
LAYER
  5
5a
100
AcDbSymbolTableRecord
100
AcDbLayerTableRecord
  2
part-9
 70
0
  6
CONTINUOUS
  0
LAYER
  5
5b
100
AcDbSymbolTableRecord
100
AcDbLayerTableRecord
  2
part-10
 70
0
  6
CONTINUOUS
  0
LAYER
  5
5c
100
AcDbSymbolTableRecord
100
AcDbLayerTableRecord
  2
part-11
 70
0
  6
CONTINUOUS
  0
LAYER
  5
5d
100
AcDbSymbolTableRecord
100
AcDbLayerTableRecord
  2
part-12
 70
0
  6
CONTINUOUS
  0
LAYER
  5
5e
100
AcDbSymbolTableRecord
100
AcDbLayerTableRecord
  2
part-13
 70
0
  6
CONTINUOUS
  0
LAYER
  5
5f
100
AcDbSymbolTableRecord
100
AcDbLayerTableRecord
  2
part-14
 70
0
  6
CONTINUOUS
  0
LAYER
  5
60
100
AcDbSymbolTableRecord
100
AcDbLayerTableRecord
  2
part-15
 70
0
  6
CONTINUOUS
  0
LAYER
  5
61
100
AcDbSymbolTableRecord
100
AcDbLayerTableRecord
  2
part-16
 70
0
  6
CONTINUOUS
  0
LAYER
  5
62
100
AcDbSymbolTableRecord
100
AcDbLayerTableRecord
  2
part-17
 70
0
  6
CONTINUOUS
  0
LAYER
  5
63
100
AcDbSymbolTableRecord
100
AcDbLayerTableRecord
  2
part-18
 70
0
  6
CONTINUOUS
  0
LAYER
  5
64
100
AcDbSymbolTableRecord
100
AcDbLayerTableRecord
  2
part-19
 70
0
  6
CONTINUOUS
  0
LAYER
  5
65
100
AcDbSymbolTableRecord
100
AcDbLayerTableRecord
  2
part-20
 70
0
  6
CONTINUOUS
  0
LAYER
  5
66
100
AcDbSymbolTableRecord
100
AcDbLayerTableRecord
  2
part-21
 70
0
  6
CONTINUOUS
  0
LAYER
  5
67
100
AcDbSymbolTableRecord
100
AcDbLayerTableRecord
  2
part-22
 70
0
  6
CONTINUOUS
  0
LAYER
  5
68
100
AcDbSymbolTableRecord
100
AcDbLayerTableRecord
  2
part-23
 70
0
  6
CONTINUOUS
  0
LAYER
  5
69
100
AcDbSymbolTableRecord
100
AcDbLayerTableRecord
  2
part-24
 70
0
  6
CONTINUOUS
  0
LAYER
  5
6a
100
AcDbSymbolTableRecord
100
AcDbLayerTableRecord
  2
part-25
 70
0
  6
CONTINUOUS
  0
LAYER
  5
6b
100
AcDbSymbolTableRecord
100
AcDbLayerTableRecord
  2
part-26
 70
0
  6
CONTINUOUS
  0
LAYER
  5
6c
100
AcDbSymbolTableRecord
100
AcDbLayerTableRecord
  2
part-27
 70
0
  6
CONTINUOUS
  0
LAYER
  5
6d
100
AcDbSymbolTableRecord
100
AcDbLayerTableRecord
  2
part-28
 70
0
  6
CONTINUOUS
  0
LAYER
  5
6e
100
AcDbSymbolTableRecord
100
AcDbLayerTableRecord
  2
part-29
 70
0
  6
CONTINUOUS
  0
ENDTAB
  0
TABLE
  2
STYLE
  5
3
330
0
100
AcDbSymbolTable
 70
     1
  0
STYLE
  5
11
330
3
100
AcDbSymbolTableRecord
100
AcDbTextStyleTableRecord
  2
STANDARD
 70
     0
 40
0.0
 41
1.0
 50
0.0
 71
     0
 42
2.5
  3
txt
  4

  0
ENDTAB
  0
TABLE
  2
VIEW
  5
6
330
0
100
AcDbSymbolTable
 70
     0
  0
ENDTAB
  0
TABLE
  2
UCS
  5
7
330
0
100
AcDbSymbolTable
 70
     0
  0
ENDTAB
  0
TABLE
  2
APPID
  5
9
330
0
100
AcDbSymbolTable
 70
     2
  0
APPID
  5
12
330
9
100
AcDbSymbolTableRecord
100
AcDbRegAppTableRecord
  2
ACAD
 70
     0
  0
ENDTAB
  0
TABLE
  2
DIMSTYLE
  5
A
330
0
100
AcDbSymbolTable
 70
     1
  0
DIMSTYLE
105
27
330
A
100
AcDbSymbolTableRecord
100
AcDbDimStyleTableRecord
  2
ISO-25
 70
     0
  3

  4

  5

  6

  7

 40
1.0
 41
2.5
 42
0.625
 43
3.75
 44
1.25
 45
0.0
 46
0.0
 47
0.0
 48
0.0
140
2.5
141
2.5
142
0.0
143
0.03937007874016
144
1.0
145
0.0
146
1.0
147
0.625
 71
     0
 72
     0
 73
     0
 74
     0
 75
     0
 76
     0
 77
     1
 78
     8
170
     0
171
     3
172
     1
173
     0
174
     0
175
     0
176
     0
177
     0
178
     0
270
     2
271
     2
272
     2
273
     2
274
     3
340
11
275
     0
280
     0
281
     0
282
     0
283
     0
284
     8
285
     0
286
     0
287
     3
288
     0
  0
ENDTAB
  0
TABLE
  2
BLOCK_RECORD
  5
1
330
0
100
AcDbSymbolTable
 70
     1
  0
BLOCK_RECORD
  5
1F
330
1
100
AcDbSymbolTableRecord
100
AcDbBlockTableRecord
  2
*MODEL_SPACE
  0
BLOCK_RECORD
  5
1B
330
1
100
AcDbSymbolTableRecord
100
AcDbBlockTableRecord
  2
*PAPER_SPACE
  0
ENDTAB
  0
ENDSEC
  0
SECTION
  2
BLOCKS
  0
BLOCK
  5
20
330
1F
100
AcDbEntity
  8
0
100
AcDbBlockBegin
  2
*MODEL_SPACE
 70
     0
 10
0.0
 20
0.0
 30
0.0
  3
*MODEL_SPACE
  1

  0
ENDBLK
  5
21
330
1F
100
AcDbEntity
  8
0
100
AcDbBlockEnd
  0
BLOCK
  5
1C
330
1B
100
AcDbEntity
 67
     1
  8
0
100
AcDbBlockBegin
  2
*PAPER_SPACE
  1

  0
ENDBLK
  5
1D
330
1B
100
AcDbEntity
 67
     1
  8
0
100
AcDbBlockEnd
  0
ENDSEC
  0
SECTION
  2
ENTITIES
  0
LINE
  5
100
100
AcDbEntity
  8
part-1
 62
7
100
AcDbLine
 10
-67.918850
 20
-15.205234
 30
0.0
 11
-67.918850
 21
-19.391021
 31
0.0
  0
LINE
  5
101
100
AcDbEntity
  8
part-1
 62
7
100
AcDbLine
 10
-67.918850
 20
-19.391021
 30
0.0
 11
-63.439537
 21
-19.391021
 31
0.0
  0
LINE
  5
102
100
AcDbEntity
  8
part-1
 62
7
100
AcDbLine
 10
-63.439537
 20
-19.391021
 30
0.0
 11
-63.439537
 21
-15.205234
 31
0.0
  0
LINE
  5
103
100
AcDbEntity
  8
part-1
 62
7
100
AcDbLine
 10
-63.439537
 20
-15.205234
 30
0.0
 11
-67.918850
 21
-15.205234
 31
0.0
  0
LINE
  5
104
100
AcDbEntity
  8
part-2
 62
7
100
AcDbLine
 10
-62.382238
 20
17.312163
 30
0.0
 11
-62.382238
 21
-19.391021
 31
0.0
  0
LINE
  5
105
100
AcDbEntity
  8
part-2
 62
7
100
AcDbLine
 10
-62.382238
 20
-19.391021
 30
0.0
 11
-58.190246
 21
-19.391021
 31
0.0
  0
LINE
  5
106
100
AcDbEntity
  8
part-2
 62
7
100
AcDbLine
 10
-58.190246
 20
-19.391021
 30
0.0
 11
-58.190246
 21
17.312163
 31
0.0
  0
LINE
  5
107
100
AcDbEntity
  8
part-2
 62
7
100
AcDbLine
 10
-58.190246
 20
17.312163
 30
0.0
 11
-62.382238
 21
17.312163
 31
0.0
  0
LINE
  5
108
100
AcDbEntity
  8
part-3
 62
7
100
AcDbLine
 10
-68.742572
 20
23.053939
 30
0.0
 11
-68.742572
 21
18.516229
 31
0.0
  0
LINE
  5
109
100
AcDbEntity
  8
part-3
 62
7
100
AcDbLine
 10
-68.742572
 20
18.516229
 30
0.0
 11
-58.060020
 21
18.516229
 31
0.0
  0
LINE
  5
10a
100
AcDbEntity
  8
part-3
 62
7
100
AcDbLine
 10
-58.060020
 20
18.516229
 30
0.0
 11
-58.060020
 21
23.053939
 31
0.0
  0
LINE
  5
10b
100
AcDbEntity
  8
part-3
 62
7
100
AcDbLine
 10
-58.060020
 20
23.053939
 30
0.0
 11
-68.742572
 21
23.053939
 31
0.0
  0
LINE
  5
10c
100
AcDbEntity
  8
part-3
 62
7
100
AcDbLine
 10
-68.742572
 20
23.053939
 30
0.0
 11
-68.742572
 21
23.053939
 31
0.0
  0
LINE
  5
10d
100
AcDbEntity
  8
part-4
 62
7
100
AcDbLine
 10
-56.962931
 20
23.053939
 30
0.0
 11
-56.962931
 21
-14.146900
 31
0.0
  0
LINE
  5
10e
100
AcDbEntity
  8
part-4
 62
7
100
AcDbLine
 10
-56.962931
 20
-14.146900
 30
0.0
 11
-52.770423
 21
-14.146900
 31
0.0
  0
LINE
  5
10f
100
AcDbEntity
  8
part-4
 62
7
100
AcDbLine
 10
-52.770423
 20
-14.146900
 30
0.0
 11
-52.770423
 21
23.053939
 31
0.0
  0
LINE
  5
110
100
AcDbEntity
  8
part-4
 62
7
100
AcDbLine
 10
-52.770423
 20
23.053939
 30
0.0
 11
-56.962931
 21
23.053939
 31
0.0
  0
LINE
  5
111
100
AcDbEntity
  8
part-4
 62
7
100
AcDbLine
 10
-56.962931
 20
23.053939
 30
0.0
 11
-56.962931
 21
23.053939
 31
0.0
  0
LINE
  5
112
100
AcDbEntity
  8
part-5
 62
7
100
AcDbLine
 10
-56.962931
 20
-15.205234
 30
0.0
 11
-56.962931
 21
-19.391021
 31
0.0
  0
LINE
  5
113
100
AcDbEntity
  8
part-5
 62
7
100
AcDbLine
 10
-56.962931
 20
-19.391021
 30
0.0
 11
-48.167602
 21
-19.391021
 31
0.0
  0
SPLINE
  5
114
100
AcDbEntity
  8
part-5
 62
7
100
AcDbSpline
 70
8
 71
3
 72
8
 73
4
 74
0
 40
0
 40
0
 40
0
 40
0
 40
1
 40
1
 40
1
 40
1
 10
-48.167602
 20
-19.391021
 30
0.0
 10
-47.525961
 20
-19.391021
 30
0.0
 10
-46.895887
 20
-19.342656
 30
0.0
 10
-46.279863
 20
-19.253041
 30
0.0
  0
LINE
  5
115
100
AcDbEntity
  8
part-5
 62
7
100
AcDbLine
 10
-46.279863
 20
-19.253041
 30
0.0
 11
-46.279863
 21
-15.205234
 31
0.0
  0
LINE
  5
116
100
AcDbEntity
  8
part-5
 62
7
100
AcDbLine
 10
-46.279863
 20
-15.205234
 30
0.0
 11
-56.962931
 21
-15.205234
 31
0.0
  0
LINE
  5
117
100
AcDbEntity
  8
part-5
 62
7
100
AcDbLine
 10
-56.962931
 20
-15.205234
 30
0.0
 11
-56.962931
 21
-15.205234
 31
0.0
  0
LINE
  5
118
100
AcDbEntity
  8
part-6
 62
7
100
AcDbLine
 10
-51.721908
 20
23.053939
 30
0.0
 11
-51.721908
 21
21.919512
 31
0.0
  0
LINE
  5
119
100
AcDbEntity
  8
part-6
 62
7
100
AcDbLine
 10
-51.721908
 20
21.919512
 30
0.0
 11
-51.721908
 21
20.785084
 31
0.0
  0
LINE
  5
11a
100
AcDbEntity
  8
part-6
 62
7
100
AcDbLine
 10
-51.721908
 20
20.785084
 30
0.0
 11
-51.721908
 21
19.650657
 31
0.0
  0
LINE
  5
11b
100
AcDbEntity
  8
part-6
 62
7
100
AcDbLine
 10
-51.721908
 20
19.650657
 30
0.0
 11
-51.721908
 21
18.516229
 31
0.0
  0
LINE
  5
11c
100
AcDbEntity
  8
part-6
 62
7
100
AcDbLine
 10
-51.721908
 20
18.516229
 30
0.0
 11
-49.051270
 21
18.516229
 31
0.0
  0
LINE
  5
11d
100
AcDbEntity
  8
part-6
 62
7
100
AcDbLine
 10
-49.051270
 20
18.516229
 30
0.0
 11
-46.380632
 21
18.516229
 31
0.0
  0
LINE
  5
11e
100
AcDbEntity
  8
part-6
 62
7
100
AcDbLine
 10
-46.380632
 20
18.516229
 30
0.0
 11
-43.709994
 21
18.516229
 31
0.0
  0
LINE
  5
11f
100
AcDbEntity
  8
part-6
 62
7
100
AcDbLine
 10
-43.709994
 20
18.516229
 30
0.0
 11
-41.039356
 21
18.516229
 31
0.0
  0
LINE
  5
120
100
AcDbEntity
  8
part-6
 62
7
100
AcDbLine
 10
-41.039356
 20
18.516229
 30
0.0
 11
-41.039356
 21
19.116436
 31
0.0
  0
LINE
  5
121
100
AcDbEntity
  8
part-6
 62
7
100
AcDbLine
 10
-41.039356
 20
19.116436
 30
0.0
 11
-41.039356
 21
19.716670
 31
0.0
  0
LINE
  5
122
100
AcDbEntity
  8
part-6
 62
7
100
AcDbLine
 10
-41.039356
 20
19.716670
 30
0.0
 11
-41.039356
 21
20.316877
 31
0.0
  0
LINE
  5
123
100
AcDbEntity
  8
part-6
 62
7
100
AcDbLine
 10
-41.039356
 20
20.316877
 30
0.0
 11
-41.039356
 21
20.917111
 31
0.0
  0
LINE
  5
124
100
AcDbEntity
  8
part-6
 62
7
100
AcDbLine
 10
-41.039356
 20
20.917111
 30
0.0
 11
-42.642501
 21
21.820610
 31
0.0
  0
LINE
  5
125
100
AcDbEntity
  8
part-6
 62
7
100
AcDbLine
 10
-42.642501
 20
21.820610
 30
0.0
 11
-44.378512
 21
22.491858
 31
0.0
  0
LINE
  5
126
100
AcDbEntity
  8
part-6
 62
7
100
AcDbLine
 10
-44.378512
 20
22.491858
 30
0.0
 11
-46.227007
 21
22.909926
 31
0.0
  0
LINE
  5
127
100
AcDbEntity
  8
part-6
 62
7
100
AcDbLine
 10
-46.227007
 20
22.909926
 30
0.0
 11
-48.167602
 21
23.053939
 31
0.0
  0
LINE
  5
128
100
AcDbEntity
  8
part-6
 62
7
100
AcDbLine
 10
-48.167602
 20
23.053939
 30
0.0
 11
-49.056178
 21
23.053939
 31
0.0
  0
LINE
  5
129
100
AcDbEntity
  8
part-6
 62
7
100
AcDbLine
 10
-49.056178
 20
23.053939
 30
0.0
 11
-49.944755
 21
23.053939
 31
0.0
  0
LINE
  5
12a
100
AcDbEntity
  8
part-6
 62
7
100
AcDbLine
 10
-49.944755
 20
23.053939
 30
0.0
 11
-50.833332
 21
23.053939
 31
0.0
  0
LINE
  5
12b
100
AcDbEntity
  8
part-6
 62
7
100
AcDbLine
 10
-50.833332
 20
23.053939
 30
0.0
 11
-51.721908
 21
23.053939
 31
0.0
  0
LINE
  5
12c
100
AcDbEntity
  8
part-7
 62
7
100
AcDbLine
 10
-45.231346
 20
17.457896
 30
0.0
 11
-45.231346
 21
8.330036
 31
0.0
  0
LINE
  5
12d
100
AcDbEntity
  8
part-7
 62
7
100
AcDbLine
 10
-45.231346
 20
8.330036
 30
0.0
 11
-45.231346
 21
-0.797851
 31
0.0
  0
LINE
  5
12e
100
AcDbEntity
  8
part-7
 62
7
100
AcDbLine
 10
-45.231346
 20
-0.797851
 30
0.0
 11
-45.231346
 21
-9.925712
 31
0.0
  0
LINE
  5
12f
100
AcDbEntity
  8
part-7
 62
7
100
AcDbLine
 10
-45.231346
 20
-9.925712
 30
0.0
 11
-45.231346
 21
-19.053572
 31
0.0
  0
LINE
  5
130
100
AcDbEntity
  8
part-7
 62
7
100
AcDbLine
 10
-45.231346
 20
-19.053572
 30
0.0
 11
-44.112582
 21
-18.741337
 31
0.0
  0
LINE
  5
131
100
AcDbEntity
  8
part-7
 62
7
100
AcDbLine
 10
-44.112582
 20
-18.741337
 30
0.0
 11
-43.037720
 21
-18.334329
 31
0.0
  0
LINE
  5
132
100
AcDbEntity
  8
part-7
 62
7
100
AcDbLine
 10
-43.037720
 20
-18.334329
 30
0.0
 11
-42.011674
 21
-17.836938
 31
0.0
  0
LINE
  5
133
100
AcDbEntity
  8
part-7
 62
7
100
AcDbLine
 10
-42.011674
 20
-17.836938
 30
0.0
 11
-41.039356
 21
-17.253691
 31
0.0
  0
LINE
  5
134
100
AcDbEntity
  8
part-7
 62
7
100
AcDbLine
 10
-41.039356
 20
-17.253691
 30
0.0
 11
-41.039356
 21
-8.575781
 31
0.0
  0
LINE
  5
135
100
AcDbEntity
  8
part-7
 62
7
100
AcDbLine
 10
-41.039356
 20
-8.575781
 30
0.0
 11
-41.039356
 21
0.102102
 31
0.0
  0
LINE
  5
136
100
AcDbEntity
  8
part-7
 62
7
100
AcDbLine
 10
-41.039356
 20
0.102102
 30
0.0
 11
-41.039356
 21
8.779986
 31
0.0
  0
LINE
  5
137
100
AcDbEntity
  8
part-7
 62
7
100
AcDbLine
 10
-41.039356
 20
8.779986
 30
0.0
 11
-41.039356
 21
17.457896
 31
0.0
  0
LINE
  5
138
100
AcDbEntity
  8
part-7
 62
7
100
AcDbLine
 10
-41.039356
 20
17.457896
 30
0.0
 11
-42.087355
 21
17.457896
 31
0.0
  0
LINE
  5
139
100
AcDbEntity
  8
part-7
 62
7
100
AcDbLine
 10
-42.087355
 20
17.457896
 30
0.0
 11
-43.135351
 21
17.457896
 31
0.0
  0
LINE
  5
13a
100
AcDbEntity
  8
part-7
 62
7
100
AcDbLine
 10
-43.135351
 20
17.457896
 30
0.0
 11
-44.183347
 21
17.457896
 31
0.0
  0
LINE
  5
13b
100
AcDbEntity
  8
part-7
 62
7
100
AcDbLine
 10
-44.183347
 20
17.457896
 30
0.0
 11
-45.231346
 21
17.457896
 31
0.0
  0
LINE
  5
13c
100
AcDbEntity
  8
part-8
 62
7
100
AcDbLine
 10
-40.038382
 20
20.182284
 30
0.0
 11
-40.038382
 21
11.006878
 31
0.0
  0
LINE
  5
13d
100
AcDbEntity
  8
part-8
 62
7
100
AcDbLine
 10
-40.038382
 20
11.006878
 30
0.0
 11
-40.038382
 21
1.831446
 31
0.0
  0
LINE
  5
13e
100
AcDbEntity
  8
part-8
 62
7
100
AcDbLine
 10
-40.038382
 20
1.831446
 30
0.0
 11
-40.038382
 21
-7.343960
 31
0.0
  0
LINE
  5
13f
100
AcDbEntity
  8
part-8
 62
7
100
AcDbLine
 10
-40.038382
 20
-7.343960
 30
0.0
 11
-40.038382
 21
-16.519366
 31
0.0
  0
LINE
  5
140
100
AcDbEntity
  8
part-8
 62
7
100
AcDbLine
 10
-40.038382
 20
-16.519366
 30
0.0
 11
-38.063775
 21
-14.527027
 31
0.0
  0
LINE
  5
141
100
AcDbEntity
  8
part-8
 62
7
100
AcDbLine
 10
-38.063775
 20
-14.527027
 30
0.0
 11
-36.560214
 21
-12.141703
 31
0.0
  0
LINE
  5
142
100
AcDbEntity
  8
part-8
 62
7
100
AcDbLine
 10
-36.560214
 20
-12.141703
 30
0.0
 11
-35.602912
 21
-9.437979
 31
0.0
  0
LINE
  5
143
100
AcDbEntity
  8
part-8
 62
7
100
AcDbLine
 10
-35.602912
 20
-9.437979
 30
0.0
 11
-35.267098
 21
-6.490520
 31
0.0
  0
LINE
  5
144
100
AcDbEntity
  8
part-8
 62
7
100
AcDbLine
 10
-35.267098
 20
-6.490520
 30
0.0
 11
-35.267098
 21
-2.329524
 31
0.0
  0
LINE
  5
145
100
AcDbEntity
  8
part-8
 62
7
100
AcDbLine
 10
-35.267098
 20
-2.329524
 30
0.0
 11
-35.267098
 21
1.831446
 31
0.0
  0
LINE
  5
146
100
AcDbEntity
  8
part-8
 62
7
100
AcDbLine
 10
-35.267098
 20
1.831446
 30
0.0
 11
-35.267098
 21
5.992442
 31
0.0
  0
LINE
  5
147
100
AcDbEntity
  8
part-8
 62
7
100
AcDbLine
 10
-35.267098
 20
5.992442
 30
0.0
 11
-35.267098
 21
10.153438
 31
0.0
  0
LINE
  5
148
100
AcDbEntity
  8
part-8
 62
7
100
AcDbLine
 10
-35.267098
 20
10.153438
 30
0.0
 11
-35.602912
 21
13.100896
 31
0.0
  0
LINE
  5
149
100
AcDbEntity
  8
part-8
 62
7
100
AcDbLine
 10
-35.602912
 20
13.100896
 30
0.0
 11
-36.560214
 21
15.804594
 31
0.0
  0
LINE
  5
14a
100
AcDbEntity
  8
part-8
 62
7
100
AcDbLine
 10
-36.560214
 20
15.804594
 30
0.0
 11
-38.063775
 21
18.189945
 31
0.0
  0
LINE
  5
14b
100
AcDbEntity
  8
part-8
 62
7
100
AcDbLine
 10
-38.063775
 20
18.189945
 30
0.0
 11
-40.038382
 21
20.182284
 31
0.0
  0
LINE
  5
14c
100
AcDbEntity
  8
part-9
 62
7
100
AcDbLine
 10
-35.606095
 20
22.955752
 30
0.0
 11
-35.606095
 21
18.516229
 31
0.0
  0
LINE
  5
14d
100
AcDbEntity
  8
part-9
 62
7
100
AcDbLine
 10
-35.606095
 20
18.516229
 30
0.0
 11
-26.939957
 21
18.516229
 31
0.0
  0
LINE
  5
14e
100
AcDbEntity
  8
part-9
 62
7
100
AcDbLine
 10
-26.939957
 20
18.516229
 30
0.0
 11
-27.616920
 21
22.955752
 31
0.0
  0
LINE
  5
14f
100
AcDbEntity
  8
part-9
 62
7
100
AcDbLine
 10
-27.616920
 20
22.955752
 30
0.0
 11
-35.606095
 21
22.955752
 31
0.0
  0
LINE
  5
150
100
AcDbEntity
  8
part-10
 62
7
100
AcDbLine
 10
-31.038416
 20
17.457896
 30
0.0
 11
-26.171529
 21
-14.471412
 31
0.0
  0
LINE
  5
151
100
AcDbEntity
  8
part-10
 62
7
100
AcDbLine
 10
-26.171529
 20
-14.471412
 30
0.0
 11
-21.911840
 21
-14.471412
 31
0.0
  0
LINE
  5
152
100
AcDbEntity
  8
part-10
 62
7
100
AcDbLine
 10
-21.911840
 20
-14.471412
 30
0.0
 11
-26.778728
 21
17.457896
 31
0.0
  0
LINE
  5
153
100
AcDbEntity
  8
part-10
 62
7
100
AcDbLine
 10
-26.778728
 20
17.457896
 30
0.0
 11
-31.038416
 21
17.457896
 31
0.0
  0
LINE
  5
154
100
AcDbEntity
  8
part-11
 62
7
100
AcDbLine
 10
-21.750610
 20
-15.529745
 30
0.0
 11
-26.010298
 21
-15.529745
 31
0.0
  0
LINE
  5
155
100
AcDbEntity
  8
part-11
 62
7
100
AcDbLine
 10
-26.010298
 20
-15.529745
 30
0.0
 11
-25.455810
 21
-19.168295
 31
0.0
  0
LINE
  5
156
100
AcDbEntity
  8
part-11
 62
7
100
AcDbLine
 10
-25.455810
 20
-19.168295
 30
0.0
 11
-21.196122
 21
-19.168295
 31
0.0
  0
LINE
  5
157
100
AcDbEntity
  8
part-11
 62
7
100
AcDbLine
 10
-21.196122
 20
-19.168295
 30
0.0
 11
-21.750610
 21
-15.529745
 31
0.0
  0
LINE
  5
158
100
AcDbEntity
  8
part-12
 62
7
100
AcDbLine
 10
-26.305371
 20
22.955752
 30
0.0
 11
-19.884574
 21
-19.168295
 31
0.0
  0
LINE
  5
159
100
AcDbEntity
  8
part-12
 62
7
100
AcDbLine
 10
-19.884574
 20
-19.168295
 30
0.0
 11
-15.624886
 21
-19.168295
 31
0.0
  0
LINE
  5
15a
100
AcDbEntity
  8
part-12
 62
7
100
AcDbLine
 10
-15.624886
 20
-19.168295
 30
0.0
 11
-22.045683
 21
22.955752
 31
0.0
  0
LINE
  5
15b
100
AcDbEntity
  8
part-12
 62
7
100
AcDbLine
 10
-22.045683
 20
22.955752
 30
0.0
 11
-26.305371
 21
22.955752
 31
0.0
  0
LINE
  5
15c
100
AcDbEntity
  8
part-12
 62
7
100
AcDbLine
 10
-26.305371
 20
22.955752
 30
0.0
 11
-26.305371
 21
22.955752
 31
0.0
  0
LINE
  5
15d
100
AcDbEntity
  8
part-13
 62
7
100
AcDbLine
 10
-11.232906
 20
22.955752
 30
0.0
 11
-16.271875
 21
-10.101157
 31
0.0
  0
LINE
  5
15e
100
AcDbEntity
  8
part-13
 62
7
100
AcDbLine
 10
-16.271875
 20
-10.101157
 30
0.0
 11
-14.889530
 21
-19.168295
 31
0.0
  0
LINE
  5
15f
100
AcDbEntity
  8
part-13
 62
7
100
AcDbLine
 10
-14.889530
 20
-19.168295
 30
0.0
 11
-13.394014
 21
-19.168295
 31
0.0
  0
LINE
  5
160
100
AcDbEntity
  8
part-13
 62
7
100
AcDbLine
 10
-13.394014
 20
-19.168295
 30
0.0
 11
-6.973218
 21
22.955752
 31
0.0
  0
LINE
  5
161
100
AcDbEntity
  8
part-13
 62
7
100
AcDbLine
 10
-6.973218
 20
22.955752
 30
0.0
 11
-11.232906
 21
22.955752
 31
0.0
  0
LINE
  5
162
100
AcDbEntity
  8
part-13
 62
7
100
AcDbLine
 10
-11.232906
 20
22.955752
 30
0.0
 11
-11.232906
 21
22.955752
 31
0.0
  0
LINE
  5
163
100
AcDbEntity
  8
part-14
 62
7
100
AcDbLine
 10
-5.943823
 20
22.767131
 30
0.0
 11
-6.549471
 21
18.791158
 31
0.0
  0
LINE
  5
164
100
AcDbEntity
  8
part-14
 62
7
100
AcDbLine
 10
-6.549471
 20
18.791158
 30
0.0
 11
-2.629814
 21
18.791158
 31
0.0
  0
LINE
  5
165
100
AcDbEntity
  8
part-14
 62
7
100
AcDbLine
 10
-2.629814
 20
18.791158
 30
0.0
 11
-2.629814
 21
22.767131
 31
0.0
  0
LINE
  5
166
100
AcDbEntity
  8
part-14
 62
7
100
AcDbLine
 10
-2.629814
 20
22.767131
 30
0.0
 11
-5.943823
 21
22.767131
 31
0.0
  0
LINE
  5
167
100
AcDbEntity
  8
part-15
 62
7
100
AcDbLine
 10
0.515214
 20
22.767131
 30
0.0
 11
0.515214
 21
18.791158
 31
0.0
  0
LINE
  5
168
100
AcDbEntity
  8
part-15
 62
7
100
AcDbLine
 10
0.515214
 20
18.791158
 30
0.0
 11
9.438183
 21
18.791158
 31
0.0
  0
LINE
  5
169
100
AcDbEntity
  8
part-15
 62
7
100
AcDbLine
 10
9.438183
 20
18.791158
 30
0.0
 11
7.352523
 21
22.767131
 31
0.0
  0
LINE
  5
16a
100
AcDbEntity
  8
part-15
 62
7
100
AcDbLine
 10
7.352523
 20
22.767131
 30
0.0
 11
0.515214
 21
22.767131
 31
0.0
  0
LINE
  5
16b
100
AcDbEntity
  8
part-15
 62
7
100
AcDbLine
 10
0.515214
 20
22.767131
 30
0.0
 11
0.515214
 21
22.767131
 31
0.0
  0
LINE
  5
16c
100
AcDbEntity
  8
part-16
 62
7
100
AcDbLine
 10
0.536113
 20
-15.192310
 30
0.0
 11
0.536113
 21
-19.168280
 31
0.0
  0
LINE
  5
16d
100
AcDbEntity
  8
part-16
 62
7
100
AcDbLine
 10
0.536113
 20
-19.168280
 30
0.0
 11
4.728622
 21
-19.168280
 31
0.0
  0
LINE
  5
16e
100
AcDbEntity
  8
part-16
 62
7
100
AcDbLine
 10
4.728622
 20
-19.168280
 30
0.0
 11
4.728622
 21
-15.192310
 31
0.0
  0
LINE
  5
16f
100
AcDbEntity
  8
part-16
 62
7
100
AcDbLine
 10
4.728622
 20
-15.192310
 30
0.0
 11
0.536113
 21
-15.192310
 31
0.0
  0
LINE
  5
170
100
AcDbEntity
  8
part-17
 62
7
100
AcDbLine
 10
5.686991
 20
15.329349
 30
0.0
 11
5.686991
 21
-19.368294
 31
0.0
  0
LINE
  5
171
100
AcDbEntity
  8
part-17
 62
7
100
AcDbLine
 10
5.686991
 20
-19.368294
 30
0.0
 11
9.879500
 21
-19.368294
 31
0.0
  0
LINE
  5
172
100
AcDbEntity
  8
part-17
 62
7
100
AcDbLine
 10
9.879500
 20
-19.368294
 30
0.0
 11
9.879500
 21
7.337583
 31
0.0
  0
LINE
  5
173
100
AcDbEntity
  8
part-17
 62
7
100
AcDbLine
 10
9.879500
 20
7.337583
 30
0.0
 11
5.686991
 21
15.329349
 31
0.0
  0
LINE
  5
174
100
AcDbEntity
  8
part-18
 62
7
100
AcDbLine
 10
5.259110
 20
17.732824
 30
0.0
 11
24.617102
 21
-19.168295
 31
0.0
  0
LINE
  5
175
100
AcDbEntity
  8
part-18
 62
7
100
AcDbLine
 10
24.617102
 20
-19.168295
 30
0.0
 11
29.351179
 21
-19.168295
 31
0.0
  0
LINE
  5
176
100
AcDbEntity
  8
part-18
 62
7
100
AcDbLine
 10
29.351179
 20
-19.168295
 30
0.0
 11
9.993705
 21
17.732824
 31
0.0
  0
LINE
  5
177
100
AcDbEntity
  8
part-18
 62
7
100
AcDbLine
 10
9.993705
 20
17.732824
 30
0.0
 11
5.259110
 21
17.732824
 31
0.0
  0
LINE
  5
178
100
AcDbEntity
  8
part-18
 62
7
100
AcDbLine
 10
5.259110
 20
17.732824
 30
0.0
 11
5.259110
 21
17.732824
 31
0.0
  0
LINE
  5
179
100
AcDbEntity
  8
part-19
 62
7
100
AcDbLine
 10
11.060290
 20
-15.192310
 30
0.0
 11
11.060290
 21
-19.168280
 31
0.0
  0
LINE
  5
17a
100
AcDbEntity
  8
part-19
 62
7
100
AcDbLine
 10
11.060290
 20
-19.168280
 30
0.0
 11
15.252799
 21
-19.168280
 31
0.0
  0
LINE
  5
17b
100
AcDbEntity
  8
part-19
 62
7
100
AcDbLine
 10
15.252799
 20
-19.168280
 30
0.0
 11
15.252799
 21
-15.192310
 31
0.0
  0
LINE
  5
17c
100
AcDbEntity
  8
part-19
 62
7
100
AcDbLine
 10
15.252799
 20
-15.192310
 30
0.0
 11
11.060290
 21
-15.192310
 31
0.0
  0
LINE
  5
17d
100
AcDbEntity
  8
part-20
 62
7
100
AcDbLine
 10
8.533846
 20
22.955752
 30
0.0
 11
27.179735
 21
-12.588849
 31
0.0
  0
LINE
  5
17e
100
AcDbEntity
  8
part-20
 62
7
100
AcDbLine
 10
27.179735
 20
-12.588849
 30
0.0
 11
27.179735
 21
-3.563567
 31
0.0
  0
LINE
  5
17f
100
AcDbEntity
  8
part-20
 62
7
100
AcDbLine
 10
27.179735
 20
-3.563567
 30
0.0
 11
13.267924
 21
22.955752
 31
0.0
  0
LINE
  5
180
100
AcDbEntity
  8
part-20
 62
7
100
AcDbLine
 10
13.267924
 20
22.955752
 30
0.0
 11
8.533846
 21
22.955752
 31
0.0
  0
LINE
  5
181
100
AcDbEntity
  8
part-21
 62
7
100
AcDbLine
 10
22.987227
 20
22.767131
 30
0.0
 11
22.987227
 21
18.791158
 31
0.0
  0
LINE
  5
182
100
AcDbEntity
  8
part-21
 62
7
100
AcDbLine
 10
22.987227
 20
18.791158
 30
0.0
 11
27.179735
 21
18.791158
 31
0.0
  0
LINE
  5
183
100
AcDbEntity
  8
part-21
 62
7
100
AcDbLine
 10
27.179735
 20
18.791158
 30
0.0
 11
27.179735
 21
22.767131
 31
0.0
  0
LINE
  5
184
100
AcDbEntity
  8
part-21
 62
7
100
AcDbLine
 10
27.179735
 20
22.767131
 30
0.0
 11
22.987227
 21
22.767131
 31
0.0
  0
LINE
  5
185
100
AcDbEntity
  8
part-22
 62
7
100
AcDbLine
 10
28.238069
 20
22.767131
 30
0.0
 11
28.238069
 21
-5.391865
 31
0.0
  0
LINE
  5
186
100
AcDbEntity
  8
part-22
 62
7
100
AcDbLine
 10
28.238069
 20
-5.391865
 30
0.0
 11
28.238069
 21
-14.417172
 31
0.0
  0
LINE
  5
187
100
AcDbEntity
  8
part-22
 62
7
100
AcDbLine
 10
28.238069
 20
-14.417172
 30
0.0
 11
30.730422
 21
-19.168295
 31
0.0
  0
LINE
  5
188
100
AcDbEntity
  8
part-22
 62
7
100
AcDbLine
 10
30.730422
 20
-19.168295
 30
0.0
 11
32.430579
 21
-19.168295
 31
0.0
  0
LINE
  5
189
100
AcDbEntity
  8
part-22
 62
7
100
AcDbLine
 10
32.430579
 20
-19.168295
 30
0.0
 11
32.430579
 21
-13.384160
 31
0.0
  0
LINE
  5
18a
100
AcDbEntity
  8
part-22
 62
7
100
AcDbLine
 10
32.430579
 20
-13.384160
 30
0.0
 11
32.430579
 21
22.767131
 31
0.0
  0
LINE
  5
18b
100
AcDbEntity
  8
part-22
 62
7
100
AcDbLine
 10
32.430579
 20
22.767131
 30
0.0
 11
28.238069
 21
22.767131
 31
0.0
  0
LINE
  5
18c
100
AcDbEntity
  8
part-23
 62
7
100
AcDbLine
 10
33.488913
 20
22.767131
 30
0.0
 11
33.488913
 21
18.791158
 31
0.0
  0
LINE
  5
18d
100
AcDbEntity
  8
part-23
 62
7
100
AcDbLine
 10
33.488913
 20
18.791158
 30
0.0
 11
37.681421
 21
18.791158
 31
0.0
  0
LINE
  5
18e
100
AcDbEntity
  8
part-23
 62
7
100
AcDbLine
 10
37.681421
 20
18.791158
 30
0.0
 11
37.681421
 21
22.767131
 31
0.0
  0
LINE
  5
18f
100
AcDbEntity
  8
part-23
 62
7
100
AcDbLine
 10
37.681421
 20
22.767131
 30
0.0
 11
33.488913
 21
22.767131
 31
0.0
  0
LINE
  5
190
100
AcDbEntity
  8
part-24
 62
7
100
AcDbLine
 10
43.262991
 20
21.166719
 30
0.0
 11
41.524237
 21
19.314001
 31
0.0
  0
LINE
  5
191
100
AcDbEntity
  8
part-24
 62
7
100
AcDbLine
 10
41.524237
 20
19.314001
 30
0.0
 11
40.203657
 21
17.125500
 31
0.0
  0
LINE
  5
192
100
AcDbEntity
  8
part-24
 62
7
100
AcDbLine
 10
40.203657
 20
17.125500
 30
0.0
 11
39.364745
 21
14.663658
 31
0.0
  0
LINE
  5
193
100
AcDbEntity
  8
part-24
 62
7
100
AcDbLine
 10
39.364745
 20
14.663658
 30
0.0
 11
39.070999
 21
11.991049
 31
0.0
  0
LINE
  5
194
100
AcDbEntity
  8
part-24
 62
7
100
AcDbLine
 10
39.070999
 20
11.991049
 30
0.0
 11
39.070999
 21
6.881018
 31
0.0
  0
LINE
  5
195
100
AcDbEntity
  8
part-24
 62
7
100
AcDbLine
 10
39.070999
 20
6.881018
 30
0.0
 11
39.070999
 21
1.770988
 31
0.0
  0
LINE
  5
196
100
AcDbEntity
  8
part-24
 62
7
100
AcDbLine
 10
39.070999
 20
1.770988
 30
0.0
 11
39.070999
 21
-3.339015
 31
0.0
  0
LINE
  5
197
100
AcDbEntity
  8
part-24
 62
7
100
AcDbLine
 10
39.070999
 20
-3.339015
 30
0.0
 11
39.070999
 21
-8.449046
 31
0.0
  0
LINE
  5
198
100
AcDbEntity
  8
part-24
 62
7
100
AcDbLine
 10
39.070999
 20
-8.449046
 30
0.0
 11
39.364734
 21
-11.121787
 31
0.0
  0
LINE
  5
199
100
AcDbEntity
  8
part-24
 62
7
100
AcDbLine
 10
39.364734
 20
-11.121787
 30
0.0
 11
40.203627
 21
-13.583788
 31
0.0
  0
LINE
  5
19a
100
AcDbEntity
  8
part-24
 62
7
100
AcDbLine
 10
40.203627
 20
-13.583788
 30
0.0
 11
41.524205
 21
-15.772474
 31
0.0
  0
LINE
  5
19b
100
AcDbEntity
  8
part-24
 62
7
100
AcDbLine
 10
41.524205
 20
-15.772474
 30
0.0
 11
43.262991
 21
-17.625245
 31
0.0
  0
LINE
  5
19c
100
AcDbEntity
  8
part-24
 62
7
100
AcDbLine
 10
43.262991
 20
-17.625245
 30
0.0
 11
43.262991
 21
-7.927261
 31
0.0
  0
LINE
  5
19d
100
AcDbEntity
  8
part-24
 62
7
100
AcDbLine
 10
43.262991
 20
-7.927261
 30
0.0
 11
43.262991
 21
1.770724
 31
0.0
  0
LINE
  5
19e
100
AcDbEntity
  8
part-24
 62
7
100
AcDbLine
 10
43.262991
 20
1.770724
 30
0.0
 11
43.262991
 21
11.468735
 31
0.0
  0
LINE
  5
19f
100
AcDbEntity
  8
part-24
 62
7
100
AcDbLine
 10
43.262991
 20
11.468735
 30
0.0
 11
43.262991
 21
21.166719
 31
0.0
  0
LINE
  5
1a0
100
AcDbEntity
  8
part-25
 62
7
100
AcDbLine
 10
48.560344
 20
23.821337
 30
0.0
 11
47.437037
 21
23.517648
 31
0.0
  0
LINE
  5
1a1
100
AcDbEntity
  8
part-25
 62
7
100
AcDbLine
 10
47.437037
 20
23.517648
 30
0.0
 11
46.360161
 21
23.112650
 31
0.0
  0
LINE
  5
1a2
100
AcDbEntity
  8
part-25
 62
7
100
AcDbLine
 10
46.360161
 20
23.112650
 30
0.0
 11
45.335377
 21
22.611371
 31
0.0
  0
LINE
  5
1a3
100
AcDbEntity
  8
part-25
 62
7
100
AcDbLine
 10
45.335377
 20
22.611371
 30
0.0
 11
44.368352
 21
22.018863
 31
0.0
  0
LINE
  5
1a4
100
AcDbEntity
  8
part-25
 62
7
100
AcDbLine
 10
44.368352
 20
22.018863
 30
0.0
 11
44.368352
 21
12.885816
 31
0.0
  0
LINE
  5
1a5
100
AcDbEntity
  8
part-25
 62
7
100
AcDbLine
 10
44.368352
 20
12.885816
 30
0.0
 11
44.368352
 21
3.752797
 31
0.0
  0
LINE
  5
1a6
100
AcDbEntity
  8
part-25
 62
7
100
AcDbLine
 10
44.368352
 20
3.752797
 30
0.0
 11
44.368352
 21
-5.380249
 31
0.0
  0
LINE
  5
1a7
100
AcDbEntity
  8
part-25
 62
7
100
AcDbLine
 10
44.368352
 20
-5.380249
 30
0.0
 11
44.368352
 21
-14.513269
 31
0.0
  0
LINE
  5
1a8
100
AcDbEntity
  8
part-25
 62
7
100
AcDbLine
 10
44.368352
 20
-14.513269
 30
0.0
 11
45.416350
 21
-14.513269
 31
0.0
  0
LINE
  5
1a9
100
AcDbEntity
  8
part-25
 62
7
100
AcDbLine
 10
45.416350
 20
-14.513269
 30
0.0
 11
46.464346
 21
-14.513269
 31
0.0
  0
LINE
  5
1aa
100
AcDbEntity
  8
part-25
 62
7
100
AcDbLine
 10
46.464346
 20
-14.513269
 30
0.0
 11
47.512345
 21
-14.513269
 31
0.0
  0
LINE
  5
1ab
100
AcDbEntity
  8
part-25
 62
7
100
AcDbLine
 10
47.512345
 20
-14.513269
 30
0.0
 11
48.560344
 21
-14.513269
 31
0.0
  0
LINE
  5
1ac
100
AcDbEntity
  8
part-25
 62
7
100
AcDbLine
 10
48.560344
 20
-14.513269
 30
0.0
 11
48.560344
 21
-4.929611
 31
0.0
  0
LINE
  5
1ad
100
AcDbEntity
  8
part-25
 62
7
100
AcDbLine
 10
48.560344
 20
-4.929611
 30
0.0
 11
48.560344
 21
4.654021
 31
0.0
  0
LINE
  5
1ae
100
AcDbEntity
  8
part-25
 62
7
100
AcDbLine
 10
48.560344
 20
4.654021
 30
0.0
 11
48.560344
 21
14.237679
 31
0.0
  0
LINE
  5
1af
100
AcDbEntity
  8
part-25
 62
7
100
AcDbLine
 10
48.560344
 20
14.237679
 30
0.0
 11
48.560344
 21
23.821337
 31
0.0
  0
LINE
  5
1b0
100
AcDbEntity
  8
part-26
 62
7
100
AcDbLine
 10
44.368352
 20
-15.571602
 30
0.0
 11
44.368352
 21
-16.297910
 31
0.0
  0
LINE
  5
1b1
100
AcDbEntity
  8
part-26
 62
7
100
AcDbLine
 10
44.368352
 20
-16.297910
 30
0.0
 11
44.368352
 21
-17.024244
 31
0.0
  0
LINE
  5
1b2
100
AcDbEntity
  8
part-26
 62
7
100
AcDbLine
 10
44.368352
 20
-17.024244
 30
0.0
 11
44.368352
 21
-17.750552
 31
0.0
  0
LINE
  5
1b3
100
AcDbEntity
  8
part-26
 62
7
100
AcDbLine
 10
44.368352
 20
-17.750552
 30
0.0
 11
44.368352
 21
-18.476860
 31
0.0
  0
LINE
  5
1b4
100
AcDbEntity
  8
part-26
 62
7
100
AcDbLine
 10
44.368352
 20
-18.476860
 30
0.0
 11
45.896299
 21
-19.359748
 31
0.0
  0
LINE
  5
1b5
100
AcDbEntity
  8
part-26
 62
7
100
AcDbLine
 10
45.896299
 20
-19.359748
 30
0.0
 11
47.555946
 21
-20.016100
 31
0.0
  0
LINE
  5
1b6
100
AcDbEntity
  8
part-26
 62
7
100
AcDbLine
 10
47.555946
 20
-20.016100
 30
0.0
 11
49.326731
 21
-20.425172
 31
0.0
  0
LINE
  5
1b7
100
AcDbEntity
  8
part-26
 62
7
100
AcDbLine
 10
49.326731
 20
-20.425172
 30
0.0
 11
51.188090
 21
-20.566142
 31
0.0
  0
LINE
  5
1b8
100
AcDbEntity
  8
part-26
 62
7
100
AcDbLine
 10
51.188090
 20
-20.566142
 30
0.0
 11
51.962332
 21
-20.566142
 31
0.0
  0
LINE
  5
1b9
100
AcDbEntity
  8
part-26
 62
7
100
AcDbLine
 10
51.962332
 20
-20.566142
 30
0.0
 11
52.736575
 21
-20.566142
 31
0.0
  0
LINE
  5
1ba
100
AcDbEntity
  8
part-26
 62
7
100
AcDbLine
 10
52.736575
 20
-20.566142
 30
0.0
 11
53.510817
 21
-20.566142
 31
0.0
  0
LINE
  5
1bb
100
AcDbEntity
  8
part-26
 62
7
100
AcDbLine
 10
53.510817
 20
-20.566142
 30
0.0
 11
54.285059
 21
-20.566142
 31
0.0
  0
LINE
  5
1bc
100
AcDbEntity
  8
part-26
 62
7
100
AcDbLine
 10
54.285059
 20
-20.566142
 30
0.0
 11
54.615556
 21
-20.561644
 31
0.0
  0
LINE
  5
1bd
100
AcDbEntity
  8
part-26
 62
7
100
AcDbLine
 10
54.615556
 20
-20.561644
 30
0.0
 11
54.943721
 21
-20.547886
 31
0.0
  0
LINE
  5
1be
100
AcDbEntity
  8
part-26
 62
7
100
AcDbLine
 10
54.943721
 20
-20.547886
 30
0.0
 11
55.269539
 21
-20.525661
 31
0.0
  0
LINE
  5
1bf
100
AcDbEntity
  8
part-26
 62
7
100
AcDbLine
 10
55.269539
 20
-20.525661
 30
0.0
 11
55.592987
 21
-20.495339
 31
0.0
  0
LINE
  5
1c0
100
AcDbEntity
  8
part-26
 62
7
100
AcDbLine
 10
55.592987
 20
-20.495339
 30
0.0
 11
55.592987
 21
-19.264418
 31
0.0
  0
LINE
  5
1c1
100
AcDbEntity
  8
part-26
 62
7
100
AcDbLine
 10
55.592987
 20
-19.264418
 30
0.0
 11
55.592987
 21
-18.033471
 31
0.0
  0
LINE
  5
1c2
100
AcDbEntity
  8
part-26
 62
7
100
AcDbLine
 10
55.592987
 20
-18.033471
 30
0.0
 11
55.592987
 21
-16.802550
 31
0.0
  0
LINE
  5
1c3
100
AcDbEntity
  8
part-26
 62
7
100
AcDbLine
 10
55.592987
 20
-16.802550
 30
0.0
 11
55.592987
 21
-15.571602
 31
0.0
  0
LINE
  5
1c4
100
AcDbEntity
  8
part-26
 62
7
100
AcDbLine
 10
55.592987
 20
-15.571602
 30
0.0
 11
52.786827
 21
-15.571602
 31
0.0
  0
LINE
  5
1c5
100
AcDbEntity
  8
part-26
 62
7
100
AcDbLine
 10
52.786827
 20
-15.571602
 30
0.0
 11
49.980669
 21
-15.571602
 31
0.0
  0
LINE
  5
1c6
100
AcDbEntity
  8
part-26
 62
7
100
AcDbLine
 10
49.980669
 20
-15.571602
 30
0.0
 11
47.174509
 21
-15.571602
 31
0.0
  0
LINE
  5
1c7
100
AcDbEntity
  8
part-26
 62
7
100
AcDbLine
 10
47.174509
 20
-15.571602
 30
0.0
 11
44.368352
 21
-15.571602
 31
0.0
  0
LINE
  5
1c8
100
AcDbEntity
  8
part-27
 62
7
100
AcDbLine
 10
56.488025
 20
17.923510
 30
0.0
 11
56.488025
 21
-20.364080
 31
0.0
  0
SPLINE
  5
1c9
100
AcDbEntity
  8
part-27
 62
7
100
AcDbSpline
 70
8
 71
3
 72
8
 73
4
 74
0
 40
0
 40
0
 40
0
 40
0
 40
1
 40
1
 40
1
 40
1
 10
56.488025
 20
-20.364080
 30
0.0
 10
58.004259
 20
-20.087590
 30
0.0
 10
59.420100
 20
-19.532653
 30
0.0
 10
60.680533
 20
-18.750756
 30
0.0
  0
LINE
  5
1ca
100
AcDbEntity
  8
part-27
 62
7
100
AcDbLine
 10
60.680533
 20
-18.750756
 30
0.0
 11
60.680533
 21
17.923510
 31
0.0
  0
LINE
  5
1cb
100
AcDbEntity
  8
part-27
 62
7
100
AcDbLine
 10
60.680533
 20
17.923510
 30
0.0
 11
56.488025
 21
17.923510
 31
0.0
  0
LINE
  5
1cc
100
AcDbEntity
  8
part-28
 62
7
100
AcDbLine
 10
51.188090
 20
24.108145
 30
0.0
 11
50.748657
 21
24.099943
 31
0.0
  0
LINE
  5
1cd
100
AcDbEntity
  8
part-28
 62
7
100
AcDbLine
 10
50.748657
 20
24.099943
 30
0.0
 11
50.313409
 21
24.075866
 31
0.0
  0
LINE
  5
1ce
100
AcDbEntity
  8
part-28
 62
7
100
AcDbLine
 10
50.313409
 20
24.075866
 30
0.0
 11
49.882453
 21
24.036813
 31
0.0
  0
LINE
  5
1cf
100
AcDbEntity
  8
part-28
 62
7
100
AcDbLine
 10
49.882453
 20
24.036813
 30
0.0
 11
49.455895
 21
23.983473
 31
0.0
  0
LINE
  5
1d0
100
AcDbEntity
  8
part-28
 62
7
100
AcDbLine
 10
49.455895
 20
23.983473
 30
0.0
 11
49.455895
 21
22.733026
 31
0.0
  0
LINE
  5
1d1
100
AcDbEntity
  8
part-28
 62
7
100
AcDbLine
 10
49.455895
 20
22.733026
 30
0.0
 11
49.455895
 21
21.482579
 31
0.0
  0
LINE
  5
1d2
100
AcDbEntity
  8
part-28
 62
7
100
AcDbLine
 10
49.455895
 20
21.482579
 30
0.0
 11
49.455895
 21
20.232158
 31
0.0
  0
LINE
  5
1d3
100
AcDbEntity
  8
part-28
 62
7
100
AcDbLine
 10
49.455895
 20
20.232158
 30
0.0
 11
49.455895
 21
18.981711
 31
0.0
  0
LINE
  5
1d4
100
AcDbEntity
  8
part-28
 62
7
100
AcDbLine
 10
49.455895
 20
18.981711
 30
0.0
 11
52.262055
 21
18.981711
 31
0.0
  0
LINE
  5
1d5
100
AcDbEntity
  8
part-28
 62
7
100
AcDbLine
 10
52.262055
 20
18.981711
 30
0.0
 11
55.068215
 21
18.981711
 31
0.0
  0
LINE
  5
1d6
100
AcDbEntity
  8
part-28
 62
7
100
AcDbLine
 10
55.068215
 20
18.981711
 30
0.0
 11
57.874373
 21
18.981711
 31
0.0
  0
LINE
  5
1d7
100
AcDbEntity
  8
part-28
 62
7
100
AcDbLine
 10
57.874373
 20
18.981711
 30
0.0
 11
60.680533
 21
18.981711
 31
0.0
  0
LINE
  5
1d8
100
AcDbEntity
  8
part-28
 62
7
100
AcDbLine
 10
60.680533
 20
18.981711
 30
0.0
 11
60.680533
 21
19.809301
 31
0.0
  0
LINE
  5
1d9
100
AcDbEntity
  8
part-28
 62
7
100
AcDbLine
 10
60.680533
 20
19.809301
 30
0.0
 11
60.680533
 21
20.636891
 31
0.0
  0
LINE
  5
1da
100
AcDbEntity
  8
part-28
 62
7
100
AcDbLine
 10
60.680533
 20
20.636891
 30
0.0
 11
60.680533
 21
21.464508
 31
0.0
  0
LINE
  5
1db
100
AcDbEntity
  8
part-28
 62
7
100
AcDbLine
 10
60.680533
 20
21.464508
 30
0.0
 11
60.680533
 21
22.292098
 31
0.0
  0
LINE
  5
1dc
100
AcDbEntity
  8
part-28
 62
7
100
AcDbLine
 10
60.680533
 20
22.292098
 30
0.0
 11
59.229632
 21
23.061136
 31
0.0
  0
LINE
  5
1dd
100
AcDbEntity
  8
part-28
 62
7
100
AcDbLine
 10
59.229632
 20
23.061136
 30
0.0
 11
57.669276
 21
23.631445
 31
0.0
  0
LINE
  5
1de
100
AcDbEntity
  8
part-28
 62
7
100
AcDbLine
 10
57.669276
 20
23.631445
 30
0.0
 11
56.015678
 21
23.986040
 31
0.0
  0
LINE
  5
1df
100
AcDbEntity
  8
part-28
 62
7
100
AcDbLine
 10
56.015678
 20
23.986040
 30
0.0
 11
54.285059
 21
24.108013
 31
0.0
  0
LINE
  5
1e0
100
AcDbEntity
  8
part-28
 62
7
100
AcDbLine
 10
54.285059
 20
24.108013
 30
0.0
 11
53.510817
 21
24.108013
 31
0.0
  0
LINE
  5
1e1
100
AcDbEntity
  8
part-28
 62
7
100
AcDbLine
 10
53.510817
 20
24.108013
 30
0.0
 11
52.736575
 21
24.108013
 31
0.0
  0
LINE
  5
1e2
100
AcDbEntity
  8
part-28
 62
7
100
AcDbLine
 10
52.736575
 20
24.108013
 30
0.0
 11
51.962332
 21
24.108013
 31
0.0
  0
LINE
  5
1e3
100
AcDbEntity
  8
part-28
 62
7
100
AcDbLine
 10
51.962332
 20
24.108013
 30
0.0
 11
51.188090
 21
24.108145
 31
0.0
  0
LINE
  5
1e4
100
AcDbEntity
  8
part-29
 62
7
100
AcDbLine
 10
61.680989
 20
21.599233
 30
0.0
 11
61.680989
 21
11.685111
 31
0.0
  0
LINE
  5
1e5
100
AcDbEntity
  8
part-29
 62
7
100
AcDbLine
 10
61.680989
 20
11.685111
 30
0.0
 11
61.680989
 21
1.770988
 31
0.0
  0
LINE
  5
1e6
100
AcDbEntity
  8
part-29
 62
7
100
AcDbLine
 10
61.680989
 20
1.770988
 30
0.0
 11
61.680989
 21
-8.143134
 31
0.0
  0
LINE
  5
1e7
100
AcDbEntity
  8
part-29
 62
7
100
AcDbLine
 10
61.680989
 20
-8.143134
 30
0.0
 11
61.680989
 21
-18.057257
 31
0.0
  0
LINE
  5
1e8
100
AcDbEntity
  8
part-29
 62
7
100
AcDbLine
 10
61.680989
 20
-18.057257
 30
0.0
 11
63.631076
 21
-16.174588
 31
0.0
  0
LINE
  5
1e9
100
AcDbEntity
  8
part-29
 62
7
100
AcDbLine
 10
63.631076
 20
-16.174588
 30
0.0
 11
65.119262
 21
-13.894858
 31
0.0
  0
LINE
  5
1ea
100
AcDbEntity
  8
part-29
 62
7
100
AcDbLine
 10
65.119262
 20
-13.894858
 30
0.0
 11
66.068601
 21
-11.294295
 31
0.0
  0
LINE
  5
1eb
100
AcDbEntity
  8
part-29
 62
7
100
AcDbLine
 10
66.068601
 20
-11.294295
 30
0.0
 11
66.402148
 21
-8.449046
 31
0.0
  0
LINE
  5
1ec
100
AcDbEntity
  8
part-29
 62
7
100
AcDbLine
 10
66.402148
 20
-8.449046
 30
0.0
 11
66.402148
 21
-3.339015
 31
0.0
  0
LINE
  5
1ed
100
AcDbEntity
  8
part-29
 62
7
100
AcDbLine
 10
66.402148
 20
-3.339015
 30
0.0
 11
66.402148
 21
1.770988
 31
0.0
  0
LINE
  5
1ee
100
AcDbEntity
  8
part-29
 62
7
100
AcDbLine
 10
66.402148
 20
1.770988
 30
0.0
 11
66.402148
 21
6.881018
 31
0.0
  0
LINE
  5
1ef
100
AcDbEntity
  8
part-29
 62
7
100
AcDbLine
 10
66.402148
 20
6.881018
 30
0.0
 11
66.402148
 21
11.991049
 31
0.0
  0
LINE
  5
1f0
100
AcDbEntity
  8
part-29
 62
7
100
AcDbLine
 10
66.402148
 20
11.991049
 30
0.0
 11
66.068601
 21
14.836298
 31
0.0
  0
LINE
  5
1f1
100
AcDbEntity
  8
part-29
 62
7
100
AcDbLine
 10
66.068601
 20
14.836298
 30
0.0
 11
65.119262
 21
17.436835
 31
0.0
  0
LINE
  5
1f2
100
AcDbEntity
  8
part-29
 62
7
100
AcDbLine
 10
65.119262
 20
17.436835
 30
0.0
 11
63.631076
 21
19.716564
 31
0.0
  0
LINE
  5
1f3
100
AcDbEntity
  8
part-29
 62
7
100
AcDbLine
 10
63.631076
 20
19.716564
 30
0.0
 11
61.680989
 21
21.599233
 31
0.0
  0
ENDSEC
  0
SECTION
  2
OBJECTS
  0
DICTIONARY
  5
C
330
0
100
AcDbDictionary
  3
ACAD_GROUP
350
D
  3
ACAD_MLINESTYLE
350
17
  0
DICTIONARY
  5
D
330
C
100
AcDbDictionary
  0
DICTIONARY
  5
1A
330
C
100
AcDbDictionary
  0
DICTIONARY
  5
17
330
C
100
AcDbDictionary
  3
STANDARD
350
18
  0
DICTIONARY
  5
19
330
C
100
AcDbDictionary
  0
ENDSEC
  0
EOF
