  0
SECTION
  2
HEADER
  9
$ACADVER
  1
AC1014
  9
$HANDSEED
  5
FFFF
  9
$MEASUREMENT
 70
     1
  0
ENDSEC
  0
SECTION
  2
TABLES
  0
TABLE
  2
VPORT
  5
8
330
0
100
AcDbSymbolTable
 70
     4
  0
VPORT
  5
2E
330
8
100
AcDbSymbolTableRecord
100
AcDbViewportTableRecord
  2
*ACTIVE
 70
     0
 10
0.0
 20
0.0
 11
1.0
 21
1.0
 12
210.0
 22
148.5
 13
0.0
 23
0.0
 14
10.0
 24
10.0
 15
10.0
 25
10.0
 16
0.0
 26
0.0
 36
1.0
 17
0.0
 27
0.0
 37
0.0
 40
341.0
 41
1.24
 42
50.0
 43
0.0
 44
0.0
 50
0.0
 51
0.0
 71
     0
 72
   100
 73
     1
 74
     3
 75
     0
 76
     0
 77
     0
 78
     0
  0
ENDTAB
  0
TABLE
  2
LTYPE
  5
5
330
0
100
AcDbSymbolTable
 70
     1
  0
LTYPE
  5
14
330
5
100
AcDbSymbolTableRecord
100
AcDbLinetypeTableRecord
  2
BYBLOCK
 70
     0
  3

 72
    65
 73
     0
 40
0.0
  0
LTYPE
  5
15
330
5
100
AcDbSymbolTableRecord
100
AcDbLinetypeTableRecord
  2
BYLAYER
 70
     0
  3

 72
    65
 73
     0
 40
0.0
  0
LTYPE
  5
16
330
5
100
AcDbSymbolTableRecord
100
AcDbLinetypeTableRecord
  2
CONTINUOUS
 70
     0
  3
Solid line
 72
    65
 73
     0
 40
0.0
  0
ENDTAB
  0
TABLE
  2
LAYER
  5
2
100
AcDbSymbolTable
 70
4
  0
LAYER
  5
50
100
AcDbSymbolTableRecord
100
AcDbLayerTableRecord
  2
0
 70
0
  6
CONTINUOUS
  0
LAYER
  5
51
100
AcDbSymbolTableRecord
100
AcDbLayerTableRecord
  2
original
 70
0
  6
CONTINUOUS
  0
LAYER
  5
52
100
AcDbSymbolTableRecord
100
AcDbLayerTableRecord
  2
cuts
 70
0
  6
CONTINUOUS
  0
LAYER
  5
53
100
AcDbSymbolTableRecord
100
AcDbLayerTableRecord
  2
letters
 70
0
  6
CONTINUOUS
  0
ENDTAB
  0
TABLE
  2
STYLE
  5
3
330
0
100
AcDbSymbolTable
 70
     1
  0
STYLE
  5
11
330
3
100
AcDbSymbolTableRecord
100
AcDbTextStyleTableRecord
  2
STANDARD
 70
     0
 40
0.0
 41
1.0
 50
0.0
 71
     0
 42
2.5
  3
txt
  4

  0
ENDTAB
  0
TABLE
  2
VIEW
  5
6
330
0
100
AcDbSymbolTable
 70
     0
  0
ENDTAB
  0
TABLE
  2
UCS
  5
7
330
0
100
AcDbSymbolTable
 70
     0
  0
ENDTAB
  0
TABLE
  2
APPID
  5
9
330
0
100
AcDbSymbolTable
 70
     2
  0
APPID
  5
12
330
9
100
AcDbSymbolTableRecord
100
AcDbRegAppTableRecord
  2
ACAD
 70
     0
  0
ENDTAB
  0
TABLE
  2
DIMSTYLE
  5
A
330
0
100
AcDbSymbolTable
 70
     1
  0
DIMSTYLE
105
27
330
A
100
AcDbSymbolTableRecord
100
AcDbDimStyleTableRecord
  2
ISO-25
 70
     0
  3

  4

  5

  6

  7

 40
1.0
 41
2.5
 42
0.625
 43
3.75
 44
1.25
 45
0.0
 46
0.0
 47
0.0
 48
0.0
140
2.5
141
2.5
142
0.0
143
0.03937007874016
144
1.0
145
0.0
146
1.0
147
0.625
 71
     0
 72
     0
 73
     0
 74
     0
 75
     0
 76
     0
 77
     1
 78
     8
170
     0
171
     3
172
     1
173
     0
174
     0
175
     0
176
     0
177
     0
178
     0
270
     2
271
     2
272
     2
273
     2
274
     3
340
11
275
     0
280
     0
281
     0
282
     0
283
     0
284
     8
285
     0
286
     0
287
     3
288
     0
  0
ENDTAB
  0
TABLE
  2
BLOCK_RECORD
  5
1
330
0
100
AcDbSymbolTable
 70
     1
  0
BLOCK_RECORD
  5
1F
330
1
100
AcDbSymbolTableRecord
100
AcDbBlockTableRecord
  2
*MODEL_SPACE
  0
BLOCK_RECORD
  5
1B
330
1
100
AcDbSymbolTableRecord
100
AcDbBlockTableRecord
  2
*PAPER_SPACE
  0
ENDTAB
  0
ENDSEC
  0
SECTION
  2
BLOCKS
  0
BLOCK
  5
20
330
1F
100
AcDbEntity
  8
0
100
AcDbBlockBegin
  2
*MODEL_SPACE
 70
     0
 10
0.0
 20
0.0
 30
0.0
  3
*MODEL_SPACE
  1

  0
ENDBLK
  5
21
330
1F
100
AcDbEntity
  8
0
100
AcDbBlockEnd
  0
BLOCK
  5
1C
330
1B
100
AcDbEntity
 67
     1
  8
0
100
AcDbBlockBegin
  2
*PAPER_SPACE
  1

  0
ENDBLK
  5
1D
330
1B
100
AcDbEntity
 67
     1
  8
0
100
AcDbBlockEnd
  0
ENDSEC
  0
SECTION
  2
ENTITIES
  0
LINE
  5
100
100
AcDbEntity
  8
cuts
 62
7
100
AcDbLine
 10
-40.751784
 20
-8.139751
 30
0.0
 11
37.788493
 21
-8.139751
 31
0.0
  0
LINE
  5
101
100
AcDbEntity
  8
cuts
 62
7
100
AcDbLine
 10
37.788493
 20
-8.139751
 30
0.0
 11
37.788493
 21
-8.991075
 31
0.0
  0
LINE
  5
102
100
AcDbEntity
  8
cuts
 62
7
100
AcDbLine
 10
37.788493
 20
-8.991075
 30
0.0
 11
-40.751784
 21
-8.991075
 31
0.0
  0
LINE
  5
103
100
AcDbEntity
  8
cuts
 62
7
100
AcDbLine
 10
-40.751784
 20
-8.991075
 30
0.0
 11
-40.751784
 21
-8.139751
 31
0.0
  0
LINE
  5
104
100
AcDbEntity
  8
cuts
 62
7
100
AcDbLine
 10
-38.875274
 20
-6.575879
 30
0.0
 11
38.018807
 21
-6.575879
 31
0.0
  0
LINE
  5
105
100
AcDbEntity
  8
cuts
 62
7
100
AcDbLine
 10
38.018807
 20
-6.575879
 30
0.0
 11
38.018807
 21
-7.427202
 31
0.0
  0
LINE
  5
106
100
AcDbEntity
  8
cuts
 62
7
100
AcDbLine
 10
38.018807
 20
-7.427202
 30
0.0
 11
-38.875274
 21
-7.427202
 31
0.0
  0
LINE
  5
107
100
AcDbEntity
  8
cuts
 62
7
100
AcDbLine
 10
-38.875274
 20
-7.427202
 30
0.0
 11
-38.875274
 21
-6.575879
 31
0.0
  0
LINE
  5
108
100
AcDbEntity
  8
cuts
 62
7
100
AcDbLine
 10
-38.879873
 20
-5.161654
 30
0.0
 11
39.560243
 21
-5.161654
 31
0.0
  0
LINE
  5
109
100
AcDbEntity
  8
cuts
 62
7
100
AcDbLine
 10
39.560243
 20
-5.161654
 30
0.0
 11
39.560243
 21
-6.012978
 31
0.0
  0
LINE
  5
10a
100
AcDbEntity
  8
cuts
 62
7
100
AcDbLine
 10
39.560243
 20
-6.012978
 30
0.0
 11
-38.879873
 21
-6.012978
 31
0.0
  0
LINE
  5
10b
100
AcDbEntity
  8
cuts
 62
7
100
AcDbLine
 10
-38.879873
 20
-6.012978
 30
0.0
 11
-38.879873
 21
-5.161654
 31
0.0
  0
LINE
  5
10c
100
AcDbEntity
  8
cuts
 62
7
100
AcDbLine
 10
-37.734079
 20
-4.023681
 30
0.0
 11
37.277786
 21
-4.023681
 31
0.0
  0
LINE
  5
10d
100
AcDbEntity
  8
cuts
 62
7
100
AcDbLine
 10
37.277786
 20
-4.023681
 30
0.0
 11
37.277786
 21
-4.666460
 31
0.0
  0
LINE
  5
10e
100
AcDbEntity
  8
cuts
 62
7
100
AcDbLine
 10
37.277786
 20
-4.666460
 30
0.0
 11
-37.734079
 21
-4.666460
 31
0.0
  0
LINE
  5
10f
100
AcDbEntity
  8
cuts
 62
7
100
AcDbLine
 10
-37.734079
 20
-4.666460
 30
0.0
 11
-37.734079
 21
-4.023681
 31
0.0
  0
LINE
  5
110
100
AcDbEntity
  8
cuts
 62
7
100
AcDbLine
 10
-38.266907
 20
-2.834300
 30
0.0
 11
38.762609
 21
-2.834300
 31
0.0
  0
LINE
  5
111
100
AcDbEntity
  8
cuts
 62
7
100
AcDbLine
 10
38.762609
 20
-2.834300
 30
0.0
 11
38.762609
 21
-3.477079
 31
0.0
  0
LINE
  5
112
100
AcDbEntity
  8
cuts
 62
7
100
AcDbLine
 10
38.762609
 20
-3.477079
 30
0.0
 11
-38.266907
 21
-3.477079
 31
0.0
  0
LINE
  5
113
100
AcDbEntity
  8
cuts
 62
7
100
AcDbLine
 10
-38.266907
 20
-3.477079
 30
0.0
 11
-38.266907
 21
-2.834300
 31
0.0
  0
LINE
  5
114
100
AcDbEntity
  8
cuts
 62
7
100
AcDbLine
 10
-38.051497
 20
-1.620603
 30
0.0
 11
38.101000
 21
-1.620603
 31
0.0
  0
LINE
  5
115
100
AcDbEntity
  8
cuts
 62
7
100
AcDbLine
 10
38.101000
 20
-1.620603
 30
0.0
 11
38.101000
 21
-2.263409
 31
0.0
  0
LINE
  5
116
100
AcDbEntity
  8
cuts
 62
7
100
AcDbLine
 10
38.101000
 20
-2.263409
 30
0.0
 11
-38.051497
 21
-2.263409
 31
0.0
  0
LINE
  5
117
100
AcDbEntity
  8
cuts
 62
7
100
AcDbLine
 10
-38.051497
 20
-2.263409
 30
0.0
 11
-38.051497
 21
-1.620603
 31
0.0
  0
LINE
  5
118
100
AcDbEntity
  8
cuts
 62
7
100
AcDbLine
 10
-39.180617
 20
0.938500
 30
0.0
 11
40.229311
 21
0.938500
 31
0.0
  0
LINE
  5
119
100
AcDbEntity
  8
cuts
 62
7
100
AcDbLine
 10
40.229311
 20
0.938500
 30
0.0
 11
40.229311
 21
0.474950
 31
0.0
  0
LINE
  5
11a
100
AcDbEntity
  8
cuts
 62
7
100
AcDbLine
 10
40.229311
 20
0.474950
 30
0.0
 11
-39.180617
 21
0.474950
 31
0.0
  0
LINE
  5
11b
100
AcDbEntity
  8
cuts
 62
7
100
AcDbLine
 10
-39.180617
 20
0.474950
 30
0.0
 11
-39.180617
 21
0.938500
 31
0.0
  0
LINE
  5
11c
100
AcDbEntity
  8
cuts
 62
7
100
AcDbLine
 10
-37.927680
 20
-0.447520
 30
0.0
 11
37.183253
 21
-0.447520
 31
0.0
  0
LINE
  5
11d
100
AcDbEntity
  8
cuts
 62
7
100
AcDbLine
 10
37.183253
 20
-0.447520
 30
0.0
 11
37.183253
 21
-0.972983
 31
0.0
  0
LINE
  5
11e
100
AcDbEntity
  8
cuts
 62
7
100
AcDbLine
 10
37.183253
 20
-0.972983
 30
0.0
 11
-37.927680
 21
-0.972983
 31
0.0
  0
LINE
  5
11f
100
AcDbEntity
  8
cuts
 62
7
100
AcDbLine
 10
-37.927680
 20
-0.972983
 30
0.0
 11
-37.927680
 21
-0.447520
 31
0.0
  0
LINE
  5
120
100
AcDbEntity
  8
cuts
 62
7
100
AcDbLine
 10
-40.878519
 20
2.122457
 30
0.0
 11
40.581342
 21
2.122457
 31
0.0
  0
LINE
  5
121
100
AcDbEntity
  8
cuts
 62
7
100
AcDbLine
 10
40.581342
 20
2.122457
 30
0.0
 11
40.581342
 21
1.779478
 31
0.0
  0
LINE
  5
122
100
AcDbEntity
  8
cuts
 62
7
100
AcDbLine
 10
40.581342
 20
1.779478
 30
0.0
 11
-40.878519
 21
1.779478
 31
0.0
  0
LINE
  5
123
100
AcDbEntity
  8
cuts
 62
7
100
AcDbLine
 10
-40.878519
 20
1.779478
 30
0.0
 11
-40.878519
 21
2.122457
 31
0.0
  0
LINE
  5
124
100
AcDbEntity
  8
cuts
 62
7
100
AcDbLine
 10
-40.878519
 20
3.180817
 30
0.0
 11
40.581342
 21
3.180817
 31
0.0
  0
LINE
  5
125
100
AcDbEntity
  8
cuts
 62
7
100
AcDbLine
 10
40.581342
 20
3.180817
 30
0.0
 11
40.581342
 21
2.837811
 31
0.0
  0
LINE
  5
126
100
AcDbEntity
  8
cuts
 62
7
100
AcDbLine
 10
40.581342
 20
2.837811
 30
0.0
 11
-40.878519
 21
2.837811
 31
0.0
  0
LINE
  5
127
100
AcDbEntity
  8
cuts
 62
7
100
AcDbLine
 10
-40.878519
 20
2.837811
 30
0.0
 11
-40.878519
 21
3.180817
 31
0.0
  0
LINE
  5
128
100
AcDbEntity
  8
letters
 62
7
100
AcDbLine
 10
0.710973
 20
14.292708
 30
0.0
 11
0.710973
 21
8.295663
 31
0.0
  0
LINE
  5
129
100
AcDbEntity
  8
letters
 62
7
100
AcDbLine
 10
0.710973
 20
8.295663
 30
0.0
 11
0.710973
 21
2.298590
 31
0.0
  0
LINE
  5
12a
100
AcDbEntity
  8
letters
 62
7
100
AcDbLine
 10
0.710973
 20
2.298590
 30
0.0
 11
0.710973
 21
-3.698456
 31
0.0
  0
LINE
  5
12b
100
AcDbEntity
  8
letters
 62
7
100
AcDbLine
 10
0.710973
 20
-3.698456
 30
0.0
 11
0.710973
 21
-9.695501
 31
0.0
  0
LINE
  5
12c
100
AcDbEntity
  8
letters
 62
7
100
AcDbLine
 10
0.710973
 20
-9.695501
 30
0.0
 11
1.994229
 21
-9.695501
 31
0.0
  0
LINE
  5
12d
100
AcDbEntity
  8
letters
 62
7
100
AcDbLine
 10
1.994229
 20
-9.695501
 30
0.0
 11
3.277483
 21
-9.695501
 31
0.0
  0
LINE
  5
12e
100
AcDbEntity
  8
letters
 62
7
100
AcDbLine
 10
3.277483
 20
-9.695501
 30
0.0
 11
4.560738
 21
-9.695501
 31
0.0
  0
LINE
  5
12f
100
AcDbEntity
  8
letters
 62
7
100
AcDbLine
 10
4.560738
 20
-9.695501
 30
0.0
 11
5.843994
 21
-9.695501
 31
0.0
  0
LINE
  5
130
100
AcDbEntity
  8
letters
 62
7
100
AcDbLine
 10
5.843994
 20
-9.695501
 30
0.0
 11
5.843994
 21
-6.167177
 31
0.0
  0
LINE
  5
131
100
AcDbEntity
  8
letters
 62
7
100
AcDbLine
 10
5.843994
 20
-6.167177
 30
0.0
 11
5.843994
 21
-2.638826
 31
0.0
  0
LINE
  5
132
100
AcDbEntity
  8
letters
 62
7
100
AcDbLine
 10
5.843994
 20
-2.638826
 30
0.0
 11
5.843994
 21
0.889499
 31
0.0
  0
LINE
  5
133
100
AcDbEntity
  8
letters
 62
7
100
AcDbLine
 10
5.843994
 20
0.889499
 30
0.0
 11
5.843994
 21
4.417850
 31
0.0
  0
LINE
  5
134
100
AcDbEntity
  8
letters
 62
7
100
AcDbLine
 10
5.843994
 20
4.417850
 30
0.0
 11
7.046633
 21
0.889499
 31
0.0
  0
LINE
  5
135
100
AcDbEntity
  8
letters
 62
7
100
AcDbLine
 10
7.046633
 20
0.889499
 30
0.0
 11
8.249273
 21
-2.638826
 31
0.0
  0
LINE
  5
136
100
AcDbEntity
  8
letters
 62
7
100
AcDbLine
 10
8.249273
 20
-2.638826
 30
0.0
 11
9.451913
 21
-6.167177
 31
0.0
  0
LINE
  5
137
100
AcDbEntity
  8
letters
 62
7
100
AcDbLine
 10
9.451913
 20
-6.167177
 30
0.0
 11
10.654552
 21
-9.695501
 31
0.0
  0
LINE
  5
138
100
AcDbEntity
  8
letters
 62
7
100
AcDbLine
 10
10.654552
 20
-9.695501
 30
0.0
 11
12.375636
 21
-9.695501
 31
0.0
  0
LINE
  5
139
100
AcDbEntity
  8
letters
 62
7
100
AcDbLine
 10
12.375636
 20
-9.695501
 30
0.0
 11
14.096720
 21
-9.695501
 31
0.0
  0
LINE
  5
13a
100
AcDbEntity
  8
letters
 62
7
100
AcDbLine
 10
14.096720
 20
-9.695501
 30
0.0
 11
15.817803
 21
-9.695501
 31
0.0
  0
LINE
  5
13b
100
AcDbEntity
  8
letters
 62
7
100
AcDbLine
 10
15.817803
 20
-9.695501
 30
0.0
 11
17.538887
 21
-9.695501
 31
0.0
  0
LINE
  5
13c
100
AcDbEntity
  8
letters
 62
7
100
AcDbLine
 10
17.538887
 20
-9.695501
 30
0.0
 11
17.538887
 21
-3.698456
 31
0.0
  0
LINE
  5
13d
100
AcDbEntity
  8
letters
 62
7
100
AcDbLine
 10
17.538887
 20
-3.698456
 30
0.0
 11
17.538887
 21
2.298590
 31
0.0
  0
LINE
  5
13e
100
AcDbEntity
  8
letters
 62
7
100
AcDbLine
 10
17.538887
 20
2.298590
 30
0.0
 11
17.538887
 21
8.295663
 31
0.0
  0
LINE
  5
13f
100
AcDbEntity
  8
letters
 62
7
100
AcDbLine
 10
17.538887
 20
8.295663
 30
0.0
 11
17.538887
 21
14.292708
 31
0.0
  0
LINE
  5
140
100
AcDbEntity
  8
letters
 62
7
100
AcDbLine
 10
17.538887
 20
14.292708
 30
0.0
 11
16.184318
 21
14.292708
 31
0.0
  0
LINE
  5
141
100
AcDbEntity
  8
letters
 62
7
100
AcDbLine
 10
16.184318
 20
14.292708
 30
0.0
 11
14.829750
 21
14.292708
 31
0.0
  0
LINE
  5
142
100
AcDbEntity
  8
letters
 62
7
100
AcDbLine
 10
14.829750
 20
14.292708
 30
0.0
 11
13.475181
 21
14.292708
 31
0.0
  0
LINE
  5
143
100
AcDbEntity
  8
letters
 62
7
100
AcDbLine
 10
13.475181
 20
14.292708
 30
0.0
 11
12.120613
 21
14.292708
 31
0.0
  0
LINE
  5
144
100
AcDbEntity
  8
letters
 62
7
100
AcDbLine
 10
12.120613
 20
14.292708
 30
0.0
 11
12.120613
 21
10.322530
 31
0.0
  0
LINE
  5
145
100
AcDbEntity
  8
letters
 62
7
100
AcDbLine
 10
12.120613
 20
10.322530
 30
0.0
 11
12.120613
 21
6.352351
 31
0.0
  0
LINE
  5
146
100
AcDbEntity
  8
letters
 62
7
100
AcDbLine
 10
12.120613
 20
6.352351
 30
0.0
 11
12.120613
 21
2.382199
 31
0.0
  0
LINE
  5
147
100
AcDbEntity
  8
letters
 62
7
100
AcDbLine
 10
12.120613
 20
2.382199
 30
0.0
 11
12.120613
 21
-1.587980
 31
0.0
  0
LINE
  5
148
100
AcDbEntity
  8
letters
 62
7
100
AcDbLine
 10
12.120613
 20
-1.587980
 30
0.0
 11
10.767207
 21
2.382199
 31
0.0
  0
LINE
  5
149
100
AcDbEntity
  8
letters
 62
7
100
AcDbLine
 10
10.767207
 20
2.382199
 30
0.0
 11
9.413801
 21
6.352351
 31
0.0
  0
LINE
  5
14a
100
AcDbEntity
  8
letters
 62
7
100
AcDbLine
 10
9.413801
 20
6.352351
 30
0.0
 11
8.060395
 21
10.322530
 31
0.0
  0
LINE
  5
14b
100
AcDbEntity
  8
letters
 62
7
100
AcDbLine
 10
8.060395
 20
10.322530
 30
0.0
 11
6.706990
 21
14.292708
 31
0.0
  0
LINE
  5
14c
100
AcDbEntity
  8
letters
 62
7
100
AcDbLine
 10
6.706990
 20
14.292708
 30
0.0
 11
5.207986
 21
14.292708
 31
0.0
  0
LINE
  5
14d
100
AcDbEntity
  8
letters
 62
7
100
AcDbLine
 10
5.207986
 20
14.292708
 30
0.0
 11
3.708982
 21
14.292708
 31
0.0
  0
LINE
  5
14e
100
AcDbEntity
  8
letters
 62
7
100
AcDbLine
 10
3.708982
 20
14.292708
 30
0.0
 11
2.209977
 21
14.292708
 31
0.0
  0
LINE
  5
14f
100
AcDbEntity
  8
letters
 62
7
100
AcDbLine
 10
2.209977
 20
14.292708
 30
0.0
 11
0.710973
 21
14.292708
 31
0.0
  0
LINE
  5
150
100
AcDbEntity
  8
letters
 62
7
100
AcDbLine
 10
24.176280
 20
14.658945
 30
0.0
 11
22.220544
 21
14.266435
 31
0.0
  0
LINE
  5
151
100
AcDbEntity
  8
letters
 62
7
100
AcDbLine
 10
22.220544
 20
14.266435
 30
0.0
 11
20.626619
 21
13.194793
 31
0.0
  0
LINE
  5
152
100
AcDbEntity
  8
letters
 62
7
100
AcDbLine
 10
20.626619
 20
13.194793
 30
0.0
 11
19.553596
 21
11.602848
 31
0.0
  0
LINE
  5
153
100
AcDbEntity
  8
letters
 62
7
100
AcDbLine
 10
19.553596
 20
11.602848
 30
0.0
 11
19.160568
 21
9.649430
 31
0.0
  0
LINE
  5
154
100
AcDbEntity
  8
letters
 62
7
100
AcDbLine
 10
19.160568
 20
9.649430
 30
0.0
 11
19.160568
 21
6.067262
 31
0.0
  0
LINE
  5
155
100
AcDbEntity
  8
letters
 62
7
100
AcDbLine
 10
19.160568
 20
6.067262
 30
0.0
 11
19.160568
 21
2.485069
 31
0.0
  0
LINE
  5
156
100
AcDbEntity
  8
letters
 62
7
100
AcDbLine
 10
19.160568
 20
2.485069
 30
0.0
 11
19.160568
 21
-1.097099
 31
0.0
  0
LINE
  5
157
100
AcDbEntity
  8
letters
 62
7
100
AcDbLine
 10
19.160568
 20
-1.097099
 30
0.0
 11
19.160568
 21
-4.679266
 31
0.0
  0
LINE
  5
158
100
AcDbEntity
  8
letters
 62
7
100
AcDbLine
 10
19.160568
 20
-4.679266
 30
0.0
 11
19.553596
 21
-6.632420
 31
0.0
  0
LINE
  5
159
100
AcDbEntity
  8
letters
 62
7
100
AcDbLine
 10
19.553596
 20
-6.632420
 30
0.0
 11
20.626619
 21
-8.223836
 31
0.0
  0
LINE
  5
15a
100
AcDbEntity
  8
letters
 62
7
100
AcDbLine
 10
20.626619
 20
-8.223836
 30
0.0
 11
22.220544
 21
-9.294949
 31
0.0
  0
LINE
  5
15b
100
AcDbEntity
  8
letters
 62
7
100
AcDbLine
 10
22.220544
 20
-9.294949
 30
0.0
 11
24.176280
 21
-9.687220
 31
0.0
  0
LINE
  5
15c
100
AcDbEntity
  8
letters
 62
7
100
AcDbLine
 10
24.176280
 20
-9.687220
 30
0.0
 11
25.814662
 21
-9.687220
 31
0.0
  0
LINE
  5
15d
100
AcDbEntity
  8
letters
 62
7
100
AcDbLine
 10
25.814662
 20
-9.687220
 30
0.0
 11
27.453048
 21
-9.687220
 31
0.0
  0
LINE
  5
15e
100
AcDbEntity
  8
letters
 62
7
100
AcDbLine
 10
27.453048
 20
-9.687220
 30
0.0
 11
29.091432
 21
-9.687220
 31
0.0
  0
LINE
  5
15f
100
AcDbEntity
  8
letters
 62
7
100
AcDbLine
 10
29.091432
 20
-9.687220
 30
0.0
 11
30.729814
 21
-9.687220
 31
0.0
  0
LINE
  5
160
100
AcDbEntity
  8
letters
 62
7
100
AcDbLine
 10
30.729814
 20
-9.687220
 30
0.0
 11
32.685551
 21
-9.294949
 31
0.0
  0
LINE
  5
161
100
AcDbEntity
  8
letters
 62
7
100
AcDbLine
 10
32.685551
 20
-9.294949
 30
0.0
 11
34.279478
 21
-8.223836
 31
0.0
  0
LINE
  5
162
100
AcDbEntity
  8
letters
 62
7
100
AcDbLine
 10
34.279478
 20
-8.223836
 30
0.0
 11
35.352501
 21
-6.632420
 31
0.0
  0
LINE
  5
163
100
AcDbEntity
  8
letters
 62
7
100
AcDbLine
 10
35.352501
 20
-6.632420
 30
0.0
 11
35.745528
 21
-4.679266
 31
0.0
  0
LINE
  5
164
100
AcDbEntity
  8
letters
 62
7
100
AcDbLine
 10
35.745528
 20
-4.679266
 30
0.0
 11
35.745528
 21
-1.097099
 31
0.0
  0
LINE
  5
165
100
AcDbEntity
  8
letters
 62
7
100
AcDbLine
 10
35.745528
 20
-1.097099
 30
0.0
 11
35.745528
 21
2.485069
 31
0.0
  0
LINE
  5
166
100
AcDbEntity
  8
letters
 62
7
100
AcDbLine
 10
35.745528
 20
2.485069
 30
0.0
 11
35.745528
 21
6.067262
 31
0.0
  0
LINE
  5
167
100
AcDbEntity
  8
letters
 62
7
100
AcDbLine
 10
35.745528
 20
6.067262
 30
0.0
 11
35.745528
 21
9.649430
 31
0.0
  0
LINE
  5
168
100
AcDbEntity
  8
letters
 62
7
100
AcDbLine
 10
35.745528
 20
9.649430
 30
0.0
 11
35.352501
 21
11.602848
 31
0.0
  0
LINE
  5
169
100
AcDbEntity
  8
letters
 62
7
100
AcDbLine
 10
35.352501
 20
11.602848
 30
0.0
 11
34.279478
 21
13.194793
 31
0.0
  0
LINE
  5
16a
100
AcDbEntity
  8
letters
 62
7
100
AcDbLine
 10
34.279478
 20
13.194793
 30
0.0
 11
32.685551
 21
14.266435
 31
0.0
  0
LINE
  5
16b
100
AcDbEntity
  8
letters
 62
7
100
AcDbLine
 10
32.685551
 20
14.266435
 30
0.0
 11
30.729814
 21
14.658945
 31
0.0
  0
LINE
  5
16c
100
AcDbEntity
  8
letters
 62
7
100
AcDbLine
 10
30.729814
 20
14.658945
 30
0.0
 11
29.091432
 21
14.658945
 31
0.0
  0
LINE
  5
16d
100
AcDbEntity
  8
letters
 62
7
100
AcDbLine
 10
29.091432
 20
14.658945
 30
0.0
 11
27.453048
 21
14.658945
 31
0.0
  0
LINE
  5
16e
100
AcDbEntity
  8
letters
 62
7
100
AcDbLine
 10
27.453048
 20
14.658945
 30
0.0
 11
25.814662
 21
14.658945
 31
0.0
  0
LINE
  5
16f
100
AcDbEntity
  8
letters
 62
7
100
AcDbLine
 10
25.814662
 20
14.658945
 30
0.0
 11
24.176280
 21
14.658945
 31
0.0
  0
LINE
  5
170
100
AcDbEntity
  8
letters
 62
7
100
AcDbLine
 10
26.770954
 20
10.533111
 30
0.0
 11
27.112002
 21
10.533111
 31
0.0
  0
LINE
  5
171
100
AcDbEntity
  8
letters
 62
7
100
AcDbLine
 10
27.112002
 20
10.533111
 30
0.0
 11
27.453048
 21
10.533111
 31
0.0
  0
LINE
  5
172
100
AcDbEntity
  8
letters
 62
7
100
AcDbLine
 10
27.453048
 20
10.533111
 30
0.0
 11
27.794096
 21
10.533111
 31
0.0
  0
LINE
  5
173
100
AcDbEntity
  8
letters
 62
7
100
AcDbLine
 10
27.794096
 20
10.533111
 30
0.0
 11
28.135141
 21
10.533111
 31
0.0
  0
LINE
  5
174
100
AcDbEntity
  8
letters
 62
7
100
AcDbLine
 10
28.135141
 20
10.533111
 30
0.0
 11
28.699740
 21
10.419658
 31
0.0
  0
LINE
  5
175
100
AcDbEntity
  8
letters
 62
7
100
AcDbLine
 10
28.699740
 20
10.419658
 30
0.0
 11
29.159885
 21
10.109884
 31
0.0
  0
LINE
  5
176
100
AcDbEntity
  8
letters
 62
7
100
AcDbLine
 10
29.159885
 20
10.109884
 30
0.0
 11
29.469652
 21
9.649721
 31
0.0
  0
LINE
  5
177
100
AcDbEntity
  8
letters
 62
7
100
AcDbLine
 10
29.469652
 20
9.649721
 30
0.0
 11
29.583113
 21
9.085126
 31
0.0
  0
LINE
  5
178
100
AcDbEntity
  8
letters
 62
7
100
AcDbLine
 10
29.583113
 20
9.085126
 30
0.0
 11
29.583113
 21
5.674779
 31
0.0
  0
LINE
  5
179
100
AcDbEntity
  8
letters
 62
7
100
AcDbLine
 10
29.583113
 20
5.674779
 30
0.0
 11
29.583113
 21
2.264433
 31
0.0
  0
LINE
  5
17a
100
AcDbEntity
  8
letters
 62
7
100
AcDbLine
 10
29.583113
 20
2.264433
 30
0.0
 11
29.583113
 21
-1.145914
 31
0.0
  0
LINE
  5
17b
100
AcDbEntity
  8
letters
 62
7
100
AcDbLine
 10
29.583113
 20
-1.145914
 30
0.0
 11
29.583113
 21
-4.556261
 31
0.0
  0
LINE
  5
17c
100
AcDbEntity
  8
letters
 62
7
100
AcDbLine
 10
29.583113
 20
-4.556261
 30
0.0
 11
29.469652
 21
-5.120776
 31
0.0
  0
LINE
  5
17d
100
AcDbEntity
  8
letters
 62
7
100
AcDbLine
 10
29.469652
 20
-5.120776
 30
0.0
 11
29.159885
 21
-5.580754
 31
0.0
  0
LINE
  5
17e
100
AcDbEntity
  8
letters
 62
7
100
AcDbLine
 10
29.159885
 20
-5.580754
 30
0.0
 11
28.699740
 21
-5.890343
 31
0.0
  0
LINE
  5
17f
100
AcDbEntity
  8
letters
 62
7
100
AcDbLine
 10
28.699740
 20
-5.890343
 30
0.0
 11
28.135141
 21
-6.003717
 31
0.0
  0
LINE
  5
180
100
AcDbEntity
  8
letters
 62
7
100
AcDbLine
 10
28.135141
 20
-6.003717
 30
0.0
 11
27.794096
 21
-6.003717
 31
0.0
  0
LINE
  5
181
100
AcDbEntity
  8
letters
 62
7
100
AcDbLine
 10
27.794096
 20
-6.003717
 30
0.0
 11
27.453048
 21
-6.003717
 31
0.0
  0
LINE
  5
182
100
AcDbEntity
  8
letters
 62
7
100
AcDbLine
 10
27.453048
 20
-6.003717
 30
0.0
 11
27.112000
 21
-6.003717
 31
0.0
  0
LINE
  5
183
100
AcDbEntity
  8
letters
 62
7
100
AcDbLine
 10
27.112000
 20
-6.003717
 30
0.0
 11
26.770954
 21
-6.003717
 31
0.0
  0
LINE
  5
184
100
AcDbEntity
  8
letters
 62
7
100
AcDbLine
 10
26.770954
 20
-6.003717
 30
0.0
 11
26.206357
 21
-5.890343
 31
0.0
  0
LINE
  5
185
100
AcDbEntity
  8
letters
 62
7
100
AcDbLine
 10
26.206357
 20
-5.890343
 30
0.0
 11
25.746209
 21
-5.580754
 31
0.0
  0
LINE
  5
186
100
AcDbEntity
  8
letters
 62
7
100
AcDbLine
 10
25.746209
 20
-5.580754
 30
0.0
 11
25.436443
 21
-5.120776
 31
0.0
  0
LINE
  5
187
100
AcDbEntity
  8
letters
 62
7
100
AcDbLine
 10
25.436443
 20
-5.120776
 30
0.0
 11
25.322982
 21
-4.556261
 31
0.0
  0
LINE
  5
188
100
AcDbEntity
  8
letters
 62
7
100
AcDbLine
 10
25.322982
 20
-4.556261
 30
0.0
 11
25.322982
 21
-1.145914
 31
0.0
  0
LINE
  5
189
100
AcDbEntity
  8
letters
 62
7
100
AcDbLine
 10
25.322982
 20
-1.145914
 30
0.0
 11
25.322982
 21
2.264433
 31
0.0
  0
LINE
  5
18a
100
AcDbEntity
  8
letters
 62
7
100
AcDbLine
 10
25.322982
 20
2.264433
 30
0.0
 11
25.322982
 21
5.674779
 31
0.0
  0
LINE
  5
18b
100
AcDbEntity
  8
letters
 62
7
100
AcDbLine
 10
25.322982
 20
5.674779
 30
0.0
 11
25.322982
 21
9.085126
 31
0.0
  0
LINE
  5
18c
100
AcDbEntity
  8
letters
 62
7
100
AcDbLine
 10
25.322982
 20
9.085126
 30
0.0
 11
25.436443
 21
9.649721
 31
0.0
  0
LINE
  5
18d
100
AcDbEntity
  8
letters
 62
7
100
AcDbLine
 10
25.436443
 20
9.649721
 30
0.0
 11
25.746209
 21
10.109884
 31
0.0
  0
LINE
  5
18e
100
AcDbEntity
  8
letters
 62
7
100
AcDbLine
 10
25.746209
 20
10.109884
 30
0.0
 11
26.206357
 21
10.419658
 31
0.0
  0
LINE
  5
18f
100
AcDbEntity
  8
letters
 62
7
100
AcDbLine
 10
26.206357
 20
10.419658
 30
0.0
 11
26.770954
 21
10.533111
 31
0.0
  0
LINE
  5
190
100
AcDbEntity
  8
letters
 62
7
100
AcDbLine
 10
-35.630477
 20
14.157824
 30
0.0
 11
-35.630477
 21
12.905445
 31
0.0
  0
LINE
  5
191
100
AcDbEntity
  8
letters
 62
7
100
AcDbLine
 10
-35.630477
 20
12.905445
 30
0.0
 11
-35.630477
 21
11.653066
 31
0.0
  0
LINE
  5
192
100
AcDbEntity
  8
letters
 62
7
100
AcDbLine
 10
-35.630477
 20
11.653066
 30
0.0
 11
-35.630477
 21
10.400688
 31
0.0
  0
LINE
  5
193
100
AcDbEntity
  8
letters
 62
7
100
AcDbLine
 10
-35.630477
 20
10.400688
 30
0.0
 11
-35.630477
 21
9.148309
 31
0.0
  0
LINE
  5
194
100
AcDbEntity
  8
letters
 62
7
100
AcDbLine
 10
-35.630477
 20
9.148309
 30
0.0
 11
-35.630477
 21
5.691422
 31
0.0
  0
LINE
  5
195
100
AcDbEntity
  8
letters
 62
7
100
AcDbLine
 10
-35.630477
 20
5.691422
 30
0.0
 11
-35.630477
 21
2.234508
 31
0.0
  0
LINE
  5
196
100
AcDbEntity
  8
letters
 62
7
100
AcDbLine
 10
-35.630477
 20
2.234508
 30
0.0
 11
-35.630477
 21
-1.222379
 31
0.0
  0
LINE
  5
197
100
AcDbEntity
  8
letters
 62
7
100
AcDbLine
 10
-35.630477
 20
-1.222379
 30
0.0
 11
-35.630477
 21
-4.679266
 31
0.0
  0
LINE
  5
198
100
AcDbEntity
  8
letters
 62
7
100
AcDbLine
 10
-35.630477
 20
-4.679266
 30
0.0
 11
-35.630477
 21
-5.931248
 31
0.0
  0
LINE
  5
199
100
AcDbEntity
  8
letters
 62
7
100
AcDbLine
 10
-35.630477
 20
-5.931248
 30
0.0
 11
-35.630477
 21
-7.183256
 31
0.0
  0
LINE
  5
19a
100
AcDbEntity
  8
letters
 62
7
100
AcDbLine
 10
-35.630477
 20
-7.183256
 30
0.0
 11
-35.630477
 21
-8.435238
 31
0.0
  0
LINE
  5
19b
100
AcDbEntity
  8
letters
 62
7
100
AcDbLine
 10
-35.630477
 20
-8.435238
 30
0.0
 11
-35.630477
 21
-9.687220
 31
0.0
  0
LINE
  5
19c
100
AcDbEntity
  8
letters
 62
7
100
AcDbLine
 10
-35.630477
 20
-9.687220
 30
0.0
 11
-33.788858
 21
-9.687220
 31
0.0
  0
LINE
  5
19d
100
AcDbEntity
  8
letters
 62
7
100
AcDbLine
 10
-33.788858
 20
-9.687220
 30
0.0
 11
-31.947239
 21
-9.687220
 31
0.0
  0
LINE
  5
19e
100
AcDbEntity
  8
letters
 62
7
100
AcDbLine
 10
-31.947239
 20
-9.687220
 30
0.0
 11
-30.105620
 21
-9.687220
 31
0.0
  0
LINE
  5
19f
100
AcDbEntity
  8
letters
 62
7
100
AcDbLine
 10
-30.105620
 20
-9.687220
 30
0.0
 11
-28.264001
 21
-9.687220
 31
0.0
  0
LINE
  5
1a0
100
AcDbEntity
  8
letters
 62
7
100
AcDbLine
 10
-28.264001
 20
-9.687220
 30
0.0
 11
-27.921646
 21
-9.687220
 31
0.0
  0
LINE
  5
1a1
100
AcDbEntity
  8
letters
 62
7
100
AcDbLine
 10
-27.921646
 20
-9.687220
 30
0.0
 11
-27.579288
 21
-9.687220
 31
0.0
  0
LINE
  5
1a2
100
AcDbEntity
  8
letters
 62
7
100
AcDbLine
 10
-27.579288
 20
-9.687220
 30
0.0
 11
-27.236931
 21
-9.687220
 31
0.0
  0
LINE
  5
1a3
100
AcDbEntity
  8
letters
 62
7
100
AcDbLine
 10
-27.236931
 20
-9.687220
 30
0.0
 11
-26.894576
 21
-9.687220
 31
0.0
  0
LINE
  5
1a4
100
AcDbEntity
  8
letters
 62
7
100
AcDbLine
 10
-26.894576
 20
-9.687220
 30
0.0
 11
-26.262702
 21
-9.687220
 31
0.0
  0
LINE
  5
1a5
100
AcDbEntity
  8
letters
 62
7
100
AcDbLine
 10
-26.262702
 20
-9.687220
 30
0.0
 11
-25.630829
 21
-9.687220
 31
0.0
  0
LINE
  5
1a6
100
AcDbEntity
  8
letters
 62
7
100
AcDbLine
 10
-25.630829
 20
-9.687220
 30
0.0
 11
-24.998955
 21
-9.687220
 31
0.0
  0
LINE
  5
1a7
100
AcDbEntity
  8
letters
 62
7
100
AcDbLine
 10
-24.998955
 20
-9.687220
 30
0.0
 11
-24.367082
 21
-9.687220
 31
0.0
  0
LINE
  5
1a8
100
AcDbEntity
  8
letters
 62
7
100
AcDbLine
 10
-24.367082
 20
-9.687220
 30
0.0
 11
-22.411345
 21
-9.294949
 31
0.0
  0
LINE
  5
1a9
100
AcDbEntity
  8
letters
 62
7
100
AcDbLine
 10
-22.411345
 20
-9.294949
 30
0.0
 11
-20.817419
 21
-8.223836
 31
0.0
  0
LINE
  5
1aa
100
AcDbEntity
  8
letters
 62
7
100
AcDbLine
 10
-20.817419
 20
-8.223836
 30
0.0
 11
-19.744396
 21
-6.632420
 31
0.0
  0
LINE
  5
1ab
100
AcDbEntity
  8
letters
 62
7
100
AcDbLine
 10
-19.744396
 20
-6.632420
 30
0.0
 11
-19.351368
 21
-4.679266
 31
0.0
  0
LINE
  5
1ac
100
AcDbEntity
  8
letters
 62
7
100
AcDbLine
 10
-19.351368
 20
-4.679266
 30
0.0
 11
-19.351368
 21
-1.222379
 31
0.0
  0
LINE
  5
1ad
100
AcDbEntity
  8
letters
 62
7
100
AcDbLine
 10
-19.351368
 20
-1.222379
 30
0.0
 11
-19.351368
 21
2.234508
 31
0.0
  0
LINE
  5
1ae
100
AcDbEntity
  8
letters
 62
7
100
AcDbLine
 10
-19.351368
 20
2.234508
 30
0.0
 11
-19.351368
 21
5.691422
 31
0.0
  0
LINE
  5
1af
100
AcDbEntity
  8
letters
 62
7
100
AcDbLine
 10
-19.351368
 20
5.691422
 30
0.0
 11
-19.351368
 21
9.148309
 31
0.0
  0
LINE
  5
1b0
100
AcDbEntity
  8
letters
 62
7
100
AcDbLine
 10
-19.351368
 20
9.148309
 30
0.0
 11
-19.744396
 21
11.101728
 31
0.0
  0
LINE
  5
1b1
100
AcDbEntity
  8
letters
 62
7
100
AcDbLine
 10
-19.744396
 20
11.101728
 30
0.0
 11
-20.817419
 21
12.693673
 31
0.0
  0
LINE
  5
1b2
100
AcDbEntity
  8
letters
 62
7
100
AcDbLine
 10
-20.817419
 20
12.693673
 30
0.0
 11
-22.411345
 21
13.765314
 31
0.0
  0
LINE
  5
1b3
100
AcDbEntity
  8
letters
 62
7
100
AcDbLine
 10
-22.411345
 20
13.765314
 30
0.0
 11
-24.367082
 21
14.157824
 31
0.0
  0
LINE
  5
1b4
100
AcDbEntity
  8
letters
 62
7
100
AcDbLine
 10
-24.367082
 20
14.157824
 30
0.0
 11
-24.998955
 21
14.157824
 31
0.0
  0
LINE
  5
1b5
100
AcDbEntity
  8
letters
 62
7
100
AcDbLine
 10
-24.998955
 20
14.157824
 30
0.0
 11
-25.630829
 21
14.157824
 31
0.0
  0
LINE
  5
1b6
100
AcDbEntity
  8
letters
 62
7
100
AcDbLine
 10
-25.630829
 20
14.157824
 30
0.0
 11
-26.262702
 21
14.157824
 31
0.0
  0
LINE
  5
1b7
100
AcDbEntity
  8
letters
 62
7
100
AcDbLine
 10
-26.262702
 20
14.157824
 30
0.0
 11
-26.894576
 21
14.157824
 31
0.0
  0
LINE
  5
1b8
100
AcDbEntity
  8
letters
 62
7
100
AcDbLine
 10
-26.894576
 20
14.157824
 30
0.0
 11
-27.236931
 21
14.157824
 31
0.0
  0
LINE
  5
1b9
100
AcDbEntity
  8
letters
 62
7
100
AcDbLine
 10
-27.236931
 20
14.157824
 30
0.0
 11
-27.579288
 21
14.157824
 31
0.0
  0
LINE
  5
1ba
100
AcDbEntity
  8
letters
 62
7
100
AcDbLine
 10
-27.579288
 20
14.157824
 30
0.0
 11
-27.921646
 21
14.157824
 31
0.0
  0
LINE
  5
1bb
100
AcDbEntity
  8
letters
 62
7
100
AcDbLine
 10
-27.921646
 20
14.157824
 30
0.0
 11
-28.264001
 21
14.157824
 31
0.0
  0
LINE
  5
1bc
100
AcDbEntity
  8
letters
 62
7
100
AcDbLine
 10
-28.264001
 20
14.157824
 30
0.0
 11
-30.105620
 21
14.157824
 31
0.0
  0
LINE
  5
1bd
100
AcDbEntity
  8
letters
 62
7
100
AcDbLine
 10
-30.105620
 20
14.157824
 30
0.0
 11
-31.947239
 21
14.157824
 31
0.0
  0
LINE
  5
1be
100
AcDbEntity
  8
letters
 62
7
100
AcDbLine
 10
-31.947239
 20
14.157824
 30
0.0
 11
-33.788858
 21
14.157824
 31
0.0
  0
LINE
  5
1bf
100
AcDbEntity
  8
letters
 62
7
100
AcDbLine
 10
-33.788858
 20
14.157824
 30
0.0
 11
-35.630477
 21
14.157824
 31
0.0
  0
LINE
  5
1c0
100
AcDbEntity
  8
letters
 62
7
100
AcDbLine
 10
-29.534726
 20
10.031991
 30
0.0
 11
-29.172731
 21
10.031991
 31
0.0
  0
LINE
  5
1c1
100
AcDbEntity
  8
letters
 62
7
100
AcDbLine
 10
-29.172731
 20
10.031991
 30
0.0
 11
-28.810738
 21
10.031991
 31
0.0
  0
LINE
  5
1c2
100
AcDbEntity
  8
letters
 62
7
100
AcDbLine
 10
-28.810738
 20
10.031991
 30
0.0
 11
-28.448746
 21
10.031991
 31
0.0
  0
LINE
  5
1c3
100
AcDbEntity
  8
letters
 62
7
100
AcDbLine
 10
-28.448746
 20
10.031991
 30
0.0
 11
-28.086751
 21
10.031991
 31
0.0
  0
LINE
  5
1c4
100
AcDbEntity
  8
letters
 62
7
100
AcDbLine
 10
-28.086751
 20
10.031991
 30
0.0
 11
-27.987919
 21
10.031991
 31
0.0
  0
LINE
  5
1c5
100
AcDbEntity
  8
letters
 62
7
100
AcDbLine
 10
-27.987919
 20
10.031991
 30
0.0
 11
-27.889089
 21
10.031991
 31
0.0
  0
LINE
  5
1c6
100
AcDbEntity
  8
letters
 62
7
100
AcDbLine
 10
-27.889089
 20
10.031991
 30
0.0
 11
-27.790259
 21
10.031991
 31
0.0
  0
LINE
  5
1c7
100
AcDbEntity
  8
letters
 62
7
100
AcDbLine
 10
-27.790259
 20
10.031991
 30
0.0
 11
-27.691427
 21
10.031991
 31
0.0
  0
LINE
  5
1c8
100
AcDbEntity
  8
letters
 62
7
100
AcDbLine
 10
-27.691427
 20
10.031991
 30
0.0
 11
-27.509010
 21
10.031991
 31
0.0
  0
LINE
  5
1c9
100
AcDbEntity
  8
letters
 62
7
100
AcDbLine
 10
-27.509010
 20
10.031991
 30
0.0
 11
-27.326590
 21
10.031991
 31
0.0
  0
LINE
  5
1ca
100
AcDbEntity
  8
letters
 62
7
100
AcDbLine
 10
-27.326590
 20
10.031991
 30
0.0
 11
-27.144173
 21
10.031991
 31
0.0
  0
LINE
  5
1cb
100
AcDbEntity
  8
letters
 62
7
100
AcDbLine
 10
-27.144173
 20
10.031991
 30
0.0
 11
-26.961756
 21
10.031991
 31
0.0
  0
LINE
  5
1cc
100
AcDbEntity
  8
letters
 62
7
100
AcDbLine
 10
-26.961756
 20
10.031991
 30
0.0
 11
-26.397156
 21
9.918537
 31
0.0
  0
LINE
  5
1cd
100
AcDbEntity
  8
letters
 62
7
100
AcDbLine
 10
-26.397156
 20
9.918537
 30
0.0
 11
-25.937009
 21
9.608763
 31
0.0
  0
LINE
  5
1ce
100
AcDbEntity
  8
letters
 62
7
100
AcDbLine
 10
-25.937009
 20
9.608763
 30
0.0
 11
-25.627243
 21
9.148600
 31
0.0
  0
LINE
  5
1cf
100
AcDbEntity
  8
letters
 62
7
100
AcDbLine
 10
-25.627243
 20
9.148600
 30
0.0
 11
-25.513782
 21
8.584005
 31
0.0
  0
LINE
  5
1d0
100
AcDbEntity
  8
letters
 62
7
100
AcDbLine
 10
-25.513782
 20
8.584005
 30
0.0
 11
-25.513782
 21
5.298939
 31
0.0
  0
LINE
  5
1d1
100
AcDbEntity
  8
letters
 62
7
100
AcDbLine
 10
-25.513782
 20
5.298939
 30
0.0
 11
-25.513782
 21
2.013872
 31
0.0
  0
LINE
  5
1d2
100
AcDbEntity
  8
letters
 62
7
100
AcDbLine
 10
-25.513782
 20
2.013872
 30
0.0
 11
-25.513782
 21
-1.271195
 31
0.0
  0
LINE
  5
1d3
100
AcDbEntity
  8
letters
 62
7
100
AcDbLine
 10
-25.513782
 20
-1.271195
 30
0.0
 11
-25.513782
 21
-4.556261
 31
0.0
  0
LINE
  5
1d4
100
AcDbEntity
  8
letters
 62
7
100
AcDbLine
 10
-25.513782
 20
-4.556261
 30
0.0
 11
-25.627243
 21
-5.120776
 31
0.0
  0
LINE
  5
1d5
100
AcDbEntity
  8
letters
 62
7
100
AcDbLine
 10
-25.627243
 20
-5.120776
 30
0.0
 11
-25.937009
 21
-5.580754
 31
0.0
  0
LINE
  5
1d6
100
AcDbEntity
  8
letters
 62
7
100
AcDbLine
 10
-25.937009
 20
-5.580754
 30
0.0
 11
-26.397156
 21
-5.890343
 31
0.0
  0
LINE
  5
1d7
100
AcDbEntity
  8
letters
 62
7
100
AcDbLine
 10
-26.397156
 20
-5.890343
 30
0.0
 11
-26.961756
 21
-6.003717
 31
0.0
  0
LINE
  5
1d8
100
AcDbEntity
  8
letters
 62
7
100
AcDbLine
 10
-26.961756
 20
-6.003717
 30
0.0
 11
-27.144173
 21
-6.003717
 31
0.0
  0
LINE
  5
1d9
100
AcDbEntity
  8
letters
 62
7
100
AcDbLine
 10
-27.144173
 20
-6.003717
 30
0.0
 11
-27.326590
 21
-6.003717
 31
0.0
  0
LINE
  5
1da
100
AcDbEntity
  8
letters
 62
7
100
AcDbLine
 10
-27.326590
 20
-6.003717
 30
0.0
 11
-27.509010
 21
-6.003717
 31
0.0
  0
LINE
  5
1db
100
AcDbEntity
  8
letters
 62
7
100
AcDbLine
 10
-27.509010
 20
-6.003717
 30
0.0
 11
-27.691427
 21
-6.003717
 31
0.0
  0
LINE
  5
1dc
100
AcDbEntity
  8
letters
 62
7
100
AcDbLine
 10
-27.691427
 20
-6.003717
 30
0.0
 11
-27.790259
 21
-6.003717
 31
0.0
  0
LINE
  5
1dd
100
AcDbEntity
  8
letters
 62
7
100
AcDbLine
 10
-27.790259
 20
-6.003717
 30
0.0
 11
-27.889089
 21
-6.003717
 31
0.0
  0
LINE
  5
1de
100
AcDbEntity
  8
letters
 62
7
100
AcDbLine
 10
-27.889089
 20
-6.003717
 30
0.0
 11
-27.987919
 21
-6.003717
 31
0.0
  0
LINE
  5
1df
100
AcDbEntity
  8
letters
 62
7
100
AcDbLine
 10
-27.987919
 20
-6.003717
 30
0.0
 11
-28.086751
 21
-6.003717
 31
0.0
  0
LINE
  5
1e0
100
AcDbEntity
  8
letters
 62
7
100
AcDbLine
 10
-28.086751
 20
-6.003717
 30
0.0
 11
-28.448746
 21
-6.003717
 31
0.0
  0
LINE
  5
1e1
100
AcDbEntity
  8
letters
 62
7
100
AcDbLine
 10
-28.448746
 20
-6.003717
 30
0.0
 11
-28.810738
 21
-6.003717
 31
0.0
  0
LINE
  5
1e2
100
AcDbEntity
  8
letters
 62
7
100
AcDbLine
 10
-28.810738
 20
-6.003717
 30
0.0
 11
-29.172731
 21
-6.003717
 31
0.0
  0
LINE
  5
1e3
100
AcDbEntity
  8
letters
 62
7
100
AcDbLine
 10
-29.172731
 20
-6.003717
 30
0.0
 11
-29.534726
 21
-6.003717
 31
0.0
  0
LINE
  5
1e4
100
AcDbEntity
  8
letters
 62
7
100
AcDbLine
 10
-29.534726
 20
-6.003717
 30
0.0
 11
-29.534726
 21
-5.641847
 31
0.0
  0
LINE
  5
1e5
100
AcDbEntity
  8
letters
 62
7
100
AcDbLine
 10
-29.534726
 20
-5.641847
 30
0.0
 11
-29.534726
 21
-5.280002
 31
0.0
  0
LINE
  5
1e6
100
AcDbEntity
  8
letters
 62
7
100
AcDbLine
 10
-29.534726
 20
-5.280002
 30
0.0
 11
-29.534726
 21
-4.918132
 31
0.0
  0
LINE
  5
1e7
100
AcDbEntity
  8
letters
 62
7
100
AcDbLine
 10
-29.534726
 20
-4.918132
 30
0.0
 11
-29.534726
 21
-4.556261
 31
0.0
  0
LINE
  5
1e8
100
AcDbEntity
  8
letters
 62
7
100
AcDbLine
 10
-29.534726
 20
-4.556261
 30
0.0
 11
-29.534726
 21
-1.271195
 31
0.0
  0
LINE
  5
1e9
100
AcDbEntity
  8
letters
 62
7
100
AcDbLine
 10
-29.534726
 20
-1.271195
 30
0.0
 11
-29.534726
 21
2.013872
 31
0.0
  0
LINE
  5
1ea
100
AcDbEntity
  8
letters
 62
7
100
AcDbLine
 10
-29.534726
 20
2.013872
 30
0.0
 11
-29.534726
 21
5.298939
 31
0.0
  0
LINE
  5
1eb
100
AcDbEntity
  8
letters
 62
7
100
AcDbLine
 10
-29.534726
 20
5.298939
 30
0.0
 11
-29.534726
 21
8.584005
 31
0.0
  0
LINE
  5
1ec
100
AcDbEntity
  8
letters
 62
7
100
AcDbLine
 10
-29.534726
 20
8.584005
 30
0.0
 11
-29.534726
 21
8.946008
 31
0.0
  0
LINE
  5
1ed
100
AcDbEntity
  8
letters
 62
7
100
AcDbLine
 10
-29.534726
 20
8.946008
 30
0.0
 11
-29.534726
 21
9.307985
 31
0.0
  0
LINE
  5
1ee
100
AcDbEntity
  8
letters
 62
7
100
AcDbLine
 10
-29.534726
 20
9.307985
 30
0.0
 11
-29.534726
 21
9.669988
 31
0.0
  0
LINE
  5
1ef
100
AcDbEntity
  8
letters
 62
7
100
AcDbLine
 10
-29.534726
 20
9.669988
 30
0.0
 11
-29.534726
 21
10.031991
 31
0.0
  0
LINE
  5
1f0
100
AcDbEntity
  8
letters
 62
7
100
AcDbLine
 10
-18.770524
 20
14.292708
 30
0.0
 11
-17.794744
 21
8.295663
 31
0.0
  0
LINE
  5
1f1
100
AcDbEntity
  8
letters
 62
7
100
AcDbLine
 10
-17.794744
 20
8.295663
 30
0.0
 11
-16.818964
 21
2.298590
 31
0.0
  0
LINE
  5
1f2
100
AcDbEntity
  8
letters
 62
7
100
AcDbLine
 10
-16.818964
 20
2.298590
 30
0.0
 11
-15.843184
 21
-3.698456
 31
0.0
  0
LINE
  5
1f3
100
AcDbEntity
  8
letters
 62
7
100
AcDbLine
 10
-15.843184
 20
-3.698456
 30
0.0
 11
-14.867404
 21
-9.695501
 31
0.0
  0
LINE
  5
1f4
100
AcDbEntity
  8
letters
 62
7
100
AcDbLine
 10
-14.867404
 20
-9.695501
 30
0.0
 11
-12.286036
 21
-9.695501
 31
0.0
  0
LINE
  5
1f5
100
AcDbEntity
  8
letters
 62
7
100
AcDbLine
 10
-12.286036
 20
-9.695501
 30
0.0
 11
-9.704670
 21
-9.695501
 31
0.0
  0
LINE
  5
1f6
100
AcDbEntity
  8
letters
 62
7
100
AcDbLine
 10
-9.704670
 20
-9.695501
 30
0.0
 11
-7.123303
 21
-9.695501
 31
0.0
  0
LINE
  5
1f7
100
AcDbEntity
  8
letters
 62
7
100
AcDbLine
 10
-7.123303
 20
-9.695501
 30
0.0
 11
-4.541936
 21
-9.695501
 31
0.0
  0
LINE
  5
1f8
100
AcDbEntity
  8
letters
 62
7
100
AcDbLine
 10
-4.541936
 20
-9.695501
 30
0.0
 11
-3.529594
 21
-3.698456
 31
0.0
  0
LINE
  5
1f9
100
AcDbEntity
  8
letters
 62
7
100
AcDbLine
 10
-3.529594
 20
-3.698456
 30
0.0
 11
-2.517253
 21
2.298590
 31
0.0
  0
LINE
  5
1fa
100
AcDbEntity
  8
letters
 62
7
100
AcDbLine
 10
-2.517253
 20
2.298590
 30
0.0
 11
-1.504912
 21
8.295663
 31
0.0
  0
LINE
  5
1fb
100
AcDbEntity
  8
letters
 62
7
100
AcDbLine
 10
-1.504912
 20
8.295663
 30
0.0
 11
-0.492571
 21
14.292708
 31
0.0
  0
LINE
  5
1fc
100
AcDbEntity
  8
letters
 62
7
100
AcDbLine
 10
-0.492571
 20
14.292708
 30
0.0
 11
-2.007982
 21
14.292708
 31
0.0
  0
LINE
  5
1fd
100
AcDbEntity
  8
letters
 62
7
100
AcDbLine
 10
-2.007982
 20
14.292708
 30
0.0
 11
-3.523393
 21
14.292708
 31
0.0
  0
LINE
  5
1fe
100
AcDbEntity
  8
letters
 62
7
100
AcDbLine
 10
-3.523393
 20
14.292708
 30
0.0
 11
-5.038805
 21
14.292708
 31
0.0
  0
LINE
  5
1ff
100
AcDbEntity
  8
letters
 62
7
100
AcDbLine
 10
-5.038805
 20
14.292708
 30
0.0
 11
-6.554216
 21
14.292708
 31
0.0
  0
LINE
  5
200
100
AcDbEntity
  8
letters
 62
7
100
AcDbLine
 10
-6.554216
 20
14.292708
 30
0.0
 11
-7.342282
 21
9.624003
 31
0.0
  0
LINE
  5
201
100
AcDbEntity
  8
letters
 62
7
100
AcDbLine
 10
-7.342282
 20
9.624003
 30
0.0
 11
-8.130347
 21
4.955298
 31
0.0
  0
LINE
  5
202
100
AcDbEntity
  8
letters
 62
7
100
AcDbLine
 10
-8.130347
 20
4.955298
 30
0.0
 11
-8.918413
 21
0.286593
 31
0.0
  0
LINE
  5
203
100
AcDbEntity
  8
letters
 62
7
100
AcDbLine
 10
-8.918413
 20
0.286593
 30
0.0
 11
-9.706478
 21
-4.382112
 31
0.0
  0
LINE
  5
204
100
AcDbEntity
  8
letters
 62
7
100
AcDbLine
 10
-9.706478
 20
-4.382112
 30
0.0
 11
-10.466122
 21
0.286593
 31
0.0
  0
LINE
  5
205
100
AcDbEntity
  8
letters
 62
7
100
AcDbLine
 10
-10.466122
 20
0.286593
 30
0.0
 11
-11.225766
 21
4.955298
 31
0.0
  0
LINE
  5
206
100
AcDbEntity
  8
letters
 62
7
100
AcDbLine
 10
-11.225766
 20
4.955298
 30
0.0
 11
-11.985409
 21
9.624003
 31
0.0
  0
LINE
  5
207
100
AcDbEntity
  8
letters
 62
7
100
AcDbLine
 10
-11.985409
 20
9.624003
 30
0.0
 11
-12.745053
 21
14.292708
 31
0.0
  0
LINE
  5
208
100
AcDbEntity
  8
letters
 62
7
100
AcDbLine
 10
-12.745053
 20
14.292708
 30
0.0
 11
-14.251420
 21
14.292708
 31
0.0
  0
LINE
  5
209
100
AcDbEntity
  8
letters
 62
7
100
AcDbLine
 10
-14.251420
 20
14.292708
 30
0.0
 11
-15.757788
 21
14.292708
 31
0.0
  0
LINE
  5
20a
100
AcDbEntity
  8
letters
 62
7
100
AcDbLine
 10
-15.757788
 20
14.292708
 30
0.0
 11
-17.264156
 21
14.292708
 31
0.0
  0
LINE
  5
20b
100
AcDbEntity
  8
letters
 62
7
100
AcDbLine
 10
-17.264156
 20
14.292708
 30
0.0
 11
-18.770524
 21
14.292708
 31
0.0
  0
ENDSEC
  0
SECTION
  2
OBJECTS
  0
DICTIONARY
  5
C
330
0
100
AcDbDictionary
  3
ACAD_GROUP
350
D
  3
ACAD_MLINESTYLE
350
17
  0
DICTIONARY
  5
D
330
C
100
AcDbDictionary
  0
DICTIONARY
  5
1A
330
C
100
AcDbDictionary
  0
DICTIONARY
  5
17
330
C
100
AcDbDictionary
  3
STANDARD
350
18
  0
DICTIONARY
  5
19
330
C
100
AcDbDictionary
  0
ENDSEC
  0
EOF
