  0
SECTION
  2
HEADER
  9
$ACADVER
  1
AC1014
  9
$HANDSEED
  5
FFFF
  9
$MEASUREMENT
 70
     1
  0
ENDSEC
  0
SECTION
  2
TABLES
  0
TABLE
  2
VPORT
  5
8
330
0
100
AcDbSymbolTable
 70
     4
  0
VPORT
  5
2E
330
8
100
AcDbSymbolTableRecord
100
AcDbViewportTableRecord
  2
*ACTIVE
 70
     0
 10
0.0
 20
0.0
 11
1.0
 21
1.0
 12
210.0
 22
148.5
 13
0.0
 23
0.0
 14
10.0
 24
10.0
 15
10.0
 25
10.0
 16
0.0
 26
0.0
 36
1.0
 17
0.0
 27
0.0
 37
0.0
 40
341.0
 41
1.24
 42
50.0
 43
0.0
 44
0.0
 50
0.0
 51
0.0
 71
     0
 72
   100
 73
     1
 74
     3
 75
     0
 76
     0
 77
     0
 78
     0
  0
ENDTAB
  0
TABLE
  2
LTYPE
  5
5
330
0
100
AcDbSymbolTable
 70
     1
  0
LTYPE
  5
14
330
5
100
AcDbSymbolTableRecord
100
AcDbLinetypeTableRecord
  2
BYBLOCK
 70
     0
  3

 72
    65
 73
     0
 40
0.0
  0
LTYPE
  5
15
330
5
100
AcDbSymbolTableRecord
100
AcDbLinetypeTableRecord
  2
BYLAYER
 70
     0
  3

 72
    65
 73
     0
 40
0.0
  0
LTYPE
  5
16
330
5
100
AcDbSymbolTableRecord
100
AcDbLinetypeTableRecord
  2
CONTINUOUS
 70
     0
  3
Solid line
 72
    65
 73
     0
 40
0.0
  0
ENDTAB
  0
TABLE
  2
LAYER
  5
2
100
AcDbSymbolTable
 70
2
  0
LAYER
  5
50
100
AcDbSymbolTableRecord
100
AcDbLayerTableRecord
  2
0
 70
0
  6
CONTINUOUS
  0
LAYER
  5
51
100
AcDbSymbolTableRecord
100
AcDbLayerTableRecord
  2
Layer_1
 70
0
  6
CONTINUOUS
  0
ENDTAB
  0
TABLE
  2
STYLE
  5
3
330
0
100
AcDbSymbolTable
 70
     1
  0
STYLE
  5
11
330
3
100
AcDbSymbolTableRecord
100
AcDbTextStyleTableRecord
  2
STANDARD
 70
     0
 40
0.0
 41
1.0
 50
0.0
 71
     0
 42
2.5
  3
txt
  4

  0
ENDTAB
  0
TABLE
  2
VIEW
  5
6
330
0
100
AcDbSymbolTable
 70
     0
  0
ENDTAB
  0
TABLE
  2
UCS
  5
7
330
0
100
AcDbSymbolTable
 70
     0
  0
ENDTAB
  0
TABLE
  2
APPID
  5
9
330
0
100
AcDbSymbolTable
 70
     2
  0
APPID
  5
12
330
9
100
AcDbSymbolTableRecord
100
AcDbRegAppTableRecord
  2
ACAD
 70
     0
  0
ENDTAB
  0
TABLE
  2
DIMSTYLE
  5
A
330
0
100
AcDbSymbolTable
 70
     1
  0
DIMSTYLE
105
27
330
A
100
AcDbSymbolTableRecord
100
AcDbDimStyleTableRecord
  2
ISO-25
 70
     0
  3

  4

  5

  6

  7

 40
1.0
 41
2.5
 42
0.625
 43
3.75
 44
1.25
 45
0.0
 46
0.0
 47
0.0
 48
0.0
140
2.5
141
2.5
142
0.0
143
0.03937007874016
144
1.0
145
0.0
146
1.0
147
0.625
 71
     0
 72
     0
 73
     0
 74
     0
 75
     0
 76
     0
 77
     1
 78
     8
170
     0
171
     3
172
     1
173
     0
174
     0
175
     0
176
     0
177
     0
178
     0
270
     2
271
     2
272
     2
273
     2
274
     3
340
11
275
     0
280
     0
281
     0
282
     0
283
     0
284
     8
285
     0
286
     0
287
     3
288
     0
  0
ENDTAB
  0
TABLE
  2
BLOCK_RECORD
  5
1
330
0
100
AcDbSymbolTable
 70
     1
  0
BLOCK_RECORD
  5
1F
330
1
100
AcDbSymbolTableRecord
100
AcDbBlockTableRecord
  2
*MODEL_SPACE
  0
BLOCK_RECORD
  5
1B
330
1
100
AcDbSymbolTableRecord
100
AcDbBlockTableRecord
  2
*PAPER_SPACE
  0
ENDTAB
  0
ENDSEC
  0
SECTION
  2
BLOCKS
  0
BLOCK
  5
20
330
1F
100
AcDbEntity
  8
0
100
AcDbBlockBegin
  2
*MODEL_SPACE
 70
     0
 10
0.0
 20
0.0
 30
0.0
  3
*MODEL_SPACE
  1

  0
ENDBLK
  5
21
330
1F
100
AcDbEntity
  8
0
100
AcDbBlockEnd
  0
BLOCK
  5
1C
330
1B
100
AcDbEntity
 67
     1
  8
0
100
AcDbBlockBegin
  2
*PAPER_SPACE
  1

  0
ENDBLK
  5
1D
330
1B
100
AcDbEntity
 67
     1
  8
0
100
AcDbBlockEnd
  0
ENDSEC
  0
SECTION
  2
ENTITIES
  0
LINE
  5
100
100
AcDbEntity
  8
Layer_1
 62
7
100
AcDbLine
 10
-28.931180
 20
56.961390
 30
0.0
 11
-28.848980
 21
50.211080
 31
0.0
  0
LINE
  5
101
100
AcDbEntity
  8
Layer_1
 62
7
100
AcDbLine
 10
-28.848980
 20
50.211080
 30
0.0
 11
-28.762780
 21
43.342250
 31
0.0
  0
LINE
  5
102
100
AcDbEntity
  8
Layer_1
 62
7
100
AcDbLine
 10
-28.762780
 20
43.342250
 30
0.0
 11
-28.705880
 21
36.553920
 31
0.0
  0
LINE
  5
103
100
AcDbEntity
  8
Layer_1
 62
7
100
AcDbLine
 10
-28.705880
 20
36.553920
 30
0.0
 11
-28.711880
 21
30.045110
 31
0.0
  0
LINE
  5
104
100
AcDbEntity
  8
Layer_1
 62
7
100
AcDbLine
 10
-28.711880
 20
30.045110
 30
0.0
 11
-28.813390
 21
24.014830
 31
0.0
  0
LINE
  5
105
100
AcDbEntity
  8
Layer_1
 62
7
100
AcDbLine
 10
-28.813390
 20
24.014830
 30
0.0
 11
-29.043990
 21
18.662110
 31
0.0
  0
LINE
  5
106
100
AcDbEntity
  8
Layer_1
 62
7
100
AcDbLine
 10
-29.043990
 20
18.662110
 30
0.0
 11
-29.436930
 21
14.185960
 31
0.0
  0
LINE
  5
107
100
AcDbEntity
  8
Layer_1
 62
7
100
AcDbLine
 10
-29.436930
 20
14.185960
 30
0.0
 11
-30.025460
 21
10.785400
 31
0.0
  0
LINE
  5
108
100
AcDbEntity
  8
Layer_1
 62
7
100
AcDbLine
 10
-30.025460
 20
10.785400
 30
0.0
 11
-26.668230
 21
10.785400
 31
0.0
  0
LINE
  5
109
100
AcDbEntity
  8
Layer_1
 62
7
100
AcDbLine
 10
-26.668230
 20
10.785400
 30
0.0
 11
-23.311010
 21
10.785400
 31
0.0
  0
LINE
  5
10a
100
AcDbEntity
  8
Layer_1
 62
7
100
AcDbLine
 10
-23.311010
 20
10.785400
 30
0.0
 11
-19.953790
 21
10.785400
 31
0.0
  0
LINE
  5
10b
100
AcDbEntity
  8
Layer_1
 62
7
100
AcDbLine
 10
-19.953790
 20
10.785400
 30
0.0
 11
-16.596560
 21
10.785400
 31
0.0
  0
LINE
  5
10c
100
AcDbEntity
  8
Layer_1
 62
7
100
AcDbLine
 10
-16.596560
 20
10.785400
 30
0.0
 11
-13.239340
 21
10.785400
 31
0.0
  0
LINE
  5
10d
100
AcDbEntity
  8
Layer_1
 62
7
100
AcDbLine
 10
-13.239340
 20
10.785400
 30
0.0
 11
-9.882120
 21
10.785400
 31
0.0
  0
LINE
  5
10e
100
AcDbEntity
  8
Layer_1
 62
7
100
AcDbLine
 10
-9.882120
 20
10.785400
 30
0.0
 11
-6.524890
 21
10.785400
 31
0.0
  0
LINE
  5
10f
100
AcDbEntity
  8
Layer_1
 62
7
100
AcDbLine
 10
-6.524890
 20
10.785400
 30
0.0
 11
-3.167670
 21
10.785400
 31
0.0
  0
LINE
  5
110
100
AcDbEntity
  8
Layer_1
 62
7
100
AcDbLine
 10
-3.167670
 20
10.785400
 30
0.0
 11
-2.802250
 21
12.033450
 31
0.0
  0
LINE
  5
111
100
AcDbEntity
  8
Layer_1
 62
7
100
AcDbLine
 10
-2.802250
 20
12.033450
 30
0.0
 11
-2.436830
 21
13.281500
 31
0.0
  0
LINE
  5
112
100
AcDbEntity
  8
Layer_1
 62
7
100
AcDbLine
 10
-2.436830
 20
13.281500
 30
0.0
 11
-2.071420
 21
14.529550
 31
0.0
  0
LINE
  5
113
100
AcDbEntity
  8
Layer_1
 62
7
100
AcDbLine
 10
-2.071420
 20
14.529550
 30
0.0
 11
-1.706000
 21
15.777600
 31
0.0
  0
LINE
  5
114
100
AcDbEntity
  8
Layer_1
 62
7
100
AcDbLine
 10
-1.706000
 20
15.777600
 30
0.0
 11
-1.340580
 21
17.025650
 31
0.0
  0
LINE
  5
115
100
AcDbEntity
  8
Layer_1
 62
7
100
AcDbLine
 10
-1.340580
 20
17.025650
 30
0.0
 11
-0.975170
 21
18.273700
 31
0.0
  0
LINE
  5
116
100
AcDbEntity
  8
Layer_1
 62
7
100
AcDbLine
 10
-0.975170
 20
18.273700
 30
0.0
 11
-0.609750
 21
19.521750
 31
0.0
  0
LINE
  5
117
100
AcDbEntity
  8
Layer_1
 62
7
100
AcDbLine
 10
-0.609750
 20
19.521750
 30
0.0
 11
-0.244330
 21
20.769800
 31
0.0
  0
LINE
  5
118
100
AcDbEntity
  8
Layer_1
 62
7
100
AcDbLine
 10
-0.244330
 20
20.769800
 30
0.0
 11
0.665730
 21
18.394130
 31
0.0
  0
LINE
  5
119
100
AcDbEntity
  8
Layer_1
 62
7
100
AcDbLine
 10
0.665730
 20
18.394130
 30
0.0
 11
1.881961
 21
16.252200
 31
0.0
  0
LINE
  5
11a
100
AcDbEntity
  8
Layer_1
 62
7
100
AcDbLine
 10
1.881961
 20
16.252200
 30
0.0
 11
3.379591
 21
14.369590
 31
0.0
  0
LINE
  5
11b
100
AcDbEntity
  8
Layer_1
 62
7
100
AcDbLine
 10
3.379591
 20
14.369590
 30
0.0
 11
5.133851
 21
12.771910
 31
0.0
  0
LINE
  5
11c
100
AcDbEntity
  8
Layer_1
 62
7
100
AcDbLine
 10
5.133851
 20
12.771910
 30
0.0
 11
7.119941
 21
11.484730
 31
0.0
  0
LINE
  5
11d
100
AcDbEntity
  8
Layer_1
 62
7
100
AcDbLine
 10
7.119941
 20
11.484730
 30
0.0
 11
9.313091
 21
10.533630
 31
0.0
  0
LINE
  5
11e
100
AcDbEntity
  8
Layer_1
 62
7
100
AcDbLine
 10
9.313091
 20
10.533630
 30
0.0
 11
11.688520
 21
9.944210
 31
0.0
  0
LINE
  5
11f
100
AcDbEntity
  8
Layer_1
 62
7
100
AcDbLine
 10
11.688520
 20
9.944210
 30
0.0
 11
14.221450
 21
9.742050
 31
0.0
  0
LINE
  5
120
100
AcDbEntity
  8
Layer_1
 62
7
100
AcDbLine
 10
14.221450
 20
9.742050
 30
0.0
 11
16.284060
 21
9.828950
 31
0.0
  0
LINE
  5
121
100
AcDbEntity
  8
Layer_1
 62
7
100
AcDbLine
 10
16.284060
 20
9.828950
 30
0.0
 11
18.087990
 21
10.089040
 31
0.0
  0
LINE
  5
122
100
AcDbEntity
  8
Layer_1
 62
7
100
AcDbLine
 10
18.087990
 20
10.089040
 30
0.0
 11
19.655630
 21
10.521260
 31
0.0
  0
LINE
  5
123
100
AcDbEntity
  8
Layer_1
 62
7
100
AcDbLine
 10
19.655630
 20
10.521260
 30
0.0
 11
21.009380
 21
11.124570
 31
0.0
  0
LINE
  5
124
100
AcDbEntity
  8
Layer_1
 62
7
100
AcDbLine
 10
21.009380
 20
11.124570
 30
0.0
 11
22.171640
 21
11.897930
 31
0.0
  0
LINE
  5
125
100
AcDbEntity
  8
Layer_1
 62
7
100
AcDbLine
 10
22.171640
 20
11.897930
 30
0.0
 11
23.164810
 21
12.840320
 31
0.0
  0
LINE
  5
126
100
AcDbEntity
  8
Layer_1
 62
7
100
AcDbLine
 10
23.164810
 20
12.840320
 30
0.0
 11
24.011291
 21
13.950680
 31
0.0
  0
LINE
  5
127
100
AcDbEntity
  8
Layer_1
 62
7
100
AcDbLine
 10
24.011291
 20
13.950680
 30
0.0
 11
24.733471
 21
15.227990
 31
0.0
  0
LINE
  5
128
100
AcDbEntity
  8
Layer_1
 62
7
100
AcDbLine
 10
24.733471
 20
15.227990
 30
0.0
 11
24.715371
 21
14.672660
 31
0.0
  0
LINE
  5
129
100
AcDbEntity
  8
Layer_1
 62
7
100
AcDbLine
 10
24.715371
 20
14.672660
 30
0.0
 11
24.697271
 21
14.117340
 31
0.0
  0
LINE
  5
12a
100
AcDbEntity
  8
Layer_1
 62
7
100
AcDbLine
 10
24.697271
 20
14.117340
 30
0.0
 11
24.679171
 21
13.562010
 31
0.0
  0
LINE
  5
12b
100
AcDbEntity
  8
Layer_1
 62
7
100
AcDbLine
 10
24.679171
 20
13.562010
 30
0.0
 11
24.661071
 21
13.006680
 31
0.0
  0
LINE
  5
12c
100
AcDbEntity
  8
Layer_1
 62
7
100
AcDbLine
 10
24.661071
 20
13.006680
 30
0.0
 11
24.642971
 21
12.451350
 31
0.0
  0
LINE
  5
12d
100
AcDbEntity
  8
Layer_1
 62
7
100
AcDbLine
 10
24.642971
 20
12.451350
 30
0.0
 11
24.624871
 21
11.896030
 31
0.0
  0
LINE
  5
12e
100
AcDbEntity
  8
Layer_1
 62
7
100
AcDbLine
 10
24.624871
 20
11.896030
 30
0.0
 11
24.606771
 21
11.340700
 31
0.0
  0
LINE
  5
12f
100
AcDbEntity
  8
Layer_1
 62
7
100
AcDbLine
 10
24.606771
 20
11.340700
 30
0.0
 11
24.588671
 21
10.785370
 31
0.0
  0
LINE
  5
130
100
AcDbEntity
  8
Layer_1
 62
7
100
AcDbLine
 10
24.588671
 20
10.785370
 30
0.0
 11
26.032191
 21
10.785370
 31
0.0
  0
LINE
  5
131
100
AcDbEntity
  8
Layer_1
 62
7
100
AcDbLine
 10
26.032191
 20
10.785370
 30
0.0
 11
27.475711
 21
10.785370
 31
0.0
  0
LINE
  5
132
100
AcDbEntity
  8
Layer_1
 62
7
100
AcDbLine
 10
27.475711
 20
10.785370
 30
0.0
 11
28.919221
 21
10.785370
 31
0.0
  0
LINE
  5
133
100
AcDbEntity
  8
Layer_1
 62
7
100
AcDbLine
 10
28.919221
 20
10.785370
 30
0.0
 11
30.362741
 21
10.785370
 31
0.0
  0
LINE
  5
134
100
AcDbEntity
  8
Layer_1
 62
7
100
AcDbLine
 10
30.362741
 20
10.785370
 30
0.0
 11
31.806261
 21
10.785370
 31
0.0
  0
LINE
  5
135
100
AcDbEntity
  8
Layer_1
 62
7
100
AcDbLine
 10
31.806261
 20
10.785370
 30
0.0
 11
33.249771
 21
10.785370
 31
0.0
  0
LINE
  5
136
100
AcDbEntity
  8
Layer_1
 62
7
100
AcDbLine
 10
33.249771
 20
10.785370
 30
0.0
 11
34.693291
 21
10.785370
 31
0.0
  0
LINE
  5
137
100
AcDbEntity
  8
Layer_1
 62
7
100
AcDbLine
 10
34.693291
 20
10.785370
 30
0.0
 11
36.136811
 21
10.785370
 31
0.0
  0
LINE
  5
138
100
AcDbEntity
  8
Layer_1
 62
7
100
AcDbLine
 10
36.136811
 20
10.785370
 30
0.0
 11
36.077611
 21
13.932340
 31
0.0
  0
LINE
  5
139
100
AcDbEntity
  8
Layer_1
 62
7
100
AcDbLine
 10
36.077611
 20
13.932340
 30
0.0
 11
35.980111
 21
19.126110
 31
0.0
  0
LINE
  5
13a
100
AcDbEntity
  8
Layer_1
 62
7
100
AcDbLine
 10
35.980111
 20
19.126110
 30
0.0
 11
35.856711
 21
25.718270
 31
0.0
  0
LINE
  5
13b
100
AcDbEntity
  8
Layer_1
 62
7
100
AcDbLine
 10
35.856711
 20
25.718270
 30
0.0
 11
35.719771
 21
33.060450
 31
0.0
  0
LINE
  5
13c
100
AcDbEntity
  8
Layer_1
 62
7
100
AcDbLine
 10
35.719771
 20
33.060450
 30
0.0
 11
35.581671
 21
40.504230
 31
0.0
  0
LINE
  5
13d
100
AcDbEntity
  8
Layer_1
 62
7
100
AcDbLine
 10
35.581671
 20
40.504230
 30
0.0
 11
35.454781
 21
47.401250
 31
0.0
  0
LINE
  5
13e
100
AcDbEntity
  8
Layer_1
 62
7
100
AcDbLine
 10
35.454781
 20
47.401250
 30
0.0
 11
35.351471
 21
53.103090
 31
0.0
  0
LINE
  5
13f
100
AcDbEntity
  8
Layer_1
 62
7
100
AcDbLine
 10
35.351471
 20
53.103090
 30
0.0
 11
35.284071
 21
56.961360
 31
0.0
  0
LINE
  5
140
100
AcDbEntity
  8
Layer_1
 62
7
100
AcDbLine
 10
35.284071
 20
56.961360
 30
0.0
 11
33.969361
 21
56.961360
 31
0.0
  0
LINE
  5
141
100
AcDbEntity
  8
Layer_1
 62
7
100
AcDbLine
 10
33.969361
 20
56.961360
 30
0.0
 11
32.654651
 21
56.961360
 31
0.0
  0
LINE
  5
142
100
AcDbEntity
  8
Layer_1
 62
7
100
AcDbLine
 10
32.654651
 20
56.961360
 30
0.0
 11
31.339941
 21
56.961360
 31
0.0
  0
LINE
  5
143
100
AcDbEntity
  8
Layer_1
 62
7
100
AcDbLine
 10
31.339941
 20
56.961360
 30
0.0
 11
30.025221
 21
56.961360
 31
0.0
  0
LINE
  5
144
100
AcDbEntity
  8
Layer_1
 62
7
100
AcDbLine
 10
30.025221
 20
56.961360
 30
0.0
 11
28.710511
 21
56.961360
 31
0.0
  0
LINE
  5
145
100
AcDbEntity
  8
Layer_1
 62
7
100
AcDbLine
 10
28.710511
 20
56.961360
 30
0.0
 11
27.395801
 21
56.961360
 31
0.0
  0
LINE
  5
146
100
AcDbEntity
  8
Layer_1
 62
7
100
AcDbLine
 10
27.395801
 20
56.961360
 30
0.0
 11
26.081081
 21
56.961360
 31
0.0
  0
LINE
  5
147
100
AcDbEntity
  8
Layer_1
 62
7
100
AcDbLine
 10
26.081081
 20
56.961360
 30
0.0
 11
24.766371
 21
56.961360
 31
0.0
  0
LINE
  5
148
100
AcDbEntity
  8
Layer_1
 62
7
100
AcDbLine
 10
24.766371
 20
56.961360
 30
0.0
 11
24.818571
 21
54.931900
 31
0.0
  0
LINE
  5
149
100
AcDbEntity
  8
Layer_1
 62
7
100
AcDbLine
 10
24.818571
 20
54.931900
 30
0.0
 11
24.870771
 21
52.902440
 31
0.0
  0
LINE
  5
14a
100
AcDbEntity
  8
Layer_1
 62
7
100
AcDbLine
 10
24.870771
 20
52.902440
 30
0.0
 11
24.922971
 21
50.872980
 31
0.0
  0
LINE
  5
14b
100
AcDbEntity
  8
Layer_1
 62
7
100
AcDbLine
 10
24.922971
 20
50.872980
 30
0.0
 11
24.975171
 21
48.843510
 31
0.0
  0
LINE
  5
14c
100
AcDbEntity
  8
Layer_1
 62
7
100
AcDbLine
 10
24.975171
 20
48.843510
 30
0.0
 11
25.027371
 21
46.814050
 31
0.0
  0
LINE
  5
14d
100
AcDbEntity
  8
Layer_1
 62
7
100
AcDbLine
 10
25.027371
 20
46.814050
 30
0.0
 11
25.079571
 21
44.784590
 31
0.0
  0
LINE
  5
14e
100
AcDbEntity
  8
Layer_1
 62
7
100
AcDbLine
 10
25.079571
 20
44.784590
 30
0.0
 11
25.131771
 21
42.755130
 31
0.0
  0
LINE
  5
14f
100
AcDbEntity
  8
Layer_1
 62
7
100
AcDbLine
 10
25.131771
 20
42.755130
 30
0.0
 11
25.183971
 21
40.725660
 31
0.0
  0
LINE
  5
150
100
AcDbEntity
  8
Layer_1
 62
7
100
AcDbLine
 10
25.183971
 20
40.725660
 30
0.0
 11
24.226061
 21
41.606610
 31
0.0
  0
LINE
  5
151
100
AcDbEntity
  8
Layer_1
 62
7
100
AcDbLine
 10
24.226061
 20
41.606610
 30
0.0
 11
23.171960
 21
42.389030
 31
0.0
  0
LINE
  5
152
100
AcDbEntity
  8
Layer_1
 62
7
100
AcDbLine
 10
23.171960
 20
42.389030
 30
0.0
 11
22.020330
 21
43.067080
 31
0.0
  0
LINE
  5
153
100
AcDbEntity
  8
Layer_1
 62
7
100
AcDbLine
 10
22.020330
 20
43.067080
 30
0.0
 11
20.769830
 21
43.634940
 31
0.0
  0
LINE
  5
154
100
AcDbEntity
  8
Layer_1
 62
7
100
AcDbLine
 10
20.769830
 20
43.634940
 30
0.0
 11
19.419090
 21
44.086770
 31
0.0
  0
LINE
  5
155
100
AcDbEntity
  8
Layer_1
 62
7
100
AcDbLine
 10
19.419090
 20
44.086770
 30
0.0
 11
17.966780
 21
44.416720
 31
0.0
  0
LINE
  5
156
100
AcDbEntity
  8
Layer_1
 62
7
100
AcDbLine
 10
17.966780
 20
44.416720
 30
0.0
 11
16.411550
 21
44.618980
 31
0.0
  0
LINE
  5
157
100
AcDbEntity
  8
Layer_1
 62
7
100
AcDbLine
 10
16.411550
 20
44.618980
 30
0.0
 11
14.752050
 21
44.687680
 31
0.0
  0
LINE
  5
158
100
AcDbEntity
  8
Layer_1
 62
7
100
AcDbLine
 10
14.752050
 20
44.687680
 30
0.0
 11
11.557720
 21
44.296820
 31
0.0
  0
LINE
  5
159
100
AcDbEntity
  8
Layer_1
 62
7
100
AcDbLine
 10
11.557720
 20
44.296820
 30
0.0
 11
8.586821
 21
43.184200
 31
0.0
  0
LINE
  5
15a
100
AcDbEntity
  8
Layer_1
 62
7
100
AcDbLine
 10
8.586821
 20
43.184200
 30
0.0
 11
5.901771
 21
41.439800
 31
0.0
  0
LINE
  5
15b
100
AcDbEntity
  8
Layer_1
 62
7
100
AcDbLine
 10
5.901771
 20
41.439800
 30
0.0
 11
3.564961
 21
39.153590
 31
0.0
  0
LINE
  5
15c
100
AcDbEntity
  8
Layer_1
 62
7
100
AcDbLine
 10
3.564961
 20
39.153590
 30
0.0
 11
1.638811
 21
36.415550
 31
0.0
  0
LINE
  5
15d
100
AcDbEntity
  8
Layer_1
 62
7
100
AcDbLine
 10
1.638811
 20
36.415550
 30
0.0
 11
0.185720
 21
33.315630
 31
0.0
  0
LINE
  5
15e
100
AcDbEntity
  8
Layer_1
 62
7
100
AcDbLine
 10
0.185720
 20
33.315630
 30
0.0
 11
-0.731900
 21
29.943820
 31
0.0
  0
LINE
  5
15f
100
AcDbEntity
  8
Layer_1
 62
7
100
AcDbLine
 10
-0.731900
 20
29.943820
 30
0.0
 11
-1.051640
 21
26.390090
 31
0.0
  0
LINE
  5
160
100
AcDbEntity
  8
Layer_1
 62
7
100
AcDbLine
 10
-1.051640
 20
26.390090
 30
0.0
 11
-1.043640
 21
25.821930
 31
0.0
  0
LINE
  5
161
100
AcDbEntity
  8
Layer_1
 62
7
100
AcDbLine
 10
-1.043640
 20
25.821930
 30
0.0
 11
-1.020840
 21
25.260190
 31
0.0
  0
LINE
  5
162
100
AcDbEntity
  8
Layer_1
 62
7
100
AcDbLine
 10
-1.020840
 20
25.260190
 30
0.0
 11
-0.983140
 21
24.705040
 31
0.0
  0
LINE
  5
163
100
AcDbEntity
  8
Layer_1
 62
7
100
AcDbLine
 10
-0.983140
 20
24.705040
 30
0.0
 11
-0.930740
 21
24.156690
 31
0.0
  0
LINE
  5
164
100
AcDbEntity
  8
Layer_1
 62
7
100
AcDbLine
 10
-0.930740
 20
24.156690
 30
0.0
 11
-0.863940
 21
23.615300
 31
0.0
  0
LINE
  5
165
100
AcDbEntity
  8
Layer_1
 62
7
100
AcDbLine
 10
-0.863940
 20
23.615300
 30
0.0
 11
-0.782840
 21
23.081060
 31
0.0
  0
LINE
  5
166
100
AcDbEntity
  8
Layer_1
 62
7
100
AcDbLine
 10
-0.782840
 20
23.081060
 30
0.0
 11
-0.687740
 21
22.554170
 31
0.0
  0
LINE
  5
167
100
AcDbEntity
  8
Layer_1
 62
7
100
AcDbLine
 10
-0.687740
 20
22.554170
 30
0.0
 11
-0.578870
 21
22.034800
 31
0.0
  0
LINE
  5
168
100
AcDbEntity
  8
Layer_1
 62
7
100
AcDbLine
 10
-0.578870
 20
22.034800
 30
0.0
 11
-2.656130
 21
22.034800
 31
0.0
  0
LINE
  5
169
100
AcDbEntity
  8
Layer_1
 62
7
100
AcDbLine
 10
-2.656130
 20
22.034800
 30
0.0
 11
-4.733390
 21
22.034800
 31
0.0
  0
LINE
  5
16a
100
AcDbEntity
  8
Layer_1
 62
7
100
AcDbLine
 10
-4.733390
 20
22.034800
 30
0.0
 11
-6.810660
 21
22.034800
 31
0.0
  0
LINE
  5
16b
100
AcDbEntity
  8
Layer_1
 62
7
100
AcDbLine
 10
-6.810660
 20
22.034800
 30
0.0
 11
-8.887920
 21
22.034800
 31
0.0
  0
LINE
  5
16c
100
AcDbEntity
  8
Layer_1
 62
7
100
AcDbLine
 10
-8.887920
 20
22.034800
 30
0.0
 11
-10.965180
 21
22.034800
 31
0.0
  0
LINE
  5
16d
100
AcDbEntity
  8
Layer_1
 62
7
100
AcDbLine
 10
-10.965180
 20
22.034800
 30
0.0
 11
-13.042450
 21
22.034800
 31
0.0
  0
LINE
  5
16e
100
AcDbEntity
  8
Layer_1
 62
7
100
AcDbLine
 10
-13.042450
 20
22.034800
 30
0.0
 11
-15.119710
 21
22.034800
 31
0.0
  0
LINE
  5
16f
100
AcDbEntity
  8
Layer_1
 62
7
100
AcDbLine
 10
-15.119710
 20
22.034800
 30
0.0
 11
-17.196970
 21
22.034800
 31
0.0
  0
LINE
  5
170
100
AcDbEntity
  8
Layer_1
 62
7
100
AcDbLine
 10
-17.196970
 20
22.034800
 30
0.0
 11
-17.196970
 21
22.869310
 31
0.0
  0
LINE
  5
171
100
AcDbEntity
  8
Layer_1
 62
7
100
AcDbLine
 10
-17.196970
 20
22.869310
 30
0.0
 11
-17.196970
 21
23.703820
 31
0.0
  0
LINE
  5
172
100
AcDbEntity
  8
Layer_1
 62
7
100
AcDbLine
 10
-17.196970
 20
23.703820
 30
0.0
 11
-17.196970
 21
24.538330
 31
0.0
  0
LINE
  5
173
100
AcDbEntity
  8
Layer_1
 62
7
100
AcDbLine
 10
-17.196970
 20
24.538330
 30
0.0
 11
-17.196970
 21
25.372840
 31
0.0
  0
LINE
  5
174
100
AcDbEntity
  8
Layer_1
 62
7
100
AcDbLine
 10
-17.196970
 20
25.372840
 30
0.0
 11
-17.196970
 21
26.207350
 31
0.0
  0
LINE
  5
175
100
AcDbEntity
  8
Layer_1
 62
7
100
AcDbLine
 10
-17.196970
 20
26.207350
 30
0.0
 11
-17.196970
 21
27.041860
 31
0.0
  0
LINE
  5
176
100
AcDbEntity
  8
Layer_1
 62
7
100
AcDbLine
 10
-17.196970
 20
27.041860
 30
0.0
 11
-17.196970
 21
27.876370
 31
0.0
  0
LINE
  5
177
100
AcDbEntity
  8
Layer_1
 62
7
100
AcDbLine
 10
-17.196970
 20
27.876370
 30
0.0
 11
-17.196970
 21
28.710880
 31
0.0
  0
LINE
  5
178
100
AcDbEntity
  8
Layer_1
 62
7
100
AcDbLine
 10
-17.196970
 20
28.710880
 30
0.0
 11
-15.916370
 21
28.710880
 31
0.0
  0
LINE
  5
179
100
AcDbEntity
  8
Layer_1
 62
7
100
AcDbLine
 10
-15.916370
 20
28.710880
 30
0.0
 11
-14.635760
 21
28.710880
 31
0.0
  0
LINE
  5
17a
100
AcDbEntity
  8
Layer_1
 62
7
100
AcDbLine
 10
-14.635760
 20
28.710880
 30
0.0
 11
-13.355150
 21
28.710880
 31
0.0
  0
LINE
  5
17b
100
AcDbEntity
  8
Layer_1
 62
7
100
AcDbLine
 10
-13.355150
 20
28.710880
 30
0.0
 11
-12.074550
 21
28.710880
 31
0.0
  0
LINE
  5
17c
100
AcDbEntity
  8
Layer_1
 62
7
100
AcDbLine
 10
-12.074550
 20
28.710880
 30
0.0
 11
-10.793940
 21
28.710880
 31
0.0
  0
LINE
  5
17d
100
AcDbEntity
  8
Layer_1
 62
7
100
AcDbLine
 10
-10.793940
 20
28.710880
 30
0.0
 11
-9.513330
 21
28.710880
 31
0.0
  0
LINE
  5
17e
100
AcDbEntity
  8
Layer_1
 62
7
100
AcDbLine
 10
-9.513330
 20
28.710880
 30
0.0
 11
-8.232730
 21
28.710880
 31
0.0
  0
LINE
  5
17f
100
AcDbEntity
  8
Layer_1
 62
7
100
AcDbLine
 10
-8.232730
 20
28.710880
 30
0.0
 11
-6.952120
 21
28.710880
 31
0.0
  0
LINE
  5
180
100
AcDbEntity
  8
Layer_1
 62
7
100
AcDbLine
 10
-6.952120
 20
28.710880
 30
0.0
 11
-6.952120
 21
30.122420
 31
0.0
  0
LINE
  5
181
100
AcDbEntity
  8
Layer_1
 62
7
100
AcDbLine
 10
-6.952120
 20
30.122420
 30
0.0
 11
-6.952120
 21
31.533960
 31
0.0
  0
LINE
  5
182
100
AcDbEntity
  8
Layer_1
 62
7
100
AcDbLine
 10
-6.952120
 20
31.533960
 30
0.0
 11
-6.952120
 21
32.945510
 31
0.0
  0
LINE
  5
183
100
AcDbEntity
  8
Layer_1
 62
7
100
AcDbLine
 10
-6.952120
 20
32.945510
 30
0.0
 11
-6.952120
 21
34.357050
 31
0.0
  0
LINE
  5
184
100
AcDbEntity
  8
Layer_1
 62
7
100
AcDbLine
 10
-6.952120
 20
34.357050
 30
0.0
 11
-6.952120
 21
35.768590
 31
0.0
  0
LINE
  5
185
100
AcDbEntity
  8
Layer_1
 62
7
100
AcDbLine
 10
-6.952120
 20
35.768590
 30
0.0
 11
-6.952120
 21
37.180130
 31
0.0
  0
LINE
  5
186
100
AcDbEntity
  8
Layer_1
 62
7
100
AcDbLine
 10
-6.952120
 20
37.180130
 30
0.0
 11
-6.952120
 21
38.591670
 31
0.0
  0
LINE
  5
187
100
AcDbEntity
  8
Layer_1
 62
7
100
AcDbLine
 10
-6.952120
 20
38.591670
 30
0.0
 11
-6.952120
 21
40.003220
 31
0.0
  0
LINE
  5
188
100
AcDbEntity
  8
Layer_1
 62
7
100
AcDbLine
 10
-6.952120
 20
40.003220
 30
0.0
 11
-8.310110
 21
40.003220
 31
0.0
  0
LINE
  5
189
100
AcDbEntity
  8
Layer_1
 62
7
100
AcDbLine
 10
-8.310110
 20
40.003220
 30
0.0
 11
-9.668110
 21
40.003220
 31
0.0
  0
LINE
  5
18a
100
AcDbEntity
  8
Layer_1
 62
7
100
AcDbLine
 10
-9.668110
 20
40.003220
 30
0.0
 11
-11.026100
 21
40.003220
 31
0.0
  0
LINE
  5
18b
100
AcDbEntity
  8
Layer_1
 62
7
100
AcDbLine
 10
-11.026100
 20
40.003220
 30
0.0
 11
-12.384090
 21
40.003220
 31
0.0
  0
LINE
  5
18c
100
AcDbEntity
  8
Layer_1
 62
7
100
AcDbLine
 10
-12.384090
 20
40.003220
 30
0.0
 11
-13.742080
 21
40.003220
 31
0.0
  0
LINE
  5
18d
100
AcDbEntity
  8
Layer_1
 62
7
100
AcDbLine
 10
-13.742080
 20
40.003220
 30
0.0
 11
-15.100070
 21
40.003220
 31
0.0
  0
LINE
  5
18e
100
AcDbEntity
  8
Layer_1
 62
7
100
AcDbLine
 10
-15.100070
 20
40.003220
 30
0.0
 11
-16.458060
 21
40.003220
 31
0.0
  0
LINE
  5
18f
100
AcDbEntity
  8
Layer_1
 62
7
100
AcDbLine
 10
-16.458060
 20
40.003220
 30
0.0
 11
-17.816060
 21
40.003220
 31
0.0
  0
LINE
  5
190
100
AcDbEntity
  8
Layer_1
 62
7
100
AcDbLine
 10
-17.816060
 20
40.003220
 30
0.0
 11
-17.816060
 21
40.765050
 31
0.0
  0
LINE
  5
191
100
AcDbEntity
  8
Layer_1
 62
7
100
AcDbLine
 10
-17.816060
 20
40.765050
 30
0.0
 11
-17.816060
 21
41.526900
 31
0.0
  0
LINE
  5
192
100
AcDbEntity
  8
Layer_1
 62
7
100
AcDbLine
 10
-17.816060
 20
41.526900
 30
0.0
 11
-17.816060
 21
42.288730
 31
0.0
  0
LINE
  5
193
100
AcDbEntity
  8
Layer_1
 62
7
100
AcDbLine
 10
-17.816060
 20
42.288730
 30
0.0
 11
-17.816060
 21
43.050570
 31
0.0
  0
LINE
  5
194
100
AcDbEntity
  8
Layer_1
 62
7
100
AcDbLine
 10
-17.816060
 20
43.050570
 30
0.0
 11
-17.816060
 21
43.812410
 31
0.0
  0
LINE
  5
195
100
AcDbEntity
  8
Layer_1
 62
7
100
AcDbLine
 10
-17.816060
 20
43.812410
 30
0.0
 11
-17.816060
 21
44.574250
 31
0.0
  0
LINE
  5
196
100
AcDbEntity
  8
Layer_1
 62
7
100
AcDbLine
 10
-17.816060
 20
44.574250
 30
0.0
 11
-17.816060
 21
45.336090
 31
0.0
  0
LINE
  5
197
100
AcDbEntity
  8
Layer_1
 62
7
100
AcDbLine
 10
-17.816060
 20
45.336090
 30
0.0
 11
-17.816060
 21
46.097930
 31
0.0
  0
LINE
  5
198
100
AcDbEntity
  8
Layer_1
 62
7
100
AcDbLine
 10
-17.816060
 20
46.097930
 30
0.0
 11
-15.852550
 21
46.097930
 31
0.0
  0
LINE
  5
199
100
AcDbEntity
  8
Layer_1
 62
7
100
AcDbLine
 10
-15.852550
 20
46.097930
 30
0.0
 11
-13.889040
 21
46.097930
 31
0.0
  0
LINE
  5
19a
100
AcDbEntity
  8
Layer_1
 62
7
100
AcDbLine
 10
-13.889040
 20
46.097930
 30
0.0
 11
-11.925520
 21
46.097930
 31
0.0
  0
LINE
  5
19b
100
AcDbEntity
  8
Layer_1
 62
7
100
AcDbLine
 10
-11.925520
 20
46.097930
 30
0.0
 11
-9.962010
 21
46.097930
 31
0.0
  0
LINE
  5
19c
100
AcDbEntity
  8
Layer_1
 62
7
100
AcDbLine
 10
-9.962010
 20
46.097930
 30
0.0
 11
-7.998500
 21
46.097930
 31
0.0
  0
LINE
  5
19d
100
AcDbEntity
  8
Layer_1
 62
7
100
AcDbLine
 10
-7.998500
 20
46.097930
 30
0.0
 11
-6.034990
 21
46.097930
 31
0.0
  0
LINE
  5
19e
100
AcDbEntity
  8
Layer_1
 62
7
100
AcDbLine
 10
-6.034990
 20
46.097930
 30
0.0
 11
-4.071480
 21
46.097930
 31
0.0
  0
LINE
  5
19f
100
AcDbEntity
  8
Layer_1
 62
7
100
AcDbLine
 10
-4.071480
 20
46.097930
 30
0.0
 11
-2.107970
 21
46.097930
 31
0.0
  0
LINE
  5
1a0
100
AcDbEntity
  8
Layer_1
 62
7
100
AcDbLine
 10
-2.107970
 20
46.097930
 30
0.0
 11
-2.364670
 21
47.455860
 31
0.0
  0
LINE
  5
1a1
100
AcDbEntity
  8
Layer_1
 62
7
100
AcDbLine
 10
-2.364670
 20
47.455860
 30
0.0
 11
-2.621380
 21
48.813790
 31
0.0
  0
LINE
  5
1a2
100
AcDbEntity
  8
Layer_1
 62
7
100
AcDbLine
 10
-2.621380
 20
48.813790
 30
0.0
 11
-2.878080
 21
50.171720
 31
0.0
  0
LINE
  5
1a3
100
AcDbEntity
  8
Layer_1
 62
7
100
AcDbLine
 10
-2.878080
 20
50.171720
 30
0.0
 11
-3.134780
 21
51.529640
 31
0.0
  0
LINE
  5
1a4
100
AcDbEntity
  8
Layer_1
 62
7
100
AcDbLine
 10
-3.134780
 20
51.529640
 30
0.0
 11
-3.391480
 21
52.887570
 31
0.0
  0
LINE
  5
1a5
100
AcDbEntity
  8
Layer_1
 62
7
100
AcDbLine
 10
-3.391480
 20
52.887570
 30
0.0
 11
-3.648190
 21
54.245500
 31
0.0
  0
LINE
  5
1a6
100
AcDbEntity
  8
Layer_1
 62
7
100
AcDbLine
 10
-3.648190
 20
54.245500
 30
0.0
 11
-3.904890
 21
55.603420
 31
0.0
  0
LINE
  5
1a7
100
AcDbEntity
  8
Layer_1
 62
7
100
AcDbLine
 10
-3.904890
 20
55.603420
 30
0.0
 11
-4.161590
 21
56.961350
 31
0.0
  0
LINE
  5
1a8
100
AcDbEntity
  8
Layer_1
 62
7
100
AcDbLine
 10
-4.161590
 20
56.961350
 30
0.0
 11
-7.257790
 21
56.961350
 31
0.0
  0
LINE
  5
1a9
100
AcDbEntity
  8
Layer_1
 62
7
100
AcDbLine
 10
-7.257790
 20
56.961350
 30
0.0
 11
-10.353980
 21
56.961350
 31
0.0
  0
LINE
  5
1aa
100
AcDbEntity
  8
Layer_1
 62
7
100
AcDbLine
 10
-10.353980
 20
56.961350
 30
0.0
 11
-13.450170
 21
56.961350
 31
0.0
  0
LINE
  5
1ab
100
AcDbEntity
  8
Layer_1
 62
7
100
AcDbLine
 10
-13.450170
 20
56.961350
 30
0.0
 11
-16.546370
 21
56.961350
 31
0.0
  0
LINE
  5
1ac
100
AcDbEntity
  8
Layer_1
 62
7
100
AcDbLine
 10
-16.546370
 20
56.961350
 30
0.0
 11
-19.642560
 21
56.961350
 31
0.0
  0
LINE
  5
1ad
100
AcDbEntity
  8
Layer_1
 62
7
100
AcDbLine
 10
-19.642560
 20
56.961350
 30
0.0
 11
-22.738750
 21
56.961350
 31
0.0
  0
LINE
  5
1ae
100
AcDbEntity
  8
Layer_1
 62
7
100
AcDbLine
 10
-22.738750
 20
56.961350
 30
0.0
 11
-25.834950
 21
56.961350
 31
0.0
  0
LINE
  5
1af
100
AcDbEntity
  8
Layer_1
 62
7
100
AcDbLine
 10
-25.834950
 20
56.961350
 30
0.0
 11
-28.931180
 21
56.961390
 31
0.0
  0
LINE
  5
1b0
100
AcDbEntity
  8
Layer_1
 62
7
100
AcDbLine
 10
17.234480
 20
34.711070
 30
0.0
 11
18.652070
 21
34.568230
 31
0.0
  0
LINE
  5
1b1
100
AcDbEntity
  8
Layer_1
 62
7
100
AcDbLine
 10
18.652070
 20
34.568230
 30
0.0
 11
19.972440
 21
34.158430
 31
0.0
  0
LINE
  5
1b2
100
AcDbEntity
  8
Layer_1
 62
7
100
AcDbLine
 10
19.972440
 20
34.158430
 30
0.0
 11
21.167280
 21
33.509960
 31
0.0
  0
LINE
  5
1b3
100
AcDbEntity
  8
Layer_1
 62
7
100
AcDbLine
 10
21.167280
 20
33.509960
 30
0.0
 11
22.208320
 21
32.651090
 31
0.0
  0
LINE
  5
1b4
100
AcDbEntity
  8
Layer_1
 62
7
100
AcDbLine
 10
22.208320
 20
32.651090
 30
0.0
 11
23.067270
 21
31.610110
 31
0.0
  0
LINE
  5
1b5
100
AcDbEntity
  8
Layer_1
 62
7
100
AcDbLine
 10
23.067270
 20
31.610110
 30
0.0
 11
23.715830
 21
30.415310
 31
0.0
  0
LINE
  5
1b6
100
AcDbEntity
  8
Layer_1
 62
7
100
AcDbLine
 10
23.715830
 20
30.415310
 30
0.0
 11
24.125731
 21
29.094980
 31
0.0
  0
LINE
  5
1b7
100
AcDbEntity
  8
Layer_1
 62
7
100
AcDbLine
 10
24.125731
 20
29.094980
 30
0.0
 11
24.268671
 21
27.677390
 31
0.0
  0
LINE
  5
1b8
100
AcDbEntity
  8
Layer_1
 62
7
100
AcDbLine
 10
24.268671
 20
27.677390
 30
0.0
 11
24.125731
 21
26.259810
 31
0.0
  0
LINE
  5
1b9
100
AcDbEntity
  8
Layer_1
 62
7
100
AcDbLine
 10
24.125731
 20
26.259810
 30
0.0
 11
23.715830
 21
24.939470
 31
0.0
  0
LINE
  5
1ba
100
AcDbEntity
  8
Layer_1
 62
7
100
AcDbLine
 10
23.715830
 20
24.939470
 30
0.0
 11
23.067270
 21
23.744670
 31
0.0
  0
LINE
  5
1bb
100
AcDbEntity
  8
Layer_1
 62
7
100
AcDbLine
 10
23.067270
 20
23.744670
 30
0.0
 11
22.208320
 21
22.703700
 31
0.0
  0
LINE
  5
1bc
100
AcDbEntity
  8
Layer_1
 62
7
100
AcDbLine
 10
22.208320
 20
22.703700
 30
0.0
 11
21.167280
 21
21.844830
 31
0.0
  0
LINE
  5
1bd
100
AcDbEntity
  8
Layer_1
 62
7
100
AcDbLine
 10
21.167280
 20
21.844830
 30
0.0
 11
19.972440
 21
21.196350
 31
0.0
  0
LINE
  5
1be
100
AcDbEntity
  8
Layer_1
 62
7
100
AcDbLine
 10
19.972440
 20
21.196350
 30
0.0
 11
18.652070
 21
20.786550
 31
0.0
  0
LINE
  5
1bf
100
AcDbEntity
  8
Layer_1
 62
7
100
AcDbLine
 10
18.652070
 20
20.786550
 30
0.0
 11
17.234480
 21
20.643710
 31
0.0
  0
LINE
  5
1c0
100
AcDbEntity
  8
Layer_1
 62
7
100
AcDbLine
 10
17.234480
 20
20.643710
 30
0.0
 11
15.816960
 21
20.786640
 31
0.0
  0
LINE
  5
1c1
100
AcDbEntity
  8
Layer_1
 62
7
100
AcDbLine
 10
15.816960
 20
20.786640
 30
0.0
 11
14.496680
 21
21.196500
 31
0.0
  0
LINE
  5
1c2
100
AcDbEntity
  8
Layer_1
 62
7
100
AcDbLine
 10
14.496680
 20
21.196500
 30
0.0
 11
13.301920
 21
21.845010
 31
0.0
  0
LINE
  5
1c3
100
AcDbEntity
  8
Layer_1
 62
7
100
AcDbLine
 10
13.301920
 20
21.845010
 30
0.0
 11
12.260960
 21
22.703880
 31
0.0
  0
LINE
  5
1c4
100
AcDbEntity
  8
Layer_1
 62
7
100
AcDbLine
 10
12.260960
 20
22.703880
 30
0.0
 11
11.402090
 21
23.744840
 31
0.0
  0
LINE
  5
1c5
100
AcDbEntity
  8
Layer_1
 62
7
100
AcDbLine
 10
11.402090
 20
23.744840
 30
0.0
 11
10.753580
 21
24.939600
 31
0.0
  0
LINE
  5
1c6
100
AcDbEntity
  8
Layer_1
 62
7
100
AcDbLine
 10
10.753580
 20
24.939600
 30
0.0
 11
10.343720
 21
26.259880
 31
0.0
  0
LINE
  5
1c7
100
AcDbEntity
  8
Layer_1
 62
7
100
AcDbLine
 10
10.343720
 20
26.259880
 30
0.0
 11
10.200800
 21
27.677390
 31
0.0
  0
LINE
  5
1c8
100
AcDbEntity
  8
Layer_1
 62
7
100
AcDbLine
 10
10.200800
 20
27.677390
 30
0.0
 11
10.343720
 21
29.094910
 31
0.0
  0
LINE
  5
1c9
100
AcDbEntity
  8
Layer_1
 62
7
100
AcDbLine
 10
10.343720
 20
29.094910
 30
0.0
 11
10.753580
 21
30.415190
 31
0.0
  0
LINE
  5
1ca
100
AcDbEntity
  8
Layer_1
 62
7
100
AcDbLine
 10
10.753580
 20
30.415190
 30
0.0
 11
11.402090
 21
31.609950
 31
0.0
  0
LINE
  5
1cb
100
AcDbEntity
  8
Layer_1
 62
7
100
AcDbLine
 10
11.402090
 20
31.609950
 30
0.0
 11
12.260960
 21
32.650900
 31
0.0
  0
LINE
  5
1cc
100
AcDbEntity
  8
Layer_1
 62
7
100
AcDbLine
 10
12.260960
 20
32.650900
 30
0.0
 11
13.301920
 21
33.509780
 31
0.0
  0
LINE
  5
1cd
100
AcDbEntity
  8
Layer_1
 62
7
100
AcDbLine
 10
13.301920
 20
33.509780
 30
0.0
 11
14.496680
 21
34.158280
 31
0.0
  0
LINE
  5
1ce
100
AcDbEntity
  8
Layer_1
 62
7
100
AcDbLine
 10
14.496680
 20
34.158280
 30
0.0
 11
15.816960
 21
34.568140
 31
0.0
  0
LINE
  5
1cf
100
AcDbEntity
  8
Layer_1
 62
7
100
AcDbLine
 10
15.816960
 20
34.568140
 30
0.0
 11
17.234480
 21
34.711070
 31
0.0
  0
LINE
  5
1d0
100
AcDbEntity
  8
Layer_1
 62
7
100
AcDbLine
 10
-54.797820
 20
16.302890
 30
0.0
 11
-54.835820
 21
12.304430
 31
0.0
  0
LINE
  5
1d1
100
AcDbEntity
  8
Layer_1
 62
7
100
AcDbLine
 10
-54.835820
 20
12.304430
 30
0.0
 11
-54.873820
 21
8.305960
 31
0.0
  0
LINE
  5
1d2
100
AcDbEntity
  8
Layer_1
 62
7
100
AcDbLine
 10
-54.873820
 20
8.305960
 30
0.0
 11
-54.911820
 21
4.307500
 31
0.0
  0
LINE
  5
1d3
100
AcDbEntity
  8
Layer_1
 62
7
100
AcDbLine
 10
-54.911820
 20
4.307500
 30
0.0
 11
-54.949820
 21
0.309040
 31
0.0
  0
LINE
  5
1d4
100
AcDbEntity
  8
Layer_1
 62
7
100
AcDbLine
 10
-54.949820
 20
0.309040
 30
0.0
 11
-54.987820
 21
-3.689430
 31
0.0
  0
LINE
  5
1d5
100
AcDbEntity
  8
Layer_1
 62
7
100
AcDbLine
 10
-54.987820
 20
-3.689430
 30
0.0
 11
-55.025820
 21
-7.687890
 31
0.0
  0
LINE
  5
1d6
100
AcDbEntity
  8
Layer_1
 62
7
100
AcDbLine
 10
-55.025820
 20
-7.687890
 30
0.0
 11
-55.063820
 21
-11.686350
 31
0.0
  0
LINE
  5
1d7
100
AcDbEntity
  8
Layer_1
 62
7
100
AcDbLine
 10
-55.063820
 20
-11.686350
 30
0.0
 11
-55.101820
 21
-15.684820
 31
0.0
  0
LINE
  5
1d8
100
AcDbEntity
  8
Layer_1
 62
7
100
AcDbLine
 10
-55.101820
 20
-15.684820
 30
0.0
 11
-54.264210
 21
-15.684820
 31
0.0
  0
LINE
  5
1d9
100
AcDbEntity
  8
Layer_1
 62
7
100
AcDbLine
 10
-54.264210
 20
-15.684820
 30
0.0
 11
-53.426600
 21
-15.684820
 31
0.0
  0
LINE
  5
1da
100
AcDbEntity
  8
Layer_1
 62
7
100
AcDbLine
 10
-53.426600
 20
-15.684820
 30
0.0
 11
-52.588990
 21
-15.684820
 31
0.0
  0
LINE
  5
1db
100
AcDbEntity
  8
Layer_1
 62
7
100
AcDbLine
 10
-52.588990
 20
-15.684820
 30
0.0
 11
-51.751380
 21
-15.684820
 31
0.0
  0
LINE
  5
1dc
100
AcDbEntity
  8
Layer_1
 62
7
100
AcDbLine
 10
-51.751380
 20
-15.684820
 30
0.0
 11
-50.913770
 21
-15.684820
 31
0.0
  0
LINE
  5
1dd
100
AcDbEntity
  8
Layer_1
 62
7
100
AcDbLine
 10
-50.913770
 20
-15.684820
 30
0.0
 11
-50.076160
 21
-15.684820
 31
0.0
  0
LINE
  5
1de
100
AcDbEntity
  8
Layer_1
 62
7
100
AcDbLine
 10
-50.076160
 20
-15.684820
 30
0.0
 11
-49.238550
 21
-15.684820
 31
0.0
  0
LINE
  5
1df
100
AcDbEntity
  8
Layer_1
 62
7
100
AcDbLine
 10
-49.238550
 20
-15.684820
 30
0.0
 11
-48.400940
 21
-15.684820
 31
0.0
  0
LINE
  5
1e0
100
AcDbEntity
  8
Layer_1
 62
7
100
AcDbLine
 10
-48.400940
 20
-15.684820
 30
0.0
 11
-47.532910
 21
-15.684820
 31
0.0
  0
LINE
  5
1e1
100
AcDbEntity
  8
Layer_1
 62
7
100
AcDbLine
 10
-47.532910
 20
-15.684820
 30
0.0
 11
-46.664870
 21
-15.684820
 31
0.0
  0
LINE
  5
1e2
100
AcDbEntity
  8
Layer_1
 62
7
100
AcDbLine
 10
-46.664870
 20
-15.684820
 30
0.0
 11
-45.796840
 21
-15.684820
 31
0.0
  0
LINE
  5
1e3
100
AcDbEntity
  8
Layer_1
 62
7
100
AcDbLine
 10
-45.796840
 20
-15.684820
 30
0.0
 11
-44.928800
 21
-15.684820
 31
0.0
  0
LINE
  5
1e4
100
AcDbEntity
  8
Layer_1
 62
7
100
AcDbLine
 10
-44.928800
 20
-15.684820
 30
0.0
 11
-44.060770
 21
-15.684820
 31
0.0
  0
LINE
  5
1e5
100
AcDbEntity
  8
Layer_1
 62
7
100
AcDbLine
 10
-44.060770
 20
-15.684820
 30
0.0
 11
-43.192730
 21
-15.684820
 31
0.0
  0
LINE
  5
1e6
100
AcDbEntity
  8
Layer_1
 62
7
100
AcDbLine
 10
-43.192730
 20
-15.684820
 30
0.0
 11
-42.324700
 21
-15.684820
 31
0.0
  0
LINE
  5
1e7
100
AcDbEntity
  8
Layer_1
 62
7
100
AcDbLine
 10
-42.324700
 20
-15.684820
 30
0.0
 11
-41.456660
 21
-15.684820
 31
0.0
  0
LINE
  5
1e8
100
AcDbEntity
  8
Layer_1
 62
7
100
AcDbLine
 10
-41.456660
 20
-15.684820
 30
0.0
 11
-41.243220
 21
-15.680820
 31
0.0
  0
LINE
  5
1e9
100
AcDbEntity
  8
Layer_1
 62
7
100
AcDbLine
 10
-41.243220
 20
-15.680820
 30
0.0
 11
-41.030060
 21
-15.668820
 31
0.0
  0
LINE
  5
1ea
100
AcDbEntity
  8
Layer_1
 62
7
100
AcDbLine
 10
-41.030060
 20
-15.668820
 30
0.0
 11
-40.817370
 21
-15.649820
 31
0.0
  0
LINE
  5
1eb
100
AcDbEntity
  8
Layer_1
 62
7
100
AcDbLine
 10
-40.817370
 20
-15.649820
 30
0.0
 11
-40.605340
 21
-15.624620
 31
0.0
  0
LINE
  5
1ec
100
AcDbEntity
  8
Layer_1
 62
7
100
AcDbLine
 10
-40.605340
 20
-15.624620
 30
0.0
 11
-40.394180
 21
-15.594020
 31
0.0
  0
LINE
  5
1ed
100
AcDbEntity
  8
Layer_1
 62
7
100
AcDbLine
 10
-40.394180
 20
-15.594020
 30
0.0
 11
-40.184090
 21
-15.558720
 31
0.0
  0
LINE
  5
1ee
100
AcDbEntity
  8
Layer_1
 62
7
100
AcDbLine
 10
-40.184090
 20
-15.558720
 30
0.0
 11
-39.975250
 21
-15.519520
 31
0.0
  0
LINE
  5
1ef
100
AcDbEntity
  8
Layer_1
 62
7
100
AcDbLine
 10
-39.975250
 20
-15.519520
 30
0.0
 11
-39.767880
 21
-15.477220
 31
0.0
  0
LINE
  5
1f0
100
AcDbEntity
  8
Layer_1
 62
7
100
AcDbLine
 10
-39.767880
 20
-15.477220
 30
0.0
 11
-39.592530
 21
-15.439120
 31
0.0
  0
LINE
  5
1f1
100
AcDbEntity
  8
Layer_1
 62
7
100
AcDbLine
 10
-39.592530
 20
-15.439120
 30
0.0
 11
-39.418050
 21
-15.398820
 31
0.0
  0
LINE
  5
1f2
100
AcDbEntity
  8
Layer_1
 62
7
100
AcDbLine
 10
-39.418050
 20
-15.398820
 30
0.0
 11
-39.244510
 21
-15.356320
 31
0.0
  0
LINE
  5
1f3
100
AcDbEntity
  8
Layer_1
 62
7
100
AcDbLine
 10
-39.244510
 20
-15.356320
 30
0.0
 11
-39.071950
 21
-15.311520
 31
0.0
  0
LINE
  5
1f4
100
AcDbEntity
  8
Layer_1
 62
7
100
AcDbLine
 10
-39.071950
 20
-15.311520
 30
0.0
 11
-38.900440
 21
-15.264420
 31
0.0
  0
LINE
  5
1f5
100
AcDbEntity
  8
Layer_1
 62
7
100
AcDbLine
 10
-38.900440
 20
-15.264420
 30
0.0
 11
-38.730030
 21
-15.214920
 31
0.0
  0
LINE
  5
1f6
100
AcDbEntity
  8
Layer_1
 62
7
100
AcDbLine
 10
-38.730030
 20
-15.214920
 30
0.0
 11
-38.560790
 21
-15.162920
 31
0.0
  0
LINE
  5
1f7
100
AcDbEntity
  8
Layer_1
 62
7
100
AcDbLine
 10
-38.560790
 20
-15.162920
 30
0.0
 11
-38.392770
 21
-15.108420
 31
0.0
  0
LINE
  5
1f8
100
AcDbEntity
  8
Layer_1
 62
7
100
AcDbLine
 10
-38.392770
 20
-15.108420
 30
0.0
 11
-38.226040
 21
-15.051420
 31
0.0
  0
LINE
  5
1f9
100
AcDbEntity
  8
Layer_1
 62
7
100
AcDbLine
 10
-38.226040
 20
-15.051420
 30
0.0
 11
-38.060680
 21
-14.991820
 31
0.0
  0
LINE
  5
1fa
100
AcDbEntity
  8
Layer_1
 62
7
100
AcDbLine
 10
-38.060680
 20
-14.991820
 30
0.0
 11
-37.896750
 21
-14.929520
 31
0.0
  0
LINE
  5
1fb
100
AcDbEntity
  8
Layer_1
 62
7
100
AcDbLine
 10
-37.896750
 20
-14.929520
 30
0.0
 11
-37.734300
 21
-14.864520
 31
0.0
  0
LINE
  5
1fc
100
AcDbEntity
  8
Layer_1
 62
7
100
AcDbLine
 10
-37.734300
 20
-14.864520
 30
0.0
 11
-37.573370
 21
-14.796820
 31
0.0
  0
LINE
  5
1fd
100
AcDbEntity
  8
Layer_1
 62
7
100
AcDbLine
 10
-37.573370
 20
-14.796820
 30
0.0
 11
-37.414040
 21
-14.726420
 31
0.0
  0
LINE
  5
1fe
100
AcDbEntity
  8
Layer_1
 62
7
100
AcDbLine
 10
-37.414040
 20
-14.726420
 30
0.0
 11
-37.256340
 21
-14.653220
 31
0.0
  0
LINE
  5
1ff
100
AcDbEntity
  8
Layer_1
 62
7
100
AcDbLine
 10
-37.256340
 20
-14.653220
 30
0.0
 11
-37.100340
 21
-14.577120
 31
0.0
  0
LINE
  5
200
100
AcDbEntity
  8
Layer_1
 62
7
100
AcDbLine
 10
-37.100340
 20
-14.577120
 30
0.0
 11
-36.946090
 21
-14.498120
 31
0.0
  0
LINE
  5
201
100
AcDbEntity
  8
Layer_1
 62
7
100
AcDbLine
 10
-36.946090
 20
-14.498120
 30
0.0
 11
-36.793680
 21
-14.416220
 31
0.0
  0
LINE
  5
202
100
AcDbEntity
  8
Layer_1
 62
7
100
AcDbLine
 10
-36.793680
 20
-14.416220
 30
0.0
 11
-36.643140
 21
-14.331320
 31
0.0
  0
LINE
  5
203
100
AcDbEntity
  8
Layer_1
 62
7
100
AcDbLine
 10
-36.643140
 20
-14.331320
 30
0.0
 11
-36.494570
 21
-14.243320
 31
0.0
  0
LINE
  5
204
100
AcDbEntity
  8
Layer_1
 62
7
100
AcDbLine
 10
-36.494570
 20
-14.243320
 30
0.0
 11
-36.348010
 21
-14.152220
 31
0.0
  0
LINE
  5
205
100
AcDbEntity
  8
Layer_1
 62
7
100
AcDbLine
 10
-36.348010
 20
-14.152220
 30
0.0
 11
-36.203530
 21
-14.058020
 31
0.0
  0
LINE
  5
206
100
AcDbEntity
  8
Layer_1
 62
7
100
AcDbLine
 10
-36.203530
 20
-14.058020
 30
0.0
 11
-36.061200
 21
-13.960520
 31
0.0
  0
LINE
  5
207
100
AcDbEntity
  8
Layer_1
 62
7
100
AcDbLine
 10
-36.061200
 20
-13.960520
 30
0.0
 11
-35.921080
 21
-13.859810
 31
0.0
  0
LINE
  5
208
100
AcDbEntity
  8
Layer_1
 62
7
100
AcDbLine
 10
-35.921080
 20
-13.859810
 30
0.0
 11
-35.783220
 21
-13.755800
 31
0.0
  0
LINE
  5
209
100
AcDbEntity
  8
Layer_1
 62
7
100
AcDbLine
 10
-35.783220
 20
-13.755800
 30
0.0
 11
-35.647680
 21
-13.648440
 31
0.0
  0
LINE
  5
20a
100
AcDbEntity
  8
Layer_1
 62
7
100
AcDbLine
 10
-35.647680
 20
-13.648440
 30
0.0
 11
-35.514510
 21
-13.537680
 31
0.0
  0
LINE
  5
20b
100
AcDbEntity
  8
Layer_1
 62
7
100
AcDbLine
 10
-35.514510
 20
-13.537680
 30
0.0
 11
-35.383770
 21
-13.423480
 31
0.0
  0
LINE
  5
20c
100
AcDbEntity
  8
Layer_1
 62
7
100
AcDbLine
 10
-35.383770
 20
-13.423480
 30
0.0
 11
-35.255540
 21
-13.305780
 31
0.0
  0
LINE
  5
20d
100
AcDbEntity
  8
Layer_1
 62
7
100
AcDbLine
 10
-35.255540
 20
-13.305780
 30
0.0
 11
-35.129880
 21
-13.184530
 31
0.0
  0
LINE
  5
20e
100
AcDbEntity
  8
Layer_1
 62
7
100
AcDbLine
 10
-35.129880
 20
-13.184530
 30
0.0
 11
-35.006850
 21
-13.059680
 31
0.0
  0
LINE
  5
20f
100
AcDbEntity
  8
Layer_1
 62
7
100
AcDbLine
 10
-35.006850
 20
-13.059680
 30
0.0
 11
-34.886520
 21
-12.931180
 31
0.0
  0
LINE
  5
210
100
AcDbEntity
  8
Layer_1
 62
7
100
AcDbLine
 10
-34.886520
 20
-12.931180
 30
0.0
 11
-34.768950
 21
-12.799000
 31
0.0
  0
LINE
  5
211
100
AcDbEntity
  8
Layer_1
 62
7
100
AcDbLine
 10
-34.768950
 20
-12.799000
 30
0.0
 11
-34.654210
 21
-12.663090
 31
0.0
  0
LINE
  5
212
100
AcDbEntity
  8
Layer_1
 62
7
100
AcDbLine
 10
-34.654210
 20
-12.663090
 30
0.0
 11
-34.542350
 21
-12.523410
 31
0.0
  0
LINE
  5
213
100
AcDbEntity
  8
Layer_1
 62
7
100
AcDbLine
 10
-34.542350
 20
-12.523410
 30
0.0
 11
-34.433430
 21
-12.379880
 31
0.0
  0
LINE
  5
214
100
AcDbEntity
  8
Layer_1
 62
7
100
AcDbLine
 10
-34.433430
 20
-12.379880
 30
0.0
 11
-34.327500
 21
-12.232480
 31
0.0
  0
LINE
  5
215
100
AcDbEntity
  8
Layer_1
 62
7
100
AcDbLine
 10
-34.327500
 20
-12.232480
 30
0.0
 11
-34.224610
 21
-12.081130
 31
0.0
  0
LINE
  5
216
100
AcDbEntity
  8
Layer_1
 62
7
100
AcDbLine
 10
-34.224610
 20
-12.081130
 30
0.0
 11
-34.124810
 21
-11.925790
 31
0.0
  0
LINE
  5
217
100
AcDbEntity
  8
Layer_1
 62
7
100
AcDbLine
 10
-34.124810
 20
-11.925790
 30
0.0
 11
-34.028110
 21
-11.766400
 31
0.0
  0
LINE
  5
218
100
AcDbEntity
  8
Layer_1
 62
7
100
AcDbLine
 10
-34.028110
 20
-11.766400
 30
0.0
 11
-33.934710
 21
-11.602910
 31
0.0
  0
LINE
  5
219
100
AcDbEntity
  8
Layer_1
 62
7
100
AcDbLine
 10
-33.934710
 20
-11.602910
 30
0.0
 11
-33.844510
 21
-11.435300
 31
0.0
  0
LINE
  5
21a
100
AcDbEntity
  8
Layer_1
 62
7
100
AcDbLine
 10
-33.844510
 20
-11.435300
 30
0.0
 11
-33.757710
 21
-11.263500
 31
0.0
  0
LINE
  5
21b
100
AcDbEntity
  8
Layer_1
 62
7
100
AcDbLine
 10
-33.757710
 20
-11.263500
 30
0.0
 11
-33.674310
 21
-11.087470
 31
0.0
  0
LINE
  5
21c
100
AcDbEntity
  8
Layer_1
 62
7
100
AcDbLine
 10
-33.674310
 20
-11.087470
 30
0.0
 11
-33.594310
 21
-10.907160
 31
0.0
  0
LINE
  5
21d
100
AcDbEntity
  8
Layer_1
 62
7
100
AcDbLine
 10
-33.594310
 20
-10.907160
 30
0.0
 11
-33.517910
 21
-10.722540
 31
0.0
  0
LINE
  5
21e
100
AcDbEntity
  8
Layer_1
 62
7
100
AcDbLine
 10
-33.517910
 20
-10.722540
 30
0.0
 11
-33.445110
 21
-10.533540
 31
0.0
  0
LINE
  5
21f
100
AcDbEntity
  8
Layer_1
 62
7
100
AcDbLine
 10
-33.445110
 20
-10.533540
 30
0.0
 11
-33.376010
 21
-10.340130
 31
0.0
  0
LINE
  5
220
100
AcDbEntity
  8
Layer_1
 62
7
100
AcDbLine
 10
-33.376010
 20
-10.340130
 30
0.0
 11
-33.341410
 21
-10.237260
 31
0.0
  0
LINE
  5
221
100
AcDbEntity
  8
Layer_1
 62
7
100
AcDbLine
 10
-33.341410
 20
-10.237260
 30
0.0
 11
-33.307810
 21
-10.133100
 31
0.0
  0
LINE
  5
222
100
AcDbEntity
  8
Layer_1
 62
7
100
AcDbLine
 10
-33.307810
 20
-10.133100
 30
0.0
 11
-33.275310
 21
-10.027670
 31
0.0
  0
LINE
  5
223
100
AcDbEntity
  8
Layer_1
 62
7
100
AcDbLine
 10
-33.275310
 20
-10.027670
 30
0.0
 11
-33.243810
 21
-9.920970
 31
0.0
  0
LINE
  5
224
100
AcDbEntity
  8
Layer_1
 62
7
100
AcDbLine
 10
-33.243810
 20
-9.920970
 30
0.0
 11
-33.213410
 21
-9.813010
 31
0.0
  0
LINE
  5
225
100
AcDbEntity
  8
Layer_1
 62
7
100
AcDbLine
 10
-33.213410
 20
-9.813010
 30
0.0
 11
-33.184010
 21
-9.703820
 31
0.0
  0
LINE
  5
226
100
AcDbEntity
  8
Layer_1
 62
7
100
AcDbLine
 10
-33.184010
 20
-9.703820
 30
0.0
 11
-33.155710
 21
-9.593410
 31
0.0
  0
LINE
  5
227
100
AcDbEntity
  8
Layer_1
 62
7
100
AcDbLine
 10
-33.155710
 20
-9.593410
 30
0.0
 11
-33.128410
 21
-9.481780
 31
0.0
  0
LINE
  5
228
100
AcDbEntity
  8
Layer_1
 62
7
100
AcDbLine
 10
-33.128410
 20
-9.481780
 30
0.0
 11
-32.866070
 21
-10.895370
 31
0.0
  0
LINE
  5
229
100
AcDbEntity
  8
Layer_1
 62
7
100
AcDbLine
 10
-32.866070
 20
-10.895370
 30
0.0
 11
-32.394030
 21
-12.181200
 31
0.0
  0
LINE
  5
22a
100
AcDbEntity
  8
Layer_1
 62
7
100
AcDbLine
 10
-32.394030
 20
-12.181200
 30
0.0
 11
-31.730380
 21
-13.320530
 31
0.0
  0
LINE
  5
22b
100
AcDbEntity
  8
Layer_1
 62
7
100
AcDbLine
 10
-31.730380
 20
-13.320530
 30
0.0
 11
-30.893230
 21
-14.294680
 31
0.0
  0
LINE
  5
22c
100
AcDbEntity
  8
Layer_1
 62
7
100
AcDbLine
 10
-30.893230
 20
-14.294680
 30
0.0
 11
-29.900680
 21
-15.084920
 31
0.0
  0
LINE
  5
22d
100
AcDbEntity
  8
Layer_1
 62
7
100
AcDbLine
 10
-29.900680
 20
-15.084920
 30
0.0
 11
-28.770840
 21
-15.672540
 31
0.0
  0
LINE
  5
22e
100
AcDbEntity
  8
Layer_1
 62
7
100
AcDbLine
 10
-28.770840
 20
-15.672540
 30
0.0
 11
-27.521820
 21
-16.038840
 31
0.0
  0
LINE
  5
22f
100
AcDbEntity
  8
Layer_1
 62
7
100
AcDbLine
 10
-27.521820
 20
-16.038840
 30
0.0
 11
-26.171730
 21
-16.165100
 31
0.0
  0
LINE
  5
230
100
AcDbEntity
  8
Layer_1
 62
7
100
AcDbLine
 10
-26.171730
 20
-16.165100
 30
0.0
 11
-25.218690
 21
-16.134000
 31
0.0
  0
LINE
  5
231
100
AcDbEntity
  8
Layer_1
 62
7
100
AcDbLine
 10
-25.218690
 20
-16.134000
 30
0.0
 11
-24.370910
 21
-16.038600
 31
0.0
  0
LINE
  5
232
100
AcDbEntity
  8
Layer_1
 62
7
100
AcDbLine
 10
-24.370910
 20
-16.038600
 30
0.0
 11
-23.617700
 21
-15.875870
 31
0.0
  0
LINE
  5
233
100
AcDbEntity
  8
Layer_1
 62
7
100
AcDbLine
 10
-23.617700
 20
-15.875870
 30
0.0
 11
-22.948400
 21
-15.642830
 31
0.0
  0
LINE
  5
234
100
AcDbEntity
  8
Layer_1
 62
7
100
AcDbLine
 10
-22.948400
 20
-15.642830
 30
0.0
 11
-22.352310
 21
-15.336450
 31
0.0
  0
LINE
  5
235
100
AcDbEntity
  8
Layer_1
 62
7
100
AcDbLine
 10
-22.352310
 20
-15.336450
 30
0.0
 11
-21.818770
 21
-14.953730
 31
0.0
  0
LINE
  5
236
100
AcDbEntity
  8
Layer_1
 62
7
100
AcDbLine
 10
-21.818770
 20
-14.953730
 30
0.0
 11
-21.337090
 21
-14.491660
 31
0.0
  0
LINE
  5
237
100
AcDbEntity
  8
Layer_1
 62
7
100
AcDbLine
 10
-21.337090
 20
-14.491660
 30
0.0
 11
-20.896600
 21
-13.947210
 31
0.0
  0
LINE
  5
238
100
AcDbEntity
  8
Layer_1
 62
7
100
AcDbLine
 10
-20.896600
 20
-13.947210
 30
0.0
 11
-20.893600
 21
-14.164440
 31
0.0
  0
LINE
  5
239
100
AcDbEntity
  8
Layer_1
 62
7
100
AcDbLine
 10
-20.893600
 20
-14.164440
 30
0.0
 11
-20.890600
 21
-14.381680
 31
0.0
  0
LINE
  5
23a
100
AcDbEntity
  8
Layer_1
 62
7
100
AcDbLine
 10
-20.890600
 20
-14.381680
 30
0.0
 11
-20.887600
 21
-14.598920
 31
0.0
  0
LINE
  5
23b
100
AcDbEntity
  8
Layer_1
 62
7
100
AcDbLine
 10
-20.887600
 20
-14.598920
 30
0.0
 11
-20.884600
 21
-14.816150
 31
0.0
  0
LINE
  5
23c
100
AcDbEntity
  8
Layer_1
 62
7
100
AcDbLine
 10
-20.884600
 20
-14.816150
 30
0.0
 11
-20.881600
 21
-15.033390
 31
0.0
  0
LINE
  5
23d
100
AcDbEntity
  8
Layer_1
 62
7
100
AcDbLine
 10
-20.881600
 20
-15.033390
 30
0.0
 11
-20.878600
 21
-15.250620
 31
0.0
  0
LINE
  5
23e
100
AcDbEntity
  8
Layer_1
 62
7
100
AcDbLine
 10
-20.878600
 20
-15.250620
 30
0.0
 11
-20.875600
 21
-15.467860
 31
0.0
  0
LINE
  5
23f
100
AcDbEntity
  8
Layer_1
 62
7
100
AcDbLine
 10
-20.875600
 20
-15.467860
 30
0.0
 11
-20.872600
 21
-15.685090
 31
0.0
  0
LINE
  5
240
100
AcDbEntity
  8
Layer_1
 62
7
100
AcDbLine
 10
-20.872600
 20
-15.685090
 30
0.0
 11
-20.013220
 21
-15.685090
 31
0.0
  0
LINE
  5
241
100
AcDbEntity
  8
Layer_1
 62
7
100
AcDbLine
 10
-20.013220
 20
-15.685090
 30
0.0
 11
-19.153840
 21
-15.685090
 31
0.0
  0
LINE
  5
242
100
AcDbEntity
  8
Layer_1
 62
7
100
AcDbLine
 10
-19.153840
 20
-15.685090
 30
0.0
 11
-18.294460
 21
-15.685090
 31
0.0
  0
LINE
  5
243
100
AcDbEntity
  8
Layer_1
 62
7
100
AcDbLine
 10
-18.294460
 20
-15.685090
 30
0.0
 11
-17.435080
 21
-15.685090
 31
0.0
  0
LINE
  5
244
100
AcDbEntity
  8
Layer_1
 62
7
100
AcDbLine
 10
-17.435080
 20
-15.685090
 30
0.0
 11
-16.575700
 21
-15.685090
 31
0.0
  0
LINE
  5
245
100
AcDbEntity
  8
Layer_1
 62
7
100
AcDbLine
 10
-16.575700
 20
-15.685090
 30
0.0
 11
-15.716320
 21
-15.685090
 31
0.0
  0
LINE
  5
246
100
AcDbEntity
  8
Layer_1
 62
7
100
AcDbLine
 10
-15.716320
 20
-15.685090
 30
0.0
 11
-14.856940
 21
-15.685090
 31
0.0
  0
LINE
  5
247
100
AcDbEntity
  8
Layer_1
 62
7
100
AcDbLine
 10
-14.856940
 20
-15.685090
 30
0.0
 11
-13.997560
 21
-15.685090
 31
0.0
  0
LINE
  5
248
100
AcDbEntity
  8
Layer_1
 62
7
100
AcDbLine
 10
-13.997560
 20
-15.685090
 30
0.0
 11
-13.989560
 21
-13.539740
 31
0.0
  0
LINE
  5
249
100
AcDbEntity
  8
Layer_1
 62
7
100
AcDbLine
 10
-13.989560
 20
-13.539740
 30
0.0
 11
-13.981560
 21
-11.394400
 31
0.0
  0
LINE
  5
24a
100
AcDbEntity
  8
Layer_1
 62
7
100
AcDbLine
 10
-13.981560
 20
-11.394400
 30
0.0
 11
-13.973560
 21
-9.249050
 31
0.0
  0
LINE
  5
24b
100
AcDbEntity
  8
Layer_1
 62
7
100
AcDbLine
 10
-13.973560
 20
-9.249050
 30
0.0
 11
-13.965560
 21
-7.103700
 31
0.0
  0
LINE
  5
24c
100
AcDbEntity
  8
Layer_1
 62
7
100
AcDbLine
 10
-13.965560
 20
-7.103700
 30
0.0
 11
-13.957560
 21
-4.958360
 31
0.0
  0
LINE
  5
24d
100
AcDbEntity
  8
Layer_1
 62
7
100
AcDbLine
 10
-13.957560
 20
-4.958360
 30
0.0
 11
-13.949560
 21
-2.813010
 31
0.0
  0
LINE
  5
24e
100
AcDbEntity
  8
Layer_1
 62
7
100
AcDbLine
 10
-13.949560
 20
-2.813010
 30
0.0
 11
-13.941560
 21
-0.667660
 31
0.0
  0
LINE
  5
24f
100
AcDbEntity
  8
Layer_1
 62
7
100
AcDbLine
 10
-13.941560
 20
-0.667660
 30
0.0
 11
-13.933560
 21
1.477680
 31
0.0
  0
LINE
  5
250
100
AcDbEntity
  8
Layer_1
 62
7
100
AcDbLine
 10
-13.933560
 20
1.477680
 30
0.0
 11
-14.024960
 21
3.019020
 31
0.0
  0
LINE
  5
251
100
AcDbEntity
  8
Layer_1
 62
7
100
AcDbLine
 10
-14.024960
 20
3.019020
 30
0.0
 11
-14.295970
 21
4.249440
 31
0.0
  0
LINE
  5
252
100
AcDbEntity
  8
Layer_1
 62
7
100
AcDbLine
 10
-14.295970
 20
4.249440
 30
0.0
 11
-14.722830
 21
5.205040
 31
0.0
  0
LINE
  5
253
100
AcDbEntity
  8
Layer_1
 62
7
100
AcDbLine
 10
-14.722830
 20
5.205040
 30
0.0
 11
-15.281830
 21
5.921930
 31
0.0
  0
LINE
  5
254
100
AcDbEntity
  8
Layer_1
 62
7
100
AcDbLine
 10
-15.281830
 20
5.921930
 30
0.0
 11
-15.949250
 21
6.436210
 31
0.0
  0
LINE
  5
255
100
AcDbEntity
  8
Layer_1
 62
7
100
AcDbLine
 10
-15.949250
 20
6.436210
 30
0.0
 11
-16.701360
 21
6.783980
 31
0.0
  0
LINE
  5
256
100
AcDbEntity
  8
Layer_1
 62
7
100
AcDbLine
 10
-16.701360
 20
6.783980
 30
0.0
 11
-17.514450
 21
7.001330
 31
0.0
  0
LINE
  5
257
100
AcDbEntity
  8
Layer_1
 62
7
100
AcDbLine
 10
-17.514450
 20
7.001330
 30
0.0
 11
-18.364790
 21
7.124370
 31
0.0
  0
LINE
  5
258
100
AcDbEntity
  8
Layer_1
 62
7
100
AcDbLine
 10
-18.364790
 20
7.124370
 30
0.0
 11
-18.699750
 21
7.156070
 31
0.0
  0
LINE
  5
259
100
AcDbEntity
  8
Layer_1
 62
7
100
AcDbLine
 10
-18.699750
 20
7.156070
 30
0.0
 11
-19.039620
 21
7.183370
 31
0.0
  0
LINE
  5
25a
100
AcDbEntity
  8
Layer_1
 62
7
100
AcDbLine
 10
-19.039620
 20
7.183370
 30
0.0
 11
-19.384070
 21
7.206470
 31
0.0
  0
LINE
  5
25b
100
AcDbEntity
  8
Layer_1
 62
7
100
AcDbLine
 10
-19.384070
 20
7.206470
 30
0.0
 11
-19.732780
 21
7.225470
 31
0.0
  0
LINE
  5
25c
100
AcDbEntity
  8
Layer_1
 62
7
100
AcDbLine
 10
-19.732780
 20
7.225470
 30
0.0
 11
-20.085410
 21
7.240670
 31
0.0
  0
LINE
  5
25d
100
AcDbEntity
  8
Layer_1
 62
7
100
AcDbLine
 10
-20.085410
 20
7.240670
 30
0.0
 11
-20.441640
 21
7.252170
 31
0.0
  0
LINE
  5
25e
100
AcDbEntity
  8
Layer_1
 62
7
100
AcDbLine
 10
-20.441640
 20
7.252170
 30
0.0
 11
-20.801140
 21
7.260170
 31
0.0
  0
LINE
  5
25f
100
AcDbEntity
  8
Layer_1
 62
7
100
AcDbLine
 10
-20.801140
 20
7.260170
 30
0.0
 11
-21.163590
 21
7.265170
 31
0.0
  0
LINE
  5
260
100
AcDbEntity
  8
Layer_1
 62
7
100
AcDbLine
 10
-21.163590
 20
7.265170
 30
0.0
 11
-22.265320
 21
7.261170
 31
0.0
  0
LINE
  5
261
100
AcDbEntity
  8
Layer_1
 62
7
100
AcDbLine
 10
-22.265320
 20
7.261170
 30
0.0
 11
-23.381770
 21
7.235070
 31
0.0
  0
LINE
  5
262
100
AcDbEntity
  8
Layer_1
 62
7
100
AcDbLine
 10
-23.381770
 20
7.235070
 30
0.0
 11
-24.504110
 21
7.191470
 31
0.0
  0
LINE
  5
263
100
AcDbEntity
  8
Layer_1
 62
7
100
AcDbLine
 10
-24.504110
 20
7.191470
 30
0.0
 11
-25.623530
 21
7.135670
 31
0.0
  0
LINE
  5
264
100
AcDbEntity
  8
Layer_1
 62
7
100
AcDbLine
 10
-25.623530
 20
7.135670
 30
0.0
 11
-26.731190
 21
7.072670
 31
0.0
  0
LINE
  5
265
100
AcDbEntity
  8
Layer_1
 62
7
100
AcDbLine
 10
-26.731190
 20
7.072670
 30
0.0
 11
-27.818260
 21
7.007770
 31
0.0
  0
LINE
  5
266
100
AcDbEntity
  8
Layer_1
 62
7
100
AcDbLine
 10
-27.818260
 20
7.007770
 30
0.0
 11
-28.875930
 21
6.946070
 31
0.0
  0
LINE
  5
267
100
AcDbEntity
  8
Layer_1
 62
7
100
AcDbLine
 10
-28.875930
 20
6.946070
 30
0.0
 11
-29.895350
 21
6.892670
 31
0.0
  0
LINE
  5
268
100
AcDbEntity
  8
Layer_1
 62
7
100
AcDbLine
 10
-29.895350
 20
6.892670
 30
0.0
 11
-29.986650
 21
6.314350
 31
0.0
  0
LINE
  5
269
100
AcDbEntity
  8
Layer_1
 62
7
100
AcDbLine
 10
-29.986650
 20
6.314350
 30
0.0
 11
-30.077950
 21
5.736020
 31
0.0
  0
LINE
  5
26a
100
AcDbEntity
  8
Layer_1
 62
7
100
AcDbLine
 10
-30.077950
 20
5.736020
 30
0.0
 11
-30.169250
 21
5.157700
 31
0.0
  0
LINE
  5
26b
100
AcDbEntity
  8
Layer_1
 62
7
100
AcDbLine
 10
-30.169250
 20
5.157700
 30
0.0
 11
-30.260550
 21
4.579370
 31
0.0
  0
LINE
  5
26c
100
AcDbEntity
  8
Layer_1
 62
7
100
AcDbLine
 10
-30.260550
 20
4.579370
 30
0.0
 11
-30.351850
 21
4.001050
 31
0.0
  0
LINE
  5
26d
100
AcDbEntity
  8
Layer_1
 62
7
100
AcDbLine
 10
-30.351850
 20
4.001050
 30
0.0
 11
-30.443150
 21
3.422730
 31
0.0
  0
LINE
  5
26e
100
AcDbEntity
  8
Layer_1
 62
7
100
AcDbLine
 10
-30.443150
 20
3.422730
 30
0.0
 11
-30.534450
 21
2.844400
 31
0.0
  0
LINE
  5
26f
100
AcDbEntity
  8
Layer_1
 62
7
100
AcDbLine
 10
-30.534450
 20
2.844400
 30
0.0
 11
-30.625750
 21
2.266080
 31
0.0
  0
LINE
  5
270
100
AcDbEntity
  8
Layer_1
 62
7
100
AcDbLine
 10
-30.625750
 20
2.266080
 30
0.0
 11
-29.659670
 21
2.461500
 31
0.0
  0
LINE
  5
271
100
AcDbEntity
  8
Layer_1
 62
7
100
AcDbLine
 10
-29.659670
 20
2.461500
 30
0.0
 11
-28.605150
 21
2.627850
 31
0.0
  0
LINE
  5
272
100
AcDbEntity
  8
Layer_1
 62
7
100
AcDbLine
 10
-28.605150
 20
2.627850
 30
0.0
 11
-27.507300
 21
2.754550
 31
0.0
  0
LINE
  5
273
100
AcDbEntity
  8
Layer_1
 62
7
100
AcDbLine
 10
-27.507300
 20
2.754550
 30
0.0
 11
-26.411200
 21
2.831050
 31
0.0
  0
LINE
  5
274
100
AcDbEntity
  8
Layer_1
 62
7
100
AcDbLine
 10
-26.411200
 20
2.831050
 30
0.0
 11
-25.361930
 21
2.846750
 31
0.0
  0
LINE
  5
275
100
AcDbEntity
  8
Layer_1
 62
7
100
AcDbLine
 10
-25.361930
 20
2.846750
 30
0.0
 11
-24.404610
 21
2.791050
 31
0.0
  0
LINE
  5
276
100
AcDbEntity
  8
Layer_1
 62
7
100
AcDbLine
 10
-24.404610
 20
2.791050
 30
0.0
 11
-23.584300
 21
2.653400
 31
0.0
  0
LINE
  5
277
100
AcDbEntity
  8
Layer_1
 62
7
100
AcDbLine
 10
-23.584300
 20
2.653400
 30
0.0
 11
-22.946120
 21
2.423230
 31
0.0
  0
LINE
  5
278
100
AcDbEntity
  8
Layer_1
 62
7
100
AcDbLine
 10
-22.946120
 20
2.423230
 30
0.0
 11
-22.390320
 21
2.054110
 31
0.0
  0
LINE
  5
279
100
AcDbEntity
  8
Layer_1
 62
7
100
AcDbLine
 10
-22.390320
 20
2.054110
 30
0.0
 11
-21.976200
 21
1.619720
 31
0.0
  0
LINE
  5
27a
100
AcDbEntity
  8
Layer_1
 62
7
100
AcDbLine
 10
-21.976200
 20
1.619720
 30
0.0
 11
-21.680050
 21
1.127970
 31
0.0
  0
LINE
  5
27b
100
AcDbEntity
  8
Layer_1
 62
7
100
AcDbLine
 10
-21.680050
 20
1.127970
 30
0.0
 11
-21.478180
 21
0.586750
 31
0.0
  0
LINE
  5
27c
100
AcDbEntity
  8
Layer_1
 62
7
100
AcDbLine
 10
-21.478180
 20
0.586750
 30
0.0
 11
-21.346890
 21
0.003940
 31
0.0
  0
LINE
  5
27d
100
AcDbEntity
  8
Layer_1
 62
7
100
AcDbLine
 10
-21.346890
 20
0.003940
 30
0.0
 11
-21.262490
 21
-0.612550
 31
0.0
  0
LINE
  5
27e
100
AcDbEntity
  8
Layer_1
 62
7
100
AcDbLine
 10
-21.262490
 20
-0.612550
 30
0.0
 11
-21.201290
 21
-1.254830
 31
0.0
  0
LINE
  5
27f
100
AcDbEntity
  8
Layer_1
 62
7
100
AcDbLine
 10
-21.201290
 20
-1.254830
 30
0.0
 11
-21.139590
 21
-1.915010
 31
0.0
  0
LINE
  5
280
100
AcDbEntity
  8
Layer_1
 62
7
100
AcDbLine
 10
-21.139590
 20
-1.915010
 30
0.0
 11
-21.579140
 21
-1.509850
 31
0.0
  0
LINE
  5
281
100
AcDbEntity
  8
Layer_1
 62
7
100
AcDbLine
 10
-21.579140
 20
-1.509850
 30
0.0
 11
-22.062820
 21
-1.150010
 31
0.0
  0
LINE
  5
282
100
AcDbEntity
  8
Layer_1
 62
7
100
AcDbLine
 10
-22.062820
 20
-1.150010
 30
0.0
 11
-22.591250
 21
-0.838180
 31
0.0
  0
LINE
  5
283
100
AcDbEntity
  8
Layer_1
 62
7
100
AcDbLine
 10
-22.591250
 20
-0.838180
 30
0.0
 11
-23.165060
 21
-0.577030
 31
0.0
  0
LINE
  5
284
100
AcDbEntity
  8
Layer_1
 62
7
100
AcDbLine
 10
-23.165060
 20
-0.577030
 30
0.0
 11
-23.784850
 21
-0.369240
 31
0.0
  0
LINE
  5
285
100
AcDbEntity
  8
Layer_1
 62
7
100
AcDbLine
 10
-23.784850
 20
-0.369240
 30
0.0
 11
-24.451260
 21
-0.217510
 31
0.0
  0
LINE
  5
286
100
AcDbEntity
  8
Layer_1
 62
7
100
AcDbLine
 10
-24.451260
 20
-0.217510
 30
0.0
 11
-25.164890
 21
-0.124510
 31
0.0
  0
LINE
  5
287
100
AcDbEntity
  8
Layer_1
 62
7
100
AcDbLine
 10
-25.164890
 20
-0.124510
 30
0.0
 11
-25.926380
 21
-0.092910
 31
0.0
  0
LINE
  5
288
100
AcDbEntity
  8
Layer_1
 62
7
100
AcDbLine
 10
-25.926380
 20
-0.092910
 30
0.0
 11
-27.116420
 21
-0.210890
 31
0.0
  0
LINE
  5
289
100
AcDbEntity
  8
Layer_1
 62
7
100
AcDbLine
 10
-27.116420
 20
-0.210890
 30
0.0
 11
-28.243220
 21
-0.550310
 31
0.0
  0
LINE
  5
28a
100
AcDbEntity
  8
Layer_1
 62
7
100
AcDbLine
 10
-28.243220
 20
-0.550310
 30
0.0
 11
-29.291740
 21
-1.089430
 31
0.0
  0
LINE
  5
28b
100
AcDbEntity
  8
Layer_1
 62
7
100
AcDbLine
 10
-29.291740
 20
-1.089430
 30
0.0
 11
-30.246950
 21
-1.806470
 31
0.0
  0
LINE
  5
28c
100
AcDbEntity
  8
Layer_1
 62
7
100
AcDbLine
 10
-30.246950
 20
-1.806470
 30
0.0
 11
-31.093810
 21
-2.679670
 31
0.0
  0
LINE
  5
28d
100
AcDbEntity
  8
Layer_1
 62
7
100
AcDbLine
 10
-31.093810
 20
-2.679670
 30
0.0
 11
-31.817290
 21
-3.687270
 31
0.0
  0
LINE
  5
28e
100
AcDbEntity
  8
Layer_1
 62
7
100
AcDbLine
 10
-31.817290
 20
-3.687270
 30
0.0
 11
-32.402350
 21
-4.807520
 31
0.0
  0
LINE
  5
28f
100
AcDbEntity
  8
Layer_1
 62
7
100
AcDbLine
 10
-32.402350
 20
-4.807520
 30
0.0
 11
-32.833960
 21
-6.018650
 31
0.0
  0
LINE
  5
290
100
AcDbEntity
  8
Layer_1
 62
7
100
AcDbLine
 10
-32.833960
 20
-6.018650
 30
0.0
 11
-32.840960
 21
-5.868870
 31
0.0
  0
LINE
  5
291
100
AcDbEntity
  8
Layer_1
 62
7
100
AcDbLine
 10
-32.840960
 20
-5.868870
 30
0.0
 11
-32.848960
 21
-5.719570
 31
0.0
  0
LINE
  5
292
100
AcDbEntity
  8
Layer_1
 62
7
100
AcDbLine
 10
-32.848960
 20
-5.719570
 30
0.0
 11
-32.857960
 21
-5.572140
 31
0.0
  0
LINE
  5
293
100
AcDbEntity
  8
Layer_1
 62
7
100
AcDbLine
 10
-32.857960
 20
-5.572140
 30
0.0
 11
-32.868060
 21
-5.427960
 31
0.0
  0
LINE
  5
294
100
AcDbEntity
  8
Layer_1
 62
7
100
AcDbLine
 10
-32.868060
 20
-5.427960
 30
0.0
 11
-32.879560
 21
-5.288440
 31
0.0
  0
LINE
  5
295
100
AcDbEntity
  8
Layer_1
 62
7
100
AcDbLine
 10
-32.879560
 20
-5.288440
 30
0.0
 11
-32.892560
 21
-5.154970
 31
0.0
  0
LINE
  5
296
100
AcDbEntity
  8
Layer_1
 62
7
100
AcDbLine
 10
-32.892560
 20
-5.154970
 30
0.0
 11
-32.907260
 21
-5.028940
 31
0.0
  0
LINE
  5
297
100
AcDbEntity
  8
Layer_1
 62
7
100
AcDbLine
 10
-32.907260
 20
-5.028940
 30
0.0
 11
-32.923760
 21
-4.911730
 31
0.0
  0
LINE
  5
298
100
AcDbEntity
  8
Layer_1
 62
7
100
AcDbLine
 10
-32.923760
 20
-4.911730
 30
0.0
 11
-32.951760
 21
-4.743430
 31
0.0
  0
LINE
  5
299
100
AcDbEntity
  8
Layer_1
 62
7
100
AcDbLine
 10
-32.951760
 20
-4.743430
 30
0.0
 11
-32.982760
 21
-4.577670
 31
0.0
  0
LINE
  5
29a
100
AcDbEntity
  8
Layer_1
 62
7
100
AcDbLine
 10
-32.982760
 20
-4.577670
 30
0.0
 11
-33.016860
 21
-4.414440
 31
0.0
  0
LINE
  5
29b
100
AcDbEntity
  8
Layer_1
 62
7
100
AcDbLine
 10
-33.016860
 20
-4.414440
 30
0.0
 11
-33.053960
 21
-4.253710
 31
0.0
  0
LINE
  5
29c
100
AcDbEntity
  8
Layer_1
 62
7
100
AcDbLine
 10
-33.053960
 20
-4.253710
 30
0.0
 11
-33.094060
 21
-4.095460
 31
0.0
  0
LINE
  5
29d
100
AcDbEntity
  8
Layer_1
 62
7
100
AcDbLine
 10
-33.094060
 20
-4.095460
 30
0.0
 11
-33.137160
 21
-3.939660
 31
0.0
  0
LINE
  5
29e
100
AcDbEntity
  8
Layer_1
 62
7
100
AcDbLine
 10
-33.137160
 20
-3.939660
 30
0.0
 11
-33.183160
 21
-3.786290
 31
0.0
  0
LINE
  5
29f
100
AcDbEntity
  8
Layer_1
 62
7
100
AcDbLine
 10
-33.183160
 20
-3.786290
 30
0.0
 11
-33.232160
 21
-3.635330
 31
0.0
  0
LINE
  5
2a0
100
AcDbEntity
  8
Layer_1
 62
7
100
AcDbLine
 10
-33.232160
 20
-3.635330
 30
0.0
 11
-33.283960
 21
-3.486760
 31
0.0
  0
LINE
  5
2a1
100
AcDbEntity
  8
Layer_1
 62
7
100
AcDbLine
 10
-33.283960
 20
-3.486760
 30
0.0
 11
-33.338560
 21
-3.340580
 31
0.0
  0
LINE
  5
2a2
100
AcDbEntity
  8
Layer_1
 62
7
100
AcDbLine
 10
-33.338560
 20
-3.340580
 30
0.0
 11
-33.395960
 21
-3.196760
 31
0.0
  0
LINE
  5
2a3
100
AcDbEntity
  8
Layer_1
 62
7
100
AcDbLine
 10
-33.395960
 20
-3.196760
 30
0.0
 11
-33.456060
 21
-3.055280
 31
0.0
  0
LINE
  5
2a4
100
AcDbEntity
  8
Layer_1
 62
7
100
AcDbLine
 10
-33.456060
 20
-3.055280
 30
0.0
 11
-33.518860
 21
-2.916130
 31
0.0
  0
LINE
  5
2a5
100
AcDbEntity
  8
Layer_1
 62
7
100
AcDbLine
 10
-33.518860
 20
-2.916130
 30
0.0
 11
-33.584360
 21
-2.779280
 31
0.0
  0
LINE
  5
2a6
100
AcDbEntity
  8
Layer_1
 62
7
100
AcDbLine
 10
-33.584360
 20
-2.779280
 30
0.0
 11
-33.652460
 21
-2.644710
 31
0.0
  0
LINE
  5
2a7
100
AcDbEntity
  8
Layer_1
 62
7
100
AcDbLine
 10
-33.652460
 20
-2.644710
 30
0.0
 11
-33.723160
 21
-2.512400
 31
0.0
  0
LINE
  5
2a8
100
AcDbEntity
  8
Layer_1
 62
7
100
AcDbLine
 10
-33.723160
 20
-2.512400
 30
0.0
 11
-33.796360
 21
-2.382310
 31
0.0
  0
LINE
  5
2a9
100
AcDbEntity
  8
Layer_1
 62
7
100
AcDbLine
 10
-33.796360
 20
-2.382310
 30
0.0
 11
-33.872060
 21
-2.254410
 31
0.0
  0
LINE
  5
2aa
100
AcDbEntity
  8
Layer_1
 62
7
100
AcDbLine
 10
-33.872060
 20
-2.254410
 30
0.0
 11
-33.950260
 21
-2.128700
 31
0.0
  0
LINE
  5
2ab
100
AcDbEntity
  8
Layer_1
 62
7
100
AcDbLine
 10
-33.950260
 20
-2.128700
 30
0.0
 11
-34.030860
 21
-2.005170
 31
0.0
  0
LINE
  5
2ac
100
AcDbEntity
  8
Layer_1
 62
7
100
AcDbLine
 10
-34.030860
 20
-2.005170
 30
0.0
 11
-34.113860
 21
-1.883800
 31
0.0
  0
LINE
  5
2ad
100
AcDbEntity
  8
Layer_1
 62
7
100
AcDbLine
 10
-34.113860
 20
-1.883800
 30
0.0
 11
-34.199260
 21
-1.764590
 31
0.0
  0
LINE
  5
2ae
100
AcDbEntity
  8
Layer_1
 62
7
100
AcDbLine
 10
-34.199260
 20
-1.764590
 30
0.0
 11
-34.286960
 21
-1.647530
 31
0.0
  0
LINE
  5
2af
100
AcDbEntity
  8
Layer_1
 62
7
100
AcDbLine
 10
-34.286960
 20
-1.647530
 30
0.0
 11
-34.376860
 21
-1.532610
 31
0.0
  0
LINE
  5
2b0
100
AcDbEntity
  8
Layer_1
 62
7
100
AcDbLine
 10
-34.376860
 20
-1.532610
 30
0.0
 11
-34.469060
 21
-1.419810
 31
0.0
  0
LINE
  5
2b1
100
AcDbEntity
  8
Layer_1
 62
7
100
AcDbLine
 10
-34.469060
 20
-1.419810
 30
0.0
 11
-34.563460
 21
-1.309090
 31
0.0
  0
LINE
  5
2b2
100
AcDbEntity
  8
Layer_1
 62
7
100
AcDbLine
 10
-34.563460
 20
-1.309090
 30
0.0
 11
-34.659960
 21
-1.200430
 31
0.0
  0
LINE
  5
2b3
100
AcDbEntity
  8
Layer_1
 62
7
100
AcDbLine
 10
-34.659960
 20
-1.200430
 30
0.0
 11
-34.758660
 21
-1.093800
 31
0.0
  0
LINE
  5
2b4
100
AcDbEntity
  8
Layer_1
 62
7
100
AcDbLine
 10
-34.758660
 20
-1.093800
 30
0.0
 11
-34.859420
 21
-0.989190
 31
0.0
  0
LINE
  5
2b5
100
AcDbEntity
  8
Layer_1
 62
7
100
AcDbLine
 10
-34.859420
 20
-0.989190
 30
0.0
 11
-34.962220
 21
-0.886560
 31
0.0
  0
LINE
  5
2b6
100
AcDbEntity
  8
Layer_1
 62
7
100
AcDbLine
 10
-34.962220
 20
-0.886560
 30
0.0
 11
-35.067010
 21
-0.785900
 31
0.0
  0
LINE
  5
2b7
100
AcDbEntity
  8
Layer_1
 62
7
100
AcDbLine
 10
-35.067010
 20
-0.785900
 30
0.0
 11
-35.173750
 21
-0.687200
 31
0.0
  0
LINE
  5
2b8
100
AcDbEntity
  8
Layer_1
 62
7
100
AcDbLine
 10
-35.173750
 20
-0.687200
 30
0.0
 11
-35.282390
 21
-0.590400
 31
0.0
  0
LINE
  5
2b9
100
AcDbEntity
  8
Layer_1
 62
7
100
AcDbLine
 10
-35.282390
 20
-0.590400
 30
0.0
 11
-35.392910
 21
-0.495500
 31
0.0
  0
LINE
  5
2ba
100
AcDbEntity
  8
Layer_1
 62
7
100
AcDbLine
 10
-35.392910
 20
-0.495500
 30
0.0
 11
-35.505270
 21
-0.402500
 31
0.0
  0
LINE
  5
2bb
100
AcDbEntity
  8
Layer_1
 62
7
100
AcDbLine
 10
-35.505270
 20
-0.402500
 30
0.0
 11
-35.619450
 21
-0.311400
 31
0.0
  0
LINE
  5
2bc
100
AcDbEntity
  8
Layer_1
 62
7
100
AcDbLine
 10
-35.619450
 20
-0.311400
 30
0.0
 11
-35.735400
 21
-0.222100
 31
0.0
  0
LINE
  5
2bd
100
AcDbEntity
  8
Layer_1
 62
7
100
AcDbLine
 10
-35.735400
 20
-0.222100
 30
0.0
 11
-35.853090
 21
-0.134700
 31
0.0
  0
LINE
  5
2be
100
AcDbEntity
  8
Layer_1
 62
7
100
AcDbLine
 10
-35.853090
 20
-0.134700
 30
0.0
 11
-35.972500
 21
-0.049100
 31
0.0
  0
LINE
  5
2bf
100
AcDbEntity
  8
Layer_1
 62
7
100
AcDbLine
 10
-35.972500
 20
-0.049100
 30
0.0
 11
-36.093590
 21
0.034700
 31
0.0
  0
LINE
  5
2c0
100
AcDbEntity
  8
Layer_1
 62
7
100
AcDbLine
 10
-36.093590
 20
0.034700
 30
0.0
 11
-36.216320
 21
0.116700
 31
0.0
  0
LINE
  5
2c1
100
AcDbEntity
  8
Layer_1
 62
7
100
AcDbLine
 10
-36.216320
 20
0.116700
 30
0.0
 11
-36.340640
 21
0.196900
 31
0.0
  0
LINE
  5
2c2
100
AcDbEntity
  8
Layer_1
 62
7
100
AcDbLine
 10
-36.340640
 20
0.196900
 30
0.0
 11
-36.466520
 21
0.275400
 31
0.0
  0
LINE
  5
2c3
100
AcDbEntity
  8
Layer_1
 62
7
100
AcDbLine
 10
-36.466520
 20
0.275400
 30
0.0
 11
-36.593920
 21
0.352200
 31
0.0
  0
LINE
  5
2c4
100
AcDbEntity
  8
Layer_1
 62
7
100
AcDbLine
 10
-36.593920
 20
0.352200
 30
0.0
 11
-36.722790
 21
0.427300
 31
0.0
  0
LINE
  5
2c5
100
AcDbEntity
  8
Layer_1
 62
7
100
AcDbLine
 10
-36.722790
 20
0.427300
 30
0.0
 11
-36.853090
 21
0.500700
 31
0.0
  0
LINE
  5
2c6
100
AcDbEntity
  8
Layer_1
 62
7
100
AcDbLine
 10
-36.853090
 20
0.500700
 30
0.0
 11
-36.984770
 21
0.572400
 31
0.0
  0
LINE
  5
2c7
100
AcDbEntity
  8
Layer_1
 62
7
100
AcDbLine
 10
-36.984770
 20
0.572400
 30
0.0
 11
-37.117810
 21
0.642500
 31
0.0
  0
LINE
  5
2c8
100
AcDbEntity
  8
Layer_1
 62
7
100
AcDbLine
 10
-37.117810
 20
0.642500
 30
0.0
 11
-37.252160
 21
0.711000
 31
0.0
  0
LINE
  5
2c9
100
AcDbEntity
  8
Layer_1
 62
7
100
AcDbLine
 10
-37.252160
 20
0.711000
 30
0.0
 11
-37.387780
 21
0.777900
 31
0.0
  0
LINE
  5
2ca
100
AcDbEntity
  8
Layer_1
 62
7
100
AcDbLine
 10
-37.387780
 20
0.777900
 30
0.0
 11
-37.524640
 21
0.843200
 31
0.0
  0
LINE
  5
2cb
100
AcDbEntity
  8
Layer_1
 62
7
100
AcDbLine
 10
-37.524640
 20
0.843200
 30
0.0
 11
-37.662700
 21
0.906900
 31
0.0
  0
LINE
  5
2cc
100
AcDbEntity
  8
Layer_1
 62
7
100
AcDbLine
 10
-37.662700
 20
0.906900
 30
0.0
 11
-37.801930
 21
0.969100
 31
0.0
  0
LINE
  5
2cd
100
AcDbEntity
  8
Layer_1
 62
7
100
AcDbLine
 10
-37.801930
 20
0.969100
 30
0.0
 11
-37.942290
 21
1.029700
 31
0.0
  0
LINE
  5
2ce
100
AcDbEntity
  8
Layer_1
 62
7
100
AcDbLine
 10
-37.942290
 20
1.029700
 30
0.0
 11
-38.083750
 21
1.088800
 31
0.0
  0
LINE
  5
2cf
100
AcDbEntity
  8
Layer_1
 62
7
100
AcDbLine
 10
-38.083750
 20
1.088800
 30
0.0
 11
-38.226270
 21
1.146400
 31
0.0
  0
LINE
  5
2d0
100
AcDbEntity
  8
Layer_1
 62
7
100
AcDbLine
 10
-38.226270
 20
1.146400
 30
0.0
 11
-38.066530
 21
1.190100
 31
0.0
  0
LINE
  5
2d1
100
AcDbEntity
  8
Layer_1
 62
7
100
AcDbLine
 10
-38.066530
 20
1.190100
 30
0.0
 11
-37.909010
 21
1.235400
 31
0.0
  0
LINE
  5
2d2
100
AcDbEntity
  8
Layer_1
 62
7
100
AcDbLine
 10
-37.909010
 20
1.235400
 30
0.0
 11
-37.753710
 21
1.282300
 31
0.0
  0
LINE
  5
2d3
100
AcDbEntity
  8
Layer_1
 62
7
100
AcDbLine
 10
-37.753710
 20
1.282300
 30
0.0
 11
-37.600670
 21
1.330900
 31
0.0
  0
LINE
  5
2d4
100
AcDbEntity
  8
Layer_1
 62
7
100
AcDbLine
 10
-37.600670
 20
1.330900
 30
0.0
 11
-37.449890
 21
1.381100
 31
0.0
  0
LINE
  5
2d5
100
AcDbEntity
  8
Layer_1
 62
7
100
AcDbLine
 10
-37.449890
 20
1.381100
 30
0.0
 11
-37.301410
 21
1.433000
 31
0.0
  0
LINE
  5
2d6
100
AcDbEntity
  8
Layer_1
 62
7
100
AcDbLine
 10
-37.301410
 20
1.433000
 30
0.0
 11
-37.155220
 21
1.486700
 31
0.0
  0
LINE
  5
2d7
100
AcDbEntity
  8
Layer_1
 62
7
100
AcDbLine
 10
-37.155220
 20
1.486700
 30
0.0
 11
-37.011360
 21
1.542100
 31
0.0
  0
LINE
  5
2d8
100
AcDbEntity
  8
Layer_1
 62
7
100
AcDbLine
 10
-37.011360
 20
1.542100
 30
0.0
 11
-36.869840
 21
1.599300
 31
0.0
  0
LINE
  5
2d9
100
AcDbEntity
  8
Layer_1
 62
7
100
AcDbLine
 10
-36.869840
 20
1.599300
 30
0.0
 11
-36.730660
 21
1.658300
 31
0.0
  0
LINE
  5
2da
100
AcDbEntity
  8
Layer_1
 62
7
100
AcDbLine
 10
-36.730660
 20
1.658300
 30
0.0
 11
-36.593850
 21
1.719200
 31
0.0
  0
LINE
  5
2db
100
AcDbEntity
  8
Layer_1
 62
7
100
AcDbLine
 10
-36.593850
 20
1.719200
 30
0.0
 11
-36.459390
 21
1.781900
 31
0.0
  0
LINE
  5
2dc
100
AcDbEntity
  8
Layer_1
 62
7
100
AcDbLine
 10
-36.459390
 20
1.781900
 30
0.0
 11
-36.327300
 21
1.846500
 31
0.0
  0
LINE
  5
2dd
100
AcDbEntity
  8
Layer_1
 62
7
100
AcDbLine
 10
-36.327300
 20
1.846500
 30
0.0
 11
-36.197580
 21
1.913100
 31
0.0
  0
LINE
  5
2de
100
AcDbEntity
  8
Layer_1
 62
7
100
AcDbLine
 10
-36.197580
 20
1.913100
 30
0.0
 11
-36.070230
 21
1.981600
 31
0.0
  0
LINE
  5
2df
100
AcDbEntity
  8
Layer_1
 62
7
100
AcDbLine
 10
-36.070230
 20
1.981600
 30
0.0
 11
-35.945270
 21
2.052100
 31
0.0
  0
LINE
  5
2e0
100
AcDbEntity
  8
Layer_1
 62
7
100
AcDbLine
 10
-35.945270
 20
2.052100
 30
0.0
 11
-35.822730
 21
2.124600
 31
0.0
  0
LINE
  5
2e1
100
AcDbEntity
  8
Layer_1
 62
7
100
AcDbLine
 10
-35.822730
 20
2.124600
 30
0.0
 11
-35.702630
 21
2.199200
 31
0.0
  0
LINE
  5
2e2
100
AcDbEntity
  8
Layer_1
 62
7
100
AcDbLine
 10
-35.702630
 20
2.199200
 30
0.0
 11
-35.584970
 21
2.275800
 31
0.0
  0
LINE
  5
2e3
100
AcDbEntity
  8
Layer_1
 62
7
100
AcDbLine
 10
-35.584970
 20
2.275800
 30
0.0
 11
-35.469780
 21
2.354500
 31
0.0
  0
LINE
  5
2e4
100
AcDbEntity
  8
Layer_1
 62
7
100
AcDbLine
 10
-35.469780
 20
2.354500
 30
0.0
 11
-35.357040
 21
2.435300
 31
0.0
  0
LINE
  5
2e5
100
AcDbEntity
  8
Layer_1
 62
7
100
AcDbLine
 10
-35.357040
 20
2.435300
 30
0.0
 11
-35.246780
 21
2.518300
 31
0.0
  0
LINE
  5
2e6
100
AcDbEntity
  8
Layer_1
 62
7
100
AcDbLine
 10
-35.246780
 20
2.518300
 30
0.0
 11
-35.139000
 21
2.603400
 31
0.0
  0
LINE
  5
2e7
100
AcDbEntity
  8
Layer_1
 62
7
100
AcDbLine
 10
-35.139000
 20
2.603400
 30
0.0
 11
-35.033700
 21
2.690700
 31
0.0
  0
LINE
  5
2e8
100
AcDbEntity
  8
Layer_1
 62
7
100
AcDbLine
 10
-35.033700
 20
2.690700
 30
0.0
 11
-34.930890
 21
2.780200
 31
0.0
  0
LINE
  5
2e9
100
AcDbEntity
  8
Layer_1
 62
7
100
AcDbLine
 10
-34.930890
 20
2.780200
 30
0.0
 11
-34.830580
 21
2.872000
 31
0.0
  0
LINE
  5
2ea
100
AcDbEntity
  8
Layer_1
 62
7
100
AcDbLine
 10
-34.830580
 20
2.872000
 30
0.0
 11
-34.732780
 21
2.966000
 31
0.0
  0
LINE
  5
2eb
100
AcDbEntity
  8
Layer_1
 62
7
100
AcDbLine
 10
-34.732780
 20
2.966000
 30
0.0
 11
-34.637480
 21
3.062300
 31
0.0
  0
LINE
  5
2ec
100
AcDbEntity
  8
Layer_1
 62
7
100
AcDbLine
 10
-34.637480
 20
3.062300
 30
0.0
 11
-34.544780
 21
3.161000
 31
0.0
  0
LINE
  5
2ed
100
AcDbEntity
  8
Layer_1
 62
7
100
AcDbLine
 10
-34.544780
 20
3.161000
 30
0.0
 11
-34.454680
 21
3.262060
 31
0.0
  0
LINE
  5
2ee
100
AcDbEntity
  8
Layer_1
 62
7
100
AcDbLine
 10
-34.454680
 20
3.262060
 30
0.0
 11
-34.367180
 21
3.365540
 31
0.0
  0
LINE
  5
2ef
100
AcDbEntity
  8
Layer_1
 62
7
100
AcDbLine
 10
-34.367180
 20
3.365540
 30
0.0
 11
-34.282280
 21
3.471460
 31
0.0
  0
LINE
  5
2f0
100
AcDbEntity
  8
Layer_1
 62
7
100
AcDbLine
 10
-34.282280
 20
3.471460
 30
0.0
 11
-34.200080
 21
3.579860
 31
0.0
  0
LINE
  5
2f1
100
AcDbEntity
  8
Layer_1
 62
7
100
AcDbLine
 10
-34.200080
 20
3.579860
 30
0.0
 11
-34.120480
 21
3.690770
 31
0.0
  0
LINE
  5
2f2
100
AcDbEntity
  8
Layer_1
 62
7
100
AcDbLine
 10
-34.120480
 20
3.690770
 30
0.0
 11
-34.043580
 21
3.804200
 31
0.0
  0
LINE
  5
2f3
100
AcDbEntity
  8
Layer_1
 62
7
100
AcDbLine
 10
-34.043580
 20
3.804200
 30
0.0
 11
-33.969280
 21
3.920170
 31
0.0
  0
LINE
  5
2f4
100
AcDbEntity
  8
Layer_1
 62
7
100
AcDbLine
 10
-33.969280
 20
3.920170
 30
0.0
 11
-33.897680
 21
4.038710
 31
0.0
  0
LINE
  5
2f5
100
AcDbEntity
  8
Layer_1
 62
7
100
AcDbLine
 10
-33.897680
 20
4.038710
 30
0.0
 11
-33.828780
 21
4.159830
 31
0.0
  0
LINE
  5
2f6
100
AcDbEntity
  8
Layer_1
 62
7
100
AcDbLine
 10
-33.828780
 20
4.159830
 30
0.0
 11
-33.762480
 21
4.283550
 31
0.0
  0
LINE
  5
2f7
100
AcDbEntity
  8
Layer_1
 62
7
100
AcDbLine
 10
-33.762480
 20
4.283550
 30
0.0
 11
-33.698880
 21
4.409910
 31
0.0
  0
LINE
  5
2f8
100
AcDbEntity
  8
Layer_1
 62
7
100
AcDbLine
 10
-33.698880
 20
4.409910
 30
0.0
 11
-33.637980
 21
4.538920
 31
0.0
  0
LINE
  5
2f9
100
AcDbEntity
  8
Layer_1
 62
7
100
AcDbLine
 10
-33.637980
 20
4.538920
 30
0.0
 11
-33.579780
 21
4.670660
 31
0.0
  0
LINE
  5
2fa
100
AcDbEntity
  8
Layer_1
 62
7
100
AcDbLine
 10
-33.579780
 20
4.670660
 30
0.0
 11
-33.524280
 21
4.805120
 31
0.0
  0
LINE
  5
2fb
100
AcDbEntity
  8
Layer_1
 62
7
100
AcDbLine
 10
-33.524280
 20
4.805120
 30
0.0
 11
-33.471480
 21
4.942350
 31
0.0
  0
LINE
  5
2fc
100
AcDbEntity
  8
Layer_1
 62
7
100
AcDbLine
 10
-33.471480
 20
4.942350
 30
0.0
 11
-33.421480
 21
5.082370
 31
0.0
  0
LINE
  5
2fd
100
AcDbEntity
  8
Layer_1
 62
7
100
AcDbLine
 10
-33.421480
 20
5.082370
 30
0.0
 11
-33.374280
 21
5.225200
 31
0.0
  0
LINE
  5
2fe
100
AcDbEntity
  8
Layer_1
 62
7
100
AcDbLine
 10
-33.374280
 20
5.225200
 30
0.0
 11
-33.329880
 21
5.370870
 31
0.0
  0
LINE
  5
2ff
100
AcDbEntity
  8
Layer_1
 62
7
100
AcDbLine
 10
-33.329880
 20
5.370870
 30
0.0
 11
-33.288280
 21
5.519400
 31
0.0
  0
LINE
  5
300
100
AcDbEntity
  8
Layer_1
 62
7
100
AcDbLine
 10
-33.288280
 20
5.519400
 30
0.0
 11
-33.249480
 21
5.670810
 31
0.0
  0
LINE
  5
301
100
AcDbEntity
  8
Layer_1
 62
7
100
AcDbLine
 10
-33.249480
 20
5.670810
 30
0.0
 11
-33.213480
 21
5.825110
 31
0.0
  0
LINE
  5
302
100
AcDbEntity
  8
Layer_1
 62
7
100
AcDbLine
 10
-33.213480
 20
5.825110
 30
0.0
 11
-33.180280
 21
5.982350
 31
0.0
  0
LINE
  5
303
100
AcDbEntity
  8
Layer_1
 62
7
100
AcDbLine
 10
-33.180280
 20
5.982350
 30
0.0
 11
-33.149980
 21
6.142560
 31
0.0
  0
LINE
  5
304
100
AcDbEntity
  8
Layer_1
 62
7
100
AcDbLine
 10
-33.149980
 20
6.142560
 30
0.0
 11
-33.122480
 21
6.305780
 31
0.0
  0
LINE
  5
305
100
AcDbEntity
  8
Layer_1
 62
7
100
AcDbLine
 10
-33.122480
 20
6.305780
 30
0.0
 11
-33.097880
 21
6.472050
 31
0.0
  0
LINE
  5
306
100
AcDbEntity
  8
Layer_1
 62
7
100
AcDbLine
 10
-33.097880
 20
6.472050
 30
0.0
 11
-33.076180
 21
6.641410
 31
0.0
  0
LINE
  5
307
100
AcDbEntity
  8
Layer_1
 62
7
100
AcDbLine
 10
-33.076180
 20
6.641410
 30
0.0
 11
-33.057380
 21
6.813890
 31
0.0
  0
LINE
  5
308
100
AcDbEntity
  8
Layer_1
 62
7
100
AcDbLine
 10
-33.057380
 20
6.813890
 30
0.0
 11
-33.041480
 21
6.994300
 31
0.0
  0
LINE
  5
309
100
AcDbEntity
  8
Layer_1
 62
7
100
AcDbLine
 10
-33.041480
 20
6.994300
 30
0.0
 11
-33.028480
 21
7.185690
 31
0.0
  0
LINE
  5
30a
100
AcDbEntity
  8
Layer_1
 62
7
100
AcDbLine
 10
-33.028480
 20
7.185690
 30
0.0
 11
-33.018380
 21
7.385470
 31
0.0
  0
LINE
  5
30b
100
AcDbEntity
  8
Layer_1
 62
7
100
AcDbLine
 10
-33.018380
 20
7.385470
 30
0.0
 11
-33.011380
 21
7.591070
 31
0.0
  0
LINE
  5
30c
100
AcDbEntity
  8
Layer_1
 62
7
100
AcDbLine
 10
-33.011380
 20
7.591070
 30
0.0
 11
-33.007380
 21
7.799910
 31
0.0
  0
LINE
  5
30d
100
AcDbEntity
  8
Layer_1
 62
7
100
AcDbLine
 10
-33.007380
 20
7.799910
 30
0.0
 11
-33.006380
 21
8.009400
 31
0.0
  0
LINE
  5
30e
100
AcDbEntity
  8
Layer_1
 62
7
100
AcDbLine
 10
-33.006380
 20
8.009400
 30
0.0
 11
-33.008380
 21
8.216950
 31
0.0
  0
LINE
  5
30f
100
AcDbEntity
  8
Layer_1
 62
7
100
AcDbLine
 10
-33.008380
 20
8.216950
 30
0.0
 11
-33.013380
 21
8.420000
 31
0.0
  0
LINE
  5
310
100
AcDbEntity
  8
Layer_1
 62
7
100
AcDbLine
 10
-33.013380
 20
8.420000
 30
0.0
 11
-33.020380
 21
8.612870
 31
0.0
  0
LINE
  5
311
100
AcDbEntity
  8
Layer_1
 62
7
100
AcDbLine
 10
-33.020380
 20
8.612870
 30
0.0
 11
-33.030380
 21
8.802540
 31
0.0
  0
LINE
  5
312
100
AcDbEntity
  8
Layer_1
 62
7
100
AcDbLine
 10
-33.030380
 20
8.802540
 30
0.0
 11
-33.042980
 21
8.989050
 31
0.0
  0
LINE
  5
313
100
AcDbEntity
  8
Layer_1
 62
7
100
AcDbLine
 10
-33.042980
 20
8.989050
 30
0.0
 11
-33.058080
 21
9.172430
 31
0.0
  0
LINE
  5
314
100
AcDbEntity
  8
Layer_1
 62
7
100
AcDbLine
 10
-33.058080
 20
9.172430
 30
0.0
 11
-33.075780
 21
9.352710
 31
0.0
  0
LINE
  5
315
100
AcDbEntity
  8
Layer_1
 62
7
100
AcDbLine
 10
-33.075780
 20
9.352710
 30
0.0
 11
-33.095980
 21
9.529910
 31
0.0
  0
LINE
  5
316
100
AcDbEntity
  8
Layer_1
 62
7
100
AcDbLine
 10
-33.095980
 20
9.529910
 30
0.0
 11
-33.118680
 21
9.704070
 31
0.0
  0
LINE
  5
317
100
AcDbEntity
  8
Layer_1
 62
7
100
AcDbLine
 10
-33.118680
 20
9.704070
 30
0.0
 11
-33.143780
 21
9.875210
 31
0.0
  0
LINE
  5
318
100
AcDbEntity
  8
Layer_1
 62
7
100
AcDbLine
 10
-33.143780
 20
9.875210
 30
0.0
 11
-33.171380
 21
10.043350
 31
0.0
  0
LINE
  5
319
100
AcDbEntity
  8
Layer_1
 62
7
100
AcDbLine
 10
-33.171380
 20
10.043350
 30
0.0
 11
-33.201380
 21
10.208530
 31
0.0
  0
LINE
  5
31a
100
AcDbEntity
  8
Layer_1
 62
7
100
AcDbLine
 10
-33.201380
 20
10.208530
 30
0.0
 11
-33.233780
 21
10.370760
 31
0.0
  0
LINE
  5
31b
100
AcDbEntity
  8
Layer_1
 62
7
100
AcDbLine
 10
-33.233780
 20
10.370760
 30
0.0
 11
-33.268680
 21
10.530070
 31
0.0
  0
LINE
  5
31c
100
AcDbEntity
  8
Layer_1
 62
7
100
AcDbLine
 10
-33.268680
 20
10.530070
 30
0.0
 11
-33.305880
 21
10.686490
 31
0.0
  0
LINE
  5
31d
100
AcDbEntity
  8
Layer_1
 62
7
100
AcDbLine
 10
-33.305880
 20
10.686490
 30
0.0
 11
-33.345480
 21
10.840050
 31
0.0
  0
LINE
  5
31e
100
AcDbEntity
  8
Layer_1
 62
7
100
AcDbLine
 10
-33.345480
 20
10.840050
 30
0.0
 11
-33.387380
 21
10.990780
 31
0.0
  0
LINE
  5
31f
100
AcDbEntity
  8
Layer_1
 62
7
100
AcDbLine
 10
-33.387380
 20
10.990780
 30
0.0
 11
-33.431580
 21
11.138690
 31
0.0
  0
LINE
  5
320
100
AcDbEntity
  8
Layer_1
 62
7
100
AcDbLine
 10
-33.431580
 20
11.138690
 30
0.0
 11
-33.478080
 21
11.283840
 31
0.0
  0
LINE
  5
321
100
AcDbEntity
  8
Layer_1
 62
7
100
AcDbLine
 10
-33.478080
 20
11.283840
 30
0.0
 11
-33.526880
 21
11.426260
 31
0.0
  0
LINE
  5
322
100
AcDbEntity
  8
Layer_1
 62
7
100
AcDbLine
 10
-33.526880
 20
11.426260
 30
0.0
 11
-33.577880
 21
11.565960
 31
0.0
  0
LINE
  5
323
100
AcDbEntity
  8
Layer_1
 62
7
100
AcDbLine
 10
-33.577880
 20
11.565960
 30
0.0
 11
-33.631180
 21
11.702970
 31
0.0
  0
LINE
  5
324
100
AcDbEntity
  8
Layer_1
 62
7
100
AcDbLine
 10
-33.631180
 20
11.702970
 30
0.0
 11
-33.686680
 21
11.837290
 31
0.0
  0
LINE
  5
325
100
AcDbEntity
  8
Layer_1
 62
7
100
AcDbLine
 10
-33.686680
 20
11.837290
 30
0.0
 11
-33.744380
 21
11.968970
 31
0.0
  0
LINE
  5
326
100
AcDbEntity
  8
Layer_1
 62
7
100
AcDbLine
 10
-33.744380
 20
11.968970
 30
0.0
 11
-33.804280
 21
12.098000
 31
0.0
  0
LINE
  5
327
100
AcDbEntity
  8
Layer_1
 62
7
100
AcDbLine
 10
-33.804280
 20
12.098000
 30
0.0
 11
-33.866280
 21
12.224410
 31
0.0
  0
LINE
  5
328
100
AcDbEntity
  8
Layer_1
 62
7
100
AcDbLine
 10
-33.866280
 20
12.224410
 30
0.0
 11
-33.930380
 21
12.348240
 31
0.0
  0
LINE
  5
329
100
AcDbEntity
  8
Layer_1
 62
7
100
AcDbLine
 10
-33.930380
 20
12.348240
 30
0.0
 11
-33.996580
 21
12.469520
 31
0.0
  0
LINE
  5
32a
100
AcDbEntity
  8
Layer_1
 62
7
100
AcDbLine
 10
-33.996580
 20
12.469520
 30
0.0
 11
-34.064880
 21
12.588280
 31
0.0
  0
LINE
  5
32b
100
AcDbEntity
  8
Layer_1
 62
7
100
AcDbLine
 10
-34.064880
 20
12.588280
 30
0.0
 11
-34.135280
 21
12.704550
 31
0.0
  0
LINE
  5
32c
100
AcDbEntity
  8
Layer_1
 62
7
100
AcDbLine
 10
-34.135280
 20
12.704550
 30
0.0
 11
-34.207680
 21
12.818350
 31
0.0
  0
LINE
  5
32d
100
AcDbEntity
  8
Layer_1
 62
7
100
AcDbLine
 10
-34.207680
 20
12.818350
 30
0.0
 11
-34.282180
 21
12.929720
 31
0.0
  0
LINE
  5
32e
100
AcDbEntity
  8
Layer_1
 62
7
100
AcDbLine
 10
-34.282180
 20
12.929720
 30
0.0
 11
-34.358680
 21
13.038690
 31
0.0
  0
LINE
  5
32f
100
AcDbEntity
  8
Layer_1
 62
7
100
AcDbLine
 10
-34.358680
 20
13.038690
 30
0.0
 11
-34.437180
 21
13.145290
 31
0.0
  0
LINE
  5
330
100
AcDbEntity
  8
Layer_1
 62
7
100
AcDbLine
 10
-34.437180
 20
13.145290
 30
0.0
 11
-34.517680
 21
13.249550
 31
0.0
  0
LINE
  5
331
100
AcDbEntity
  8
Layer_1
 62
7
100
AcDbLine
 10
-34.517680
 20
13.249550
 30
0.0
 11
-34.600080
 21
13.351490
 31
0.0
  0
LINE
  5
332
100
AcDbEntity
  8
Layer_1
 62
7
100
AcDbLine
 10
-34.600080
 20
13.351490
 30
0.0
 11
-34.684380
 21
13.451090
 31
0.0
  0
LINE
  5
333
100
AcDbEntity
  8
Layer_1
 62
7
100
AcDbLine
 10
-34.684380
 20
13.451090
 30
0.0
 11
-34.770580
 21
13.548490
 31
0.0
  0
LINE
  5
334
100
AcDbEntity
  8
Layer_1
 62
7
100
AcDbLine
 10
-34.770580
 20
13.548490
 30
0.0
 11
-34.858680
 21
13.643590
 31
0.0
  0
LINE
  5
335
100
AcDbEntity
  8
Layer_1
 62
7
100
AcDbLine
 10
-34.858680
 20
13.643590
 30
0.0
 11
-34.948680
 21
13.736490
 31
0.0
  0
LINE
  5
336
100
AcDbEntity
  8
Layer_1
 62
7
100
AcDbLine
 10
-34.948680
 20
13.736490
 30
0.0
 11
-35.040580
 21
13.827190
 31
0.0
  0
LINE
  5
337
100
AcDbEntity
  8
Layer_1
 62
7
100
AcDbLine
 10
-35.040580
 20
13.827190
 30
0.0
 11
-35.134280
 21
13.915690
 31
0.0
  0
LINE
  5
338
100
AcDbEntity
  8
Layer_1
 62
7
100
AcDbLine
 10
-35.134280
 20
13.915690
 30
0.0
 11
-35.229780
 21
14.002090
 31
0.0
  0
LINE
  5
339
100
AcDbEntity
  8
Layer_1
 62
7
100
AcDbLine
 10
-35.229780
 20
14.002090
 30
0.0
 11
-35.327080
 21
14.086290
 31
0.0
  0
LINE
  5
33a
100
AcDbEntity
  8
Layer_1
 62
7
100
AcDbLine
 10
-35.327080
 20
14.086290
 30
0.0
 11
-35.426180
 21
14.168390
 31
0.0
  0
LINE
  5
33b
100
AcDbEntity
  8
Layer_1
 62
7
100
AcDbLine
 10
-35.426180
 20
14.168390
 30
0.0
 11
-35.527050
 21
14.248490
 31
0.0
  0
LINE
  5
33c
100
AcDbEntity
  8
Layer_1
 62
7
100
AcDbLine
 10
-35.527050
 20
14.248490
 30
0.0
 11
-35.629640
 21
14.326490
 31
0.0
  0
LINE
  5
33d
100
AcDbEntity
  8
Layer_1
 62
7
100
AcDbLine
 10
-35.629640
 20
14.326490
 30
0.0
 11
-35.733950
 21
14.402490
 31
0.0
  0
LINE
  5
33e
100
AcDbEntity
  8
Layer_1
 62
7
100
AcDbLine
 10
-35.733950
 20
14.402490
 30
0.0
 11
-35.839940
 21
14.476590
 31
0.0
  0
LINE
  5
33f
100
AcDbEntity
  8
Layer_1
 62
7
100
AcDbLine
 10
-35.839940
 20
14.476590
 30
0.0
 11
-35.947580
 21
14.548690
 31
0.0
  0
LINE
  5
340
100
AcDbEntity
  8
Layer_1
 62
7
100
AcDbLine
 10
-35.947580
 20
14.548690
 30
0.0
 11
-36.056870
 21
14.618890
 31
0.0
  0
LINE
  5
341
100
AcDbEntity
  8
Layer_1
 62
7
100
AcDbLine
 10
-36.056870
 20
14.618890
 30
0.0
 11
-36.167790
 21
14.687190
 31
0.0
  0
LINE
  5
342
100
AcDbEntity
  8
Layer_1
 62
7
100
AcDbLine
 10
-36.167790
 20
14.687190
 30
0.0
 11
-36.280320
 21
14.753590
 31
0.0
  0
LINE
  5
343
100
AcDbEntity
  8
Layer_1
 62
7
100
AcDbLine
 10
-36.280320
 20
14.753590
 30
0.0
 11
-36.394440
 21
14.818190
 31
0.0
  0
LINE
  5
344
100
AcDbEntity
  8
Layer_1
 62
7
100
AcDbLine
 10
-36.394440
 20
14.818190
 30
0.0
 11
-36.510120
 21
14.880990
 31
0.0
  0
LINE
  5
345
100
AcDbEntity
  8
Layer_1
 62
7
100
AcDbLine
 10
-36.510120
 20
14.880990
 30
0.0
 11
-36.627360
 21
14.941990
 31
0.0
  0
LINE
  5
346
100
AcDbEntity
  8
Layer_1
 62
7
100
AcDbLine
 10
-36.627360
 20
14.941990
 30
0.0
 11
-36.746120
 21
15.001190
 31
0.0
  0
LINE
  5
347
100
AcDbEntity
  8
Layer_1
 62
7
100
AcDbLine
 10
-36.746120
 20
15.001190
 30
0.0
 11
-36.866390
 21
15.058690
 31
0.0
  0
LINE
  5
348
100
AcDbEntity
  8
Layer_1
 62
7
100
AcDbLine
 10
-36.866390
 20
15.058690
 30
0.0
 11
-36.988140
 21
15.114490
 31
0.0
  0
LINE
  5
349
100
AcDbEntity
  8
Layer_1
 62
7
100
AcDbLine
 10
-36.988140
 20
15.114490
 30
0.0
 11
-37.111350
 21
15.168590
 31
0.0
  0
LINE
  5
34a
100
AcDbEntity
  8
Layer_1
 62
7
100
AcDbLine
 10
-37.111350
 20
15.168590
 30
0.0
 11
-37.236000
 21
15.220990
 31
0.0
  0
LINE
  5
34b
100
AcDbEntity
  8
Layer_1
 62
7
100
AcDbLine
 10
-37.236000
 20
15.220990
 30
0.0
 11
-37.362070
 21
15.271790
 31
0.0
  0
LINE
  5
34c
100
AcDbEntity
  8
Layer_1
 62
7
100
AcDbLine
 10
-37.362070
 20
15.271790
 30
0.0
 11
-37.489550
 21
15.320990
 31
0.0
  0
LINE
  5
34d
100
AcDbEntity
  8
Layer_1
 62
7
100
AcDbLine
 10
-37.489550
 20
15.320990
 30
0.0
 11
-37.618430
 21
15.368590
 31
0.0
  0
LINE
  5
34e
100
AcDbEntity
  8
Layer_1
 62
7
100
AcDbLine
 10
-37.618430
 20
15.368590
 30
0.0
 11
-37.748670
 21
15.414690
 31
0.0
  0
LINE
  5
34f
100
AcDbEntity
  8
Layer_1
 62
7
100
AcDbLine
 10
-37.748670
 20
15.414690
 30
0.0
 11
-37.880280
 21
15.459190
 31
0.0
  0
LINE
  5
350
100
AcDbEntity
  8
Layer_1
 62
7
100
AcDbLine
 10
-37.880280
 20
15.459190
 30
0.0
 11
-38.147470
 21
15.543690
 31
0.0
  0
LINE
  5
351
100
AcDbEntity
  8
Layer_1
 62
7
100
AcDbLine
 10
-38.147470
 20
15.543690
 30
0.0
 11
-38.419820
 21
15.622390
 31
0.0
  0
LINE
  5
352
100
AcDbEntity
  8
Layer_1
 62
7
100
AcDbLine
 10
-38.419820
 20
15.622390
 30
0.0
 11
-38.697170
 21
15.695490
 31
0.0
  0
LINE
  5
353
100
AcDbEntity
  8
Layer_1
 62
7
100
AcDbLine
 10
-38.697170
 20
15.695490
 30
0.0
 11
-38.979340
 21
15.763290
 31
0.0
  0
LINE
  5
354
100
AcDbEntity
  8
Layer_1
 62
7
100
AcDbLine
 10
-38.979340
 20
15.763290
 30
0.0
 11
-39.266170
 21
15.825890
 31
0.0
  0
LINE
  5
355
100
AcDbEntity
  8
Layer_1
 62
7
100
AcDbLine
 10
-39.266170
 20
15.825890
 30
0.0
 11
-39.557510
 21
15.883590
 31
0.0
  0
LINE
  5
356
100
AcDbEntity
  8
Layer_1
 62
7
100
AcDbLine
 10
-39.557510
 20
15.883590
 30
0.0
 11
-39.853180
 21
15.936590
 31
0.0
  0
LINE
  5
357
100
AcDbEntity
  8
Layer_1
 62
7
100
AcDbLine
 10
-39.853180
 20
15.936590
 30
0.0
 11
-40.153010
 21
15.985190
 31
0.0
  0
LINE
  5
358
100
AcDbEntity
  8
Layer_1
 62
7
100
AcDbLine
 10
-40.153010
 20
15.985190
 30
0.0
 11
-40.456850
 21
16.029490
 31
0.0
  0
LINE
  5
359
100
AcDbEntity
  8
Layer_1
 62
7
100
AcDbLine
 10
-40.456850
 20
16.029490
 30
0.0
 11
-40.764530
 21
16.069790
 31
0.0
  0
LINE
  5
35a
100
AcDbEntity
  8
Layer_1
 62
7
100
AcDbLine
 10
-40.764530
 20
16.069790
 30
0.0
 11
-41.075900
 21
16.106190
 31
0.0
  0
LINE
  5
35b
100
AcDbEntity
  8
Layer_1
 62
7
100
AcDbLine
 10
-41.075900
 20
16.106190
 30
0.0
 11
-41.390800
 21
16.138990
 31
0.0
  0
LINE
  5
35c
100
AcDbEntity
  8
Layer_1
 62
7
100
AcDbLine
 10
-41.390800
 20
16.138990
 30
0.0
 11
-41.709080
 21
16.168390
 31
0.0
  0
LINE
  5
35d
100
AcDbEntity
  8
Layer_1
 62
7
100
AcDbLine
 10
-41.709080
 20
16.168390
 30
0.0
 11
-42.030570
 21
16.194490
 31
0.0
  0
LINE
  5
35e
100
AcDbEntity
  8
Layer_1
 62
7
100
AcDbLine
 10
-42.030570
 20
16.194490
 30
0.0
 11
-42.355120
 21
16.217590
 31
0.0
  0
LINE
  5
35f
100
AcDbEntity
  8
Layer_1
 62
7
100
AcDbLine
 10
-42.355120
 20
16.217590
 30
0.0
 11
-42.682570
 21
16.237890
 31
0.0
  0
LINE
  5
360
100
AcDbEntity
  8
Layer_1
 62
7
100
AcDbLine
 10
-42.682570
 20
16.237890
 30
0.0
 11
-43.036030
 21
16.255490
 31
0.0
  0
LINE
  5
361
100
AcDbEntity
  8
Layer_1
 62
7
100
AcDbLine
 10
-43.036030
 20
16.255490
 30
0.0
 11
-43.395550
 21
16.268690
 31
0.0
  0
LINE
  5
362
100
AcDbEntity
  8
Layer_1
 62
7
100
AcDbLine
 10
-43.395550
 20
16.268690
 30
0.0
 11
-43.759890
 21
16.278690
 31
0.0
  0
LINE
  5
363
100
AcDbEntity
  8
Layer_1
 62
7
100
AcDbLine
 10
-43.759890
 20
16.278690
 30
0.0
 11
-44.127780
 21
16.285690
 31
0.0
  0
LINE
  5
364
100
AcDbEntity
  8
Layer_1
 62
7
100
AcDbLine
 10
-44.127780
 20
16.285690
 30
0.0
 11
-44.498000
 21
16.290690
 31
0.0
  0
LINE
  5
365
100
AcDbEntity
  8
Layer_1
 62
7
100
AcDbLine
 10
-44.498000
 20
16.290690
 30
0.0
 11
-44.869280
 21
16.294690
 31
0.0
  0
LINE
  5
366
100
AcDbEntity
  8
Layer_1
 62
7
100
AcDbLine
 10
-44.869280
 20
16.294690
 30
0.0
 11
-45.240370
 21
16.298690
 31
0.0
  0
LINE
  5
367
100
AcDbEntity
  8
Layer_1
 62
7
100
AcDbLine
 10
-45.240370
 20
16.298690
 30
0.0
 11
-45.610040
 21
16.302690
 31
0.0
  0
LINE
  5
368
100
AcDbEntity
  8
Layer_1
 62
7
100
AcDbLine
 10
-45.610040
 20
16.302690
 30
0.0
 11
-45.931730
 21
16.302690
 31
0.0
  0
LINE
  5
369
100
AcDbEntity
  8
Layer_1
 62
7
100
AcDbLine
 10
-45.931730
 20
16.302690
 30
0.0
 11
-46.253410
 21
16.302690
 31
0.0
  0
LINE
  5
36a
100
AcDbEntity
  8
Layer_1
 62
7
100
AcDbLine
 10
-46.253410
 20
16.302690
 30
0.0
 11
-46.575100
 21
16.302690
 31
0.0
  0
LINE
  5
36b
100
AcDbEntity
  8
Layer_1
 62
7
100
AcDbLine
 10
-46.575100
 20
16.302690
 30
0.0
 11
-46.896780
 21
16.302690
 31
0.0
  0
LINE
  5
36c
100
AcDbEntity
  8
Layer_1
 62
7
100
AcDbLine
 10
-46.896780
 20
16.302690
 30
0.0
 11
-47.218470
 21
16.302690
 31
0.0
  0
LINE
  5
36d
100
AcDbEntity
  8
Layer_1
 62
7
100
AcDbLine
 10
-47.218470
 20
16.302690
 30
0.0
 11
-47.540160
 21
16.302690
 31
0.0
  0
LINE
  5
36e
100
AcDbEntity
  8
Layer_1
 62
7
100
AcDbLine
 10
-47.540160
 20
16.302690
 30
0.0
 11
-47.861840
 21
16.302690
 31
0.0
  0
LINE
  5
36f
100
AcDbEntity
  8
Layer_1
 62
7
100
AcDbLine
 10
-47.861840
 20
16.302690
 30
0.0
 11
-48.183530
 21
16.302690
 31
0.0
  0
LINE
  5
370
100
AcDbEntity
  8
Layer_1
 62
7
100
AcDbLine
 10
-48.183530
 20
16.302690
 30
0.0
 11
-49.010220
 21
16.302690
 31
0.0
  0
LINE
  5
371
100
AcDbEntity
  8
Layer_1
 62
7
100
AcDbLine
 10
-49.010220
 20
16.302690
 30
0.0
 11
-49.836910
 21
16.302690
 31
0.0
  0
LINE
  5
372
100
AcDbEntity
  8
Layer_1
 62
7
100
AcDbLine
 10
-49.836910
 20
16.302690
 30
0.0
 11
-50.663610
 21
16.302690
 31
0.0
  0
LINE
  5
373
100
AcDbEntity
  8
Layer_1
 62
7
100
AcDbLine
 10
-50.663610
 20
16.302690
 30
0.0
 11
-51.490300
 21
16.302690
 31
0.0
  0
LINE
  5
374
100
AcDbEntity
  8
Layer_1
 62
7
100
AcDbLine
 10
-51.490300
 20
16.302690
 30
0.0
 11
-52.317000
 21
16.302690
 31
0.0
  0
LINE
  5
375
100
AcDbEntity
  8
Layer_1
 62
7
100
AcDbLine
 10
-52.317000
 20
16.302690
 30
0.0
 11
-53.143690
 21
16.302690
 31
0.0
  0
LINE
  5
376
100
AcDbEntity
  8
Layer_1
 62
7
100
AcDbLine
 10
-53.143690
 20
16.302690
 30
0.0
 11
-53.970380
 21
16.302690
 31
0.0
  0
LINE
  5
377
100
AcDbEntity
  8
Layer_1
 62
7
100
AcDbLine
 10
-53.970380
 20
16.302690
 30
0.0
 11
-54.797820
 21
16.302890
 31
0.0
  0
LINE
  5
378
100
AcDbEntity
  8
Layer_1
 62
7
100
AcDbLine
 10
-47.084600
 20
10.050040
 30
0.0
 11
-45.998500
 21
10.037340
 31
0.0
  0
LINE
  5
379
100
AcDbEntity
  8
Layer_1
 62
7
100
AcDbLine
 10
-45.998500
 20
10.037340
 30
0.0
 11
-44.948160
 21
10.003240
 31
0.0
  0
LINE
  5
37a
100
AcDbEntity
  8
Layer_1
 62
7
100
AcDbLine
 10
-44.948160
 20
10.003240
 30
0.0
 11
-43.965630
 21
9.905240
 31
0.0
  0
LINE
  5
37b
100
AcDbEntity
  8
Layer_1
 62
7
100
AcDbLine
 10
-43.965630
 20
9.905240
 30
0.0
 11
-43.082980
 21
9.700730
 31
0.0
  0
LINE
  5
37c
100
AcDbEntity
  8
Layer_1
 62
7
100
AcDbLine
 10
-43.082980
 20
9.700730
 30
0.0
 11
-42.332270
 21
9.347150
 31
0.0
  0
LINE
  5
37d
100
AcDbEntity
  8
Layer_1
 62
7
100
AcDbLine
 10
-42.332270
 20
9.347150
 30
0.0
 11
-41.745570
 21
8.801970
 31
0.0
  0
LINE
  5
37e
100
AcDbEntity
  8
Layer_1
 62
7
100
AcDbLine
 10
-41.745570
 20
8.801970
 30
0.0
 11
-41.354940
 21
8.022610
 31
0.0
  0
LINE
  5
37f
100
AcDbEntity
  8
Layer_1
 62
7
100
AcDbLine
 10
-41.354940
 20
8.022610
 30
0.0
 11
-41.192450
 21
6.966510
 31
0.0
  0
LINE
  5
380
100
AcDbEntity
  8
Layer_1
 62
7
100
AcDbLine
 10
-41.192450
 20
6.966510
 30
0.0
 11
-41.269750
 21
6.004580
 31
0.0
  0
LINE
  5
381
100
AcDbEntity
  8
Layer_1
 62
7
100
AcDbLine
 10
-41.269750
 20
6.004580
 30
0.0
 11
-41.560840
 21
5.265950
 31
0.0
  0
LINE
  5
382
100
AcDbEntity
  8
Layer_1
 62
7
100
AcDbLine
 10
-41.560840
 20
5.265950
 30
0.0
 11
-42.053000
 21
4.721320
 31
0.0
  0
LINE
  5
383
100
AcDbEntity
  8
Layer_1
 62
7
100
AcDbLine
 10
-42.053000
 20
4.721320
 30
0.0
 11
-42.733510
 21
4.341400
 31
0.0
  0
LINE
  5
384
100
AcDbEntity
  8
Layer_1
 62
7
100
AcDbLine
 10
-42.733510
 20
4.341400
 30
0.0
 11
-43.589640
 21
4.096900
 31
0.0
  0
LINE
  5
385
100
AcDbEntity
  8
Layer_1
 62
7
100
AcDbLine
 10
-43.589640
 20
4.096900
 30
0.0
 11
-44.608670
 21
3.958530
 31
0.0
  0
LINE
  5
386
100
AcDbEntity
  8
Layer_1
 62
7
100
AcDbLine
 10
-44.608670
 20
3.958530
 30
0.0
 11
-45.777900
 21
3.897030
 31
0.0
  0
LINE
  5
387
100
AcDbEntity
  8
Layer_1
 62
7
100
AcDbLine
 10
-45.777900
 20
3.897030
 30
0.0
 11
-47.084590
 21
3.883030
 31
0.0
  0
LINE
  5
388
100
AcDbEntity
  8
Layer_1
 62
7
100
AcDbLine
 10
-47.084590
 20
3.883030
 30
0.0
 11
-47.084590
 21
4.653910
 31
0.0
  0
LINE
  5
389
100
AcDbEntity
  8
Layer_1
 62
7
100
AcDbLine
 10
-47.084590
 20
4.653910
 30
0.0
 11
-47.084590
 21
5.424800
 31
0.0
  0
LINE
  5
38a
100
AcDbEntity
  8
Layer_1
 62
7
100
AcDbLine
 10
-47.084590
 20
5.424800
 30
0.0
 11
-47.084590
 21
6.195680
 31
0.0
  0
LINE
  5
38b
100
AcDbEntity
  8
Layer_1
 62
7
100
AcDbLine
 10
-47.084590
 20
6.195680
 30
0.0
 11
-47.084590
 21
6.966560
 31
0.0
  0
LINE
  5
38c
100
AcDbEntity
  8
Layer_1
 62
7
100
AcDbLine
 10
-47.084590
 20
6.966560
 30
0.0
 11
-47.084590
 21
7.737450
 31
0.0
  0
LINE
  5
38d
100
AcDbEntity
  8
Layer_1
 62
7
100
AcDbLine
 10
-47.084590
 20
7.737450
 30
0.0
 11
-47.084590
 21
8.508330
 31
0.0
  0
LINE
  5
38e
100
AcDbEntity
  8
Layer_1
 62
7
100
AcDbLine
 10
-47.084590
 20
8.508330
 30
0.0
 11
-47.084590
 21
9.279210
 31
0.0
  0
LINE
  5
38f
100
AcDbEntity
  8
Layer_1
 62
7
100
AcDbLine
 10
-47.084590
 20
9.279210
 30
0.0
 11
-47.084600
 21
10.050040
 31
0.0
  0
LINE
  5
390
100
AcDbEntity
  8
Layer_1
 62
7
100
AcDbLine
 10
19.911830
 20
8.104940
 30
0.0
 11
17.704520
 21
7.882450
 31
0.0
  0
LINE
  5
391
100
AcDbEntity
  8
Layer_1
 62
7
100
AcDbLine
 10
17.704520
 20
7.882450
 30
0.0
 11
15.648610
 21
7.244300
 31
0.0
  0
LINE
  5
392
100
AcDbEntity
  8
Layer_1
 62
7
100
AcDbLine
 10
15.648610
 20
7.244300
 30
0.0
 11
13.788150
 21
6.234520
 31
0.0
  0
LINE
  5
393
100
AcDbEntity
  8
Layer_1
 62
7
100
AcDbLine
 10
13.788150
 20
6.234520
 30
0.0
 11
12.167170
 21
4.897150
 31
0.0
  0
LINE
  5
394
100
AcDbEntity
  8
Layer_1
 62
7
100
AcDbLine
 10
12.167170
 20
4.897150
 30
0.0
 11
10.829730
 21
3.276240
 31
0.0
  0
LINE
  5
395
100
AcDbEntity
  8
Layer_1
 62
7
100
AcDbLine
 10
10.829730
 20
3.276240
 30
0.0
 11
9.819861
 21
1.415830
 31
0.0
  0
LINE
  5
396
100
AcDbEntity
  8
Layer_1
 62
7
100
AcDbLine
 10
9.819861
 20
1.415830
 30
0.0
 11
9.181611
 21
-0.640050
 31
0.0
  0
LINE
  5
397
100
AcDbEntity
  8
Layer_1
 62
7
100
AcDbLine
 10
9.181611
 20
-0.640050
 30
0.0
 11
8.959011
 21
-2.847360
 31
0.0
  0
LINE
  5
398
100
AcDbEntity
  8
Layer_1
 62
7
100
AcDbLine
 10
8.959011
 20
-2.847360
 30
0.0
 11
9.181511
 21
-5.054740
 31
0.0
  0
LINE
  5
399
100
AcDbEntity
  8
Layer_1
 62
7
100
AcDbLine
 10
9.181511
 20
-5.054740
 30
0.0
 11
9.819711
 21
-7.110710
 31
0.0
  0
LINE
  5
39a
100
AcDbEntity
  8
Layer_1
 62
7
100
AcDbLine
 10
9.819711
 20
-7.110710
 30
0.0
 11
10.829550
 21
-8.971210
 31
0.0
  0
LINE
  5
39b
100
AcDbEntity
  8
Layer_1
 62
7
100
AcDbLine
 10
10.829550
 20
-8.971210
 30
0.0
 11
12.166990
 21
-10.592200
 31
0.0
  0
LINE
  5
39c
100
AcDbEntity
  8
Layer_1
 62
7
100
AcDbLine
 10
12.166990
 20
-10.592200
 30
0.0
 11
13.787980
 21
-11.929640
 31
0.0
  0
LINE
  5
39d
100
AcDbEntity
  8
Layer_1
 62
7
100
AcDbLine
 10
13.787980
 20
-11.929640
 30
0.0
 11
15.648480
 21
-12.939480
 31
0.0
  0
LINE
  5
39e
100
AcDbEntity
  8
Layer_1
 62
7
100
AcDbLine
 10
15.648480
 20
-12.939480
 30
0.0
 11
17.704450
 21
-13.577680
 31
0.0
  0
LINE
  5
39f
100
AcDbEntity
  8
Layer_1
 62
7
100
AcDbLine
 10
17.704450
 20
-13.577680
 30
0.0
 11
19.911830
 21
-13.800180
 31
0.0
  0
LINE
  5
3a0
100
AcDbEntity
  8
Layer_1
 62
7
100
AcDbLine
 10
19.911830
 20
-13.800180
 30
0.0
 11
20.319180
 21
-13.791180
 31
0.0
  0
LINE
  5
3a1
100
AcDbEntity
  8
Layer_1
 62
7
100
AcDbLine
 10
20.319180
 20
-13.791180
 30
0.0
 11
20.725500
 21
-13.767180
 31
0.0
  0
LINE
  5
3a2
100
AcDbEntity
  8
Layer_1
 62
7
100
AcDbLine
 10
20.725500
 20
-13.767180
 30
0.0
 11
21.130370
 21
-13.728080
 31
0.0
  0
LINE
  5
3a3
100
AcDbEntity
  8
Layer_1
 62
7
100
AcDbLine
 10
21.130370
 20
-13.728080
 30
0.0
 11
21.533370
 21
-13.673980
 31
0.0
  0
LINE
  5
3a4
100
AcDbEntity
  8
Layer_1
 62
7
100
AcDbLine
 10
21.533370
 20
-13.673980
 30
0.0
 11
21.934080
 21
-13.604980
 31
0.0
  0
LINE
  5
3a5
100
AcDbEntity
  8
Layer_1
 62
7
100
AcDbLine
 10
21.934080
 20
-13.604980
 30
0.0
 11
22.332100
 21
-13.521180
 31
0.0
  0
LINE
  5
3a6
100
AcDbEntity
  8
Layer_1
 62
7
100
AcDbLine
 10
22.332100
 20
-13.521180
 30
0.0
 11
22.726990
 21
-13.422580
 31
0.0
  0
LINE
  5
3a7
100
AcDbEntity
  8
Layer_1
 62
7
100
AcDbLine
 10
22.726990
 20
-13.422580
 30
0.0
 11
23.118350
 21
-13.309210
 31
0.0
  0
LINE
  5
3a8
100
AcDbEntity
  8
Layer_1
 62
7
100
AcDbLine
 10
23.118350
 20
-13.309210
 30
0.0
 11
23.118350
 21
-13.460950
 31
0.0
  0
LINE
  5
3a9
100
AcDbEntity
  8
Layer_1
 62
7
100
AcDbLine
 10
23.118350
 20
-13.460950
 30
0.0
 11
23.118350
 21
-13.612680
 31
0.0
  0
LINE
  5
3aa
100
AcDbEntity
  8
Layer_1
 62
7
100
AcDbLine
 10
23.118350
 20
-13.612680
 30
0.0
 11
23.118350
 21
-13.764420
 31
0.0
  0
LINE
  5
3ab
100
AcDbEntity
  8
Layer_1
 62
7
100
AcDbLine
 10
23.118350
 20
-13.764420
 30
0.0
 11
23.118350
 21
-13.916150
 31
0.0
  0
LINE
  5
3ac
100
AcDbEntity
  8
Layer_1
 62
7
100
AcDbLine
 10
23.118350
 20
-13.916150
 30
0.0
 11
23.118350
 21
-14.067890
 31
0.0
  0
LINE
  5
3ad
100
AcDbEntity
  8
Layer_1
 62
7
100
AcDbLine
 10
23.118350
 20
-14.067890
 30
0.0
 11
23.118350
 21
-14.219620
 31
0.0
  0
LINE
  5
3ae
100
AcDbEntity
  8
Layer_1
 62
7
100
AcDbLine
 10
23.118350
 20
-14.219620
 30
0.0
 11
23.118350
 21
-14.371350
 31
0.0
  0
LINE
  5
3af
100
AcDbEntity
  8
Layer_1
 62
7
100
AcDbLine
 10
23.118350
 20
-14.371350
 30
0.0
 11
23.118350
 21
-14.523090
 31
0.0
  0
LINE
  5
3b0
100
AcDbEntity
  8
Layer_1
 62
7
100
AcDbLine
 10
23.118350
 20
-14.523090
 30
0.0
 11
23.058150
 21
-15.035990
 31
0.0
  0
LINE
  5
3b1
100
AcDbEntity
  8
Layer_1
 62
7
100
AcDbLine
 10
23.058150
 20
-15.035990
 30
0.0
 11
22.884260
 21
-15.507840
 31
0.0
  0
LINE
  5
3b2
100
AcDbEntity
  8
Layer_1
 62
7
100
AcDbLine
 10
22.884260
 20
-15.507840
 30
0.0
 11
22.607050
 21
-15.930220
 31
0.0
  0
LINE
  5
3b3
100
AcDbEntity
  8
Layer_1
 62
7
100
AcDbLine
 10
22.607050
 20
-15.930220
 30
0.0
 11
22.236840
 21
-16.294710
 31
0.0
  0
LINE
  5
3b4
100
AcDbEntity
  8
Layer_1
 62
7
100
AcDbLine
 10
22.236840
 20
-16.294710
 30
0.0
 11
21.783940
 21
-16.592860
 31
0.0
  0
LINE
  5
3b5
100
AcDbEntity
  8
Layer_1
 62
7
100
AcDbLine
 10
21.783940
 20
-16.592860
 30
0.0
 11
21.258680
 21
-16.816270
 31
0.0
  0
LINE
  5
3b6
100
AcDbEntity
  8
Layer_1
 62
7
100
AcDbLine
 10
21.258680
 20
-16.816270
 30
0.0
 11
20.671350
 21
-16.956490
 31
0.0
  0
LINE
  5
3b7
100
AcDbEntity
  8
Layer_1
 62
7
100
AcDbLine
 10
20.671350
 20
-16.956490
 30
0.0
 11
20.032290
 21
-17.005090
 31
0.0
  0
LINE
  5
3b8
100
AcDbEntity
  8
Layer_1
 62
7
100
AcDbLine
 10
20.032290
 20
-17.005090
 30
0.0
 11
10.505290
 21
-17.005090
 31
0.0
  0
LINE
  5
3b9
100
AcDbEntity
  8
Layer_1
 62
7
100
AcDbLine
 10
10.505290
 20
-17.005090
 30
0.0
 11
0.978280
 21
-17.005090
 31
0.0
  0
LINE
  5
3ba
100
AcDbEntity
  8
Layer_1
 62
7
100
AcDbLine
 10
0.978280
 20
-17.005090
 30
0.0
 11
-8.548720
 21
-17.005090
 31
0.0
  0
LINE
  5
3bb
100
AcDbEntity
  8
Layer_1
 62
7
100
AcDbLine
 10
-8.548720
 20
-17.005090
 30
0.0
 11
-18.075720
 21
-17.005090
 31
0.0
  0
LINE
  5
3bc
100
AcDbEntity
  8
Layer_1
 62
7
100
AcDbLine
 10
-18.075720
 20
-17.005090
 30
0.0
 11
-27.602720
 21
-17.005090
 31
0.0
  0
LINE
  5
3bd
100
AcDbEntity
  8
Layer_1
 62
7
100
AcDbLine
 10
-27.602720
 20
-17.005090
 30
0.0
 11
-37.129730
 21
-17.005090
 31
0.0
  0
LINE
  5
3be
100
AcDbEntity
  8
Layer_1
 62
7
100
AcDbLine
 10
-37.129730
 20
-17.005090
 30
0.0
 11
-46.656730
 21
-17.005090
 31
0.0
  0
LINE
  5
3bf
100
AcDbEntity
  8
Layer_1
 62
7
100
AcDbLine
 10
-46.656730
 20
-17.005090
 30
0.0
 11
-56.183730
 21
-17.005090
 31
0.0
  0
LINE
  5
3c0
100
AcDbEntity
  8
Layer_1
 62
7
100
AcDbLine
 10
-56.183730
 20
-17.005090
 30
0.0
 11
-56.183730
 21
-17.890310
 31
0.0
  0
LINE
  5
3c1
100
AcDbEntity
  8
Layer_1
 62
7
100
AcDbLine
 10
-56.183730
 20
-17.890310
 30
0.0
 11
-56.183730
 21
-18.775530
 31
0.0
  0
LINE
  5
3c2
100
AcDbEntity
  8
Layer_1
 62
7
100
AcDbLine
 10
-56.183730
 20
-18.775530
 30
0.0
 11
-56.183730
 21
-19.660740
 31
0.0
  0
LINE
  5
3c3
100
AcDbEntity
  8
Layer_1
 62
7
100
AcDbLine
 10
-56.183730
 20
-19.660740
 30
0.0
 11
-56.183730
 21
-20.545960
 31
0.0
  0
LINE
  5
3c4
100
AcDbEntity
  8
Layer_1
 62
7
100
AcDbLine
 10
-56.183730
 20
-20.545960
 30
0.0
 11
-56.183730
 21
-21.431170
 31
0.0
  0
LINE
  5
3c5
100
AcDbEntity
  8
Layer_1
 62
7
100
AcDbLine
 10
-56.183730
 20
-21.431170
 30
0.0
 11
-56.183730
 21
-22.316390
 31
0.0
  0
LINE
  5
3c6
100
AcDbEntity
  8
Layer_1
 62
7
100
AcDbLine
 10
-56.183730
 20
-22.316390
 30
0.0
 11
-56.183730
 21
-23.201610
 31
0.0
  0
LINE
  5
3c7
100
AcDbEntity
  8
Layer_1
 62
7
100
AcDbLine
 10
-56.183730
 20
-23.201610
 30
0.0
 11
-56.183730
 21
-24.086830
 31
0.0
  0
LINE
  5
3c8
100
AcDbEntity
  8
Layer_1
 62
7
100
AcDbLine
 10
-56.183730
 20
-24.086830
 30
0.0
 11
-46.822420
 21
-24.086830
 31
0.0
  0
LINE
  5
3c9
100
AcDbEntity
  8
Layer_1
 62
7
100
AcDbLine
 10
-46.822420
 20
-24.086830
 30
0.0
 11
-37.461100
 21
-24.086830
 31
0.0
  0
LINE
  5
3ca
100
AcDbEntity
  8
Layer_1
 62
7
100
AcDbLine
 10
-37.461100
 20
-24.086830
 30
0.0
 11
-28.099790
 21
-24.086830
 31
0.0
  0
LINE
  5
3cb
100
AcDbEntity
  8
Layer_1
 62
7
100
AcDbLine
 10
-28.099790
 20
-24.086830
 30
0.0
 11
-18.738470
 21
-24.086830
 31
0.0
  0
LINE
  5
3cc
100
AcDbEntity
  8
Layer_1
 62
7
100
AcDbLine
 10
-18.738470
 20
-24.086830
 30
0.0
 11
-9.377160
 21
-24.086830
 31
0.0
  0
LINE
  5
3cd
100
AcDbEntity
  8
Layer_1
 62
7
100
AcDbLine
 10
-9.377160
 20
-24.086830
 30
0.0
 11
-0.015840
 21
-24.086830
 31
0.0
  0
LINE
  5
3ce
100
AcDbEntity
  8
Layer_1
 62
7
100
AcDbLine
 10
-0.015840
 20
-24.086830
 30
0.0
 11
9.345471
 21
-24.086830
 31
0.0
  0
LINE
  5
3cf
100
AcDbEntity
  8
Layer_1
 62
7
100
AcDbLine
 10
9.345471
 20
-24.086830
 30
0.0
 11
18.706790
 21
-24.086830
 31
0.0
  0
LINE
  5
3d0
100
AcDbEntity
  8
Layer_1
 62
7
100
AcDbLine
 10
18.706790
 20
-24.086830
 30
0.0
 11
21.775430
 21
-23.829620
 31
0.0
  0
LINE
  5
3d1
100
AcDbEntity
  8
Layer_1
 62
7
100
AcDbLine
 10
21.775430
 20
-23.829620
 30
0.0
 11
24.413511
 21
-23.101840
 31
0.0
  0
LINE
  5
3d2
100
AcDbEntity
  8
Layer_1
 62
7
100
AcDbLine
 10
24.413511
 20
-23.101840
 30
0.0
 11
26.623931
 21
-21.969220
 31
0.0
  0
LINE
  5
3d3
100
AcDbEntity
  8
Layer_1
 62
7
100
AcDbLine
 10
26.623931
 20
-21.969220
 30
0.0
 11
28.409601
 21
-20.497500
 31
0.0
  0
LINE
  5
3d4
100
AcDbEntity
  8
Layer_1
 62
7
100
AcDbLine
 10
28.409601
 20
-20.497500
 30
0.0
 11
29.773421
 21
-18.752430
 31
0.0
  0
LINE
  5
3d5
100
AcDbEntity
  8
Layer_1
 62
7
100
AcDbLine
 10
29.773421
 20
-18.752430
 30
0.0
 11
30.718301
 21
-16.799760
 31
0.0
  0
LINE
  5
3d6
100
AcDbEntity
  8
Layer_1
 62
7
100
AcDbLine
 10
30.718301
 20
-16.799760
 30
0.0
 11
31.247141
 21
-14.705220
 31
0.0
  0
LINE
  5
3d7
100
AcDbEntity
  8
Layer_1
 62
7
100
AcDbLine
 10
31.247141
 20
-14.705220
 30
0.0
 11
31.362861
 21
-12.534560
 31
0.0
  0
LINE
  5
3d8
100
AcDbEntity
  8
Layer_1
 62
7
100
AcDbLine
 10
31.362861
 20
-12.534560
 30
0.0
 11
31.338061
 21
-12.058170
 31
0.0
  0
LINE
  5
3d9
100
AcDbEntity
  8
Layer_1
 62
7
100
AcDbLine
 10
31.338061
 20
-12.058170
 30
0.0
 11
31.313261
 21
-11.581780
 31
0.0
  0
LINE
  5
3da
100
AcDbEntity
  8
Layer_1
 62
7
100
AcDbLine
 10
31.313261
 20
-11.581780
 30
0.0
 11
31.288461
 21
-11.105380
 31
0.0
  0
LINE
  5
3db
100
AcDbEntity
  8
Layer_1
 62
7
100
AcDbLine
 10
31.288461
 20
-11.105380
 30
0.0
 11
31.263661
 21
-10.628990
 31
0.0
  0
LINE
  5
3dc
100
AcDbEntity
  8
Layer_1
 62
7
100
AcDbLine
 10
31.263661
 20
-10.628990
 30
0.0
 11
31.238861
 21
-10.152600
 31
0.0
  0
LINE
  5
3dd
100
AcDbEntity
  8
Layer_1
 62
7
100
AcDbLine
 10
31.238861
 20
-10.152600
 30
0.0
 11
31.214061
 21
-9.676210
 31
0.0
  0
LINE
  5
3de
100
AcDbEntity
  8
Layer_1
 62
7
100
AcDbLine
 10
31.214061
 20
-9.676210
 30
0.0
 11
31.189261
 21
-9.199820
 31
0.0
  0
LINE
  5
3df
100
AcDbEntity
  8
Layer_1
 62
7
100
AcDbLine
 10
31.189261
 20
-9.199820
 30
0.0
 11
31.164461
 21
-8.723420
 31
0.0
  0
LINE
  5
3e0
100
AcDbEntity
  8
Layer_1
 62
7
100
AcDbLine
 10
31.164461
 20
-8.723420
 30
0.0
 11
31.207761
 21
-8.822320
 31
0.0
  0
LINE
  5
3e1
100
AcDbEntity
  8
Layer_1
 62
7
100
AcDbLine
 10
31.207761
 20
-8.822320
 30
0.0
 11
31.251961
 21
-8.920820
 31
0.0
  0
LINE
  5
3e2
100
AcDbEntity
  8
Layer_1
 62
7
100
AcDbLine
 10
31.251961
 20
-8.920820
 30
0.0
 11
31.296961
 21
-9.018920
 31
0.0
  0
LINE
  5
3e3
100
AcDbEntity
  8
Layer_1
 62
7
100
AcDbLine
 10
31.296961
 20
-9.018920
 30
0.0
 11
31.342861
 21
-9.116620
 31
0.0
  0
LINE
  5
3e4
100
AcDbEntity
  8
Layer_1
 62
7
100
AcDbLine
 10
31.342861
 20
-9.116620
 30
0.0
 11
31.389661
 21
-9.213920
 31
0.0
  0
LINE
  5
3e5
100
AcDbEntity
  8
Layer_1
 62
7
100
AcDbLine
 10
31.389661
 20
-9.213920
 30
0.0
 11
31.437361
 21
-9.310820
 31
0.0
  0
LINE
  5
3e6
100
AcDbEntity
  8
Layer_1
 62
7
100
AcDbLine
 10
31.437361
 20
-9.310820
 30
0.0
 11
31.485961
 21
-9.407320
 31
0.0
  0
LINE
  5
3e7
100
AcDbEntity
  8
Layer_1
 62
7
100
AcDbLine
 10
31.485961
 20
-9.407320
 30
0.0
 11
31.535461
 21
-9.503320
 31
0.0
  0
LINE
  5
3e8
100
AcDbEntity
  8
Layer_1
 62
7
100
AcDbLine
 10
31.535461
 20
-9.503320
 30
0.0
 11
31.870661
 21
-10.099090
 31
0.0
  0
LINE
  5
3e9
100
AcDbEntity
  8
Layer_1
 62
7
100
AcDbLine
 10
31.870661
 20
-10.099090
 30
0.0
 11
32.238851
 21
-10.674290
 31
0.0
  0
LINE
  5
3ea
100
AcDbEntity
  8
Layer_1
 62
7
100
AcDbLine
 10
32.238851
 20
-10.674290
 30
0.0
 11
32.638991
 21
-11.227700
 31
0.0
  0
LINE
  5
3eb
100
AcDbEntity
  8
Layer_1
 62
7
100
AcDbLine
 10
32.638991
 20
-11.227700
 30
0.0
 11
33.070031
 21
-11.758090
 31
0.0
  0
LINE
  5
3ec
100
AcDbEntity
  8
Layer_1
 62
7
100
AcDbLine
 10
33.070031
 20
-11.758090
 30
0.0
 11
33.530901
 21
-12.264250
 31
0.0
  0
LINE
  5
3ed
100
AcDbEntity
  8
Layer_1
 62
7
100
AcDbLine
 10
33.530901
 20
-12.264250
 30
0.0
 11
34.020551
 21
-12.744940
 31
0.0
  0
LINE
  5
3ee
100
AcDbEntity
  8
Layer_1
 62
7
100
AcDbLine
 10
34.020551
 20
-12.744940
 30
0.0
 11
34.537941
 21
-13.198940
 31
0.0
  0
LINE
  5
3ef
100
AcDbEntity
  8
Layer_1
 62
7
100
AcDbLine
 10
34.537941
 20
-13.198940
 30
0.0
 11
35.082011
 21
-13.625030
 31
0.0
  0
LINE
  5
3f0
100
AcDbEntity
  8
Layer_1
 62
7
100
AcDbLine
 10
35.082011
 20
-13.625030
 30
0.0
 11
35.915861
 21
-14.195240
 31
0.0
  0
LINE
  5
3f1
100
AcDbEntity
  8
Layer_1
 62
7
100
AcDbLine
 10
35.915861
 20
-14.195240
 30
0.0
 11
36.790481
 21
-14.694820
 31
0.0
  0
LINE
  5
3f2
100
AcDbEntity
  8
Layer_1
 62
7
100
AcDbLine
 10
36.790481
 20
-14.694820
 30
0.0
 11
37.701071
 21
-15.122180
 31
0.0
  0
LINE
  5
3f3
100
AcDbEntity
  8
Layer_1
 62
7
100
AcDbLine
 10
37.701071
 20
-15.122180
 30
0.0
 11
38.642861
 21
-15.475760
 31
0.0
  0
LINE
  5
3f4
100
AcDbEntity
  8
Layer_1
 62
7
100
AcDbLine
 10
38.642861
 20
-15.475760
 30
0.0
 11
39.611061
 21
-15.753960
 31
0.0
  0
LINE
  5
3f5
100
AcDbEntity
  8
Layer_1
 62
7
100
AcDbLine
 10
39.611061
 20
-15.753960
 30
0.0
 11
40.600891
 21
-15.955210
 31
0.0
  0
LINE
  5
3f6
100
AcDbEntity
  8
Layer_1
 62
7
100
AcDbLine
 10
40.600891
 20
-15.955210
 30
0.0
 11
41.607541
 21
-16.077910
 31
0.0
  0
LINE
  5
3f7
100
AcDbEntity
  8
Layer_1
 62
7
100
AcDbLine
 10
41.607541
 20
-16.077910
 30
0.0
 11
42.626251
 21
-16.120510
 31
0.0
  0
LINE
  5
3f8
100
AcDbEntity
  8
Layer_1
 62
7
100
AcDbLine
 10
42.626251
 20
-16.120510
 30
0.0
 11
44.169570
 21
-16.073410
 31
0.0
  0
LINE
  5
3f9
100
AcDbEntity
  8
Layer_1
 62
7
100
AcDbLine
 10
44.169570
 20
-16.073410
 30
0.0
 11
45.744960
 21
-15.928960
 31
0.0
  0
LINE
  5
3fa
100
AcDbEntity
  8
Layer_1
 62
7
100
AcDbLine
 10
45.744960
 20
-15.928960
 30
0.0
 11
47.319530
 21
-15.682660
 31
0.0
  0
LINE
  5
3fb
100
AcDbEntity
  8
Layer_1
 62
7
100
AcDbLine
 10
47.319530
 20
-15.682660
 30
0.0
 11
48.860390
 21
-15.330000
 31
0.0
  0
LINE
  5
3fc
100
AcDbEntity
  8
Layer_1
 62
7
100
AcDbLine
 10
48.860390
 20
-15.330000
 30
0.0
 11
50.334630
 21
-14.866450
 31
0.0
  0
LINE
  5
3fd
100
AcDbEntity
  8
Layer_1
 62
7
100
AcDbLine
 10
50.334630
 20
-14.866450
 30
0.0
 11
51.709350
 21
-14.287480
 31
0.0
  0
LINE
  5
3fe
100
AcDbEntity
  8
Layer_1
 62
7
100
AcDbLine
 10
51.709350
 20
-14.287480
 30
0.0
 11
52.951660
 21
-13.588570
 31
0.0
  0
LINE
  5
3ff
100
AcDbEntity
  8
Layer_1
 62
7
100
AcDbLine
 10
52.951660
 20
-13.588570
 30
0.0
 11
54.028660
 21
-12.765190
 31
0.0
  0
LINE
  5
400
100
AcDbEntity
  8
Layer_1
 62
7
100
AcDbLine
 10
54.028660
 20
-12.765190
 30
0.0
 11
54.028660
 21
-13.130150
 31
0.0
  0
LINE
  5
401
100
AcDbEntity
  8
Layer_1
 62
7
100
AcDbLine
 10
54.028660
 20
-13.130150
 30
0.0
 11
54.028660
 21
-13.495120
 31
0.0
  0
LINE
  5
402
100
AcDbEntity
  8
Layer_1
 62
7
100
AcDbLine
 10
54.028660
 20
-13.495120
 30
0.0
 11
54.028660
 21
-13.860080
 31
0.0
  0
LINE
  5
403
100
AcDbEntity
  8
Layer_1
 62
7
100
AcDbLine
 10
54.028660
 20
-13.860080
 30
0.0
 11
54.028660
 21
-14.225050
 31
0.0
  0
LINE
  5
404
100
AcDbEntity
  8
Layer_1
 62
7
100
AcDbLine
 10
54.028660
 20
-14.225050
 30
0.0
 11
54.028660
 21
-14.590010
 31
0.0
  0
LINE
  5
405
100
AcDbEntity
  8
Layer_1
 62
7
100
AcDbLine
 10
54.028660
 20
-14.590010
 30
0.0
 11
54.028660
 21
-14.954980
 31
0.0
  0
LINE
  5
406
100
AcDbEntity
  8
Layer_1
 62
7
100
AcDbLine
 10
54.028660
 20
-14.954980
 30
0.0
 11
54.028660
 21
-15.319940
 31
0.0
  0
LINE
  5
407
100
AcDbEntity
  8
Layer_1
 62
7
100
AcDbLine
 10
54.028660
 20
-15.319940
 30
0.0
 11
54.028660
 21
-15.684910
 31
0.0
  0
LINE
  5
408
100
AcDbEntity
  8
Layer_1
 62
7
100
AcDbLine
 10
54.028660
 20
-15.684910
 30
0.0
 11
54.978730
 21
-15.684910
 31
0.0
  0
LINE
  5
409
100
AcDbEntity
  8
Layer_1
 62
7
100
AcDbLine
 10
54.978730
 20
-15.684910
 30
0.0
 11
55.928800
 21
-15.684910
 31
0.0
  0
LINE
  5
40a
100
AcDbEntity
  8
Layer_1
 62
7
100
AcDbLine
 10
55.928800
 20
-15.684910
 30
0.0
 11
56.878870
 21
-15.684910
 31
0.0
  0
LINE
  5
40b
100
AcDbEntity
  8
Layer_1
 62
7
100
AcDbLine
 10
56.878870
 20
-15.684910
 30
0.0
 11
57.828940
 21
-15.684910
 31
0.0
  0
LINE
  5
40c
100
AcDbEntity
  8
Layer_1
 62
7
100
AcDbLine
 10
57.828940
 20
-15.684910
 30
0.0
 11
58.779010
 21
-15.684910
 31
0.0
  0
LINE
  5
40d
100
AcDbEntity
  8
Layer_1
 62
7
100
AcDbLine
 10
58.779010
 20
-15.684910
 30
0.0
 11
59.729080
 21
-15.684910
 31
0.0
  0
LINE
  5
40e
100
AcDbEntity
  8
Layer_1
 62
7
100
AcDbLine
 10
59.729080
 20
-15.684910
 30
0.0
 11
60.679160
 21
-15.684910
 31
0.0
  0
LINE
  5
40f
100
AcDbEntity
  8
Layer_1
 62
7
100
AcDbLine
 10
60.679160
 20
-15.684910
 30
0.0
 11
61.629230
 21
-15.684910
 31
0.0
  0
LINE
  5
410
100
AcDbEntity
  8
Layer_1
 62
7
100
AcDbLine
 10
61.629230
 20
-15.684910
 30
0.0
 11
61.629230
 21
-14.308760
 31
0.0
  0
LINE
  5
411
100
AcDbEntity
  8
Layer_1
 62
7
100
AcDbLine
 10
61.629230
 20
-14.308760
 30
0.0
 11
61.629230
 21
-12.932620
 31
0.0
  0
LINE
  5
412
100
AcDbEntity
  8
Layer_1
 62
7
100
AcDbLine
 10
61.629230
 20
-12.932620
 30
0.0
 11
61.629230
 21
-11.556480
 31
0.0
  0
LINE
  5
413
100
AcDbEntity
  8
Layer_1
 62
7
100
AcDbLine
 10
61.629230
 20
-11.556480
 30
0.0
 11
61.629230
 21
-10.180330
 31
0.0
  0
LINE
  5
414
100
AcDbEntity
  8
Layer_1
 62
7
100
AcDbLine
 10
61.629230
 20
-10.180330
 30
0.0
 11
61.629230
 21
-8.804190
 31
0.0
  0
LINE
  5
415
100
AcDbEntity
  8
Layer_1
 62
7
100
AcDbLine
 10
61.629230
 20
-8.804190
 30
0.0
 11
61.629230
 21
-7.428050
 31
0.0
  0
LINE
  5
416
100
AcDbEntity
  8
Layer_1
 62
7
100
AcDbLine
 10
61.629230
 20
-7.428050
 30
0.0
 11
61.629230
 21
-6.051900
 31
0.0
  0
LINE
  5
417
100
AcDbEntity
  8
Layer_1
 62
7
100
AcDbLine
 10
61.629230
 20
-6.051900
 30
0.0
 11
61.629230
 21
-4.675760
 31
0.0
  0
LINE
  5
418
100
AcDbEntity
  8
Layer_1
 62
7
100
AcDbLine
 10
61.629230
 20
-4.675760
 30
0.0
 11
61.747500
 21
-2.968790
 31
0.0
  0
LINE
  5
419
100
AcDbEntity
  8
Layer_1
 62
7
100
AcDbLine
 10
61.747500
 20
-2.968790
 30
0.0
 11
62.077600
 21
-1.713160
 31
0.0
  0
LINE
  5
41a
100
AcDbEntity
  8
Layer_1
 62
7
100
AcDbLine
 10
62.077600
 20
-1.713160
 30
0.0
 11
62.582460
 21
-0.840790
 31
0.0
  0
LINE
  5
41b
100
AcDbEntity
  8
Layer_1
 62
7
100
AcDbLine
 10
62.582460
 20
-0.840790
 30
0.0
 11
63.225000
 21
-0.283640
 31
0.0
  0
LINE
  5
41c
100
AcDbEntity
  8
Layer_1
 62
7
100
AcDbLine
 10
63.225000
 20
-0.283640
 30
0.0
 11
63.968150
 21
0.026350
 31
0.0
  0
LINE
  5
41d
100
AcDbEntity
  8
Layer_1
 62
7
100
AcDbLine
 10
63.968150
 20
0.026350
 30
0.0
 11
64.774830
 21
0.157230
 31
0.0
  0
LINE
  5
41e
100
AcDbEntity
  8
Layer_1
 62
7
100
AcDbLine
 10
64.774830
 20
0.157230
 30
0.0
 11
65.607960
 21
0.177030
 31
0.0
  0
LINE
  5
41f
100
AcDbEntity
  8
Layer_1
 62
7
100
AcDbLine
 10
65.607960
 20
0.177030
 30
0.0
 11
66.430480
 21
0.153930
 31
0.0
  0
LINE
  5
420
100
AcDbEntity
  8
Layer_1
 62
7
100
AcDbLine
 10
66.430480
 20
0.153930
 30
0.0
 11
66.430480
 21
1.042960
 31
0.0
  0
LINE
  5
421
100
AcDbEntity
  8
Layer_1
 62
7
100
AcDbLine
 10
66.430480
 20
1.042960
 30
0.0
 11
66.430480
 21
1.931980
 31
0.0
  0
LINE
  5
422
100
AcDbEntity
  8
Layer_1
 62
7
100
AcDbLine
 10
66.430480
 20
1.931980
 30
0.0
 11
66.430480
 21
2.821010
 31
0.0
  0
LINE
  5
423
100
AcDbEntity
  8
Layer_1
 62
7
100
AcDbLine
 10
66.430480
 20
2.821010
 30
0.0
 11
66.430480
 21
3.710040
 31
0.0
  0
LINE
  5
424
100
AcDbEntity
  8
Layer_1
 62
7
100
AcDbLine
 10
66.430480
 20
3.710040
 30
0.0
 11
66.430480
 21
4.599070
 31
0.0
  0
LINE
  5
425
100
AcDbEntity
  8
Layer_1
 62
7
100
AcDbLine
 10
66.430480
 20
4.599070
 30
0.0
 11
66.430480
 21
5.488100
 31
0.0
  0
LINE
  5
426
100
AcDbEntity
  8
Layer_1
 62
7
100
AcDbLine
 10
66.430480
 20
5.488100
 30
0.0
 11
66.430480
 21
6.377120
 31
0.0
  0
LINE
  5
427
100
AcDbEntity
  8
Layer_1
 62
7
100
AcDbLine
 10
66.430480
 20
6.377120
 30
0.0
 11
66.430480
 21
7.266150
 31
0.0
  0
LINE
  5
428
100
AcDbEntity
  8
Layer_1
 62
7
100
AcDbLine
 10
66.430480
 20
7.266150
 30
0.0
 11
66.218930
 21
7.266150
 31
0.0
  0
LINE
  5
429
100
AcDbEntity
  8
Layer_1
 62
7
100
AcDbLine
 10
66.218930
 20
7.266150
 30
0.0
 11
66.007380
 21
7.266150
 31
0.0
  0
LINE
  5
42a
100
AcDbEntity
  8
Layer_1
 62
7
100
AcDbLine
 10
66.007380
 20
7.266150
 30
0.0
 11
65.795830
 21
7.266150
 31
0.0
  0
LINE
  5
42b
100
AcDbEntity
  8
Layer_1
 62
7
100
AcDbLine
 10
65.795830
 20
7.266150
 30
0.0
 11
65.584280
 21
7.266150
 31
0.0
  0
LINE
  5
42c
100
AcDbEntity
  8
Layer_1
 62
7
100
AcDbLine
 10
65.584280
 20
7.266150
 30
0.0
 11
65.372730
 21
7.266150
 31
0.0
  0
LINE
  5
42d
100
AcDbEntity
  8
Layer_1
 62
7
100
AcDbLine
 10
65.372730
 20
7.266150
 30
0.0
 11
65.161180
 21
7.266150
 31
0.0
  0
LINE
  5
42e
100
AcDbEntity
  8
Layer_1
 62
7
100
AcDbLine
 10
65.161180
 20
7.266150
 30
0.0
 11
64.949630
 21
7.266150
 31
0.0
  0
LINE
  5
42f
100
AcDbEntity
  8
Layer_1
 62
7
100
AcDbLine
 10
64.949630
 20
7.266150
 30
0.0
 11
64.738080
 21
7.266150
 31
0.0
  0
LINE
  5
430
100
AcDbEntity
  8
Layer_1
 62
7
100
AcDbLine
 10
64.738080
 20
7.266150
 30
0.0
 11
64.143750
 21
7.215850
 31
0.0
  0
LINE
  5
431
100
AcDbEntity
  8
Layer_1
 62
7
100
AcDbLine
 10
64.143750
 20
7.215850
 30
0.0
 11
63.592540
 21
7.070920
 31
0.0
  0
LINE
  5
432
100
AcDbEntity
  8
Layer_1
 62
7
100
AcDbLine
 10
63.592540
 20
7.070920
 30
0.0
 11
63.080050
 21
6.840540
 31
0.0
  0
LINE
  5
433
100
AcDbEntity
  8
Layer_1
 62
7
100
AcDbLine
 10
63.080050
 20
6.840540
 30
0.0
 11
62.601920
 21
6.533850
 31
0.0
  0
LINE
  5
434
100
AcDbEntity
  8
Layer_1
 62
7
100
AcDbLine
 10
62.601920
 20
6.533850
 30
0.0
 11
62.153780
 21
6.159990
 31
0.0
  0
LINE
  5
435
100
AcDbEntity
  8
Layer_1
 62
7
100
AcDbLine
 10
62.153780
 20
6.159990
 30
0.0
 11
61.731250
 21
5.728110
 31
0.0
  0
LINE
  5
436
100
AcDbEntity
  8
Layer_1
 62
7
100
AcDbLine
 10
61.731250
 20
5.728110
 30
0.0
 11
61.329970
 21
5.247340
 31
0.0
  0
LINE
  5
437
100
AcDbEntity
  8
Layer_1
 62
7
100
AcDbLine
 10
61.329970
 20
5.247340
 30
0.0
 11
60.945550
 21
4.726810
 31
0.0
  0
LINE
  5
438
100
AcDbEntity
  8
Layer_1
 62
7
100
AcDbLine
 10
60.945550
 20
4.726810
 30
0.0
 11
60.945550
 21
5.071690
 31
0.0
  0
LINE
  5
439
100
AcDbEntity
  8
Layer_1
 62
7
100
AcDbLine
 10
60.945550
 20
5.071690
 30
0.0
 11
60.945550
 21
5.416560
 31
0.0
  0
LINE
  5
43a
100
AcDbEntity
  8
Layer_1
 62
7
100
AcDbLine
 10
60.945550
 20
5.416560
 30
0.0
 11
60.945550
 21
5.761440
 31
0.0
  0
LINE
  5
43b
100
AcDbEntity
  8
Layer_1
 62
7
100
AcDbLine
 10
60.945550
 20
5.761440
 30
0.0
 11
60.945550
 21
6.106320
 31
0.0
  0
LINE
  5
43c
100
AcDbEntity
  8
Layer_1
 62
7
100
AcDbLine
 10
60.945550
 20
6.106320
 30
0.0
 11
60.945550
 21
6.451190
 31
0.0
  0
LINE
  5
43d
100
AcDbEntity
  8
Layer_1
 62
7
100
AcDbLine
 10
60.945550
 20
6.451190
 30
0.0
 11
60.945550
 21
6.796070
 31
0.0
  0
LINE
  5
43e
100
AcDbEntity
  8
Layer_1
 62
7
100
AcDbLine
 10
60.945550
 20
6.796070
 30
0.0
 11
60.945550
 21
7.140940
 31
0.0
  0
LINE
  5
43f
100
AcDbEntity
  8
Layer_1
 62
7
100
AcDbLine
 10
60.945550
 20
7.140940
 30
0.0
 11
60.945550
 21
7.485820
 31
0.0
  0
LINE
  5
440
100
AcDbEntity
  8
Layer_1
 62
7
100
AcDbLine
 10
60.945550
 20
7.485820
 30
0.0
 11
60.080940
 21
7.485820
 31
0.0
  0
LINE
  5
441
100
AcDbEntity
  8
Layer_1
 62
7
100
AcDbLine
 10
60.080940
 20
7.485820
 30
0.0
 11
59.216330
 21
7.485820
 31
0.0
  0
LINE
  5
442
100
AcDbEntity
  8
Layer_1
 62
7
100
AcDbLine
 10
59.216330
 20
7.485820
 30
0.0
 11
58.351710
 21
7.485820
 31
0.0
  0
LINE
  5
443
100
AcDbEntity
  8
Layer_1
 62
7
100
AcDbLine
 10
58.351710
 20
7.485820
 30
0.0
 11
57.487100
 21
7.485820
 31
0.0
  0
LINE
  5
444
100
AcDbEntity
  8
Layer_1
 62
7
100
AcDbLine
 10
57.487100
 20
7.485820
 30
0.0
 11
56.622490
 21
7.485820
 31
0.0
  0
LINE
  5
445
100
AcDbEntity
  8
Layer_1
 62
7
100
AcDbLine
 10
56.622490
 20
7.485820
 30
0.0
 11
55.757880
 21
7.485820
 31
0.0
  0
LINE
  5
446
100
AcDbEntity
  8
Layer_1
 62
7
100
AcDbLine
 10
55.757880
 20
7.485820
 30
0.0
 11
54.893270
 21
7.485820
 31
0.0
  0
LINE
  5
447
100
AcDbEntity
  8
Layer_1
 62
7
100
AcDbLine
 10
54.893270
 20
7.485820
 30
0.0
 11
54.028660
 21
7.485820
 31
0.0
  0
LINE
  5
448
100
AcDbEntity
  8
Layer_1
 62
7
100
AcDbLine
 10
54.028660
 20
7.485820
 30
0.0
 11
54.028660
 21
6.644140
 31
0.0
  0
LINE
  5
449
100
AcDbEntity
  8
Layer_1
 62
7
100
AcDbLine
 10
54.028660
 20
6.644140
 30
0.0
 11
54.028660
 21
5.802460
 31
0.0
  0
LINE
  5
44a
100
AcDbEntity
  8
Layer_1
 62
7
100
AcDbLine
 10
54.028660
 20
5.802460
 30
0.0
 11
54.028660
 21
4.960780
 31
0.0
  0
LINE
  5
44b
100
AcDbEntity
  8
Layer_1
 62
7
100
AcDbLine
 10
54.028660
 20
4.960780
 30
0.0
 11
54.028660
 21
4.119100
 31
0.0
  0
LINE
  5
44c
100
AcDbEntity
  8
Layer_1
 62
7
100
AcDbLine
 10
54.028660
 20
4.119100
 30
0.0
 11
54.028660
 21
3.277420
 31
0.0
  0
LINE
  5
44d
100
AcDbEntity
  8
Layer_1
 62
7
100
AcDbLine
 10
54.028660
 20
3.277420
 30
0.0
 11
54.028660
 21
2.435740
 31
0.0
  0
LINE
  5
44e
100
AcDbEntity
  8
Layer_1
 62
7
100
AcDbLine
 10
54.028660
 20
2.435740
 30
0.0
 11
54.028660
 21
1.594060
 31
0.0
  0
LINE
  5
44f
100
AcDbEntity
  8
Layer_1
 62
7
100
AcDbLine
 10
54.028660
 20
1.594060
 30
0.0
 11
54.028660
 21
0.752380
 31
0.0
  0
LINE
  5
450
100
AcDbEntity
  8
Layer_1
 62
7
100
AcDbLine
 10
54.028660
 20
0.752380
 30
0.0
 11
53.737380
 21
1.361920
 31
0.0
  0
LINE
  5
451
100
AcDbEntity
  8
Layer_1
 62
7
100
AcDbLine
 10
53.737380
 20
1.361920
 30
0.0
 11
53.412470
 21
1.953430
 31
0.0
  0
LINE
  5
452
100
AcDbEntity
  8
Layer_1
 62
7
100
AcDbLine
 10
53.412470
 20
1.953430
 30
0.0
 11
53.054860
 21
2.525670
 31
0.0
  0
LINE
  5
453
100
AcDbEntity
  8
Layer_1
 62
7
100
AcDbLine
 10
53.054860
 20
2.525670
 30
0.0
 11
52.665500
 21
3.077380
 31
0.0
  0
LINE
  5
454
100
AcDbEntity
  8
Layer_1
 62
7
100
AcDbLine
 10
52.665500
 20
3.077380
 30
0.0
 11
52.245320
 21
3.607310
 31
0.0
  0
LINE
  5
455
100
AcDbEntity
  8
Layer_1
 62
7
100
AcDbLine
 10
52.245320
 20
3.607310
 30
0.0
 11
51.795250
 21
4.114210
 31
0.0
  0
LINE
  5
456
100
AcDbEntity
  8
Layer_1
 62
7
100
AcDbLine
 10
51.795250
 20
4.114210
 30
0.0
 11
51.316240
 21
4.596830
 31
0.0
  0
LINE
  5
457
100
AcDbEntity
  8
Layer_1
 62
7
100
AcDbLine
 10
51.316240
 20
4.596830
 30
0.0
 11
50.809220
 21
5.053920
 31
0.0
  0
LINE
  5
458
100
AcDbEntity
  8
Layer_1
 62
7
100
AcDbLine
 10
50.809220
 20
5.053920
 30
0.0
 11
49.930920
 21
5.736070
 31
0.0
  0
LINE
  5
459
100
AcDbEntity
  8
Layer_1
 62
7
100
AcDbLine
 10
49.930920
 20
5.736070
 30
0.0
 11
48.998670
 21
6.334920
 31
0.0
  0
LINE
  5
45a
100
AcDbEntity
  8
Layer_1
 62
7
100
AcDbLine
 10
48.998670
 20
6.334920
 30
0.0
 11
48.018800
 21
6.848190
 31
0.0
  0
LINE
  5
45b
100
AcDbEntity
  8
Layer_1
 62
7
100
AcDbLine
 10
48.018800
 20
6.848190
 30
0.0
 11
46.997610
 21
7.273550
 31
0.0
  0
LINE
  5
45c
100
AcDbEntity
  8
Layer_1
 62
7
100
AcDbLine
 10
46.997610
 20
7.273550
 30
0.0
 11
45.941450
 21
7.608680
 31
0.0
  0
LINE
  5
45d
100
AcDbEntity
  8
Layer_1
 62
7
100
AcDbLine
 10
45.941450
 20
7.608680
 30
0.0
 11
44.856620
 21
7.851280
 31
0.0
  0
LINE
  5
45e
100
AcDbEntity
  8
Layer_1
 62
7
100
AcDbLine
 10
44.856620
 20
7.851280
 30
0.0
 11
43.749441
 21
7.999030
 31
0.0
  0
LINE
  5
45f
100
AcDbEntity
  8
Layer_1
 62
7
100
AcDbLine
 10
43.749441
 20
7.999030
 30
0.0
 11
42.626251
 21
8.049630
 31
0.0
  0
LINE
  5
460
100
AcDbEntity
  8
Layer_1
 62
7
100
AcDbLine
 10
42.626251
 20
8.049630
 30
0.0
 11
40.572501
 21
7.884290
 31
0.0
  0
LINE
  5
461
100
AcDbEntity
  8
Layer_1
 62
7
100
AcDbLine
 10
40.572501
 20
7.884290
 30
0.0
 11
38.614411
 21
7.404290
 31
0.0
  0
LINE
  5
462
100
AcDbEntity
  8
Layer_1
 62
7
100
AcDbLine
 10
38.614411
 20
7.404290
 30
0.0
 11
36.783681
 21
6.633030
 31
0.0
  0
LINE
  5
463
100
AcDbEntity
  8
Layer_1
 62
7
100
AcDbLine
 10
36.783681
 20
6.633030
 30
0.0
 11
35.112071
 21
5.593860
 31
0.0
  0
LINE
  5
464
100
AcDbEntity
  8
Layer_1
 62
7
100
AcDbLine
 10
35.112071
 20
5.593860
 30
0.0
 11
33.631291
 21
4.310190
 31
0.0
  0
LINE
  5
465
100
AcDbEntity
  8
Layer_1
 62
7
100
AcDbLine
 10
33.631291
 20
4.310190
 30
0.0
 11
32.373081
 21
2.805380
 31
0.0
  0
LINE
  5
466
100
AcDbEntity
  8
Layer_1
 62
7
100
AcDbLine
 10
32.373081
 20
2.805380
 30
0.0
 11
31.369161
 21
1.102820
 31
0.0
  0
LINE
  5
467
100
AcDbEntity
  8
Layer_1
 62
7
100
AcDbLine
 10
31.369161
 20
1.102820
 30
0.0
 11
30.651271
 21
-0.774120
 31
0.0
  0
LINE
  5
468
100
AcDbEntity
  8
Layer_1
 62
7
100
AcDbLine
 10
30.651271
 20
-0.774120
 30
0.0
 11
30.504071
 21
-0.116940
 31
0.0
  0
LINE
  5
469
100
AcDbEntity
  8
Layer_1
 62
7
100
AcDbLine
 10
30.504071
 20
-0.116940
 30
0.0
 11
30.317441
 21
0.528510
 31
0.0
  0
LINE
  5
46a
100
AcDbEntity
  8
Layer_1
 62
7
100
AcDbLine
 10
30.317441
 20
0.528510
 30
0.0
 11
30.092061
 21
1.160450
 31
0.0
  0
LINE
  5
46b
100
AcDbEntity
  8
Layer_1
 62
7
100
AcDbLine
 10
30.092061
 20
1.160450
 30
0.0
 11
29.828631
 21
1.777100
 31
0.0
  0
LINE
  5
46c
100
AcDbEntity
  8
Layer_1
 62
7
100
AcDbLine
 10
29.828631
 20
1.777100
 30
0.0
 11
29.527831
 21
2.376710
 31
0.0
  0
LINE
  5
46d
100
AcDbEntity
  8
Layer_1
 62
7
100
AcDbLine
 10
29.527831
 20
2.376710
 30
0.0
 11
29.190331
 21
2.957510
 31
0.0
  0
LINE
  5
46e
100
AcDbEntity
  8
Layer_1
 62
7
100
AcDbLine
 10
29.190331
 20
2.957510
 30
0.0
 11
28.816821
 21
3.517710
 31
0.0
  0
LINE
  5
46f
100
AcDbEntity
  8
Layer_1
 62
7
100
AcDbLine
 10
28.816821
 20
3.517710
 30
0.0
 11
28.408001
 21
4.055560
 31
0.0
  0
LINE
  5
470
100
AcDbEntity
  8
Layer_1
 62
7
100
AcDbLine
 10
28.408001
 20
4.055560
 30
0.0
 11
28.683631
 21
4.509660
 31
0.0
  0
LINE
  5
471
100
AcDbEntity
  8
Layer_1
 62
7
100
AcDbLine
 10
28.683631
 20
4.509660
 30
0.0
 11
28.959261
 21
4.963770
 31
0.0
  0
LINE
  5
472
100
AcDbEntity
  8
Layer_1
 62
7
100
AcDbLine
 10
28.959261
 20
4.963770
 30
0.0
 11
29.234891
 21
5.417880
 31
0.0
  0
LINE
  5
473
100
AcDbEntity
  8
Layer_1
 62
7
100
AcDbLine
 10
29.234891
 20
5.417880
 30
0.0
 11
29.510521
 21
5.871980
 31
0.0
  0
LINE
  5
474
100
AcDbEntity
  8
Layer_1
 62
7
100
AcDbLine
 10
29.510521
 20
5.871980
 30
0.0
 11
29.786141
 21
6.326090
 31
0.0
  0
LINE
  5
475
100
AcDbEntity
  8
Layer_1
 62
7
100
AcDbLine
 10
29.786141
 20
6.326090
 30
0.0
 11
30.061771
 21
6.780200
 31
0.0
  0
LINE
  5
476
100
AcDbEntity
  8
Layer_1
 62
7
100
AcDbLine
 10
30.061771
 20
6.780200
 30
0.0
 11
30.337401
 21
7.234300
 31
0.0
  0
LINE
  5
477
100
AcDbEntity
  8
Layer_1
 62
7
100
AcDbLine
 10
30.337401
 20
7.234300
 30
0.0
 11
30.613031
 21
7.688410
 31
0.0
  0
LINE
  5
478
100
AcDbEntity
  8
Layer_1
 62
7
100
AcDbLine
 10
30.613031
 20
7.688410
 30
0.0
 11
29.676201
 21
7.688410
 31
0.0
  0
LINE
  5
479
100
AcDbEntity
  8
Layer_1
 62
7
100
AcDbLine
 10
29.676201
 20
7.688410
 30
0.0
 11
28.739381
 21
7.688410
 31
0.0
  0
LINE
  5
47a
100
AcDbEntity
  8
Layer_1
 62
7
100
AcDbLine
 10
28.739381
 20
7.688410
 30
0.0
 11
27.802551
 21
7.688410
 31
0.0
  0
LINE
  5
47b
100
AcDbEntity
  8
Layer_1
 62
7
100
AcDbLine
 10
27.802551
 20
7.688410
 30
0.0
 11
26.865721
 21
7.688410
 31
0.0
  0
LINE
  5
47c
100
AcDbEntity
  8
Layer_1
 62
7
100
AcDbLine
 10
26.865721
 20
7.688410
 30
0.0
 11
25.928891
 21
7.688410
 31
0.0
  0
LINE
  5
47d
100
AcDbEntity
  8
Layer_1
 62
7
100
AcDbLine
 10
25.928891
 20
7.688410
 30
0.0
 11
24.992061
 21
7.688410
 31
0.0
  0
LINE
  5
47e
100
AcDbEntity
  8
Layer_1
 62
7
100
AcDbLine
 10
24.992061
 20
7.688410
 30
0.0
 11
24.055231
 21
7.688410
 31
0.0
  0
LINE
  5
47f
100
AcDbEntity
  8
Layer_1
 62
7
100
AcDbLine
 10
24.055231
 20
7.688410
 30
0.0
 11
23.118400
 21
7.688410
 31
0.0
  0
LINE
  5
480
100
AcDbEntity
  8
Layer_1
 62
7
100
AcDbLine
 10
23.118400
 20
7.688410
 30
0.0
 11
23.118400
 21
7.680410
 31
0.0
  0
LINE
  5
481
100
AcDbEntity
  8
Layer_1
 62
7
100
AcDbLine
 10
23.118400
 20
7.680410
 30
0.0
 11
23.118400
 21
7.672410
 31
0.0
  0
LINE
  5
482
100
AcDbEntity
  8
Layer_1
 62
7
100
AcDbLine
 10
23.118400
 20
7.672410
 30
0.0
 11
23.118400
 21
7.664410
 31
0.0
  0
LINE
  5
483
100
AcDbEntity
  8
Layer_1
 62
7
100
AcDbLine
 10
23.118400
 20
7.664410
 30
0.0
 11
23.118400
 21
7.656410
 31
0.0
  0
LINE
  5
484
100
AcDbEntity
  8
Layer_1
 62
7
100
AcDbLine
 10
23.118400
 20
7.656410
 30
0.0
 11
23.118400
 21
7.648410
 31
0.0
  0
LINE
  5
485
100
AcDbEntity
  8
Layer_1
 62
7
100
AcDbLine
 10
23.118400
 20
7.648410
 30
0.0
 11
23.118400
 21
7.640410
 31
0.0
  0
LINE
  5
486
100
AcDbEntity
  8
Layer_1
 62
7
100
AcDbLine
 10
23.118400
 20
7.640410
 30
0.0
 11
23.118400
 21
7.632410
 31
0.0
  0
LINE
  5
487
100
AcDbEntity
  8
Layer_1
 62
7
100
AcDbLine
 10
23.118400
 20
7.632410
 30
0.0
 11
23.118400
 21
7.624410
 31
0.0
  0
LINE
  5
488
100
AcDbEntity
  8
Layer_1
 62
7
100
AcDbLine
 10
23.118400
 20
7.624410
 30
0.0
 11
22.726870
 21
7.736530
 31
0.0
  0
LINE
  5
489
100
AcDbEntity
  8
Layer_1
 62
7
100
AcDbLine
 10
22.726870
 20
7.736530
 30
0.0
 11
22.331860
 21
7.833930
 31
0.0
  0
LINE
  5
48a
100
AcDbEntity
  8
Layer_1
 62
7
100
AcDbLine
 10
22.331860
 20
7.833930
 30
0.0
 11
21.933780
 21
7.916530
 31
0.0
  0
LINE
  5
48b
100
AcDbEntity
  8
Layer_1
 62
7
100
AcDbLine
 10
21.933780
 20
7.916530
 30
0.0
 11
21.533040
 21
7.984230
 31
0.0
  0
LINE
  5
48c
100
AcDbEntity
  8
Layer_1
 62
7
100
AcDbLine
 10
21.533040
 20
7.984230
 30
0.0
 11
21.130060
 21
8.037030
 31
0.0
  0
LINE
  5
48d
100
AcDbEntity
  8
Layer_1
 62
7
100
AcDbLine
 10
21.130060
 20
8.037030
 30
0.0
 11
20.725270
 21
8.074930
 31
0.0
  0
LINE
  5
48e
100
AcDbEntity
  8
Layer_1
 62
7
100
AcDbLine
 10
20.725270
 20
8.074930
 30
0.0
 11
20.319070
 21
8.097730
 31
0.0
  0
LINE
  5
48f
100
AcDbEntity
  8
Layer_1
 62
7
100
AcDbLine
 10
20.319070
 20
8.097730
 30
0.0
 11
19.911830
 21
8.104940
 31
0.0
  0
LINE
  5
490
100
AcDbEntity
  8
Layer_1
 62
7
100
AcDbLine
 10
-12.061410
 20
7.485860
 30
0.0
 11
-12.061410
 21
4.589530
 31
0.0
  0
LINE
  5
491
100
AcDbEntity
  8
Layer_1
 62
7
100
AcDbLine
 10
-12.061410
 20
4.589530
 30
0.0
 11
-12.061410
 21
1.693190
 31
0.0
  0
LINE
  5
492
100
AcDbEntity
  8
Layer_1
 62
7
100
AcDbLine
 10
-12.061410
 20
1.693190
 30
0.0
 11
-12.061410
 21
-1.203140
 31
0.0
  0
LINE
  5
493
100
AcDbEntity
  8
Layer_1
 62
7
100
AcDbLine
 10
-12.061410
 20
-1.203140
 30
0.0
 11
-12.061410
 21
-4.099480
 31
0.0
  0
LINE
  5
494
100
AcDbEntity
  8
Layer_1
 62
7
100
AcDbLine
 10
-12.061410
 20
-4.099480
 30
0.0
 11
-12.061410
 21
-6.995810
 31
0.0
  0
LINE
  5
495
100
AcDbEntity
  8
Layer_1
 62
7
100
AcDbLine
 10
-12.061410
 20
-6.995810
 30
0.0
 11
-12.061410
 21
-9.892150
 31
0.0
  0
LINE
  5
496
100
AcDbEntity
  8
Layer_1
 62
7
100
AcDbLine
 10
-12.061410
 20
-9.892150
 30
0.0
 11
-12.061410
 21
-12.788480
 31
0.0
  0
LINE
  5
497
100
AcDbEntity
  8
Layer_1
 62
7
100
AcDbLine
 10
-12.061410
 20
-12.788480
 30
0.0
 11
-12.061410
 21
-15.684820
 31
0.0
  0
LINE
  5
498
100
AcDbEntity
  8
Layer_1
 62
7
100
AcDbLine
 10
-12.061410
 20
-15.684820
 30
0.0
 11
-11.105200
 21
-15.684820
 31
0.0
  0
LINE
  5
499
100
AcDbEntity
  8
Layer_1
 62
7
100
AcDbLine
 10
-11.105200
 20
-15.684820
 30
0.0
 11
-10.148990
 21
-15.684820
 31
0.0
  0
LINE
  5
49a
100
AcDbEntity
  8
Layer_1
 62
7
100
AcDbLine
 10
-10.148990
 20
-15.684820
 30
0.0
 11
-9.192790
 21
-15.684820
 31
0.0
  0
LINE
  5
49b
100
AcDbEntity
  8
Layer_1
 62
7
100
AcDbLine
 10
-9.192790
 20
-15.684820
 30
0.0
 11
-8.236580
 21
-15.684820
 31
0.0
  0
LINE
  5
49c
100
AcDbEntity
  8
Layer_1
 62
7
100
AcDbLine
 10
-8.236580
 20
-15.684820
 30
0.0
 11
-7.280370
 21
-15.684820
 31
0.0
  0
LINE
  5
49d
100
AcDbEntity
  8
Layer_1
 62
7
100
AcDbLine
 10
-7.280370
 20
-15.684820
 30
0.0
 11
-6.324160
 21
-15.684820
 31
0.0
  0
LINE
  5
49e
100
AcDbEntity
  8
Layer_1
 62
7
100
AcDbLine
 10
-6.324160
 20
-15.684820
 30
0.0
 11
-5.367950
 21
-15.684820
 31
0.0
  0
LINE
  5
49f
100
AcDbEntity
  8
Layer_1
 62
7
100
AcDbLine
 10
-5.367950
 20
-15.684820
 30
0.0
 11
-4.411750
 21
-15.684820
 31
0.0
  0
LINE
  5
4a0
100
AcDbEntity
  8
Layer_1
 62
7
100
AcDbLine
 10
-4.411750
 20
-15.684820
 30
0.0
 11
-4.411750
 21
-13.896680
 31
0.0
  0
LINE
  5
4a1
100
AcDbEntity
  8
Layer_1
 62
7
100
AcDbLine
 10
-4.411750
 20
-13.896680
 30
0.0
 11
-4.411750
 21
-12.108550
 31
0.0
  0
LINE
  5
4a2
100
AcDbEntity
  8
Layer_1
 62
7
100
AcDbLine
 10
-4.411750
 20
-12.108550
 30
0.0
 11
-4.411750
 21
-10.320420
 31
0.0
  0
LINE
  5
4a3
100
AcDbEntity
  8
Layer_1
 62
7
100
AcDbLine
 10
-4.411750
 20
-10.320420
 30
0.0
 11
-4.411750
 21
-8.532280
 31
0.0
  0
LINE
  5
4a4
100
AcDbEntity
  8
Layer_1
 62
7
100
AcDbLine
 10
-4.411750
 20
-8.532280
 30
0.0
 11
-4.411750
 21
-6.744150
 31
0.0
  0
LINE
  5
4a5
100
AcDbEntity
  8
Layer_1
 62
7
100
AcDbLine
 10
-4.411750
 20
-6.744150
 30
0.0
 11
-4.411750
 21
-4.956020
 31
0.0
  0
LINE
  5
4a6
100
AcDbEntity
  8
Layer_1
 62
7
100
AcDbLine
 10
-4.411750
 20
-4.956020
 30
0.0
 11
-4.411750
 21
-3.167880
 31
0.0
  0
LINE
  5
4a7
100
AcDbEntity
  8
Layer_1
 62
7
100
AcDbLine
 10
-4.411750
 20
-3.167880
 30
0.0
 11
-4.411750
 21
-1.379750
 31
0.0
  0
LINE
  5
4a8
100
AcDbEntity
  8
Layer_1
 62
7
100
AcDbLine
 10
-4.411750
 20
-1.379750
 30
0.0
 11
-4.371250
 21
-0.881190
 31
0.0
  0
LINE
  5
4a9
100
AcDbEntity
  8
Layer_1
 62
7
100
AcDbLine
 10
-4.371250
 20
-0.881190
 30
0.0
 11
-4.251190
 21
-0.428140
 31
0.0
  0
LINE
  5
4aa
100
AcDbEntity
  8
Layer_1
 62
7
100
AcDbLine
 10
-4.251190
 20
-0.428140
 30
0.0
 11
-4.053810
 21
-0.027230
 31
0.0
  0
LINE
  5
4ab
100
AcDbEntity
  8
Layer_1
 62
7
100
AcDbLine
 10
-4.053810
 20
-0.027230
 30
0.0
 11
-3.781330
 21
0.314920
 31
0.0
  0
LINE
  5
4ac
100
AcDbEntity
  8
Layer_1
 62
7
100
AcDbLine
 10
-3.781330
 20
0.314920
 30
0.0
 11
-3.435990
 21
0.591660
 31
0.0
  0
LINE
  5
4ad
100
AcDbEntity
  8
Layer_1
 62
7
100
AcDbLine
 10
-3.435990
 20
0.591660
 30
0.0
 11
-3.020010
 21
0.796390
 31
0.0
  0
LINE
  5
4ae
100
AcDbEntity
  8
Layer_1
 62
7
100
AcDbLine
 10
-3.020010
 20
0.796390
 30
0.0
 11
-2.535620
 21
0.922460
 31
0.0
  0
LINE
  5
4af
100
AcDbEntity
  8
Layer_1
 62
7
100
AcDbLine
 10
-2.535620
 20
0.922460
 30
0.0
 11
-1.985040
 21
0.963260
 31
0.0
  0
LINE
  5
4b0
100
AcDbEntity
  8
Layer_1
 62
7
100
AcDbLine
 10
-1.985040
 20
0.963260
 30
0.0
 11
-1.501890
 21
0.937360
 31
0.0
  0
LINE
  5
4b1
100
AcDbEntity
  8
Layer_1
 62
7
100
AcDbLine
 10
-1.501890
 20
0.937360
 30
0.0
 11
-1.056660
 21
0.858760
 31
0.0
  0
LINE
  5
4b2
100
AcDbEntity
  8
Layer_1
 62
7
100
AcDbLine
 10
-1.056660
 20
0.858760
 30
0.0
 11
-0.657500
 21
0.715610
 31
0.0
  0
LINE
  5
4b3
100
AcDbEntity
  8
Layer_1
 62
7
100
AcDbLine
 10
-0.657500
 20
0.715610
 30
0.0
 11
-0.312600
 21
0.496190
 31
0.0
  0
LINE
  5
4b4
100
AcDbEntity
  8
Layer_1
 62
7
100
AcDbLine
 10
-0.312600
 20
0.496190
 30
0.0
 11
-0.030130
 21
0.188720
 31
0.0
  0
LINE
  5
4b5
100
AcDbEntity
  8
Layer_1
 62
7
100
AcDbLine
 10
-0.030130
 20
0.188720
 30
0.0
 11
0.181760
 21
-0.218570
 31
0.0
  0
LINE
  5
4b6
100
AcDbEntity
  8
Layer_1
 62
7
100
AcDbLine
 10
0.181760
 20
-0.218570
 30
0.0
 11
0.314880
 21
-0.737450
 31
0.0
  0
LINE
  5
4b7
100
AcDbEntity
  8
Layer_1
 62
7
100
AcDbLine
 10
0.314880
 20
-0.737450
 30
0.0
 11
0.361080
 21
-1.379690
 31
0.0
  0
LINE
  5
4b8
100
AcDbEntity
  8
Layer_1
 62
7
100
AcDbLine
 10
0.361080
 20
-1.379690
 30
0.0
 11
0.361080
 21
-3.167820
 31
0.0
  0
LINE
  5
4b9
100
AcDbEntity
  8
Layer_1
 62
7
100
AcDbLine
 10
0.361080
 20
-3.167820
 30
0.0
 11
0.361080
 21
-4.955960
 31
0.0
  0
LINE
  5
4ba
100
AcDbEntity
  8
Layer_1
 62
7
100
AcDbLine
 10
0.361080
 20
-4.955960
 30
0.0
 11
0.361080
 21
-6.744090
 31
0.0
  0
LINE
  5
4bb
100
AcDbEntity
  8
Layer_1
 62
7
100
AcDbLine
 10
0.361080
 20
-6.744090
 30
0.0
 11
0.361080
 21
-8.532220
 31
0.0
  0
LINE
  5
4bc
100
AcDbEntity
  8
Layer_1
 62
7
100
AcDbLine
 10
0.361080
 20
-8.532220
 30
0.0
 11
0.361080
 21
-10.320360
 31
0.0
  0
LINE
  5
4bd
100
AcDbEntity
  8
Layer_1
 62
7
100
AcDbLine
 10
0.361080
 20
-10.320360
 30
0.0
 11
0.361080
 21
-12.108490
 31
0.0
  0
LINE
  5
4be
100
AcDbEntity
  8
Layer_1
 62
7
100
AcDbLine
 10
0.361080
 20
-12.108490
 30
0.0
 11
0.361080
 21
-13.896620
 31
0.0
  0
LINE
  5
4bf
100
AcDbEntity
  8
Layer_1
 62
7
100
AcDbLine
 10
0.361080
 20
-13.896620
 30
0.0
 11
0.361080
 21
-15.684760
 31
0.0
  0
LINE
  5
4c0
100
AcDbEntity
  8
Layer_1
 62
7
100
AcDbLine
 10
0.361080
 20
-15.684760
 30
0.0
 11
1.361531
 21
-15.684760
 31
0.0
  0
LINE
  5
4c1
100
AcDbEntity
  8
Layer_1
 62
7
100
AcDbLine
 10
1.361531
 20
-15.684760
 30
0.0
 11
2.361991
 21
-15.684760
 31
0.0
  0
LINE
  5
4c2
100
AcDbEntity
  8
Layer_1
 62
7
100
AcDbLine
 10
2.361991
 20
-15.684760
 30
0.0
 11
3.362441
 21
-15.684760
 31
0.0
  0
LINE
  5
4c3
100
AcDbEntity
  8
Layer_1
 62
7
100
AcDbLine
 10
3.362441
 20
-15.684760
 30
0.0
 11
4.362901
 21
-15.684760
 31
0.0
  0
LINE
  5
4c4
100
AcDbEntity
  8
Layer_1
 62
7
100
AcDbLine
 10
4.362901
 20
-15.684760
 30
0.0
 11
5.363361
 21
-15.684760
 31
0.0
  0
LINE
  5
4c5
100
AcDbEntity
  8
Layer_1
 62
7
100
AcDbLine
 10
5.363361
 20
-15.684760
 30
0.0
 11
6.363811
 21
-15.684760
 31
0.0
  0
LINE
  5
4c6
100
AcDbEntity
  8
Layer_1
 62
7
100
AcDbLine
 10
6.363811
 20
-15.684760
 30
0.0
 11
7.364271
 21
-15.684760
 31
0.0
  0
LINE
  5
4c7
100
AcDbEntity
  8
Layer_1
 62
7
100
AcDbLine
 10
7.364271
 20
-15.684760
 30
0.0
 11
8.364721
 21
-15.684760
 31
0.0
  0
LINE
  5
4c8
100
AcDbEntity
  8
Layer_1
 62
7
100
AcDbLine
 10
8.364721
 20
-15.684760
 30
0.0
 11
8.364721
 21
-13.570870
 31
0.0
  0
LINE
  5
4c9
100
AcDbEntity
  8
Layer_1
 62
7
100
AcDbLine
 10
8.364721
 20
-13.570870
 30
0.0
 11
8.364721
 21
-11.456980
 31
0.0
  0
LINE
  5
4ca
100
AcDbEntity
  8
Layer_1
 62
7
100
AcDbLine
 10
8.364721
 20
-11.456980
 30
0.0
 11
8.364721
 21
-9.343090
 31
0.0
  0
LINE
  5
4cb
100
AcDbEntity
  8
Layer_1
 62
7
100
AcDbLine
 10
8.364721
 20
-9.343090
 30
0.0
 11
8.364721
 21
-7.229200
 31
0.0
  0
LINE
  5
4cc
100
AcDbEntity
  8
Layer_1
 62
7
100
AcDbLine
 10
8.364721
 20
-7.229200
 30
0.0
 11
8.364721
 21
-5.115310
 31
0.0
  0
LINE
  5
4cd
100
AcDbEntity
  8
Layer_1
 62
7
100
AcDbLine
 10
8.364721
 20
-5.115310
 30
0.0
 11
8.364721
 21
-3.001420
 31
0.0
  0
LINE
  5
4ce
100
AcDbEntity
  8
Layer_1
 62
7
100
AcDbLine
 10
8.364721
 20
-3.001420
 30
0.0
 11
8.364721
 21
-0.887530
 31
0.0
  0
LINE
  5
4cf
100
AcDbEntity
  8
Layer_1
 62
7
100
AcDbLine
 10
8.364721
 20
-0.887530
 30
0.0
 11
8.364721
 21
1.226350
 31
0.0
  0
LINE
  5
4d0
100
AcDbEntity
  8
Layer_1
 62
7
100
AcDbLine
 10
8.364721
 20
1.226350
 30
0.0
 11
8.267321
 21
2.643170
 31
0.0
  0
LINE
  5
4d1
100
AcDbEntity
  8
Layer_1
 62
7
100
AcDbLine
 10
8.267321
 20
2.643170
 30
0.0
 11
7.970681
 21
3.891050
 31
0.0
  0
LINE
  5
4d2
100
AcDbEntity
  8
Layer_1
 62
7
100
AcDbLine
 10
7.970681
 20
3.891050
 30
0.0
 11
7.468291
 21
4.963840
 31
0.0
  0
LINE
  5
4d3
100
AcDbEntity
  8
Layer_1
 62
7
100
AcDbLine
 10
7.468291
 20
4.963840
 30
0.0
 11
6.753621
 21
5.855370
 31
0.0
  0
LINE
  5
4d4
100
AcDbEntity
  8
Layer_1
 62
7
100
AcDbLine
 10
6.753621
 20
5.855370
 30
0.0
 11
5.820161
 21
6.559510
 31
0.0
  0
LINE
  5
4d5
100
AcDbEntity
  8
Layer_1
 62
7
100
AcDbLine
 10
5.820161
 20
6.559510
 30
0.0
 11
4.661361
 21
7.070080
 31
0.0
  0
LINE
  5
4d6
100
AcDbEntity
  8
Layer_1
 62
7
100
AcDbLine
 10
4.661361
 20
7.070080
 30
0.0
 11
3.270701
 21
7.380940
 31
0.0
  0
LINE
  5
4d7
100
AcDbEntity
  8
Layer_1
 62
7
100
AcDbLine
 10
3.270701
 20
7.380940
 30
0.0
 11
1.641651
 21
7.485920
 31
0.0
  0
LINE
  5
4d8
100
AcDbEntity
  8
Layer_1
 62
7
100
AcDbLine
 10
1.641651
 20
7.485920
 30
0.0
 11
0.397380
 21
7.415620
 31
0.0
  0
LINE
  5
4d9
100
AcDbEntity
  8
Layer_1
 62
7
100
AcDbLine
 10
0.397380
 20
7.415620
 30
0.0
 11
-0.655330
 21
7.226320
 31
0.0
  0
LINE
  5
4da
100
AcDbEntity
  8
Layer_1
 62
7
100
AcDbLine
 10
-0.655330
 20
7.226320
 30
0.0
 11
-1.536400
 21
6.950380
 31
0.0
  0
LINE
  5
4db
100
AcDbEntity
  8
Layer_1
 62
7
100
AcDbLine
 10
-1.536400
 20
6.950380
 30
0.0
 11
-2.265700
 21
6.620180
 31
0.0
  0
LINE
  5
4dc
100
AcDbEntity
  8
Layer_1
 62
7
100
AcDbLine
 10
-2.265700
 20
6.620180
 30
0.0
 11
-2.863160
 21
6.268110
 31
0.0
  0
LINE
  5
4dd
100
AcDbEntity
  8
Layer_1
 62
7
100
AcDbLine
 10
-2.863160
 20
6.268110
 30
0.0
 11
-3.348660
 21
5.926540
 31
0.0
  0
LINE
  5
4de
100
AcDbEntity
  8
Layer_1
 62
7
100
AcDbLine
 10
-3.348660
 20
5.926540
 30
0.0
 11
-3.742120
 21
5.627840
 31
0.0
  0
LINE
  5
4df
100
AcDbEntity
  8
Layer_1
 62
7
100
AcDbLine
 10
-3.742120
 20
5.627840
 30
0.0
 11
-4.063430
 21
5.404390
 31
0.0
  0
LINE
  5
4e0
100
AcDbEntity
  8
Layer_1
 62
7
100
AcDbLine
 10
-4.063430
 20
5.404390
 30
0.0
 11
-4.083530
 21
5.664590
 31
0.0
  0
LINE
  5
4e1
100
AcDbEntity
  8
Layer_1
 62
7
100
AcDbLine
 10
-4.083530
 20
5.664590
 30
0.0
 11
-4.103630
 21
5.924780
 31
0.0
  0
LINE
  5
4e2
100
AcDbEntity
  8
Layer_1
 62
7
100
AcDbLine
 10
-4.103630
 20
5.924780
 30
0.0
 11
-4.123730
 21
6.184970
 31
0.0
  0
LINE
  5
4e3
100
AcDbEntity
  8
Layer_1
 62
7
100
AcDbLine
 10
-4.123730
 20
6.184970
 30
0.0
 11
-4.143830
 21
6.445160
 31
0.0
  0
LINE
  5
4e4
100
AcDbEntity
  8
Layer_1
 62
7
100
AcDbLine
 10
-4.143830
 20
6.445160
 30
0.0
 11
-4.163930
 21
6.705350
 31
0.0
  0
LINE
  5
4e5
100
AcDbEntity
  8
Layer_1
 62
7
100
AcDbLine
 10
-4.163930
 20
6.705350
 30
0.0
 11
-4.184030
 21
6.965540
 31
0.0
  0
LINE
  5
4e6
100
AcDbEntity
  8
Layer_1
 62
7
100
AcDbLine
 10
-4.184030
 20
6.965540
 30
0.0
 11
-4.204130
 21
7.225730
 31
0.0
  0
LINE
  5
4e7
100
AcDbEntity
  8
Layer_1
 62
7
100
AcDbLine
 10
-4.204130
 20
7.225730
 30
0.0
 11
-4.224230
 21
7.485920
 31
0.0
  0
LINE
  5
4e8
100
AcDbEntity
  8
Layer_1
 62
7
100
AcDbLine
 10
-4.224230
 20
7.485920
 30
0.0
 11
-5.203890
 21
7.485920
 31
0.0
  0
LINE
  5
4e9
100
AcDbEntity
  8
Layer_1
 62
7
100
AcDbLine
 10
-5.203890
 20
7.485920
 30
0.0
 11
-6.183550
 21
7.485920
 31
0.0
  0
LINE
  5
4ea
100
AcDbEntity
  8
Layer_1
 62
7
100
AcDbLine
 10
-6.183550
 20
7.485920
 30
0.0
 11
-7.163200
 21
7.485920
 31
0.0
  0
LINE
  5
4eb
100
AcDbEntity
  8
Layer_1
 62
7
100
AcDbLine
 10
-7.163200
 20
7.485920
 30
0.0
 11
-8.142860
 21
7.485920
 31
0.0
  0
LINE
  5
4ec
100
AcDbEntity
  8
Layer_1
 62
7
100
AcDbLine
 10
-8.142860
 20
7.485920
 30
0.0
 11
-9.122510
 21
7.485920
 31
0.0
  0
LINE
  5
4ed
100
AcDbEntity
  8
Layer_1
 62
7
100
AcDbLine
 10
-9.122510
 20
7.485920
 30
0.0
 11
-10.102170
 21
7.485920
 31
0.0
  0
LINE
  5
4ee
100
AcDbEntity
  8
Layer_1
 62
7
100
AcDbLine
 10
-10.102170
 20
7.485920
 30
0.0
 11
-11.081820
 21
7.485920
 31
0.0
  0
LINE
  5
4ef
100
AcDbEntity
  8
Layer_1
 62
7
100
AcDbLine
 10
-11.081820
 20
7.485920
 30
0.0
 11
-12.061410
 21
7.485860
 31
0.0
  0
LINE
  5
4f0
100
AcDbEntity
  8
Layer_1
 62
7
100
AcDbLine
 10
42.427251
 20
1.770450
 30
0.0
 11
42.797641
 21
1.753650
 31
0.0
  0
LINE
  5
4f1
100
AcDbEntity
  8
Layer_1
 62
7
100
AcDbLine
 10
42.797641
 20
1.753650
 30
0.0
 11
43.162891
 21
1.704250
 31
0.0
  0
LINE
  5
4f2
100
AcDbEntity
  8
Layer_1
 62
7
100
AcDbLine
 10
43.162891
 20
1.704250
 30
0.0
 11
43.520971
 21
1.623050
 31
0.0
  0
LINE
  5
4f3
100
AcDbEntity
  8
Layer_1
 62
7
100
AcDbLine
 10
43.520971
 20
1.623050
 30
0.0
 11
43.869841
 21
1.510800
 31
0.0
  0
LINE
  5
4f4
100
AcDbEntity
  8
Layer_1
 62
7
100
AcDbLine
 10
43.869841
 20
1.510800
 30
0.0
 11
44.207460
 21
1.368250
 31
0.0
  0
LINE
  5
4f5
100
AcDbEntity
  8
Layer_1
 62
7
100
AcDbLine
 10
44.207460
 20
1.368250
 30
0.0
 11
44.531810
 21
1.196170
 31
0.0
  0
LINE
  5
4f6
100
AcDbEntity
  8
Layer_1
 62
7
100
AcDbLine
 10
44.531810
 20
1.196170
 30
0.0
 11
44.840840
 21
0.995300
 31
0.0
  0
LINE
  5
4f7
100
AcDbEntity
  8
Layer_1
 62
7
100
AcDbLine
 10
44.840840
 20
0.995300
 30
0.0
 11
45.132510
 21
0.766390
 31
0.0
  0
LINE
  5
4f8
100
AcDbEntity
  8
Layer_1
 62
7
100
AcDbLine
 10
45.132510
 20
0.766390
 30
0.0
 11
44.323190
 21
0.155130
 31
0.0
  0
LINE
  5
4f9
100
AcDbEntity
  8
Layer_1
 62
7
100
AcDbLine
 10
44.323190
 20
0.155130
 30
0.0
 11
43.513881
 21
-0.456140
 31
0.0
  0
LINE
  5
4fa
100
AcDbEntity
  8
Layer_1
 62
7
100
AcDbLine
 10
43.513881
 20
-0.456140
 30
0.0
 11
42.704561
 21
-1.067410
 31
0.0
  0
LINE
  5
4fb
100
AcDbEntity
  8
Layer_1
 62
7
100
AcDbLine
 10
42.704561
 20
-1.067410
 30
0.0
 11
41.895241
 21
-1.678680
 31
0.0
  0
LINE
  5
4fc
100
AcDbEntity
  8
Layer_1
 62
7
100
AcDbLine
 10
41.895241
 20
-1.678680
 30
0.0
 11
41.085931
 21
-2.289940
 31
0.0
  0
LINE
  5
4fd
100
AcDbEntity
  8
Layer_1
 62
7
100
AcDbLine
 10
41.085931
 20
-2.289940
 30
0.0
 11
40.276611
 21
-2.901210
 31
0.0
  0
LINE
  5
4fe
100
AcDbEntity
  8
Layer_1
 62
7
100
AcDbLine
 10
40.276611
 20
-2.901210
 30
0.0
 11
39.467291
 21
-3.512480
 31
0.0
  0
LINE
  5
4ff
100
AcDbEntity
  8
Layer_1
 62
7
100
AcDbLine
 10
39.467291
 20
-3.512480
 30
0.0
 11
38.657971
 21
-4.123750
 31
0.0
  0
LINE
  5
500
100
AcDbEntity
  8
Layer_1
 62
7
100
AcDbLine
 10
38.657971
 20
-4.123750
 30
0.0
 11
38.568871
 21
-3.917220
 31
0.0
  0
LINE
  5
501
100
AcDbEntity
  8
Layer_1
 62
7
100
AcDbLine
 10
38.568871
 20
-3.917220
 30
0.0
 11
38.491171
 21
-3.706630
 31
0.0
  0
LINE
  5
502
100
AcDbEntity
  8
Layer_1
 62
7
100
AcDbLine
 10
38.491171
 20
-3.706630
 30
0.0
 11
38.425071
 21
-3.492470
 31
0.0
  0
LINE
  5
503
100
AcDbEntity
  8
Layer_1
 62
7
100
AcDbLine
 10
38.425071
 20
-3.492470
 30
0.0
 11
38.370671
 21
-3.275220
 31
0.0
  0
LINE
  5
504
100
AcDbEntity
  8
Layer_1
 62
7
100
AcDbLine
 10
38.370671
 20
-3.275220
 30
0.0
 11
38.328071
 21
-3.055350
 31
0.0
  0
LINE
  5
505
100
AcDbEntity
  8
Layer_1
 62
7
100
AcDbLine
 10
38.328071
 20
-3.055350
 30
0.0
 11
38.297371
 21
-2.833340
 31
0.0
  0
LINE
  5
506
100
AcDbEntity
  8
Layer_1
 62
7
100
AcDbLine
 10
38.297371
 20
-2.833340
 30
0.0
 11
38.278671
 21
-2.609680
 31
0.0
  0
LINE
  5
507
100
AcDbEntity
  8
Layer_1
 62
7
100
AcDbLine
 10
38.278671
 20
-2.609680
 30
0.0
 11
38.271671
 21
-2.384830
 31
0.0
  0
LINE
  5
508
100
AcDbEntity
  8
Layer_1
 62
7
100
AcDbLine
 10
38.271671
 20
-2.384830
 30
0.0
 11
38.356071
 21
-1.547400
 31
0.0
  0
LINE
  5
509
100
AcDbEntity
  8
Layer_1
 62
7
100
AcDbLine
 10
38.356071
 20
-1.547400
 30
0.0
 11
38.598201
 21
-0.767400
 31
0.0
  0
LINE
  5
50a
100
AcDbEntity
  8
Layer_1
 62
7
100
AcDbLine
 10
38.598201
 20
-0.767400
 30
0.0
 11
38.981311
 21
-0.061560
 31
0.0
  0
LINE
  5
50b
100
AcDbEntity
  8
Layer_1
 62
7
100
AcDbLine
 10
38.981311
 20
-0.061560
 30
0.0
 11
39.488711
 21
0.553410
 31
0.0
  0
LINE
  5
50c
100
AcDbEntity
  8
Layer_1
 62
7
100
AcDbLine
 10
39.488711
 20
0.553410
 30
0.0
 11
40.103681
 21
1.060810
 31
0.0
  0
LINE
  5
50d
100
AcDbEntity
  8
Layer_1
 62
7
100
AcDbLine
 10
40.103681
 20
1.060810
 30
0.0
 11
40.809521
 21
1.443930
 31
0.0
  0
LINE
  5
50e
100
AcDbEntity
  8
Layer_1
 62
7
100
AcDbLine
 10
40.809521
 20
1.443930
 30
0.0
 11
41.589521
 21
1.686050
 31
0.0
  0
LINE
  5
50f
100
AcDbEntity
  8
Layer_1
 62
7
100
AcDbLine
 10
41.589521
 20
1.686050
 30
0.0
 11
42.427251
 21
1.770450
 31
0.0
  0
LINE
  5
510
100
AcDbEntity
  8
Layer_1
 62
7
100
AcDbLine
 10
19.647760
 20
0.780840
 30
0.0
 11
20.269990
 21
0.718140
 31
0.0
  0
LINE
  5
511
100
AcDbEntity
  8
Layer_1
 62
7
100
AcDbLine
 10
20.269990
 20
0.718140
 30
0.0
 11
20.849530
 21
0.538290
 31
0.0
  0
LINE
  5
512
100
AcDbEntity
  8
Layer_1
 62
7
100
AcDbLine
 10
20.849530
 20
0.538290
 30
0.0
 11
21.374000
 21
0.253670
 31
0.0
  0
LINE
  5
513
100
AcDbEntity
  8
Layer_1
 62
7
100
AcDbLine
 10
21.374000
 20
0.253670
 30
0.0
 11
21.830950
 21
-0.123290
 31
0.0
  0
LINE
  5
514
100
AcDbEntity
  8
Layer_1
 62
7
100
AcDbLine
 10
21.830950
 20
-0.123290
 30
0.0
 11
22.207990
 21
-0.580180
 31
0.0
  0
LINE
  5
515
100
AcDbEntity
  8
Layer_1
 62
7
100
AcDbLine
 10
22.207990
 20
-0.580180
 30
0.0
 11
22.492690
 21
-1.104600
 31
0.0
  0
LINE
  5
516
100
AcDbEntity
  8
Layer_1
 62
7
100
AcDbLine
 10
22.492690
 20
-1.104600
 30
0.0
 11
22.672650
 21
-1.684120
 31
0.0
  0
LINE
  5
517
100
AcDbEntity
  8
Layer_1
 62
7
100
AcDbLine
 10
22.672650
 20
-1.684120
 30
0.0
 11
22.735450
 21
-2.306330
 31
0.0
  0
LINE
  5
518
100
AcDbEntity
  8
Layer_1
 62
7
100
AcDbLine
 10
22.735450
 20
-2.306330
 30
0.0
 11
22.672750
 21
-2.928620
 31
0.0
  0
LINE
  5
519
100
AcDbEntity
  8
Layer_1
 62
7
100
AcDbLine
 10
22.672750
 20
-2.928620
 30
0.0
 11
22.492850
 21
-3.508220
 31
0.0
  0
LINE
  5
51a
100
AcDbEntity
  8
Layer_1
 62
7
100
AcDbLine
 10
22.492850
 20
-3.508220
 30
0.0
 11
22.208180
 21
-4.032720
 31
0.0
  0
LINE
  5
51b
100
AcDbEntity
  8
Layer_1
 62
7
100
AcDbLine
 10
22.208180
 20
-4.032720
 30
0.0
 11
21.831150
 21
-4.489700
 31
0.0
  0
LINE
  5
51c
100
AcDbEntity
  8
Layer_1
 62
7
100
AcDbLine
 10
21.831150
 20
-4.489700
 30
0.0
 11
21.374170
 21
-4.866730
 31
0.0
  0
LINE
  5
51d
100
AcDbEntity
  8
Layer_1
 62
7
100
AcDbLine
 10
21.374170
 20
-4.866730
 30
0.0
 11
20.849670
 21
-5.151400
 31
0.0
  0
LINE
  5
51e
100
AcDbEntity
  8
Layer_1
 62
7
100
AcDbLine
 10
20.849670
 20
-5.151400
 30
0.0
 11
20.270070
 21
-5.331300
 31
0.0
  0
LINE
  5
51f
100
AcDbEntity
  8
Layer_1
 62
7
100
AcDbLine
 10
20.270070
 20
-5.331300
 30
0.0
 11
19.647770
 21
-5.394000
 31
0.0
  0
LINE
  5
520
100
AcDbEntity
  8
Layer_1
 62
7
100
AcDbLine
 10
19.647770
 20
-5.394000
 30
0.0
 11
19.025560
 21
-5.331200
 31
0.0
  0
LINE
  5
521
100
AcDbEntity
  8
Layer_1
 62
7
100
AcDbLine
 10
19.025560
 20
-5.331200
 30
0.0
 11
18.446050
 21
-5.151240
 31
0.0
  0
LINE
  5
522
100
AcDbEntity
  8
Layer_1
 62
7
100
AcDbLine
 10
18.446050
 20
-5.151240
 30
0.0
 11
17.921630
 21
-4.866540
 31
0.0
  0
LINE
  5
523
100
AcDbEntity
  8
Layer_1
 62
7
100
AcDbLine
 10
17.921630
 20
-4.866540
 30
0.0
 11
17.464740
 21
-4.489500
 31
0.0
  0
LINE
  5
524
100
AcDbEntity
  8
Layer_1
 62
7
100
AcDbLine
 10
17.464740
 20
-4.489500
 30
0.0
 11
17.087780
 21
-4.032550
 31
0.0
  0
LINE
  5
525
100
AcDbEntity
  8
Layer_1
 62
7
100
AcDbLine
 10
17.087780
 20
-4.032550
 30
0.0
 11
16.803160
 21
-3.508090
 31
0.0
  0
LINE
  5
526
100
AcDbEntity
  8
Layer_1
 62
7
100
AcDbLine
 10
16.803160
 20
-3.508090
 30
0.0
 11
16.623310
 21
-2.928540
 31
0.0
  0
LINE
  5
527
100
AcDbEntity
  8
Layer_1
 62
7
100
AcDbLine
 10
16.623310
 20
-2.928540
 30
0.0
 11
16.560610
 21
-2.306320
 31
0.0
  0
LINE
  5
528
100
AcDbEntity
  8
Layer_1
 62
7
100
AcDbLine
 10
16.560610
 20
-2.306320
 30
0.0
 11
16.623410
 21
-1.684180
 31
0.0
  0
LINE
  5
529
100
AcDbEntity
  8
Layer_1
 62
7
100
AcDbLine
 10
16.623410
 20
-1.684180
 30
0.0
 11
16.803320
 21
-1.104710
 31
0.0
  0
LINE
  5
52a
100
AcDbEntity
  8
Layer_1
 62
7
100
AcDbLine
 10
16.803320
 20
-1.104710
 30
0.0
 11
17.087960
 21
-0.580340
 31
0.0
  0
LINE
  5
52b
100
AcDbEntity
  8
Layer_1
 62
7
100
AcDbLine
 10
17.087960
 20
-0.580340
 30
0.0
 11
17.464930
 21
-0.123460
 31
0.0
  0
LINE
  5
52c
100
AcDbEntity
  8
Layer_1
 62
7
100
AcDbLine
 10
17.464930
 20
-0.123460
 30
0.0
 11
17.921810
 21
0.253500
 31
0.0
  0
LINE
  5
52d
100
AcDbEntity
  8
Layer_1
 62
7
100
AcDbLine
 10
17.921810
 20
0.253500
 30
0.0
 11
18.446180
 21
0.538150
 31
0.0
  0
LINE
  5
52e
100
AcDbEntity
  8
Layer_1
 62
7
100
AcDbLine
 10
18.446180
 20
0.538150
 30
0.0
 11
19.025640
 21
0.718060
 31
0.0
  0
LINE
  5
52f
100
AcDbEntity
  8
Layer_1
 62
7
100
AcDbLine
 10
19.025640
 20
0.718060
 30
0.0
 11
19.647760
 21
0.780840
 31
0.0
  0
LINE
  5
530
100
AcDbEntity
  8
Layer_1
 62
7
100
AcDbLine
 10
54.028610
 20
0.685740
 30
0.0
 11
54.028610
 21
-0.296950
 31
0.0
  0
LINE
  5
531
100
AcDbEntity
  8
Layer_1
 62
7
100
AcDbLine
 10
54.028610
 20
-0.296950
 30
0.0
 11
54.028610
 21
-1.279650
 31
0.0
  0
LINE
  5
532
100
AcDbEntity
  8
Layer_1
 62
7
100
AcDbLine
 10
54.028610
 20
-1.279650
 30
0.0
 11
54.028610
 21
-2.262340
 31
0.0
  0
LINE
  5
533
100
AcDbEntity
  8
Layer_1
 62
7
100
AcDbLine
 10
54.028610
 20
-2.262340
 30
0.0
 11
54.028610
 21
-3.245030
 31
0.0
  0
LINE
  5
534
100
AcDbEntity
  8
Layer_1
 62
7
100
AcDbLine
 10
54.028610
 20
-3.245030
 30
0.0
 11
54.028610
 21
-4.227720
 31
0.0
  0
LINE
  5
535
100
AcDbEntity
  8
Layer_1
 62
7
100
AcDbLine
 10
54.028610
 20
-4.227720
 30
0.0
 11
54.028610
 21
-5.210410
 31
0.0
  0
LINE
  5
536
100
AcDbEntity
  8
Layer_1
 62
7
100
AcDbLine
 10
54.028610
 20
-5.210410
 30
0.0
 11
54.028610
 21
-6.193110
 31
0.0
  0
LINE
  5
537
100
AcDbEntity
  8
Layer_1
 62
7
100
AcDbLine
 10
54.028610
 20
-6.193110
 30
0.0
 11
54.028610
 21
-7.175800
 31
0.0
  0
LINE
  5
538
100
AcDbEntity
  8
Layer_1
 62
7
100
AcDbLine
 10
54.028610
 20
-7.175800
 30
0.0
 11
53.849550
 21
-6.892930
 31
0.0
  0
LINE
  5
539
100
AcDbEntity
  8
Layer_1
 62
7
100
AcDbLine
 10
53.849550
 20
-6.892930
 30
0.0
 11
53.670490
 21
-6.610070
 31
0.0
  0
LINE
  5
53a
100
AcDbEntity
  8
Layer_1
 62
7
100
AcDbLine
 10
53.670490
 20
-6.610070
 30
0.0
 11
53.491440
 21
-6.327200
 31
0.0
  0
LINE
  5
53b
100
AcDbEntity
  8
Layer_1
 62
7
100
AcDbLine
 10
53.491440
 20
-6.327200
 30
0.0
 11
53.312380
 21
-6.044340
 31
0.0
  0
LINE
  5
53c
100
AcDbEntity
  8
Layer_1
 62
7
100
AcDbLine
 10
53.312380
 20
-6.044340
 30
0.0
 11
53.133320
 21
-5.761480
 31
0.0
  0
LINE
  5
53d
100
AcDbEntity
  8
Layer_1
 62
7
100
AcDbLine
 10
53.133320
 20
-5.761480
 30
0.0
 11
52.954260
 21
-5.478610
 31
0.0
  0
LINE
  5
53e
100
AcDbEntity
  8
Layer_1
 62
7
100
AcDbLine
 10
52.954260
 20
-5.478610
 30
0.0
 11
52.775200
 21
-5.195750
 31
0.0
  0
LINE
  5
53f
100
AcDbEntity
  8
Layer_1
 62
7
100
AcDbLine
 10
52.775200
 20
-5.195750
 30
0.0
 11
52.596140
 21
-4.912890
 31
0.0
  0
LINE
  5
540
100
AcDbEntity
  8
Layer_1
 62
7
100
AcDbLine
 10
52.596140
 20
-4.912890
 30
0.0
 11
51.968700
 21
-5.827120
 31
0.0
  0
LINE
  5
541
100
AcDbEntity
  8
Layer_1
 62
7
100
AcDbLine
 10
51.968700
 20
-5.827120
 30
0.0
 11
51.305580
 21
-6.669190
 31
0.0
  0
LINE
  5
542
100
AcDbEntity
  8
Layer_1
 62
7
100
AcDbLine
 10
51.305580
 20
-6.669190
 30
0.0
 11
50.591910
 21
-7.423790
 31
0.0
  0
LINE
  5
543
100
AcDbEntity
  8
Layer_1
 62
7
100
AcDbLine
 10
50.591910
 20
-7.423790
 30
0.0
 11
49.812850
 21
-8.075590
 31
0.0
  0
LINE
  5
544
100
AcDbEntity
  8
Layer_1
 62
7
100
AcDbLine
 10
49.812850
 20
-8.075590
 30
0.0
 11
48.953530
 21
-8.609260
 31
0.0
  0
LINE
  5
545
100
AcDbEntity
  8
Layer_1
 62
7
100
AcDbLine
 10
48.953530
 20
-8.609260
 30
0.0
 11
47.999090
 21
-9.009480
 31
0.0
  0
LINE
  5
546
100
AcDbEntity
  8
Layer_1
 62
7
100
AcDbLine
 10
47.999090
 20
-9.009480
 30
0.0
 11
46.934660
 21
-9.260930
 31
0.0
  0
LINE
  5
547
100
AcDbEntity
  8
Layer_1
 62
7
100
AcDbLine
 10
46.934660
 20
-9.260930
 30
0.0
 11
45.745400
 21
-9.348230
 31
0.0
  0
LINE
  5
548
100
AcDbEntity
  8
Layer_1
 62
7
100
AcDbLine
 10
45.745400
 20
-9.348230
 30
0.0
 11
45.238480
 21
-9.332530
 31
0.0
  0
LINE
  5
549
100
AcDbEntity
  8
Layer_1
 62
7
100
AcDbLine
 10
45.238480
 20
-9.332530
 30
0.0
 11
44.736940
 21
-9.287430
 31
0.0
  0
LINE
  5
54a
100
AcDbEntity
  8
Layer_1
 62
7
100
AcDbLine
 10
44.736940
 20
-9.287430
 30
0.0
 11
44.242920
 21
-9.213530
 31
0.0
  0
LINE
  5
54b
100
AcDbEntity
  8
Layer_1
 62
7
100
AcDbLine
 10
44.242920
 20
-9.213530
 30
0.0
 11
43.758561
 21
-9.111280
 31
0.0
  0
LINE
  5
54c
100
AcDbEntity
  8
Layer_1
 62
7
100
AcDbLine
 10
43.758561
 20
-9.111280
 30
0.0
 11
43.286001
 21
-8.981210
 31
0.0
  0
LINE
  5
54d
100
AcDbEntity
  8
Layer_1
 62
7
100
AcDbLine
 10
43.286001
 20
-8.981210
 30
0.0
 11
42.827401
 21
-8.823850
 31
0.0
  0
LINE
  5
54e
100
AcDbEntity
  8
Layer_1
 62
7
100
AcDbLine
 10
42.827401
 20
-8.823850
 30
0.0
 11
42.384881
 21
-8.639720
 31
0.0
  0
LINE
  5
54f
100
AcDbEntity
  8
Layer_1
 62
7
100
AcDbLine
 10
42.384881
 20
-8.639720
 30
0.0
 11
41.960611
 21
-8.429330
 31
0.0
  0
LINE
  5
550
100
AcDbEntity
  8
Layer_1
 62
7
100
AcDbLine
 10
41.960611
 20
-8.429330
 30
0.0
 11
43.469111
 21
-7.289930
 31
0.0
  0
LINE
  5
551
100
AcDbEntity
  8
Layer_1
 62
7
100
AcDbLine
 10
43.469111
 20
-7.289930
 30
0.0
 11
44.977610
 21
-6.150530
 31
0.0
  0
LINE
  5
552
100
AcDbEntity
  8
Layer_1
 62
7
100
AcDbLine
 10
44.977610
 20
-6.150530
 30
0.0
 11
46.486110
 21
-5.011130
 31
0.0
  0
LINE
  5
553
100
AcDbEntity
  8
Layer_1
 62
7
100
AcDbLine
 10
46.486110
 20
-5.011130
 30
0.0
 11
47.994610
 21
-3.871730
 31
0.0
  0
LINE
  5
554
100
AcDbEntity
  8
Layer_1
 62
7
100
AcDbLine
 10
47.994610
 20
-3.871730
 30
0.0
 11
49.503110
 21
-2.732330
 31
0.0
  0
LINE
  5
555
100
AcDbEntity
  8
Layer_1
 62
7
100
AcDbLine
 10
49.503110
 20
-2.732330
 30
0.0
 11
51.011610
 21
-1.592930
 31
0.0
  0
LINE
  5
556
100
AcDbEntity
  8
Layer_1
 62
7
100
AcDbLine
 10
51.011610
 20
-1.592930
 30
0.0
 11
52.520110
 21
-0.453530
 31
0.0
  0
LINE
  5
557
100
AcDbEntity
  8
Layer_1
 62
7
100
AcDbLine
 10
52.520110
 20
-0.453530
 30
0.0
 11
54.028610
 21
0.685740
 31
0.0
  0
LINE
  5
558
100
AcDbEntity
  8
Layer_1
 62
7
100
AcDbLine
 10
-47.084600
 20
-2.117190
 30
0.0
 11
-46.369650
 21
-2.125190
 31
0.0
  0
LINE
  5
559
100
AcDbEntity
  8
Layer_1
 62
7
100
AcDbLine
 10
-46.369650
 20
-2.125190
 30
0.0
 11
-45.485430
 21
-2.157990
 31
0.0
  0
LINE
  5
55a
100
AcDbEntity
  8
Layer_1
 62
7
100
AcDbLine
 10
-45.485430
 20
-2.157990
 30
0.0
 11
-44.513500
 21
-2.257290
 31
0.0
  0
LINE
  5
55b
100
AcDbEntity
  8
Layer_1
 62
7
100
AcDbLine
 10
-44.513500
 20
-2.257290
 30
0.0
 11
-43.535400
 21
-2.464530
 31
0.0
  0
LINE
  5
55c
100
AcDbEntity
  8
Layer_1
 62
7
100
AcDbLine
 10
-43.535400
 20
-2.464530
 30
0.0
 11
-42.632690
 21
-2.821120
 31
0.0
  0
LINE
  5
55d
100
AcDbEntity
  8
Layer_1
 62
7
100
AcDbLine
 10
-42.632690
 20
-2.821120
 30
0.0
 11
-41.886930
 21
-3.368440
 31
0.0
  0
LINE
  5
55e
100
AcDbEntity
  8
Layer_1
 62
7
100
AcDbLine
 10
-41.886930
 20
-3.368440
 30
0.0
 11
-41.379660
 21
-4.147930
 31
0.0
  0
LINE
  5
55f
100
AcDbEntity
  8
Layer_1
 62
7
100
AcDbLine
 10
-41.379660
 20
-4.147930
 30
0.0
 11
-41.192450
 21
-5.200980
 31
0.0
  0
LINE
  5
560
100
AcDbEntity
  8
Layer_1
 62
7
100
AcDbLine
 10
-41.192450
 20
-5.200980
 30
0.0
 11
-41.383940
 21
-6.481170
 31
0.0
  0
LINE
  5
561
100
AcDbEntity
  8
Layer_1
 62
7
100
AcDbLine
 10
-41.383940
 20
-6.481170
 30
0.0
 11
-41.901600
 21
-7.369200
 31
0.0
  0
LINE
  5
562
100
AcDbEntity
  8
Layer_1
 62
7
100
AcDbLine
 10
-41.901600
 20
-7.369200
 30
0.0
 11
-42.660220
 21
-7.933310
 31
0.0
  0
LINE
  5
563
100
AcDbEntity
  8
Layer_1
 62
7
100
AcDbLine
 10
-42.660220
 20
-7.933310
 30
0.0
 11
-43.574540
 21
-8.241780
 31
0.0
  0
LINE
  5
564
100
AcDbEntity
  8
Layer_1
 62
7
100
AcDbLine
 10
-43.574540
 20
-8.241780
 30
0.0
 11
-44.559370
 21
-8.362870
 31
0.0
  0
LINE
  5
565
100
AcDbEntity
  8
Layer_1
 62
7
100
AcDbLine
 10
-44.559370
 20
-8.362870
 30
0.0
 11
-45.529470
 21
-8.364870
 31
0.0
  0
LINE
  5
566
100
AcDbEntity
  8
Layer_1
 62
7
100
AcDbLine
 10
-45.529470
 20
-8.364870
 30
0.0
 11
-46.399620
 21
-8.315970
 31
0.0
  0
LINE
  5
567
100
AcDbEntity
  8
Layer_1
 62
7
100
AcDbLine
 10
-46.399620
 20
-8.315970
 30
0.0
 11
-47.084600
 21
-8.284470
 31
0.0
  0
LINE
  5
568
100
AcDbEntity
  8
Layer_1
 62
7
100
AcDbLine
 10
-47.084600
 20
-8.284470
 30
0.0
 11
-47.084600
 21
-7.513590
 31
0.0
  0
LINE
  5
569
100
AcDbEntity
  8
Layer_1
 62
7
100
AcDbLine
 10
-47.084600
 20
-7.513590
 30
0.0
 11
-47.084600
 21
-6.742710
 31
0.0
  0
LINE
  5
56a
100
AcDbEntity
  8
Layer_1
 62
7
100
AcDbLine
 10
-47.084600
 20
-6.742710
 30
0.0
 11
-47.084600
 21
-5.971830
 31
0.0
  0
LINE
  5
56b
100
AcDbEntity
  8
Layer_1
 62
7
100
AcDbLine
 10
-47.084600
 20
-5.971830
 30
0.0
 11
-47.084600
 21
-5.200940
 31
0.0
  0
LINE
  5
56c
100
AcDbEntity
  8
Layer_1
 62
7
100
AcDbLine
 10
-47.084600
 20
-5.200940
 30
0.0
 11
-47.084600
 21
-4.430060
 31
0.0
  0
LINE
  5
56d
100
AcDbEntity
  8
Layer_1
 62
7
100
AcDbLine
 10
-47.084600
 20
-4.430060
 30
0.0
 11
-47.084600
 21
-3.659180
 31
0.0
  0
LINE
  5
56e
100
AcDbEntity
  8
Layer_1
 62
7
100
AcDbLine
 10
-47.084600
 20
-3.659180
 30
0.0
 11
-47.084600
 21
-2.888290
 31
0.0
  0
LINE
  5
56f
100
AcDbEntity
  8
Layer_1
 62
7
100
AcDbLine
 10
-47.084600
 20
-2.888290
 30
0.0
 11
-47.084600
 21
-2.117190
 31
0.0
  0
LINE
  5
570
100
AcDbEntity
  8
Layer_1
 62
7
100
AcDbLine
 10
-23.240570
 20
-4.944410
 30
0.0
 11
-22.725960
 21
-4.996410
 31
0.0
  0
LINE
  5
571
100
AcDbEntity
  8
Layer_1
 62
7
100
AcDbLine
 10
-22.725960
 20
-4.996410
 30
0.0
 11
-22.246670
 21
-5.145550
 31
0.0
  0
LINE
  5
572
100
AcDbEntity
  8
Layer_1
 62
7
100
AcDbLine
 10
-22.246670
 20
-5.145550
 30
0.0
 11
-21.812950
 21
-5.381540
 31
0.0
  0
LINE
  5
573
100
AcDbEntity
  8
Layer_1
 62
7
100
AcDbLine
 10
-21.812950
 20
-5.381540
 30
0.0
 11
-21.435070
 21
-5.694100
 31
0.0
  0
LINE
  5
574
100
AcDbEntity
  8
Layer_1
 62
7
100
AcDbLine
 10
-21.435070
 20
-5.694100
 30
0.0
 11
-21.123300
 21
-6.072920
 31
0.0
  0
LINE
  5
575
100
AcDbEntity
  8
Layer_1
 62
7
100
AcDbLine
 10
-21.123300
 20
-6.072920
 30
0.0
 11
-20.887900
 21
-6.507700
 31
0.0
  0
LINE
  5
576
100
AcDbEntity
  8
Layer_1
 62
7
100
AcDbLine
 10
-20.887900
 20
-6.507700
 30
0.0
 11
-20.739120
 21
-6.988140
 31
0.0
  0
LINE
  5
577
100
AcDbEntity
  8
Layer_1
 62
7
100
AcDbLine
 10
-20.739120
 20
-6.988140
 30
0.0
 11
-20.687220
 21
-7.503960
 31
0.0
  0
LINE
  5
578
100
AcDbEntity
  8
Layer_1
 62
7
100
AcDbLine
 10
-20.687220
 20
-7.503960
 30
0.0
 11
-20.739120
 21
-8.019760
 31
0.0
  0
LINE
  5
579
100
AcDbEntity
  8
Layer_1
 62
7
100
AcDbLine
 10
-20.739120
 20
-8.019760
 30
0.0
 11
-20.887890
 21
-8.500150
 31
0.0
  0
LINE
  5
57a
100
AcDbEntity
  8
Layer_1
 62
7
100
AcDbLine
 10
-20.887890
 20
-8.500150
 30
0.0
 11
-21.123300
 21
-8.934840
 31
0.0
  0
LINE
  5
57b
100
AcDbEntity
  8
Layer_1
 62
7
100
AcDbLine
 10
-21.123300
 20
-8.934840
 30
0.0
 11
-21.435070
 21
-9.313570
 31
0.0
  0
LINE
  5
57c
100
AcDbEntity
  8
Layer_1
 62
7
100
AcDbLine
 10
-21.435070
 20
-9.313570
 30
0.0
 11
-21.812940
 21
-9.626030
 31
0.0
  0
LINE
  5
57d
100
AcDbEntity
  8
Layer_1
 62
7
100
AcDbLine
 10
-21.812940
 20
-9.626030
 30
0.0
 11
-22.246660
 21
-9.861940
 31
0.0
  0
LINE
  5
57e
100
AcDbEntity
  8
Layer_1
 62
7
100
AcDbLine
 10
-22.246660
 20
-9.861940
 30
0.0
 11
-22.725960
 21
-10.011020
 31
0.0
  0
LINE
  5
57f
100
AcDbEntity
  8
Layer_1
 62
7
100
AcDbLine
 10
-22.725960
 20
-10.011020
 30
0.0
 11
-23.240570
 21
-10.063020
 31
0.0
  0
LINE
  5
580
100
AcDbEntity
  8
Layer_1
 62
7
100
AcDbLine
 10
-23.240570
 20
-10.063020
 30
0.0
 11
-23.755170
 21
-10.011020
 31
0.0
  0
LINE
  5
581
100
AcDbEntity
  8
Layer_1
 62
7
100
AcDbLine
 10
-23.755170
 20
-10.011020
 30
0.0
 11
-24.234450
 21
-9.861910
 31
0.0
  0
LINE
  5
582
100
AcDbEntity
  8
Layer_1
 62
7
100
AcDbLine
 10
-24.234450
 20
-9.861910
 30
0.0
 11
-24.668170
 21
-9.625990
 31
0.0
  0
LINE
  5
583
100
AcDbEntity
  8
Layer_1
 62
7
100
AcDbLine
 10
-24.668170
 20
-9.625990
 30
0.0
 11
-25.046050
 21
-9.313520
 31
0.0
  0
LINE
  5
584
100
AcDbEntity
  8
Layer_1
 62
7
100
AcDbLine
 10
-25.046050
 20
-9.313520
 30
0.0
 11
-25.357830
 21
-8.934810
 31
0.0
  0
LINE
  5
585
100
AcDbEntity
  8
Layer_1
 62
7
100
AcDbLine
 10
-25.357830
 20
-8.934810
 30
0.0
 11
-25.593240
 21
-8.500120
 31
0.0
  0
LINE
  5
586
100
AcDbEntity
  8
Layer_1
 62
7
100
AcDbLine
 10
-25.593240
 20
-8.500120
 30
0.0
 11
-25.742020
 21
-8.019760
 31
0.0
  0
LINE
  5
587
100
AcDbEntity
  8
Layer_1
 62
7
100
AcDbLine
 10
-25.742020
 20
-8.019760
 30
0.0
 11
-25.793920
 21
-7.503990
 31
0.0
  0
LINE
  5
588
100
AcDbEntity
  8
Layer_1
 62
7
100
AcDbLine
 10
-25.793920
 20
-7.503990
 30
0.0
 11
-25.742020
 21
-6.988200
 31
0.0
  0
LINE
  5
589
100
AcDbEntity
  8
Layer_1
 62
7
100
AcDbLine
 10
-25.742020
 20
-6.988200
 30
0.0
 11
-25.593240
 21
-6.507770
 31
0.0
  0
LINE
  5
58a
100
AcDbEntity
  8
Layer_1
 62
7
100
AcDbLine
 10
-25.593240
 20
-6.507770
 30
0.0
 11
-25.357830
 21
-6.073000
 31
0.0
  0
LINE
  5
58b
100
AcDbEntity
  8
Layer_1
 62
7
100
AcDbLine
 10
-25.357830
 20
-6.073000
 30
0.0
 11
-25.046050
 21
-5.694190
 31
0.0
  0
LINE
  5
58c
100
AcDbEntity
  8
Layer_1
 62
7
100
AcDbLine
 10
-25.046050
 20
-5.694190
 30
0.0
 11
-24.668170
 21
-5.381640
 31
0.0
  0
LINE
  5
58d
100
AcDbEntity
  8
Layer_1
 62
7
100
AcDbLine
 10
-24.668170
 20
-5.381640
 30
0.0
 11
-24.234450
 21
-5.145630
 31
0.0
  0
LINE
  5
58e
100
AcDbEntity
  8
Layer_1
 62
7
100
AcDbLine
 10
-24.234450
 20
-5.145630
 30
0.0
 11
-23.755160
 21
-4.996470
 31
0.0
  0
LINE
  5
58f
100
AcDbEntity
  8
Layer_1
 62
7
100
AcDbLine
 10
-23.755160
 20
-4.996470
 30
0.0
 11
-23.240570
 21
-4.944410
 31
0.0
  0
ENDSEC
  0
SECTION
  2
OBJECTS
  0
DICTIONARY
  5
C
330
0
100
AcDbDictionary
  3
ACAD_GROUP
350
D
  3
ACAD_MLINESTYLE
350
17
  0
DICTIONARY
  5
D
330
C
100
AcDbDictionary
  0
DICTIONARY
  5
1A
330
C
100
AcDbDictionary
  0
DICTIONARY
  5
17
330
C
100
AcDbDictionary
  3
STANDARD
350
18
  0
DICTIONARY
  5
19
330
C
100
AcDbDictionary
  0
ENDSEC
  0
EOF
