  0
SECTION
  2
HEADER
  9
$ACADVER
  1
AC1014
  9
$HANDSEED
  5
FFFF
  9
$MEASUREMENT
 70
     1
  0
ENDSEC
  0
SECTION
  2
TABLES
  0
TABLE
  2
VPORT
  5
8
330
0
100
AcDbSymbolTable
 70
     4
  0
VPORT
  5
2E
330
8
100
AcDbSymbolTableRecord
100
AcDbViewportTableRecord
  2
*ACTIVE
 70
     0
 10
0.0
 20
0.0
 11
1.0
 21
1.0
 12
210.0
 22
148.5
 13
0.0
 23
0.0
 14
10.0
 24
10.0
 15
10.0
 25
10.0
 16
0.0
 26
0.0
 36
1.0
 17
0.0
 27
0.0
 37
0.0
 40
341.0
 41
1.24
 42
50.0
 43
0.0
 44
0.0
 50
0.0
 51
0.0
 71
     0
 72
   100
 73
     1
 74
     3
 75
     0
 76
     0
 77
     0
 78
     0
  0
ENDTAB
  0
TABLE
  2
LTYPE
  5
5
330
0
100
AcDbSymbolTable
 70
     1
  0
LTYPE
  5
14
330
5
100
AcDbSymbolTableRecord
100
AcDbLinetypeTableRecord
  2
BYBLOCK
 70
     0
  3

 72
    65
 73
     0
 40
0.0
  0
LTYPE
  5
15
330
5
100
AcDbSymbolTableRecord
100
AcDbLinetypeTableRecord
  2
BYLAYER
 70
     0
  3

 72
    65
 73
     0
 40
0.0
  0
LTYPE
  5
16
330
5
100
AcDbSymbolTableRecord
100
AcDbLinetypeTableRecord
  2
CONTINUOUS
 70
     0
  3
Solid line
 72
    65
 73
     0
 40
0.0
  0
ENDTAB
  0
TABLE
  2
LAYER
  5
2
100
AcDbSymbolTable
 70
9
  0
LAYER
  5
50
100
AcDbSymbolTableRecord
100
AcDbLayerTableRecord
  2
0
 70
0
  6
CONTINUOUS
  0
LAYER
  5
51
100
AcDbSymbolTableRecord
100
AcDbLayerTableRecord
  2
original
 70
0
  6
CONTINUOUS
  0
LAYER
  5
52
100
AcDbSymbolTableRecord
100
AcDbLayerTableRecord
  2
text
 70
0
  6
CONTINUOUS
  0
LAYER
  5
53
100
AcDbSymbolTableRecord
100
AcDbLayerTableRecord
  2
layer-1
 70
0
  6
CONTINUOUS
  0
LAYER
  5
54
100
AcDbSymbolTableRecord
100
AcDbLayerTableRecord
  2
layer-2
 70
0
  6
CONTINUOUS
  0
LAYER
  5
55
100
AcDbSymbolTableRecord
100
AcDbLayerTableRecord
  2
layer-3
 70
0
  6
CONTINUOUS
  0
LAYER
  5
56
100
AcDbSymbolTableRecord
100
AcDbLayerTableRecord
  2
layer-4
 70
0
  6
CONTINUOUS
  0
LAYER
  5
57
100
AcDbSymbolTableRecord
100
AcDbLayerTableRecord
  2
layer-5
 70
0
  6
CONTINUOUS
  0
LAYER
  5
58
100
AcDbSymbolTableRecord
100
AcDbLayerTableRecord
  2
layer-6
 70
0
  6
CONTINUOUS
  0
ENDTAB
  0
TABLE
  2
STYLE
  5
3
330
0
100
AcDbSymbolTable
 70
     1
  0
STYLE
  5
11
330
3
100
AcDbSymbolTableRecord
100
AcDbTextStyleTableRecord
  2
STANDARD
 70
     0
 40
0.0
 41
1.0
 50
0.0
 71
     0
 42
2.5
  3
txt
  4

  0
ENDTAB
  0
TABLE
  2
VIEW
  5
6
330
0
100
AcDbSymbolTable
 70
     0
  0
ENDTAB
  0
TABLE
  2
UCS
  5
7
330
0
100
AcDbSymbolTable
 70
     0
  0
ENDTAB
  0
TABLE
  2
APPID
  5
9
330
0
100
AcDbSymbolTable
 70
     2
  0
APPID
  5
12
330
9
100
AcDbSymbolTableRecord
100
AcDbRegAppTableRecord
  2
ACAD
 70
     0
  0
ENDTAB
  0
TABLE
  2
DIMSTYLE
  5
A
330
0
100
AcDbSymbolTable
 70
     1
  0
DIMSTYLE
105
27
330
A
100
AcDbSymbolTableRecord
100
AcDbDimStyleTableRecord
  2
ISO-25
 70
     0
  3

  4

  5

  6

  7

 40
1.0
 41
2.5
 42
0.625
 43
3.75
 44
1.25
 45
0.0
 46
0.0
 47
0.0
 48
0.0
140
2.5
141
2.5
142
0.0
143
0.03937007874016
144
1.0
145
0.0
146
1.0
147
0.625
 71
     0
 72
     0
 73
     0
 74
     0
 75
     0
 76
     0
 77
     1
 78
     8
170
     0
171
     3
172
     1
173
     0
174
     0
175
     0
176
     0
177
     0
178
     0
270
     2
271
     2
272
     2
273
     2
274
     3
340
11
275
     0
280
     0
281
     0
282
     0
283
     0
284
     8
285
     0
286
     0
287
     3
288
     0
  0
ENDTAB
  0
TABLE
  2
BLOCK_RECORD
  5
1
330
0
100
AcDbSymbolTable
 70
     1
  0
BLOCK_RECORD
  5
1F
330
1
100
AcDbSymbolTableRecord
100
AcDbBlockTableRecord
  2
*MODEL_SPACE
  0
BLOCK_RECORD
  5
1B
330
1
100
AcDbSymbolTableRecord
100
AcDbBlockTableRecord
  2
*PAPER_SPACE
  0
ENDTAB
  0
ENDSEC
  0
SECTION
  2
BLOCKS
  0
BLOCK
  5
20
330
1F
100
AcDbEntity
  8
0
100
AcDbBlockBegin
  2
*MODEL_SPACE
 70
     0
 10
0.0
 20
0.0
 30
0.0
  3
*MODEL_SPACE
  1

  0
ENDBLK
  5
21
330
1F
100
AcDbEntity
  8
0
100
AcDbBlockEnd
  0
BLOCK
  5
1C
330
1B
100
AcDbEntity
 67
     1
  8
0
100
AcDbBlockBegin
  2
*PAPER_SPACE
  1

  0
ENDBLK
  5
1D
330
1B
100
AcDbEntity
 67
     1
  8
0
100
AcDbBlockEnd
  0
ENDSEC
  0
SECTION
  2
ENTITIES
  0
LINE
  5
100
100
AcDbEntity
  8
text
 62
7
100
AcDbLine
 10
-57.348507
 20
-65.200710
 30
0.0
 11
-57.348507
 21
-65.572780
 31
0.0
  0
LINE
  5
101
100
AcDbEntity
  8
text
 62
7
100
AcDbLine
 10
-57.348507
 20
-65.572780
 30
0.0
 11
-57.348507
 21
-65.944850
 31
0.0
  0
LINE
  5
102
100
AcDbEntity
  8
text
 62
7
100
AcDbLine
 10
-57.348507
 20
-65.944850
 30
0.0
 11
-57.348507
 21
-66.316920
 31
0.0
  0
LINE
  5
103
100
AcDbEntity
  8
text
 62
7
100
AcDbLine
 10
-57.348507
 20
-66.316920
 30
0.0
 11
-57.348507
 21
-66.688990
 31
0.0
  0
LINE
  5
104
100
AcDbEntity
  8
text
 62
7
100
AcDbLine
 10
-57.348507
 20
-66.688990
 30
0.0
 11
-57.348507
 21
-71.371650
 31
0.0
  0
LINE
  5
105
100
AcDbEntity
  8
text
 62
7
100
AcDbLine
 10
-57.348507
 20
-71.371650
 30
0.0
 11
-57.348507
 21
-76.054310
 31
0.0
  0
LINE
  5
106
100
AcDbEntity
  8
text
 62
7
100
AcDbLine
 10
-57.348507
 20
-76.054310
 30
0.0
 11
-57.348507
 21
-80.736970
 31
0.0
  0
LINE
  5
107
100
AcDbEntity
  8
text
 62
7
100
AcDbLine
 10
-57.348507
 20
-80.736970
 30
0.0
 11
-57.348507
 21
-85.419630
 31
0.0
  0
LINE
  5
108
100
AcDbEntity
  8
text
 62
7
100
AcDbLine
 10
-57.348507
 20
-85.419630
 30
0.0
 11
-56.660048
 21
-85.419630
 31
0.0
  0
LINE
  5
109
100
AcDbEntity
  8
text
 62
7
100
AcDbLine
 10
-56.660048
 20
-85.419630
 30
0.0
 11
-55.971589
 21
-85.419630
 31
0.0
  0
LINE
  5
10a
100
AcDbEntity
  8
text
 62
7
100
AcDbLine
 10
-55.971589
 20
-85.419630
 30
0.0
 11
-55.283130
 21
-85.419630
 31
0.0
  0
LINE
  5
10b
100
AcDbEntity
  8
text
 62
7
100
AcDbLine
 10
-55.283130
 20
-85.419630
 30
0.0
 11
-54.594671
 21
-85.419630
 31
0.0
  0
LINE
  5
10c
100
AcDbEntity
  8
text
 62
7
100
AcDbLine
 10
-54.594671
 20
-85.419630
 30
0.0
 11
-54.594671
 21
-82.257030
 31
0.0
  0
LINE
  5
10d
100
AcDbEntity
  8
text
 62
7
100
AcDbLine
 10
-54.594671
 20
-82.257030
 30
0.0
 11
-54.594671
 21
-79.094430
 31
0.0
  0
LINE
  5
10e
100
AcDbEntity
  8
text
 62
7
100
AcDbLine
 10
-54.594671
 20
-79.094430
 30
0.0
 11
-54.594671
 21
-75.931840
 31
0.0
  0
LINE
  5
10f
100
AcDbEntity
  8
text
 62
7
100
AcDbLine
 10
-54.594671
 20
-75.931840
 30
0.0
 11
-54.594671
 21
-72.769240
 31
0.0
  0
LINE
  5
110
100
AcDbEntity
  8
text
 62
7
100
AcDbLine
 10
-54.594671
 20
-72.769240
 30
0.0
 11
-51.970671
 21
-76.230140
 31
0.0
  0
LINE
  5
111
100
AcDbEntity
  8
text
 62
7
100
AcDbLine
 10
-51.970671
 20
-76.230140
 30
0.0
 11
-49.346671
 21
-79.691040
 31
0.0
  0
LINE
  5
112
100
AcDbEntity
  8
text
 62
7
100
AcDbLine
 10
-49.346671
 20
-79.691040
 30
0.0
 11
-46.722671
 21
-83.151940
 31
0.0
  0
LINE
  5
113
100
AcDbEntity
  8
text
 62
7
100
AcDbLine
 10
-46.722671
 20
-83.151940
 30
0.0
 11
-44.098671
 21
-86.612840
 31
0.0
  0
LINE
  5
114
100
AcDbEntity
  8
text
 62
7
100
AcDbLine
 10
-44.098671
 20
-86.612840
 30
0.0
 11
-44.098671
 21
-86.483520
 31
0.0
  0
LINE
  5
115
100
AcDbEntity
  8
text
 62
7
100
AcDbLine
 10
-44.098671
 20
-86.483520
 30
0.0
 11
-44.098671
 21
-86.354200
 31
0.0
  0
LINE
  5
116
100
AcDbEntity
  8
text
 62
7
100
AcDbLine
 10
-44.098671
 20
-86.354200
 30
0.0
 11
-44.098671
 21
-86.224880
 31
0.0
  0
LINE
  5
117
100
AcDbEntity
  8
text
 62
7
100
AcDbLine
 10
-44.098671
 20
-86.224880
 30
0.0
 11
-44.098671
 21
-86.095560
 31
0.0
  0
LINE
  5
118
100
AcDbEntity
  8
text
 62
7
100
AcDbLine
 10
-44.098671
 20
-86.095560
 30
0.0
 11
-44.094271
 21
-86.099560
 31
0.0
  0
LINE
  5
119
100
AcDbEntity
  8
text
 62
7
100
AcDbLine
 10
-44.094271
 20
-86.099560
 30
0.0
 11
-44.089871
 21
-86.103560
 31
0.0
  0
LINE
  5
11a
100
AcDbEntity
  8
text
 62
7
100
AcDbLine
 10
-44.089871
 20
-86.103560
 30
0.0
 11
-44.085471
 21
-86.107560
 31
0.0
  0
LINE
  5
11b
100
AcDbEntity
  8
text
 62
7
100
AcDbLine
 10
-44.085471
 20
-86.107560
 30
0.0
 11
-44.081071
 21
-86.111560
 31
0.0
  0
LINE
  5
11c
100
AcDbEntity
  8
text
 62
7
100
AcDbLine
 10
-44.081071
 20
-86.111560
 30
0.0
 11
-44.085471
 21
-81.175550
 31
0.0
  0
LINE
  5
11d
100
AcDbEntity
  8
text
 62
7
100
AcDbLine
 10
-44.085471
 20
-81.175550
 30
0.0
 11
-44.089871
 21
-76.239550
 31
0.0
  0
LINE
  5
11e
100
AcDbEntity
  8
text
 62
7
100
AcDbLine
 10
-44.089871
 20
-76.239550
 30
0.0
 11
-44.094271
 21
-71.303540
 31
0.0
  0
LINE
  5
11f
100
AcDbEntity
  8
text
 62
7
100
AcDbLine
 10
-44.094271
 20
-71.303540
 30
0.0
 11
-44.098671
 21
-66.367540
 31
0.0
  0
LINE
  5
120
100
AcDbEntity
  8
text
 62
7
100
AcDbLine
 10
-44.098671
 20
-66.367540
 30
0.0
 11
-44.662072
 21
-66.367540
 31
0.0
  0
LINE
  5
121
100
AcDbEntity
  8
text
 62
7
100
AcDbLine
 10
-44.662072
 20
-66.367540
 30
0.0
 11
-45.225473
 21
-66.367540
 31
0.0
  0
LINE
  5
122
100
AcDbEntity
  8
text
 62
7
100
AcDbLine
 10
-45.225473
 20
-66.367540
 30
0.0
 11
-45.788877
 21
-66.367540
 31
0.0
  0
LINE
  5
123
100
AcDbEntity
  8
text
 62
7
100
AcDbLine
 10
-45.788877
 20
-66.367540
 30
0.0
 11
-46.352278
 21
-66.367540
 31
0.0
  0
LINE
  5
124
100
AcDbEntity
  8
text
 62
7
100
AcDbLine
 10
-46.352278
 20
-66.367540
 30
0.0
 11
-47.512931
 21
-66.367540
 31
0.0
  0
LINE
  5
125
100
AcDbEntity
  8
text
 62
7
100
AcDbLine
 10
-47.512931
 20
-66.367540
 30
0.0
 11
-48.673584
 21
-66.367540
 31
0.0
  0
LINE
  5
126
100
AcDbEntity
  8
text
 62
7
100
AcDbLine
 10
-48.673584
 20
-66.367540
 30
0.0
 11
-49.834237
 21
-66.367540
 31
0.0
  0
LINE
  5
127
100
AcDbEntity
  8
text
 62
7
100
AcDbLine
 10
-49.834237
 20
-66.367540
 30
0.0
 11
-50.994890
 21
-66.367540
 31
0.0
  0
LINE
  5
128
100
AcDbEntity
  8
text
 62
7
100
AcDbLine
 10
-50.994890
 20
-66.367540
 30
0.0
 11
-50.994890
 21
-67.082870
 31
0.0
  0
LINE
  5
129
100
AcDbEntity
  8
text
 62
7
100
AcDbLine
 10
-50.994890
 20
-67.082870
 30
0.0
 11
-50.994890
 21
-67.798200
 31
0.0
  0
LINE
  5
12a
100
AcDbEntity
  8
text
 62
7
100
AcDbLine
 10
-50.994890
 20
-67.798200
 30
0.0
 11
-50.994890
 21
-68.513530
 31
0.0
  0
LINE
  5
12b
100
AcDbEntity
  8
text
 62
7
100
AcDbLine
 10
-50.994890
 20
-68.513530
 30
0.0
 11
-50.994890
 21
-69.228860
 31
0.0
  0
LINE
  5
12c
100
AcDbEntity
  8
text
 62
7
100
AcDbLine
 10
-50.994890
 20
-69.228860
 30
0.0
 11
-49.959295
 21
-69.228860
 31
0.0
  0
LINE
  5
12d
100
AcDbEntity
  8
text
 62
7
100
AcDbLine
 10
-49.959295
 20
-69.228860
 30
0.0
 11
-48.923697
 21
-69.228860
 31
0.0
  0
LINE
  5
12e
100
AcDbEntity
  8
text
 62
7
100
AcDbLine
 10
-48.923697
 20
-69.228860
 30
0.0
 11
-47.888102
 21
-69.228860
 31
0.0
  0
LINE
  5
12f
100
AcDbEntity
  8
text
 62
7
100
AcDbLine
 10
-47.888102
 20
-69.228860
 30
0.0
 11
-46.852507
 21
-69.228860
 31
0.0
  0
LINE
  5
130
100
AcDbEntity
  8
text
 62
7
100
AcDbLine
 10
-46.852507
 20
-69.228860
 30
0.0
 11
-46.852507
 21
-71.682460
 31
0.0
  0
LINE
  5
131
100
AcDbEntity
  8
text
 62
7
100
AcDbLine
 10
-46.852507
 20
-71.682460
 30
0.0
 11
-46.852507
 21
-74.136060
 31
0.0
  0
LINE
  5
132
100
AcDbEntity
  8
text
 62
7
100
AcDbLine
 10
-46.852507
 20
-74.136060
 30
0.0
 11
-46.852507
 21
-76.589650
 31
0.0
  0
LINE
  5
133
100
AcDbEntity
  8
text
 62
7
100
AcDbLine
 10
-46.852507
 20
-76.589650
 30
0.0
 11
-46.852507
 21
-79.043250
 31
0.0
  0
LINE
  5
134
100
AcDbEntity
  8
text
 62
7
100
AcDbLine
 10
-46.852507
 20
-79.043250
 30
0.0
 11
-49.476507
 21
-75.582220
 31
0.0
  0
LINE
  5
135
100
AcDbEntity
  8
text
 62
7
100
AcDbLine
 10
-49.476507
 20
-75.582220
 30
0.0
 11
-52.100507
 21
-72.121190
 31
0.0
  0
LINE
  5
136
100
AcDbEntity
  8
text
 62
7
100
AcDbLine
 10
-52.100507
 20
-72.121190
 30
0.0
 11
-54.724507
 21
-68.660170
 31
0.0
  0
LINE
  5
137
100
AcDbEntity
  8
text
 62
7
100
AcDbLine
 10
-54.724507
 20
-68.660170
 30
0.0
 11
-57.348507
 21
-65.200710
 31
0.0
  0
LINE
  5
138
100
AcDbEntity
  8
text
 62
7
100
AcDbLine
 10
2.178606
 20
-65.630660
 30
0.0
 11
2.178606
 21
-70.478810
 31
0.0
  0
LINE
  5
139
100
AcDbEntity
  8
text
 62
7
100
AcDbLine
 10
2.178606
 20
-70.478810
 30
0.0
 11
2.178606
 21
-75.326970
 31
0.0
  0
LINE
  5
13a
100
AcDbEntity
  8
text
 62
7
100
AcDbLine
 10
2.178606
 20
-75.326970
 30
0.0
 11
2.178606
 21
-80.175120
 31
0.0
  0
LINE
  5
13b
100
AcDbEntity
  8
text
 62
7
100
AcDbLine
 10
2.178606
 20
-80.175120
 30
0.0
 11
2.178606
 21
-85.023270
 31
0.0
  0
LINE
  5
13c
100
AcDbEntity
  8
text
 62
7
100
AcDbLine
 10
2.178606
 20
-85.023270
 30
0.0
 11
2.303664
 21
-85.023270
 31
0.0
  0
LINE
  5
13d
100
AcDbEntity
  8
text
 62
7
100
AcDbLine
 10
2.303664
 20
-85.023270
 30
0.0
 11
2.428722
 21
-85.023270
 31
0.0
  0
LINE
  5
13e
100
AcDbEntity
  8
text
 62
7
100
AcDbLine
 10
2.428722
 20
-85.023270
 30
0.0
 11
2.553777
 21
-85.023270
 31
0.0
  0
LINE
  5
13f
100
AcDbEntity
  8
text
 62
7
100
AcDbLine
 10
2.553777
 20
-85.023270
 30
0.0
 11
2.678835
 21
-85.023270
 31
0.0
  0
LINE
  5
140
100
AcDbEntity
  8
text
 62
7
100
AcDbLine
 10
2.678835
 20
-85.023270
 30
0.0
 11
3.302829
 21
-85.023270
 31
0.0
  0
LINE
  5
141
100
AcDbEntity
  8
text
 62
7
100
AcDbLine
 10
3.302829
 20
-85.023270
 30
0.0
 11
3.926822
 21
-85.023270
 31
0.0
  0
LINE
  5
142
100
AcDbEntity
  8
text
 62
7
100
AcDbLine
 10
3.926822
 20
-85.023270
 30
0.0
 11
4.550813
 21
-85.023270
 31
0.0
  0
LINE
  5
143
100
AcDbEntity
  8
text
 62
7
100
AcDbLine
 10
4.550813
 20
-85.023270
 30
0.0
 11
5.174806
 21
-85.023270
 31
0.0
  0
LINE
  5
144
100
AcDbEntity
  8
text
 62
7
100
AcDbLine
 10
5.174806
 20
-85.023270
 30
0.0
 11
5.174806
 21
-82.005240
 31
0.0
  0
LINE
  5
145
100
AcDbEntity
  8
text
 62
7
100
AcDbLine
 10
5.174806
 20
-82.005240
 30
0.0
 11
5.174806
 21
-78.987210
 31
0.0
  0
LINE
  5
146
100
AcDbEntity
  8
text
 62
7
100
AcDbLine
 10
5.174806
 20
-78.987210
 30
0.0
 11
5.174806
 21
-75.969170
 31
0.0
  0
LINE
  5
147
100
AcDbEntity
  8
text
 62
7
100
AcDbLine
 10
5.174806
 20
-75.969170
 30
0.0
 11
5.174806
 21
-72.951140
 31
0.0
  0
LINE
  5
148
100
AcDbEntity
  8
text
 62
7
100
AcDbLine
 10
5.174806
 20
-72.951140
 30
0.0
 11
7.735375
 21
-76.259210
 31
0.0
  0
LINE
  5
149
100
AcDbEntity
  8
text
 62
7
100
AcDbLine
 10
7.735375
 20
-76.259210
 30
0.0
 11
10.295941
 21
-79.567270
 31
0.0
  0
LINE
  5
14a
100
AcDbEntity
  8
text
 62
7
100
AcDbLine
 10
10.295941
 20
-79.567270
 30
0.0
 11
12.856510
 21
-82.875340
 31
0.0
  0
LINE
  5
14b
100
AcDbEntity
  8
text
 62
7
100
AcDbLine
 10
12.856510
 20
-82.875340
 30
0.0
 11
15.417076
 21
-86.183410
 31
0.0
  0
LINE
  5
14c
100
AcDbEntity
  8
text
 62
7
100
AcDbLine
 10
15.417076
 20
-86.183410
 30
0.0
 11
15.417076
 21
-81.329440
 31
0.0
  0
LINE
  5
14d
100
AcDbEntity
  8
text
 62
7
100
AcDbLine
 10
15.417076
 20
-81.329440
 30
0.0
 11
15.417076
 21
-76.475470
 31
0.0
  0
LINE
  5
14e
100
AcDbEntity
  8
text
 62
7
100
AcDbLine
 10
15.417076
 20
-76.475470
 30
0.0
 11
15.417076
 21
-71.621510
 31
0.0
  0
LINE
  5
14f
100
AcDbEntity
  8
text
 62
7
100
AcDbLine
 10
15.417076
 20
-71.621510
 30
0.0
 11
15.417076
 21
-66.767540
 31
0.0
  0
LINE
  5
150
100
AcDbEntity
  8
text
 62
7
100
AcDbLine
 10
15.417076
 20
-66.767540
 30
0.0
 11
14.668543
 21
-66.767540
 31
0.0
  0
LINE
  5
151
100
AcDbEntity
  8
text
 62
7
100
AcDbLine
 10
14.668543
 20
-66.767540
 30
0.0
 11
13.920008
 21
-66.767540
 31
0.0
  0
LINE
  5
152
100
AcDbEntity
  8
text
 62
7
100
AcDbLine
 10
13.920008
 20
-66.767540
 30
0.0
 11
13.171475
 21
-66.767540
 31
0.0
  0
LINE
  5
153
100
AcDbEntity
  8
text
 62
7
100
AcDbLine
 10
13.171475
 20
-66.767540
 30
0.0
 11
12.422943
 21
-66.767540
 31
0.0
  0
LINE
  5
154
100
AcDbEntity
  8
text
 62
7
100
AcDbLine
 10
12.422943
 20
-66.767540
 30
0.0
 11
12.422943
 21
-69.791380
 31
0.0
  0
LINE
  5
155
100
AcDbEntity
  8
text
 62
7
100
AcDbLine
 10
12.422943
 20
-69.791380
 30
0.0
 11
12.422943
 21
-72.815230
 31
0.0
  0
LINE
  5
156
100
AcDbEntity
  8
text
 62
7
100
AcDbLine
 10
12.422943
 20
-72.815230
 30
0.0
 11
12.422943
 21
-75.839080
 31
0.0
  0
LINE
  5
157
100
AcDbEntity
  8
text
 62
7
100
AcDbLine
 10
12.422943
 20
-75.839080
 30
0.0
 11
12.422943
 21
-78.862920
 31
0.0
  0
LINE
  5
158
100
AcDbEntity
  8
text
 62
7
100
AcDbLine
 10
12.422943
 20
-78.862920
 30
0.0
 11
9.861857
 21
-75.554860
 31
0.0
  0
LINE
  5
159
100
AcDbEntity
  8
text
 62
7
100
AcDbLine
 10
9.861857
 20
-75.554860
 30
0.0
 11
7.300775
 21
-72.246790
 31
0.0
  0
LINE
  5
15a
100
AcDbEntity
  8
text
 62
7
100
AcDbLine
 10
7.300775
 20
-72.246790
 30
0.0
 11
4.739691
 21
-68.938730
 31
0.0
  0
LINE
  5
15b
100
AcDbEntity
  8
text
 62
7
100
AcDbLine
 10
4.739691
 20
-68.938730
 30
0.0
 11
2.178606
 21
-65.630660
 31
0.0
  0
LINE
  5
15c
100
AcDbEntity
  8
text
 62
7
100
AcDbLine
 10
-80.421001
 20
-66.368600
 30
0.0
 11
-82.076714
 21
-66.368730
 31
0.0
  0
LINE
  5
15d
100
AcDbEntity
  8
text
 62
7
100
AcDbLine
 10
-82.076714
 20
-66.368730
 30
0.0
 11
-83.732426
 21
-66.368860
 31
0.0
  0
LINE
  5
15e
100
AcDbEntity
  8
text
 62
7
100
AcDbLine
 10
-83.732426
 20
-66.368860
 30
0.0
 11
-85.388138
 21
-66.368980
 31
0.0
  0
LINE
  5
15f
100
AcDbEntity
  8
text
 62
7
100
AcDbLine
 10
-85.388138
 20
-66.368980
 30
0.0
 11
-87.043852
 21
-66.369110
 31
0.0
  0
LINE
  5
160
100
AcDbEntity
  8
text
 62
7
100
AcDbLine
 10
-87.043852
 20
-66.369110
 30
0.0
 11
-87.043852
 21
-71.131740
 31
0.0
  0
LINE
  5
161
100
AcDbEntity
  8
text
 62
7
100
AcDbLine
 10
-87.043852
 20
-71.131740
 30
0.0
 11
-87.043852
 21
-75.894370
 31
0.0
  0
LINE
  5
162
100
AcDbEntity
  8
text
 62
7
100
AcDbLine
 10
-87.043852
 20
-75.894370
 30
0.0
 11
-87.043852
 21
-80.657000
 31
0.0
  0
LINE
  5
163
100
AcDbEntity
  8
text
 62
7
100
AcDbLine
 10
-87.043852
 20
-80.657000
 30
0.0
 11
-87.043852
 21
-85.419630
 31
0.0
  0
LINE
  5
164
100
AcDbEntity
  8
text
 62
7
100
AcDbLine
 10
-87.043852
 20
-85.419630
 30
0.0
 11
-86.918795
 21
-85.419630
 31
0.0
  0
LINE
  5
165
100
AcDbEntity
  8
text
 62
7
100
AcDbLine
 10
-86.918795
 20
-85.419630
 30
0.0
 11
-86.793738
 21
-85.419630
 31
0.0
  0
LINE
  5
166
100
AcDbEntity
  8
text
 62
7
100
AcDbLine
 10
-86.793738
 20
-85.419630
 30
0.0
 11
-86.668681
 21
-85.419630
 31
0.0
  0
LINE
  5
167
100
AcDbEntity
  8
text
 62
7
100
AcDbLine
 10
-86.668681
 20
-85.419630
 30
0.0
 11
-86.543624
 21
-85.419630
 31
0.0
  0
LINE
  5
168
100
AcDbEntity
  8
text
 62
7
100
AcDbLine
 10
-86.543624
 20
-85.419630
 30
0.0
 11
-85.980222
 21
-85.419630
 31
0.0
  0
LINE
  5
169
100
AcDbEntity
  8
text
 62
7
100
AcDbLine
 10
-85.980222
 20
-85.419630
 30
0.0
 11
-85.416819
 21
-85.419630
 31
0.0
  0
LINE
  5
16a
100
AcDbEntity
  8
text
 62
7
100
AcDbLine
 10
-85.416819
 20
-85.419630
 30
0.0
 11
-84.853418
 21
-85.419630
 31
0.0
  0
LINE
  5
16b
100
AcDbEntity
  8
text
 62
7
100
AcDbLine
 10
-84.853418
 20
-85.419630
 30
0.0
 11
-84.290014
 21
-85.419630
 31
0.0
  0
LINE
  5
16c
100
AcDbEntity
  8
text
 62
7
100
AcDbLine
 10
-84.290014
 20
-85.419630
 30
0.0
 11
-84.290014
 21
-83.403470
 31
0.0
  0
LINE
  5
16d
100
AcDbEntity
  8
text
 62
7
100
AcDbLine
 10
-84.290014
 20
-83.403470
 30
0.0
 11
-84.290014
 21
-81.387320
 31
0.0
  0
LINE
  5
16e
100
AcDbEntity
  8
text
 62
7
100
AcDbLine
 10
-84.290014
 20
-81.387320
 30
0.0
 11
-84.290014
 21
-79.371160
 31
0.0
  0
LINE
  5
16f
100
AcDbEntity
  8
text
 62
7
100
AcDbLine
 10
-84.290014
 20
-79.371160
 30
0.0
 11
-84.290014
 21
-77.355010
 31
0.0
  0
LINE
  5
170
100
AcDbEntity
  8
text
 62
7
100
AcDbLine
 10
-84.290014
 20
-77.355010
 30
0.0
 11
-83.309066
 21
-77.355010
 31
0.0
  0
LINE
  5
171
100
AcDbEntity
  8
text
 62
7
100
AcDbLine
 10
-83.309066
 20
-77.355010
 30
0.0
 11
-82.328118
 21
-77.355010
 31
0.0
  0
LINE
  5
172
100
AcDbEntity
  8
text
 62
7
100
AcDbLine
 10
-82.328118
 20
-77.355010
 30
0.0
 11
-81.347173
 21
-77.355010
 31
0.0
  0
LINE
  5
173
100
AcDbEntity
  8
text
 62
7
100
AcDbLine
 10
-81.347173
 20
-77.355010
 30
0.0
 11
-80.366225
 21
-77.355010
 31
0.0
  0
LINE
  5
174
100
AcDbEntity
  8
text
 62
7
100
AcDbLine
 10
-80.366225
 20
-77.355010
 30
0.0
 11
-79.366272
 21
-77.249970
 31
0.0
  0
LINE
  5
175
100
AcDbEntity
  8
text
 62
7
100
AcDbLine
 10
-79.366272
 20
-77.249970
 30
0.0
 11
-78.434184
 21
-76.939170
 31
0.0
  0
LINE
  5
176
100
AcDbEntity
  8
text
 62
7
100
AcDbLine
 10
-78.434184
 20
-76.939170
 30
0.0
 11
-77.580832
 21
-76.429070
 31
0.0
  0
LINE
  5
177
100
AcDbEntity
  8
text
 62
7
100
AcDbLine
 10
-77.580832
 20
-76.429070
 30
0.0
 11
-76.817085
 21
-75.726170
 31
0.0
  0
LINE
  5
178
100
AcDbEntity
  8
text
 62
7
100
AcDbLine
 10
-76.817085
 20
-75.726170
 30
0.0
 11
-76.318928
 21
-75.060410
 31
0.0
  0
LINE
  5
179
100
AcDbEntity
  8
text
 62
7
100
AcDbLine
 10
-76.318928
 20
-75.060410
 30
0.0
 11
-75.947945
 21
-74.333350
 31
0.0
  0
LINE
  5
17a
100
AcDbEntity
  8
text
 62
7
100
AcDbLine
 10
-75.947945
 20
-74.333350
 30
0.0
 11
-75.688815
 21
-73.555190
 31
0.0
  0
LINE
  5
17b
100
AcDbEntity
  8
text
 62
7
100
AcDbLine
 10
-75.688815
 20
-73.555190
 30
0.0
 11
-75.526210
 21
-72.736170
 31
0.0
  0
LINE
  5
17c
100
AcDbEntity
  8
text
 62
7
100
AcDbLine
 10
-75.526210
 20
-72.736170
 30
0.0
 11
-75.526210
 21
-75.907030
 31
0.0
  0
LINE
  5
17d
100
AcDbEntity
  8
text
 62
7
100
AcDbLine
 10
-75.526210
 20
-75.907030
 30
0.0
 11
-75.526210
 21
-79.077900
 31
0.0
  0
LINE
  5
17e
100
AcDbEntity
  8
text
 62
7
100
AcDbLine
 10
-75.526210
 20
-79.077900
 30
0.0
 11
-75.526210
 21
-82.248760
 31
0.0
  0
LINE
  5
17f
100
AcDbEntity
  8
text
 62
7
100
AcDbLine
 10
-75.526210
 20
-82.248760
 30
0.0
 11
-75.526210
 21
-85.419630
 31
0.0
  0
LINE
  5
180
100
AcDbEntity
  8
text
 62
7
100
AcDbLine
 10
-75.526210
 20
-85.419630
 30
0.0
 11
-75.401152
 21
-85.419630
 31
0.0
  0
LINE
  5
181
100
AcDbEntity
  8
text
 62
7
100
AcDbLine
 10
-75.401152
 20
-85.419630
 30
0.0
 11
-75.276097
 21
-85.419630
 31
0.0
  0
LINE
  5
182
100
AcDbEntity
  8
text
 62
7
100
AcDbLine
 10
-75.276097
 20
-85.419630
 30
0.0
 11
-75.151039
 21
-85.419630
 31
0.0
  0
LINE
  5
183
100
AcDbEntity
  8
text
 62
7
100
AcDbLine
 10
-75.151039
 20
-85.419630
 30
0.0
 11
-75.025981
 21
-85.419630
 31
0.0
  0
LINE
  5
184
100
AcDbEntity
  8
text
 62
7
100
AcDbLine
 10
-75.025981
 20
-85.419630
 30
0.0
 11
-74.462061
 21
-85.419630
 31
0.0
  0
LINE
  5
185
100
AcDbEntity
  8
text
 62
7
100
AcDbLine
 10
-74.462061
 20
-85.419630
 30
0.0
 11
-73.898144
 21
-85.419630
 31
0.0
  0
LINE
  5
186
100
AcDbEntity
  8
text
 62
7
100
AcDbLine
 10
-73.898144
 20
-85.419630
 30
0.0
 11
-73.334224
 21
-85.419630
 31
0.0
  0
LINE
  5
187
100
AcDbEntity
  8
text
 62
7
100
AcDbLine
 10
-73.334224
 20
-85.419630
 30
0.0
 11
-72.770305
 21
-85.419630
 31
0.0
  0
LINE
  5
188
100
AcDbEntity
  8
text
 62
7
100
AcDbLine
 10
-72.770305
 20
-85.419630
 30
0.0
 11
-72.770305
 21
-83.397660
 31
0.0
  0
LINE
  5
189
100
AcDbEntity
  8
text
 62
7
100
AcDbLine
 10
-72.770305
 20
-83.397660
 30
0.0
 11
-72.770305
 21
-81.375690
 31
0.0
  0
LINE
  5
18a
100
AcDbEntity
  8
text
 62
7
100
AcDbLine
 10
-72.770305
 20
-81.375690
 30
0.0
 11
-72.770305
 21
-79.353720
 31
0.0
  0
LINE
  5
18b
100
AcDbEntity
  8
text
 62
7
100
AcDbLine
 10
-72.770305
 20
-79.353720
 30
0.0
 11
-72.770305
 21
-77.331750
 31
0.0
  0
LINE
  5
18c
100
AcDbEntity
  8
text
 62
7
100
AcDbLine
 10
-72.770305
 20
-77.331750
 30
0.0
 11
-71.989990
 21
-77.331750
 31
0.0
  0
LINE
  5
18d
100
AcDbEntity
  8
text
 62
7
100
AcDbLine
 10
-71.989990
 20
-77.331750
 30
0.0
 11
-71.209678
 21
-77.331750
 31
0.0
  0
LINE
  5
18e
100
AcDbEntity
  8
text
 62
7
100
AcDbLine
 10
-71.209678
 20
-77.331750
 30
0.0
 11
-70.429364
 21
-77.331750
 31
0.0
  0
LINE
  5
18f
100
AcDbEntity
  8
text
 62
7
100
AcDbLine
 10
-70.429364
 20
-77.331750
 30
0.0
 11
-69.649049
 21
-77.331750
 31
0.0
  0
LINE
  5
190
100
AcDbEntity
  8
text
 62
7
100
AcDbLine
 10
-69.649049
 20
-77.331750
 30
0.0
 11
-68.612031
 21
-79.353720
 31
0.0
  0
LINE
  5
191
100
AcDbEntity
  8
text
 62
7
100
AcDbLine
 10
-68.612031
 20
-79.353720
 30
0.0
 11
-67.575015
 21
-81.375690
 31
0.0
  0
LINE
  5
192
100
AcDbEntity
  8
text
 62
7
100
AcDbLine
 10
-67.575015
 20
-81.375690
 30
0.0
 11
-66.537999
 21
-83.397660
 31
0.0
  0
LINE
  5
193
100
AcDbEntity
  8
text
 62
7
100
AcDbLine
 10
-66.537999
 20
-83.397660
 30
0.0
 11
-65.500981
 21
-85.419630
 31
0.0
  0
LINE
  5
194
100
AcDbEntity
  8
text
 62
7
100
AcDbLine
 10
-65.500981
 20
-85.419630
 30
0.0
 11
-64.720666
 21
-85.419630
 31
0.0
  0
LINE
  5
195
100
AcDbEntity
  8
text
 62
7
100
AcDbLine
 10
-64.720666
 20
-85.419630
 30
0.0
 11
-63.940352
 21
-85.419630
 31
0.0
  0
LINE
  5
196
100
AcDbEntity
  8
text
 62
7
100
AcDbLine
 10
-63.940352
 20
-85.419630
 30
0.0
 11
-63.160040
 21
-85.419630
 31
0.0
  0
LINE
  5
197
100
AcDbEntity
  8
text
 62
7
100
AcDbLine
 10
-63.160040
 20
-85.419630
 30
0.0
 11
-62.379726
 21
-85.419630
 31
0.0
  0
LINE
  5
198
100
AcDbEntity
  8
text
 62
7
100
AcDbLine
 10
-62.379726
 20
-85.419630
 30
0.0
 11
-63.486634
 21
-83.266790
 31
0.0
  0
LINE
  5
199
100
AcDbEntity
  8
text
 62
7
100
AcDbLine
 10
-63.486634
 20
-83.266790
 30
0.0
 11
-64.593545
 21
-81.113950
 31
0.0
  0
LINE
  5
19a
100
AcDbEntity
  8
text
 62
7
100
AcDbLine
 10
-64.593545
 20
-81.113950
 30
0.0
 11
-65.700453
 21
-78.961110
 31
0.0
  0
LINE
  5
19b
100
AcDbEntity
  8
text
 62
7
100
AcDbLine
 10
-65.700453
 20
-78.961110
 30
0.0
 11
-66.807361
 21
-76.808270
 31
0.0
  0
LINE
  5
19c
100
AcDbEntity
  8
text
 62
7
100
AcDbLine
 10
-66.807361
 20
-76.808270
 30
0.0
 11
-66.236829
 21
-76.485980
 31
0.0
  0
LINE
  5
19d
100
AcDbEntity
  8
text
 62
7
100
AcDbLine
 10
-66.236829
 20
-76.485980
 30
0.0
 11
-65.708755
 21
-76.099490
 31
0.0
  0
LINE
  5
19e
100
AcDbEntity
  8
text
 62
7
100
AcDbLine
 10
-65.708755
 20
-76.099490
 30
0.0
 11
-65.231436
 21
-75.641180
 31
0.0
  0
LINE
  5
19f
100
AcDbEntity
  8
text
 62
7
100
AcDbLine
 10
-65.231436
 20
-75.641180
 30
0.0
 11
-64.813167
 21
-75.103460
 31
0.0
  0
LINE
  5
1a0
100
AcDbEntity
  8
text
 62
7
100
AcDbLine
 10
-64.813167
 20
-75.103460
 30
0.0
 11
-64.813167
 21
-75.102930
 31
0.0
  0
LINE
  5
1a1
100
AcDbEntity
  8
text
 62
7
100
AcDbLine
 10
-64.813167
 20
-75.102930
 30
0.0
 11
-64.813167
 21
-75.102410
 31
0.0
  0
LINE
  5
1a2
100
AcDbEntity
  8
text
 62
7
100
AcDbLine
 10
-64.813167
 20
-75.102410
 30
0.0
 11
-64.813167
 21
-75.101880
 31
0.0
  0
LINE
  5
1a3
100
AcDbEntity
  8
text
 62
7
100
AcDbLine
 10
-64.813167
 20
-75.101880
 30
0.0
 11
-64.813167
 21
-75.101350
 31
0.0
  0
LINE
  5
1a4
100
AcDbEntity
  8
text
 62
7
100
AcDbLine
 10
-64.813167
 20
-75.101350
 30
0.0
 11
-64.396427
 21
-74.362560
 31
0.0
  0
LINE
  5
1a5
100
AcDbEntity
  8
text
 62
7
100
AcDbLine
 10
-64.396427
 20
-74.362560
 30
0.0
 11
-64.097877
 21
-73.575430
 31
0.0
  0
LINE
  5
1a6
100
AcDbEntity
  8
text
 62
7
100
AcDbLine
 10
-64.097877
 20
-73.575430
 30
0.0
 11
-63.918230
 21
-72.744600
 31
0.0
  0
LINE
  5
1a7
100
AcDbEntity
  8
text
 62
7
100
AcDbLine
 10
-63.918230
 20
-72.744600
 30
0.0
 11
-63.858190
 21
-71.874670
 31
0.0
  0
LINE
  5
1a8
100
AcDbEntity
  8
text
 62
7
100
AcDbLine
 10
-63.858190
 20
-71.874670
 30
0.0
 11
-63.950080
 21
-70.793580
 31
0.0
  0
LINE
  5
1a9
100
AcDbEntity
  8
text
 62
7
100
AcDbLine
 10
-63.950080
 20
-70.793580
 30
0.0
 11
-64.224326
 21
-69.783410
 31
0.0
  0
LINE
  5
1aa
100
AcDbEntity
  8
text
 62
7
100
AcDbLine
 10
-64.224326
 20
-69.783410
 30
0.0
 11
-64.678790
 21
-68.852520
 31
0.0
  0
LINE
  5
1ab
100
AcDbEntity
  8
text
 62
7
100
AcDbLine
 10
-64.678790
 20
-68.852520
 30
0.0
 11
-65.311329
 21
-68.009270
 31
0.0
  0
LINE
  5
1ac
100
AcDbEntity
  8
text
 62
7
100
AcDbLine
 10
-65.311329
 20
-68.009270
 30
0.0
 11
-66.082267
 21
-67.301110
 31
0.0
  0
LINE
  5
1ad
100
AcDbEntity
  8
text
 62
7
100
AcDbLine
 10
-66.082267
 20
-67.301110
 30
0.0
 11
-66.945232
 21
-66.787310
 31
0.0
  0
LINE
  5
1ae
100
AcDbEntity
  8
text
 62
7
100
AcDbLine
 10
-66.945232
 20
-66.787310
 30
0.0
 11
-67.889255
 21
-66.474310
 31
0.0
  0
LINE
  5
1af
100
AcDbEntity
  8
text
 62
7
100
AcDbLine
 10
-67.889255
 20
-66.474310
 30
0.0
 11
-68.903360
 21
-66.368550
 31
0.0
  0
LINE
  5
1b0
100
AcDbEntity
  8
text
 62
7
100
AcDbLine
 10
-68.903360
 20
-66.368550
 30
0.0
 11
-70.559073
 21
-66.368550
 31
0.0
  0
LINE
  5
1b1
100
AcDbEntity
  8
text
 62
7
100
AcDbLine
 10
-70.559073
 20
-66.368550
 30
0.0
 11
-72.214787
 21
-66.368550
 31
0.0
  0
LINE
  5
1b2
100
AcDbEntity
  8
text
 62
7
100
AcDbLine
 10
-72.214787
 20
-66.368550
 30
0.0
 11
-73.870500
 21
-66.368550
 31
0.0
  0
LINE
  5
1b3
100
AcDbEntity
  8
text
 62
7
100
AcDbLine
 10
-73.870500
 20
-66.368550
 30
0.0
 11
-75.526212
 21
-66.368550
 31
0.0
  0
LINE
  5
1b4
100
AcDbEntity
  8
text
 62
7
100
AcDbLine
 10
-75.526212
 20
-66.368550
 30
0.0
 11
-75.526212
 21
-67.530750
 31
0.0
  0
LINE
  5
1b5
100
AcDbEntity
  8
text
 62
7
100
AcDbLine
 10
-75.526212
 20
-67.530750
 30
0.0
 11
-75.526212
 21
-68.692950
 31
0.0
  0
LINE
  5
1b6
100
AcDbEntity
  8
text
 62
7
100
AcDbLine
 10
-75.526212
 20
-68.692950
 30
0.0
 11
-75.526212
 21
-69.855150
 31
0.0
  0
LINE
  5
1b7
100
AcDbEntity
  8
text
 62
7
100
AcDbLine
 10
-75.526212
 20
-69.855150
 30
0.0
 11
-75.526212
 21
-71.017360
 31
0.0
  0
LINE
  5
1b8
100
AcDbEntity
  8
text
 62
7
100
AcDbLine
 10
-75.526212
 20
-71.017360
 30
0.0
 11
-75.689613
 21
-70.192140
 31
0.0
  0
LINE
  5
1b9
100
AcDbEntity
  8
text
 62
7
100
AcDbLine
 10
-75.689613
 20
-70.192140
 30
0.0
 11
-75.950857
 21
-69.408700
 31
0.0
  0
LINE
  5
1ba
100
AcDbEntity
  8
text
 62
7
100
AcDbLine
 10
-75.950857
 20
-69.408700
 30
0.0
 11
-76.325468
 21
-68.677570
 31
0.0
  0
LINE
  5
1bb
100
AcDbEntity
  8
text
 62
7
100
AcDbLine
 10
-76.325468
 20
-68.677570
 30
0.0
 11
-76.828972
 21
-68.009270
 31
0.0
  0
LINE
  5
1bc
100
AcDbEntity
  8
text
 62
7
100
AcDbLine
 10
-76.828972
 20
-68.009270
 30
0.0
 11
-77.599910
 21
-67.301110
 31
0.0
  0
LINE
  5
1bd
100
AcDbEntity
  8
text
 62
7
100
AcDbLine
 10
-77.599910
 20
-67.301110
 30
0.0
 11
-78.462875
 21
-66.787310
 31
0.0
  0
LINE
  5
1be
100
AcDbEntity
  8
text
 62
7
100
AcDbLine
 10
-78.462875
 20
-66.787310
 30
0.0
 11
-79.406898
 21
-66.474310
 31
0.0
  0
LINE
  5
1bf
100
AcDbEntity
  8
text
 62
7
100
AcDbLine
 10
-79.406898
 20
-66.474310
 30
0.0
 11
-80.421001
 21
-66.368600
 31
0.0
  0
LINE
  5
1c0
100
AcDbEntity
  8
text
 62
7
100
AcDbLine
 10
-16.903431
 20
-66.368600
 30
0.0
 11
-17.940966
 21
-66.368730
 31
0.0
  0
LINE
  5
1c1
100
AcDbEntity
  8
text
 62
7
100
AcDbLine
 10
-17.940966
 20
-66.368730
 30
0.0
 11
-18.978497
 21
-66.368860
 31
0.0
  0
LINE
  5
1c2
100
AcDbEntity
  8
text
 62
7
100
AcDbLine
 10
-18.978497
 20
-66.368860
 30
0.0
 11
-20.016032
 21
-66.368980
 31
0.0
  0
LINE
  5
1c3
100
AcDbEntity
  8
text
 62
7
100
AcDbLine
 10
-20.016032
 20
-66.368980
 30
0.0
 11
-21.053566
 21
-66.369110
 31
0.0
  0
LINE
  5
1c4
100
AcDbEntity
  8
text
 62
7
100
AcDbLine
 10
-21.053566
 20
-66.369110
 30
0.0
 11
-21.053566
 21
-71.131740
 31
0.0
  0
LINE
  5
1c5
100
AcDbEntity
  8
text
 62
7
100
AcDbLine
 10
-21.053566
 20
-71.131740
 30
0.0
 11
-21.053566
 21
-75.894370
 31
0.0
  0
LINE
  5
1c6
100
AcDbEntity
  8
text
 62
7
100
AcDbLine
 10
-21.053566
 20
-75.894370
 30
0.0
 11
-21.053566
 21
-80.657000
 31
0.0
  0
LINE
  5
1c7
100
AcDbEntity
  8
text
 62
7
100
AcDbLine
 10
-21.053566
 20
-80.657000
 30
0.0
 11
-21.053566
 21
-85.419630
 31
0.0
  0
LINE
  5
1c8
100
AcDbEntity
  8
text
 62
7
100
AcDbLine
 10
-21.053566
 20
-85.419630
 30
0.0
 11
-20.928508
 21
-85.419630
 31
0.0
  0
LINE
  5
1c9
100
AcDbEntity
  8
text
 62
7
100
AcDbLine
 10
-20.928508
 20
-85.419630
 30
0.0
 11
-20.803450
 21
-85.419630
 31
0.0
  0
LINE
  5
1ca
100
AcDbEntity
  8
text
 62
7
100
AcDbLine
 10
-20.803450
 20
-85.419630
 30
0.0
 11
-20.678395
 21
-85.419630
 31
0.0
  0
LINE
  5
1cb
100
AcDbEntity
  8
text
 62
7
100
AcDbLine
 10
-20.678395
 20
-85.419630
 30
0.0
 11
-20.553337
 21
-85.419630
 31
0.0
  0
LINE
  5
1cc
100
AcDbEntity
  8
text
 62
7
100
AcDbLine
 10
-20.553337
 20
-85.419630
 30
0.0
 11
-19.640731
 21
-85.419630
 31
0.0
  0
LINE
  5
1cd
100
AcDbEntity
  8
text
 62
7
100
AcDbLine
 10
-19.640731
 20
-85.419630
 30
0.0
 11
-18.728125
 21
-85.419630
 31
0.0
  0
LINE
  5
1ce
100
AcDbEntity
  8
text
 62
7
100
AcDbLine
 10
-18.728125
 20
-85.419630
 30
0.0
 11
-17.815521
 21
-85.419630
 31
0.0
  0
LINE
  5
1cf
100
AcDbEntity
  8
text
 62
7
100
AcDbLine
 10
-17.815521
 20
-85.419630
 30
0.0
 11
-16.902915
 21
-85.419630
 31
0.0
  0
LINE
  5
1d0
100
AcDbEntity
  8
text
 62
7
100
AcDbLine
 10
-16.902915
 20
-85.419630
 30
0.0
 11
-15.696566
 21
-85.340730
 31
0.0
  0
LINE
  5
1d1
100
AcDbEntity
  8
text
 62
7
100
AcDbLine
 10
-15.696566
 20
-85.340730
 30
0.0
 11
-14.533945
 21
-85.104650
 31
0.0
  0
LINE
  5
1d2
100
AcDbEntity
  8
text
 62
7
100
AcDbLine
 10
-14.533945
 20
-85.104650
 30
0.0
 11
-13.418668
 21
-84.712100
 31
0.0
  0
LINE
  5
1d3
100
AcDbEntity
  8
text
 62
7
100
AcDbLine
 10
-13.418668
 20
-84.712100
 30
0.0
 11
-12.354355
 21
-84.163860
 31
0.0
  0
LINE
  5
1d4
100
AcDbEntity
  8
text
 62
7
100
AcDbLine
 10
-12.354355
 20
-84.163860
 30
0.0
 11
-11.365083
 21
-83.478740
 31
0.0
  0
LINE
  5
1d5
100
AcDbEntity
  8
text
 62
7
100
AcDbLine
 10
-11.365083
 20
-83.478740
 30
0.0
 11
-10.483444
 21
-82.675860
 31
0.0
  0
LINE
  5
1d6
100
AcDbEntity
  8
text
 62
7
100
AcDbLine
 10
-10.483444
 20
-82.675860
 30
0.0
 11
-9.711601
 21
-81.757610
 31
0.0
  0
LINE
  5
1d7
100
AcDbEntity
  8
text
 62
7
100
AcDbLine
 10
-9.711601
 20
-81.757610
 30
0.0
 11
-9.051716
 21
-80.726350
 31
0.0
  0
LINE
  5
1d8
100
AcDbEntity
  8
text
 62
7
100
AcDbLine
 10
-9.051716
 20
-80.726350
 30
0.0
 11
-9.052245
 21
-80.726350
 31
0.0
  0
LINE
  5
1d9
100
AcDbEntity
  8
text
 62
7
100
AcDbLine
 10
-9.052245
 20
-80.726350
 30
0.0
 11
-9.052774
 21
-80.726350
 31
0.0
  0
LINE
  5
1da
100
AcDbEntity
  8
text
 62
7
100
AcDbLine
 10
-9.052774
 20
-80.726350
 30
0.0
 11
-9.053303
 21
-80.726350
 31
0.0
  0
LINE
  5
1db
100
AcDbEntity
  8
text
 62
7
100
AcDbLine
 10
-9.053303
 20
-80.726350
 30
0.0
 11
-9.053832
 21
-80.726350
 31
0.0
  0
LINE
  5
1dc
100
AcDbEntity
  8
text
 62
7
100
AcDbLine
 10
-9.053832
 20
-80.726350
 30
0.0
 11
-8.519596
 21
-79.602620
 31
0.0
  0
LINE
  5
1dd
100
AcDbEntity
  8
text
 62
7
100
AcDbLine
 10
-8.519596
 20
-79.602620
 30
0.0
 11
-8.137440
 21
-78.424070
 31
0.0
  0
LINE
  5
1de
100
AcDbEntity
  8
text
 62
7
100
AcDbLine
 10
-8.137440
 20
-78.424070
 30
0.0
 11
-7.907811
 21
-77.193500
 31
0.0
  0
LINE
  5
1df
100
AcDbEntity
  8
text
 62
7
100
AcDbLine
 10
-7.907811
 20
-77.193500
 30
0.0
 11
-7.831169
 21
-75.913720
 31
0.0
  0
LINE
  5
1e0
100
AcDbEntity
  8
text
 62
7
100
AcDbLine
 10
-7.831169
 20
-75.913720
 30
0.0
 11
-7.907573
 21
-74.629260
 31
0.0
  0
LINE
  5
1e1
100
AcDbEntity
  8
text
 62
7
100
AcDbLine
 10
-7.907573
 20
-74.629260
 30
0.0
 11
-8.136636
 21
-73.395050
 31
0.0
  0
LINE
  5
1e2
100
AcDbEntity
  8
text
 62
7
100
AcDbLine
 10
-8.136636
 20
-73.395050
 30
0.0
 11
-8.518117
 21
-72.214180
 31
0.0
  0
LINE
  5
1e3
100
AcDbEntity
  8
text
 62
7
100
AcDbLine
 10
-8.518117
 20
-72.214180
 30
0.0
 11
-9.051766
 21
-71.089730
 31
0.0
  0
LINE
  5
1e4
100
AcDbEntity
  8
text
 62
7
100
AcDbLine
 10
-9.051766
 20
-71.089730
 30
0.0
 11
-9.052295
 21
-71.089200
 31
0.0
  0
LINE
  5
1e5
100
AcDbEntity
  8
text
 62
7
100
AcDbLine
 10
-9.052295
 20
-71.089200
 30
0.0
 11
-9.052824
 21
-71.088670
 31
0.0
  0
LINE
  5
1e6
100
AcDbEntity
  8
text
 62
7
100
AcDbLine
 10
-9.052824
 20
-71.088670
 30
0.0
 11
-9.053353
 21
-71.088140
 31
0.0
  0
LINE
  5
1e7
100
AcDbEntity
  8
text
 62
7
100
AcDbLine
 10
-9.053353
 20
-71.088140
 30
0.0
 11
-9.053882
 21
-71.087610
 31
0.0
  0
LINE
  5
1e8
100
AcDbEntity
  8
text
 62
7
100
AcDbLine
 10
-9.053882
 20
-71.087610
 30
0.0
 11
-9.713342
 21
-70.051530
 31
0.0
  0
LINE
  5
1e9
100
AcDbEntity
  8
text
 62
7
100
AcDbLine
 10
-9.713342
 20
-70.051530
 30
0.0
 11
-10.484518
 21
-69.129500
 31
0.0
  0
LINE
  5
1ea
100
AcDbEntity
  8
text
 62
7
100
AcDbLine
 10
-10.484518
 20
-69.129500
 30
0.0
 11
-11.365522
 21
-68.324170
 31
0.0
  0
LINE
  5
1eb
100
AcDbEntity
  8
text
 62
7
100
AcDbLine
 10
-11.365522
 20
-68.324170
 30
0.0
 11
-12.354455
 21
-67.638210
 31
0.0
  0
LINE
  5
1ec
100
AcDbEntity
  8
text
 62
7
100
AcDbLine
 10
-12.354455
 20
-67.638210
 30
0.0
 11
-12.353662
 21
-67.638210
 31
0.0
  0
LINE
  5
1ed
100
AcDbEntity
  8
text
 62
7
100
AcDbLine
 10
-12.353662
 20
-67.638210
 30
0.0
 11
-12.352868
 21
-67.638210
 31
0.0
  0
LINE
  5
1ee
100
AcDbEntity
  8
text
 62
7
100
AcDbLine
 10
-12.352868
 20
-67.638210
 30
0.0
 11
-12.352074
 21
-67.638210
 31
0.0
  0
LINE
  5
1ef
100
AcDbEntity
  8
text
 62
7
100
AcDbLine
 10
-12.352074
 20
-67.638210
 30
0.0
 11
-12.351280
 21
-67.638210
 31
0.0
  0
LINE
  5
1f0
100
AcDbEntity
  8
text
 62
7
100
AcDbLine
 10
-12.351280
 20
-67.638210
 30
0.0
 11
-13.416265
 21
-67.083900
 31
0.0
  0
LINE
  5
1f1
100
AcDbEntity
  8
text
 62
7
100
AcDbLine
 10
-13.416265
 20
-67.083900
 30
0.0
 11
-14.532590
 21
-66.686990
 31
0.0
  0
LINE
  5
1f2
100
AcDbEntity
  8
text
 62
7
100
AcDbLine
 10
-14.532590
 20
-66.686990
 30
0.0
 11
-15.696434
 21
-66.448270
 31
0.0
  0
LINE
  5
1f3
100
AcDbEntity
  8
text
 62
7
100
AcDbLine
 10
-15.696434
 20
-66.448270
 30
0.0
 11
-16.903431
 21
-66.368600
 31
0.0
  0
LINE
  5
1f4
100
AcDbEntity
  8
text
 62
7
100
AcDbLine
 10
-61.934273
 20
-66.369130
 30
0.0
 11
-61.934273
 21
-71.131760
 31
0.0
  0
LINE
  5
1f5
100
AcDbEntity
  8
text
 62
7
100
AcDbLine
 10
-61.934273
 20
-71.131760
 30
0.0
 11
-61.934273
 21
-75.894390
 31
0.0
  0
LINE
  5
1f6
100
AcDbEntity
  8
text
 62
7
100
AcDbLine
 10
-61.934273
 20
-75.894390
 30
0.0
 11
-61.934273
 21
-80.657010
 31
0.0
  0
LINE
  5
1f7
100
AcDbEntity
  8
text
 62
7
100
AcDbLine
 10
-61.934273
 20
-80.657010
 30
0.0
 11
-61.934273
 21
-85.419640
 31
0.0
  0
LINE
  5
1f8
100
AcDbEntity
  8
text
 62
7
100
AcDbLine
 10
-61.934273
 20
-85.419640
 30
0.0
 11
-61.245814
 21
-85.419640
 31
0.0
  0
LINE
  5
1f9
100
AcDbEntity
  8
text
 62
7
100
AcDbLine
 10
-61.245814
 20
-85.419640
 30
0.0
 11
-60.557355
 21
-85.419640
 31
0.0
  0
LINE
  5
1fa
100
AcDbEntity
  8
text
 62
7
100
AcDbLine
 10
-60.557355
 20
-85.419640
 30
0.0
 11
-59.868896
 21
-85.419640
 31
0.0
  0
LINE
  5
1fb
100
AcDbEntity
  8
text
 62
7
100
AcDbLine
 10
-59.868896
 20
-85.419640
 30
0.0
 11
-59.180437
 21
-85.419640
 31
0.0
  0
LINE
  5
1fc
100
AcDbEntity
  8
text
 62
7
100
AcDbLine
 10
-59.180437
 20
-85.419640
 30
0.0
 11
-59.180437
 21
-85.294710
 31
0.0
  0
LINE
  5
1fd
100
AcDbEntity
  8
text
 62
7
100
AcDbLine
 10
-59.180437
 20
-85.294710
 30
0.0
 11
-59.180437
 21
-85.169790
 31
0.0
  0
LINE
  5
1fe
100
AcDbEntity
  8
text
 62
7
100
AcDbLine
 10
-59.180437
 20
-85.169790
 30
0.0
 11
-59.180437
 21
-85.044860
 31
0.0
  0
LINE
  5
1ff
100
AcDbEntity
  8
text
 62
7
100
AcDbLine
 10
-59.180437
 20
-85.044860
 30
0.0
 11
-59.180437
 21
-84.919930
 31
0.0
  0
LINE
  5
200
100
AcDbEntity
  8
text
 62
7
100
AcDbLine
 10
-59.180437
 20
-84.919930
 30
0.0
 11
-59.180437
 21
-80.282230
 31
0.0
  0
LINE
  5
201
100
AcDbEntity
  8
text
 62
7
100
AcDbLine
 10
-59.180437
 20
-80.282230
 30
0.0
 11
-59.180437
 21
-75.644530
 31
0.0
  0
LINE
  5
202
100
AcDbEntity
  8
text
 62
7
100
AcDbLine
 10
-59.180437
 20
-75.644530
 30
0.0
 11
-59.180437
 21
-71.006830
 31
0.0
  0
LINE
  5
203
100
AcDbEntity
  8
text
 62
7
100
AcDbLine
 10
-59.180437
 20
-71.006830
 30
0.0
 11
-59.180437
 21
-66.369130
 31
0.0
  0
LINE
  5
204
100
AcDbEntity
  8
text
 62
7
100
AcDbLine
 10
-59.180437
 20
-66.369130
 30
0.0
 11
-59.868896
 21
-66.369130
 31
0.0
  0
LINE
  5
205
100
AcDbEntity
  8
text
 62
7
100
AcDbLine
 10
-59.868896
 20
-66.369130
 30
0.0
 11
-60.557355
 21
-66.369130
 31
0.0
  0
LINE
  5
206
100
AcDbEntity
  8
text
 62
7
100
AcDbLine
 10
-60.557355
 20
-66.369130
 30
0.0
 11
-61.245814
 21
-66.369130
 31
0.0
  0
LINE
  5
207
100
AcDbEntity
  8
text
 62
7
100
AcDbLine
 10
-61.245814
 20
-66.369130
 30
0.0
 11
-61.934273
 21
-66.369130
 31
0.0
  0
LINE
  5
208
100
AcDbEntity
  8
text
 62
7
100
AcDbLine
 10
-42.385597
 20
-66.369130
 30
0.0
 11
-42.389497
 21
-71.131760
 31
0.0
  0
LINE
  5
209
100
AcDbEntity
  8
text
 62
7
100
AcDbLine
 10
-42.389497
 20
-71.131760
 30
0.0
 11
-42.393397
 21
-75.894390
 31
0.0
  0
LINE
  5
20a
100
AcDbEntity
  8
text
 62
7
100
AcDbLine
 10
-42.393397
 20
-75.894390
 30
0.0
 11
-42.397297
 21
-80.657010
 31
0.0
  0
LINE
  5
20b
100
AcDbEntity
  8
text
 62
7
100
AcDbLine
 10
-42.397297
 20
-80.657010
 30
0.0
 11
-42.401197
 21
-85.419640
 31
0.0
  0
LINE
  5
20c
100
AcDbEntity
  8
text
 62
7
100
AcDbLine
 10
-42.401197
 20
-85.419640
 30
0.0
 11
-41.721006
 21
-85.419640
 31
0.0
  0
LINE
  5
20d
100
AcDbEntity
  8
text
 62
7
100
AcDbLine
 10
-41.721006
 20
-85.419640
 30
0.0
 11
-41.040816
 21
-85.419640
 31
0.0
  0
LINE
  5
20e
100
AcDbEntity
  8
text
 62
7
100
AcDbLine
 10
-41.040816
 20
-85.419640
 30
0.0
 11
-40.360625
 21
-85.419640
 31
0.0
  0
LINE
  5
20f
100
AcDbEntity
  8
text
 62
7
100
AcDbLine
 10
-40.360625
 20
-85.419640
 30
0.0
 11
-39.680434
 21
-85.419640
 31
0.0
  0
LINE
  5
210
100
AcDbEntity
  8
text
 62
7
100
AcDbLine
 10
-39.680434
 20
-85.419640
 30
0.0
 11
-39.680434
 21
-81.372350
 31
0.0
  0
LINE
  5
211
100
AcDbEntity
  8
text
 62
7
100
AcDbLine
 10
-39.680434
 20
-81.372350
 30
0.0
 11
-39.680434
 21
-77.325050
 31
0.0
  0
LINE
  5
212
100
AcDbEntity
  8
text
 62
7
100
AcDbLine
 10
-39.680434
 20
-77.325050
 30
0.0
 11
-39.680434
 21
-73.277750
 31
0.0
  0
LINE
  5
213
100
AcDbEntity
  8
text
 62
7
100
AcDbLine
 10
-39.680434
 20
-73.277750
 30
0.0
 11
-39.680434
 21
-69.230450
 31
0.0
  0
LINE
  5
214
100
AcDbEntity
  8
text
 62
7
100
AcDbLine
 10
-39.680434
 20
-69.230450
 30
0.0
 11
-38.632179
 21
-69.230450
 31
0.0
  0
LINE
  5
215
100
AcDbEntity
  8
text
 62
7
100
AcDbLine
 10
-38.632179
 20
-69.230450
 30
0.0
 11
-37.583921
 21
-69.230450
 31
0.0
  0
LINE
  5
216
100
AcDbEntity
  8
text
 62
7
100
AcDbLine
 10
-37.583921
 20
-69.230450
 30
0.0
 11
-36.535665
 21
-69.230450
 31
0.0
  0
LINE
  5
217
100
AcDbEntity
  8
text
 62
7
100
AcDbLine
 10
-36.535665
 20
-69.230450
 30
0.0
 11
-35.487407
 21
-69.230450
 31
0.0
  0
LINE
  5
218
100
AcDbEntity
  8
text
 62
7
100
AcDbLine
 10
-35.487407
 20
-69.230450
 30
0.0
 11
-35.487407
 21
-68.515120
 31
0.0
  0
LINE
  5
219
100
AcDbEntity
  8
text
 62
7
100
AcDbLine
 10
-35.487407
 20
-68.515120
 30
0.0
 11
-35.487407
 21
-67.799790
 31
0.0
  0
LINE
  5
21a
100
AcDbEntity
  8
text
 62
7
100
AcDbLine
 10
-35.487407
 20
-67.799790
 30
0.0
 11
-35.487407
 21
-67.084460
 31
0.0
  0
LINE
  5
21b
100
AcDbEntity
  8
text
 62
7
100
AcDbLine
 10
-35.487407
 20
-67.084460
 30
0.0
 11
-35.487407
 21
-66.369130
 31
0.0
  0
LINE
  5
21c
100
AcDbEntity
  8
text
 62
7
100
AcDbLine
 10
-35.487407
 20
-66.369130
 30
0.0
 11
-35.612336
 21
-66.369130
 31
0.0
  0
LINE
  5
21d
100
AcDbEntity
  8
text
 62
7
100
AcDbLine
 10
-35.612336
 20
-66.369130
 30
0.0
 11
-35.737261
 21
-66.369130
 31
0.0
  0
LINE
  5
21e
100
AcDbEntity
  8
text
 62
7
100
AcDbLine
 10
-35.737261
 20
-66.369130
 30
0.0
 11
-35.862190
 21
-66.369130
 31
0.0
  0
LINE
  5
21f
100
AcDbEntity
  8
text
 62
7
100
AcDbLine
 10
-35.862190
 20
-66.369130
 30
0.0
 11
-35.987118
 21
-66.369130
 31
0.0
  0
LINE
  5
220
100
AcDbEntity
  8
text
 62
7
100
AcDbLine
 10
-35.987118
 20
-66.369130
 30
0.0
 11
-37.586762
 21
-66.369130
 31
0.0
  0
LINE
  5
221
100
AcDbEntity
  8
text
 62
7
100
AcDbLine
 10
-37.586762
 20
-66.369130
 30
0.0
 11
-39.186407
 21
-66.369130
 31
0.0
  0
LINE
  5
222
100
AcDbEntity
  8
text
 62
7
100
AcDbLine
 10
-39.186407
 20
-66.369130
 30
0.0
 11
-40.786051
 21
-66.369130
 31
0.0
  0
LINE
  5
223
100
AcDbEntity
  8
text
 62
7
100
AcDbLine
 10
-40.786051
 20
-66.369130
 30
0.0
 11
-42.385597
 21
-66.369130
 31
0.0
  0
LINE
  5
224
100
AcDbEntity
  8
text
 62
7
100
AcDbLine
 10
-33.850200
 20
-66.369130
 30
0.0
 11
-33.850200
 21
-71.131760
 31
0.0
  0
LINE
  5
225
100
AcDbEntity
  8
text
 62
7
100
AcDbLine
 10
-33.850200
 20
-71.131760
 30
0.0
 11
-33.850200
 21
-75.894390
 31
0.0
  0
LINE
  5
226
100
AcDbEntity
  8
text
 62
7
100
AcDbLine
 10
-33.850200
 20
-75.894390
 30
0.0
 11
-33.850200
 21
-80.657010
 31
0.0
  0
LINE
  5
227
100
AcDbEntity
  8
text
 62
7
100
AcDbLine
 10
-33.850200
 20
-80.657010
 30
0.0
 11
-33.850200
 21
-85.419640
 31
0.0
  0
LINE
  5
228
100
AcDbEntity
  8
text
 62
7
100
AcDbLine
 10
-33.850200
 20
-85.419640
 30
0.0
 11
-31.068458
 21
-85.419640
 31
0.0
  0
LINE
  5
229
100
AcDbEntity
  8
text
 62
7
100
AcDbLine
 10
-31.068458
 20
-85.419640
 30
0.0
 11
-28.286716
 21
-85.419640
 31
0.0
  0
LINE
  5
22a
100
AcDbEntity
  8
text
 62
7
100
AcDbLine
 10
-28.286716
 20
-85.419640
 30
0.0
 11
-25.504972
 21
-85.419640
 31
0.0
  0
LINE
  5
22b
100
AcDbEntity
  8
text
 62
7
100
AcDbLine
 10
-25.504972
 20
-85.419640
 30
0.0
 11
-22.723230
 21
-85.419640
 31
0.0
  0
LINE
  5
22c
100
AcDbEntity
  8
text
 62
7
100
AcDbLine
 10
-22.723230
 20
-85.419640
 30
0.0
 11
-22.723230
 21
-84.704310
 31
0.0
  0
LINE
  5
22d
100
AcDbEntity
  8
text
 62
7
100
AcDbLine
 10
-22.723230
 20
-84.704310
 30
0.0
 11
-22.723230
 21
-83.988980
 31
0.0
  0
LINE
  5
22e
100
AcDbEntity
  8
text
 62
7
100
AcDbLine
 10
-22.723230
 20
-83.988980
 30
0.0
 11
-22.723230
 21
-83.273650
 31
0.0
  0
LINE
  5
22f
100
AcDbEntity
  8
text
 62
7
100
AcDbLine
 10
-22.723230
 20
-83.273650
 30
0.0
 11
-22.723230
 21
-82.558320
 31
0.0
  0
LINE
  5
230
100
AcDbEntity
  8
text
 62
7
100
AcDbLine
 10
-22.723230
 20
-82.558320
 30
0.0
 11
-24.816513
 21
-82.558320
 31
0.0
  0
LINE
  5
231
100
AcDbEntity
  8
text
 62
7
100
AcDbLine
 10
-24.816513
 20
-82.558320
 30
0.0
 11
-26.909795
 21
-82.558320
 31
0.0
  0
LINE
  5
232
100
AcDbEntity
  8
text
 62
7
100
AcDbLine
 10
-26.909795
 20
-82.558320
 30
0.0
 11
-29.003081
 21
-82.558320
 31
0.0
  0
LINE
  5
233
100
AcDbEntity
  8
text
 62
7
100
AcDbLine
 10
-29.003081
 20
-82.558320
 30
0.0
 11
-31.096364
 21
-82.558320
 31
0.0
  0
LINE
  5
234
100
AcDbEntity
  8
text
 62
7
100
AcDbLine
 10
-31.096364
 20
-82.558320
 30
0.0
 11
-31.096364
 21
-80.904030
 31
0.0
  0
LINE
  5
235
100
AcDbEntity
  8
text
 62
7
100
AcDbLine
 10
-31.096364
 20
-80.904030
 30
0.0
 11
-31.096364
 21
-79.249740
 31
0.0
  0
LINE
  5
236
100
AcDbEntity
  8
text
 62
7
100
AcDbLine
 10
-31.096364
 20
-79.249740
 30
0.0
 11
-31.096364
 21
-77.595440
 31
0.0
  0
LINE
  5
237
100
AcDbEntity
  8
text
 62
7
100
AcDbLine
 10
-31.096364
 20
-77.595440
 30
0.0
 11
-31.096364
 21
-75.941150
 31
0.0
  0
LINE
  5
238
100
AcDbEntity
  8
text
 62
7
100
AcDbLine
 10
-31.096364
 20
-75.941150
 30
0.0
 11
-29.163278
 21
-75.941150
 31
0.0
  0
LINE
  5
239
100
AcDbEntity
  8
text
 62
7
100
AcDbLine
 10
-29.163278
 20
-75.941150
 30
0.0
 11
-27.230193
 21
-75.941150
 31
0.0
  0
LINE
  5
23a
100
AcDbEntity
  8
text
 62
7
100
AcDbLine
 10
-27.230193
 20
-75.941150
 30
0.0
 11
-25.297105
 21
-75.941150
 31
0.0
  0
LINE
  5
23b
100
AcDbEntity
  8
text
 62
7
100
AcDbLine
 10
-25.297105
 20
-75.941150
 30
0.0
 11
-23.364019
 21
-75.941150
 31
0.0
  0
LINE
  5
23c
100
AcDbEntity
  8
text
 62
7
100
AcDbLine
 10
-23.364019
 20
-75.941150
 30
0.0
 11
-23.364019
 21
-75.225820
 31
0.0
  0
LINE
  5
23d
100
AcDbEntity
  8
text
 62
7
100
AcDbLine
 10
-23.364019
 20
-75.225820
 30
0.0
 11
-23.364019
 21
-74.510490
 31
0.0
  0
LINE
  5
23e
100
AcDbEntity
  8
text
 62
7
100
AcDbLine
 10
-23.364019
 20
-74.510490
 30
0.0
 11
-23.364019
 21
-73.795160
 31
0.0
  0
LINE
  5
23f
100
AcDbEntity
  8
text
 62
7
100
AcDbLine
 10
-23.364019
 20
-73.795160
 30
0.0
 11
-23.364019
 21
-73.079830
 31
0.0
  0
LINE
  5
240
100
AcDbEntity
  8
text
 62
7
100
AcDbLine
 10
-23.364019
 20
-73.079830
 30
0.0
 11
-23.489077
 21
-73.079830
 31
0.0
  0
LINE
  5
241
100
AcDbEntity
  8
text
 62
7
100
AcDbLine
 10
-23.489077
 20
-73.079830
 30
0.0
 11
-23.614132
 21
-73.079830
 31
0.0
  0
LINE
  5
242
100
AcDbEntity
  8
text
 62
7
100
AcDbLine
 10
-23.614132
 20
-73.079830
 30
0.0
 11
-23.739188
 21
-73.079830
 31
0.0
  0
LINE
  5
243
100
AcDbEntity
  8
text
 62
7
100
AcDbLine
 10
-23.739188
 20
-73.079830
 30
0.0
 11
-23.864246
 21
-73.079830
 31
0.0
  0
LINE
  5
244
100
AcDbEntity
  8
text
 62
7
100
AcDbLine
 10
-23.864246
 20
-73.079830
 30
0.0
 11
-25.672276
 21
-73.079830
 31
0.0
  0
LINE
  5
245
100
AcDbEntity
  8
text
 62
7
100
AcDbLine
 10
-25.672276
 20
-73.079830
 30
0.0
 11
-27.480303
 21
-73.079830
 31
0.0
  0
LINE
  5
246
100
AcDbEntity
  8
text
 62
7
100
AcDbLine
 10
-27.480303
 20
-73.079830
 30
0.0
 11
-29.288333
 21
-73.079830
 31
0.0
  0
LINE
  5
247
100
AcDbEntity
  8
text
 62
7
100
AcDbLine
 10
-29.288333
 20
-73.079830
 30
0.0
 11
-31.096364
 21
-73.079830
 31
0.0
  0
LINE
  5
248
100
AcDbEntity
  8
text
 62
7
100
AcDbLine
 10
-31.096364
 20
-73.079830
 30
0.0
 11
-31.096364
 21
-72.117480
 31
0.0
  0
LINE
  5
249
100
AcDbEntity
  8
text
 62
7
100
AcDbLine
 10
-31.096364
 20
-72.117480
 30
0.0
 11
-31.096364
 21
-71.155140
 31
0.0
  0
LINE
  5
24a
100
AcDbEntity
  8
text
 62
7
100
AcDbLine
 10
-31.096364
 20
-71.155140
 30
0.0
 11
-31.096364
 21
-70.192790
 31
0.0
  0
LINE
  5
24b
100
AcDbEntity
  8
text
 62
7
100
AcDbLine
 10
-31.096364
 20
-70.192790
 30
0.0
 11
-31.096364
 21
-69.230450
 31
0.0
  0
LINE
  5
24c
100
AcDbEntity
  8
text
 62
7
100
AcDbLine
 10
-31.096364
 20
-69.230450
 30
0.0
 11
-28.989516
 21
-69.230450
 31
0.0
  0
LINE
  5
24d
100
AcDbEntity
  8
text
 62
7
100
AcDbLine
 10
-28.989516
 20
-69.230450
 30
0.0
 11
-26.882668
 21
-69.230450
 31
0.0
  0
LINE
  5
24e
100
AcDbEntity
  8
text
 62
7
100
AcDbLine
 10
-26.882668
 20
-69.230450
 30
0.0
 11
-24.775820
 21
-69.230450
 31
0.0
  0
LINE
  5
24f
100
AcDbEntity
  8
text
 62
7
100
AcDbLine
 10
-24.775820
 20
-69.230450
 30
0.0
 11
-22.668972
 21
-69.230450
 31
0.0
  0
LINE
  5
250
100
AcDbEntity
  8
text
 62
7
100
AcDbLine
 10
-22.668972
 20
-69.230450
 30
0.0
 11
-22.668972
 21
-68.515120
 31
0.0
  0
LINE
  5
251
100
AcDbEntity
  8
text
 62
7
100
AcDbLine
 10
-22.668972
 20
-68.515120
 30
0.0
 11
-22.668972
 21
-67.799790
 31
0.0
  0
LINE
  5
252
100
AcDbEntity
  8
text
 62
7
100
AcDbLine
 10
-22.668972
 20
-67.799790
 30
0.0
 11
-22.668972
 21
-67.084460
 31
0.0
  0
LINE
  5
253
100
AcDbEntity
  8
text
 62
7
100
AcDbLine
 10
-22.668972
 20
-67.084460
 30
0.0
 11
-22.668972
 21
-66.369130
 31
0.0
  0
LINE
  5
254
100
AcDbEntity
  8
text
 62
7
100
AcDbLine
 10
-22.668972
 20
-66.369130
 30
0.0
 11
-25.464279
 21
-66.369130
 31
0.0
  0
LINE
  5
255
100
AcDbEntity
  8
text
 62
7
100
AcDbLine
 10
-25.464279
 20
-66.369130
 30
0.0
 11
-28.259586
 21
-66.369130
 31
0.0
  0
LINE
  5
256
100
AcDbEntity
  8
text
 62
7
100
AcDbLine
 10
-28.259586
 20
-66.369130
 30
0.0
 11
-31.054893
 21
-66.369130
 31
0.0
  0
LINE
  5
257
100
AcDbEntity
  8
text
 62
7
100
AcDbLine
 10
-31.054893
 20
-66.369130
 30
0.0
 11
-33.850200
 21
-66.369130
 31
0.0
  0
LINE
  5
258
100
AcDbEntity
  8
text
 62
7
100
AcDbLine
 10
28.084519
 20
-66.622340
 30
0.0
 11
28.084649
 21
-66.622470
 31
0.0
  0
LINE
  5
259
100
AcDbEntity
  8
text
 62
7
100
AcDbLine
 10
28.084649
 20
-66.622470
 30
0.0
 11
28.084778
 21
-66.622600
 31
0.0
  0
LINE
  5
25a
100
AcDbEntity
  8
text
 62
7
100
AcDbLine
 10
28.084778
 20
-66.622600
 30
0.0
 11
28.084908
 21
-66.622730
 31
0.0
  0
LINE
  5
25b
100
AcDbEntity
  8
text
 62
7
100
AcDbLine
 10
28.084908
 20
-66.622730
 30
0.0
 11
28.085038
 21
-66.622860
 31
0.0
  0
LINE
  5
25c
100
AcDbEntity
  8
text
 62
7
100
AcDbLine
 10
28.085038
 20
-66.622860
 30
0.0
 11
27.208169
 21
-66.669260
 31
0.0
  0
LINE
  5
25d
100
AcDbEntity
  8
text
 62
7
100
AcDbLine
 10
27.208169
 20
-66.669260
 30
0.0
 11
26.347948
 21
-66.808210
 31
0.0
  0
LINE
  5
25e
100
AcDbEntity
  8
text
 62
7
100
AcDbLine
 10
26.347948
 20
-66.808210
 30
0.0
 11
25.506194
 21
-67.039070
 31
0.0
  0
LINE
  5
25f
100
AcDbEntity
  8
text
 62
7
100
AcDbLine
 10
25.506194
 20
-67.039070
 30
0.0
 11
24.684726
 21
-67.361270
 31
0.0
  0
LINE
  5
260
100
AcDbEntity
  8
text
 62
7
100
AcDbLine
 10
24.684726
 20
-67.361270
 30
0.0
 11
23.909889
 21
-67.759840
 31
0.0
  0
LINE
  5
261
100
AcDbEntity
  8
text
 62
7
100
AcDbLine
 10
23.909889
 20
-67.759840
 30
0.0
 11
23.187224
 21
-68.223910
 31
0.0
  0
LINE
  5
262
100
AcDbEntity
  8
text
 62
7
100
AcDbLine
 10
23.187224
 20
-68.223910
 30
0.0
 11
22.518003
 21
-68.752750
 31
0.0
  0
LINE
  5
263
100
AcDbEntity
  8
text
 62
7
100
AcDbLine
 10
22.518003
 20
-68.752750
 30
0.0
 11
21.903503
 21
-69.345650
 31
0.0
  0
LINE
  5
264
100
AcDbEntity
  8
text
 62
7
100
AcDbLine
 10
21.903503
 20
-69.345650
 30
0.0
 11
21.902974
 21
-69.345910
 31
0.0
  0
LINE
  5
265
100
AcDbEntity
  8
text
 62
7
100
AcDbLine
 10
21.902974
 20
-69.345910
 30
0.0
 11
21.902445
 21
-69.346180
 31
0.0
  0
LINE
  5
266
100
AcDbEntity
  8
text
 62
7
100
AcDbLine
 10
21.902445
 20
-69.346180
 30
0.0
 11
21.901916
 21
-69.346440
 31
0.0
  0
LINE
  5
267
100
AcDbEntity
  8
text
 62
7
100
AcDbLine
 10
21.901916
 20
-69.346440
 30
0.0
 11
21.901387
 21
-69.346710
 31
0.0
  0
LINE
  5
268
100
AcDbEntity
  8
text
 62
7
100
AcDbLine
 10
21.901387
 20
-69.346710
 30
0.0
 11
21.349818
 21
-70.001050
 31
0.0
  0
LINE
  5
269
100
AcDbEntity
  8
text
 62
7
100
AcDbLine
 10
21.349818
 20
-70.001050
 30
0.0
 11
20.857994
 21
-70.713440
 31
0.0
  0
LINE
  5
26a
100
AcDbEntity
  8
text
 62
7
100
AcDbLine
 10
20.857994
 20
-70.713440
 30
0.0
 11
20.426006
 21
-71.482730
 31
0.0
  0
LINE
  5
26b
100
AcDbEntity
  8
text
 62
7
100
AcDbLine
 10
20.426006
 20
-71.482730
 30
0.0
 11
20.053955
 21
-72.307770
 31
0.0
  0
LINE
  5
26c
100
AcDbEntity
  8
text
 62
7
100
AcDbLine
 10
20.053955
 20
-72.307770
 30
0.0
 11
19.752449
 21
-73.177240
 31
0.0
  0
LINE
  5
26d
100
AcDbEntity
  8
text
 62
7
100
AcDbLine
 10
19.752449
 20
-73.177240
 30
0.0
 11
19.536826
 21
-74.068270
 31
0.0
  0
LINE
  5
26e
100
AcDbEntity
  8
text
 62
7
100
AcDbLine
 10
19.536826
 20
-74.068270
 30
0.0
 11
19.407297
 21
-74.979900
 31
0.0
  0
LINE
  5
26f
100
AcDbEntity
  8
text
 62
7
100
AcDbLine
 10
19.407297
 20
-74.979900
 30
0.0
 11
19.364077
 21
-75.911170
 31
0.0
  0
LINE
  5
270
100
AcDbEntity
  8
text
 62
7
100
AcDbLine
 10
19.364077
 20
-75.911170
 30
0.0
 11
19.407297
 21
-76.842760
 31
0.0
  0
LINE
  5
271
100
AcDbEntity
  8
text
 62
7
100
AcDbLine
 10
19.407297
 20
-76.842760
 30
0.0
 11
19.536826
 21
-77.755090
 31
0.0
  0
LINE
  5
272
100
AcDbEntity
  8
text
 62
7
100
AcDbLine
 10
19.536826
 20
-77.755090
 30
0.0
 11
19.752449
 21
-78.646830
 31
0.0
  0
LINE
  5
273
100
AcDbEntity
  8
text
 62
7
100
AcDbLine
 10
19.752449
 20
-78.646830
 30
0.0
 11
20.053955
 21
-79.516630
 31
0.0
  0
LINE
  5
274
100
AcDbEntity
  8
text
 62
7
100
AcDbLine
 10
20.053955
 20
-79.516630
 30
0.0
 11
20.053955
 21
-79.517160
 31
0.0
  0
LINE
  5
275
100
AcDbEntity
  8
text
 62
7
100
AcDbLine
 10
20.053955
 20
-79.517160
 30
0.0
 11
20.053955
 21
-79.517690
 31
0.0
  0
LINE
  5
276
100
AcDbEntity
  8
text
 62
7
100
AcDbLine
 10
20.053955
 20
-79.517690
 30
0.0
 11
20.053955
 21
-79.518220
 31
0.0
  0
LINE
  5
277
100
AcDbEntity
  8
text
 62
7
100
AcDbLine
 10
20.053955
 20
-79.518220
 30
0.0
 11
20.053955
 21
-79.518750
 31
0.0
  0
LINE
  5
278
100
AcDbEntity
  8
text
 62
7
100
AcDbLine
 10
20.053955
 20
-79.518750
 30
0.0
 11
20.054219
 21
-79.518750
 31
0.0
  0
LINE
  5
279
100
AcDbEntity
  8
text
 62
7
100
AcDbLine
 10
20.054219
 20
-79.518750
 30
0.0
 11
20.054484
 21
-79.518750
 31
0.0
  0
LINE
  5
27a
100
AcDbEntity
  8
text
 62
7
100
AcDbLine
 10
20.054484
 20
-79.518750
 30
0.0
 11
20.054748
 21
-79.518750
 31
0.0
  0
LINE
  5
27b
100
AcDbEntity
  8
text
 62
7
100
AcDbLine
 10
20.054748
 20
-79.518750
 30
0.0
 11
20.055013
 21
-79.518750
 31
0.0
  0
LINE
  5
27c
100
AcDbEntity
  8
text
 62
7
100
AcDbLine
 10
20.055013
 20
-79.518750
 30
0.0
 11
20.427197
 21
-80.338120
 31
0.0
  0
LINE
  5
27d
100
AcDbEntity
  8
text
 62
7
100
AcDbLine
 10
20.427197
 20
-80.338120
 30
0.0
 11
20.859240
 21
-81.101550
 31
0.0
  0
LINE
  5
27e
100
AcDbEntity
  8
text
 62
7
100
AcDbLine
 10
20.859240
 20
-81.101550
 30
0.0
 11
21.351154
 21
-81.808030
 31
0.0
  0
LINE
  5
27f
100
AcDbEntity
  8
text
 62
7
100
AcDbLine
 10
21.351154
 20
-81.808030
 30
0.0
 11
21.902963
 21
-82.456550
 31
0.0
  0
LINE
  5
280
100
AcDbEntity
  8
text
 62
7
100
AcDbLine
 10
21.902963
 20
-82.456550
 30
0.0
 11
21.902963
 21
-82.457080
 31
0.0
  0
LINE
  5
281
100
AcDbEntity
  8
text
 62
7
100
AcDbLine
 10
21.902963
 20
-82.457080
 30
0.0
 11
21.902963
 21
-82.457610
 31
0.0
  0
LINE
  5
282
100
AcDbEntity
  8
text
 62
7
100
AcDbLine
 10
21.902963
 20
-82.457610
 30
0.0
 11
21.902963
 21
-82.458140
 31
0.0
  0
LINE
  5
283
100
AcDbEntity
  8
text
 62
7
100
AcDbLine
 10
21.902963
 20
-82.458140
 30
0.0
 11
21.902963
 21
-82.458670
 31
0.0
  0
LINE
  5
284
100
AcDbEntity
  8
text
 62
7
100
AcDbLine
 10
21.902963
 20
-82.458670
 30
0.0
 11
21.903493
 21
-82.458670
 31
0.0
  0
LINE
  5
285
100
AcDbEntity
  8
text
 62
7
100
AcDbLine
 10
21.903493
 20
-82.458670
 30
0.0
 11
21.904022
 21
-82.458670
 31
0.0
  0
LINE
  5
286
100
AcDbEntity
  8
text
 62
7
100
AcDbLine
 10
21.904022
 20
-82.458670
 30
0.0
 11
21.904551
 21
-82.458670
 31
0.0
  0
LINE
  5
287
100
AcDbEntity
  8
text
 62
7
100
AcDbLine
 10
21.904551
 20
-82.458670
 30
0.0
 11
21.905080
 21
-82.458670
 31
0.0
  0
LINE
  5
288
100
AcDbEntity
  8
text
 62
7
100
AcDbLine
 10
21.905080
 20
-82.458670
 30
0.0
 11
22.519363
 21
-83.045960
 31
0.0
  0
LINE
  5
289
100
AcDbEntity
  8
text
 62
7
100
AcDbLine
 10
22.519363
 20
-83.045960
 30
0.0
 11
23.188098
 21
-83.570510
 31
0.0
  0
LINE
  5
28a
100
AcDbEntity
  8
text
 62
7
100
AcDbLine
 10
23.188098
 20
-83.570510
 30
0.0
 11
23.910114
 21
-84.031740
 31
0.0
  0
LINE
  5
28b
100
AcDbEntity
  8
text
 62
7
100
AcDbLine
 10
23.910114
 20
-84.031740
 30
0.0
 11
24.684237
 21
-84.429090
 31
0.0
  0
LINE
  5
28c
100
AcDbEntity
  8
text
 62
7
100
AcDbLine
 10
24.684237
 20
-84.429090
 30
0.0
 11
25.505705
 21
-84.751290
 31
0.0
  0
LINE
  5
28d
100
AcDbEntity
  8
text
 62
7
100
AcDbLine
 10
25.505705
 20
-84.751290
 30
0.0
 11
26.347458
 21
-84.982160
 31
0.0
  0
LINE
  5
28e
100
AcDbEntity
  8
text
 62
7
100
AcDbLine
 10
26.347458
 20
-84.982160
 30
0.0
 11
27.207679
 21
-85.121100
 31
0.0
  0
LINE
  5
28f
100
AcDbEntity
  8
text
 62
7
100
AcDbLine
 10
27.207679
 20
-85.121100
 30
0.0
 11
28.084548
 21
-85.167500
 31
0.0
  0
LINE
  5
290
100
AcDbEntity
  8
text
 62
7
100
AcDbLine
 10
28.084548
 20
-85.167500
 30
0.0
 11
28.955445
 21
-85.121100
 31
0.0
  0
LINE
  5
291
100
AcDbEntity
  8
text
 62
7
100
AcDbLine
 10
28.955445
 20
-85.121100
 30
0.0
 11
29.808552
 21
-84.982220
 31
0.0
  0
LINE
  5
292
100
AcDbEntity
  8
text
 62
7
100
AcDbLine
 10
29.808552
 20
-84.982220
 30
0.0
 11
30.641982
 21
-84.751360
 31
0.0
  0
LINE
  5
293
100
AcDbEntity
  8
text
 62
7
100
AcDbLine
 10
30.641982
 20
-84.751360
 30
0.0
 11
31.453850
 21
-84.429050
 31
0.0
  0
LINE
  5
294
100
AcDbEntity
  8
text
 62
7
100
AcDbLine
 10
31.453850
 20
-84.429050
 30
0.0
 11
32.227214
 21
-84.031790
 31
0.0
  0
LINE
  5
295
100
AcDbEntity
  8
text
 62
7
100
AcDbLine
 10
32.227214
 20
-84.031790
 30
0.0
 11
32.947492
 21
-83.570570
 31
0.0
  0
LINE
  5
296
100
AcDbEntity
  8
text
 62
7
100
AcDbLine
 10
32.947492
 20
-83.570570
 30
0.0
 11
33.613284
 21
-83.045980
 31
0.0
  0
LINE
  5
297
100
AcDbEntity
  8
text
 62
7
100
AcDbLine
 10
33.613284
 20
-83.045980
 30
0.0
 11
34.223191
 21
-82.458630
 31
0.0
  0
LINE
  5
298
100
AcDbEntity
  8
text
 62
7
100
AcDbLine
 10
34.223191
 20
-82.458630
 30
0.0
 11
34.223720
 21
-82.458100
 31
0.0
  0
LINE
  5
299
100
AcDbEntity
  8
text
 62
7
100
AcDbLine
 10
34.223720
 20
-82.458100
 30
0.0
 11
34.224249
 21
-82.457570
 31
0.0
  0
LINE
  5
29a
100
AcDbEntity
  8
text
 62
7
100
AcDbLine
 10
34.224249
 20
-82.457570
 30
0.0
 11
34.224778
 21
-82.457040
 31
0.0
  0
LINE
  5
29b
100
AcDbEntity
  8
text
 62
7
100
AcDbLine
 10
34.224778
 20
-82.457040
 30
0.0
 11
34.225308
 21
-82.456510
 31
0.0
  0
LINE
  5
29c
100
AcDbEntity
  8
text
 62
7
100
AcDbLine
 10
34.225308
 20
-82.456510
 30
0.0
 11
34.780927
 21
-81.807860
 31
0.0
  0
LINE
  5
29d
100
AcDbEntity
  8
text
 62
7
100
AcDbLine
 10
34.780927
 20
-81.807860
 30
0.0
 11
35.274187
 21
-81.100790
 31
0.0
  0
LINE
  5
29e
100
AcDbEntity
  8
text
 62
7
100
AcDbLine
 10
35.274187
 20
-81.100790
 30
0.0
 11
35.704995
 21
-80.336750
 31
0.0
  0
LINE
  5
29f
100
AcDbEntity
  8
text
 62
7
100
AcDbLine
 10
35.704995
 20
-80.336750
 30
0.0
 11
36.073258
 21
-79.517160
 31
0.0
  0
LINE
  5
2a0
100
AcDbEntity
  8
text
 62
7
100
AcDbLine
 10
36.073258
 20
-79.517160
 30
0.0
 11
36.374687
 21
-78.647360
 31
0.0
  0
LINE
  5
2a1
100
AcDbEntity
  8
text
 62
7
100
AcDbLine
 10
36.374687
 20
-78.647360
 30
0.0
 11
36.590132
 21
-77.755620
 31
0.0
  0
LINE
  5
2a2
100
AcDbEntity
  8
text
 62
7
100
AcDbLine
 10
36.590132
 20
-77.755620
 30
0.0
 11
36.719479
 21
-76.843280
 31
0.0
  0
LINE
  5
2a3
100
AcDbEntity
  8
text
 62
7
100
AcDbLine
 10
36.719479
 20
-76.843280
 30
0.0
 11
36.762619
 21
-75.911690
 31
0.0
  0
LINE
  5
2a4
100
AcDbEntity
  8
text
 62
7
100
AcDbLine
 10
36.762619
 20
-75.911690
 30
0.0
 11
36.762619
 21
-75.558610
 31
0.0
  0
LINE
  5
2a5
100
AcDbEntity
  8
text
 62
7
100
AcDbLine
 10
36.762619
 20
-75.558610
 30
0.0
 11
36.762619
 21
-75.205530
 31
0.0
  0
LINE
  5
2a6
100
AcDbEntity
  8
text
 62
7
100
AcDbLine
 10
36.762619
 20
-75.205530
 30
0.0
 11
36.762619
 21
-74.852450
 31
0.0
  0
LINE
  5
2a7
100
AcDbEntity
  8
text
 62
7
100
AcDbLine
 10
36.762619
 20
-74.852450
 30
0.0
 11
36.762619
 21
-74.499370
 31
0.0
  0
LINE
  5
2a8
100
AcDbEntity
  8
text
 62
7
100
AcDbLine
 10
36.762619
 20
-74.499370
 30
0.0
 11
34.373490
 21
-74.499370
 31
0.0
  0
LINE
  5
2a9
100
AcDbEntity
  8
text
 62
7
100
AcDbLine
 10
34.373490
 20
-74.499370
 30
0.0
 11
31.984358
 21
-74.499370
 31
0.0
  0
LINE
  5
2aa
100
AcDbEntity
  8
text
 62
7
100
AcDbLine
 10
31.984358
 20
-74.499370
 30
0.0
 11
29.595229
 21
-74.499370
 31
0.0
  0
LINE
  5
2ab
100
AcDbEntity
  8
text
 62
7
100
AcDbLine
 10
29.595229
 20
-74.499370
 30
0.0
 11
27.206097
 21
-74.499370
 31
0.0
  0
LINE
  5
2ac
100
AcDbEntity
  8
text
 62
7
100
AcDbLine
 10
27.206097
 20
-74.499370
 30
0.0
 11
27.206097
 21
-75.197140
 31
0.0
  0
LINE
  5
2ad
100
AcDbEntity
  8
text
 62
7
100
AcDbLine
 10
27.206097
 20
-75.197140
 30
0.0
 11
27.206097
 21
-75.894900
 31
0.0
  0
LINE
  5
2ae
100
AcDbEntity
  8
text
 62
7
100
AcDbLine
 10
27.206097
 20
-75.894900
 30
0.0
 11
27.206097
 21
-76.592660
 31
0.0
  0
LINE
  5
2af
100
AcDbEntity
  8
text
 62
7
100
AcDbLine
 10
27.206097
 20
-76.592660
 30
0.0
 11
27.206097
 21
-77.290420
 31
0.0
  0
LINE
  5
2b0
100
AcDbEntity
  8
text
 62
7
100
AcDbLine
 10
27.206097
 20
-77.290420
 30
0.0
 11
28.876925
 21
-77.290420
 31
0.0
  0
LINE
  5
2b1
100
AcDbEntity
  8
text
 62
7
100
AcDbLine
 10
28.876925
 20
-77.290420
 30
0.0
 11
30.547755
 21
-77.290420
 31
0.0
  0
LINE
  5
2b2
100
AcDbEntity
  8
text
 62
7
100
AcDbLine
 10
30.547755
 20
-77.290420
 30
0.0
 11
32.218583
 21
-77.290420
 31
0.0
  0
LINE
  5
2b3
100
AcDbEntity
  8
text
 62
7
100
AcDbLine
 10
32.218583
 20
-77.290420
 30
0.0
 11
33.889411
 21
-77.290420
 31
0.0
  0
LINE
  5
2b4
100
AcDbEntity
  8
text
 62
7
100
AcDbLine
 10
33.889411
 20
-77.290420
 30
0.0
 11
33.629659
 21
-78.276340
 31
0.0
  0
LINE
  5
2b5
100
AcDbEntity
  8
text
 62
7
100
AcDbLine
 10
33.629659
 20
-78.276340
 30
0.0
 11
33.245905
 21
-79.190820
 31
0.0
  0
LINE
  5
2b6
100
AcDbEntity
  8
text
 62
7
100
AcDbLine
 10
33.245905
 20
-79.190820
 30
0.0
 11
32.723982
 21
-80.031010
 31
0.0
  0
LINE
  5
2b7
100
AcDbEntity
  8
text
 62
7
100
AcDbLine
 10
32.723982
 20
-80.031010
 30
0.0
 11
32.049729
 21
-80.794080
 31
0.0
  0
LINE
  5
2b8
100
AcDbEntity
  8
text
 62
7
100
AcDbLine
 10
32.049729
 20
-80.794080
 30
0.0
 11
31.164269
 21
-81.507780
 31
0.0
  0
LINE
  5
2b9
100
AcDbEntity
  8
text
 62
7
100
AcDbLine
 10
31.164269
 20
-81.507780
 30
0.0
 11
30.214034
 21
-82.012570
 31
0.0
  0
LINE
  5
2ba
100
AcDbEntity
  8
text
 62
7
100
AcDbLine
 10
30.214034
 20
-82.012570
 30
0.0
 11
29.190364
 21
-82.312480
 31
0.0
  0
LINE
  5
2bb
100
AcDbEntity
  8
text
 62
7
100
AcDbLine
 10
29.190364
 20
-82.312480
 30
0.0
 11
28.084598
 21
-82.411580
 31
0.0
  0
LINE
  5
2bc
100
AcDbEntity
  8
text
 62
7
100
AcDbLine
 10
28.084598
 20
-82.411580
 30
0.0
 11
27.475403
 21
-82.379880
 31
0.0
  0
LINE
  5
2bd
100
AcDbEntity
  8
text
 62
7
100
AcDbLine
 10
27.475403
 20
-82.379880
 30
0.0
 11
26.881392
 21
-82.284580
 31
0.0
  0
LINE
  5
2be
100
AcDbEntity
  8
text
 62
7
100
AcDbLine
 10
26.881392
 20
-82.284580
 30
0.0
 11
26.300651
 21
-82.125240
 31
0.0
  0
LINE
  5
2bf
100
AcDbEntity
  8
text
 62
7
100
AcDbLine
 10
26.300651
 20
-82.125240
 30
0.0
 11
25.731251
 21
-81.901580
 31
0.0
  0
LINE
  5
2c0
100
AcDbEntity
  8
text
 62
7
100
AcDbLine
 10
25.731251
 20
-81.901580
 30
0.0
 11
25.189424
 21
-81.623140
 31
0.0
  0
LINE
  5
2c1
100
AcDbEntity
  8
text
 62
7
100
AcDbLine
 10
25.189424
 20
-81.623140
 30
0.0
 11
24.689214
 21
-81.302420
 31
0.0
  0
LINE
  5
2c2
100
AcDbEntity
  8
text
 62
7
100
AcDbLine
 10
24.689214
 20
-81.302420
 30
0.0
 11
24.229043
 21
-80.938540
 31
0.0
  0
LINE
  5
2c3
100
AcDbEntity
  8
text
 62
7
100
AcDbLine
 10
24.229043
 20
-80.938540
 30
0.0
 11
23.807339
 21
-80.530600
 31
0.0
  0
LINE
  5
2c4
100
AcDbEntity
  8
text
 62
7
100
AcDbLine
 10
23.807339
 20
-80.530600
 30
0.0
 11
23.806810
 21
-80.530070
 31
0.0
  0
LINE
  5
2c5
100
AcDbEntity
  8
text
 62
7
100
AcDbLine
 10
23.806810
 20
-80.530070
 30
0.0
 11
23.806281
 21
-80.529540
 31
0.0
  0
LINE
  5
2c6
100
AcDbEntity
  8
text
 62
7
100
AcDbLine
 10
23.806281
 20
-80.529540
 30
0.0
 11
23.805752
 21
-80.529010
 31
0.0
  0
LINE
  5
2c7
100
AcDbEntity
  8
text
 62
7
100
AcDbLine
 10
23.805752
 20
-80.529010
 30
0.0
 11
23.805222
 21
-80.528480
 31
0.0
  0
LINE
  5
2c8
100
AcDbEntity
  8
text
 62
7
100
AcDbLine
 10
23.805222
 20
-80.528480
 30
0.0
 11
23.804693
 21
-80.527950
 31
0.0
  0
LINE
  5
2c9
100
AcDbEntity
  8
text
 62
7
100
AcDbLine
 10
23.804693
 20
-80.527950
 30
0.0
 11
23.804164
 21
-80.527430
 31
0.0
  0
LINE
  5
2ca
100
AcDbEntity
  8
text
 62
7
100
AcDbLine
 10
23.804164
 20
-80.527430
 30
0.0
 11
23.803635
 21
-80.526900
 31
0.0
  0
LINE
  5
2cb
100
AcDbEntity
  8
text
 62
7
100
AcDbLine
 10
23.803635
 20
-80.526900
 30
0.0
 11
23.803106
 21
-80.526370
 31
0.0
  0
LINE
  5
2cc
100
AcDbEntity
  8
text
 62
7
100
AcDbLine
 10
23.803106
 20
-80.526370
 30
0.0
 11
23.424572
 21
-80.069030
 31
0.0
  0
LINE
  5
2cd
100
AcDbEntity
  8
text
 62
7
100
AcDbLine
 10
23.424572
 20
-80.069030
 30
0.0
 11
23.084857
 21
-79.570150
 31
0.0
  0
LINE
  5
2ce
100
AcDbEntity
  8
text
 62
7
100
AcDbLine
 10
23.084857
 20
-79.570150
 30
0.0
 11
22.784002
 21
-79.028870
 31
0.0
  0
LINE
  5
2cf
100
AcDbEntity
  8
text
 62
7
100
AcDbLine
 10
22.784002
 20
-79.028870
 30
0.0
 11
22.522046
 21
-78.444320
 31
0.0
  0
LINE
  5
2d0
100
AcDbEntity
  8
text
 62
7
100
AcDbLine
 10
22.522046
 20
-78.444320
 30
0.0
 11
22.522046
 21
-78.444060
 31
0.0
  0
LINE
  5
2d1
100
AcDbEntity
  8
text
 62
7
100
AcDbLine
 10
22.522046
 20
-78.444060
 30
0.0
 11
22.522046
 21
-78.443790
 31
0.0
  0
LINE
  5
2d2
100
AcDbEntity
  8
text
 62
7
100
AcDbLine
 10
22.522046
 20
-78.443790
 30
0.0
 11
22.522046
 21
-78.443530
 31
0.0
  0
LINE
  5
2d3
100
AcDbEntity
  8
text
 62
7
100
AcDbLine
 10
22.522046
 20
-78.443530
 30
0.0
 11
22.522046
 21
-78.443270
 31
0.0
  0
LINE
  5
2d4
100
AcDbEntity
  8
text
 62
7
100
AcDbLine
 10
22.522046
 20
-78.443270
 30
0.0
 11
22.315946
 21
-77.833240
 31
0.0
  0
LINE
  5
2d5
100
AcDbEntity
  8
text
 62
7
100
AcDbLine
 10
22.315946
 20
-77.833240
 30
0.0
 11
22.168846
 21
-77.208600
 31
0.0
  0
LINE
  5
2d6
100
AcDbEntity
  8
text
 62
7
100
AcDbLine
 10
22.168846
 20
-77.208600
 30
0.0
 11
22.080646
 21
-76.568390
 31
0.0
  0
LINE
  5
2d7
100
AcDbEntity
  8
text
 62
7
100
AcDbLine
 10
22.080646
 20
-76.568390
 30
0.0
 11
22.051266
 21
-75.911640
 31
0.0
  0
LINE
  5
2d8
100
AcDbEntity
  8
text
 62
7
100
AcDbLine
 10
22.051266
 20
-75.911640
 30
0.0
 11
22.080666
 21
-75.249920
 31
0.0
  0
LINE
  5
2d9
100
AcDbEntity
  8
text
 62
7
100
AcDbLine
 10
22.080666
 20
-75.249920
 30
0.0
 11
22.168906
 21
-74.606790
 31
0.0
  0
LINE
  5
2da
100
AcDbEntity
  8
text
 62
7
100
AcDbLine
 10
22.168906
 20
-74.606790
 30
0.0
 11
22.316017
 21
-73.980850
 31
0.0
  0
LINE
  5
2db
100
AcDbEntity
  8
text
 62
7
100
AcDbLine
 10
22.316017
 20
-73.980850
 30
0.0
 11
22.522040
 21
-73.370710
 31
0.0
  0
LINE
  5
2dc
100
AcDbEntity
  8
text
 62
7
100
AcDbLine
 10
22.522040
 20
-73.370710
 30
0.0
 11
22.522040
 21
-73.370180
 31
0.0
  0
LINE
  5
2dd
100
AcDbEntity
  8
text
 62
7
100
AcDbLine
 10
22.522040
 20
-73.370180
 30
0.0
 11
22.522040
 21
-73.369650
 31
0.0
  0
LINE
  5
2de
100
AcDbEntity
  8
text
 62
7
100
AcDbLine
 10
22.522040
 20
-73.369650
 30
0.0
 11
22.522040
 21
-73.369120
 31
0.0
  0
LINE
  5
2df
100
AcDbEntity
  8
text
 62
7
100
AcDbLine
 10
22.522040
 20
-73.369120
 30
0.0
 11
22.522040
 21
-73.368590
 31
0.0
  0
LINE
  5
2e0
100
AcDbEntity
  8
text
 62
7
100
AcDbLine
 10
22.522040
 20
-73.368590
 30
0.0
 11
22.784774
 21
-72.779130
 31
0.0
  0
LINE
  5
2e1
100
AcDbEntity
  8
text
 62
7
100
AcDbLine
 10
22.784774
 20
-72.779130
 30
0.0
 11
23.087460
 21
-72.236380
 31
0.0
  0
LINE
  5
2e2
100
AcDbEntity
  8
text
 62
7
100
AcDbLine
 10
23.087460
 20
-72.236380
 30
0.0
 11
23.430156
 21
-71.739230
 31
0.0
  0
LINE
  5
2e3
100
AcDbEntity
  8
text
 62
7
100
AcDbLine
 10
23.430156
 20
-71.739230
 30
0.0
 11
23.812916
 21
-71.286550
 31
0.0
  0
LINE
  5
2e4
100
AcDbEntity
  8
text
 62
7
100
AcDbLine
 10
23.812916
 20
-71.286550
 30
0.0
 11
24.235598
 21
-70.877040
 31
0.0
  0
LINE
  5
2e5
100
AcDbEntity
  8
text
 62
7
100
AcDbLine
 10
24.235598
 20
-70.877040
 30
0.0
 11
24.697280
 21
-70.511490
 31
0.0
  0
LINE
  5
2e6
100
AcDbEntity
  8
text
 62
7
100
AcDbLine
 10
24.697280
 20
-70.511490
 30
0.0
 11
25.199179
 21
-70.189300
 31
0.0
  0
LINE
  5
2e7
100
AcDbEntity
  8
text
 62
7
100
AcDbLine
 10
25.199179
 20
-70.189300
 30
0.0
 11
25.742514
 21
-69.909880
 31
0.0
  0
LINE
  5
2e8
100
AcDbEntity
  8
text
 62
7
100
AcDbLine
 10
25.742514
 20
-69.909880
 30
0.0
 11
26.306831
 21
-69.686800
 31
0.0
  0
LINE
  5
2e9
100
AcDbEntity
  8
text
 62
7
100
AcDbLine
 10
26.306831
 20
-69.686800
 30
0.0
 11
26.884032
 21
-69.528150
 31
0.0
  0
LINE
  5
2ea
100
AcDbEntity
  8
text
 62
7
100
AcDbLine
 10
26.884032
 20
-69.528150
 30
0.0
 11
27.475969
 21
-69.433350
 31
0.0
  0
LINE
  5
2eb
100
AcDbEntity
  8
text
 62
7
100
AcDbLine
 10
27.475969
 20
-69.433350
 30
0.0
 11
28.084492
 21
-69.401850
 31
0.0
  0
LINE
  5
2ec
100
AcDbEntity
  8
text
 62
7
100
AcDbLine
 10
28.084492
 20
-69.401850
 30
0.0
 11
28.505584
 21
-69.417550
 31
0.0
  0
LINE
  5
2ed
100
AcDbEntity
  8
text
 62
7
100
AcDbLine
 10
28.505584
 20
-69.417550
 30
0.0
 11
28.916620
 21
-69.464750
 31
0.0
  0
LINE
  5
2ee
100
AcDbEntity
  8
text
 62
7
100
AcDbLine
 10
28.916620
 20
-69.464750
 30
0.0
 11
29.318284
 21
-69.543550
 31
0.0
  0
LINE
  5
2ef
100
AcDbEntity
  8
text
 62
7
100
AcDbLine
 10
29.318284
 20
-69.543550
 30
0.0
 11
29.711264
 21
-69.653980
 31
0.0
  0
LINE
  5
2f0
100
AcDbEntity
  8
text
 62
7
100
AcDbLine
 10
29.711264
 20
-69.653980
 30
0.0
 11
29.711793
 21
-69.653980
 31
0.0
  0
LINE
  5
2f1
100
AcDbEntity
  8
text
 62
7
100
AcDbLine
 10
29.711793
 20
-69.653980
 30
0.0
 11
29.712322
 21
-69.653980
 31
0.0
  0
LINE
  5
2f2
100
AcDbEntity
  8
text
 62
7
100
AcDbLine
 10
29.712322
 20
-69.653980
 30
0.0
 11
29.712851
 21
-69.653980
 31
0.0
  0
LINE
  5
2f3
100
AcDbEntity
  8
text
 62
7
100
AcDbLine
 10
29.712851
 20
-69.653980
 30
0.0
 11
29.713381
 21
-69.653980
 31
0.0
  0
LINE
  5
2f4
100
AcDbEntity
  8
text
 62
7
100
AcDbLine
 10
29.713381
 20
-69.653980
 30
0.0
 11
30.103048
 21
-69.788750
 31
0.0
  0
LINE
  5
2f5
100
AcDbEntity
  8
text
 62
7
100
AcDbLine
 10
30.103048
 20
-69.788750
 30
0.0
 11
30.448147
 21
-69.927950
 31
0.0
  0
LINE
  5
2f6
100
AcDbEntity
  8
text
 62
7
100
AcDbLine
 10
30.448147
 20
-69.927950
 30
0.0
 11
30.748192
 21
-70.070210
 31
0.0
  0
LINE
  5
2f7
100
AcDbEntity
  8
text
 62
7
100
AcDbLine
 10
30.748192
 20
-70.070210
 30
0.0
 11
31.002706
 21
-70.214150
 31
0.0
  0
LINE
  5
2f8
100
AcDbEntity
  8
text
 62
7
100
AcDbLine
 10
31.002706
 20
-70.214150
 30
0.0
 11
31.003806
 21
-70.214680
 31
0.0
  0
LINE
  5
2f9
100
AcDbEntity
  8
text
 62
7
100
AcDbLine
 10
31.003806
 20
-70.214680
 30
0.0
 11
31.004906
 21
-70.215210
 31
0.0
  0
LINE
  5
2fa
100
AcDbEntity
  8
text
 62
7
100
AcDbLine
 10
31.004906
 20
-70.215210
 30
0.0
 11
31.006006
 21
-70.215740
 31
0.0
  0
LINE
  5
2fb
100
AcDbEntity
  8
text
 62
7
100
AcDbLine
 10
31.006006
 20
-70.215740
 30
0.0
 11
31.007106
 21
-70.216260
 31
0.0
  0
LINE
  5
2fc
100
AcDbEntity
  8
text
 62
7
100
AcDbLine
 10
31.007106
 20
-70.216260
 30
0.0
 11
31.007900
 21
-70.216790
 31
0.0
  0
LINE
  5
2fd
100
AcDbEntity
  8
text
 62
7
100
AcDbLine
 10
31.007900
 20
-70.216790
 30
0.0
 11
31.008694
 21
-70.217320
 31
0.0
  0
LINE
  5
2fe
100
AcDbEntity
  8
text
 62
7
100
AcDbLine
 10
31.008694
 20
-70.217320
 30
0.0
 11
31.009487
 21
-70.217850
 31
0.0
  0
LINE
  5
2ff
100
AcDbEntity
  8
text
 62
7
100
AcDbLine
 10
31.009487
 20
-70.217850
 30
0.0
 11
31.010281
 21
-70.218380
 31
0.0
  0
LINE
  5
300
100
AcDbEntity
  8
text
 62
7
100
AcDbLine
 10
31.010281
 20
-70.218380
 30
0.0
 11
31.250523
 21
-70.375260
 31
0.0
  0
LINE
  5
301
100
AcDbEntity
  8
text
 62
7
100
AcDbLine
 10
31.250523
 20
-70.375260
 30
0.0
 11
31.495919
 21
-70.560010
 31
0.0
  0
LINE
  5
302
100
AcDbEntity
  8
text
 62
7
100
AcDbLine
 10
31.495919
 20
-70.560010
 30
0.0
 11
31.746153
 21
-70.772640
 31
0.0
  0
LINE
  5
303
100
AcDbEntity
  8
text
 62
7
100
AcDbLine
 10
31.746153
 20
-70.772640
 30
0.0
 11
32.000918
 21
-71.013170
 31
0.0
  0
LINE
  5
304
100
AcDbEntity
  8
text
 62
7
100
AcDbLine
 10
32.000918
 20
-71.013170
 30
0.0
 11
32.001183
 21
-71.013170
 31
0.0
  0
LINE
  5
305
100
AcDbEntity
  8
text
 62
7
100
AcDbLine
 10
32.001183
 20
-71.013170
 30
0.0
 11
32.001447
 21
-71.013170
 31
0.0
  0
LINE
  5
306
100
AcDbEntity
  8
text
 62
7
100
AcDbLine
 10
32.001447
 20
-71.013170
 30
0.0
 11
32.001712
 21
-71.013170
 31
0.0
  0
LINE
  5
307
100
AcDbEntity
  8
text
 62
7
100
AcDbLine
 10
32.001712
 20
-71.013170
 30
0.0
 11
32.001976
 21
-71.013170
 31
0.0
  0
LINE
  5
308
100
AcDbEntity
  8
text
 62
7
100
AcDbLine
 10
32.001976
 20
-71.013170
 30
0.0
 11
32.002506
 21
-71.013690
 31
0.0
  0
LINE
  5
309
100
AcDbEntity
  8
text
 62
7
100
AcDbLine
 10
32.002506
 20
-71.013690
 30
0.0
 11
32.003035
 21
-71.014220
 31
0.0
  0
LINE
  5
30a
100
AcDbEntity
  8
text
 62
7
100
AcDbLine
 10
32.003035
 20
-71.014220
 30
0.0
 11
32.003564
 21
-71.014750
 31
0.0
  0
LINE
  5
30b
100
AcDbEntity
  8
text
 62
7
100
AcDbLine
 10
32.003564
 20
-71.014750
 30
0.0
 11
32.004093
 21
-71.015280
 31
0.0
  0
LINE
  5
30c
100
AcDbEntity
  8
text
 62
7
100
AcDbLine
 10
32.004093
 20
-71.015280
 30
0.0
 11
32.255130
 21
-71.263590
 31
0.0
  0
LINE
  5
30d
100
AcDbEntity
  8
text
 62
7
100
AcDbLine
 10
32.255130
 20
-71.263590
 30
0.0
 11
32.456557
 21
-71.470810
 31
0.0
  0
LINE
  5
30e
100
AcDbEntity
  8
text
 62
7
100
AcDbLine
 10
32.456557
 20
-71.470810
 30
0.0
 11
32.604610
 21
-71.631000
 31
0.0
  0
LINE
  5
30f
100
AcDbEntity
  8
text
 62
7
100
AcDbLine
 10
32.604610
 20
-71.631000
 30
0.0
 11
32.695520
 21
-71.738240
 31
0.0
  0
LINE
  5
310
100
AcDbEntity
  8
text
 62
7
100
AcDbLine
 10
32.695520
 20
-71.738240
 30
0.0
 11
32.787990
 21
-71.858960
 31
0.0
  0
LINE
  5
311
100
AcDbEntity
  8
text
 62
7
100
AcDbLine
 10
32.787990
 20
-71.858960
 30
0.0
 11
32.894429
 21
-72.000770
 31
0.0
  0
LINE
  5
312
100
AcDbEntity
  8
text
 62
7
100
AcDbLine
 10
32.894429
 20
-72.000770
 30
0.0
 11
33.014714
 21
-72.163630
 31
0.0
  0
LINE
  5
313
100
AcDbEntity
  8
text
 62
7
100
AcDbLine
 10
33.014714
 20
-72.163630
 30
0.0
 11
33.148723
 21
-72.347500
 31
0.0
  0
LINE
  5
314
100
AcDbEntity
  8
text
 62
7
100
AcDbLine
 10
33.148723
 20
-72.347500
 30
0.0
 11
33.226883
 21
-72.454860
 31
0.0
  0
LINE
  5
315
100
AcDbEntity
  8
text
 62
7
100
AcDbLine
 10
33.226883
 20
-72.454860
 30
0.0
 11
33.305043
 21
-72.562220
 31
0.0
  0
LINE
  5
316
100
AcDbEntity
  8
text
 62
7
100
AcDbLine
 10
33.305043
 20
-72.562220
 30
0.0
 11
33.383203
 21
-72.669570
 31
0.0
  0
LINE
  5
317
100
AcDbEntity
  8
text
 62
7
100
AcDbLine
 10
33.383203
 20
-72.669570
 30
0.0
 11
33.461363
 21
-72.776930
 31
0.0
  0
LINE
  5
318
100
AcDbEntity
  8
text
 62
7
100
AcDbLine
 10
33.461363
 20
-72.776930
 30
0.0
 11
33.882784
 21
-72.432770
 31
0.0
  0
LINE
  5
319
100
AcDbEntity
  8
text
 62
7
100
AcDbLine
 10
33.882784
 20
-72.432770
 30
0.0
 11
34.304204
 21
-72.088600
 31
0.0
  0
LINE
  5
31a
100
AcDbEntity
  8
text
 62
7
100
AcDbLine
 10
34.304204
 20
-72.088600
 30
0.0
 11
34.725627
 21
-71.744440
 31
0.0
  0
LINE
  5
31b
100
AcDbEntity
  8
text
 62
7
100
AcDbLine
 10
34.725627
 20
-71.744440
 30
0.0
 11
35.147048
 21
-71.400270
 31
0.0
  0
LINE
  5
31c
100
AcDbEntity
  8
text
 62
7
100
AcDbLine
 10
35.147048
 20
-71.400270
 30
0.0
 11
35.292518
 21
-71.337770
 31
0.0
  0
LINE
  5
31d
100
AcDbEntity
  8
text
 62
7
100
AcDbLine
 10
35.292518
 20
-71.337770
 30
0.0
 11
35.437986
 21
-71.275270
 31
0.0
  0
LINE
  5
31e
100
AcDbEntity
  8
text
 62
7
100
AcDbLine
 10
35.437986
 20
-71.275270
 30
0.0
 11
35.583457
 21
-71.212770
 31
0.0
  0
LINE
  5
31f
100
AcDbEntity
  8
text
 62
7
100
AcDbLine
 10
35.583457
 20
-71.212770
 30
0.0
 11
35.728925
 21
-71.150270
 31
0.0
  0
LINE
  5
320
100
AcDbEntity
  8
text
 62
7
100
AcDbLine
 10
35.728925
 20
-71.150270
 30
0.0
 11
35.614979
 21
-71.026500
 31
0.0
  0
LINE
  5
321
100
AcDbEntity
  8
text
 62
7
100
AcDbLine
 10
35.614979
 20
-71.026500
 30
0.0
 11
35.501031
 21
-70.902740
 31
0.0
  0
LINE
  5
322
100
AcDbEntity
  8
text
 62
7
100
AcDbLine
 10
35.501031
 20
-70.902740
 30
0.0
 11
35.387086
 21
-70.778970
 31
0.0
  0
LINE
  5
323
100
AcDbEntity
  8
text
 62
7
100
AcDbLine
 10
35.387086
 20
-70.778970
 30
0.0
 11
35.273138
 21
-70.655210
 31
0.0
  0
LINE
  5
324
100
AcDbEntity
  8
text
 62
7
100
AcDbLine
 10
35.273138
 20
-70.655210
 30
0.0
 11
35.268838
 21
-70.649210
 31
0.0
  0
LINE
  5
325
100
AcDbEntity
  8
text
 62
7
100
AcDbLine
 10
35.268838
 20
-70.649210
 30
0.0
 11
35.262338
 21
-70.640210
 31
0.0
  0
LINE
  5
326
100
AcDbEntity
  8
text
 62
7
100
AcDbLine
 10
35.262338
 20
-70.640210
 30
0.0
 11
35.254538
 21
-70.629110
 31
0.0
  0
LINE
  5
327
100
AcDbEntity
  8
text
 62
7
100
AcDbLine
 10
35.254538
 20
-70.629110
 30
0.0
 11
35.246338
 21
-70.616310
 31
0.0
  0
LINE
  5
328
100
AcDbEntity
  8
text
 62
7
100
AcDbLine
 10
35.246338
 20
-70.616310
 30
0.0
 11
35.244438
 21
-70.613310
 31
0.0
  0
LINE
  5
329
100
AcDbEntity
  8
text
 62
7
100
AcDbLine
 10
35.244438
 20
-70.613310
 30
0.0
 11
35.242538
 21
-70.610310
 31
0.0
  0
LINE
  5
32a
100
AcDbEntity
  8
text
 62
7
100
AcDbLine
 10
35.242538
 20
-70.610310
 30
0.0
 11
35.240638
 21
-70.607310
 31
0.0
  0
LINE
  5
32b
100
AcDbEntity
  8
text
 62
7
100
AcDbLine
 10
35.240638
 20
-70.607310
 30
0.0
 11
35.238738
 21
-70.604310
 31
0.0
  0
LINE
  5
32c
100
AcDbEntity
  8
text
 62
7
100
AcDbLine
 10
35.238738
 20
-70.604310
 30
0.0
 11
35.236138
 21
-70.601310
 31
0.0
  0
LINE
  5
32d
100
AcDbEntity
  8
text
 62
7
100
AcDbLine
 10
35.236138
 20
-70.601310
 30
0.0
 11
35.233538
 21
-70.598310
 31
0.0
  0
LINE
  5
32e
100
AcDbEntity
  8
text
 62
7
100
AcDbLine
 10
35.233538
 20
-70.598310
 30
0.0
 11
35.230938
 21
-70.595310
 31
0.0
  0
LINE
  5
32f
100
AcDbEntity
  8
text
 62
7
100
AcDbLine
 10
35.230938
 20
-70.595310
 30
0.0
 11
35.228338
 21
-70.592310
 31
0.0
  0
LINE
  5
330
100
AcDbEntity
  8
text
 62
7
100
AcDbLine
 10
35.228338
 20
-70.592310
 30
0.0
 11
35.102065
 21
-70.415140
 31
0.0
  0
LINE
  5
331
100
AcDbEntity
  8
text
 62
7
100
AcDbLine
 10
35.102065
 20
-70.415140
 30
0.0
 11
34.973121
 21
-70.240860
 31
0.0
  0
LINE
  5
332
100
AcDbEntity
  8
text
 62
7
100
AcDbLine
 10
34.973121
 20
-70.240860
 30
0.0
 11
34.841430
 21
-70.069440
 31
0.0
  0
LINE
  5
333
100
AcDbEntity
  8
text
 62
7
100
AcDbLine
 10
34.841430
 20
-70.069440
 30
0.0
 11
34.706923
 21
-69.900880
 31
0.0
  0
LINE
  5
334
100
AcDbEntity
  8
text
 62
7
100
AcDbLine
 10
34.706923
 20
-69.900880
 30
0.0
 11
34.705623
 21
-69.898880
 31
0.0
  0
LINE
  5
335
100
AcDbEntity
  8
text
 62
7
100
AcDbLine
 10
34.705623
 20
-69.898880
 30
0.0
 11
34.704323
 21
-69.896880
 31
0.0
  0
LINE
  5
336
100
AcDbEntity
  8
text
 62
7
100
AcDbLine
 10
34.704323
 20
-69.896880
 30
0.0
 11
34.703023
 21
-69.894880
 31
0.0
  0
LINE
  5
337
100
AcDbEntity
  8
text
 62
7
100
AcDbLine
 10
34.703023
 20
-69.894880
 30
0.0
 11
34.701723
 21
-69.892880
 31
0.0
  0
LINE
  5
338
100
AcDbEntity
  8
text
 62
7
100
AcDbLine
 10
34.701723
 20
-69.892880
 30
0.0
 11
34.529683
 21
-69.688750
 31
0.0
  0
LINE
  5
339
100
AcDbEntity
  8
text
 62
7
100
AcDbLine
 10
34.529683
 20
-69.688750
 30
0.0
 11
34.315553
 21
-69.459940
 31
0.0
  0
LINE
  5
33a
100
AcDbEntity
  8
text
 62
7
100
AcDbLine
 10
34.315553
 20
-69.459940
 30
0.0
 11
34.057184
 21
-69.202390
 31
0.0
  0
LINE
  5
33b
100
AcDbEntity
  8
text
 62
7
100
AcDbLine
 10
34.057184
 20
-69.202390
 30
0.0
 11
33.752427
 21
-68.912060
 31
0.0
  0
LINE
  5
33c
100
AcDbEntity
  8
text
 62
7
100
AcDbLine
 10
33.752427
 20
-68.912060
 30
0.0
 11
33.409879
 21
-68.601610
 31
0.0
  0
LINE
  5
33d
100
AcDbEntity
  8
text
 62
7
100
AcDbLine
 10
33.409879
 20
-68.601610
 30
0.0
 11
33.058901
 21
-68.314550
 31
0.0
  0
LINE
  5
33e
100
AcDbEntity
  8
text
 62
7
100
AcDbLine
 10
33.058901
 20
-68.314550
 30
0.0
 11
32.699668
 21
-68.050930
 31
0.0
  0
LINE
  5
33f
100
AcDbEntity
  8
text
 62
7
100
AcDbLine
 10
32.699668
 20
-68.050930
 30
0.0
 11
32.332358
 21
-67.810840
 31
0.0
  0
LINE
  5
340
100
AcDbEntity
  8
text
 62
7
100
AcDbLine
 10
32.332358
 20
-67.810840
 30
0.0
 11
32.331829
 21
-67.810310
 31
0.0
  0
LINE
  5
341
100
AcDbEntity
  8
text
 62
7
100
AcDbLine
 10
32.331829
 20
-67.810310
 30
0.0
 11
32.331299
 21
-67.809780
 31
0.0
  0
LINE
  5
342
100
AcDbEntity
  8
text
 62
7
100
AcDbLine
 10
32.331299
 20
-67.809780
 30
0.0
 11
32.330770
 21
-67.809250
 31
0.0
  0
LINE
  5
343
100
AcDbEntity
  8
text
 62
7
100
AcDbLine
 10
32.330770
 20
-67.809250
 30
0.0
 11
32.330241
 21
-67.808720
 31
0.0
  0
LINE
  5
344
100
AcDbEntity
  8
text
 62
7
100
AcDbLine
 10
32.330241
 20
-67.808720
 30
0.0
 11
31.929498
 21
-67.581470
 31
0.0
  0
LINE
  5
345
100
AcDbEntity
  8
text
 62
7
100
AcDbLine
 10
31.929498
 20
-67.581470
 30
0.0
 11
31.484675
 21
-67.371100
 31
0.0
  0
LINE
  5
346
100
AcDbEntity
  8
text
 62
7
100
AcDbLine
 10
31.484675
 20
-67.371100
 30
0.0
 11
30.995352
 21
-67.176330
 31
0.0
  0
LINE
  5
347
100
AcDbEntity
  8
text
 62
7
100
AcDbLine
 10
30.995352
 20
-67.176330
 30
0.0
 11
30.461105
 21
-66.995850
 31
0.0
  0
LINE
  5
348
100
AcDbEntity
  8
text
 62
7
100
AcDbLine
 10
30.461105
 20
-66.995850
 30
0.0
 11
29.881234
 21
-66.833690
 31
0.0
  0
LINE
  5
349
100
AcDbEntity
  8
text
 62
7
100
AcDbLine
 10
29.881234
 20
-66.833690
 30
0.0
 11
29.291287
 21
-66.717720
 31
0.0
  0
LINE
  5
34a
100
AcDbEntity
  8
text
 62
7
100
AcDbLine
 10
29.291287
 20
-66.717720
 30
0.0
 11
28.691969
 21
-66.648020
 31
0.0
  0
LINE
  5
34b
100
AcDbEntity
  8
text
 62
7
100
AcDbLine
 10
28.691969
 20
-66.648020
 30
0.0
 11
28.084519
 21
-66.622340
 31
0.0
  0
LINE
  5
34c
100
AcDbEntity
  8
text
 62
7
100
AcDbLine
 10
45.600764
 20
-66.622870
 30
0.0
 11
44.723889
 21
-66.669270
 31
0.0
  0
LINE
  5
34d
100
AcDbEntity
  8
text
 62
7
100
AcDbLine
 10
44.723889
 20
-66.669270
 30
0.0
 11
43.863671
 21
-66.808220
 31
0.0
  0
LINE
  5
34e
100
AcDbEntity
  8
text
 62
7
100
AcDbLine
 10
43.863671
 20
-66.808220
 30
0.0
 11
43.021920
 21
-67.039090
 31
0.0
  0
LINE
  5
34f
100
AcDbEntity
  8
text
 62
7
100
AcDbLine
 10
43.021920
 20
-67.039090
 30
0.0
 11
42.200455
 21
-67.361280
 31
0.0
  0
LINE
  5
350
100
AcDbEntity
  8
text
 62
7
100
AcDbLine
 10
42.200455
 20
-67.361280
 30
0.0
 11
42.199926
 21
-67.361280
 31
0.0
  0
LINE
  5
351
100
AcDbEntity
  8
text
 62
7
100
AcDbLine
 10
42.199926
 20
-67.361280
 30
0.0
 11
42.199397
 21
-67.361280
 31
0.0
  0
LINE
  5
352
100
AcDbEntity
  8
text
 62
7
100
AcDbLine
 10
42.199397
 20
-67.361280
 30
0.0
 11
42.198868
 21
-67.361280
 31
0.0
  0
LINE
  5
353
100
AcDbEntity
  8
text
 62
7
100
AcDbLine
 10
42.198868
 20
-67.361280
 30
0.0
 11
42.198338
 21
-67.361280
 31
0.0
  0
LINE
  5
354
100
AcDbEntity
  8
text
 62
7
100
AcDbLine
 10
42.198338
 20
-67.361280
 30
0.0
 11
41.423511
 21
-67.759850
 31
0.0
  0
LINE
  5
355
100
AcDbEntity
  8
text
 62
7
100
AcDbLine
 10
41.423511
 20
-67.759850
 30
0.0
 11
40.700855
 21
-68.223920
 31
0.0
  0
LINE
  5
356
100
AcDbEntity
  8
text
 62
7
100
AcDbLine
 10
40.700855
 20
-68.223920
 30
0.0
 11
40.031634
 21
-68.752770
 31
0.0
  0
LINE
  5
357
100
AcDbEntity
  8
text
 62
7
100
AcDbLine
 10
40.031634
 20
-68.752770
 30
0.0
 11
39.417113
 21
-69.345660
 31
0.0
  0
LINE
  5
358
100
AcDbEntity
  8
text
 62
7
100
AcDbLine
 10
39.417113
 20
-69.345660
 30
0.0
 11
39.417113
 21
-69.345920
 31
0.0
  0
LINE
  5
359
100
AcDbEntity
  8
text
 62
7
100
AcDbLine
 10
39.417113
 20
-69.345920
 30
0.0
 11
39.417113
 21
-69.346190
 31
0.0
  0
LINE
  5
35a
100
AcDbEntity
  8
text
 62
7
100
AcDbLine
 10
39.417113
 20
-69.346190
 30
0.0
 11
39.417113
 21
-69.346450
 31
0.0
  0
LINE
  5
35b
100
AcDbEntity
  8
text
 62
7
100
AcDbLine
 10
39.417113
 20
-69.346450
 30
0.0
 11
39.417113
 21
-69.346720
 31
0.0
  0
LINE
  5
35c
100
AcDbEntity
  8
text
 62
7
100
AcDbLine
 10
39.417113
 20
-69.346720
 30
0.0
 11
38.865472
 21
-70.001060
 31
0.0
  0
LINE
  5
35d
100
AcDbEntity
  8
text
 62
7
100
AcDbLine
 10
38.865472
 20
-70.001060
 30
0.0
 11
38.373469
 21
-70.713450
 31
0.0
  0
LINE
  5
35e
100
AcDbEntity
  8
text
 62
7
100
AcDbLine
 10
38.373469
 20
-70.713450
 30
0.0
 11
37.941301
 21
-71.482740
 31
0.0
  0
LINE
  5
35f
100
AcDbEntity
  8
text
 62
7
100
AcDbLine
 10
37.941301
 20
-71.482740
 30
0.0
 11
37.569165
 21
-72.307780
 31
0.0
  0
LINE
  5
360
100
AcDbEntity
  8
text
 62
7
100
AcDbLine
 10
37.569165
 20
-72.307780
 30
0.0
 11
37.267743
 21
-73.177250
 31
0.0
  0
LINE
  5
361
100
AcDbEntity
  8
text
 62
7
100
AcDbLine
 10
37.267743
 20
-73.177250
 30
0.0
 11
37.052298
 21
-74.068280
 31
0.0
  0
LINE
  5
362
100
AcDbEntity
  8
text
 62
7
100
AcDbLine
 10
37.052298
 20
-74.068280
 30
0.0
 11
36.922944
 21
-74.979910
 31
0.0
  0
LINE
  5
363
100
AcDbEntity
  8
text
 62
7
100
AcDbLine
 10
36.922944
 20
-74.979910
 30
0.0
 11
36.879804
 21
-75.911180
 31
0.0
  0
LINE
  5
364
100
AcDbEntity
  8
text
 62
7
100
AcDbLine
 10
36.879804
 20
-75.911180
 30
0.0
 11
36.922944
 21
-76.842770
 31
0.0
  0
LINE
  5
365
100
AcDbEntity
  8
text
 62
7
100
AcDbLine
 10
36.922944
 20
-76.842770
 30
0.0
 11
37.052293
 21
-77.755100
 31
0.0
  0
LINE
  5
366
100
AcDbEntity
  8
text
 62
7
100
AcDbLine
 10
37.052293
 20
-77.755100
 30
0.0
 11
37.267738
 21
-78.646840
 31
0.0
  0
LINE
  5
367
100
AcDbEntity
  8
text
 62
7
100
AcDbLine
 10
37.267738
 20
-78.646840
 30
0.0
 11
37.569165
 21
-79.516640
 31
0.0
  0
LINE
  5
368
100
AcDbEntity
  8
text
 62
7
100
AcDbLine
 10
37.569165
 20
-79.516640
 30
0.0
 11
37.569165
 21
-79.517170
 31
0.0
  0
LINE
  5
369
100
AcDbEntity
  8
text
 62
7
100
AcDbLine
 10
37.569165
 20
-79.517170
 30
0.0
 11
37.569165
 21
-79.517700
 31
0.0
  0
LINE
  5
36a
100
AcDbEntity
  8
text
 62
7
100
AcDbLine
 10
37.569165
 20
-79.517700
 30
0.0
 11
37.569165
 21
-79.518230
 31
0.0
  0
LINE
  5
36b
100
AcDbEntity
  8
text
 62
7
100
AcDbLine
 10
37.569165
 20
-79.518230
 30
0.0
 11
37.569165
 21
-79.518760
 31
0.0
  0
LINE
  5
36c
100
AcDbEntity
  8
text
 62
7
100
AcDbLine
 10
37.569165
 20
-79.518760
 30
0.0
 11
37.941349
 21
-80.338120
 31
0.0
  0
LINE
  5
36d
100
AcDbEntity
  8
text
 62
7
100
AcDbLine
 10
37.941349
 20
-80.338120
 30
0.0
 11
38.373395
 21
-81.101550
 31
0.0
  0
LINE
  5
36e
100
AcDbEntity
  8
text
 62
7
100
AcDbLine
 10
38.373395
 20
-81.101550
 30
0.0
 11
38.865313
 21
-81.808040
 31
0.0
  0
LINE
  5
36f
100
AcDbEntity
  8
text
 62
7
100
AcDbLine
 10
38.865313
 20
-81.808040
 30
0.0
 11
39.417113
 21
-82.456560
 31
0.0
  0
LINE
  5
370
100
AcDbEntity
  8
text
 62
7
100
AcDbLine
 10
39.417113
 20
-82.456560
 30
0.0
 11
39.417642
 21
-82.457090
 31
0.0
  0
LINE
  5
371
100
AcDbEntity
  8
text
 62
7
100
AcDbLine
 10
39.417642
 20
-82.457090
 30
0.0
 11
39.418171
 21
-82.457620
 31
0.0
  0
LINE
  5
372
100
AcDbEntity
  8
text
 62
7
100
AcDbLine
 10
39.418171
 20
-82.457620
 30
0.0
 11
39.418700
 21
-82.458150
 31
0.0
  0
LINE
  5
373
100
AcDbEntity
  8
text
 62
7
100
AcDbLine
 10
39.418700
 20
-82.458150
 30
0.0
 11
39.419229
 21
-82.458680
 31
0.0
  0
LINE
  5
374
100
AcDbEntity
  8
text
 62
7
100
AcDbLine
 10
39.419229
 20
-82.458680
 30
0.0
 11
40.033531
 21
-83.045970
 31
0.0
  0
LINE
  5
375
100
AcDbEntity
  8
text
 62
7
100
AcDbLine
 10
40.033531
 20
-83.045970
 30
0.0
 11
40.702268
 21
-83.570520
 31
0.0
  0
LINE
  5
376
100
AcDbEntity
  8
text
 62
7
100
AcDbLine
 10
40.702268
 20
-83.570520
 30
0.0
 11
41.424273
 21
-84.031750
 31
0.0
  0
LINE
  5
377
100
AcDbEntity
  8
text
 62
7
100
AcDbLine
 10
41.424273
 20
-84.031750
 30
0.0
 11
42.198386
 21
-84.429100
 31
0.0
  0
LINE
  5
378
100
AcDbEntity
  8
text
 62
7
100
AcDbLine
 10
42.198386
 20
-84.429100
 30
0.0
 11
42.198915
 21
-84.429100
 31
0.0
  0
LINE
  5
379
100
AcDbEntity
  8
text
 62
7
100
AcDbLine
 10
42.198915
 20
-84.429100
 30
0.0
 11
42.199444
 21
-84.429100
 31
0.0
  0
LINE
  5
37a
100
AcDbEntity
  8
text
 62
7
100
AcDbLine
 10
42.199444
 20
-84.429100
 30
0.0
 11
42.199974
 21
-84.429100
 31
0.0
  0
LINE
  5
37b
100
AcDbEntity
  8
text
 62
7
100
AcDbLine
 10
42.199974
 20
-84.429100
 30
0.0
 11
42.200503
 21
-84.429100
 31
0.0
  0
LINE
  5
37c
100
AcDbEntity
  8
text
 62
7
100
AcDbLine
 10
42.200503
 20
-84.429100
 30
0.0
 11
43.021968
 21
-84.751300
 31
0.0
  0
LINE
  5
37d
100
AcDbEntity
  8
text
 62
7
100
AcDbLine
 10
43.021968
 20
-84.751300
 30
0.0
 11
43.863719
 21
-84.982170
 31
0.0
  0
LINE
  5
37e
100
AcDbEntity
  8
text
 62
7
100
AcDbLine
 10
43.863719
 20
-84.982170
 30
0.0
 11
44.723937
 21
-85.121110
 31
0.0
  0
LINE
  5
37f
100
AcDbEntity
  8
text
 62
7
100
AcDbLine
 10
44.723937
 20
-85.121110
 30
0.0
 11
45.600811
 21
-85.167510
 31
0.0
  0
LINE
  5
380
100
AcDbEntity
  8
text
 62
7
100
AcDbLine
 10
45.600811
 20
-85.167510
 30
0.0
 11
46.471904
 21
-85.121210
 31
0.0
  0
LINE
  5
381
100
AcDbEntity
  8
text
 62
7
100
AcDbLine
 10
46.471904
 20
-85.121210
 30
0.0
 11
47.324857
 21
-84.982450
 31
0.0
  0
LINE
  5
382
100
AcDbEntity
  8
text
 62
7
100
AcDbLine
 10
47.324857
 20
-84.982450
 30
0.0
 11
48.158112
 21
-84.751620
 31
0.0
  0
LINE
  5
383
100
AcDbEntity
  8
text
 62
7
100
AcDbLine
 10
48.158112
 20
-84.751620
 30
0.0
 11
48.970113
 21
-84.429080
 31
0.0
  0
LINE
  5
384
100
AcDbEntity
  8
text
 62
7
100
AcDbLine
 10
48.970113
 20
-84.429080
 30
0.0
 11
49.743152
 21
-84.031820
 31
0.0
  0
LINE
  5
385
100
AcDbEntity
  8
text
 62
7
100
AcDbLine
 10
49.743152
 20
-84.031820
 30
0.0
 11
50.462718
 21
-83.570600
 31
0.0
  0
LINE
  5
386
100
AcDbEntity
  8
text
 62
7
100
AcDbLine
 10
50.462718
 20
-83.570600
 30
0.0
 11
51.127804
 21
-83.046010
 31
0.0
  0
LINE
  5
387
100
AcDbEntity
  8
text
 62
7
100
AcDbLine
 10
51.127804
 20
-83.046010
 30
0.0
 11
51.737388
 21
-82.458660
 31
0.0
  0
LINE
  5
388
100
AcDbEntity
  8
text
 62
7
100
AcDbLine
 10
51.737388
 20
-82.458660
 30
0.0
 11
51.737917
 21
-82.458130
 31
0.0
  0
LINE
  5
389
100
AcDbEntity
  8
text
 62
7
100
AcDbLine
 10
51.737917
 20
-82.458130
 30
0.0
 11
51.738446
 21
-82.457600
 31
0.0
  0
LINE
  5
38a
100
AcDbEntity
  8
text
 62
7
100
AcDbLine
 10
51.738446
 20
-82.457600
 30
0.0
 11
51.738975
 21
-82.457070
 31
0.0
  0
LINE
  5
38b
100
AcDbEntity
  8
text
 62
7
100
AcDbLine
 10
51.738975
 20
-82.457070
 30
0.0
 11
51.739504
 21
-82.456540
 31
0.0
  0
LINE
  5
38c
100
AcDbEntity
  8
text
 62
7
100
AcDbLine
 10
51.739504
 20
-82.456540
 30
0.0
 11
52.295460
 21
-81.807840
 31
0.0
  0
LINE
  5
38d
100
AcDbEntity
  8
text
 62
7
100
AcDbLine
 10
52.295460
 20
-81.807840
 30
0.0
 11
52.789236
 21
-81.100890
 31
0.0
  0
LINE
  5
38e
100
AcDbEntity
  8
text
 62
7
100
AcDbLine
 10
52.789236
 20
-81.100890
 30
0.0
 11
53.220523
 21
-80.336930
 31
0.0
  0
LINE
  5
38f
100
AcDbEntity
  8
text
 62
7
100
AcDbLine
 10
53.220523
 20
-80.336930
 30
0.0
 11
53.589003
 21
-79.517190
 31
0.0
  0
LINE
  5
390
100
AcDbEntity
  8
text
 62
7
100
AcDbLine
 10
53.589003
 20
-79.517190
 30
0.0
 11
53.589003
 21
-79.516660
 31
0.0
  0
LINE
  5
391
100
AcDbEntity
  8
text
 62
7
100
AcDbLine
 10
53.589003
 20
-79.516660
 30
0.0
 11
53.589003
 21
-79.516130
 31
0.0
  0
LINE
  5
392
100
AcDbEntity
  8
text
 62
7
100
AcDbLine
 10
53.589003
 20
-79.516130
 30
0.0
 11
53.589003
 21
-79.515600
 31
0.0
  0
LINE
  5
393
100
AcDbEntity
  8
text
 62
7
100
AcDbLine
 10
53.589003
 20
-79.515600
 30
0.0
 11
53.589003
 21
-79.515070
 31
0.0
  0
LINE
  5
394
100
AcDbEntity
  8
text
 62
7
100
AcDbLine
 10
53.589003
 20
-79.515070
 30
0.0
 11
53.890315
 21
-78.645650
 31
0.0
  0
LINE
  5
395
100
AcDbEntity
  8
text
 62
7
100
AcDbLine
 10
53.890315
 20
-78.645650
 30
0.0
 11
54.105961
 21
-77.754260
 31
0.0
  0
LINE
  5
396
100
AcDbEntity
  8
text
 62
7
100
AcDbLine
 10
54.105961
 20
-77.754260
 30
0.0
 11
54.235597
 21
-76.842310
 31
0.0
  0
LINE
  5
397
100
AcDbEntity
  8
text
 62
7
100
AcDbLine
 10
54.235597
 20
-76.842310
 30
0.0
 11
54.278887
 21
-75.911160
 31
0.0
  0
LINE
  5
398
100
AcDbEntity
  8
text
 62
7
100
AcDbLine
 10
54.278887
 20
-75.911160
 30
0.0
 11
54.235597
 21
-74.980410
 31
0.0
  0
LINE
  5
399
100
AcDbEntity
  8
text
 62
7
100
AcDbLine
 10
54.235597
 20
-74.980410
 30
0.0
 11
54.105961
 21
-74.069340
 31
0.0
  0
LINE
  5
39a
100
AcDbEntity
  8
text
 62
7
100
AcDbLine
 10
54.105961
 20
-74.069340
 30
0.0
 11
53.890315
 21
-73.178840
 31
0.0
  0
LINE
  5
39b
100
AcDbEntity
  8
text
 62
7
100
AcDbLine
 10
53.890315
 20
-73.178840
 30
0.0
 11
53.589003
 21
-72.309820
 31
0.0
  0
LINE
  5
39c
100
AcDbEntity
  8
text
 62
7
100
AcDbLine
 10
53.589003
 20
-72.309820
 30
0.0
 11
53.220925
 21
-71.484100
 31
0.0
  0
LINE
  5
39d
100
AcDbEntity
  8
text
 62
7
100
AcDbLine
 10
53.220925
 20
-71.484100
 30
0.0
 11
52.790316
 21
-70.714230
 31
0.0
  0
LINE
  5
39e
100
AcDbEntity
  8
text
 62
7
100
AcDbLine
 10
52.790316
 20
-70.714230
 30
0.0
 11
52.297193
 21
-70.001370
 31
0.0
  0
LINE
  5
39f
100
AcDbEntity
  8
text
 62
7
100
AcDbLine
 10
52.297193
 20
-70.001370
 30
0.0
 11
51.741571
 21
-69.346700
 31
0.0
  0
LINE
  5
3a0
100
AcDbEntity
  8
text
 62
7
100
AcDbLine
 10
51.741571
 20
-69.346700
 30
0.0
 11
51.131405
 21
-68.753170
 31
0.0
  0
LINE
  5
3a1
100
AcDbEntity
  8
text
 62
7
100
AcDbLine
 10
51.131405
 20
-68.753170
 30
0.0
 11
50.465345
 21
-68.223880
 31
0.0
  0
LINE
  5
3a2
100
AcDbEntity
  8
text
 62
7
100
AcDbLine
 10
50.465345
 20
-68.223880
 30
0.0
 11
49.744546
 21
-67.759520
 31
0.0
  0
LINE
  5
3a3
100
AcDbEntity
  8
text
 62
7
100
AcDbLine
 10
49.744546
 20
-67.759520
 30
0.0
 11
48.970164
 21
-67.360770
 31
0.0
  0
LINE
  5
3a4
100
AcDbEntity
  8
text
 62
7
100
AcDbLine
 10
48.970164
 20
-67.360770
 30
0.0
 11
48.158163
 21
-67.038230
 31
0.0
  0
LINE
  5
3a5
100
AcDbEntity
  8
text
 62
7
100
AcDbLine
 10
48.158163
 20
-67.038230
 30
0.0
 11
47.324908
 21
-66.807410
 31
0.0
  0
LINE
  5
3a6
100
AcDbEntity
  8
text
 62
7
100
AcDbLine
 10
47.324908
 20
-66.807410
 30
0.0
 11
46.471955
 21
-66.668650
 31
0.0
  0
LINE
  5
3a7
100
AcDbEntity
  8
text
 62
7
100
AcDbLine
 10
46.471955
 20
-66.668650
 30
0.0
 11
45.600764
 21
-66.622870
 31
0.0
  0
LINE
  5
3a8
100
AcDbEntity
  8
text
 62
7
100
AcDbLine
 10
-3.340436
 20
-66.767560
 30
0.0
 11
-3.340436
 21
-71.331500
 31
0.0
  0
LINE
  5
3a9
100
AcDbEntity
  8
text
 62
7
100
AcDbLine
 10
-3.340436
 20
-71.331500
 30
0.0
 11
-3.340436
 21
-75.895430
 31
0.0
  0
LINE
  5
3aa
100
AcDbEntity
  8
text
 62
7
100
AcDbLine
 10
-3.340436
 20
-75.895430
 30
0.0
 11
-3.340436
 21
-80.459360
 31
0.0
  0
LINE
  5
3ab
100
AcDbEntity
  8
text
 62
7
100
AcDbLine
 10
-3.340436
 20
-80.459360
 30
0.0
 11
-3.340436
 21
-85.023300
 31
0.0
  0
LINE
  5
3ac
100
AcDbEntity
  8
text
 62
7
100
AcDbLine
 10
-3.340436
 20
-85.023300
 30
0.0
 11
-2.591514
 21
-85.023300
 31
0.0
  0
LINE
  5
3ad
100
AcDbEntity
  8
text
 62
7
100
AcDbLine
 10
-2.591514
 20
-85.023300
 30
0.0
 11
-1.842595
 21
-85.023300
 31
0.0
  0
LINE
  5
3ae
100
AcDbEntity
  8
text
 62
7
100
AcDbLine
 10
-1.842595
 20
-85.023300
 30
0.0
 11
-1.093673
 21
-85.023300
 31
0.0
  0
LINE
  5
3af
100
AcDbEntity
  8
text
 62
7
100
AcDbLine
 10
-1.093673
 20
-85.023300
 30
0.0
 11
-0.344754
 21
-85.023300
 31
0.0
  0
LINE
  5
3b0
100
AcDbEntity
  8
text
 62
7
100
AcDbLine
 10
-0.344754
 20
-85.023300
 30
0.0
 11
-0.344754
 21
-84.898240
 31
0.0
  0
LINE
  5
3b1
100
AcDbEntity
  8
text
 62
7
100
AcDbLine
 10
-0.344754
 20
-84.898240
 30
0.0
 11
-0.344754
 21
-84.773180
 31
0.0
  0
LINE
  5
3b2
100
AcDbEntity
  8
text
 62
7
100
AcDbLine
 10
-0.344754
 20
-84.773180
 30
0.0
 11
-0.344754
 21
-84.648130
 31
0.0
  0
LINE
  5
3b3
100
AcDbEntity
  8
text
 62
7
100
AcDbLine
 10
-0.344754
 20
-84.648130
 30
0.0
 11
-0.344754
 21
-84.523070
 31
0.0
  0
LINE
  5
3b4
100
AcDbEntity
  8
text
 62
7
100
AcDbLine
 10
-0.344754
 20
-84.523070
 30
0.0
 11
-0.344754
 21
-80.084190
 31
0.0
  0
LINE
  5
3b5
100
AcDbEntity
  8
text
 62
7
100
AcDbLine
 10
-0.344754
 20
-80.084190
 30
0.0
 11
-0.344754
 21
-75.645310
 31
0.0
  0
LINE
  5
3b6
100
AcDbEntity
  8
text
 62
7
100
AcDbLine
 10
-0.344754
 20
-75.645310
 30
0.0
 11
-0.344754
 21
-71.206440
 31
0.0
  0
LINE
  5
3b7
100
AcDbEntity
  8
text
 62
7
100
AcDbLine
 10
-0.344754
 20
-71.206440
 30
0.0
 11
-0.344754
 21
-66.767560
 31
0.0
  0
LINE
  5
3b8
100
AcDbEntity
  8
text
 62
7
100
AcDbLine
 10
-0.344754
 20
-66.767560
 30
0.0
 11
-1.093673
 21
-66.767560
 31
0.0
  0
LINE
  5
3b9
100
AcDbEntity
  8
text
 62
7
100
AcDbLine
 10
-1.093673
 20
-66.767560
 30
0.0
 11
-1.842595
 21
-66.767560
 31
0.0
  0
LINE
  5
3ba
100
AcDbEntity
  8
text
 62
7
100
AcDbLine
 10
-1.842595
 20
-66.767560
 30
0.0
 11
-2.591514
 21
-66.767560
 31
0.0
  0
LINE
  5
3bb
100
AcDbEntity
  8
text
 62
7
100
AcDbLine
 10
-2.591514
 20
-66.767560
 30
0.0
 11
-3.340436
 21
-66.767560
 31
0.0
  0
LINE
  5
3bc
100
AcDbEntity
  8
text
 62
7
100
AcDbLine
 10
55.776369
 20
-66.773560
 30
0.0
 11
55.776369
 21
-71.334650
 31
0.0
  0
LINE
  5
3bd
100
AcDbEntity
  8
text
 62
7
100
AcDbLine
 10
55.776369
 20
-71.334650
 30
0.0
 11
55.776369
 21
-75.895740
 31
0.0
  0
LINE
  5
3be
100
AcDbEntity
  8
text
 62
7
100
AcDbLine
 10
55.776369
 20
-75.895740
 30
0.0
 11
55.776369
 21
-80.456830
 31
0.0
  0
LINE
  5
3bf
100
AcDbEntity
  8
text
 62
7
100
AcDbLine
 10
55.776369
 20
-80.456830
 30
0.0
 11
55.776369
 21
-85.017920
 31
0.0
  0
LINE
  5
3c0
100
AcDbEntity
  8
text
 62
7
100
AcDbLine
 10
55.776369
 20
-85.017920
 30
0.0
 11
58.457989
 21
-85.017920
 31
0.0
  0
LINE
  5
3c1
100
AcDbEntity
  8
text
 62
7
100
AcDbLine
 10
58.457989
 20
-85.017920
 30
0.0
 11
61.139608
 21
-85.017920
 31
0.0
  0
LINE
  5
3c2
100
AcDbEntity
  8
text
 62
7
100
AcDbLine
 10
61.139608
 20
-85.017920
 30
0.0
 11
63.821229
 21
-85.017920
 31
0.0
  0
LINE
  5
3c3
100
AcDbEntity
  8
text
 62
7
100
AcDbLine
 10
63.821229
 20
-85.017920
 30
0.0
 11
66.502847
 21
-85.017920
 31
0.0
  0
LINE
  5
3c4
100
AcDbEntity
  8
text
 62
7
100
AcDbLine
 10
66.502847
 20
-85.017920
 30
0.0
 11
66.502847
 21
-84.892870
 31
0.0
  0
LINE
  5
3c5
100
AcDbEntity
  8
text
 62
7
100
AcDbLine
 10
66.502847
 20
-84.892870
 30
0.0
 11
66.502847
 21
-84.767810
 31
0.0
  0
LINE
  5
3c6
100
AcDbEntity
  8
text
 62
7
100
AcDbLine
 10
66.502847
 20
-84.767810
 30
0.0
 11
66.502847
 21
-84.642750
 31
0.0
  0
LINE
  5
3c7
100
AcDbEntity
  8
text
 62
7
100
AcDbLine
 10
66.502847
 20
-84.642750
 30
0.0
 11
66.502847
 21
-84.517700
 31
0.0
  0
LINE
  5
3c8
100
AcDbEntity
  8
text
 62
7
100
AcDbLine
 10
66.502847
 20
-84.517700
 30
0.0
 11
66.502847
 21
-83.947960
 31
0.0
  0
LINE
  5
3c9
100
AcDbEntity
  8
text
 62
7
100
AcDbLine
 10
66.502847
 20
-83.947960
 30
0.0
 11
66.502847
 21
-83.378230
 31
0.0
  0
LINE
  5
3ca
100
AcDbEntity
  8
text
 62
7
100
AcDbLine
 10
66.502847
 20
-83.378230
 30
0.0
 11
66.502847
 21
-82.808500
 31
0.0
  0
LINE
  5
3cb
100
AcDbEntity
  8
text
 62
7
100
AcDbLine
 10
66.502847
 20
-82.808500
 30
0.0
 11
66.502847
 21
-82.238770
 31
0.0
  0
LINE
  5
3cc
100
AcDbEntity
  8
text
 62
7
100
AcDbLine
 10
66.502847
 20
-82.238770
 30
0.0
 11
64.490180
 21
-82.238770
 31
0.0
  0
LINE
  5
3cd
100
AcDbEntity
  8
text
 62
7
100
AcDbLine
 10
64.490180
 20
-82.238770
 30
0.0
 11
62.477510
 21
-82.238770
 31
0.0
  0
LINE
  5
3ce
100
AcDbEntity
  8
text
 62
7
100
AcDbLine
 10
62.477510
 20
-82.238770
 30
0.0
 11
60.464841
 21
-82.238770
 31
0.0
  0
LINE
  5
3cf
100
AcDbEntity
  8
text
 62
7
100
AcDbLine
 10
60.464841
 20
-82.238770
 30
0.0
 11
58.452174
 21
-82.238770
 31
0.0
  0
LINE
  5
3d0
100
AcDbEntity
  8
text
 62
7
100
AcDbLine
 10
58.452174
 20
-82.238770
 30
0.0
 11
58.452174
 21
-78.372470
 31
0.0
  0
LINE
  5
3d1
100
AcDbEntity
  8
text
 62
7
100
AcDbLine
 10
58.452174
 20
-78.372470
 30
0.0
 11
58.452174
 21
-74.506160
 31
0.0
  0
LINE
  5
3d2
100
AcDbEntity
  8
text
 62
7
100
AcDbLine
 10
58.452174
 20
-74.506160
 30
0.0
 11
58.452174
 21
-70.639860
 31
0.0
  0
LINE
  5
3d3
100
AcDbEntity
  8
text
 62
7
100
AcDbLine
 10
58.452174
 20
-70.639860
 30
0.0
 11
58.452174
 21
-66.773560
 31
0.0
  0
LINE
  5
3d4
100
AcDbEntity
  8
text
 62
7
100
AcDbLine
 10
58.452174
 20
-66.773560
 30
0.0
 11
57.783223
 21
-66.773560
 31
0.0
  0
LINE
  5
3d5
100
AcDbEntity
  8
text
 62
7
100
AcDbLine
 10
57.783223
 20
-66.773560
 30
0.0
 11
57.114271
 21
-66.773560
 31
0.0
  0
LINE
  5
3d6
100
AcDbEntity
  8
text
 62
7
100
AcDbLine
 10
57.114271
 20
-66.773560
 30
0.0
 11
56.445320
 21
-66.773560
 31
0.0
  0
LINE
  5
3d7
100
AcDbEntity
  8
text
 62
7
100
AcDbLine
 10
56.445320
 20
-66.773560
 30
0.0
 11
55.776369
 21
-66.773560
 31
0.0
  0
LINE
  5
3d8
100
AcDbEntity
  8
text
 62
7
100
AcDbLine
 10
68.000947
 20
-66.773560
 30
0.0
 11
68.000947
 21
-71.334650
 31
0.0
  0
LINE
  5
3d9
100
AcDbEntity
  8
text
 62
7
100
AcDbLine
 10
68.000947
 20
-71.334650
 30
0.0
 11
68.000947
 21
-75.895740
 31
0.0
  0
LINE
  5
3da
100
AcDbEntity
  8
text
 62
7
100
AcDbLine
 10
68.000947
 20
-75.895740
 30
0.0
 11
68.000947
 21
-80.456830
 31
0.0
  0
LINE
  5
3db
100
AcDbEntity
  8
text
 62
7
100
AcDbLine
 10
68.000947
 20
-80.456830
 30
0.0
 11
68.000947
 21
-85.017920
 31
0.0
  0
LINE
  5
3dc
100
AcDbEntity
  8
text
 62
7
100
AcDbLine
 10
68.000947
 20
-85.017920
 30
0.0
 11
68.126002
 21
-85.017920
 31
0.0
  0
LINE
  5
3dd
100
AcDbEntity
  8
text
 62
7
100
AcDbLine
 10
68.126002
 20
-85.017920
 30
0.0
 11
68.251060
 21
-85.017920
 31
0.0
  0
LINE
  5
3de
100
AcDbEntity
  8
text
 62
7
100
AcDbLine
 10
68.251060
 20
-85.017920
 30
0.0
 11
68.376118
 21
-85.017920
 31
0.0
  0
LINE
  5
3df
100
AcDbEntity
  8
text
 62
7
100
AcDbLine
 10
68.376118
 20
-85.017920
 30
0.0
 11
68.501173
 21
-85.017920
 31
0.0
  0
LINE
  5
3e0
100
AcDbEntity
  8
text
 62
7
100
AcDbLine
 10
68.501173
 20
-85.017920
 30
0.0
 11
69.373213
 21
-85.017920
 31
0.0
  0
LINE
  5
3e1
100
AcDbEntity
  8
text
 62
7
100
AcDbLine
 10
69.373213
 20
-85.017920
 30
0.0
 11
70.245254
 21
-85.017920
 31
0.0
  0
LINE
  5
3e2
100
AcDbEntity
  8
text
 62
7
100
AcDbLine
 10
70.245254
 20
-85.017920
 30
0.0
 11
71.117294
 21
-85.017920
 31
0.0
  0
LINE
  5
3e3
100
AcDbEntity
  8
text
 62
7
100
AcDbLine
 10
71.117294
 20
-85.017920
 30
0.0
 11
71.989334
 21
-85.017920
 31
0.0
  0
LINE
  5
3e4
100
AcDbEntity
  8
text
 62
7
100
AcDbLine
 10
71.989334
 20
-85.017920
 30
0.0
 11
73.144981
 21
-84.942420
 31
0.0
  0
LINE
  5
3e5
100
AcDbEntity
  8
text
 62
7
100
AcDbLine
 10
73.144981
 20
-84.942420
 30
0.0
 11
74.258710
 21
-84.716320
 31
0.0
  0
LINE
  5
3e6
100
AcDbEntity
  8
text
 62
7
100
AcDbLine
 10
74.258710
 20
-84.716320
 30
0.0
 11
75.327087
 21
-84.340270
 31
0.0
  0
LINE
  5
3e7
100
AcDbEntity
  8
text
 62
7
100
AcDbLine
 10
75.327087
 20
-84.340270
 30
0.0
 11
76.346691
 21
-83.814900
 31
0.0
  0
LINE
  5
3e8
100
AcDbEntity
  8
text
 62
7
100
AcDbLine
 10
76.346691
 20
-83.814900
 30
0.0
 11
77.293997
 21
-83.158530
 31
0.0
  0
LINE
  5
3e9
100
AcDbEntity
  8
text
 62
7
100
AcDbLine
 10
77.293997
 20
-83.158530
 30
0.0
 11
78.138084
 21
-82.389130
 31
0.0
  0
LINE
  5
3ea
100
AcDbEntity
  8
text
 62
7
100
AcDbLine
 10
78.138084
 20
-82.389130
 30
0.0
 11
78.876994
 21
-81.509280
 31
0.0
  0
LINE
  5
3eb
100
AcDbEntity
  8
text
 62
7
100
AcDbLine
 10
78.876994
 20
-81.509280
 30
0.0
 11
79.508771
 21
-80.521560
 31
0.0
  0
LINE
  5
3ec
100
AcDbEntity
  8
text
 62
7
100
AcDbLine
 10
79.508771
 20
-80.521560
 30
0.0
 11
79.508242
 21
-80.521560
 31
0.0
  0
LINE
  5
3ed
100
AcDbEntity
  8
text
 62
7
100
AcDbLine
 10
79.508242
 20
-80.521560
 30
0.0
 11
79.507713
 21
-80.521560
 31
0.0
  0
LINE
  5
3ee
100
AcDbEntity
  8
text
 62
7
100
AcDbLine
 10
79.507713
 20
-80.521560
 30
0.0
 11
79.507184
 21
-80.521560
 31
0.0
  0
LINE
  5
3ef
100
AcDbEntity
  8
text
 62
7
100
AcDbLine
 10
79.507184
 20
-80.521560
 30
0.0
 11
79.506654
 21
-80.521560
 31
0.0
  0
LINE
  5
3f0
100
AcDbEntity
  8
text
 62
7
100
AcDbLine
 10
79.506654
 20
-80.521560
 30
0.0
 11
80.018097
 21
-79.445340
 31
0.0
  0
LINE
  5
3f1
100
AcDbEntity
  8
text
 62
7
100
AcDbLine
 10
80.018097
 20
-79.445340
 30
0.0
 11
80.383751
 21
-78.316490
 31
0.0
  0
LINE
  5
3f2
100
AcDbEntity
  8
text
 62
7
100
AcDbLine
 10
80.383751
 20
-78.316490
 30
0.0
 11
80.603347
 21
-77.137920
 31
0.0
  0
LINE
  5
3f3
100
AcDbEntity
  8
text
 62
7
100
AcDbLine
 10
80.603347
 20
-77.137920
 30
0.0
 11
80.676607
 21
-75.912540
 31
0.0
  0
LINE
  5
3f4
100
AcDbEntity
  8
text
 62
7
100
AcDbLine
 10
80.676607
 20
-75.912540
 30
0.0
 11
80.603377
 21
-74.682500
 31
0.0
  0
LINE
  5
3f5
100
AcDbEntity
  8
text
 62
7
100
AcDbLine
 10
80.603377
 20
-74.682500
 30
0.0
 11
80.383828
 21
-73.500800
 31
0.0
  0
LINE
  5
3f6
100
AcDbEntity
  8
text
 62
7
100
AcDbLine
 10
80.383828
 20
-73.500800
 30
0.0
 11
80.018182
 21
-72.370130
 31
0.0
  0
LINE
  5
3f7
100
AcDbEntity
  8
text
 62
7
100
AcDbLine
 10
80.018182
 20
-72.370130
 30
0.0
 11
79.506655
 21
-71.293180
 31
0.0
  0
LINE
  5
3f8
100
AcDbEntity
  8
text
 62
7
100
AcDbLine
 10
79.506655
 20
-71.293180
 30
0.0
 11
79.507185
 21
-71.293180
 31
0.0
  0
LINE
  5
3f9
100
AcDbEntity
  8
text
 62
7
100
AcDbLine
 10
79.507185
 20
-71.293180
 30
0.0
 11
79.507714
 21
-71.293180
 31
0.0
  0
LINE
  5
3fa
100
AcDbEntity
  8
text
 62
7
100
AcDbLine
 10
79.507714
 20
-71.293180
 30
0.0
 11
79.508243
 21
-71.293180
 31
0.0
  0
LINE
  5
3fb
100
AcDbEntity
  8
text
 62
7
100
AcDbLine
 10
79.508243
 20
-71.293180
 30
0.0
 11
79.508772
 21
-71.293180
 31
0.0
  0
LINE
  5
3fc
100
AcDbEntity
  8
text
 62
7
100
AcDbLine
 10
79.508772
 20
-71.293180
 30
0.0
 11
78.877526
 21
-70.301120
 31
0.0
  0
LINE
  5
3fd
100
AcDbEntity
  8
text
 62
7
100
AcDbLine
 10
78.877526
 20
-70.301120
 30
0.0
 11
78.139186
 21
-69.418460
 31
0.0
  0
LINE
  5
3fe
100
AcDbEntity
  8
text
 62
7
100
AcDbLine
 10
78.139186
 20
-69.418460
 30
0.0
 11
77.295636
 21
-68.647500
 31
0.0
  0
LINE
  5
3ff
100
AcDbEntity
  8
text
 62
7
100
AcDbLine
 10
77.295636
 20
-68.647500
 30
0.0
 11
76.348758
 21
-67.990540
 31
0.0
  0
LINE
  5
400
100
AcDbEntity
  8
text
 62
7
100
AcDbLine
 10
76.348758
 20
-67.990540
 30
0.0
 11
76.348229
 21
-67.990010
 31
0.0
  0
LINE
  5
401
100
AcDbEntity
  8
text
 62
7
100
AcDbLine
 10
76.348229
 20
-67.990010
 30
0.0
 11
76.347700
 21
-67.989480
 31
0.0
  0
LINE
  5
402
100
AcDbEntity
  8
text
 62
7
100
AcDbLine
 10
76.347700
 20
-67.989480
 30
0.0
 11
76.347171
 21
-67.988950
 31
0.0
  0
LINE
  5
403
100
AcDbEntity
  8
text
 62
7
100
AcDbLine
 10
76.347171
 20
-67.988950
 30
0.0
 11
76.346641
 21
-67.988420
 31
0.0
  0
LINE
  5
404
100
AcDbEntity
  8
text
 62
7
100
AcDbLine
 10
76.346641
 20
-67.988420
 30
0.0
 11
75.327220
 21
-67.458090
 31
0.0
  0
LINE
  5
405
100
AcDbEntity
  8
text
 62
7
100
AcDbLine
 10
75.327220
 20
-67.458090
 30
0.0
 11
74.258817
 21
-67.078300
 31
0.0
  0
LINE
  5
406
100
AcDbEntity
  8
text
 62
7
100
AcDbLine
 10
74.258817
 20
-67.078300
 30
0.0
 11
73.144987
 21
-66.849840
 31
0.0
  0
LINE
  5
407
100
AcDbEntity
  8
text
 62
7
100
AcDbLine
 10
73.144987
 20
-66.849840
 30
0.0
 11
71.989285
 21
-66.773540
 31
0.0
  0
LINE
  5
408
100
AcDbEntity
  8
text
 62
7
100
AcDbLine
 10
71.989285
 20
-66.773540
 30
0.0
 11
70.992189
 21
-66.773540
 31
0.0
  0
LINE
  5
409
100
AcDbEntity
  8
text
 62
7
100
AcDbLine
 10
70.992189
 20
-66.773540
 30
0.0
 11
69.995091
 21
-66.773540
 31
0.0
  0
LINE
  5
40a
100
AcDbEntity
  8
text
 62
7
100
AcDbLine
 10
69.995091
 20
-66.773540
 30
0.0
 11
68.997996
 21
-66.773540
 31
0.0
  0
LINE
  5
40b
100
AcDbEntity
  8
text
 62
7
100
AcDbLine
 10
68.997996
 20
-66.773540
 30
0.0
 11
68.000947
 21
-66.773560
 31
0.0
  0
LINE
  5
40c
100
AcDbEntity
  8
text
 62
7
100
AcDbLine
 10
-84.290014
 20
-69.230770
 30
0.0
 11
-83.322761
 21
-69.230770
 31
0.0
  0
LINE
  5
40d
100
AcDbEntity
  8
text
 62
7
100
AcDbLine
 10
-83.322761
 20
-69.230770
 30
0.0
 11
-82.355508
 21
-69.230770
 31
0.0
  0
LINE
  5
40e
100
AcDbEntity
  8
text
 62
7
100
AcDbLine
 10
-82.355508
 20
-69.230770
 30
0.0
 11
-81.388255
 21
-69.230770
 31
0.0
  0
LINE
  5
40f
100
AcDbEntity
  8
text
 62
7
100
AcDbLine
 10
-81.388255
 20
-69.230770
 30
0.0
 11
-80.421001
 21
-69.230770
 31
0.0
  0
LINE
  5
410
100
AcDbEntity
  8
text
 62
7
100
AcDbLine
 10
-80.421001
 20
-69.230770
 30
0.0
 11
-79.966582
 21
-69.274470
 31
0.0
  0
LINE
  5
411
100
AcDbEntity
  8
text
 62
7
100
AcDbLine
 10
-79.966582
 20
-69.274470
 30
0.0
 11
-79.555891
 21
-69.409930
 31
0.0
  0
LINE
  5
412
100
AcDbEntity
  8
text
 62
7
100
AcDbLine
 10
-79.555891
 20
-69.409930
 30
0.0
 11
-79.177780
 21
-69.643790
 31
0.0
  0
LINE
  5
413
100
AcDbEntity
  8
text
 62
7
100
AcDbLine
 10
-79.177780
 20
-69.643790
 30
0.0
 11
-78.821098
 21
-69.982680
 31
0.0
  0
LINE
  5
414
100
AcDbEntity
  8
text
 62
7
100
AcDbLine
 10
-78.821098
 20
-69.982680
 30
0.0
 11
-78.516417
 21
-70.392030
 31
0.0
  0
LINE
  5
415
100
AcDbEntity
  8
text
 62
7
100
AcDbLine
 10
-78.516417
 20
-70.392030
 30
0.0
 11
-78.300586
 21
-70.838520
 31
0.0
  0
LINE
  5
416
100
AcDbEntity
  8
text
 62
7
100
AcDbLine
 10
-78.300586
 20
-70.838520
 30
0.0
 11
-78.172154
 21
-71.330310
 31
0.0
  0
LINE
  5
417
100
AcDbEntity
  8
text
 62
7
100
AcDbLine
 10
-78.172154
 20
-71.330310
 30
0.0
 11
-78.129664
 21
-71.875580
 31
0.0
  0
LINE
  5
418
100
AcDbEntity
  8
text
 62
7
100
AcDbLine
 10
-78.129664
 20
-71.875580
 30
0.0
 11
-78.171624
 21
-72.408030
 31
0.0
  0
LINE
  5
419
100
AcDbEntity
  8
text
 62
7
100
AcDbLine
 10
-78.171624
 20
-72.408030
 30
0.0
 11
-78.298875
 21
-72.888680
 31
0.0
  0
LINE
  5
41a
100
AcDbEntity
  8
text
 62
7
100
AcDbLine
 10
-78.298875
 20
-72.888680
 30
0.0
 11
-78.513473
 21
-73.326060
 31
0.0
  0
LINE
  5
41b
100
AcDbEntity
  8
text
 62
7
100
AcDbLine
 10
-78.513473
 20
-73.326060
 30
0.0
 11
-78.817477
 21
-73.728700
 31
0.0
  0
LINE
  5
41c
100
AcDbEntity
  8
text
 62
7
100
AcDbLine
 10
-78.817477
 20
-73.728700
 30
0.0
 11
-79.167965
 21
-74.058550
 31
0.0
  0
LINE
  5
41d
100
AcDbEntity
  8
text
 62
7
100
AcDbLine
 10
-79.167965
 20
-74.058550
 30
0.0
 11
-79.536051
 21
-74.285770
 31
0.0
  0
LINE
  5
41e
100
AcDbEntity
  8
text
 62
7
100
AcDbLine
 10
-79.536051
 20
-74.285770
 30
0.0
 11
-79.932034
 21
-74.417120
 31
0.0
  0
LINE
  5
41f
100
AcDbEntity
  8
text
 62
7
100
AcDbLine
 10
-79.932034
 20
-74.417120
 30
0.0
 11
-80.366221
 21
-74.459420
 31
0.0
  0
LINE
  5
420
100
AcDbEntity
  8
text
 62
7
100
AcDbLine
 10
-80.366221
 20
-74.459420
 30
0.0
 11
-81.347169
 21
-74.459420
 31
0.0
  0
LINE
  5
421
100
AcDbEntity
  8
text
 62
7
100
AcDbLine
 10
-81.347169
 20
-74.459420
 30
0.0
 11
-82.328114
 21
-74.459420
 31
0.0
  0
LINE
  5
422
100
AcDbEntity
  8
text
 62
7
100
AcDbLine
 10
-82.328114
 20
-74.459420
 30
0.0
 11
-83.309062
 21
-74.459420
 31
0.0
  0
LINE
  5
423
100
AcDbEntity
  8
text
 62
7
100
AcDbLine
 10
-83.309062
 20
-74.459420
 30
0.0
 11
-84.290010
 21
-74.459420
 31
0.0
  0
LINE
  5
424
100
AcDbEntity
  8
text
 62
7
100
AcDbLine
 10
-84.290010
 20
-74.459420
 30
0.0
 11
-84.290010
 21
-73.152270
 31
0.0
  0
LINE
  5
425
100
AcDbEntity
  8
text
 62
7
100
AcDbLine
 10
-84.290010
 20
-73.152270
 30
0.0
 11
-84.290010
 21
-71.845110
 31
0.0
  0
LINE
  5
426
100
AcDbEntity
  8
text
 62
7
100
AcDbLine
 10
-84.290010
 20
-71.845110
 30
0.0
 11
-84.290010
 21
-70.537960
 31
0.0
  0
LINE
  5
427
100
AcDbEntity
  8
text
 62
7
100
AcDbLine
 10
-84.290010
 20
-70.537960
 30
0.0
 11
-84.290014
 21
-69.230770
 31
0.0
  0
LINE
  5
428
100
AcDbEntity
  8
text
 62
7
100
AcDbLine
 10
-72.770305
 20
-69.230770
 30
0.0
 11
-71.803567
 21
-69.230770
 31
0.0
  0
LINE
  5
429
100
AcDbEntity
  8
text
 62
7
100
AcDbLine
 10
-71.803567
 20
-69.230770
 30
0.0
 11
-70.836833
 21
-69.230770
 31
0.0
  0
LINE
  5
42a
100
AcDbEntity
  8
text
 62
7
100
AcDbLine
 10
-70.836833
 20
-69.230770
 30
0.0
 11
-69.870096
 21
-69.230770
 31
0.0
  0
LINE
  5
42b
100
AcDbEntity
  8
text
 62
7
100
AcDbLine
 10
-69.870096
 20
-69.230770
 30
0.0
 11
-68.903358
 21
-69.230770
 31
0.0
  0
LINE
  5
42c
100
AcDbEntity
  8
text
 62
7
100
AcDbLine
 10
-68.903358
 20
-69.230770
 30
0.0
 11
-68.448616
 21
-69.274470
 31
0.0
  0
LINE
  5
42d
100
AcDbEntity
  8
text
 62
7
100
AcDbLine
 10
-68.448616
 20
-69.274470
 30
0.0
 11
-68.037213
 21
-69.409930
 31
0.0
  0
LINE
  5
42e
100
AcDbEntity
  8
text
 62
7
100
AcDbLine
 10
-68.037213
 20
-69.409930
 30
0.0
 11
-67.658391
 21
-69.643790
 31
0.0
  0
LINE
  5
42f
100
AcDbEntity
  8
text
 62
7
100
AcDbLine
 10
-67.658391
 20
-69.643790
 30
0.0
 11
-67.301388
 21
-69.982680
 31
0.0
  0
LINE
  5
430
100
AcDbEntity
  8
text
 62
7
100
AcDbLine
 10
-67.301388
 20
-69.982680
 30
0.0
 11
-66.997030
 21
-70.392030
 31
0.0
  0
LINE
  5
431
100
AcDbEntity
  8
text
 62
7
100
AcDbLine
 10
-66.997030
 20
-70.392030
 30
0.0
 11
-66.781911
 21
-70.838520
 31
0.0
  0
LINE
  5
432
100
AcDbEntity
  8
text
 62
7
100
AcDbLine
 10
-66.781911
 20
-70.838520
 30
0.0
 11
-66.654188
 21
-71.330310
 31
0.0
  0
LINE
  5
433
100
AcDbEntity
  8
text
 62
7
100
AcDbLine
 10
-66.654188
 20
-71.330310
 30
0.0
 11
-66.612028
 21
-71.875580
 31
0.0
  0
LINE
  5
434
100
AcDbEntity
  8
text
 62
7
100
AcDbLine
 10
-66.612028
 20
-71.875580
 30
0.0
 11
-66.653988
 21
-72.408030
 31
0.0
  0
LINE
  5
435
100
AcDbEntity
  8
text
 62
7
100
AcDbLine
 10
-66.653988
 20
-72.408030
 30
0.0
 11
-66.781236
 21
-72.888680
 31
0.0
  0
LINE
  5
436
100
AcDbEntity
  8
text
 62
7
100
AcDbLine
 10
-66.781236
 20
-72.888680
 30
0.0
 11
-66.995837
 21
-73.326060
 31
0.0
  0
LINE
  5
437
100
AcDbEntity
  8
text
 62
7
100
AcDbLine
 10
-66.995837
 20
-73.326060
 30
0.0
 11
-67.299841
 21
-73.728700
 31
0.0
  0
LINE
  5
438
100
AcDbEntity
  8
text
 62
7
100
AcDbLine
 10
-67.299841
 20
-73.728700
 30
0.0
 11
-67.650326
 21
-74.058550
 31
0.0
  0
LINE
  5
439
100
AcDbEntity
  8
text
 62
7
100
AcDbLine
 10
-67.650326
 20
-74.058550
 30
0.0
 11
-68.018412
 21
-74.285770
 31
0.0
  0
LINE
  5
43a
100
AcDbEntity
  8
text
 62
7
100
AcDbLine
 10
-68.018412
 20
-74.285770
 30
0.0
 11
-68.414395
 21
-74.417120
 31
0.0
  0
LINE
  5
43b
100
AcDbEntity
  8
text
 62
7
100
AcDbLine
 10
-68.414395
 20
-74.417120
 30
0.0
 11
-68.848582
 21
-74.459420
 31
0.0
  0
LINE
  5
43c
100
AcDbEntity
  8
text
 62
7
100
AcDbLine
 10
-68.848582
 20
-74.459420
 30
0.0
 11
-69.829014
 21
-74.459420
 31
0.0
  0
LINE
  5
43d
100
AcDbEntity
  8
text
 62
7
100
AcDbLine
 10
-69.829014
 20
-74.459420
 30
0.0
 11
-70.809446
 21
-74.459420
 31
0.0
  0
LINE
  5
43e
100
AcDbEntity
  8
text
 62
7
100
AcDbLine
 10
-70.809446
 20
-74.459420
 30
0.0
 11
-71.789875
 21
-74.459420
 31
0.0
  0
LINE
  5
43f
100
AcDbEntity
  8
text
 62
7
100
AcDbLine
 10
-71.789875
 20
-74.459420
 30
0.0
 11
-72.770308
 21
-74.459420
 31
0.0
  0
LINE
  5
440
100
AcDbEntity
  8
text
 62
7
100
AcDbLine
 10
-72.770308
 20
-74.459420
 30
0.0
 11
-72.770308
 21
-73.152270
 31
0.0
  0
LINE
  5
441
100
AcDbEntity
  8
text
 62
7
100
AcDbLine
 10
-72.770308
 20
-73.152270
 30
0.0
 11
-72.770308
 21
-71.845110
 31
0.0
  0
LINE
  5
442
100
AcDbEntity
  8
text
 62
7
100
AcDbLine
 10
-72.770308
 20
-71.845110
 30
0.0
 11
-72.770308
 21
-70.537960
 31
0.0
  0
LINE
  5
443
100
AcDbEntity
  8
text
 62
7
100
AcDbLine
 10
-72.770308
 20
-70.537960
 30
0.0
 11
-72.770305
 21
-69.230770
 31
0.0
  0
LINE
  5
444
100
AcDbEntity
  8
text
 62
7
100
AcDbLine
 10
-18.299727
 20
-69.230770
 30
0.0
 11
-17.950525
 21
-69.230770
 31
0.0
  0
LINE
  5
445
100
AcDbEntity
  8
text
 62
7
100
AcDbLine
 10
-17.950525
 20
-69.230770
 30
0.0
 11
-17.601320
 21
-69.230770
 31
0.0
  0
LINE
  5
446
100
AcDbEntity
  8
text
 62
7
100
AcDbLine
 10
-17.601320
 20
-69.230770
 30
0.0
 11
-17.252118
 21
-69.230770
 31
0.0
  0
LINE
  5
447
100
AcDbEntity
  8
text
 62
7
100
AcDbLine
 10
-17.252118
 20
-69.230770
 30
0.0
 11
-16.902915
 21
-69.230770
 31
0.0
  0
LINE
  5
448
100
AcDbEntity
  8
text
 62
7
100
AcDbLine
 10
-16.902915
 20
-69.230770
 30
0.0
 11
-16.049674
 21
-69.285170
 31
0.0
  0
LINE
  5
449
100
AcDbEntity
  8
text
 62
7
100
AcDbLine
 10
-16.049674
 20
-69.285170
 30
0.0
 11
-15.237162
 21
-69.448680
 31
0.0
  0
LINE
  5
44a
100
AcDbEntity
  8
text
 62
7
100
AcDbLine
 10
-15.237162
 20
-69.448680
 30
0.0
 11
-14.461711
 21
-69.721550
 31
0.0
  0
LINE
  5
44b
100
AcDbEntity
  8
text
 62
7
100
AcDbLine
 10
-14.461711
 20
-69.721550
 30
0.0
 11
-13.719647
 21
-70.104070
 31
0.0
  0
LINE
  5
44c
100
AcDbEntity
  8
text
 62
7
100
AcDbLine
 10
-13.719647
 20
-70.104070
 30
0.0
 11
-13.030828
 21
-70.581980
 31
0.0
  0
LINE
  5
44d
100
AcDbEntity
  8
text
 62
7
100
AcDbLine
 10
-13.030828
 20
-70.581980
 30
0.0
 11
-12.418696
 21
-71.141350
 31
0.0
  0
LINE
  5
44e
100
AcDbEntity
  8
text
 62
7
100
AcDbLine
 10
-12.418696
 20
-71.141350
 30
0.0
 11
-11.881362
 21
-71.785000
 31
0.0
  0
LINE
  5
44f
100
AcDbEntity
  8
text
 62
7
100
AcDbLine
 10
-11.881362
 20
-71.785000
 30
0.0
 11
-11.416944
 21
-72.515800
 31
0.0
  0
LINE
  5
450
100
AcDbEntity
  8
text
 62
7
100
AcDbLine
 10
-11.416944
 20
-72.515800
 30
0.0
 11
-11.416415
 21
-72.516330
 31
0.0
  0
LINE
  5
451
100
AcDbEntity
  8
text
 62
7
100
AcDbLine
 10
-11.416415
 20
-72.516330
 30
0.0
 11
-11.415886
 21
-72.516860
 31
0.0
  0
LINE
  5
452
100
AcDbEntity
  8
text
 62
7
100
AcDbLine
 10
-11.415886
 20
-72.516860
 30
0.0
 11
-11.415356
 21
-72.517390
 31
0.0
  0
LINE
  5
453
100
AcDbEntity
  8
text
 62
7
100
AcDbLine
 10
-11.415356
 20
-72.517390
 30
0.0
 11
-11.414827
 21
-72.517920
 31
0.0
  0
LINE
  5
454
100
AcDbEntity
  8
text
 62
7
100
AcDbLine
 10
-11.414827
 20
-72.517920
 30
0.0
 11
-11.041881
 21
-73.303170
 31
0.0
  0
LINE
  5
455
100
AcDbEntity
  8
text
 62
7
100
AcDbLine
 10
-11.041881
 20
-73.303170
 30
0.0
 11
-10.775787
 21
-74.129140
 31
0.0
  0
LINE
  5
456
100
AcDbEntity
  8
text
 62
7
100
AcDbLine
 10
-10.775787
 20
-74.129140
 30
0.0
 11
-10.616307
 21
-74.998670
 31
0.0
  0
LINE
  5
457
100
AcDbEntity
  8
text
 62
7
100
AcDbLine
 10
-10.616307
 20
-74.998670
 30
0.0
 11
-10.563197
 21
-75.914610
 31
0.0
  0
LINE
  5
458
100
AcDbEntity
  8
text
 62
7
100
AcDbLine
 10
-10.563197
 20
-75.914610
 30
0.0
 11
-10.616267
 21
-76.824710
 31
0.0
  0
LINE
  5
459
100
AcDbEntity
  8
text
 62
7
100
AcDbLine
 10
-10.616267
 20
-76.824710
 30
0.0
 11
-10.775690
 21
-77.689750
 31
0.0
  0
LINE
  5
45a
100
AcDbEntity
  8
text
 62
7
100
AcDbLine
 10
-10.775690
 20
-77.689750
 30
0.0
 11
-11.041773
 21
-78.512900
 31
0.0
  0
LINE
  5
45b
100
AcDbEntity
  8
text
 62
7
100
AcDbLine
 10
-11.041773
 20
-78.512900
 30
0.0
 11
-11.414822
 21
-79.297350
 31
0.0
  0
LINE
  5
45c
100
AcDbEntity
  8
text
 62
7
100
AcDbLine
 10
-11.414822
 20
-79.297350
 30
0.0
 11
-11.878991
 21
-80.022620
 31
0.0
  0
LINE
  5
45d
100
AcDbEntity
  8
text
 62
7
100
AcDbLine
 10
-11.878991
 20
-80.022620
 30
0.0
 11
-12.416440
 21
-80.662700
 31
0.0
  0
LINE
  5
45e
100
AcDbEntity
  8
text
 62
7
100
AcDbLine
 10
-12.416440
 20
-80.662700
 30
0.0
 11
-13.028754
 21
-81.220200
 31
0.0
  0
LINE
  5
45f
100
AcDbEntity
  8
text
 62
7
100
AcDbLine
 10
-13.028754
 20
-81.220200
 30
0.0
 11
-13.717523
 21
-81.697720
 31
0.0
  0
LINE
  5
460
100
AcDbEntity
  8
text
 62
7
100
AcDbLine
 10
-13.717523
 20
-81.697720
 30
0.0
 11
-13.718052
 21
-81.697990
 31
0.0
  0
LINE
  5
461
100
AcDbEntity
  8
text
 62
7
100
AcDbLine
 10
-13.718052
 20
-81.697990
 30
0.0
 11
-13.718581
 21
-81.698520
 31
0.0
  0
LINE
  5
462
100
AcDbEntity
  8
text
 62
7
100
AcDbLine
 10
-13.718581
 20
-81.698520
 30
0.0
 11
-13.719110
 21
-81.699050
 31
0.0
  0
LINE
  5
463
100
AcDbEntity
  8
text
 62
7
100
AcDbLine
 10
-13.719110
 20
-81.699050
 30
0.0
 11
-13.719639
 21
-81.699840
 31
0.0
  0
LINE
  5
464
100
AcDbEntity
  8
text
 62
7
100
AcDbLine
 10
-13.719639
 20
-81.699840
 30
0.0
 11
-14.461409
 21
-82.076430
 31
0.0
  0
LINE
  5
465
100
AcDbEntity
  8
text
 62
7
100
AcDbLine
 10
-14.461409
 20
-82.076430
 30
0.0
 11
-15.237001
 21
-82.344910
 31
0.0
  0
LINE
  5
466
100
AcDbEntity
  8
text
 62
7
100
AcDbLine
 10
-15.237001
 20
-82.344910
 30
0.0
 11
-16.049732
 21
-82.505710
 31
0.0
  0
LINE
  5
467
100
AcDbEntity
  8
text
 62
7
100
AcDbLine
 10
-16.049732
 20
-82.505710
 30
0.0
 11
-16.902908
 21
-82.559210
 31
0.0
  0
LINE
  5
468
100
AcDbEntity
  8
text
 62
7
100
AcDbLine
 10
-16.902908
 20
-82.559210
 30
0.0
 11
-17.252110
 21
-82.559210
 31
0.0
  0
LINE
  5
469
100
AcDbEntity
  8
text
 62
7
100
AcDbLine
 10
-17.252110
 20
-82.559210
 30
0.0
 11
-17.601312
 21
-82.559210
 31
0.0
  0
LINE
  5
46a
100
AcDbEntity
  8
text
 62
7
100
AcDbLine
 10
-17.601312
 20
-82.559210
 30
0.0
 11
-17.950517
 21
-82.559210
 31
0.0
  0
LINE
  5
46b
100
AcDbEntity
  8
text
 62
7
100
AcDbLine
 10
-17.950517
 20
-82.559210
 30
0.0
 11
-18.299720
 21
-82.559210
 31
0.0
  0
LINE
  5
46c
100
AcDbEntity
  8
text
 62
7
100
AcDbLine
 10
-18.299720
 20
-82.559210
 30
0.0
 11
-18.299720
 21
-79.227110
 31
0.0
  0
LINE
  5
46d
100
AcDbEntity
  8
text
 62
7
100
AcDbLine
 10
-18.299720
 20
-79.227110
 30
0.0
 11
-18.299720
 21
-75.895010
 31
0.0
  0
LINE
  5
46e
100
AcDbEntity
  8
text
 62
7
100
AcDbLine
 10
-18.299720
 20
-75.895010
 30
0.0
 11
-18.299720
 21
-72.562920
 31
0.0
  0
LINE
  5
46f
100
AcDbEntity
  8
text
 62
7
100
AcDbLine
 10
-18.299720
 20
-72.562920
 30
0.0
 11
-18.299727
 21
-69.230770
 31
0.0
  0
LINE
  5
470
100
AcDbEntity
  8
text
 62
7
100
AcDbLine
 10
45.600764
 20
-69.402340
 30
0.0
 11
45.600764
 21
-69.402470
 31
0.0
  0
LINE
  5
471
100
AcDbEntity
  8
text
 62
7
100
AcDbLine
 10
45.600764
 20
-69.402470
 30
0.0
 11
45.600764
 21
-69.402600
 31
0.0
  0
LINE
  5
472
100
AcDbEntity
  8
text
 62
7
100
AcDbLine
 10
45.600764
 20
-69.402600
 30
0.0
 11
45.600764
 21
-69.402730
 31
0.0
  0
LINE
  5
473
100
AcDbEntity
  8
text
 62
7
100
AcDbLine
 10
45.600764
 20
-69.402730
 30
0.0
 11
45.600764
 21
-69.402860
 31
0.0
  0
LINE
  5
474
100
AcDbEntity
  8
text
 62
7
100
AcDbLine
 10
45.600764
 20
-69.402860
 30
0.0
 11
46.400874
 21
-69.456060
 31
0.0
  0
LINE
  5
475
100
AcDbEntity
  8
text
 62
7
100
AcDbLine
 10
46.400874
 20
-69.456060
 30
0.0
 11
47.165356
 21
-69.616300
 31
0.0
  0
LINE
  5
476
100
AcDbEntity
  8
text
 62
7
100
AcDbLine
 10
47.165356
 20
-69.616300
 30
0.0
 11
47.898014
 21
-69.884680
 31
0.0
  0
LINE
  5
477
100
AcDbEntity
  8
text
 62
7
100
AcDbLine
 10
47.898014
 20
-69.884680
 30
0.0
 11
48.602647
 21
-70.262270
 31
0.0
  0
LINE
  5
478
100
AcDbEntity
  8
text
 62
7
100
AcDbLine
 10
48.602647
 20
-70.262270
 30
0.0
 11
49.263965
 21
-70.734490
 31
0.0
  0
LINE
  5
479
100
AcDbEntity
  8
text
 62
7
100
AcDbLine
 10
49.263965
 20
-70.734490
 30
0.0
 11
49.851202
 21
-71.284920
 31
0.0
  0
LINE
  5
47a
100
AcDbEntity
  8
text
 62
7
100
AcDbLine
 10
49.851202
 20
-71.284920
 30
0.0
 11
50.365936
 21
-71.915850
 31
0.0
  0
LINE
  5
47b
100
AcDbEntity
  8
text
 62
7
100
AcDbLine
 10
50.365936
 20
-71.915850
 30
0.0
 11
50.809748
 21
-72.629560
 31
0.0
  0
LINE
  5
47c
100
AcDbEntity
  8
text
 62
7
100
AcDbLine
 10
50.809748
 20
-72.629560
 30
0.0
 11
51.166517
 21
-73.398910
 31
0.0
  0
LINE
  5
47d
100
AcDbEntity
  8
text
 62
7
100
AcDbLine
 10
51.166517
 20
-73.398910
 30
0.0
 11
51.420972
 21
-74.200450
 31
0.0
  0
LINE
  5
47e
100
AcDbEntity
  8
text
 62
7
100
AcDbLine
 10
51.420972
 20
-74.200450
 30
0.0
 11
51.573420
 21
-75.037290
 31
0.0
  0
LINE
  5
47f
100
AcDbEntity
  8
text
 62
7
100
AcDbLine
 10
51.573420
 20
-75.037290
 30
0.0
 11
51.624170
 21
-75.912570
 31
0.0
  0
LINE
  5
480
100
AcDbEntity
  8
text
 62
7
100
AcDbLine
 10
51.624170
 20
-75.912570
 30
0.0
 11
51.573460
 21
-76.782800
 31
0.0
  0
LINE
  5
481
100
AcDbEntity
  8
text
 62
7
100
AcDbLine
 10
51.573460
 20
-76.782800
 30
0.0
 11
51.421068
 21
-77.616550
 31
0.0
  0
LINE
  5
482
100
AcDbEntity
  8
text
 62
7
100
AcDbLine
 10
51.421068
 20
-77.616550
 30
0.0
 11
51.166623
 21
-78.416600
 31
0.0
  0
LINE
  5
483
100
AcDbEntity
  8
text
 62
7
100
AcDbLine
 10
51.166623
 20
-78.416600
 30
0.0
 11
50.809756
 21
-79.185750
 31
0.0
  0
LINE
  5
484
100
AcDbEntity
  8
text
 62
7
100
AcDbLine
 10
50.809756
 20
-79.185750
 30
0.0
 11
50.365891
 21
-79.895270
 31
0.0
  0
LINE
  5
485
100
AcDbEntity
  8
text
 62
7
100
AcDbLine
 10
50.365891
 20
-79.895270
 30
0.0
 11
49.850909
 21
-80.524570
 31
0.0
  0
LINE
  5
486
100
AcDbEntity
  8
text
 62
7
100
AcDbLine
 10
49.850909
 20
-80.524570
 30
0.0
 11
49.263060
 21
-81.076290
 31
0.0
  0
LINE
  5
487
100
AcDbEntity
  8
text
 62
7
100
AcDbLine
 10
49.263060
 20
-81.076290
 30
0.0
 11
48.600588
 21
-81.553050
 31
0.0
  0
LINE
  5
488
100
AcDbEntity
  8
text
 62
7
100
AcDbLine
 10
48.600588
 20
-81.553050
 30
0.0
 11
47.896384
 21
-81.930340
 31
0.0
  0
LINE
  5
489
100
AcDbEntity
  8
text
 62
7
100
AcDbLine
 10
47.896384
 20
-81.930340
 30
0.0
 11
47.164261
 21
-82.198750
 31
0.0
  0
LINE
  5
48a
100
AcDbEntity
  8
text
 62
7
100
AcDbLine
 10
47.164261
 20
-82.198750
 30
0.0
 11
46.400348
 21
-82.359160
 31
0.0
  0
LINE
  5
48b
100
AcDbEntity
  8
text
 62
7
100
AcDbLine
 10
46.400348
 20
-82.359160
 30
0.0
 11
45.600772
 21
-82.412460
 31
0.0
  0
LINE
  5
48c
100
AcDbEntity
  8
text
 62
7
100
AcDbLine
 10
45.600772
 20
-82.412460
 30
0.0
 11
44.991770
 21
-82.380760
 31
0.0
  0
LINE
  5
48d
100
AcDbEntity
  8
text
 62
7
100
AcDbLine
 10
44.991770
 20
-82.380760
 30
0.0
 11
44.397600
 21
-82.285460
 31
0.0
  0
LINE
  5
48e
100
AcDbEntity
  8
text
 62
7
100
AcDbLine
 10
44.397600
 20
-82.285460
 30
0.0
 11
43.816684
 21
-82.126280
 31
0.0
  0
LINE
  5
48f
100
AcDbEntity
  8
text
 62
7
100
AcDbLine
 10
43.816684
 20
-82.126280
 30
0.0
 11
43.247427
 21
-81.902920
 31
0.0
  0
LINE
  5
490
100
AcDbEntity
  8
text
 62
7
100
AcDbLine
 10
43.247427
 20
-81.902920
 30
0.0
 11
43.246898
 21
-81.902920
 31
0.0
  0
LINE
  5
491
100
AcDbEntity
  8
text
 62
7
100
AcDbLine
 10
43.246898
 20
-81.902920
 30
0.0
 11
43.246369
 21
-81.902920
 31
0.0
  0
LINE
  5
492
100
AcDbEntity
  8
text
 62
7
100
AcDbLine
 10
43.246369
 20
-81.902920
 30
0.0
 11
43.245840
 21
-81.902920
 31
0.0
  0
LINE
  5
493
100
AcDbEntity
  8
text
 62
7
100
AcDbLine
 10
43.245840
 20
-81.902920
 30
0.0
 11
43.245311
 21
-81.902920
 31
0.0
  0
LINE
  5
494
100
AcDbEntity
  8
text
 62
7
100
AcDbLine
 10
43.245311
 20
-81.902920
 30
0.0
 11
42.703719
 21
-81.624380
 31
0.0
  0
LINE
  5
495
100
AcDbEntity
  8
text
 62
7
100
AcDbLine
 10
42.703719
 20
-81.624380
 30
0.0
 11
42.203395
 21
-81.303390
 31
0.0
  0
LINE
  5
496
100
AcDbEntity
  8
text
 62
7
100
AcDbLine
 10
42.203395
 20
-81.303390
 30
0.0
 11
41.743049
 21
-80.939300
 31
0.0
  0
LINE
  5
497
100
AcDbEntity
  8
text
 62
7
100
AcDbLine
 10
41.743049
 20
-80.939300
 30
0.0
 11
41.321398
 21
-80.531430
 31
0.0
  0
LINE
  5
498
100
AcDbEntity
  8
text
 62
7
100
AcDbLine
 10
41.321398
 20
-80.531430
 30
0.0
 11
41.320869
 21
-80.531160
 31
0.0
  0
LINE
  5
499
100
AcDbEntity
  8
text
 62
7
100
AcDbLine
 10
41.320869
 20
-80.531160
 30
0.0
 11
41.320340
 21
-80.530900
 31
0.0
  0
LINE
  5
49a
100
AcDbEntity
  8
text
 62
7
100
AcDbLine
 10
41.320340
 20
-80.530900
 30
0.0
 11
41.319811
 21
-80.530630
 31
0.0
  0
LINE
  5
49b
100
AcDbEntity
  8
text
 62
7
100
AcDbLine
 10
41.319811
 20
-80.530630
 30
0.0
 11
41.319282
 21
-80.530370
 31
0.0
  0
LINE
  5
49c
100
AcDbEntity
  8
text
 62
7
100
AcDbLine
 10
41.319282
 20
-80.530370
 30
0.0
 11
41.318752
 21
-80.529840
 31
0.0
  0
LINE
  5
49d
100
AcDbEntity
  8
text
 62
7
100
AcDbLine
 10
41.318752
 20
-80.529840
 30
0.0
 11
41.318223
 21
-80.529310
 31
0.0
  0
LINE
  5
49e
100
AcDbEntity
  8
text
 62
7
100
AcDbLine
 10
41.318223
 20
-80.529310
 30
0.0
 11
41.317694
 21
-80.528780
 31
0.0
  0
LINE
  5
49f
100
AcDbEntity
  8
text
 62
7
100
AcDbLine
 10
41.317694
 20
-80.528780
 30
0.0
 11
41.317165
 21
-80.528250
 31
0.0
  0
LINE
  5
4a0
100
AcDbEntity
  8
text
 62
7
100
AcDbLine
 10
41.317165
 20
-80.528250
 30
0.0
 11
40.938954
 21
-80.070910
 31
0.0
  0
LINE
  5
4a1
100
AcDbEntity
  8
text
 62
7
100
AcDbLine
 10
40.938954
 20
-80.070910
 30
0.0
 11
40.599948
 21
-79.572040
 31
0.0
  0
LINE
  5
4a2
100
AcDbEntity
  8
text
 62
7
100
AcDbLine
 10
40.599948
 20
-79.572040
 30
0.0
 11
40.299805
 21
-79.030750
 31
0.0
  0
LINE
  5
4a3
100
AcDbEntity
  8
text
 62
7
100
AcDbLine
 10
40.299805
 20
-79.030750
 30
0.0
 11
40.038172
 21
-78.446210
 31
0.0
  0
LINE
  5
4a4
100
AcDbEntity
  8
text
 62
7
100
AcDbLine
 10
40.038172
 20
-78.446210
 30
0.0
 11
40.038172
 21
-78.445680
 31
0.0
  0
LINE
  5
4a5
100
AcDbEntity
  8
text
 62
7
100
AcDbLine
 10
40.038172
 20
-78.445680
 30
0.0
 11
40.038172
 21
-78.445150
 31
0.0
  0
LINE
  5
4a6
100
AcDbEntity
  8
text
 62
7
100
AcDbLine
 10
40.038172
 20
-78.445150
 30
0.0
 11
40.038172
 21
-78.444620
 31
0.0
  0
LINE
  5
4a7
100
AcDbEntity
  8
text
 62
7
100
AcDbLine
 10
40.038172
 20
-78.444620
 30
0.0
 11
40.038172
 21
-78.444090
 31
0.0
  0
LINE
  5
4a8
100
AcDbEntity
  8
text
 62
7
100
AcDbLine
 10
40.038172
 20
-78.444090
 30
0.0
 11
39.831752
 21
-77.834150
 31
0.0
  0
LINE
  5
4a9
100
AcDbEntity
  8
text
 62
7
100
AcDbLine
 10
39.831752
 20
-77.834150
 30
0.0
 11
39.683940
 21
-77.209690
 31
0.0
  0
LINE
  5
4aa
100
AcDbEntity
  8
text
 62
7
100
AcDbLine
 10
39.683940
 20
-77.209690
 30
0.0
 11
39.595030
 21
-76.569650
 31
0.0
  0
LINE
  5
4ab
100
AcDbEntity
  8
text
 62
7
100
AcDbLine
 10
39.595030
 20
-76.569650
 30
0.0
 11
39.565330
 21
-75.912980
 31
0.0
  0
LINE
  5
4ac
100
AcDbEntity
  8
text
 62
7
100
AcDbLine
 10
39.565330
 20
-75.912980
 30
0.0
 11
39.594990
 21
-75.250730
 31
0.0
  0
LINE
  5
4ad
100
AcDbEntity
  8
text
 62
7
100
AcDbLine
 10
39.594990
 20
-75.250730
 30
0.0
 11
39.683830
 21
-74.607050
 31
0.0
  0
LINE
  5
4ae
100
AcDbEntity
  8
text
 62
7
100
AcDbLine
 10
39.683830
 20
-74.607050
 30
0.0
 11
39.831629
 21
-73.980580
 31
0.0
  0
LINE
  5
4af
100
AcDbEntity
  8
text
 62
7
100
AcDbLine
 10
39.831629
 20
-73.980580
 30
0.0
 11
40.038174
 21
-73.369980
 31
0.0
  0
LINE
  5
4b0
100
AcDbEntity
  8
text
 62
7
100
AcDbLine
 10
40.038174
 20
-73.369980
 30
0.0
 11
40.300590
 21
-72.780680
 31
0.0
  0
LINE
  5
4b1
100
AcDbEntity
  8
text
 62
7
100
AcDbLine
 10
40.300590
 20
-72.780680
 30
0.0
 11
40.602623
 21
-72.237860
 31
0.0
  0
LINE
  5
4b2
100
AcDbEntity
  8
text
 62
7
100
AcDbLine
 10
40.602623
 20
-72.237860
 30
0.0
 11
40.944631
 21
-71.740590
 31
0.0
  0
LINE
  5
4b3
100
AcDbEntity
  8
text
 62
7
100
AcDbLine
 10
40.944631
 20
-71.740590
 30
0.0
 11
41.326983
 21
-71.287940
 31
0.0
  0
LINE
  5
4b4
100
AcDbEntity
  8
text
 62
7
100
AcDbLine
 10
41.326983
 20
-71.287940
 30
0.0
 11
41.749665
 21
-70.878350
 31
0.0
  0
LINE
  5
4b5
100
AcDbEntity
  8
text
 62
7
100
AcDbLine
 10
41.749665
 20
-70.878350
 30
0.0
 11
42.211347
 21
-70.512620
 31
0.0
  0
LINE
  5
4b6
100
AcDbEntity
  8
text
 62
7
100
AcDbLine
 10
42.211347
 20
-70.512620
 30
0.0
 11
42.713246
 21
-70.190250
 31
0.0
  0
LINE
  5
4b7
100
AcDbEntity
  8
text
 62
7
100
AcDbLine
 10
42.713246
 20
-70.190250
 30
0.0
 11
43.256581
 21
-69.910760
 31
0.0
  0
LINE
  5
4b8
100
AcDbEntity
  8
text
 62
7
100
AcDbLine
 10
43.256581
 20
-69.910760
 30
0.0
 11
43.821218
 21
-69.687680
 31
0.0
  0
LINE
  5
4b9
100
AcDbEntity
  8
text
 62
7
100
AcDbLine
 10
43.821218
 20
-69.687680
 30
0.0
 11
44.399129
 21
-69.529030
 31
0.0
  0
LINE
  5
4ba
100
AcDbEntity
  8
text
 62
7
100
AcDbLine
 10
44.399129
 20
-69.529030
 30
0.0
 11
44.991777
 21
-69.434230
 31
0.0
  0
LINE
  5
4bb
100
AcDbEntity
  8
text
 62
7
100
AcDbLine
 10
44.991777
 20
-69.434230
 30
0.0
 11
45.600764
 21
-69.402340
 31
0.0
  0
LINE
  5
4bc
100
AcDbEntity
  8
text
 62
7
100
AcDbLine
 10
70.676752
 20
-69.553230
 30
0.0
 11
71.004899
 21
-69.553230
 31
0.0
  0
LINE
  5
4bd
100
AcDbEntity
  8
text
 62
7
100
AcDbLine
 10
71.004899
 20
-69.553230
 30
0.0
 11
71.333043
 21
-69.553230
 31
0.0
  0
LINE
  5
4be
100
AcDbEntity
  8
text
 62
7
100
AcDbLine
 10
71.333043
 20
-69.553230
 30
0.0
 11
71.661190
 21
-69.553230
 31
0.0
  0
LINE
  5
4bf
100
AcDbEntity
  8
text
 62
7
100
AcDbLine
 10
71.661190
 20
-69.553230
 30
0.0
 11
71.989334
 21
-69.553230
 31
0.0
  0
LINE
  5
4c0
100
AcDbEntity
  8
text
 62
7
100
AcDbLine
 10
71.989334
 20
-69.553230
 30
0.0
 11
72.801507
 21
-69.604530
 31
0.0
  0
LINE
  5
4c1
100
AcDbEntity
  8
text
 62
7
100
AcDbLine
 10
72.801507
 20
-69.604530
 30
0.0
 11
73.574638
 21
-69.758990
 31
0.0
  0
LINE
  5
4c2
100
AcDbEntity
  8
text
 62
7
100
AcDbLine
 10
73.574638
 20
-69.758990
 30
0.0
 11
74.312434
 21
-70.017550
 31
0.0
  0
LINE
  5
4c3
100
AcDbEntity
  8
text
 62
7
100
AcDbLine
 10
74.312434
 20
-70.017550
 30
0.0
 11
75.018607
 21
-70.381100
 31
0.0
  0
LINE
  5
4c4
100
AcDbEntity
  8
text
 62
7
100
AcDbLine
 10
75.018607
 20
-70.381100
 30
0.0
 11
75.674215
 21
-70.836180
 31
0.0
  0
LINE
  5
4c5
100
AcDbEntity
  8
text
 62
7
100
AcDbLine
 10
75.674215
 20
-70.836180
 30
0.0
 11
76.256735
 21
-71.368990
 31
0.0
  0
LINE
  5
4c6
100
AcDbEntity
  8
text
 62
7
100
AcDbLine
 10
76.256735
 20
-71.368990
 30
0.0
 11
76.768090
 21
-71.982110
 31
0.0
  0
LINE
  5
4c7
100
AcDbEntity
  8
text
 62
7
100
AcDbLine
 10
76.768090
 20
-71.982110
 30
0.0
 11
77.210203
 21
-72.678120
 31
0.0
  0
LINE
  5
4c8
100
AcDbEntity
  8
text
 62
7
100
AcDbLine
 10
77.210203
 20
-72.678120
 30
0.0
 11
77.210733
 21
-72.678650
 31
0.0
  0
LINE
  5
4c9
100
AcDbEntity
  8
text
 62
7
100
AcDbLine
 10
77.210733
 20
-72.678650
 30
0.0
 11
77.211262
 21
-72.679180
 31
0.0
  0
LINE
  5
4ca
100
AcDbEntity
  8
text
 62
7
100
AcDbLine
 10
77.211262
 20
-72.679180
 30
0.0
 11
77.211791
 21
-72.679710
 31
0.0
  0
LINE
  5
4cb
100
AcDbEntity
  8
text
 62
7
100
AcDbLine
 10
77.211791
 20
-72.679710
 30
0.0
 11
77.212320
 21
-72.680240
 31
0.0
  0
LINE
  5
4cc
100
AcDbEntity
  8
text
 62
7
100
AcDbLine
 10
77.212320
 20
-72.680240
 30
0.0
 11
77.567306
 21
-73.427500
 31
0.0
  0
LINE
  5
4cd
100
AcDbEntity
  8
text
 62
7
100
AcDbLine
 10
77.567306
 20
-73.427500
 30
0.0
 11
77.820465
 21
-74.213200
 31
0.0
  0
LINE
  5
4ce
100
AcDbEntity
  8
text
 62
7
100
AcDbLine
 10
77.820465
 20
-74.213200
 30
0.0
 11
77.972124
 21
-75.040510
 31
0.0
  0
LINE
  5
4cf
100
AcDbEntity
  8
text
 62
7
100
AcDbLine
 10
77.972124
 20
-75.040510
 30
0.0
 11
78.022604
 21
-75.912600
 31
0.0
  0
LINE
  5
4d0
100
AcDbEntity
  8
text
 62
7
100
AcDbLine
 10
78.022604
 20
-75.912600
 30
0.0
 11
77.972164
 21
-76.779640
 31
0.0
  0
LINE
  5
4d1
100
AcDbEntity
  8
text
 62
7
100
AcDbLine
 10
77.972164
 20
-76.779640
 30
0.0
 11
77.820563
 21
-77.603850
 31
0.0
  0
LINE
  5
4d2
100
AcDbEntity
  8
text
 62
7
100
AcDbLine
 10
77.820563
 20
-77.603850
 30
0.0
 11
77.567412
 21
-78.388060
 31
0.0
  0
LINE
  5
4d3
100
AcDbEntity
  8
text
 62
7
100
AcDbLine
 10
77.567412
 20
-78.388060
 30
0.0
 11
77.212323
 21
-79.135140
 31
0.0
  0
LINE
  5
4d4
100
AcDbEntity
  8
text
 62
7
100
AcDbLine
 10
77.212323
 20
-79.135140
 30
0.0
 11
76.770456
 21
-79.825680
 31
0.0
  0
LINE
  5
4d5
100
AcDbEntity
  8
text
 62
7
100
AcDbLine
 10
76.770456
 20
-79.825680
 30
0.0
 11
76.258987
 21
-80.435030
 31
0.0
  0
LINE
  5
4d6
100
AcDbEntity
  8
text
 62
7
100
AcDbLine
 10
76.258987
 20
-80.435030
 30
0.0
 11
75.676287
 21
-80.965720
 31
0.0
  0
LINE
  5
4d7
100
AcDbEntity
  8
text
 62
7
100
AcDbLine
 10
75.676287
 20
-80.965720
 30
0.0
 11
75.020726
 21
-81.420270
 31
0.0
  0
LINE
  5
4d8
100
AcDbEntity
  8
text
 62
7
100
AcDbLine
 10
75.020726
 20
-81.420270
 30
0.0
 11
75.020197
 21
-81.420540
 31
0.0
  0
LINE
  5
4d9
100
AcDbEntity
  8
text
 62
7
100
AcDbLine
 10
75.020197
 20
-81.420540
 30
0.0
 11
75.019668
 21
-81.421070
 31
0.0
  0
LINE
  5
4da
100
AcDbEntity
  8
text
 62
7
100
AcDbLine
 10
75.019668
 20
-81.421070
 30
0.0
 11
75.019139
 21
-81.421590
 31
0.0
  0
LINE
  5
4db
100
AcDbEntity
  8
text
 62
7
100
AcDbLine
 10
75.019139
 20
-81.421590
 30
0.0
 11
75.018610
 21
-81.422390
 31
0.0
  0
LINE
  5
4dc
100
AcDbEntity
  8
text
 62
7
100
AcDbLine
 10
75.018610
 20
-81.422390
 30
0.0
 11
74.312733
 21
-81.780580
 31
0.0
  0
LINE
  5
4dd
100
AcDbEntity
  8
text
 62
7
100
AcDbLine
 10
74.312733
 20
-81.780580
 30
0.0
 11
73.574794
 21
-82.035620
 31
0.0
  0
LINE
  5
4de
100
AcDbEntity
  8
text
 62
7
100
AcDbLine
 10
73.574794
 20
-82.035620
 30
0.0
 11
72.801446
 21
-82.188170
 31
0.0
  0
LINE
  5
4df
100
AcDbEntity
  8
text
 62
7
100
AcDbLine
 10
72.801446
 20
-82.188170
 30
0.0
 11
71.989337
 21
-82.238870
 31
0.0
  0
LINE
  5
4e0
100
AcDbEntity
  8
text
 62
7
100
AcDbLine
 10
71.989337
 20
-82.238870
 30
0.0
 11
71.661193
 21
-82.238870
 31
0.0
  0
LINE
  5
4e1
100
AcDbEntity
  8
text
 62
7
100
AcDbLine
 10
71.661193
 20
-82.238870
 30
0.0
 11
71.333046
 21
-82.238870
 31
0.0
  0
LINE
  5
4e2
100
AcDbEntity
  8
text
 62
7
100
AcDbLine
 10
71.333046
 20
-82.238870
 30
0.0
 11
71.004902
 21
-82.238870
 31
0.0
  0
LINE
  5
4e3
100
AcDbEntity
  8
text
 62
7
100
AcDbLine
 10
71.004902
 20
-82.238870
 30
0.0
 11
70.676755
 21
-82.238870
 31
0.0
  0
LINE
  5
4e4
100
AcDbEntity
  8
text
 62
7
100
AcDbLine
 10
70.676755
 20
-82.238870
 30
0.0
 11
70.676755
 21
-79.067480
 31
0.0
  0
LINE
  5
4e5
100
AcDbEntity
  8
text
 62
7
100
AcDbLine
 10
70.676755
 20
-79.067480
 30
0.0
 11
70.676755
 21
-75.896100
 31
0.0
  0
LINE
  5
4e6
100
AcDbEntity
  8
text
 62
7
100
AcDbLine
 10
70.676755
 20
-75.896100
 30
0.0
 11
70.676755
 21
-72.724720
 31
0.0
  0
LINE
  5
4e7
100
AcDbEntity
  8
text
 62
7
100
AcDbLine
 10
70.676755
 20
-72.724720
 30
0.0
 11
70.676752
 21
-69.553230
 31
0.0
  0
LINE
  5
4e8
100
AcDbEntity
  8
layer-1
 62
7
100
AcDbLine
 10
42.406642
 20
17.554960
 30
0.0
 11
-13.912917
 21
17.459360
 31
0.0
  0
LINE
  5
4e9
100
AcDbEntity
  8
layer-1
 62
7
100
AcDbLine
 10
-13.912917
 20
17.459360
 30
0.0
 11
-25.969543
 21
-4.132600
 31
0.0
  0
LINE
  5
4ea
100
AcDbEntity
  8
layer-1
 62
7
100
AcDbLine
 10
-25.969543
 20
-4.132600
 30
0.0
 11
-14.073112
 21
-24.130870
 31
0.0
  0
LINE
  5
4eb
100
AcDbEntity
  8
layer-1
 62
7
100
AcDbLine
 10
-14.073112
 20
-24.130870
 30
0.0
 11
10.304209
 21
-24.023900
 31
0.0
  0
LINE
  5
4ec
100
AcDbEntity
  8
layer-1
 62
7
100
AcDbLine
 10
10.304209
 20
-24.023900
 30
0.0
 11
13.119024
 21
-19.015410
 31
0.0
  0
LINE
  5
4ed
100
AcDbEntity
  8
layer-1
 62
7
100
AcDbLine
 10
13.119024
 20
-19.015410
 30
0.0
 11
10.405494
 21
-19.023410
 31
0.0
  0
LINE
  5
4ee
100
AcDbEntity
  8
layer-1
 62
7
100
AcDbLine
 10
10.405494
 20
-19.023410
 30
0.0
 11
-11.237109
 21
-19.116910
 31
0.0
  0
LINE
  5
4ef
100
AcDbEntity
  8
layer-1
 62
7
100
AcDbLine
 10
-11.237109
 20
-19.116910
 30
0.0
 11
-20.198319
 21
-4.054780
 31
0.0
  0
LINE
  5
4f0
100
AcDbEntity
  8
layer-1
 62
7
100
AcDbLine
 10
-20.198319
 20
-4.054780
 30
0.0
 11
-10.975627
 21
12.464620
 31
0.0
  0
LINE
  5
4f1
100
AcDbEntity
  8
layer-1
 62
7
100
AcDbLine
 10
-10.975627
 20
12.464620
 30
0.0
 11
44.999765
 21
12.558720
 31
0.0
  0
LINE
  5
4f2
100
AcDbEntity
  8
layer-1
 62
7
100
AcDbLine
 10
44.999765
 20
12.558720
 30
0.0
 11
42.406642
 21
17.554960
 31
0.0
  0
LINE
  5
4f3
100
AcDbEntity
  8
layer-2
 62
7
100
AcDbLine
 10
38.471484
 20
25.136410
 30
0.0
 11
-18.756549
 21
24.988620
 31
0.0
  0
LINE
  5
4f4
100
AcDbEntity
  8
layer-2
 62
7
100
AcDbLine
 10
-18.756549
 20
24.988620
 30
0.0
 11
-35.182419
 21
-3.621010
 31
0.0
  0
LINE
  5
4f5
100
AcDbEntity
  8
layer-2
 62
7
100
AcDbLine
 10
-35.182419
 20
-3.621010
 30
0.0
 11
-18.467677
 21
-32.058550
 31
0.0
  0
LINE
  5
4f6
100
AcDbEntity
  8
layer-2
 62
7
100
AcDbLine
 10
-18.467677
 20
-32.058550
 30
0.0
 11
14.622292
 21
-31.892150
 31
0.0
  0
LINE
  5
4f7
100
AcDbEntity
  8
layer-2
 62
7
100
AcDbLine
 10
14.622292
 20
-31.892150
 30
0.0
 11
26.553865
 21
-11.675290
 31
0.0
  0
LINE
  5
4f8
100
AcDbEntity
  8
layer-2
 62
7
100
AcDbLine
 10
26.553865
 20
-11.675290
 30
0.0
 11
-11.580758
 21
-11.876830
 31
0.0
  0
LINE
  5
4f9
100
AcDbEntity
  8
layer-2
 62
7
100
AcDbLine
 10
-11.580758
 20
-11.876830
 30
0.0
 11
-12.986357
 21
-11.884830
 31
0.0
  0
LINE
  5
4fa
100
AcDbEntity
  8
layer-2
 62
7
100
AcDbLine
 10
-12.986357
 20
-11.884830
 30
0.0
 11
-9.965353
 21
-16.868510
 31
0.0
  0
LINE
  5
4fb
100
AcDbEntity
  8
layer-2
 62
7
100
AcDbLine
 10
-9.965353
 20
-16.868510
 30
0.0
 11
17.768870
 21
-16.722780
 31
0.0
  0
LINE
  5
4fc
100
AcDbEntity
  8
layer-2
 62
7
100
AcDbLine
 10
17.768870
 20
-16.722780
 30
0.0
 11
11.758902
 21
-26.906140
 31
0.0
  0
LINE
  5
4fd
100
AcDbEntity
  8
layer-2
 62
7
100
AcDbLine
 10
11.758902
 20
-26.906140
 30
0.0
 11
-15.616172
 21
-27.045150
 31
0.0
  0
LINE
  5
4fe
100
AcDbEntity
  8
layer-2
 62
7
100
AcDbLine
 10
-15.616172
 20
-27.045150
 30
0.0
 11
-29.399310
 21
-3.591800
 31
0.0
  0
LINE
  5
4ff
100
AcDbEntity
  8
layer-2
 62
7
100
AcDbLine
 10
-29.399310
 20
-3.591800
 30
0.0
 11
-15.856467
 21
19.995910
 31
0.0
  0
LINE
  5
500
100
AcDbEntity
  8
layer-2
 62
7
100
AcDbLine
 10
-15.856467
 20
19.995910
 30
0.0
 11
40.960221
 21
20.142670
 31
0.0
  0
LINE
  5
501
100
AcDbEntity
  8
layer-2
 62
7
100
AcDbLine
 10
40.960221
 20
20.142670
 30
0.0
 11
41.063572
 21
20.143200
 31
0.0
  0
LINE
  5
502
100
AcDbEntity
  8
layer-2
 62
7
100
AcDbLine
 10
41.063572
 20
20.143200
 30
0.0
 11
38.471484
 21
25.136410
 31
0.0
  0
LINE
  5
503
100
AcDbEntity
  8
layer-3
 62
7
100
AcDbLine
 10
34.223680
 20
33.320410
 30
0.0
 11
-23.742807
 21
33.134890
 31
0.0
  0
LINE
  5
504
100
AcDbEntity
  8
layer-3
 62
7
100
AcDbLine
 10
-23.742807
 20
33.134890
 30
0.0
 11
-44.797851
 21
-3.667520
 31
0.0
  0
LINE
  5
505
100
AcDbEntity
  8
layer-3
 62
7
100
AcDbLine
 10
-44.797851
 20
-3.667520
 30
0.0
 11
-23.373838
 21
-40.253910
 31
0.0
  0
LINE
  5
506
100
AcDbEntity
  8
layer-3
 62
7
100
AcDbLine
 10
-23.373838
 20
-40.253910
 30
0.0
 11
19.099023
 21
-40.041010
 31
0.0
  0
LINE
  5
507
100
AcDbEntity
  8
layer-3
 62
7
100
AcDbLine
 10
19.099023
 20
-40.041010
 30
0.0
 11
39.391840
 21
-4.325870
 31
0.0
  0
LINE
  5
508
100
AcDbEntity
  8
layer-3
 62
7
100
AcDbLine
 10
39.391840
 20
-4.325870
 30
0.0
 11
-16.350494
 21
-4.579610
 31
0.0
  0
LINE
  5
509
100
AcDbEntity
  8
layer-3
 62
7
100
AcDbLine
 10
-16.350494
 20
-4.579610
 30
0.0
 11
-17.411410
 21
-4.583610
 31
0.0
  0
LINE
  5
50a
100
AcDbEntity
  8
layer-3
 62
7
100
AcDbLine
 10
-17.411410
 20
-4.583610
 30
0.0
 11
-14.388339
 21
-9.570910
 31
0.0
  0
LINE
  5
50b
100
AcDbEntity
  8
layer-3
 62
7
100
AcDbLine
 10
-14.388339
 20
-9.570910
 30
0.0
 11
30.778411
 21
-9.364720
 31
0.0
  0
LINE
  5
50c
100
AcDbEntity
  8
layer-3
 62
7
100
AcDbLine
 10
30.778411
 20
-9.364720
 30
0.0
 11
16.180854
 21
-35.054100
 31
0.0
  0
LINE
  5
50d
100
AcDbEntity
  8
layer-3
 62
7
100
AcDbLine
 10
16.180854
 20
-35.054100
 30
0.0
 11
-20.516647
 21
-35.239620
 31
0.0
  0
LINE
  5
50e
100
AcDbEntity
  8
layer-3
 62
7
100
AcDbLine
 10
-20.516647
 20
-35.239620
 30
0.0
 11
-39.020428
 21
-3.638450
 31
0.0
  0
LINE
  5
50f
100
AcDbEntity
  8
layer-3
 62
7
100
AcDbLine
 10
-39.020428
 20
-3.638450
 30
0.0
 11
-20.838592
 21
28.145140
 31
0.0
  0
LINE
  5
510
100
AcDbEntity
  8
layer-3
 62
7
100
AcDbLine
 10
-20.838592
 20
28.145140
 30
0.0
 11
36.814737
 21
28.329110
 31
0.0
  0
LINE
  5
511
100
AcDbEntity
  8
layer-3
 62
7
100
AcDbLine
 10
36.814737
 20
28.329110
 30
0.0
 11
34.223680
 21
33.320410
 31
0.0
  0
LINE
  5
512
100
AcDbEntity
  8
layer-4
 62
7
100
AcDbLine
 10
30.011535
 20
41.296660
 30
0.0
 11
-28.606076
 21
41.074460
 31
0.0
  0
LINE
  5
513
100
AcDbEntity
  8
layer-4
 62
7
100
AcDbLine
 10
-28.606076
 20
41.074460
 30
0.0
 11
-54.164723
 21
-3.714540
 31
0.0
  0
LINE
  5
514
100
AcDbEntity
  8
layer-4
 62
7
100
AcDbLine
 10
-54.164723
 20
-3.714540
 30
0.0
 11
-28.157007
 21
-48.242050
 31
0.0
  0
LINE
  5
515
100
AcDbEntity
  8
layer-4
 62
7
100
AcDbLine
 10
-28.157007
 20
-48.242050
 30
0.0
 11
23.419171
 21
-47.980060
 31
0.0
  0
LINE
  5
516
100
AcDbEntity
  8
layer-4
 62
7
100
AcDbLine
 10
23.419171
 20
-47.980060
 30
0.0
 11
51.907356
 21
2.623060
 31
0.0
  0
LINE
  5
517
100
AcDbEntity
  8
layer-4
 62
7
100
AcDbLine
 10
51.907356
 20
2.623060
 30
0.0
 11
-14.598662
 21
2.323330
 31
0.0
  0
LINE
  5
518
100
AcDbEntity
  8
layer-4
 62
7
100
AcDbLine
 10
-14.598662
 20
2.323330
 30
0.0
 11
-17.199537
 21
-2.687730
 31
0.0
  0
LINE
  5
519
100
AcDbEntity
  8
layer-4
 62
7
100
AcDbLine
 10
-17.199537
 20
-2.687730
 30
0.0
 11
-16.481236
 21
-2.684730
 31
0.0
  0
LINE
  5
51a
100
AcDbEntity
  8
layer-4
 62
7
100
AcDbLine
 10
-16.481236
 20
-2.684730
 30
0.0
 11
43.331133
 21
-2.415490
 31
0.0
  0
LINE
  5
51b
100
AcDbEntity
  8
layer-4
 62
7
100
AcDbLine
 10
43.331133
 20
-2.415490
 30
0.0
 11
20.487567
 21
-42.995440
 31
0.0
  0
LINE
  5
51c
100
AcDbEntity
  8
layer-4
 62
7
100
AcDbLine
 10
20.487567
 20
-42.995440
 30
0.0
 11
-25.295684
 21
-43.225920
 31
0.0
  0
LINE
  5
51d
100
AcDbEntity
  8
layer-4
 62
7
100
AcDbLine
 10
-25.295684
 20
-43.225920
 30
0.0
 11
-48.391432
 21
-3.684670
 31
0.0
  0
LINE
  5
51e
100
AcDbEntity
  8
layer-4
 62
7
100
AcDbLine
 10
-48.391432
 20
-3.684670
 30
0.0
 11
-25.696176
 21
36.086550
 31
0.0
  0
LINE
  5
51f
100
AcDbEntity
  8
layer-4
 62
7
100
AcDbLine
 10
-25.696176
 20
36.086550
 30
0.0
 11
32.602073
 21
36.307210
 31
0.0
  0
LINE
  5
520
100
AcDbEntity
  8
layer-4
 62
7
100
AcDbLine
 10
32.602073
 20
36.307210
 30
0.0
 11
30.011535
 21
41.296660
 31
0.0
  0
LINE
  5
521
100
AcDbEntity
  8
layer-5
 62
7
100
AcDbLine
 10
46.220362
 20
10.208120
 30
0.0
 11
-10.552397
 21
10.118220
 31
0.0
  0
LINE
  5
522
100
AcDbEntity
  8
layer-5
 62
7
100
AcDbLine
 10
-10.552397
 20
10.118220
 30
0.0
 11
-13.149655
 21
5.114390
 31
0.0
  0
LINE
  5
523
100
AcDbEntity
  8
layer-5
 62
7
100
AcDbLine
 10
-13.149655
 20
5.114390
 30
0.0
 11
48.812969
 21
5.212590
 31
0.0
  0
LINE
  5
524
100
AcDbEntity
  8
layer-5
 62
7
100
AcDbLine
 10
48.812969
 20
5.212590
 30
0.0
 11
46.220362
 21
10.208120
 31
0.0
  0
LINE
  5
525
100
AcDbEntity
  8
layer-6
 62
7
100
AcDbLine
 10
25.676914
 20
49.786070
 30
0.0
 11
-33.549961
 21
49.202640
 31
0.0
  0
LINE
  5
526
100
AcDbEntity
  8
layer-6
 62
7
100
AcDbLine
 10
-33.549961
 20
49.202640
 30
0.0
 11
-63.414805
 21
-3.722290
 31
0.0
  0
LINE
  5
527
100
AcDbEntity
  8
layer-6
 62
7
100
AcDbLine
 10
-63.414805
 20
-3.722290
 30
0.0
 11
-32.513848
 21
-56.048810
 31
0.0
  0
LINE
  5
528
100
AcDbEntity
  8
layer-6
 62
7
100
AcDbLine
 10
-32.513848
 20
-56.048810
 30
0.0
 11
28.251434
 21
-55.450400
 31
0.0
  0
LINE
  5
529
100
AcDbEntity
  8
layer-6
 62
7
100
AcDbLine
 10
28.251434
 20
-55.450400
 30
0.0
 11
55.281825
 21
-7.547900
 31
0.0
  0
LINE
  5
52a
100
AcDbEntity
  8
layer-6
 62
7
100
AcDbLine
 10
55.281825
 20
-7.547900
 30
0.0
 11
53.496404
 21
-0.751410
 31
0.0
  0
LINE
  5
52b
100
AcDbEntity
  8
layer-6
 62
7
100
AcDbLine
 10
53.496404
 20
-0.751410
 30
0.0
 11
25.390627
 21
-50.604700
 31
0.0
  0
LINE
  5
52c
100
AcDbEntity
  8
layer-6
 62
7
100
AcDbLine
 10
25.390627
 20
-50.604700
 30
0.0
 11
-29.749158
 21
-51.147300
 31
0.0
  0
LINE
  5
52d
100
AcDbEntity
  8
layer-6
 62
7
100
AcDbLine
 10
-29.749158
 20
-51.147300
 30
0.0
 11
-57.789308
 21
-3.667000
 31
0.0
  0
LINE
  5
52e
100
AcDbEntity
  8
layer-6
 62
7
100
AcDbLine
 10
-57.789308
 20
-3.667000
 30
0.0
 11
-30.689670
 21
44.356940
 31
0.0
  0
LINE
  5
52f
100
AcDbEntity
  8
layer-6
 62
7
100
AcDbLine
 10
-30.689670
 20
44.356940
 30
0.0
 11
28.243684
 21
44.841670
 31
0.0
  0
LINE
  5
530
100
AcDbEntity
  8
layer-6
 62
7
100
AcDbLine
 10
28.243684
 20
44.841670
 30
0.0
 11
25.676914
 21
49.786070
 31
0.0
  0
ENDSEC
  0
SECTION
  2
OBJECTS
  0
DICTIONARY
  5
C
330
0
100
AcDbDictionary
  3
ACAD_GROUP
350
D
  3
ACAD_MLINESTYLE
350
17
  0
DICTIONARY
  5
D
330
C
100
AcDbDictionary
  0
DICTIONARY
  5
1A
330
C
100
AcDbDictionary
  0
DICTIONARY
  5
17
330
C
100
AcDbDictionary
  3
STANDARD
350
18
  0
DICTIONARY
  5
19
330
C
100
AcDbDictionary
  0
ENDSEC
  0
EOF
