  0
SECTION
  2
HEADER
  9
$ACADVER
  1
AC1014
  9
$HANDSEED
  5
FFFF
  9
$MEASUREMENT
 70
     1
  0
ENDSEC
  0
SECTION
  2
TABLES
  0
TABLE
  2
VPORT
  5
8
330
0
100
AcDbSymbolTable
 70
     4
  0
VPORT
  5
2E
330
8
100
AcDbSymbolTableRecord
100
AcDbViewportTableRecord
  2
*ACTIVE
 70
     0
 10
0.0
 20
0.0
 11
1.0
 21
1.0
 12
210.0
 22
148.5
 13
0.0
 23
0.0
 14
10.0
 24
10.0
 15
10.0
 25
10.0
 16
0.0
 26
0.0
 36
1.0
 17
0.0
 27
0.0
 37
0.0
 40
341.0
 41
1.24
 42
50.0
 43
0.0
 44
0.0
 50
0.0
 51
0.0
 71
     0
 72
   100
 73
     1
 74
     3
 75
     0
 76
     0
 77
     0
 78
     0
  0
ENDTAB
  0
TABLE
  2
LTYPE
  5
5
330
0
100
AcDbSymbolTable
 70
     1
  0
LTYPE
  5
14
330
5
100
AcDbSymbolTableRecord
100
AcDbLinetypeTableRecord
  2
BYBLOCK
 70
     0
  3

 72
    65
 73
     0
 40
0.0
  0
LTYPE
  5
15
330
5
100
AcDbSymbolTableRecord
100
AcDbLinetypeTableRecord
  2
BYLAYER
 70
     0
  3

 72
    65
 73
     0
 40
0.0
  0
LTYPE
  5
16
330
5
100
AcDbSymbolTableRecord
100
AcDbLinetypeTableRecord
  2
CONTINUOUS
 70
     0
  3
Solid line
 72
    65
 73
     0
 40
0.0
  0
ENDTAB
  0
TABLE
  2
LAYER
  5
2
100
AcDbSymbolTable
 70
14
  0
LAYER
  5
50
100
AcDbSymbolTableRecord
100
AcDbLayerTableRecord
  2
0
 70
0
  6
CONTINUOUS
  0
LAYER
  5
51
100
AcDbSymbolTableRecord
100
AcDbLayerTableRecord
  2
text
 70
0
  6
CONTINUOUS
  0
LAYER
  5
52
100
AcDbSymbolTableRecord
100
AcDbLayerTableRecord
  2
g
 70
0
  6
CONTINUOUS
  0
LAYER
  5
53
100
AcDbSymbolTableRecord
100
AcDbLayerTableRecord
  2
n
 70
0
  6
CONTINUOUS
  0
LAYER
  5
54
100
AcDbSymbolTableRecord
100
AcDbLayerTableRecord
  2
i
 70
0
  6
CONTINUOUS
  0
LAYER
  5
55
100
AcDbSymbolTableRecord
100
AcDbLayerTableRecord
  2
l2
 70
0
  6
CONTINUOUS
  0
LAYER
  5
56
100
AcDbSymbolTableRecord
100
AcDbLayerTableRecord
  2
l
 70
0
  6
CONTINUOUS
  0
LAYER
  5
57
100
AcDbSymbolTableRecord
100
AcDbLayerTableRecord
  2
e
 70
0
  6
CONTINUOUS
  0
LAYER
  5
58
100
AcDbSymbolTableRecord
100
AcDbLayerTableRecord
  2
T
 70
0
  6
CONTINUOUS
  0
LAYER
  5
59
100
AcDbSymbolTableRecord
100
AcDbLayerTableRecord
  2
y
 70
0
  6
CONTINUOUS
  0
LAYER
  5
5a
100
AcDbSymbolTableRecord
100
AcDbLayerTableRecord
  2
r
 70
0
  6
CONTINUOUS
  0
LAYER
  5
5b
100
AcDbSymbolTableRecord
100
AcDbLayerTableRecord
  2
o
 70
0
  6
CONTINUOUS
  0
LAYER
  5
5c
100
AcDbSymbolTableRecord
100
AcDbLayerTableRecord
  2
t
 70
0
  6
CONTINUOUS
  0
LAYER
  5
5d
100
AcDbSymbolTableRecord
100
AcDbLayerTableRecord
  2
S
 70
0
  6
CONTINUOUS
  0
ENDTAB
  0
TABLE
  2
STYLE
  5
3
330
0
100
AcDbSymbolTable
 70
     1
  0
STYLE
  5
11
330
3
100
AcDbSymbolTableRecord
100
AcDbTextStyleTableRecord
  2
STANDARD
 70
     0
 40
0.0
 41
1.0
 50
0.0
 71
     0
 42
2.5
  3
txt
  4

  0
ENDTAB
  0
TABLE
  2
VIEW
  5
6
330
0
100
AcDbSymbolTable
 70
     0
  0
ENDTAB
  0
TABLE
  2
UCS
  5
7
330
0
100
AcDbSymbolTable
 70
     0
  0
ENDTAB
  0
TABLE
  2
APPID
  5
9
330
0
100
AcDbSymbolTable
 70
     2
  0
APPID
  5
12
330
9
100
AcDbSymbolTableRecord
100
AcDbRegAppTableRecord
  2
ACAD
 70
     0
  0
ENDTAB
  0
TABLE
  2
DIMSTYLE
  5
A
330
0
100
AcDbSymbolTable
 70
     1
  0
DIMSTYLE
105
27
330
A
100
AcDbSymbolTableRecord
100
AcDbDimStyleTableRecord
  2
ISO-25
 70
     0
  3

  4

  5

  6

  7

 40
1.0
 41
2.5
 42
0.625
 43
3.75
 44
1.25
 45
0.0
 46
0.0
 47
0.0
 48
0.0
140
2.5
141
2.5
142
0.0
143
0.03937007874016
144
1.0
145
0.0
146
1.0
147
0.625
 71
     0
 72
     0
 73
     0
 74
     0
 75
     0
 76
     0
 77
     1
 78
     8
170
     0
171
     3
172
     1
173
     0
174
     0
175
     0
176
     0
177
     0
178
     0
270
     2
271
     2
272
     2
273
     2
274
     3
340
11
275
     0
280
     0
281
     0
282
     0
283
     0
284
     8
285
     0
286
     0
287
     3
288
     0
  0
ENDTAB
  0
TABLE
  2
BLOCK_RECORD
  5
1
330
0
100
AcDbSymbolTable
 70
     1
  0
BLOCK_RECORD
  5
1F
330
1
100
AcDbSymbolTableRecord
100
AcDbBlockTableRecord
  2
*MODEL_SPACE
  0
BLOCK_RECORD
  5
1B
330
1
100
AcDbSymbolTableRecord
100
AcDbBlockTableRecord
  2
*PAPER_SPACE
  0
ENDTAB
  0
ENDSEC
  0
SECTION
  2
BLOCKS
  0
BLOCK
  5
20
330
1F
100
AcDbEntity
  8
0
100
AcDbBlockBegin
  2
*MODEL_SPACE
 70
     0
 10
0.0
 20
0.0
 30
0.0
  3
*MODEL_SPACE
  1

  0
ENDBLK
  5
21
330
1F
100
AcDbEntity
  8
0
100
AcDbBlockEnd
  0
BLOCK
  5
1C
330
1B
100
AcDbEntity
 67
     1
  8
0
100
AcDbBlockBegin
  2
*PAPER_SPACE
  1

  0
ENDBLK
  5
1D
330
1B
100
AcDbEntity
 67
     1
  8
0
100
AcDbBlockEnd
  0
ENDSEC
  0
SECTION
  2
ENTITIES
  0
LINE
  5
100
100
AcDbEntity
  8
text
 62
7
100
AcDbLine
 10
26.562134
 20
-26.469690
 30
0.0
 11
27.666694
 21
-26.469690
 31
0.0
  0
LINE
  5
101
100
AcDbEntity
  8
text
 62
7
100
AcDbLine
 10
27.666694
 20
-26.469690
 30
0.0
 11
29.061522
 21
-29.139440
 31
0.0
  0
LINE
  5
102
100
AcDbEntity
  8
text
 62
7
100
AcDbLine
 10
29.061522
 20
-29.139440
 30
0.0
 11
29.061522
 21
-26.469690
 31
0.0
  0
LINE
  5
103
100
AcDbEntity
  8
text
 62
7
100
AcDbLine
 10
29.061522
 20
-26.469690
 30
0.0
 11
29.999114
 21
-26.469690
 31
0.0
  0
LINE
  5
104
100
AcDbEntity
  8
text
 62
7
100
AcDbLine
 10
29.999114
 20
-26.469690
 30
0.0
 11
29.999114
 21
-30.362200
 31
0.0
  0
LINE
  5
105
100
AcDbEntity
  8
text
 62
7
100
AcDbLine
 10
29.999114
 20
-30.362200
 30
0.0
 11
28.894554
 21
-30.362200
 31
0.0
  0
LINE
  5
106
100
AcDbEntity
  8
text
 62
7
100
AcDbLine
 10
28.894554
 20
-30.362200
 30
0.0
 11
27.499726
 21
-27.692450
 31
0.0
  0
LINE
  5
107
100
AcDbEntity
  8
text
 62
7
100
AcDbLine
 10
27.499726
 20
-27.692450
 30
0.0
 11
27.499726
 21
-30.362200
 31
0.0
  0
LINE
  5
108
100
AcDbEntity
  8
text
 62
7
100
AcDbLine
 10
27.499726
 20
-30.362200
 30
0.0
 11
26.562134
 21
-30.362200
 31
0.0
  0
LINE
  5
109
100
AcDbEntity
  8
text
 62
7
100
AcDbLine
 10
26.562134
 20
-30.362200
 30
0.0
 11
26.562134
 21
-26.469690
 31
0.0
  0
LINE
  5
10a
100
AcDbEntity
  8
text
 62
7
100
AcDbLine
 10
24.599613
 20
-26.469690
 30
0.0
 11
25.588579
 21
-26.469690
 31
0.0
  0
LINE
  5
10b
100
AcDbEntity
  8
text
 62
7
100
AcDbLine
 10
25.588579
 20
-26.469690
 30
0.0
 11
25.588579
 21
-30.362200
 31
0.0
  0
LINE
  5
10c
100
AcDbEntity
  8
text
 62
7
100
AcDbLine
 10
25.588579
 20
-30.362200
 30
0.0
 11
24.599613
 21
-30.362200
 31
0.0
  0
LINE
  5
10d
100
AcDbEntity
  8
text
 62
7
100
AcDbLine
 10
24.599613
 20
-30.362200
 30
0.0
 11
24.599613
 21
-26.469690
 31
0.0
  0
LINE
  5
10e
100
AcDbEntity
  8
text
 62
7
100
AcDbLine
 10
19.174425
 20
-26.469690
 30
0.0
 11
21.843351
 21
-26.469690
 31
0.0
  0
LINE
  5
10f
100
AcDbEntity
  8
text
 62
7
100
AcDbLine
 10
21.843351
 20
-26.469690
 30
0.0
 11
21.843351
 21
-27.228380
 31
0.0
  0
LINE
  5
110
100
AcDbEntity
  8
text
 62
7
100
AcDbLine
 10
21.843351
 20
-27.228380
 30
0.0
 11
20.163391
 21
-27.228380
 31
0.0
  0
LINE
  5
111
100
AcDbEntity
  8
text
 62
7
100
AcDbLine
 10
20.163391
 20
-27.228380
 30
0.0
 11
20.163391
 21
-27.953170
 31
0.0
  0
LINE
  5
112
100
AcDbEntity
  8
text
 62
7
100
AcDbLine
 10
20.163391
 20
-27.953170
 30
0.0
 11
21.743169
 21
-27.953170
 31
0.0
  0
LINE
  5
113
100
AcDbEntity
  8
text
 62
7
100
AcDbLine
 10
21.743169
 20
-27.953170
 30
0.0
 11
21.743169
 21
-28.711860
 31
0.0
  0
LINE
  5
114
100
AcDbEntity
  8
text
 62
7
100
AcDbLine
 10
21.743169
 20
-28.711860
 30
0.0
 11
20.163391
 21
-28.711860
 31
0.0
  0
LINE
  5
115
100
AcDbEntity
  8
text
 62
7
100
AcDbLine
 10
20.163391
 20
-28.711860
 30
0.0
 11
20.163391
 21
-29.603510
 31
0.0
  0
LINE
  5
116
100
AcDbEntity
  8
text
 62
7
100
AcDbLine
 10
20.163391
 20
-29.603510
 30
0.0
 11
21.899864
 21
-29.603510
 31
0.0
  0
LINE
  5
117
100
AcDbEntity
  8
text
 62
7
100
AcDbLine
 10
21.899864
 20
-29.603510
 30
0.0
 11
21.899864
 21
-30.362200
 31
0.0
  0
LINE
  5
118
100
AcDbEntity
  8
text
 62
7
100
AcDbLine
 10
21.899864
 20
-30.362200
 30
0.0
 11
19.174425
 21
-30.362200
 31
0.0
  0
LINE
  5
119
100
AcDbEntity
  8
text
 62
7
100
AcDbLine
 10
19.174425
 20
-30.362200
 30
0.0
 11
19.174425
 21
-26.469690
 31
0.0
  0
LINE
  5
11a
100
AcDbEntity
  8
text
 62
7
100
AcDbLine
 10
13.934184
 20
-26.469690
 30
0.0
 11
15.192868
 21
-26.469690
 31
0.0
  0
LINE
  5
11b
100
AcDbEntity
  8
text
 62
7
100
AcDbLine
 10
15.192868
 20
-26.469690
 30
0.0
 11
16.066242
 21
-28.552830
 31
0.0
  0
LINE
  5
11c
100
AcDbEntity
  8
text
 62
7
100
AcDbLine
 10
16.066242
 20
-28.552830
 30
0.0
 11
16.944753
 21
-26.469690
 31
0.0
  0
LINE
  5
11d
100
AcDbEntity
  8
text
 62
7
100
AcDbLine
 10
16.944753
 20
-26.469690
 30
0.0
 11
18.200869
 21
-26.469690
 31
0.0
  0
LINE
  5
11e
100
AcDbEntity
  8
text
 62
7
100
AcDbLine
 10
18.200869
 20
-26.469690
 30
0.0
 11
18.200869
 21
-30.362200
 31
0.0
  0
LINE
  5
11f
100
AcDbEntity
  8
text
 62
7
100
AcDbLine
 10
18.200869
 20
-30.362200
 30
0.0
 11
17.265846
 21
-30.362200
 31
0.0
  0
LINE
  5
120
100
AcDbEntity
  8
text
 62
7
100
AcDbLine
 10
17.265846
 20
-30.362200
 30
0.0
 11
17.265846
 21
-27.515170
 31
0.0
  0
LINE
  5
121
100
AcDbEntity
  8
text
 62
7
100
AcDbLine
 10
17.265846
 20
-27.515170
 30
0.0
 11
16.382198
 21
-29.613950
 31
0.0
  0
LINE
  5
122
100
AcDbEntity
  8
text
 62
7
100
AcDbLine
 10
16.382198
 20
-29.613950
 30
0.0
 11
15.755424
 21
-29.613950
 31
0.0
  0
LINE
  5
123
100
AcDbEntity
  8
text
 62
7
100
AcDbLine
 10
15.755424
 20
-29.613950
 30
0.0
 11
14.871775
 21
-27.515170
 31
0.0
  0
LINE
  5
124
100
AcDbEntity
  8
text
 62
7
100
AcDbLine
 10
14.871775
 20
-27.515170
 30
0.0
 11
14.871775
 21
-30.362200
 31
0.0
  0
LINE
  5
125
100
AcDbEntity
  8
text
 62
7
100
AcDbLine
 10
14.871775
 20
-30.362200
 30
0.0
 11
13.934184
 21
-30.362200
 31
0.0
  0
LINE
  5
126
100
AcDbEntity
  8
text
 62
7
100
AcDbLine
 10
13.934184
 20
-30.362200
 30
0.0
 11
13.934184
 21
-26.469690
 31
0.0
  0
LINE
  5
127
100
AcDbEntity
  8
text
 62
7
100
AcDbLine
 10
11.216451
 20
-27.126700
 30
0.0
 11
11.003085
 21
-27.147900
 31
0.0
  0
LINE
  5
128
100
AcDbEntity
  8
text
 62
7
100
AcDbLine
 10
11.003085
 20
-27.147900
 30
0.0
 11
10.815085
 21
-27.211500
 31
0.0
  0
LINE
  5
129
100
AcDbEntity
  8
text
 62
7
100
AcDbLine
 10
10.815085
 20
-27.211500
 30
0.0
 11
10.652451
 21
-27.317420
 31
0.0
  0
LINE
  5
12a
100
AcDbEntity
  8
text
 62
7
100
AcDbLine
 10
10.652451
 20
-27.317420
 30
0.0
 11
10.515184
 21
-27.465700
 31
0.0
  0
LINE
  5
12b
100
AcDbEntity
  8
text
 62
7
100
AcDbLine
 10
10.515184
 20
-27.465700
 30
0.0
 11
10.406173
 21
-27.652440
 31
0.0
  0
LINE
  5
12c
100
AcDbEntity
  8
text
 62
7
100
AcDbLine
 10
10.406173
 20
-27.652440
 30
0.0
 11
10.328303
 21
-27.873720
 31
0.0
  0
LINE
  5
12d
100
AcDbEntity
  8
text
 62
7
100
AcDbLine
 10
10.328303
 20
-27.873720
 30
0.0
 11
10.281583
 21
-28.129550
 31
0.0
  0
LINE
  5
12e
100
AcDbEntity
  8
text
 62
7
100
AcDbLine
 10
10.281583
 20
-28.129550
 30
0.0
 11
10.266013
 21
-28.419920
 31
0.0
  0
LINE
  5
12f
100
AcDbEntity
  8
text
 62
7
100
AcDbLine
 10
10.266013
 20
-28.419920
 30
0.0
 11
10.281583
 21
-28.709160
 31
0.0
  0
LINE
  5
130
100
AcDbEntity
  8
text
 62
7
100
AcDbLine
 10
10.281583
 20
-28.709160
 30
0.0
 11
10.328303
 21
-28.964170
 31
0.0
  0
LINE
  5
131
100
AcDbEntity
  8
text
 62
7
100
AcDbLine
 10
10.328303
 20
-28.964170
 30
0.0
 11
10.406173
 21
-29.184970
 31
0.0
  0
LINE
  5
132
100
AcDbEntity
  8
text
 62
7
100
AcDbLine
 10
10.406173
 20
-29.184970
 30
0.0
 11
10.515184
 21
-29.371540
 31
0.0
  0
LINE
  5
133
100
AcDbEntity
  8
text
 62
7
100
AcDbLine
 10
10.515184
 20
-29.371540
 30
0.0
 11
10.652451
 21
-29.519830
 31
0.0
  0
LINE
  5
134
100
AcDbEntity
  8
text
 62
7
100
AcDbLine
 10
10.652451
 20
-29.519830
 30
0.0
 11
10.815085
 21
-29.625750
 31
0.0
  0
LINE
  5
135
100
AcDbEntity
  8
text
 62
7
100
AcDbLine
 10
10.815085
 20
-29.625750
 30
0.0
 11
11.003085
 21
-29.689350
 31
0.0
  0
LINE
  5
136
100
AcDbEntity
  8
text
 62
7
100
AcDbLine
 10
11.003085
 20
-29.689350
 30
0.0
 11
11.216451
 21
-29.710550
 31
0.0
  0
LINE
  5
137
100
AcDbEntity
  8
text
 62
7
100
AcDbLine
 10
11.216451
 20
-29.710550
 30
0.0
 11
11.430941
 21
-29.689350
 31
0.0
  0
LINE
  5
138
100
AcDbEntity
  8
text
 62
7
100
AcDbLine
 10
11.430941
 20
-29.689350
 30
0.0
 11
11.619744
 21
-29.625750
 31
0.0
  0
LINE
  5
139
100
AcDbEntity
  8
text
 62
7
100
AcDbLine
 10
11.619744
 20
-29.625750
 30
0.0
 11
11.782859
 21
-29.519830
 31
0.0
  0
LINE
  5
13a
100
AcDbEntity
  8
text
 62
7
100
AcDbLine
 10
11.782859
 20
-29.519830
 30
0.0
 11
11.920287
 21
-29.371540
 31
0.0
  0
LINE
  5
13b
100
AcDbEntity
  8
text
 62
7
100
AcDbLine
 10
11.920287
 20
-29.371540
 30
0.0
 11
12.029298
 21
-29.184970
 31
0.0
  0
LINE
  5
13c
100
AcDbEntity
  8
text
 62
7
100
AcDbLine
 10
12.029298
 20
-29.184970
 30
0.0
 11
12.107158
 21
-28.964170
 31
0.0
  0
LINE
  5
13d
100
AcDbEntity
  8
text
 62
7
100
AcDbLine
 10
12.107158
 20
-28.964170
 30
0.0
 11
12.153878
 21
-28.709160
 31
0.0
  0
LINE
  5
13e
100
AcDbEntity
  8
text
 62
7
100
AcDbLine
 10
12.153878
 20
-28.709160
 30
0.0
 11
12.169448
 21
-28.419920
 31
0.0
  0
LINE
  5
13f
100
AcDbEntity
  8
text
 62
7
100
AcDbLine
 10
12.169448
 20
-28.419920
 30
0.0
 11
12.153878
 21
-28.129550
 31
0.0
  0
LINE
  5
140
100
AcDbEntity
  8
text
 62
7
100
AcDbLine
 10
12.153878
 20
-28.129550
 30
0.0
 11
12.107158
 21
-27.873720
 31
0.0
  0
LINE
  5
141
100
AcDbEntity
  8
text
 62
7
100
AcDbLine
 10
12.107158
 20
-27.873720
 30
0.0
 11
12.029298
 21
-27.652440
 31
0.0
  0
LINE
  5
142
100
AcDbEntity
  8
text
 62
7
100
AcDbLine
 10
12.029298
 20
-27.652440
 30
0.0
 11
11.920287
 21
-27.465700
 31
0.0
  0
LINE
  5
143
100
AcDbEntity
  8
text
 62
7
100
AcDbLine
 10
11.920287
 20
-27.465700
 30
0.0
 11
11.782859
 21
-27.317420
 31
0.0
  0
LINE
  5
144
100
AcDbEntity
  8
text
 62
7
100
AcDbLine
 10
11.782859
 20
-27.317420
 30
0.0
 11
11.619744
 21
-27.211500
 31
0.0
  0
LINE
  5
145
100
AcDbEntity
  8
text
 62
7
100
AcDbLine
 10
11.619744
 20
-27.211500
 30
0.0
 11
11.430941
 21
-27.147900
 31
0.0
  0
LINE
  5
146
100
AcDbEntity
  8
text
 62
7
100
AcDbLine
 10
11.430941
 20
-27.147900
 30
0.0
 11
11.216451
 21
-27.126700
 31
0.0
  0
LINE
  5
147
100
AcDbEntity
  8
text
 62
7
100
AcDbLine
 10
11.216451
 20
-26.399300
 30
0.0
 11
11.653780
 21
-26.432900
 31
0.0
  0
LINE
  5
148
100
AcDbEntity
  8
text
 62
7
100
AcDbLine
 10
11.653780
 20
-26.432900
 30
0.0
 11
12.041019
 21
-26.533600
 31
0.0
  0
LINE
  5
149
100
AcDbEntity
  8
text
 62
7
100
AcDbLine
 10
12.041019
 20
-26.533600
 30
0.0
 11
12.378166
 21
-26.701430
 31
0.0
  0
LINE
  5
14a
100
AcDbEntity
  8
text
 62
7
100
AcDbLine
 10
12.378166
 20
-26.701430
 30
0.0
 11
12.665223
 21
-26.936400
 31
0.0
  0
LINE
  5
14b
100
AcDbEntity
  8
text
 62
7
100
AcDbLine
 10
12.665223
 20
-26.936400
 30
0.0
 11
12.894484
 21
-27.230520
 31
0.0
  0
LINE
  5
14c
100
AcDbEntity
  8
text
 62
7
100
AcDbLine
 10
12.894484
 20
-27.230520
 30
0.0
 11
13.058241
 21
-27.575810
 31
0.0
  0
LINE
  5
14d
100
AcDbEntity
  8
text
 62
7
100
AcDbLine
 10
13.058241
 20
-27.575810
 30
0.0
 11
13.156491
 21
-27.972260
 31
0.0
  0
LINE
  5
14e
100
AcDbEntity
  8
text
 62
7
100
AcDbLine
 10
13.156491
 20
-27.972260
 30
0.0
 11
13.189241
 21
-28.419880
 31
0.0
  0
LINE
  5
14f
100
AcDbEntity
  8
text
 62
7
100
AcDbLine
 10
13.189241
 20
-28.419880
 30
0.0
 11
13.156491
 21
-28.866360
 31
0.0
  0
LINE
  5
150
100
AcDbEntity
  8
text
 62
7
100
AcDbLine
 10
13.156491
 20
-28.866360
 30
0.0
 11
13.058241
 21
-29.262000
 31
0.0
  0
LINE
  5
151
100
AcDbEntity
  8
text
 62
7
100
AcDbLine
 10
13.058241
 20
-29.262000
 30
0.0
 11
12.894483
 21
-29.606800
 31
0.0
  0
LINE
  5
152
100
AcDbEntity
  8
text
 62
7
100
AcDbLine
 10
12.894483
 20
-29.606800
 30
0.0
 11
12.665223
 21
-29.900760
 31
0.0
  0
LINE
  5
153
100
AcDbEntity
  8
text
 62
7
100
AcDbLine
 10
12.665223
 20
-29.900760
 30
0.0
 11
12.378166
 21
-30.135730
 31
0.0
  0
LINE
  5
154
100
AcDbEntity
  8
text
 62
7
100
AcDbLine
 10
12.378166
 20
-30.135730
 30
0.0
 11
12.041018
 21
-30.303570
 31
0.0
  0
LINE
  5
155
100
AcDbEntity
  8
text
 62
7
100
AcDbLine
 10
12.041018
 20
-30.303570
 30
0.0
 11
11.653780
 21
-30.404270
 31
0.0
  0
LINE
  5
156
100
AcDbEntity
  8
text
 62
7
100
AcDbLine
 10
11.653780
 20
-30.404270
 30
0.0
 11
11.216451
 21
-30.437870
 31
0.0
  0
LINE
  5
157
100
AcDbEntity
  8
text
 62
7
100
AcDbLine
 10
11.216451
 20
-30.437870
 30
0.0
 11
10.780086
 21
-30.404270
 31
0.0
  0
LINE
  5
158
100
AcDbEntity
  8
text
 62
7
100
AcDbLine
 10
10.780086
 20
-30.404270
 30
0.0
 11
10.393168
 21
-30.303570
 31
0.0
  0
LINE
  5
159
100
AcDbEntity
  8
text
 62
7
100
AcDbLine
 10
10.393168
 20
-30.303570
 30
0.0
 11
10.055700
 21
-30.135730
 31
0.0
  0
LINE
  5
15a
100
AcDbEntity
  8
text
 62
7
100
AcDbLine
 10
10.055700
 20
-30.135730
 30
0.0
 11
9.767679
 21
-29.900760
 31
0.0
  0
LINE
  5
15b
100
AcDbEntity
  8
text
 62
7
100
AcDbLine
 10
9.767679
 20
-29.900760
 30
0.0
 11
9.538419
 21
-29.606800
 31
0.0
  0
LINE
  5
15c
100
AcDbEntity
  8
text
 62
7
100
AcDbLine
 10
9.538419
 20
-29.606800
 30
0.0
 11
9.374661
 21
-29.262000
 31
0.0
  0
LINE
  5
15d
100
AcDbEntity
  8
text
 62
7
100
AcDbLine
 10
9.374661
 20
-29.262000
 30
0.0
 11
9.276407
 21
-28.866360
 31
0.0
  0
LINE
  5
15e
100
AcDbEntity
  8
text
 62
7
100
AcDbLine
 10
9.276407
 20
-28.866360
 30
0.0
 11
9.243656
 21
-28.419880
 31
0.0
  0
LINE
  5
15f
100
AcDbEntity
  8
text
 62
7
100
AcDbLine
 10
9.243656
 20
-28.419880
 30
0.0
 11
9.276407
 21
-27.972260
 31
0.0
  0
LINE
  5
160
100
AcDbEntity
  8
text
 62
7
100
AcDbLine
 10
9.276407
 20
-27.972260
 30
0.0
 11
9.374661
 21
-27.575810
 31
0.0
  0
LINE
  5
161
100
AcDbEntity
  8
text
 62
7
100
AcDbLine
 10
9.374661
 20
-27.575810
 30
0.0
 11
9.538419
 21
-27.230520
 31
0.0
  0
LINE
  5
162
100
AcDbEntity
  8
text
 62
7
100
AcDbLine
 10
9.538419
 20
-27.230520
 30
0.0
 11
9.767679
 21
-26.936400
 31
0.0
  0
LINE
  5
163
100
AcDbEntity
  8
text
 62
7
100
AcDbLine
 10
9.767679
 20
-26.936400
 30
0.0
 11
10.055700
 21
-26.701430
 31
0.0
  0
LINE
  5
164
100
AcDbEntity
  8
text
 62
7
100
AcDbLine
 10
10.055700
 20
-26.701430
 30
0.0
 11
10.393168
 21
-26.533600
 31
0.0
  0
LINE
  5
165
100
AcDbEntity
  8
text
 62
7
100
AcDbLine
 10
10.393168
 20
-26.533600
 30
0.0
 11
10.780086
 21
-26.432900
 31
0.0
  0
LINE
  5
166
100
AcDbEntity
  8
text
 62
7
100
AcDbLine
 10
10.780086
 20
-26.432900
 30
0.0
 11
11.216451
 21
-26.399300
 31
0.0
  0
LINE
  5
167
100
AcDbEntity
  8
text
 62
7
100
AcDbLine
 10
8.642571
 20
-30.148410
 30
0.0
 11
8.504983
 21
-30.215710
 31
0.0
  0
LINE
  5
168
100
AcDbEntity
  8
text
 62
7
100
AcDbLine
 10
8.504983
 20
-30.215710
 30
0.0
 11
8.364504
 21
-30.274210
 31
0.0
  0
LINE
  5
169
100
AcDbEntity
  8
text
 62
7
100
AcDbLine
 10
8.364504
 20
-30.274210
 30
0.0
 11
8.221136
 21
-30.323910
 31
0.0
  0
LINE
  5
16a
100
AcDbEntity
  8
text
 62
7
100
AcDbLine
 10
8.221136
 20
-30.323910
 30
0.0
 11
8.074878
 21
-30.364810
 31
0.0
  0
LINE
  5
16b
100
AcDbEntity
  8
text
 62
7
100
AcDbLine
 10
8.074878
 20
-30.364810
 30
0.0
 11
7.925570
 21
-30.396710
 31
0.0
  0
LINE
  5
16c
100
AcDbEntity
  8
text
 62
7
100
AcDbLine
 10
7.925570
 20
-30.396710
 30
0.0
 11
7.773051
 21
-30.419510
 31
0.0
  0
LINE
  5
16d
100
AcDbEntity
  8
text
 62
7
100
AcDbLine
 10
7.773051
 20
-30.419510
 30
0.0
 11
7.617321
 21
-30.433210
 31
0.0
  0
LINE
  5
16e
100
AcDbEntity
  8
text
 62
7
100
AcDbLine
 10
7.617321
 20
-30.433210
 30
0.0
 11
7.458380
 21
-30.438210
 31
0.0
  0
LINE
  5
16f
100
AcDbEntity
  8
text
 62
7
100
AcDbLine
 10
7.458380
 20
-30.438210
 30
0.0
 11
7.004194
 21
-30.404310
 31
0.0
  0
LINE
  5
170
100
AcDbEntity
  8
text
 62
7
100
AcDbLine
 10
7.004194
 20
-30.404310
 30
0.0
 11
6.599777
 21
-30.302630
 31
0.0
  0
LINE
  5
171
100
AcDbEntity
  8
text
 62
7
100
AcDbLine
 10
6.599777
 20
-30.302630
 30
0.0
 11
6.245129
 21
-30.133160
 31
0.0
  0
LINE
  5
172
100
AcDbEntity
  8
text
 62
7
100
AcDbLine
 10
6.245129
 20
-30.133160
 30
0.0
 11
5.940252
 21
-29.895910
 31
0.0
  0
LINE
  5
173
100
AcDbEntity
  8
text
 62
7
100
AcDbLine
 10
5.940252
 20
-29.895910
 30
0.0
 11
5.695257
 21
-29.599340
 31
0.0
  0
LINE
  5
174
100
AcDbEntity
  8
text
 62
7
100
AcDbLine
 10
5.695257
 20
-29.599340
 30
0.0
 11
5.520262
 21
-29.254540
 31
0.0
  0
LINE
  5
175
100
AcDbEntity
  8
text
 62
7
100
AcDbLine
 10
5.520262
 20
-29.254540
 30
0.0
 11
5.415264
 21
-28.861510
 31
0.0
  0
LINE
  5
176
100
AcDbEntity
  8
text
 62
7
100
AcDbLine
 10
5.415264
 20
-28.861510
 30
0.0
 11
5.380265
 21
-28.420240
 31
0.0
  0
LINE
  5
177
100
AcDbEntity
  8
text
 62
7
100
AcDbLine
 10
5.380265
 20
-28.420240
 30
0.0
 11
5.415264
 21
-27.978000
 31
0.0
  0
LINE
  5
178
100
AcDbEntity
  8
text
 62
7
100
AcDbLine
 10
5.415264
 20
-27.978000
 30
0.0
 11
5.520262
 21
-27.584650
 31
0.0
  0
LINE
  5
179
100
AcDbEntity
  8
text
 62
7
100
AcDbLine
 10
5.520262
 20
-27.584650
 30
0.0
 11
5.695257
 21
-27.240180
 31
0.0
  0
LINE
  5
17a
100
AcDbEntity
  8
text
 62
7
100
AcDbLine
 10
5.695257
 20
-27.240180
 30
0.0
 11
5.940252
 21
-26.944590
 31
0.0
  0
LINE
  5
17b
100
AcDbEntity
  8
text
 62
7
100
AcDbLine
 10
5.940252
 20
-26.944590
 30
0.0
 11
6.245129
 21
-26.706200
 31
0.0
  0
LINE
  5
17c
100
AcDbEntity
  8
text
 62
7
100
AcDbLine
 10
6.245129
 20
-26.706200
 30
0.0
 11
6.599777
 21
-26.535920
 31
0.0
  0
LINE
  5
17d
100
AcDbEntity
  8
text
 62
7
100
AcDbLine
 10
6.599777
 20
-26.535920
 30
0.0
 11
7.004194
 21
-26.433750
 31
0.0
  0
LINE
  5
17e
100
AcDbEntity
  8
text
 62
7
100
AcDbLine
 10
7.004194
 20
-26.433750
 30
0.0
 11
7.458380
 21
-26.399650
 31
0.0
  0
LINE
  5
17f
100
AcDbEntity
  8
text
 62
7
100
AcDbLine
 10
7.458380
 20
-26.399650
 30
0.0
 11
7.617321
 21
-26.404650
 31
0.0
  0
LINE
  5
180
100
AcDbEntity
  8
text
 62
7
100
AcDbLine
 10
7.617321
 20
-26.404650
 30
0.0
 11
7.773051
 21
-26.418350
 31
0.0
  0
LINE
  5
181
100
AcDbEntity
  8
text
 62
7
100
AcDbLine
 10
7.773051
 20
-26.418350
 30
0.0
 11
7.925570
 21
-26.441150
 31
0.0
  0
LINE
  5
182
100
AcDbEntity
  8
text
 62
7
100
AcDbLine
 10
7.925570
 20
-26.441150
 30
0.0
 11
8.074878
 21
-26.473050
 31
0.0
  0
LINE
  5
183
100
AcDbEntity
  8
text
 62
7
100
AcDbLine
 10
8.074878
 20
-26.473050
 30
0.0
 11
8.221136
 21
-26.513950
 31
0.0
  0
LINE
  5
184
100
AcDbEntity
  8
text
 62
7
100
AcDbLine
 10
8.221136
 20
-26.513950
 30
0.0
 11
8.364504
 21
-26.563650
 31
0.0
  0
LINE
  5
185
100
AcDbEntity
  8
text
 62
7
100
AcDbLine
 10
8.364504
 20
-26.563650
 30
0.0
 11
8.504983
 21
-26.622150
 31
0.0
  0
LINE
  5
186
100
AcDbEntity
  8
text
 62
7
100
AcDbLine
 10
8.504983
 20
-26.622150
 30
0.0
 11
8.642571
 21
-26.689450
 31
0.0
  0
LINE
  5
187
100
AcDbEntity
  8
text
 62
7
100
AcDbLine
 10
8.642571
 20
-26.689450
 30
0.0
 11
8.642571
 21
-26.890850
 31
0.0
  0
LINE
  5
188
100
AcDbEntity
  8
text
 62
7
100
AcDbLine
 10
8.642571
 20
-26.890850
 30
0.0
 11
8.642571
 21
-27.092260
 31
0.0
  0
LINE
  5
189
100
AcDbEntity
  8
text
 62
7
100
AcDbLine
 10
8.642571
 20
-27.092260
 30
0.0
 11
8.642571
 21
-27.293660
 31
0.0
  0
LINE
  5
18a
100
AcDbEntity
  8
text
 62
7
100
AcDbLine
 10
8.642571
 20
-27.293660
 30
0.0
 11
8.642571
 21
-27.495060
 31
0.0
  0
LINE
  5
18b
100
AcDbEntity
  8
text
 62
7
100
AcDbLine
 10
8.642571
 20
-27.495060
 30
0.0
 11
8.505625
 21
-27.406260
 31
0.0
  0
LINE
  5
18c
100
AcDbEntity
  8
text
 62
7
100
AcDbLine
 10
8.505625
 20
-27.406260
 30
0.0
 11
8.369642
 21
-27.330160
 31
0.0
  0
LINE
  5
18d
100
AcDbEntity
  8
text
 62
7
100
AcDbLine
 10
8.369642
 20
-27.330160
 30
0.0
 11
8.234622
 21
-27.266760
 31
0.0
  0
LINE
  5
18e
100
AcDbEntity
  8
text
 62
7
100
AcDbLine
 10
8.234622
 20
-27.266760
 30
0.0
 11
8.100566
 21
-27.216060
 31
0.0
  0
LINE
  5
18f
100
AcDbEntity
  8
text
 62
7
100
AcDbLine
 10
8.100566
 20
-27.216060
 30
0.0
 11
7.965225
 21
-27.177260
 31
0.0
  0
LINE
  5
190
100
AcDbEntity
  8
text
 62
7
100
AcDbLine
 10
7.965225
 20
-27.177260
 30
0.0
 11
7.826352
 21
-27.149560
 31
0.0
  0
LINE
  5
191
100
AcDbEntity
  8
text
 62
7
100
AcDbLine
 10
7.826352
 20
-27.149560
 30
0.0
 11
7.683948
 21
-27.132960
 31
0.0
  0
LINE
  5
192
100
AcDbEntity
  8
text
 62
7
100
AcDbLine
 10
7.683948
 20
-27.132960
 30
0.0
 11
7.538011
 21
-27.126960
 31
0.0
  0
LINE
  5
193
100
AcDbEntity
  8
text
 62
7
100
AcDbLine
 10
7.538011
 20
-27.126960
 30
0.0
 11
7.287558
 21
-27.148460
 31
0.0
  0
LINE
  5
194
100
AcDbEntity
  8
text
 62
7
100
AcDbLine
 10
7.287558
 20
-27.148460
 30
0.0
 11
7.065362
 21
-27.212960
 31
0.0
  0
LINE
  5
195
100
AcDbEntity
  8
text
 62
7
100
AcDbLine
 10
7.065362
 20
-27.212960
 30
0.0
 11
6.871421
 21
-27.320500
 31
0.0
  0
LINE
  5
196
100
AcDbEntity
  8
text
 62
7
100
AcDbLine
 10
6.871421
 20
-27.320500
 30
0.0
 11
6.705737
 21
-27.471060
 31
0.0
  0
LINE
  5
197
100
AcDbEntity
  8
text
 62
7
100
AcDbLine
 10
6.705737
 20
-27.471060
 30
0.0
 11
6.573126
 21
-27.659430
 31
0.0
  0
LINE
  5
198
100
AcDbEntity
  8
text
 62
7
100
AcDbLine
 10
6.573126
 20
-27.659430
 30
0.0
 11
6.478404
 21
-27.880390
 31
0.0
  0
LINE
  5
199
100
AcDbEntity
  8
text
 62
7
100
AcDbLine
 10
6.478404
 20
-27.880390
 30
0.0
 11
6.421570
 21
-28.133930
 31
0.0
  0
LINE
  5
19a
100
AcDbEntity
  8
text
 62
7
100
AcDbLine
 10
6.421570
 20
-28.133930
 30
0.0
 11
6.402626
 21
-28.420070
 31
0.0
  0
LINE
  5
19b
100
AcDbEntity
  8
text
 62
7
100
AcDbLine
 10
6.402626
 20
-28.420070
 30
0.0
 11
6.421570
 21
-28.705070
 31
0.0
  0
LINE
  5
19c
100
AcDbEntity
  8
text
 62
7
100
AcDbLine
 10
6.421570
 20
-28.705070
 30
0.0
 11
6.478404
 21
-28.957800
 31
0.0
  0
LINE
  5
19d
100
AcDbEntity
  8
text
 62
7
100
AcDbLine
 10
6.478404
 20
-28.957800
 30
0.0
 11
6.573126
 21
-29.178270
 31
0.0
  0
LINE
  5
19e
100
AcDbEntity
  8
text
 62
7
100
AcDbLine
 10
6.573126
 20
-29.178270
 30
0.0
 11
6.705737
 21
-29.366480
 31
0.0
  0
LINE
  5
19f
100
AcDbEntity
  8
text
 62
7
100
AcDbLine
 10
6.705737
 20
-29.366480
 30
0.0
 11
6.871421
 21
-29.517050
 31
0.0
  0
LINE
  5
1a0
100
AcDbEntity
  8
text
 62
7
100
AcDbLine
 10
6.871421
 20
-29.517050
 30
0.0
 11
7.065362
 21
-29.624590
 31
0.0
  0
LINE
  5
1a1
100
AcDbEntity
  8
text
 62
7
100
AcDbLine
 10
7.065362
 20
-29.624590
 30
0.0
 11
7.287558
 21
-29.689090
 31
0.0
  0
LINE
  5
1a2
100
AcDbEntity
  8
text
 62
7
100
AcDbLine
 10
7.287558
 20
-29.689090
 30
0.0
 11
7.538011
 21
-29.710590
 31
0.0
  0
LINE
  5
1a3
100
AcDbEntity
  8
text
 62
7
100
AcDbLine
 10
7.538011
 20
-29.710590
 30
0.0
 11
7.683948
 21
-29.704590
 31
0.0
  0
LINE
  5
1a4
100
AcDbEntity
  8
text
 62
7
100
AcDbLine
 10
7.683948
 20
-29.704590
 30
0.0
 11
7.826352
 21
-29.687990
 31
0.0
  0
LINE
  5
1a5
100
AcDbEntity
  8
text
 62
7
100
AcDbLine
 10
7.826352
 20
-29.687990
 30
0.0
 11
7.965225
 21
-29.660290
 31
0.0
  0
LINE
  5
1a6
100
AcDbEntity
  8
text
 62
7
100
AcDbLine
 10
7.965225
 20
-29.660290
 30
0.0
 11
8.100566
 21
-29.621490
 31
0.0
  0
LINE
  5
1a7
100
AcDbEntity
  8
text
 62
7
100
AcDbLine
 10
8.100566
 20
-29.621490
 30
0.0
 11
8.234622
 21
-29.570790
 31
0.0
  0
LINE
  5
1a8
100
AcDbEntity
  8
text
 62
7
100
AcDbLine
 10
8.234622
 20
-29.570790
 30
0.0
 11
8.369642
 21
-29.507390
 31
0.0
  0
LINE
  5
1a9
100
AcDbEntity
  8
text
 62
7
100
AcDbLine
 10
8.369642
 20
-29.507390
 30
0.0
 11
8.505625
 21
-29.431290
 31
0.0
  0
LINE
  5
1aa
100
AcDbEntity
  8
text
 62
7
100
AcDbLine
 10
8.505625
 20
-29.431290
 30
0.0
 11
8.642571
 21
-29.342490
 31
0.0
  0
LINE
  5
1ab
100
AcDbEntity
  8
text
 62
7
100
AcDbLine
 10
8.642571
 20
-29.342490
 30
0.0
 11
8.642571
 21
-29.543920
 31
0.0
  0
LINE
  5
1ac
100
AcDbEntity
  8
text
 62
7
100
AcDbLine
 10
8.642571
 20
-29.543920
 30
0.0
 11
8.642571
 21
-29.745350
 31
0.0
  0
LINE
  5
1ad
100
AcDbEntity
  8
text
 62
7
100
AcDbLine
 10
8.642571
 20
-29.745350
 30
0.0
 11
8.642571
 21
-29.946780
 31
0.0
  0
LINE
  5
1ae
100
AcDbEntity
  8
text
 62
7
100
AcDbLine
 10
8.642571
 20
-29.946780
 30
0.0
 11
8.642571
 21
-30.148410
 31
0.0
  0
LINE
  5
1af
100
AcDbEntity
  8
text
 62
7
100
AcDbLine
 10
-0.270974
 20
-26.469690
 30
0.0
 11
3.263618
 21
-26.469690
 31
0.0
  0
LINE
  5
1b0
100
AcDbEntity
  8
text
 62
7
100
AcDbLine
 10
3.263618
 20
-26.469690
 30
0.0
 11
3.263618
 21
-27.228380
 31
0.0
  0
LINE
  5
1b1
100
AcDbEntity
  8
text
 62
7
100
AcDbLine
 10
3.263618
 20
-27.228380
 30
0.0
 11
1.992090
 21
-27.228380
 31
0.0
  0
LINE
  5
1b2
100
AcDbEntity
  8
text
 62
7
100
AcDbLine
 10
1.992090
 20
-27.228380
 30
0.0
 11
1.992090
 21
-30.362200
 31
0.0
  0
LINE
  5
1b3
100
AcDbEntity
  8
text
 62
7
100
AcDbLine
 10
1.992090
 20
-30.362200
 30
0.0
 11
1.003123
 21
-30.362200
 31
0.0
  0
LINE
  5
1b4
100
AcDbEntity
  8
text
 62
7
100
AcDbLine
 10
1.003123
 20
-30.362200
 30
0.0
 11
1.003123
 21
-27.228380
 31
0.0
  0
LINE
  5
1b5
100
AcDbEntity
  8
text
 62
7
100
AcDbLine
 10
1.003123
 20
-27.228380
 30
0.0
 11
-0.270974
 21
-27.228380
 31
0.0
  0
LINE
  5
1b6
100
AcDbEntity
  8
text
 62
7
100
AcDbLine
 10
-0.270974
 20
-27.228380
 30
0.0
 11
-0.270974
 21
-26.469690
 31
0.0
  0
LINE
  5
1b7
100
AcDbEntity
  8
text
 62
7
100
AcDbLine
 10
-0.800137
 20
-26.469690
 30
0.0
 11
-0.800137
 21
-27.916670
 31
0.0
  0
LINE
  5
1b8
100
AcDbEntity
  8
text
 62
7
100
AcDbLine
 10
-0.800137
 20
-27.916670
 30
0.0
 11
-1.408929
 21
-27.916670
 31
0.0
  0
LINE
  5
1b9
100
AcDbEntity
  8
text
 62
7
100
AcDbLine
 10
-1.408929
 20
-27.916670
 30
0.0
 11
-1.408929
 21
-26.469690
 31
0.0
  0
LINE
  5
1ba
100
AcDbEntity
  8
text
 62
7
100
AcDbLine
 10
-1.408929
 20
-26.469690
 30
0.0
 11
-0.800137
 21
-26.469690
 31
0.0
  0
LINE
  5
1bb
100
AcDbEntity
  8
text
 62
7
100
AcDbLine
 10
-5.834876
 20
-26.469690
 30
0.0
 11
-4.730316
 21
-26.469690
 31
0.0
  0
LINE
  5
1bc
100
AcDbEntity
  8
text
 62
7
100
AcDbLine
 10
-4.730316
 20
-26.469690
 30
0.0
 11
-3.335487
 21
-29.139440
 31
0.0
  0
LINE
  5
1bd
100
AcDbEntity
  8
text
 62
7
100
AcDbLine
 10
-3.335487
 20
-29.139440
 30
0.0
 11
-3.335487
 21
-26.469690
 31
0.0
  0
LINE
  5
1be
100
AcDbEntity
  8
text
 62
7
100
AcDbLine
 10
-3.335487
 20
-26.469690
 30
0.0
 11
-2.397895
 21
-26.469690
 31
0.0
  0
LINE
  5
1bf
100
AcDbEntity
  8
text
 62
7
100
AcDbLine
 10
-2.397895
 20
-26.469690
 30
0.0
 11
-2.397895
 21
-30.362200
 31
0.0
  0
LINE
  5
1c0
100
AcDbEntity
  8
text
 62
7
100
AcDbLine
 10
-2.397895
 20
-30.362200
 30
0.0
 11
-3.502456
 21
-30.362200
 31
0.0
  0
LINE
  5
1c1
100
AcDbEntity
  8
text
 62
7
100
AcDbLine
 10
-3.502456
 20
-30.362200
 30
0.0
 11
-4.897284
 21
-27.692450
 31
0.0
  0
LINE
  5
1c2
100
AcDbEntity
  8
text
 62
7
100
AcDbLine
 10
-4.897284
 20
-27.692450
 30
0.0
 11
-4.897284
 21
-30.362200
 31
0.0
  0
LINE
  5
1c3
100
AcDbEntity
  8
text
 62
7
100
AcDbLine
 10
-4.897284
 20
-30.362200
 30
0.0
 11
-5.834876
 21
-30.362200
 31
0.0
  0
LINE
  5
1c4
100
AcDbEntity
  8
text
 62
7
100
AcDbLine
 10
-5.834876
 20
-30.362200
 30
0.0
 11
-5.834876
 21
-26.469690
 31
0.0
  0
LINE
  5
1c5
100
AcDbEntity
  8
text
 62
7
100
AcDbLine
 10
-7.576483
 20
-29.653040
 30
0.0
 11
-9.122867
 21
-29.653040
 31
0.0
  0
LINE
  5
1c6
100
AcDbEntity
  8
text
 62
7
100
AcDbLine
 10
-9.122867
 20
-29.653040
 30
0.0
 11
-9.366898
 21
-30.362200
 31
0.0
  0
LINE
  5
1c7
100
AcDbEntity
  8
text
 62
7
100
AcDbLine
 10
-9.366898
 20
-30.362200
 30
0.0
 11
-10.361002
 21
-30.362200
 31
0.0
  0
LINE
  5
1c8
100
AcDbEntity
  8
text
 62
7
100
AcDbLine
 10
-10.361002
 20
-30.362200
 30
0.0
 11
-8.940486
 21
-26.469690
 31
0.0
  0
LINE
  5
1c9
100
AcDbEntity
  8
text
 62
7
100
AcDbLine
 10
-8.940486
 20
-26.469690
 30
0.0
 11
-7.761433
 21
-26.469690
 31
0.0
  0
LINE
  5
1ca
100
AcDbEntity
  8
text
 62
7
100
AcDbLine
 10
-7.761433
 20
-26.469690
 30
0.0
 11
-6.340917
 21
-30.362200
 31
0.0
  0
LINE
  5
1cb
100
AcDbEntity
  8
text
 62
7
100
AcDbLine
 10
-6.340917
 20
-30.362200
 30
0.0
 11
-7.335021
 21
-30.362200
 31
0.0
  0
LINE
  5
1cc
100
AcDbEntity
  8
text
 62
7
100
AcDbLine
 10
-7.335021
 20
-30.362200
 30
0.0
 11
-7.576483
 21
-29.653040
 31
0.0
  0
LINE
  5
1cd
100
AcDbEntity
  8
text
 62
7
100
AcDbLine
 10
-8.876268
 20
-28.930860
 30
0.0
 11
-7.825651
 21
-28.930860
 31
0.0
  0
LINE
  5
1ce
100
AcDbEntity
  8
text
 62
7
100
AcDbLine
 10
-7.825651
 20
-28.930860
 30
0.0
 11
-8.349675
 21
-27.382200
 31
0.0
  0
LINE
  5
1cf
100
AcDbEntity
  8
text
 62
7
100
AcDbLine
 10
-8.349675
 20
-27.382200
 30
0.0
 11
-8.876268
 21
-28.930860
 31
0.0
  0
LINE
  5
1d0
100
AcDbEntity
  8
text
 62
7
100
AcDbLine
 10
-10.725766
 20
-30.148410
 30
0.0
 11
-10.863354
 21
-30.215710
 31
0.0
  0
LINE
  5
1d1
100
AcDbEntity
  8
text
 62
7
100
AcDbLine
 10
-10.863354
 20
-30.215710
 30
0.0
 11
-11.003833
 21
-30.274210
 31
0.0
  0
LINE
  5
1d2
100
AcDbEntity
  8
text
 62
7
100
AcDbLine
 10
-11.003833
 20
-30.274210
 30
0.0
 11
-11.147200
 21
-30.323910
 31
0.0
  0
LINE
  5
1d3
100
AcDbEntity
  8
text
 62
7
100
AcDbLine
 10
-11.147200
 20
-30.323910
 30
0.0
 11
-11.293458
 21
-30.364810
 31
0.0
  0
LINE
  5
1d4
100
AcDbEntity
  8
text
 62
7
100
AcDbLine
 10
-11.293458
 20
-30.364810
 30
0.0
 11
-11.442766
 21
-30.396710
 31
0.0
  0
LINE
  5
1d5
100
AcDbEntity
  8
text
 62
7
100
AcDbLine
 10
-11.442766
 20
-30.396710
 30
0.0
 11
-11.595286
 21
-30.419510
 31
0.0
  0
LINE
  5
1d6
100
AcDbEntity
  8
text
 62
7
100
AcDbLine
 10
-11.595286
 20
-30.419510
 30
0.0
 11
-11.751016
 21
-30.433210
 31
0.0
  0
LINE
  5
1d7
100
AcDbEntity
  8
text
 62
7
100
AcDbLine
 10
-11.751016
 20
-30.433210
 30
0.0
 11
-11.909957
 21
-30.438210
 31
0.0
  0
LINE
  5
1d8
100
AcDbEntity
  8
text
 62
7
100
AcDbLine
 10
-11.909957
 20
-30.438210
 30
0.0
 11
-12.364143
 21
-30.404310
 31
0.0
  0
LINE
  5
1d9
100
AcDbEntity
  8
text
 62
7
100
AcDbLine
 10
-12.364143
 20
-30.404310
 30
0.0
 11
-12.768559
 21
-30.302630
 31
0.0
  0
LINE
  5
1da
100
AcDbEntity
  8
text
 62
7
100
AcDbLine
 10
-12.768559
 20
-30.302630
 30
0.0
 11
-13.123207
 21
-30.133160
 31
0.0
  0
LINE
  5
1db
100
AcDbEntity
  8
text
 62
7
100
AcDbLine
 10
-13.123207
 20
-30.133160
 30
0.0
 11
-13.428085
 21
-29.895910
 31
0.0
  0
LINE
  5
1dc
100
AcDbEntity
  8
text
 62
7
100
AcDbLine
 10
-13.428085
 20
-29.895910
 30
0.0
 11
-13.673079
 21
-29.599340
 31
0.0
  0
LINE
  5
1dd
100
AcDbEntity
  8
text
 62
7
100
AcDbLine
 10
-13.673079
 20
-29.599340
 30
0.0
 11
-13.848074
 21
-29.254540
 31
0.0
  0
LINE
  5
1de
100
AcDbEntity
  8
text
 62
7
100
AcDbLine
 10
-13.848074
 20
-29.254540
 30
0.0
 11
-13.953072
 21
-28.861510
 31
0.0
  0
LINE
  5
1df
100
AcDbEntity
  8
text
 62
7
100
AcDbLine
 10
-13.953072
 20
-28.861510
 30
0.0
 11
-13.988072
 21
-28.420240
 31
0.0
  0
LINE
  5
1e0
100
AcDbEntity
  8
text
 62
7
100
AcDbLine
 10
-13.988072
 20
-28.420240
 30
0.0
 11
-13.953072
 21
-27.978000
 31
0.0
  0
LINE
  5
1e1
100
AcDbEntity
  8
text
 62
7
100
AcDbLine
 10
-13.953072
 20
-27.978000
 30
0.0
 11
-13.848074
 21
-27.584650
 31
0.0
  0
LINE
  5
1e2
100
AcDbEntity
  8
text
 62
7
100
AcDbLine
 10
-13.848074
 20
-27.584650
 30
0.0
 11
-13.673079
 21
-27.240180
 31
0.0
  0
LINE
  5
1e3
100
AcDbEntity
  8
text
 62
7
100
AcDbLine
 10
-13.673079
 20
-27.240180
 30
0.0
 11
-13.428085
 21
-26.944590
 31
0.0
  0
LINE
  5
1e4
100
AcDbEntity
  8
text
 62
7
100
AcDbLine
 10
-13.428085
 20
-26.944590
 30
0.0
 11
-13.123207
 21
-26.706200
 31
0.0
  0
LINE
  5
1e5
100
AcDbEntity
  8
text
 62
7
100
AcDbLine
 10
-13.123207
 20
-26.706200
 30
0.0
 11
-12.768559
 21
-26.535920
 31
0.0
  0
LINE
  5
1e6
100
AcDbEntity
  8
text
 62
7
100
AcDbLine
 10
-12.768559
 20
-26.535920
 30
0.0
 11
-12.364143
 21
-26.433750
 31
0.0
  0
LINE
  5
1e7
100
AcDbEntity
  8
text
 62
7
100
AcDbLine
 10
-12.364143
 20
-26.433750
 30
0.0
 11
-11.909957
 21
-26.399650
 31
0.0
  0
LINE
  5
1e8
100
AcDbEntity
  8
text
 62
7
100
AcDbLine
 10
-11.909957
 20
-26.399650
 30
0.0
 11
-11.751016
 21
-26.404650
 31
0.0
  0
LINE
  5
1e9
100
AcDbEntity
  8
text
 62
7
100
AcDbLine
 10
-11.751016
 20
-26.404650
 30
0.0
 11
-11.595286
 21
-26.418350
 31
0.0
  0
LINE
  5
1ea
100
AcDbEntity
  8
text
 62
7
100
AcDbLine
 10
-11.595286
 20
-26.418350
 30
0.0
 11
-11.442766
 21
-26.441150
 31
0.0
  0
LINE
  5
1eb
100
AcDbEntity
  8
text
 62
7
100
AcDbLine
 10
-11.442766
 20
-26.441150
 30
0.0
 11
-11.293458
 21
-26.473050
 31
0.0
  0
LINE
  5
1ec
100
AcDbEntity
  8
text
 62
7
100
AcDbLine
 10
-11.293458
 20
-26.473050
 30
0.0
 11
-11.147200
 21
-26.513950
 31
0.0
  0
LINE
  5
1ed
100
AcDbEntity
  8
text
 62
7
100
AcDbLine
 10
-11.147200
 20
-26.513950
 30
0.0
 11
-11.003832
 21
-26.563650
 31
0.0
  0
LINE
  5
1ee
100
AcDbEntity
  8
text
 62
7
100
AcDbLine
 10
-11.003832
 20
-26.563650
 30
0.0
 11
-10.863354
 21
-26.622150
 31
0.0
  0
LINE
  5
1ef
100
AcDbEntity
  8
text
 62
7
100
AcDbLine
 10
-10.863354
 20
-26.622150
 30
0.0
 11
-10.725766
 21
-26.689450
 31
0.0
  0
LINE
  5
1f0
100
AcDbEntity
  8
text
 62
7
100
AcDbLine
 10
-10.725766
 20
-26.689450
 30
0.0
 11
-10.725766
 21
-26.890850
 31
0.0
  0
LINE
  5
1f1
100
AcDbEntity
  8
text
 62
7
100
AcDbLine
 10
-10.725766
 20
-26.890850
 30
0.0
 11
-10.725766
 21
-27.092260
 31
0.0
  0
LINE
  5
1f2
100
AcDbEntity
  8
text
 62
7
100
AcDbLine
 10
-10.725766
 20
-27.092260
 30
0.0
 11
-10.725766
 21
-27.293660
 31
0.0
  0
LINE
  5
1f3
100
AcDbEntity
  8
text
 62
7
100
AcDbLine
 10
-10.725766
 20
-27.293660
 30
0.0
 11
-10.725766
 21
-27.495060
 31
0.0
  0
LINE
  5
1f4
100
AcDbEntity
  8
text
 62
7
100
AcDbLine
 10
-10.725766
 20
-27.495060
 30
0.0
 11
-10.862712
 21
-27.406260
 31
0.0
  0
LINE
  5
1f5
100
AcDbEntity
  8
text
 62
7
100
AcDbLine
 10
-10.862712
 20
-27.406260
 30
0.0
 11
-10.998695
 21
-27.330160
 31
0.0
  0
LINE
  5
1f6
100
AcDbEntity
  8
text
 62
7
100
AcDbLine
 10
-10.998695
 20
-27.330160
 30
0.0
 11
-11.133715
 21
-27.266760
 31
0.0
  0
LINE
  5
1f7
100
AcDbEntity
  8
text
 62
7
100
AcDbLine
 10
-11.133715
 20
-27.266760
 30
0.0
 11
-11.267771
 21
-27.216060
 31
0.0
  0
LINE
  5
1f8
100
AcDbEntity
  8
text
 62
7
100
AcDbLine
 10
-11.267771
 20
-27.216060
 30
0.0
 11
-11.403112
 21
-27.177260
 31
0.0
  0
LINE
  5
1f9
100
AcDbEntity
  8
text
 62
7
100
AcDbLine
 10
-11.403112
 20
-27.177260
 30
0.0
 11
-11.541985
 21
-27.149560
 31
0.0
  0
LINE
  5
1fa
100
AcDbEntity
  8
text
 62
7
100
AcDbLine
 10
-11.541985
 20
-27.149560
 30
0.0
 11
-11.684389
 21
-27.132960
 31
0.0
  0
LINE
  5
1fb
100
AcDbEntity
  8
text
 62
7
100
AcDbLine
 10
-11.684389
 20
-27.132960
 30
0.0
 11
-11.830326
 21
-27.126960
 31
0.0
  0
LINE
  5
1fc
100
AcDbEntity
  8
text
 62
7
100
AcDbLine
 10
-11.830326
 20
-27.126960
 30
0.0
 11
-12.080779
 21
-27.148460
 31
0.0
  0
LINE
  5
1fd
100
AcDbEntity
  8
text
 62
7
100
AcDbLine
 10
-12.080779
 20
-27.148460
 30
0.0
 11
-12.302975
 21
-27.212960
 31
0.0
  0
LINE
  5
1fe
100
AcDbEntity
  8
text
 62
7
100
AcDbLine
 10
-12.302975
 20
-27.212960
 30
0.0
 11
-12.496915
 21
-27.320500
 31
0.0
  0
LINE
  5
1ff
100
AcDbEntity
  8
text
 62
7
100
AcDbLine
 10
-12.496915
 20
-27.320500
 30
0.0
 11
-12.662599
 21
-27.471060
 31
0.0
  0
LINE
  5
200
100
AcDbEntity
  8
text
 62
7
100
AcDbLine
 10
-12.662599
 20
-27.471060
 30
0.0
 11
-12.795210
 21
-27.659430
 31
0.0
  0
LINE
  5
201
100
AcDbEntity
  8
text
 62
7
100
AcDbLine
 10
-12.795210
 20
-27.659430
 30
0.0
 11
-12.889930
 21
-27.880390
 31
0.0
  0
LINE
  5
202
100
AcDbEntity
  8
text
 62
7
100
AcDbLine
 10
-12.889930
 20
-27.880390
 30
0.0
 11
-12.946760
 21
-28.133930
 31
0.0
  0
LINE
  5
203
100
AcDbEntity
  8
text
 62
7
100
AcDbLine
 10
-12.946760
 20
-28.133930
 30
0.0
 11
-12.965700
 21
-28.420070
 31
0.0
  0
LINE
  5
204
100
AcDbEntity
  8
text
 62
7
100
AcDbLine
 10
-12.965700
 20
-28.420070
 30
0.0
 11
-12.946760
 21
-28.705070
 31
0.0
  0
LINE
  5
205
100
AcDbEntity
  8
text
 62
7
100
AcDbLine
 10
-12.946760
 20
-28.705070
 30
0.0
 11
-12.889930
 21
-28.957800
 31
0.0
  0
LINE
  5
206
100
AcDbEntity
  8
text
 62
7
100
AcDbLine
 10
-12.889930
 20
-28.957800
 30
0.0
 11
-12.795210
 21
-29.178270
 31
0.0
  0
LINE
  5
207
100
AcDbEntity
  8
text
 62
7
100
AcDbLine
 10
-12.795210
 20
-29.178270
 30
0.0
 11
-12.662599
 21
-29.366480
 31
0.0
  0
LINE
  5
208
100
AcDbEntity
  8
text
 62
7
100
AcDbLine
 10
-12.662599
 20
-29.366480
 30
0.0
 11
-12.496915
 21
-29.517050
 31
0.0
  0
LINE
  5
209
100
AcDbEntity
  8
text
 62
7
100
AcDbLine
 10
-12.496915
 20
-29.517050
 30
0.0
 11
-12.302975
 21
-29.624590
 31
0.0
  0
LINE
  5
20a
100
AcDbEntity
  8
text
 62
7
100
AcDbLine
 10
-12.302975
 20
-29.624590
 30
0.0
 11
-12.080779
 21
-29.689090
 31
0.0
  0
LINE
  5
20b
100
AcDbEntity
  8
text
 62
7
100
AcDbLine
 10
-12.080779
 20
-29.689090
 30
0.0
 11
-11.830326
 21
-29.710590
 31
0.0
  0
LINE
  5
20c
100
AcDbEntity
  8
text
 62
7
100
AcDbLine
 10
-11.830326
 20
-29.710590
 30
0.0
 11
-11.684389
 21
-29.704590
 31
0.0
  0
LINE
  5
20d
100
AcDbEntity
  8
text
 62
7
100
AcDbLine
 10
-11.684389
 20
-29.704590
 30
0.0
 11
-11.541985
 21
-29.687990
 31
0.0
  0
LINE
  5
20e
100
AcDbEntity
  8
text
 62
7
100
AcDbLine
 10
-11.541985
 20
-29.687990
 30
0.0
 11
-11.403112
 21
-29.660290
 31
0.0
  0
LINE
  5
20f
100
AcDbEntity
  8
text
 62
7
100
AcDbLine
 10
-11.403112
 20
-29.660290
 30
0.0
 11
-11.267771
 21
-29.621490
 31
0.0
  0
LINE
  5
210
100
AcDbEntity
  8
text
 62
7
100
AcDbLine
 10
-11.267771
 20
-29.621490
 30
0.0
 11
-11.133715
 21
-29.570790
 31
0.0
  0
LINE
  5
211
100
AcDbEntity
  8
text
 62
7
100
AcDbLine
 10
-11.133715
 20
-29.570790
 30
0.0
 11
-10.998695
 21
-29.507390
 31
0.0
  0
LINE
  5
212
100
AcDbEntity
  8
text
 62
7
100
AcDbLine
 10
-10.998695
 20
-29.507390
 30
0.0
 11
-10.862712
 21
-29.431290
 31
0.0
  0
LINE
  5
213
100
AcDbEntity
  8
text
 62
7
100
AcDbLine
 10
-10.862712
 20
-29.431290
 30
0.0
 11
-10.725766
 21
-29.342490
 31
0.0
  0
LINE
  5
214
100
AcDbEntity
  8
text
 62
7
100
AcDbLine
 10
-10.725766
 20
-29.342490
 30
0.0
 11
-10.725766
 21
-29.543920
 31
0.0
  0
LINE
  5
215
100
AcDbEntity
  8
text
 62
7
100
AcDbLine
 10
-10.725766
 20
-29.543920
 30
0.0
 11
-10.725766
 21
-29.745350
 31
0.0
  0
LINE
  5
216
100
AcDbEntity
  8
text
 62
7
100
AcDbLine
 10
-10.725766
 20
-29.745350
 30
0.0
 11
-10.725766
 21
-29.946780
 31
0.0
  0
LINE
  5
217
100
AcDbEntity
  8
text
 62
7
100
AcDbLine
 10
-10.725766
 20
-29.946780
 30
0.0
 11
-10.725766
 21
-30.148410
 31
0.0
  0
LINE
  5
218
100
AcDbEntity
  8
text
 62
7
100
AcDbLine
 10
-17.558625
 20
-26.469690
 30
0.0
 11
-16.569659
 21
-26.469690
 31
0.0
  0
LINE
  5
219
100
AcDbEntity
  8
text
 62
7
100
AcDbLine
 10
-16.569659
 20
-26.469690
 30
0.0
 11
-16.569659
 21
-30.362200
 31
0.0
  0
LINE
  5
21a
100
AcDbEntity
  8
text
 62
7
100
AcDbLine
 10
-16.569659
 20
-30.362200
 30
0.0
 11
-17.558625
 21
-30.362200
 31
0.0
  0
LINE
  5
21b
100
AcDbEntity
  8
text
 62
7
100
AcDbLine
 10
-17.558625
 20
-30.362200
 30
0.0
 11
-17.558625
 21
-26.469690
 31
0.0
  0
LINE
  5
21c
100
AcDbEntity
  8
text
 62
7
100
AcDbLine
 10
-23.795537
 20
-26.469690
 30
0.0
 11
-22.690978
 21
-26.469690
 31
0.0
  0
LINE
  5
21d
100
AcDbEntity
  8
text
 62
7
100
AcDbLine
 10
-22.690978
 20
-26.469690
 30
0.0
 11
-21.296149
 21
-29.139440
 31
0.0
  0
LINE
  5
21e
100
AcDbEntity
  8
text
 62
7
100
AcDbLine
 10
-21.296149
 20
-29.139440
 30
0.0
 11
-21.296149
 21
-26.469690
 31
0.0
  0
LINE
  5
21f
100
AcDbEntity
  8
text
 62
7
100
AcDbLine
 10
-21.296149
 20
-26.469690
 30
0.0
 11
-20.358557
 21
-26.469690
 31
0.0
  0
LINE
  5
220
100
AcDbEntity
  8
text
 62
7
100
AcDbLine
 10
-20.358557
 20
-26.469690
 30
0.0
 11
-20.358557
 21
-30.362200
 31
0.0
  0
LINE
  5
221
100
AcDbEntity
  8
text
 62
7
100
AcDbLine
 10
-20.358557
 20
-30.362200
 30
0.0
 11
-21.463117
 21
-30.362200
 31
0.0
  0
LINE
  5
222
100
AcDbEntity
  8
text
 62
7
100
AcDbLine
 10
-21.463117
 20
-30.362200
 30
0.0
 11
-22.857946
 21
-27.692450
 31
0.0
  0
LINE
  5
223
100
AcDbEntity
  8
text
 62
7
100
AcDbLine
 10
-22.857946
 20
-27.692450
 30
0.0
 11
-22.857946
 21
-30.362200
 31
0.0
  0
LINE
  5
224
100
AcDbEntity
  8
text
 62
7
100
AcDbLine
 10
-22.857946
 20
-30.362200
 30
0.0
 11
-23.795537
 21
-30.362200
 31
0.0
  0
LINE
  5
225
100
AcDbEntity
  8
text
 62
7
100
AcDbLine
 10
-23.795537
 20
-30.362200
 30
0.0
 11
-23.795537
 21
-26.469690
 31
0.0
  0
LINE
  5
226
100
AcDbEntity
  8
text
 62
7
100
AcDbLine
 10
-27.391780
 20
-26.469690
 30
0.0
 11
-24.722855
 21
-26.469690
 31
0.0
  0
LINE
  5
227
100
AcDbEntity
  8
text
 62
7
100
AcDbLine
 10
-24.722855
 20
-26.469690
 30
0.0
 11
-24.722855
 21
-27.228380
 31
0.0
  0
LINE
  5
228
100
AcDbEntity
  8
text
 62
7
100
AcDbLine
 10
-24.722855
 20
-27.228380
 30
0.0
 11
-26.402814
 21
-27.228380
 31
0.0
  0
LINE
  5
229
100
AcDbEntity
  8
text
 62
7
100
AcDbLine
 10
-26.402814
 20
-27.228380
 30
0.0
 11
-26.402814
 21
-27.953170
 31
0.0
  0
LINE
  5
22a
100
AcDbEntity
  8
text
 62
7
100
AcDbLine
 10
-26.402814
 20
-27.953170
 30
0.0
 11
-24.823035
 21
-27.953170
 31
0.0
  0
LINE
  5
22b
100
AcDbEntity
  8
text
 62
7
100
AcDbLine
 10
-24.823035
 20
-27.953170
 30
0.0
 11
-24.823035
 21
-28.711860
 31
0.0
  0
LINE
  5
22c
100
AcDbEntity
  8
text
 62
7
100
AcDbLine
 10
-24.823035
 20
-28.711860
 30
0.0
 11
-26.402814
 21
-28.711860
 31
0.0
  0
LINE
  5
22d
100
AcDbEntity
  8
text
 62
7
100
AcDbLine
 10
-26.402814
 20
-28.711860
 30
0.0
 11
-26.402814
 21
-29.603510
 31
0.0
  0
LINE
  5
22e
100
AcDbEntity
  8
text
 62
7
100
AcDbLine
 10
-26.402814
 20
-29.603510
 30
0.0
 11
-24.666342
 21
-29.603510
 31
0.0
  0
LINE
  5
22f
100
AcDbEntity
  8
text
 62
7
100
AcDbLine
 10
-24.666342
 20
-29.603510
 30
0.0
 11
-24.666342
 21
-30.362200
 31
0.0
  0
LINE
  5
230
100
AcDbEntity
  8
text
 62
7
100
AcDbLine
 10
-24.666342
 20
-30.362200
 30
0.0
 11
-27.391780
 21
-30.362200
 31
0.0
  0
LINE
  5
231
100
AcDbEntity
  8
text
 62
7
100
AcDbLine
 10
-27.391780
 20
-30.362200
 30
0.0
 11
-27.391780
 21
-26.469690
 31
0.0
  0
LINE
  5
232
100
AcDbEntity
  8
text
 62
7
100
AcDbLine
 10
-31.799746
 20
-26.469690
 30
0.0
 11
-30.810779
 21
-26.469690
 31
0.0
  0
LINE
  5
233
100
AcDbEntity
  8
text
 62
7
100
AcDbLine
 10
-30.810779
 20
-26.469690
 30
0.0
 11
-30.810779
 21
-27.953170
 31
0.0
  0
LINE
  5
234
100
AcDbEntity
  8
text
 62
7
100
AcDbLine
 10
-30.810779
 20
-27.953170
 30
0.0
 11
-29.351733
 21
-27.953170
 31
0.0
  0
LINE
  5
235
100
AcDbEntity
  8
text
 62
7
100
AcDbLine
 10
-29.351733
 20
-27.953170
 30
0.0
 11
-29.351733
 21
-26.469690
 31
0.0
  0
LINE
  5
236
100
AcDbEntity
  8
text
 62
7
100
AcDbLine
 10
-29.351733
 20
-26.469690
 30
0.0
 11
-28.362766
 21
-26.469690
 31
0.0
  0
LINE
  5
237
100
AcDbEntity
  8
text
 62
7
100
AcDbLine
 10
-28.362766
 20
-26.469690
 30
0.0
 11
-28.362766
 21
-30.362200
 31
0.0
  0
LINE
  5
238
100
AcDbEntity
  8
text
 62
7
100
AcDbLine
 10
-28.362766
 20
-30.362200
 30
0.0
 11
-29.351733
 21
-30.362200
 31
0.0
  0
LINE
  5
239
100
AcDbEntity
  8
text
 62
7
100
AcDbLine
 10
-29.351733
 20
-30.362200
 30
0.0
 11
-29.351733
 21
-28.711860
 31
0.0
  0
LINE
  5
23a
100
AcDbEntity
  8
text
 62
7
100
AcDbLine
 10
-29.351733
 20
-28.711860
 30
0.0
 11
-30.810779
 21
-28.711860
 31
0.0
  0
LINE
  5
23b
100
AcDbEntity
  8
text
 62
7
100
AcDbLine
 10
-30.810779
 20
-28.711860
 30
0.0
 11
-30.810779
 21
-30.362200
 31
0.0
  0
LINE
  5
23c
100
AcDbEntity
  8
text
 62
7
100
AcDbLine
 10
-30.810779
 20
-30.362200
 30
0.0
 11
-31.799746
 21
-30.362200
 31
0.0
  0
LINE
  5
23d
100
AcDbEntity
  8
text
 62
7
100
AcDbLine
 10
-31.799746
 20
-30.362200
 30
0.0
 11
-31.799746
 21
-26.469690
 31
0.0
  0
LINE
  5
23e
100
AcDbEntity
  8
text
 62
7
100
AcDbLine
 10
-37.931339
 20
-26.469690
 30
0.0
 11
-36.983473
 21
-26.469690
 31
0.0
  0
LINE
  5
23f
100
AcDbEntity
  8
text
 62
7
100
AcDbLine
 10
-36.983473
 20
-26.469690
 30
0.0
 11
-36.320736
 21
-29.298470
 31
0.0
  0
LINE
  5
240
100
AcDbEntity
  8
text
 62
7
100
AcDbLine
 10
-36.320736
 20
-29.298470
 30
0.0
 11
-35.663138
 21
-26.469690
 31
0.0
  0
LINE
  5
241
100
AcDbEntity
  8
text
 62
7
100
AcDbLine
 10
-35.663138
 20
-26.469690
 30
0.0
 11
-34.710134
 21
-26.469690
 31
0.0
  0
LINE
  5
242
100
AcDbEntity
  8
text
 62
7
100
AcDbLine
 10
-34.710134
 20
-26.469690
 30
0.0
 11
-34.052535
 21
-29.298470
 31
0.0
  0
LINE
  5
243
100
AcDbEntity
  8
text
 62
7
100
AcDbLine
 10
-34.052535
 20
-29.298470
 30
0.0
 11
-33.389799
 21
-26.469690
 31
0.0
  0
LINE
  5
244
100
AcDbEntity
  8
text
 62
7
100
AcDbLine
 10
-33.389799
 20
-26.469690
 30
0.0
 11
-32.449638
 21
-26.469690
 31
0.0
  0
LINE
  5
245
100
AcDbEntity
  8
text
 62
7
100
AcDbLine
 10
-32.449638
 20
-26.469690
 30
0.0
 11
-33.353837
 21
-30.362200
 31
0.0
  0
LINE
  5
246
100
AcDbEntity
  8
text
 62
7
100
AcDbLine
 10
-33.353837
 20
-30.362200
 30
0.0
 11
-34.494359
 21
-30.362200
 31
0.0
  0
LINE
  5
247
100
AcDbEntity
  8
text
 62
7
100
AcDbLine
 10
-34.494359
 20
-30.362200
 30
0.0
 11
-35.190489
 21
-27.403060
 31
0.0
  0
LINE
  5
248
100
AcDbEntity
  8
text
 62
7
100
AcDbLine
 10
-35.190489
 20
-27.403060
 30
0.0
 11
-35.878913
 21
-30.362200
 31
0.0
  0
LINE
  5
249
100
AcDbEntity
  8
text
 62
7
100
AcDbLine
 10
-35.878913
 20
-30.362200
 30
0.0
 11
-37.019435
 21
-30.362200
 31
0.0
  0
LINE
  5
24a
100
AcDbEntity
  8
text
 62
7
100
AcDbLine
 10
-37.019435
 20
-30.362200
 30
0.0
 11
-37.931339
 21
-26.469690
 31
0.0
  0
LINE
  5
24b
100
AcDbEntity
  8
g
 62
7
100
AcDbLine
 10
46.903294
 20
-29.982170
 30
0.0
 11
47.752410
 21
-29.535680
 31
0.0
  0
LINE
  5
24c
100
AcDbEntity
  8
g
 62
7
100
AcDbLine
 10
47.752410
 20
-29.535680
 30
0.0
 11
48.631987
 21
-29.000240
 31
0.0
  0
LINE
  5
24d
100
AcDbEntity
  8
g
 62
7
100
AcDbLine
 10
48.631987
 20
-29.000240
 30
0.0
 11
49.438206
 21
-28.443120
 31
0.0
  0
LINE
  5
24e
100
AcDbEntity
  8
g
 62
7
100
AcDbLine
 10
49.438206
 20
-28.443120
 30
0.0
 11
50.067250
 21
-27.931610
 31
0.0
  0
LINE
  5
24f
100
AcDbEntity
  8
g
 62
7
100
AcDbLine
 10
50.067250
 20
-27.931610
 30
0.0
 11
51.794078
 21
-25.948420
 31
0.0
  0
LINE
  5
250
100
AcDbEntity
  8
g
 62
7
100
AcDbLine
 10
51.794078
 20
-25.948420
 30
0.0
 11
52.795893
 21
-23.418750
 31
0.0
  0
LINE
  5
251
100
AcDbEntity
  8
g
 62
7
100
AcDbLine
 10
52.795893
 20
-23.418750
 30
0.0
 11
53.259785
 21
-19.522360
 31
0.0
  0
LINE
  5
252
100
AcDbEntity
  8
g
 62
7
100
AcDbLine
 10
53.259785
 20
-19.522360
 30
0.0
 11
53.372841
 21
-13.438990
 31
0.0
  0
LINE
  5
253
100
AcDbEntity
  8
g
 62
7
100
AcDbLine
 10
53.372841
 20
-13.438990
 30
0.0
 11
53.391051
 21
-10.422670
 31
0.0
  0
LINE
  5
254
100
AcDbEntity
  8
g
 62
7
100
AcDbLine
 10
53.391051
 20
-10.422670
 30
0.0
 11
53.444081
 21
-8.150590
 31
0.0
  0
LINE
  5
255
100
AcDbEntity
  8
g
 62
7
100
AcDbLine
 10
53.444081
 20
-8.150590
 30
0.0
 11
53.529511
 21
-6.687800
 31
0.0
  0
LINE
  5
256
100
AcDbEntity
  8
g
 62
7
100
AcDbLine
 10
53.529511
 20
-6.687800
 30
0.0
 11
53.644936
 21
-6.099330
 31
0.0
  0
LINE
  5
257
100
AcDbEntity
  8
g
 62
7
100
AcDbLine
 10
53.644936
 20
-6.099330
 30
0.0
 11
53.194065
 21
-5.425460
 31
0.0
  0
LINE
  5
258
100
AcDbEntity
  8
g
 62
7
100
AcDbLine
 10
53.194065
 20
-5.425460
 30
0.0
 11
51.645301
 21
-4.269410
 31
0.0
  0
LINE
  5
259
100
AcDbEntity
  8
g
 62
7
100
AcDbLine
 10
51.645301
 20
-4.269410
 30
0.0
 11
49.601339
 21
-3.032590
 31
0.0
  0
LINE
  5
25a
100
AcDbEntity
  8
g
 62
7
100
AcDbLine
 10
49.601339
 20
-3.032590
 30
0.0
 11
47.664868
 21
-2.116410
 31
0.0
  0
LINE
  5
25b
100
AcDbEntity
  8
g
 62
7
100
AcDbLine
 10
47.664868
 20
-2.116410
 30
0.0
 11
46.686726
 21
-1.799520
 31
0.0
  0
LINE
  5
25c
100
AcDbEntity
  8
g
 62
7
100
AcDbLine
 10
46.686726
 20
-1.799520
 30
0.0
 11
45.672112
 21
-1.565680
 31
0.0
  0
LINE
  5
25d
100
AcDbEntity
  8
g
 62
7
100
AcDbLine
 10
45.672112
 20
-1.565680
 30
0.0
 11
44.565831
 21
-1.404620
 31
0.0
  0
LINE
  5
25e
100
AcDbEntity
  8
g
 62
7
100
AcDbLine
 10
44.565831
 20
-1.404620
 30
0.0
 11
43.312689
 21
-1.306020
 31
0.0
  0
LINE
  5
25f
100
AcDbEntity
  8
g
 62
7
100
AcDbLine
 10
43.312689
 20
-1.306020
 30
0.0
 11
41.895812
 21
-1.254420
 31
0.0
  0
LINE
  5
260
100
AcDbEntity
  8
g
 62
7
100
AcDbLine
 10
41.895812
 20
-1.254420
 30
0.0
 11
40.898896
 21
-1.309420
 31
0.0
  0
LINE
  5
261
100
AcDbEntity
  8
g
 62
7
100
AcDbLine
 10
40.898896
 20
-1.309420
 30
0.0
 11
40.017471
 21
-1.512920
 31
0.0
  0
LINE
  5
262
100
AcDbEntity
  8
g
 62
7
100
AcDbLine
 10
40.017471
 20
-1.512920
 30
0.0
 11
38.947064
 21
-1.906810
 31
0.0
  0
LINE
  5
263
100
AcDbEntity
  8
g
 62
7
100
AcDbLine
 10
38.947064
 20
-1.906810
 30
0.0
 11
36.677842
 21
-3.023090
 31
0.0
  0
LINE
  5
264
100
AcDbEntity
  8
g
 62
7
100
AcDbLine
 10
36.677842
 20
-3.023090
 30
0.0
 11
34.743902
 21
-4.415720
 31
0.0
  0
LINE
  5
265
100
AcDbEntity
  8
g
 62
7
100
AcDbLine
 10
34.743902
 20
-4.415720
 30
0.0
 11
33.209699
 21
-6.028810
 31
0.0
  0
LINE
  5
266
100
AcDbEntity
  8
g
 62
7
100
AcDbLine
 10
33.209699
 20
-6.028810
 30
0.0
 11
32.139684
 21
-7.806530
 31
0.0
  0
LINE
  5
267
100
AcDbEntity
  8
g
 62
7
100
AcDbLine
 10
32.139684
 20
-7.806530
 30
0.0
 11
31.569295
 21
-9.966120
 31
0.0
  0
LINE
  5
268
100
AcDbEntity
  8
g
 62
7
100
AcDbLine
 10
31.569295
 20
-9.966120
 30
0.0
 11
31.501635
 21
-12.503410
 31
0.0
  0
LINE
  5
269
100
AcDbEntity
  8
g
 62
7
100
AcDbLine
 10
31.501635
 20
-12.503410
 30
0.0
 11
31.916109
 21
-15.112810
 31
0.0
  0
LINE
  5
26a
100
AcDbEntity
  8
g
 62
7
100
AcDbLine
 10
31.916109
 20
-15.112810
 30
0.0
 11
32.792127
 21
-17.488710
 31
0.0
  0
LINE
  5
26b
100
AcDbEntity
  8
g
 62
7
100
AcDbLine
 10
32.792127
 20
-17.488710
 30
0.0
 11
33.642774
 21
-18.775950
 31
0.0
  0
LINE
  5
26c
100
AcDbEntity
  8
g
 62
7
100
AcDbLine
 10
33.642774
 20
-18.775950
 30
0.0
 11
34.787836
 21
-19.936710
 31
0.0
  0
LINE
  5
26d
100
AcDbEntity
  8
g
 62
7
100
AcDbLine
 10
34.787836
 20
-19.936710
 30
0.0
 11
36.148583
 21
-20.904130
 31
0.0
  0
LINE
  5
26e
100
AcDbEntity
  8
g
 62
7
100
AcDbLine
 10
36.148583
 20
-20.904130
 30
0.0
 11
37.646286
 21
-21.611340
 31
0.0
  0
LINE
  5
26f
100
AcDbEntity
  8
g
 62
7
100
AcDbLine
 10
37.646286
 20
-21.611340
 30
0.0
 11
39.682704
 21
-22.128660
 31
0.0
  0
LINE
  5
270
100
AcDbEntity
  8
g
 62
7
100
AcDbLine
 10
39.682704
 20
-22.128660
 30
0.0
 11
41.832054
 21
-22.313560
 31
0.0
  0
LINE
  5
271
100
AcDbEntity
  8
g
 62
7
100
AcDbLine
 10
41.832054
 20
-22.313560
 30
0.0
 11
43.840131
 21
-22.163870
 31
0.0
  0
LINE
  5
272
100
AcDbEntity
  8
g
 62
7
100
AcDbLine
 10
43.840131
 20
-22.163870
 30
0.0
 11
45.452730
 21
-21.677440
 31
0.0
  0
LINE
  5
273
100
AcDbEntity
  8
g
 62
7
100
AcDbLine
 10
45.452730
 20
-21.677440
 30
0.0
 11
46.331701
 21
-21.277770
 31
0.0
  0
LINE
  5
274
100
AcDbEntity
  8
g
 62
7
100
AcDbLine
 10
46.331701
 20
-21.277770
 30
0.0
 11
46.896566
 21
-21.112590
 31
0.0
  0
LINE
  5
275
100
AcDbEntity
  8
g
 62
7
100
AcDbLine
 10
46.896566
 20
-21.112590
 30
0.0
 11
47.198187
 21
-21.175890
 31
0.0
  0
LINE
  5
276
100
AcDbEntity
  8
g
 62
7
100
AcDbLine
 10
47.198187
 20
-21.175890
 30
0.0
 11
47.287427
 21
-21.461750
 31
0.0
  0
LINE
  5
277
100
AcDbEntity
  8
g
 62
7
100
AcDbLine
 10
47.287427
 20
-21.461750
 30
0.0
 11
47.013783
 21
-22.552520
 31
0.0
  0
LINE
  5
278
100
AcDbEntity
  8
g
 62
7
100
AcDbLine
 10
47.013783
 20
-22.552520
 30
0.0
 11
46.295945
 21
-23.715390
 31
0.0
  0
LINE
  5
279
100
AcDbEntity
  8
g
 62
7
100
AcDbLine
 10
46.295945
 20
-23.715390
 30
0.0
 11
45.288557
 21
-24.753110
 31
0.0
  0
LINE
  5
27a
100
AcDbEntity
  8
g
 62
7
100
AcDbLine
 10
45.288557
 20
-24.753110
 30
0.0
 11
44.146262
 21
-25.468410
 31
0.0
  0
LINE
  5
27b
100
AcDbEntity
  8
g
 62
7
100
AcDbLine
 10
44.146262
 20
-25.468410
 30
0.0
 11
42.494087
 21
-25.824180
 31
0.0
  0
LINE
  5
27c
100
AcDbEntity
  8
g
 62
7
100
AcDbLine
 10
42.494087
 20
-25.824180
 30
0.0
 11
40.438297
 21
-25.769980
 31
0.0
  0
LINE
  5
27d
100
AcDbEntity
  8
g
 62
7
100
AcDbLine
 10
40.438297
 20
-25.769980
 30
0.0
 11
38.262828
 21
-25.338400
 31
0.0
  0
LINE
  5
27e
100
AcDbEntity
  8
g
 62
7
100
AcDbLine
 10
38.262828
 20
-25.338400
 30
0.0
 11
36.251614
 21
-24.562040
 31
0.0
  0
LINE
  5
27f
100
AcDbEntity
  8
g
 62
7
100
AcDbLine
 10
36.251614
 20
-24.562040
 30
0.0
 11
35.807822
 21
-24.340900
 31
0.0
  0
LINE
  5
280
100
AcDbEntity
  8
g
 62
7
100
AcDbLine
 10
35.807822
 20
-24.340900
 30
0.0
 11
35.422937
 21
-24.159820
 31
0.0
  0
LINE
  5
281
100
AcDbEntity
  8
g
 62
7
100
AcDbLine
 10
35.422937
 20
-24.159820
 30
0.0
 11
35.138198
 21
-24.037460
 31
0.0
  0
LINE
  5
282
100
AcDbEntity
  8
g
 62
7
100
AcDbLine
 10
35.138198
 20
-24.037460
 30
0.0
 11
34.994843
 21
-23.992560
 31
0.0
  0
LINE
  5
283
100
AcDbEntity
  8
g
 62
7
100
AcDbLine
 10
34.994843
 20
-23.992560
 30
0.0
 11
34.939383
 21
-24.253530
 31
0.0
  0
LINE
  5
284
100
AcDbEntity
  8
g
 62
7
100
AcDbLine
 10
34.939383
 20
-24.253530
 30
0.0
 11
34.893963
 21
-24.964080
 31
0.0
  0
LINE
  5
285
100
AcDbEntity
  8
g
 62
7
100
AcDbLine
 10
34.893963
 20
-24.964080
 30
0.0
 11
34.863273
 21
-26.015690
 31
0.0
  0
LINE
  5
286
100
AcDbEntity
  8
g
 62
7
100
AcDbLine
 10
34.863273
 20
-26.015690
 30
0.0
 11
34.852003
 21
-27.299850
 31
0.0
  0
LINE
  5
287
100
AcDbEntity
  8
g
 62
7
100
AcDbLine
 10
34.852003
 20
-27.299850
 30
0.0
 11
34.852003
 21
-28.126670
 31
0.0
  0
LINE
  5
288
100
AcDbEntity
  8
g
 62
7
100
AcDbLine
 10
34.852003
 20
-28.126670
 30
0.0
 11
34.852003
 21
-28.953500
 31
0.0
  0
LINE
  5
289
100
AcDbEntity
  8
g
 62
7
100
AcDbLine
 10
34.852003
 20
-28.953500
 30
0.0
 11
34.852003
 21
-29.780320
 31
0.0
  0
LINE
  5
28a
100
AcDbEntity
  8
g
 62
7
100
AcDbLine
 10
34.852003
 20
-29.780320
 30
0.0
 11
34.852003
 21
-30.607140
 31
0.0
  0
LINE
  5
28b
100
AcDbEntity
  8
g
 62
7
100
AcDbLine
 10
34.852003
 20
-30.607140
 30
0.0
 11
35.199269
 21
-30.613140
 31
0.0
  0
LINE
  5
28c
100
AcDbEntity
  8
g
 62
7
100
AcDbLine
 10
35.199269
 20
-30.613140
 30
0.0
 11
35.546534
 21
-30.619140
 31
0.0
  0
LINE
  5
28d
100
AcDbEntity
  8
g
 62
7
100
AcDbLine
 10
35.546534
 20
-30.619140
 30
0.0
 11
35.893800
 21
-30.625140
 31
0.0
  0
LINE
  5
28e
100
AcDbEntity
  8
g
 62
7
100
AcDbLine
 10
35.893800
 20
-30.625140
 30
0.0
 11
36.241066
 21
-30.631140
 31
0.0
  0
LINE
  5
28f
100
AcDbEntity
  8
g
 62
7
100
AcDbLine
 10
36.241066
 20
-30.631140
 30
0.0
 11
36.884799
 21
-30.657840
 31
0.0
  0
LINE
  5
290
100
AcDbEntity
  8
g
 62
7
100
AcDbLine
 10
36.884799
 20
-30.657840
 30
0.0
 11
37.610698
 21
-30.713240
 31
0.0
  0
LINE
  5
291
100
AcDbEntity
  8
g
 62
7
100
AcDbLine
 10
37.610698
 20
-30.713240
 30
0.0
 11
38.329776
 21
-30.789240
 31
0.0
  0
LINE
  5
292
100
AcDbEntity
  8
g
 62
7
100
AcDbLine
 10
38.329776
 20
-30.789240
 30
0.0
 11
38.953045
 21
-30.877840
 31
0.0
  0
LINE
  5
293
100
AcDbEntity
  8
g
 62
7
100
AcDbLine
 10
38.953045
 20
-30.877840
 30
0.0
 11
39.651731
 21
-30.956740
 31
0.0
  0
LINE
  5
294
100
AcDbEntity
  8
g
 62
7
100
AcDbLine
 10
39.651731
 20
-30.956740
 30
0.0
 11
40.576151
 21
-31.006540
 31
0.0
  0
LINE
  5
295
100
AcDbEntity
  8
g
 62
7
100
AcDbLine
 10
40.576151
 20
-31.006540
 30
0.0
 11
41.605957
 21
-31.023040
 31
0.0
  0
LINE
  5
296
100
AcDbEntity
  8
g
 62
7
100
AcDbLine
 10
41.605957
 20
-31.023040
 30
0.0
 11
42.620800
 21
-31.002240
 31
0.0
  0
LINE
  5
297
100
AcDbEntity
  8
g
 62
7
100
AcDbLine
 10
42.620800
 20
-31.002240
 30
0.0
 11
43.904597
 21
-30.918140
 31
0.0
  0
LINE
  5
298
100
AcDbEntity
  8
g
 62
7
100
AcDbLine
 10
43.904597
 20
-30.918140
 30
0.0
 11
44.892991
 21
-30.756690
 31
0.0
  0
LINE
  5
299
100
AcDbEntity
  8
g
 62
7
100
AcDbLine
 10
44.892991
 20
-30.756690
 30
0.0
 11
45.815912
 21
-30.463210
 31
0.0
  0
LINE
  5
29a
100
AcDbEntity
  8
g
 62
7
100
AcDbLine
 10
45.815912
 20
-30.463210
 30
0.0
 11
46.903290
 21
-29.982990
 31
0.0
  0
LINE
  5
29b
100
AcDbEntity
  8
g
 62
7
100
AcDbLine
 10
46.903290
 20
-29.982990
 30
0.0
 11
46.903290
 21
-29.983000
 31
0.0
  0
LINE
  5
29c
100
AcDbEntity
  8
g
 62
7
100
AcDbLine
 10
46.903290
 20
-29.983000
 30
0.0
 11
46.903290
 21
-29.983000
 31
0.0
  0
LINE
  5
29d
100
AcDbEntity
  8
g
 62
7
100
AcDbLine
 10
46.903290
 20
-29.983000
 30
0.0
 11
46.903290
 21
-29.983010
 31
0.0
  0
LINE
  5
29e
100
AcDbEntity
  8
g
 62
7
100
AcDbLine
 10
46.903290
 20
-29.983010
 30
0.0
 11
46.903294
 21
-29.982170
 31
0.0
  0
LINE
  5
29f
100
AcDbEntity
  8
g
 62
7
100
AcDbLine
 10
40.541139
 20
-16.432100
 30
0.0
 11
39.735960
 21
-15.950470
 31
0.0
  0
LINE
  5
2a0
100
AcDbEntity
  8
g
 62
7
100
AcDbLine
 10
39.735960
 20
-15.950470
 30
0.0
 11
39.120346
 21
-15.412650
 31
0.0
  0
LINE
  5
2a1
100
AcDbEntity
  8
g
 62
7
100
AcDbLine
 10
39.120346
 20
-15.412650
 30
0.0
 11
38.610939
 21
-14.728090
 31
0.0
  0
LINE
  5
2a2
100
AcDbEntity
  8
g
 62
7
100
AcDbLine
 10
38.610939
 20
-14.728090
 30
0.0
 11
38.124382
 21
-13.806220
 31
0.0
  0
LINE
  5
2a3
100
AcDbEntity
  8
g
 62
7
100
AcDbLine
 10
38.124382
 20
-13.806220
 30
0.0
 11
37.664478
 21
-12.515390
 31
0.0
  0
LINE
  5
2a4
100
AcDbEntity
  8
g
 62
7
100
AcDbLine
 10
37.664478
 20
-12.515390
 30
0.0
 11
37.506069
 21
-11.276850
 31
0.0
  0
LINE
  5
2a5
100
AcDbEntity
  8
g
 62
7
100
AcDbLine
 10
37.506069
 20
-11.276850
 30
0.0
 11
37.649478
 21
-10.141900
 31
0.0
  0
LINE
  5
2a6
100
AcDbEntity
  8
g
 62
7
100
AcDbLine
 10
37.649478
 20
-10.141900
 30
0.0
 11
38.095032
 21
-9.161850
 31
0.0
  0
LINE
  5
2a7
100
AcDbEntity
  8
g
 62
7
100
AcDbLine
 10
38.095032
 20
-9.161850
 30
0.0
 11
39.855580
 21
-7.638410
 31
0.0
  0
LINE
  5
2a8
100
AcDbEntity
  8
g
 62
7
100
AcDbLine
 10
39.855580
 20
-7.638410
 30
0.0
 11
42.243217
 21
-6.869820
 31
0.0
  0
LINE
  5
2a9
100
AcDbEntity
  8
g
 62
7
100
AcDbLine
 10
42.243217
 20
-6.869820
 30
0.0
 11
44.706032
 21
-6.936020
 31
0.0
  0
LINE
  5
2aa
100
AcDbEntity
  8
g
 62
7
100
AcDbLine
 10
44.706032
 20
-6.936020
 30
0.0
 11
46.692114
 21
-7.916880
 31
0.0
  0
LINE
  5
2ab
100
AcDbEntity
  8
g
 62
7
100
AcDbLine
 10
46.692114
 20
-7.916880
 30
0.0
 11
47.019988
 21
-8.306980
 31
0.0
  0
LINE
  5
2ac
100
AcDbEntity
  8
g
 62
7
100
AcDbLine
 10
47.019988
 20
-8.306980
 30
0.0
 11
47.198532
 21
-8.891870
 31
0.0
  0
LINE
  5
2ad
100
AcDbEntity
  8
g
 62
7
100
AcDbLine
 10
47.198532
 20
-8.891870
 30
0.0
 11
47.272692
 21
-9.966800
 31
0.0
  0
LINE
  5
2ae
100
AcDbEntity
  8
g
 62
7
100
AcDbLine
 10
47.272692
 20
-9.966800
 30
0.0
 11
47.287422
 21
-11.827000
 31
0.0
  0
LINE
  5
2af
100
AcDbEntity
  8
g
 62
7
100
AcDbLine
 10
47.287422
 20
-11.827000
 30
0.0
 11
47.251282
 21
-14.009880
 31
0.0
  0
LINE
  5
2b0
100
AcDbEntity
  8
g
 62
7
100
AcDbLine
 10
47.251282
 20
-14.009880
 30
0.0
 11
47.031104
 21
-15.237930
 31
0.0
  0
LINE
  5
2b1
100
AcDbEntity
  8
g
 62
7
100
AcDbLine
 10
47.031104
 20
-15.237930
 30
0.0
 11
46.459229
 21
-15.914270
 31
0.0
  0
LINE
  5
2b2
100
AcDbEntity
  8
g
 62
7
100
AcDbLine
 10
46.459229
 20
-15.914270
 30
0.0
 11
45.368003
 21
-16.442000
 31
0.0
  0
LINE
  5
2b3
100
AcDbEntity
  8
g
 62
7
100
AcDbLine
 10
45.368003
 20
-16.442000
 30
0.0
 11
44.224935
 21
-16.737670
 31
0.0
  0
LINE
  5
2b4
100
AcDbEntity
  8
g
 62
7
100
AcDbLine
 10
44.224935
 20
-16.737670
 30
0.0
 11
42.863917
 21
-16.834170
 31
0.0
  0
LINE
  5
2b5
100
AcDbEntity
  8
g
 62
7
100
AcDbLine
 10
42.863917
 20
-16.834170
 30
0.0
 11
41.548224
 21
-16.732100
 31
0.0
  0
LINE
  5
2b6
100
AcDbEntity
  8
g
 62
7
100
AcDbLine
 10
41.548224
 20
-16.732100
 30
0.0
 11
40.541133
 21
-16.431960
 31
0.0
  0
LINE
  5
2b7
100
AcDbEntity
  8
g
 62
7
100
AcDbLine
 10
40.541133
 20
-16.431960
 30
0.0
 11
40.541132
 21
-16.432000
 31
0.0
  0
LINE
  5
2b8
100
AcDbEntity
  8
g
 62
7
100
AcDbLine
 10
40.541132
 20
-16.432000
 30
0.0
 11
40.541131
 21
-16.432030
 31
0.0
  0
LINE
  5
2b9
100
AcDbEntity
  8
g
 62
7
100
AcDbLine
 10
40.541131
 20
-16.432030
 30
0.0
 11
40.541131
 21
-16.432070
 31
0.0
  0
LINE
  5
2ba
100
AcDbEntity
  8
g
 62
7
100
AcDbLine
 10
40.541131
 20
-16.432070
 30
0.0
 11
40.541139
 21
-16.432100
 31
0.0
  0
LINE
  5
2bb
100
AcDbEntity
  8
n
 62
7
100
AcDbLine
 10
16.722858
 20
-21.412990
 30
0.0
 11
16.506316
 21
-18.875860
 31
0.0
  0
LINE
  5
2bc
100
AcDbEntity
  8
n
 62
7
100
AcDbLine
 10
16.506316
 20
-18.875860
 30
0.0
 11
16.401458
 21
-14.511810
 31
0.0
  0
LINE
  5
2bd
100
AcDbEntity
  8
n
 62
7
100
AcDbLine
 10
16.401458
 20
-14.511810
 30
0.0
 11
16.426418
 21
-10.272850
 31
0.0
  0
LINE
  5
2be
100
AcDbEntity
  8
n
 62
7
100
AcDbLine
 10
16.426418
 20
-10.272850
 30
0.0
 11
16.599319
 21
-8.111030
 31
0.0
  0
LINE
  5
2bf
100
AcDbEntity
  8
n
 62
7
100
AcDbLine
 10
16.599319
 20
-8.111030
 30
0.0
 11
17.084190
 21
-7.579140
 31
0.0
  0
LINE
  5
2c0
100
AcDbEntity
  8
n
 62
7
100
AcDbLine
 10
17.084190
 20
-7.579140
 30
0.0
 11
17.867209
 21
-7.162920
 31
0.0
  0
LINE
  5
2c1
100
AcDbEntity
  8
n
 62
7
100
AcDbLine
 10
17.867209
 20
-7.162920
 30
0.0
 11
18.872121
 21
-6.891690
 31
0.0
  0
LINE
  5
2c2
100
AcDbEntity
  8
n
 62
7
100
AcDbLine
 10
18.872121
 20
-6.891690
 30
0.0
 11
20.022670
 21
-6.794790
 31
0.0
  0
LINE
  5
2c3
100
AcDbEntity
  8
n
 62
7
100
AcDbLine
 10
20.022670
 20
-6.794790
 30
0.0
 11
20.726018
 21
-6.825990
 31
0.0
  0
LINE
  5
2c4
100
AcDbEntity
  8
n
 62
7
100
AcDbLine
 10
20.726018
 20
-6.825990
 30
0.0
 11
21.261326
 21
-6.942430
 31
0.0
  0
LINE
  5
2c5
100
AcDbEntity
  8
n
 62
7
100
AcDbLine
 10
21.261326
 20
-6.942430
 30
0.0
 11
21.725133
 21
-7.178080
 31
0.0
  0
LINE
  5
2c6
100
AcDbEntity
  8
n
 62
7
100
AcDbLine
 10
21.725133
 20
-7.178080
 30
0.0
 11
22.213981
 21
-7.566960
 31
0.0
  0
LINE
  5
2c7
100
AcDbEntity
  8
n
 62
7
100
AcDbLine
 10
22.213981
 20
-7.566960
 30
0.0
 11
22.429999
 21
-7.760020
 31
0.0
  0
LINE
  5
2c8
100
AcDbEntity
  8
n
 62
7
100
AcDbLine
 10
22.429999
 20
-7.760020
 30
0.0
 11
22.646016
 21
-7.953080
 31
0.0
  0
LINE
  5
2c9
100
AcDbEntity
  8
n
 62
7
100
AcDbLine
 10
22.646016
 20
-7.953080
 30
0.0
 11
22.862034
 21
-8.146130
 31
0.0
  0
LINE
  5
2ca
100
AcDbEntity
  8
n
 62
7
100
AcDbLine
 10
22.862034
 20
-8.146130
 30
0.0
 11
23.078052
 21
-8.339190
 31
0.0
  0
LINE
  5
2cb
100
AcDbEntity
  8
n
 62
7
100
AcDbLine
 10
23.078052
 20
-8.339190
 30
0.0
 11
23.078052
 21
-10.024000
 31
0.0
  0
LINE
  5
2cc
100
AcDbEntity
  8
n
 62
7
100
AcDbLine
 10
23.078052
 20
-10.024000
 30
0.0
 11
23.078052
 21
-11.708820
 31
0.0
  0
LINE
  5
2cd
100
AcDbEntity
  8
n
 62
7
100
AcDbLine
 10
23.078052
 20
-11.708820
 30
0.0
 11
23.078052
 21
-13.393630
 31
0.0
  0
LINE
  5
2ce
100
AcDbEntity
  8
n
 62
7
100
AcDbLine
 10
23.078052
 20
-13.393630
 30
0.0
 11
23.078052
 21
-15.078440
 31
0.0
  0
LINE
  5
2cf
100
AcDbEntity
  8
n
 62
7
100
AcDbLine
 10
23.078052
 20
-15.078440
 30
0.0
 11
23.078052
 21
-16.763260
 31
0.0
  0
LINE
  5
2d0
100
AcDbEntity
  8
n
 62
7
100
AcDbLine
 10
23.078052
 20
-16.763260
 30
0.0
 11
23.078052
 21
-18.448070
 31
0.0
  0
LINE
  5
2d1
100
AcDbEntity
  8
n
 62
7
100
AcDbLine
 10
23.078052
 20
-18.448070
 30
0.0
 11
23.078052
 21
-20.132890
 31
0.0
  0
LINE
  5
2d2
100
AcDbEntity
  8
n
 62
7
100
AcDbLine
 10
23.078052
 20
-20.132890
 30
0.0
 11
23.078052
 21
-21.817700
 31
0.0
  0
LINE
  5
2d3
100
AcDbEntity
  8
n
 62
7
100
AcDbLine
 10
23.078052
 20
-21.817700
 30
0.0
 11
23.937948
 21
-21.847200
 31
0.0
  0
LINE
  5
2d4
100
AcDbEntity
  8
n
 62
7
100
AcDbLine
 10
23.937948
 20
-21.847200
 30
0.0
 11
24.797843
 21
-21.876700
 31
0.0
  0
LINE
  5
2d5
100
AcDbEntity
  8
n
 62
7
100
AcDbLine
 10
24.797843
 20
-21.876700
 30
0.0
 11
25.657739
 21
-21.906200
 31
0.0
  0
LINE
  5
2d6
100
AcDbEntity
  8
n
 62
7
100
AcDbLine
 10
25.657739
 20
-21.906200
 30
0.0
 11
26.517635
 21
-21.935700
 31
0.0
  0
LINE
  5
2d7
100
AcDbEntity
  8
n
 62
7
100
AcDbLine
 10
26.517635
 20
-21.935700
 30
0.0
 11
27.860072
 21
-21.976200
 31
0.0
  0
LINE
  5
2d8
100
AcDbEntity
  8
n
 62
7
100
AcDbLine
 10
27.860072
 20
-21.976200
 30
0.0
 11
28.972568
 21
-21.999500
 31
0.0
  0
LINE
  5
2d9
100
AcDbEntity
  8
n
 62
7
100
AcDbLine
 10
28.972568
 20
-21.999500
 30
0.0
 11
29.739390
 21
-22.003500
 31
0.0
  0
LINE
  5
2da
100
AcDbEntity
  8
n
 62
7
100
AcDbLine
 10
29.739390
 20
-22.003500
 30
0.0
 11
30.044801
 21
-21.987200
 31
0.0
  0
LINE
  5
2db
100
AcDbEntity
  8
n
 62
7
100
AcDbLine
 10
30.044801
 20
-21.987200
 30
0.0
 11
30.051201
 21
-21.912800
 31
0.0
  0
LINE
  5
2dc
100
AcDbEntity
  8
n
 62
7
100
AcDbLine
 10
30.051201
 20
-21.912800
 30
0.0
 11
30.003911
 21
-21.759030
 31
0.0
  0
LINE
  5
2dd
100
AcDbEntity
  8
n
 62
7
100
AcDbLine
 10
30.003911
 20
-21.759030
 30
0.0
 11
29.911521
 21
-21.548330
 31
0.0
  0
LINE
  5
2de
100
AcDbEntity
  8
n
 62
7
100
AcDbLine
 10
29.911521
 20
-21.548330
 30
0.0
 11
29.782632
 21
-21.303170
 31
0.0
  0
LINE
  5
2df
100
AcDbEntity
  8
n
 62
7
100
AcDbLine
 10
29.782632
 20
-21.303170
 30
0.0
 11
29.613680
 21
-20.651350
 31
0.0
  0
LINE
  5
2e0
100
AcDbEntity
  8
n
 62
7
100
AcDbLine
 10
29.613680
 20
-20.651350
 30
0.0
 11
29.481929
 21
-19.287340
 31
0.0
  0
LINE
  5
2e1
100
AcDbEntity
  8
n
 62
7
100
AcDbLine
 10
29.481929
 20
-19.287340
 30
0.0
 11
29.379411
 21
-17.090020
 31
0.0
  0
LINE
  5
2e2
100
AcDbEntity
  8
n
 62
7
100
AcDbLine
 10
29.379411
 20
-17.090020
 30
0.0
 11
29.298161
 21
-13.938320
 31
0.0
  0
LINE
  5
2e3
100
AcDbEntity
  8
n
 62
7
100
AcDbLine
 10
29.298161
 20
-13.938320
 30
0.0
 11
29.208571
 21
-10.017910
 31
0.0
  0
LINE
  5
2e4
100
AcDbEntity
  8
n
 62
7
100
AcDbLine
 10
29.208571
 20
-10.017910
 30
0.0
 11
29.086921
 21
-7.848180
 31
0.0
  0
LINE
  5
2e5
100
AcDbEntity
  8
n
 62
7
100
AcDbLine
 10
29.086921
 20
-7.848180
 30
0.0
 11
28.851169
 21
-6.657860
 31
0.0
  0
LINE
  5
2e6
100
AcDbEntity
  8
n
 62
7
100
AcDbLine
 10
28.851169
 20
-6.657860
 30
0.0
 11
28.419280
 21
-5.675710
 31
0.0
  0
LINE
  5
2e7
100
AcDbEntity
  8
n
 62
7
100
AcDbLine
 10
28.419280
 20
-5.675710
 30
0.0
 11
27.340151
 21
-4.040870
 31
0.0
  0
LINE
  5
2e8
100
AcDbEntity
  8
n
 62
7
100
AcDbLine
 10
27.340151
 20
-4.040870
 30
0.0
 11
25.886335
 21
-2.740280
 31
0.0
  0
LINE
  5
2e9
100
AcDbEntity
  8
n
 62
7
100
AcDbLine
 10
25.886335
 20
-2.740280
 30
0.0
 11
24.090133
 21
-1.796260
 31
0.0
  0
LINE
  5
2ea
100
AcDbEntity
  8
n
 62
7
100
AcDbLine
 10
24.090133
 20
-1.796260
 30
0.0
 11
21.983846
 21
-1.231110
 31
0.0
  0
LINE
  5
2eb
100
AcDbEntity
  8
n
 62
7
100
AcDbLine
 10
21.983846
 20
-1.231110
 30
0.0
 11
19.813793
 21
-1.157210
 31
0.0
  0
LINE
  5
2ec
100
AcDbEntity
  8
n
 62
7
100
AcDbLine
 10
19.813793
 20
-1.157210
 30
0.0
 11
17.499680
 21
-1.630000
 31
0.0
  0
LINE
  5
2ed
100
AcDbEntity
  8
n
 62
7
100
AcDbLine
 10
17.499680
 20
-1.630000
 30
0.0
 11
15.016841
 21
-2.657200
 31
0.0
  0
LINE
  5
2ee
100
AcDbEntity
  8
n
 62
7
100
AcDbLine
 10
15.016841
 20
-2.657200
 30
0.0
 11
12.340614
 21
-4.246500
 31
0.0
  0
LINE
  5
2ef
100
AcDbEntity
  8
n
 62
7
100
AcDbLine
 10
12.340614
 20
-4.246500
 30
0.0
 11
11.740771
 21
-4.619470
 31
0.0
  0
LINE
  5
2f0
100
AcDbEntity
  8
n
 62
7
100
AcDbLine
 10
11.740771
 20
-4.619470
 30
0.0
 11
11.161936
 21
-4.924900
 31
0.0
  0
LINE
  5
2f1
100
AcDbEntity
  8
n
 62
7
100
AcDbLine
 10
11.161936
 20
-4.924900
 30
0.0
 11
10.670047
 21
-5.131270
 31
0.0
  0
LINE
  5
2f2
100
AcDbEntity
  8
n
 62
7
100
AcDbLine
 10
10.670047
 20
-5.131270
 30
0.0
 11
10.331043
 21
-5.207070
 31
0.0
  0
LINE
  5
2f3
100
AcDbEntity
  8
n
 62
7
100
AcDbLine
 10
10.331043
 20
-5.207070
 30
0.0
 11
9.859112
 21
-5.284470
 31
0.0
  0
LINE
  5
2f4
100
AcDbEntity
  8
n
 62
7
100
AcDbLine
 10
9.859112
 20
-5.284470
 30
0.0
 11
9.593982
 21
-5.495000
 31
0.0
  0
LINE
  5
2f5
100
AcDbEntity
  8
n
 62
7
100
AcDbLine
 10
9.593982
 20
-5.495000
 30
0.0
 11
9.554610
 21
-5.806190
 31
0.0
  0
LINE
  5
2f6
100
AcDbEntity
  8
n
 62
7
100
AcDbLine
 10
9.554610
 20
-5.806190
 30
0.0
 11
9.759951
 21
-6.185550
 31
0.0
  0
LINE
  5
2f7
100
AcDbEntity
  8
n
 62
7
100
AcDbLine
 10
9.759951
 20
-6.185550
 30
0.0
 11
9.932010
 21
-6.744370
 31
0.0
  0
LINE
  5
2f8
100
AcDbEntity
  8
n
 62
7
100
AcDbLine
 10
9.932010
 20
-6.744370
 30
0.0
 11
10.040548
 21
-8.096230
 31
0.0
  0
LINE
  5
2f9
100
AcDbEntity
  8
n
 62
7
100
AcDbLine
 10
10.040548
 20
-8.096230
 30
0.0
 11
10.097168
 21
-10.505310
 31
0.0
  0
LINE
  5
2fa
100
AcDbEntity
  8
n
 62
7
100
AcDbLine
 10
10.097168
 20
-10.505310
 30
0.0
 11
10.113458
 21
-14.235760
 31
0.0
  0
LINE
  5
2fb
100
AcDbEntity
  8
n
 62
7
100
AcDbLine
 10
10.113458
 20
-14.235760
 30
0.0
 11
10.113458
 21
-16.141780
 31
0.0
  0
LINE
  5
2fc
100
AcDbEntity
  8
n
 62
7
100
AcDbLine
 10
10.113458
 20
-16.141780
 30
0.0
 11
10.113458
 21
-18.047810
 31
0.0
  0
LINE
  5
2fd
100
AcDbEntity
  8
n
 62
7
100
AcDbLine
 10
10.113458
 20
-18.047810
 30
0.0
 11
10.113458
 21
-19.953830
 31
0.0
  0
LINE
  5
2fe
100
AcDbEntity
  8
n
 62
7
100
AcDbLine
 10
10.113458
 20
-19.953830
 30
0.0
 11
10.113458
 21
-21.859850
 31
0.0
  0
LINE
  5
2ff
100
AcDbEntity
  8
n
 62
7
100
AcDbLine
 10
10.113458
 20
-21.859850
 30
0.0
 11
10.841062
 21
-21.880750
 31
0.0
  0
LINE
  5
300
100
AcDbEntity
  8
n
 62
7
100
AcDbLine
 10
10.841062
 20
-21.880750
 30
0.0
 11
11.568666
 21
-21.901650
 31
0.0
  0
LINE
  5
301
100
AcDbEntity
  8
n
 62
7
100
AcDbLine
 10
11.568666
 20
-21.901650
 30
0.0
 11
12.296270
 21
-21.922550
 31
0.0
  0
LINE
  5
302
100
AcDbEntity
  8
n
 62
7
100
AcDbLine
 10
12.296270
 20
-21.922550
 30
0.0
 11
13.023874
 21
-21.943450
 31
0.0
  0
LINE
  5
303
100
AcDbEntity
  8
n
 62
7
100
AcDbLine
 10
13.023874
 20
-21.943450
 30
0.0
 11
14.192904
 21
-21.980350
 31
0.0
  0
LINE
  5
304
100
AcDbEntity
  8
n
 62
7
100
AcDbLine
 10
14.192904
 20
-21.980350
 30
0.0
 11
15.224429
 21
-22.019150
 31
0.0
  0
LINE
  5
305
100
AcDbEntity
  8
n
 62
7
100
AcDbLine
 10
15.224429
 20
-22.019150
 30
0.0
 11
16.006748
 21
-22.055150
 31
0.0
  0
LINE
  5
306
100
AcDbEntity
  8
n
 62
7
100
AcDbLine
 10
16.006748
 20
-22.055150
 30
0.0
 11
16.428157
 21
-22.083750
 31
0.0
  0
LINE
  5
307
100
AcDbEntity
  8
n
 62
7
100
AcDbLine
 10
16.428157
 20
-22.083750
 30
0.0
 11
16.673673
 21
-22.085750
 31
0.0
  0
LINE
  5
308
100
AcDbEntity
  8
n
 62
7
100
AcDbLine
 10
16.673673
 20
-22.085750
 30
0.0
 11
16.794832
 21
-21.996750
 31
0.0
  0
LINE
  5
309
100
AcDbEntity
  8
n
 62
7
100
AcDbLine
 10
16.794832
 20
-21.996750
 30
0.0
 11
16.806332
 21
-21.783680
 31
0.0
  0
LINE
  5
30a
100
AcDbEntity
  8
n
 62
7
100
AcDbLine
 10
16.806332
 20
-21.783680
 30
0.0
 11
16.722852
 21
-21.413070
 31
0.0
  0
LINE
  5
30b
100
AcDbEntity
  8
n
 62
7
100
AcDbLine
 10
16.722852
 20
-21.413070
 30
0.0
 11
16.722852
 21
-21.413080
 31
0.0
  0
LINE
  5
30c
100
AcDbEntity
  8
n
 62
7
100
AcDbLine
 10
16.722852
 20
-21.413080
 30
0.0
 11
16.722852
 21
-21.413090
 31
0.0
  0
LINE
  5
30d
100
AcDbEntity
  8
n
 62
7
100
AcDbLine
 10
16.722852
 20
-21.413090
 30
0.0
 11
16.722852
 21
-21.413100
 31
0.0
  0
LINE
  5
30e
100
AcDbEntity
  8
n
 62
7
100
AcDbLine
 10
16.722852
 20
-21.413100
 30
0.0
 11
16.722858
 21
-21.412990
 31
0.0
  0
LINE
  5
30f
100
AcDbEntity
  8
i
 62
7
100
AcDbLine
 10
7.706599
 20
-21.545280
 30
0.0
 11
7.610122
 21
-20.552170
 31
0.0
  0
LINE
  5
310
100
AcDbEntity
  8
i
 62
7
100
AcDbLine
 10
7.610122
 20
-20.552170
 30
0.0
 11
7.509789
 21
-18.288230
 31
0.0
  0
LINE
  5
311
100
AcDbEntity
  8
i
 62
7
100
AcDbLine
 10
7.509789
 20
-18.288230
 30
0.0
 11
7.417464
 21
-15.089860
 31
0.0
  0
LINE
  5
312
100
AcDbEntity
  8
i
 62
7
100
AcDbLine
 10
7.417464
 20
-15.089860
 30
0.0
 11
7.345012
 21
-11.293430
 31
0.0
  0
LINE
  5
313
100
AcDbEntity
  8
i
 62
7
100
AcDbLine
 10
7.345012
 20
-11.293430
 30
0.0
 11
7.309521
 21
-8.879300
 31
0.0
  0
LINE
  5
314
100
AcDbEntity
  8
i
 62
7
100
AcDbLine
 10
7.309521
 20
-8.879300
 30
0.0
 11
7.274031
 21
-6.465160
 31
0.0
  0
LINE
  5
315
100
AcDbEntity
  8
i
 62
7
100
AcDbLine
 10
7.274031
 20
-6.465160
 30
0.0
 11
7.238540
 21
-4.051030
 31
0.0
  0
LINE
  5
316
100
AcDbEntity
  8
i
 62
7
100
AcDbLine
 10
7.238540
 20
-4.051030
 30
0.0
 11
7.203049
 21
-1.636890
 31
0.0
  0
LINE
  5
317
100
AcDbEntity
  8
i
 62
7
100
AcDbLine
 10
7.203049
 20
-1.636890
 30
0.0
 11
6.475444
 21
-1.659590
 31
0.0
  0
LINE
  5
318
100
AcDbEntity
  8
i
 62
7
100
AcDbLine
 10
6.475444
 20
-1.659590
 30
0.0
 11
5.747840
 21
-1.682390
 31
0.0
  0
LINE
  5
319
100
AcDbEntity
  8
i
 62
7
100
AcDbLine
 10
5.747840
 20
-1.682390
 30
0.0
 11
5.020236
 21
-1.705090
 31
0.0
  0
LINE
  5
31a
100
AcDbEntity
  8
i
 62
7
100
AcDbLine
 10
5.020236
 20
-1.705090
 30
0.0
 11
4.292632
 21
-1.727890
 31
0.0
  0
LINE
  5
31b
100
AcDbEntity
  8
i
 62
7
100
AcDbLine
 10
4.292632
 20
-1.727890
 30
0.0
 11
3.156332
 21
-1.769190
 31
0.0
  0
LINE
  5
31c
100
AcDbEntity
  8
i
 62
7
100
AcDbLine
 10
3.156332
 20
-1.769190
 30
0.0
 11
2.213920
 21
-1.814390
 31
0.0
  0
LINE
  5
31d
100
AcDbEntity
  8
i
 62
7
100
AcDbLine
 10
2.213920
 20
-1.814390
 30
0.0
 11
1.563491
 21
-1.857890
 31
0.0
  0
LINE
  5
31e
100
AcDbEntity
  8
i
 62
7
100
AcDbLine
 10
1.563491
 20
-1.857890
 30
0.0
 11
1.303137
 21
-1.894390
 31
0.0
  0
LINE
  5
31f
100
AcDbEntity
  8
i
 62
7
100
AcDbLine
 10
1.303137
 20
-1.894390
 30
0.0
 11
1.268234
 21
-2.708410
 31
0.0
  0
LINE
  5
320
100
AcDbEntity
  8
i
 62
7
100
AcDbLine
 10
1.268234
 20
-2.708410
 30
0.0
 11
1.231657
 21
-4.869030
 31
0.0
  0
LINE
  5
321
100
AcDbEntity
  8
i
 62
7
100
AcDbLine
 10
1.231657
 20
-4.869030
 30
0.0
 11
1.197747
 21
-8.047450
 31
0.0
  0
LINE
  5
322
100
AcDbEntity
  8
i
 62
7
100
AcDbLine
 10
1.197747
 20
-8.047450
 30
0.0
 11
1.170845
 21
-11.914860
 31
0.0
  0
LINE
  5
323
100
AcDbEntity
  8
i
 62
7
100
AcDbLine
 10
1.170845
 20
-11.914860
 30
0.0
 11
1.157542
 21
-14.401110
 31
0.0
  0
LINE
  5
324
100
AcDbEntity
  8
i
 62
7
100
AcDbLine
 10
1.157542
 20
-14.401110
 30
0.0
 11
1.144239
 21
-16.887360
 31
0.0
  0
LINE
  5
325
100
AcDbEntity
  8
i
 62
7
100
AcDbLine
 10
1.144239
 20
-16.887360
 30
0.0
 11
1.130936
 21
-19.373610
 31
0.0
  0
LINE
  5
326
100
AcDbEntity
  8
i
 62
7
100
AcDbLine
 10
1.130936
 20
-19.373610
 30
0.0
 11
1.117633
 21
-21.859860
 31
0.0
  0
LINE
  5
327
100
AcDbEntity
  8
i
 62
7
100
AcDbLine
 10
1.117633
 20
-21.859860
 30
0.0
 11
1.845237
 21
-21.880860
 31
0.0
  0
LINE
  5
328
100
AcDbEntity
  8
i
 62
7
100
AcDbLine
 10
1.845237
 20
-21.880860
 30
0.0
 11
2.572841
 21
-21.901760
 31
0.0
  0
LINE
  5
329
100
AcDbEntity
  8
i
 62
7
100
AcDbLine
 10
2.572841
 20
-21.901760
 30
0.0
 11
3.300445
 21
-21.922760
 31
0.0
  0
LINE
  5
32a
100
AcDbEntity
  8
i
 62
7
100
AcDbLine
 10
3.300445
 20
-21.922760
 30
0.0
 11
4.028049
 21
-21.943660
 31
0.0
  0
LINE
  5
32b
100
AcDbEntity
  8
i
 62
7
100
AcDbLine
 10
4.028049
 20
-21.943660
 30
0.0
 11
5.197080
 21
-21.980660
 31
0.0
  0
LINE
  5
32c
100
AcDbEntity
  8
i
 62
7
100
AcDbLine
 10
5.197080
 20
-21.980660
 30
0.0
 11
6.228608
 21
-22.019460
 31
0.0
  0
LINE
  5
32d
100
AcDbEntity
  8
i
 62
7
100
AcDbLine
 10
6.228608
 20
-22.019460
 30
0.0
 11
7.010931
 21
-22.055460
 31
0.0
  0
LINE
  5
32e
100
AcDbEntity
  8
i
 62
7
100
AcDbLine
 10
7.010931
 20
-22.055460
 30
0.0
 11
7.432345
 21
-22.084060
 31
0.0
  0
LINE
  5
32f
100
AcDbEntity
  8
i
 62
7
100
AcDbLine
 10
7.432345
 20
-22.084060
 30
0.0
 11
7.672346
 21
-22.088060
 31
0.0
  0
LINE
  5
330
100
AcDbEntity
  8
i
 62
7
100
AcDbLine
 10
7.672346
 20
-22.088060
 30
0.0
 11
7.789962
 21
-22.015660
 31
0.0
  0
LINE
  5
331
100
AcDbEntity
  8
i
 62
7
100
AcDbLine
 10
7.789962
 20
-22.015660
 30
0.0
 11
7.797332
 21
-21.842530
 31
0.0
  0
LINE
  5
332
100
AcDbEntity
  8
i
 62
7
100
AcDbLine
 10
7.797332
 20
-21.842530
 30
0.0
 11
7.706598
 21
-21.544840
 31
0.0
  0
LINE
  5
333
100
AcDbEntity
  8
i
 62
7
100
AcDbLine
 10
7.706598
 20
-21.544840
 30
0.0
 11
7.706598
 21
-21.544850
 31
0.0
  0
LINE
  5
334
100
AcDbEntity
  8
i
 62
7
100
AcDbLine
 10
7.706598
 20
-21.544850
 30
0.0
 11
7.706598
 21
-21.544860
 31
0.0
  0
LINE
  5
335
100
AcDbEntity
  8
i
 62
7
100
AcDbLine
 10
7.706598
 20
-21.544860
 30
0.0
 11
7.706598
 21
-21.544860
 31
0.0
  0
LINE
  5
336
100
AcDbEntity
  8
i
 62
7
100
AcDbLine
 10
7.706598
 20
-21.544860
 30
0.0
 11
7.706599
 21
-21.545280
 31
0.0
  0
LINE
  5
337
100
AcDbEntity
  8
i
 62
7
100
AcDbLine
 10
5.544540
 20
0.732880
 30
0.0
 11
6.340042
 21
1.196980
 31
0.0
  0
LINE
  5
338
100
AcDbEntity
  8
i
 62
7
100
AcDbLine
 10
6.340042
 20
1.196980
 30
0.0
 11
6.898331
 21
1.831940
 31
0.0
  0
LINE
  5
339
100
AcDbEntity
  8
i
 62
7
100
AcDbLine
 10
6.898331
 20
1.831940
 30
0.0
 11
7.227425
 21
2.650890
 31
0.0
  0
LINE
  5
33a
100
AcDbEntity
  8
i
 62
7
100
AcDbLine
 10
7.227425
 20
2.650890
 30
0.0
 11
7.335341
 21
3.666960
 31
0.0
  0
LINE
  5
33b
100
AcDbEntity
  8
i
 62
7
100
AcDbLine
 10
7.335341
 20
3.666960
 30
0.0
 11
7.303263
 21
4.309880
 31
0.0
  0
LINE
  5
33c
100
AcDbEntity
  8
i
 62
7
100
AcDbLine
 10
7.303263
 20
4.309880
 30
0.0
 11
7.185350
 21
4.800580
 31
0.0
  0
LINE
  5
33d
100
AcDbEntity
  8
i
 62
7
100
AcDbLine
 10
7.185350
 20
4.800580
 30
0.0
 11
6.949083
 21
5.222890
 31
0.0
  0
LINE
  5
33e
100
AcDbEntity
  8
i
 62
7
100
AcDbLine
 10
6.949083
 20
5.222890
 30
0.0
 11
6.561942
 21
5.660640
 31
0.0
  0
LINE
  5
33f
100
AcDbEntity
  8
i
 62
7
100
AcDbLine
 10
6.561942
 20
5.660640
 30
0.0
 11
6.020659
 21
6.106060
 31
0.0
  0
LINE
  5
340
100
AcDbEntity
  8
i
 62
7
100
AcDbLine
 10
6.020659
 20
6.106060
 30
0.0
 11
5.428708
 21
6.371080
 31
0.0
  0
LINE
  5
341
100
AcDbEntity
  8
i
 62
7
100
AcDbLine
 10
5.428708
 20
6.371080
 30
0.0
 11
4.703755
 21
6.479010
 31
0.0
  0
LINE
  5
342
100
AcDbEntity
  8
i
 62
7
100
AcDbLine
 10
4.703755
 20
6.479010
 30
0.0
 11
3.763465
 21
6.453210
 31
0.0
  0
LINE
  5
343
100
AcDbEntity
  8
i
 62
7
100
AcDbLine
 10
3.763465
 20
6.453210
 30
0.0
 11
2.377656
 21
5.860000
 31
0.0
  0
LINE
  5
344
100
AcDbEntity
  8
i
 62
7
100
AcDbLine
 10
2.377656
 20
5.860000
 30
0.0
 11
1.488713
 21
4.588020
 31
0.0
  0
LINE
  5
345
100
AcDbEntity
  8
i
 62
7
100
AcDbLine
 10
1.488713
 20
4.588020
 30
0.0
 11
1.250188
 21
3.023560
 31
0.0
  0
LINE
  5
346
100
AcDbEntity
  8
i
 62
7
100
AcDbLine
 10
1.250188
 20
3.023560
 30
0.0
 11
1.815635
 21
1.552920
 31
0.0
  0
LINE
  5
347
100
AcDbEntity
  8
i
 62
7
100
AcDbLine
 10
1.815635
 20
1.552920
 30
0.0
 11
2.579601
 21
0.820620
 31
0.0
  0
LINE
  5
348
100
AcDbEntity
  8
i
 62
7
100
AcDbLine
 10
2.579601
 20
0.820620
 30
0.0
 11
3.447996
 21
0.441560
 31
0.0
  0
LINE
  5
349
100
AcDbEntity
  8
i
 62
7
100
AcDbLine
 10
3.447996
 20
0.441560
 30
0.0
 11
4.432438
 21
0.413160
 31
0.0
  0
LINE
  5
34a
100
AcDbEntity
  8
i
 62
7
100
AcDbLine
 10
4.432438
 20
0.413160
 30
0.0
 11
5.544540
 21
0.732880
 31
0.0
  0
LINE
  5
34b
100
AcDbEntity
  8
l2
 62
7
100
AcDbLine
 10
-2.352114
 20
-21.545280
 30
0.0
 11
-2.444016
 21
-20.209030
 31
0.0
  0
LINE
  5
34c
100
AcDbEntity
  8
l2
 62
7
100
AcDbLine
 10
-2.444016
 20
-20.209030
 30
0.0
 11
-2.528528
 21
-17.010780
 31
0.0
  0
LINE
  5
34d
100
AcDbEntity
  8
l2
 62
7
100
AcDbLine
 10
-2.528528
 20
-17.010780
 30
0.0
 11
-2.596273
 21
-12.429630
 31
0.0
  0
LINE
  5
34e
100
AcDbEntity
  8
l2
 62
7
100
AcDbLine
 10
-2.596273
 20
-12.429630
 30
0.0
 11
-2.637874
 21
-6.944660
 31
0.0
  0
LINE
  5
34f
100
AcDbEntity
  8
l2
 62
7
100
AcDbLine
 10
-2.637874
 20
-6.944660
 30
0.0
 11
-2.672334
 21
-1.479180
 31
0.0
  0
LINE
  5
350
100
AcDbEntity
  8
l2
 62
7
100
AcDbLine
 10
-2.672334
 20
-1.479180
 30
0.0
 11
-2.720635
 21
3.048910
 31
0.0
  0
LINE
  5
351
100
AcDbEntity
  8
l2
 62
7
100
AcDbLine
 10
-2.720635
 20
3.048910
 30
0.0
 11
-2.776370
 21
6.168620
 31
0.0
  0
LINE
  5
352
100
AcDbEntity
  8
l2
 62
7
100
AcDbLine
 10
-2.776370
 20
6.168620
 30
0.0
 11
-2.833132
 21
7.408980
 31
0.0
  0
LINE
  5
353
100
AcDbEntity
  8
l2
 62
7
100
AcDbLine
 10
-2.833132
 20
7.408980
 30
0.0
 11
-3.043775
 21
7.572300
 31
0.0
  0
LINE
  5
354
100
AcDbEntity
  8
l2
 62
7
100
AcDbLine
 10
-3.043775
 20
7.572300
 30
0.0
 11
-3.569268
 21
7.679240
 31
0.0
  0
LINE
  5
355
100
AcDbEntity
  8
l2
 62
7
100
AcDbLine
 10
-3.569268
 20
7.679240
 30
0.0
 11
-4.473255
 21
7.737140
 31
0.0
  0
LINE
  5
356
100
AcDbEntity
  8
l2
 62
7
100
AcDbLine
 10
-4.473255
 20
7.737140
 30
0.0
 11
-5.819378
 21
7.753340
 31
0.0
  0
LINE
  5
357
100
AcDbEntity
  8
l2
 62
7
100
AcDbLine
 10
-5.819378
 20
7.753340
 30
0.0
 11
-6.948630
 21
7.736540
 31
0.0
  0
LINE
  5
358
100
AcDbEntity
  8
l2
 62
7
100
AcDbLine
 10
-6.948630
 20
7.736540
 30
0.0
 11
-7.914612
 21
7.693440
 31
0.0
  0
LINE
  5
359
100
AcDbEntity
  8
l2
 62
7
100
AcDbLine
 10
-7.914612
 20
7.693440
 30
0.0
 11
-8.614718
 21
7.630740
 31
0.0
  0
LINE
  5
35a
100
AcDbEntity
  8
l2
 62
7
100
AcDbLine
 10
-8.614718
 20
7.630740
 30
0.0
 11
-8.946345
 21
7.554940
 31
0.0
  0
LINE
  5
35b
100
AcDbEntity
  8
l2
 62
7
100
AcDbLine
 10
-8.946345
 20
7.554940
 30
0.0
 11
-9.054444
 21
7.201450
 31
0.0
  0
LINE
  5
35c
100
AcDbEntity
  8
l2
 62
7
100
AcDbLine
 10
-9.054444
 20
7.201450
 30
0.0
 11
-9.101034
 21
6.330700
 31
0.0
  0
LINE
  5
35d
100
AcDbEntity
  8
l2
 62
7
100
AcDbLine
 10
-9.101034
 20
6.330700
 30
0.0
 11
-9.086265
 21
4.932070
 31
0.0
  0
LINE
  5
35e
100
AcDbEntity
  8
l2
 62
7
100
AcDbLine
 10
-9.086265
 20
4.932070
 30
0.0
 11
-9.010287
 21
2.994930
 31
0.0
  0
LINE
  5
35f
100
AcDbEntity
  8
l2
 62
7
100
AcDbLine
 10
-9.010287
 20
2.994930
 30
0.0
 11
-8.880196
 21
-3.037670
 31
0.0
  0
LINE
  5
360
100
AcDbEntity
  8
l2
 62
7
100
AcDbLine
 10
-8.880196
 20
-3.037670
 30
0.0
 11
-8.873496
 21
-11.025260
 31
0.0
  0
LINE
  5
361
100
AcDbEntity
  8
l2
 62
7
100
AcDbLine
 10
-8.873496
 20
-11.025260
 30
0.0
 11
-8.972615
 21
-18.102550
 31
0.0
  0
LINE
  5
362
100
AcDbEntity
  8
l2
 62
7
100
AcDbLine
 10
-8.972615
 20
-18.102550
 30
0.0
 11
-9.159972
 21
-21.404270
 31
0.0
  0
LINE
  5
363
100
AcDbEntity
  8
l2
 62
7
100
AcDbLine
 10
-9.159972
 20
-21.404270
 30
0.0
 11
-9.192946
 21
-21.652400
 31
0.0
  0
LINE
  5
364
100
AcDbEntity
  8
l2
 62
7
100
AcDbLine
 10
-9.192946
 20
-21.652400
 30
0.0
 11
-8.852586
 21
-21.800110
 31
0.0
  0
LINE
  5
365
100
AcDbEntity
  8
l2
 62
7
100
AcDbLine
 10
-8.852586
 20
-21.800110
 30
0.0
 11
-7.938314
 21
-21.884510
 31
0.0
  0
LINE
  5
366
100
AcDbEntity
  8
l2
 62
7
100
AcDbLine
 10
-7.938314
 20
-21.884510
 30
0.0
 11
-6.249555
 21
-21.942710
 31
0.0
  0
LINE
  5
367
100
AcDbEntity
  8
l2
 62
7
100
AcDbLine
 10
-6.249555
 20
-21.942710
 30
0.0
 11
-4.993767
 21
-21.979810
 31
0.0
  0
LINE
  5
368
100
AcDbEntity
  8
l2
 62
7
100
AcDbLine
 10
-4.993767
 20
-21.979810
 30
0.0
 11
-3.891191
 21
-22.018710
 31
0.0
  0
LINE
  5
369
100
AcDbEntity
  8
l2
 62
7
100
AcDbLine
 10
-3.891191
 20
-22.018710
 30
0.0
 11
-3.060864
 21
-22.054810
 31
0.0
  0
LINE
  5
36a
100
AcDbEntity
  8
l2
 62
7
100
AcDbLine
 10
-3.060864
 20
-22.054810
 30
0.0
 11
-2.621819
 21
-22.083510
 31
0.0
  0
LINE
  5
36b
100
AcDbEntity
  8
l2
 62
7
100
AcDbLine
 10
-2.621819
 20
-22.083510
 30
0.0
 11
-2.381410
 21
-22.088510
 31
0.0
  0
LINE
  5
36c
100
AcDbEntity
  8
l2
 62
7
100
AcDbLine
 10
-2.381410
 20
-22.088510
 30
0.0
 11
-2.264407
 21
-22.016510
 31
0.0
  0
LINE
  5
36d
100
AcDbEntity
  8
l2
 62
7
100
AcDbLine
 10
-2.264407
 20
-22.016510
 30
0.0
 11
-2.258687
 21
-21.843480
 31
0.0
  0
LINE
  5
36e
100
AcDbEntity
  8
l2
 62
7
100
AcDbLine
 10
-2.258687
 20
-21.843480
 30
0.0
 11
-2.352114
 21
-21.545280
 31
0.0
  0
LINE
  5
36f
100
AcDbEntity
  8
l
 62
7
100
AcDbLine
 10
-12.411405
 20
-21.545280
 30
0.0
 11
-12.500435
 21
-20.186760
 31
0.0
  0
LINE
  5
370
100
AcDbEntity
  8
l
 62
7
100
AcDbLine
 10
-12.500435
 20
-20.186760
 30
0.0
 11
-12.573345
 21
-16.927890
 31
0.0
  0
LINE
  5
371
100
AcDbEntity
  8
l
 62
7
100
AcDbLine
 10
-12.573345
 20
-16.927890
 30
0.0
 11
-12.622605
 21
-12.257010
 31
0.0
  0
LINE
  5
372
100
AcDbEntity
  8
l
 62
7
100
AcDbLine
 10
-12.622605
 20
-12.257010
 30
0.0
 11
-12.640695
 21
-6.662470
 31
0.0
  0
LINE
  5
373
100
AcDbEntity
  8
l
 62
7
100
AcDbLine
 10
-12.640695
 20
-6.662470
 30
0.0
 11
-12.640695
 21
-3.090600
 31
0.0
  0
LINE
  5
374
100
AcDbEntity
  8
l
 62
7
100
AcDbLine
 10
-12.640695
 20
-3.090600
 30
0.0
 11
-12.640695
 21
0.481280
 31
0.0
  0
LINE
  5
375
100
AcDbEntity
  8
l
 62
7
100
AcDbLine
 10
-12.640695
 20
0.481280
 30
0.0
 11
-12.640695
 21
4.053160
 31
0.0
  0
LINE
  5
376
100
AcDbEntity
  8
l
 62
7
100
AcDbLine
 10
-12.640695
 20
4.053160
 30
0.0
 11
-12.640695
 21
7.625030
 31
0.0
  0
LINE
  5
377
100
AcDbEntity
  8
l
 62
7
100
AcDbLine
 10
-12.640695
 20
7.625030
 30
0.0
 11
-13.558417
 21
7.643430
 31
0.0
  0
LINE
  5
378
100
AcDbEntity
  8
l
 62
7
100
AcDbLine
 10
-13.558417
 20
7.643430
 30
0.0
 11
-14.476139
 21
7.661930
 31
0.0
  0
LINE
  5
379
100
AcDbEntity
  8
l
 62
7
100
AcDbLine
 10
-14.476139
 20
7.661930
 30
0.0
 11
-15.393860
 21
7.680330
 31
0.0
  0
LINE
  5
37a
100
AcDbEntity
  8
l
 62
7
100
AcDbLine
 10
-15.393860
 20
7.680330
 30
0.0
 11
-16.311582
 21
7.698830
 31
0.0
  0
LINE
  5
37b
100
AcDbEntity
  8
l
 62
7
100
AcDbLine
 10
-16.311582
 20
7.698830
 30
0.0
 11
-17.229304
 21
7.717230
 31
0.0
  0
LINE
  5
37c
100
AcDbEntity
  8
l
 62
7
100
AcDbLine
 10
-17.229304
 20
7.717230
 30
0.0
 11
-18.147026
 21
7.735630
 31
0.0
  0
LINE
  5
37d
100
AcDbEntity
  8
l
 62
7
100
AcDbLine
 10
-18.147026
 20
7.735630
 30
0.0
 11
-19.064748
 21
7.754130
 31
0.0
  0
LINE
  5
37e
100
AcDbEntity
  8
l
 62
7
100
AcDbLine
 10
-19.064748
 20
7.754130
 30
0.0
 11
-19.982470
 21
7.772530
 31
0.0
  0
LINE
  5
37f
100
AcDbEntity
  8
l
 62
7
100
AcDbLine
 10
-19.982470
 20
7.772530
 30
0.0
 11
-19.934810
 21
7.621780
 31
0.0
  0
LINE
  5
380
100
AcDbEntity
  8
l
 62
7
100
AcDbLine
 10
-19.934810
 20
7.621780
 30
0.0
 11
-19.887150
 21
7.471040
 31
0.0
  0
LINE
  5
381
100
AcDbEntity
  8
l
 62
7
100
AcDbLine
 10
-19.887150
 20
7.471040
 30
0.0
 11
-19.839490
 21
7.320290
 31
0.0
  0
LINE
  5
382
100
AcDbEntity
  8
l
 62
7
100
AcDbLine
 10
-19.839490
 20
7.320290
 30
0.0
 11
-19.791830
 21
7.169540
 31
0.0
  0
LINE
  5
383
100
AcDbEntity
  8
l
 62
7
100
AcDbLine
 10
-19.791830
 20
7.169540
 30
0.0
 11
-19.436631
 21
2.321970
 31
0.0
  0
LINE
  5
384
100
AcDbEntity
  8
l
 62
7
100
AcDbLine
 10
-19.436631
 20
2.321970
 30
0.0
 11
-19.174028
 21
-6.933580
 31
0.0
  0
LINE
  5
385
100
AcDbEntity
  8
l
 62
7
100
AcDbLine
 10
-19.174028
 20
-6.933580
 30
0.0
 11
-19.086738
 21
-16.214870
 31
0.0
  0
LINE
  5
386
100
AcDbEntity
  8
l
 62
7
100
AcDbLine
 10
-19.086738
 20
-16.214870
 30
0.0
 11
-19.257482
 21
-21.139640
 31
0.0
  0
LINE
  5
387
100
AcDbEntity
  8
l
 62
7
100
AcDbLine
 10
-19.257482
 20
-21.139640
 30
0.0
 11
-19.303222
 21
-21.319310
 31
0.0
  0
LINE
  5
388
100
AcDbEntity
  8
l
 62
7
100
AcDbLine
 10
-19.303222
 20
-21.319310
 30
0.0
 11
-19.348962
 21
-21.498990
 31
0.0
  0
LINE
  5
389
100
AcDbEntity
  8
l
 62
7
100
AcDbLine
 10
-19.348962
 20
-21.498990
 30
0.0
 11
-19.394702
 21
-21.678660
 31
0.0
  0
LINE
  5
38a
100
AcDbEntity
  8
l
 62
7
100
AcDbLine
 10
-19.394702
 20
-21.678660
 30
0.0
 11
-19.440442
 21
-21.858340
 31
0.0
  0
LINE
  5
38b
100
AcDbEntity
  8
l
 62
7
100
AcDbLine
 10
-19.440442
 20
-21.858340
 30
0.0
 11
-18.689690
 21
-21.879540
 31
0.0
  0
LINE
  5
38c
100
AcDbEntity
  8
l
 62
7
100
AcDbLine
 10
-18.689690
 20
-21.879540
 30
0.0
 11
-17.938937
 21
-21.900640
 31
0.0
  0
LINE
  5
38d
100
AcDbEntity
  8
l
 62
7
100
AcDbLine
 10
-17.938937
 20
-21.900640
 30
0.0
 11
-17.188185
 21
-21.921840
 31
0.0
  0
LINE
  5
38e
100
AcDbEntity
  8
l
 62
7
100
AcDbLine
 10
-17.188185
 20
-21.921840
 30
0.0
 11
-16.437432
 21
-21.942940
 31
0.0
  0
LINE
  5
38f
100
AcDbEntity
  8
l
 62
7
100
AcDbLine
 10
-16.437432
 20
-21.942940
 30
0.0
 11
-15.222012
 21
-21.980340
 31
0.0
  0
LINE
  5
390
100
AcDbEntity
  8
l
 62
7
100
AcDbLine
 10
-15.222012
 20
-21.980340
 30
0.0
 11
-14.132620
 21
-22.019440
 31
0.0
  0
LINE
  5
391
100
AcDbEntity
  8
l
 62
7
100
AcDbLine
 10
-14.132620
 20
-22.019440
 30
0.0
 11
-13.288340
 21
-22.055640
 31
0.0
  0
LINE
  5
392
100
AcDbEntity
  8
l
 62
7
100
AcDbLine
 10
-13.288340
 20
-22.055640
 30
0.0
 11
-12.808253
 21
-22.084240
 31
0.0
  0
LINE
  5
393
100
AcDbEntity
  8
l
 62
7
100
AcDbLine
 10
-12.808253
 20
-22.084240
 30
0.0
 11
-12.486986
 21
-22.094240
 31
0.0
  0
LINE
  5
394
100
AcDbEntity
  8
l
 62
7
100
AcDbLine
 10
-12.486986
 20
-22.094240
 30
0.0
 11
-12.329228
 21
-22.028740
 31
0.0
  0
LINE
  5
395
100
AcDbEntity
  8
l
 62
7
100
AcDbLine
 10
-12.329228
 20
-22.028740
 30
0.0
 11
-12.311768
 21
-21.856350
 31
0.0
  0
LINE
  5
396
100
AcDbEntity
  8
l
 62
7
100
AcDbLine
 10
-12.311768
 20
-21.856350
 30
0.0
 11
-12.411378
 21
-21.545550
 31
0.0
  0
LINE
  5
397
100
AcDbEntity
  8
l
 62
7
100
AcDbLine
 10
-12.411378
 20
-21.545550
 30
0.0
 11
-12.411378
 21
-21.545550
 31
0.0
  0
LINE
  5
398
100
AcDbEntity
  8
l
 62
7
100
AcDbLine
 10
-12.411378
 20
-21.545550
 30
0.0
 11
-12.411378
 21
-21.545550
 31
0.0
  0
LINE
  5
399
100
AcDbEntity
  8
l
 62
7
100
AcDbLine
 10
-12.411378
 20
-21.545550
 30
0.0
 11
-12.411378
 21
-21.545540
 31
0.0
  0
LINE
  5
39a
100
AcDbEntity
  8
l
 62
7
100
AcDbLine
 10
-12.411378
 20
-21.545540
 30
0.0
 11
-12.411405
 21
-21.545280
 31
0.0
  0
LINE
  5
39b
100
AcDbEntity
  8
e
 62
7
100
AcDbLine
 10
-28.946504
 20
-22.226540
 30
0.0
 11
-28.147496
 21
-22.139040
 31
0.0
  0
LINE
  5
39c
100
AcDbEntity
  8
e
 62
7
100
AcDbLine
 10
-28.147496
 20
-22.139040
 30
0.0
 11
-27.463976
 21
-22.023710
 31
0.0
  0
LINE
  5
39d
100
AcDbEntity
  8
e
 62
7
100
AcDbLine
 10
-27.463976
 20
-22.023710
 30
0.0
 11
-26.968547
 21
-21.895580
 31
0.0
  0
LINE
  5
39e
100
AcDbEntity
  8
e
 62
7
100
AcDbLine
 10
-26.968547
 20
-21.895580
 30
0.0
 11
-26.733814
 21
-21.769650
 31
0.0
  0
LINE
  5
39f
100
AcDbEntity
  8
e
 62
7
100
AcDbLine
 10
-26.733814
 20
-21.769650
 30
0.0
 11
-26.579089
 21
-20.778630
 31
0.0
  0
LINE
  5
3a0
100
AcDbEntity
  8
e
 62
7
100
AcDbLine
 10
-26.579089
 20
-20.778630
 30
0.0
 11
-26.540129
 21
-19.016290
 31
0.0
  0
LINE
  5
3a1
100
AcDbEntity
  8
e
 62
7
100
AcDbLine
 10
-26.540129
 20
-19.016290
 30
0.0
 11
-26.609429
 21
-17.334300
 31
0.0
  0
LINE
  5
3a2
100
AcDbEntity
  8
e
 62
7
100
AcDbLine
 10
-26.609429
 20
-17.334300
 30
0.0
 11
-26.779492
 21
-16.584370
 31
0.0
  0
LINE
  5
3a3
100
AcDbEntity
  8
e
 62
7
100
AcDbLine
 10
-26.779492
 20
-16.584370
 30
0.0
 11
-27.018067
 21
-16.617770
 31
0.0
  0
LINE
  5
3a4
100
AcDbEntity
  8
e
 62
7
100
AcDbLine
 10
-27.018067
 20
-16.617770
 30
0.0
 11
-27.484201
 21
-16.708770
 31
0.0
  0
LINE
  5
3a5
100
AcDbEntity
  8
e
 62
7
100
AcDbLine
 10
-27.484201
 20
-16.708770
 30
0.0
 11
-28.110610
 21
-16.843460
 31
0.0
  0
LINE
  5
3a6
100
AcDbEntity
  8
e
 62
7
100
AcDbLine
 10
-28.110610
 20
-16.843460
 30
0.0
 11
-28.830013
 21
-17.007940
 31
0.0
  0
LINE
  5
3a7
100
AcDbEntity
  8
e
 62
7
100
AcDbLine
 10
-28.830013
 20
-17.007940
 30
0.0
 11
-31.126730
 21
-17.308140
 31
0.0
  0
LINE
  5
3a8
100
AcDbEntity
  8
e
 62
7
100
AcDbLine
 10
-31.126730
 20
-17.308140
 30
0.0
 11
-33.194409
 21
-17.171270
 31
0.0
  0
LINE
  5
3a9
100
AcDbEntity
  8
e
 62
7
100
AcDbLine
 10
-33.194409
 20
-17.171270
 30
0.0
 11
-34.688031
 21
-16.660090
 31
0.0
  0
LINE
  5
3aa
100
AcDbEntity
  8
e
 62
7
100
AcDbLine
 10
-34.688031
 20
-16.660090
 30
0.0
 11
-35.262576
 21
-15.837410
 31
0.0
  0
LINE
  5
3ab
100
AcDbEntity
  8
e
 62
7
100
AcDbLine
 10
-35.262576
 20
-15.837410
 30
0.0
 11
-35.288496
 21
-15.628940
 31
0.0
  0
LINE
  5
3ac
100
AcDbEntity
  8
e
 62
7
100
AcDbLine
 10
-35.288496
 20
-15.628940
 30
0.0
 11
-35.359076
 21
-15.408870
 31
0.0
  0
LINE
  5
3ad
100
AcDbEntity
  8
e
 62
7
100
AcDbLine
 10
-35.359076
 20
-15.408870
 30
0.0
 11
-35.463534
 21
-15.203400
 31
0.0
  0
LINE
  5
3ae
100
AcDbEntity
  8
e
 62
7
100
AcDbLine
 10
-35.463534
 20
-15.203400
 30
0.0
 11
-35.591091
 21
-15.038740
 31
0.0
  0
LINE
  5
3af
100
AcDbEntity
  8
e
 62
7
100
AcDbLine
 10
-35.591091
 20
-15.038740
 30
0.0
 11
-35.746178
 21
-14.684540
 31
0.0
  0
LINE
  5
3b0
100
AcDbEntity
  8
e
 62
7
100
AcDbLine
 10
-35.746178
 20
-14.684540
 30
0.0
 11
-35.412020
 21
-14.421880
 31
0.0
  0
LINE
  5
3b1
100
AcDbEntity
  8
e
 62
7
100
AcDbLine
 10
-35.412020
 20
-14.421880
 30
0.0
 11
-34.589175
 21
-14.250950
 31
0.0
  0
LINE
  5
3b2
100
AcDbEntity
  8
e
 62
7
100
AcDbLine
 10
-34.589175
 20
-14.250950
 30
0.0
 11
-33.278199
 21
-14.171950
 31
0.0
  0
LINE
  5
3b3
100
AcDbEntity
  8
e
 62
7
100
AcDbLine
 10
-33.278199
 20
-14.171950
 30
0.0
 11
-32.151963
 21
-14.143850
 31
0.0
  0
LINE
  5
3b4
100
AcDbEntity
  8
e
 62
7
100
AcDbLine
 10
-32.151963
 20
-14.143850
 30
0.0
 11
-30.454599
 21
-14.096250
 31
0.0
  0
LINE
  5
3b5
100
AcDbEntity
  8
e
 62
7
100
AcDbLine
 10
-30.454599
 20
-14.096250
 30
0.0
 11
-28.416170
 21
-14.035950
 31
0.0
  0
LINE
  5
3b6
100
AcDbEntity
  8
e
 62
7
100
AcDbLine
 10
-28.416170
 20
-14.035950
 30
0.0
 11
-26.266741
 21
-13.969450
 31
0.0
  0
LINE
  5
3b7
100
AcDbEntity
  8
e
 62
7
100
AcDbLine
 10
-26.266741
 20
-13.969450
 30
0.0
 11
-23.370566
 21
-13.866580
 31
0.0
  0
LINE
  5
3b8
100
AcDbEntity
  8
e
 62
7
100
AcDbLine
 10
-23.370566
 20
-13.866580
 30
0.0
 11
-21.837017
 21
-13.755080
 31
0.0
  0
LINE
  5
3b9
100
AcDbEntity
  8
e
 62
7
100
AcDbLine
 10
-21.837017
 20
-13.755080
 30
0.0
 11
-21.244535
 21
-13.577650
 31
0.0
  0
LINE
  5
3ba
100
AcDbEntity
  8
e
 62
7
100
AcDbLine
 10
-21.244535
 20
-13.577650
 30
0.0
 11
-21.171565
 21
-13.277020
 31
0.0
  0
LINE
  5
3bb
100
AcDbEntity
  8
e
 62
7
100
AcDbLine
 10
-21.171565
 20
-13.277020
 30
0.0
 11
-21.218455
 21
-12.841910
 31
0.0
  0
LINE
  5
3bc
100
AcDbEntity
  8
e
 62
7
100
AcDbLine
 10
-21.218455
 20
-12.841910
 30
0.0
 11
-21.298665
 21
-12.048360
 31
0.0
  0
LINE
  5
3bd
100
AcDbEntity
  8
e
 62
7
100
AcDbLine
 10
-21.298665
 20
-12.048360
 30
0.0
 11
-21.400955
 21
-11.009250
 31
0.0
  0
LINE
  5
3be
100
AcDbEntity
  8
e
 62
7
100
AcDbLine
 10
-21.400955
 20
-11.009250
 30
0.0
 11
-21.514089
 21
-9.837440
 31
0.0
  0
LINE
  5
3bf
100
AcDbEntity
  8
e
 62
7
100
AcDbLine
 10
-21.514089
 20
-9.837440
 30
0.0
 11
-21.830563
 21
-8.113740
 31
0.0
  0
LINE
  5
3c0
100
AcDbEntity
  8
e
 62
7
100
AcDbLine
 10
-21.830563
 20
-8.113740
 30
0.0
 11
-22.491853
 21
-6.394980
 31
0.0
  0
LINE
  5
3c1
100
AcDbEntity
  8
e
 62
7
100
AcDbLine
 10
-22.491853
 20
-6.394980
 30
0.0
 11
-23.684421
 21
-4.776510
 31
0.0
  0
LINE
  5
3c2
100
AcDbEntity
  8
e
 62
7
100
AcDbLine
 10
-23.684421
 20
-4.776510
 30
0.0
 11
-24.301303
 21
-4.049500
 31
0.0
  0
LINE
  5
3c3
100
AcDbEntity
  8
e
 62
7
100
AcDbLine
 10
-24.301303
 20
-4.049500
 30
0.0
 11
-25.105227
 21
-3.484290
 31
0.0
  0
LINE
  5
3c4
100
AcDbEntity
  8
e
 62
7
100
AcDbLine
 10
-25.105227
 20
-3.484290
 30
0.0
 11
-26.979577
 21
-2.250260
 31
0.0
  0
LINE
  5
3c5
100
AcDbEntity
  8
e
 62
7
100
AcDbLine
 10
-26.979577
 20
-2.250260
 30
0.0
 11
-29.277679
 21
-1.425230
 31
0.0
  0
LINE
  5
3c6
100
AcDbEntity
  8
e
 62
7
100
AcDbLine
 10
-29.277679
 20
-1.425230
 30
0.0
 11
-31.391798
 21
-1.098550
 31
0.0
  0
LINE
  5
3c7
100
AcDbEntity
  8
e
 62
7
100
AcDbLine
 10
-31.391798
 20
-1.098550
 30
0.0
 11
-33.705829
 21
-1.033750
 31
0.0
  0
LINE
  5
3c8
100
AcDbEntity
  8
e
 62
7
100
AcDbLine
 10
-33.705829
 20
-1.033750
 30
0.0
 11
-35.910042
 21
-1.258230
 31
0.0
  0
LINE
  5
3c9
100
AcDbEntity
  8
e
 62
7
100
AcDbLine
 10
-35.910042
 20
-1.258230
 30
0.0
 11
-38.436818
 21
-2.067420
 31
0.0
  0
LINE
  5
3ca
100
AcDbEntity
  8
e
 62
7
100
AcDbLine
 10
-38.436818
 20
-2.067420
 30
0.0
 11
-40.698062
 21
-3.478510
 31
0.0
  0
LINE
  5
3cb
100
AcDbEntity
  8
e
 62
7
100
AcDbLine
 10
-40.698062
 20
-3.478510
 30
0.0
 11
-42.613374
 21
-5.426830
 31
0.0
  0
LINE
  5
3cc
100
AcDbEntity
  8
e
 62
7
100
AcDbLine
 10
-42.613374
 20
-5.426830
 30
0.0
 11
-44.102354
 21
-7.847710
 31
0.0
  0
LINE
  5
3cd
100
AcDbEntity
  8
e
 62
7
100
AcDbLine
 10
-44.102354
 20
-7.847710
 30
0.0
 11
-44.544759
 21
-8.852800
 31
0.0
  0
LINE
  5
3ce
100
AcDbEntity
  8
e
 62
7
100
AcDbLine
 10
-44.544759
 20
-8.852800
 30
0.0
 11
-44.786268
 21
-9.697970
 31
0.0
  0
LINE
  5
3cf
100
AcDbEntity
  8
e
 62
7
100
AcDbLine
 10
-44.786268
 20
-9.697970
 30
0.0
 11
-44.881598
 21
-10.680090
 31
0.0
  0
LINE
  5
3d0
100
AcDbEntity
  8
e
 62
7
100
AcDbLine
 10
-44.881598
 20
-10.680090
 30
0.0
 11
-44.885498
 21
-12.096020
 31
0.0
  0
LINE
  5
3d1
100
AcDbEntity
  8
e
 62
7
100
AcDbLine
 10
-44.885498
 20
-12.096020
 30
0.0
 11
-44.841898
 21
-13.522710
 31
0.0
  0
LINE
  5
3d2
100
AcDbEntity
  8
e
 62
7
100
AcDbLine
 10
-44.841898
 20
-13.522710
 30
0.0
 11
-44.711752
 21
-14.518750
 31
0.0
  0
LINE
  5
3d3
100
AcDbEntity
  8
e
 62
7
100
AcDbLine
 10
-44.711752
 20
-14.518750
 30
0.0
 11
-44.424551
 21
-15.401530
 31
0.0
  0
LINE
  5
3d4
100
AcDbEntity
  8
e
 62
7
100
AcDbLine
 10
-44.424551
 20
-15.401530
 30
0.0
 11
-43.909790
 21
-16.488450
 31
0.0
  0
LINE
  5
3d5
100
AcDbEntity
  8
e
 62
7
100
AcDbLine
 10
-43.909790
 20
-16.488450
 30
0.0
 11
-43.419574
 21
-17.366360
 31
0.0
  0
LINE
  5
3d6
100
AcDbEntity
  8
e
 62
7
100
AcDbLine
 10
-43.419574
 20
-17.366360
 30
0.0
 11
-42.866624
 21
-18.184320
 31
0.0
  0
LINE
  5
3d7
100
AcDbEntity
  8
e
 62
7
100
AcDbLine
 10
-42.866624
 20
-18.184320
 30
0.0
 11
-42.266283
 21
-18.921610
 31
0.0
  0
LINE
  5
3d8
100
AcDbEntity
  8
e
 62
7
100
AcDbLine
 10
-42.266283
 20
-18.921610
 30
0.0
 11
-41.633897
 21
-19.557560
 31
0.0
  0
LINE
  5
3d9
100
AcDbEntity
  8
e
 62
7
100
AcDbLine
 10
-41.633897
 20
-19.557560
 30
0.0
 11
-39.700435
 21
-20.898390
 31
0.0
  0
LINE
  5
3da
100
AcDbEntity
  8
e
 62
7
100
AcDbLine
 10
-39.700435
 20
-20.898390
 30
0.0
 11
-37.370661
 21
-21.883950
 31
0.0
  0
LINE
  5
3db
100
AcDbEntity
  8
e
 62
7
100
AcDbLine
 10
-37.370661
 20
-21.883950
 30
0.0
 11
-34.860555
 21
-22.445210
 31
0.0
  0
LINE
  5
3dc
100
AcDbEntity
  8
e
 62
7
100
AcDbLine
 10
-34.860555
 20
-22.445210
 30
0.0
 11
-32.386096
 21
-22.513110
 31
0.0
  0
LINE
  5
3dd
100
AcDbEntity
  8
e
 62
7
100
AcDbLine
 10
-32.386096
 20
-22.513110
 30
0.0
 11
-31.674983
 21
-22.453310
 31
0.0
  0
LINE
  5
3de
100
AcDbEntity
  8
e
 62
7
100
AcDbLine
 10
-31.674983
 20
-22.453310
 30
0.0
 11
-30.789441
 21
-22.379310
 31
0.0
  0
LINE
  5
3df
100
AcDbEntity
  8
e
 62
7
100
AcDbLine
 10
-30.789441
 20
-22.379310
 30
0.0
 11
-29.842330
 21
-22.300510
 31
0.0
  0
LINE
  5
3e0
100
AcDbEntity
  8
e
 62
7
100
AcDbLine
 10
-29.842330
 20
-22.300510
 30
0.0
 11
-28.946513
 21
-22.226410
 31
0.0
  0
LINE
  5
3e1
100
AcDbEntity
  8
e
 62
7
100
AcDbLine
 10
-28.946513
 20
-22.226410
 30
0.0
 11
-28.946513
 21
-22.226410
 31
0.0
  0
LINE
  5
3e2
100
AcDbEntity
  8
e
 62
7
100
AcDbLine
 10
-28.946513
 20
-22.226410
 30
0.0
 11
-28.946512
 21
-22.226410
 31
0.0
  0
LINE
  5
3e3
100
AcDbEntity
  8
e
 62
7
100
AcDbLine
 10
-28.946512
 20
-22.226410
 30
0.0
 11
-28.946512
 21
-22.226410
 31
0.0
  0
LINE
  5
3e4
100
AcDbEntity
  8
e
 62
7
100
AcDbLine
 10
-28.946512
 20
-22.226410
 30
0.0
 11
-28.946504
 21
-22.226540
 31
0.0
  0
LINE
  5
3e5
100
AcDbEntity
  8
e
 62
7
100
AcDbLine
 10
-37.048513
 20
-9.518450
 30
0.0
 11
-37.510112
 21
-9.324360
 31
0.0
  0
LINE
  5
3e6
100
AcDbEntity
  8
e
 62
7
100
AcDbLine
 10
-37.510112
 20
-9.324360
 30
0.0
 11
-37.592472
 21
-8.979940
 31
0.0
  0
LINE
  5
3e7
100
AcDbEntity
  8
e
 62
7
100
AcDbLine
 10
-37.592472
 20
-8.979940
 30
0.0
 11
-37.290846
 21
-8.466630
 31
0.0
  0
LINE
  5
3e8
100
AcDbEntity
  8
e
 62
7
100
AcDbLine
 10
-37.290846
 20
-8.466630
 30
0.0
 11
-36.600485
 21
-7.765830
 31
0.0
  0
LINE
  5
3e9
100
AcDbEntity
  8
e
 62
7
100
AcDbLine
 10
-36.600485
 20
-7.765830
 30
0.0
 11
-34.841366
 21
-6.671480
 31
0.0
  0
LINE
  5
3ea
100
AcDbEntity
  8
e
 62
7
100
AcDbLine
 10
-34.841366
 20
-6.671480
 30
0.0
 11
-32.936927
 21
-6.346900
 31
0.0
  0
LINE
  5
3eb
100
AcDbEntity
  8
e
 62
7
100
AcDbLine
 10
-32.936927
 20
-6.346900
 30
0.0
 11
-31.029711
 21
-6.787760
 31
0.0
  0
LINE
  5
3ec
100
AcDbEntity
  8
e
 62
7
100
AcDbLine
 10
-31.029711
 20
-6.787760
 30
0.0
 11
-29.262261
 21
-7.989700
 31
0.0
  0
LINE
  5
3ed
100
AcDbEntity
  8
e
 62
7
100
AcDbLine
 10
-29.262261
 20
-7.989700
 30
0.0
 11
-28.810833
 21
-8.457880
 31
0.0
  0
LINE
  5
3ee
100
AcDbEntity
  8
e
 62
7
100
AcDbLine
 10
-28.810833
 20
-8.457880
 30
0.0
 11
-28.467489
 21
-8.883900
 31
0.0
  0
LINE
  5
3ef
100
AcDbEntity
  8
e
 62
7
100
AcDbLine
 10
-28.467489
 20
-8.883900
 30
0.0
 11
-28.265796
 21
-9.220760
 31
0.0
  0
LINE
  5
3f0
100
AcDbEntity
  8
e
 62
7
100
AcDbLine
 10
-28.265796
 20
-9.220760
 30
0.0
 11
-28.239316
 21
-9.421500
 31
0.0
  0
LINE
  5
3f1
100
AcDbEntity
  8
e
 62
7
100
AcDbLine
 10
-28.239316
 20
-9.421500
 30
0.0
 11
-29.498358
 21
-9.589600
 31
0.0
  0
LINE
  5
3f2
100
AcDbEntity
  8
e
 62
7
100
AcDbLine
 10
-29.498358
 20
-9.589600
 30
0.0
 11
-32.202889
 21
-9.670800
 31
0.0
  0
LINE
  5
3f3
100
AcDbEntity
  8
e
 62
7
100
AcDbLine
 10
-32.202889
 20
-9.670800
 30
0.0
 11
-35.127931
 21
-9.651600
 31
0.0
  0
LINE
  5
3f4
100
AcDbEntity
  8
e
 62
7
100
AcDbLine
 10
-35.127931
 20
-9.651600
 30
0.0
 11
-37.048509
 21
-9.518460
 31
0.0
  0
LINE
  5
3f5
100
AcDbEntity
  8
e
 62
7
100
AcDbLine
 10
-37.048509
 20
-9.518460
 30
0.0
 11
-37.048509
 21
-9.518470
 31
0.0
  0
LINE
  5
3f6
100
AcDbEntity
  8
e
 62
7
100
AcDbLine
 10
-37.048509
 20
-9.518470
 30
0.0
 11
-37.048509
 21
-9.518480
 31
0.0
  0
LINE
  5
3f7
100
AcDbEntity
  8
e
 62
7
100
AcDbLine
 10
-37.048509
 20
-9.518480
 30
0.0
 11
-37.048509
 21
-9.518500
 31
0.0
  0
LINE
  5
3f8
100
AcDbEntity
  8
e
 62
7
100
AcDbLine
 10
-37.048509
 20
-9.518500
 30
0.0
 11
-37.048513
 21
-9.518450
 31
0.0
  0
LINE
  5
3f9
100
AcDbEntity
  8
T
 62
7
100
AcDbLine
 10
-46.469934
 20
-22.006160
 30
0.0
 11
-46.440384
 21
-21.783550
 31
0.0
  0
LINE
  5
3fa
100
AcDbEntity
  8
T
 62
7
100
AcDbLine
 10
-46.440384
 20
-21.783550
 30
0.0
 11
-46.473114
 21
-21.472390
 31
0.0
  0
LINE
  5
3fb
100
AcDbEntity
  8
T
 62
7
100
AcDbLine
 10
-46.473114
 20
-21.472390
 30
0.0
 11
-46.560724
 21
-21.113920
 31
0.0
  0
LINE
  5
3fc
100
AcDbEntity
  8
T
 62
7
100
AcDbLine
 10
-46.560724
 20
-21.113920
 30
0.0
 11
-46.695788
 21
-20.749390
 31
0.0
  0
LINE
  5
3fd
100
AcDbEntity
  8
T
 62
7
100
AcDbLine
 10
-46.695788
 20
-20.749390
 30
0.0
 11
-47.012223
 21
-16.941890
 31
0.0
  0
LINE
  5
3fe
100
AcDbEntity
  8
T
 62
7
100
AcDbLine
 10
-47.012223
 20
-16.941890
 30
0.0
 11
-47.171670
 21
-9.651010
 31
0.0
  0
LINE
  5
3ff
100
AcDbEntity
  8
T
 62
7
100
AcDbLine
 10
-47.171670
 20
-9.651010
 30
0.0
 11
-47.141970
 21
-2.465360
 31
0.0
  0
LINE
  5
400
100
AcDbEntity
  8
T
 62
7
100
AcDbLine
 10
-47.141970
 20
-2.465360
 30
0.0
 11
-46.890954
 21
1.026470
 31
0.0
  0
LINE
  5
401
100
AcDbEntity
  8
T
 62
7
100
AcDbLine
 10
-46.890954
 20
1.026470
 30
0.0
 11
-46.187107
 21
1.319570
 31
0.0
  0
LINE
  5
402
100
AcDbEntity
  8
T
 62
7
100
AcDbLine
 10
-46.187107
 20
1.319570
 30
0.0
 11
-44.987646
 21
1.408570
 31
0.0
  0
LINE
  5
403
100
AcDbEntity
  8
T
 62
7
100
AcDbLine
 10
-44.987646
 20
1.408570
 30
0.0
 11
-43.673943
 21
1.296880
 31
0.0
  0
LINE
  5
404
100
AcDbEntity
  8
T
 62
7
100
AcDbLine
 10
-43.673943
 20
1.296880
 30
0.0
 11
-42.627375
 21
0.987980
 31
0.0
  0
LINE
  5
405
100
AcDbEntity
  8
T
 62
7
100
AcDbLine
 10
-42.627375
 20
0.987980
 30
0.0
 11
-42.275921
 21
0.832360
 31
0.0
  0
LINE
  5
406
100
AcDbEntity
  8
T
 62
7
100
AcDbLine
 10
-42.275921
 20
0.832360
 30
0.0
 11
-41.971268
 21
0.749060
 31
0.0
  0
LINE
  5
407
100
AcDbEntity
  8
T
 62
7
100
AcDbLine
 10
-41.971268
 20
0.749060
 30
0.0
 11
-41.731244
 21
0.741060
 31
0.0
  0
LINE
  5
408
100
AcDbEntity
  8
T
 62
7
100
AcDbLine
 10
-41.731244
 20
0.741060
 30
0.0
 11
-41.573680
 21
0.811260
 31
0.0
  0
LINE
  5
409
100
AcDbEntity
  8
T
 62
7
100
AcDbLine
 10
-41.573680
 20
0.811260
 30
0.0
 11
-41.485340
 21
1.162670
 31
0.0
  0
LINE
  5
40a
100
AcDbEntity
  8
T
 62
7
100
AcDbLine
 10
-41.485340
 20
1.162670
 30
0.0
 11
-41.424210
 21
1.940090
 31
0.0
  0
LINE
  5
40b
100
AcDbEntity
  8
T
 62
7
100
AcDbLine
 10
-41.424210
 20
1.940090
 30
0.0
 11
-41.395810
 21
3.028600
 31
0.0
  0
LINE
  5
40c
100
AcDbEntity
  8
T
 62
7
100
AcDbLine
 10
-41.395810
 20
3.028600
 30
0.0
 11
-41.405610
 21
4.313290
 31
0.0
  0
LINE
  5
40d
100
AcDbEntity
  8
T
 62
7
100
AcDbLine
 10
-41.405610
 20
4.313290
 30
0.0
 11
-41.424270
 21
5.128130
 31
0.0
  0
LINE
  5
40e
100
AcDbEntity
  8
T
 62
7
100
AcDbLine
 10
-41.424270
 20
5.128130
 30
0.0
 11
-41.442930
 21
5.942960
 31
0.0
  0
LINE
  5
40f
100
AcDbEntity
  8
T
 62
7
100
AcDbLine
 10
-41.442930
 20
5.942960
 30
0.0
 11
-41.461590
 21
6.757790
 31
0.0
  0
LINE
  5
410
100
AcDbEntity
  8
T
 62
7
100
AcDbLine
 10
-41.461590
 20
6.757790
 30
0.0
 11
-41.480250
 21
7.572630
 31
0.0
  0
LINE
  5
411
100
AcDbEntity
  8
T
 62
7
100
AcDbLine
 10
-41.480250
 20
7.572630
 30
0.0
 11
-43.726388
 21
7.558130
 31
0.0
  0
LINE
  5
412
100
AcDbEntity
  8
T
 62
7
100
AcDbLine
 10
-43.726388
 20
7.558130
 30
0.0
 11
-45.972526
 21
7.543630
 31
0.0
  0
LINE
  5
413
100
AcDbEntity
  8
T
 62
7
100
AcDbLine
 10
-45.972526
 20
7.543630
 30
0.0
 11
-48.218664
 21
7.529030
 31
0.0
  0
LINE
  5
414
100
AcDbEntity
  8
T
 62
7
100
AcDbLine
 10
-48.218664
 20
7.529030
 30
0.0
 11
-50.464802
 21
7.514530
 31
0.0
  0
LINE
  5
415
100
AcDbEntity
  8
T
 62
7
100
AcDbLine
 10
-50.464802
 20
7.514530
 30
0.0
 11
-53.969883
 21
7.481730
 31
0.0
  0
LINE
  5
416
100
AcDbEntity
  8
T
 62
7
100
AcDbLine
 10
-53.969883
 20
7.481730
 30
0.0
 11
-56.871746
 21
7.435330
 31
0.0
  0
LINE
  5
417
100
AcDbEntity
  8
T
 62
7
100
AcDbLine
 10
-56.871746
 20
7.435330
 30
0.0
 11
-58.868705
 21
7.381630
 31
0.0
  0
LINE
  5
418
100
AcDbEntity
  8
T
 62
7
100
AcDbLine
 10
-58.868705
 20
7.381630
 30
0.0
 11
-59.659073
 21
7.326730
 31
0.0
  0
LINE
  5
419
100
AcDbEntity
  8
T
 62
7
100
AcDbLine
 10
-59.659073
 20
7.326730
 30
0.0
 11
-59.740503
 21
7.052230
 31
0.0
  0
LINE
  5
41a
100
AcDbEntity
  8
T
 62
7
100
AcDbLine
 10
-59.740503
 20
7.052230
 30
0.0
 11
-59.807183
 21
6.400680
 31
0.0
  0
LINE
  5
41b
100
AcDbEntity
  8
T
 62
7
100
AcDbLine
 10
-59.807183
 20
6.400680
 30
0.0
 11
-59.852243
 21
5.469520
 31
0.0
  0
LINE
  5
41c
100
AcDbEntity
  8
T
 62
7
100
AcDbLine
 10
-59.852243
 20
5.469520
 30
0.0
 11
-59.868793
 21
4.356230
 31
0.0
  0
LINE
  5
41d
100
AcDbEntity
  8
T
 62
7
100
AcDbLine
 10
-59.868793
 20
4.356230
 30
0.0
 11
-59.868793
 21
3.646010
 31
0.0
  0
LINE
  5
41e
100
AcDbEntity
  8
T
 62
7
100
AcDbLine
 10
-59.868793
 20
3.646010
 30
0.0
 11
-59.868793
 21
2.935790
 31
0.0
  0
LINE
  5
41f
100
AcDbEntity
  8
T
 62
7
100
AcDbLine
 10
-59.868793
 20
2.935790
 30
0.0
 11
-59.868793
 21
2.225570
 31
0.0
  0
LINE
  5
420
100
AcDbEntity
  8
T
 62
7
100
AcDbLine
 10
-59.868793
 20
2.225570
 30
0.0
 11
-59.868793
 21
1.515350
 31
0.0
  0
LINE
  5
421
100
AcDbEntity
  8
T
 62
7
100
AcDbLine
 10
-59.868793
 20
1.515350
 30
0.0
 11
-59.254542
 21
1.542250
 31
0.0
  0
LINE
  5
422
100
AcDbEntity
  8
T
 62
7
100
AcDbLine
 10
-59.254542
 20
1.542250
 30
0.0
 11
-58.640291
 21
1.569150
 31
0.0
  0
LINE
  5
423
100
AcDbEntity
  8
T
 62
7
100
AcDbLine
 10
-58.640291
 20
1.569150
 30
0.0
 11
-58.026039
 21
1.596050
 31
0.0
  0
LINE
  5
424
100
AcDbEntity
  8
T
 62
7
100
AcDbLine
 10
-58.026039
 20
1.596050
 30
0.0
 11
-57.411788
 21
1.622950
 31
0.0
  0
LINE
  5
425
100
AcDbEntity
  8
T
 62
7
100
AcDbLine
 10
-57.411788
 20
1.622950
 30
0.0
 11
-56.169808
 21
1.659350
 31
0.0
  0
LINE
  5
426
100
AcDbEntity
  8
T
 62
7
100
AcDbLine
 10
-56.169808
 20
1.659350
 30
0.0
 11
-55.366322
 21
1.628750
 31
0.0
  0
LINE
  5
427
100
AcDbEntity
  8
T
 62
7
100
AcDbLine
 10
-55.366322
 20
1.628750
 30
0.0
 11
-54.885303
 21
1.518490
 31
0.0
  0
LINE
  5
428
100
AcDbEntity
  8
T
 62
7
100
AcDbLine
 10
-54.885303
 20
1.518490
 30
0.0
 11
-54.610724
 21
1.315850
 31
0.0
  0
LINE
  5
429
100
AcDbEntity
  8
T
 62
7
100
AcDbLine
 10
-54.610724
 20
1.315850
 30
0.0
 11
-54.446638
 21
0.636350
 31
0.0
  0
LINE
  5
42a
100
AcDbEntity
  8
T
 62
7
100
AcDbLine
 10
-54.446638
 20
0.636350
 30
0.0
 11
-54.360858
 21
-1.182000
 31
0.0
  0
LINE
  5
42b
100
AcDbEntity
  8
T
 62
7
100
AcDbLine
 10
-54.360858
 20
-1.182000
 30
0.0
 11
-54.345288
 21
-4.553360
 31
0.0
  0
LINE
  5
42c
100
AcDbEntity
  8
T
 62
7
100
AcDbLine
 10
-54.345288
 20
-4.553360
 30
0.0
 11
-54.391848
 21
-9.891880
 31
0.0
  0
LINE
  5
42d
100
AcDbEntity
  8
T
 62
7
100
AcDbLine
 10
-54.391848
 20
-9.891880
 30
0.0
 11
-54.455588
 21
-14.139470
 31
0.0
  0
LINE
  5
42e
100
AcDbEntity
  8
T
 62
7
100
AcDbLine
 10
-54.455588
 20
-14.139470
 30
0.0
 11
-54.536578
 21
-17.726040
 31
0.0
  0
LINE
  5
42f
100
AcDbEntity
  8
T
 62
7
100
AcDbLine
 10
-54.536578
 20
-17.726040
 30
0.0
 11
-54.624438
 21
-20.273800
 31
0.0
  0
LINE
  5
430
100
AcDbEntity
  8
T
 62
7
100
AcDbLine
 10
-54.624438
 20
-20.273800
 30
0.0
 11
-54.708758
 21
-21.404990
 31
0.0
  0
LINE
  5
431
100
AcDbEntity
  8
T
 62
7
100
AcDbLine
 10
-54.708758
 20
-21.404990
 30
0.0
 11
-54.756688
 21
-21.584980
 31
0.0
  0
LINE
  5
432
100
AcDbEntity
  8
T
 62
7
100
AcDbLine
 10
-54.756688
 20
-21.584980
 30
0.0
 11
-54.804618
 21
-21.764970
 31
0.0
  0
LINE
  5
433
100
AcDbEntity
  8
T
 62
7
100
AcDbLine
 10
-54.804618
 20
-21.764970
 30
0.0
 11
-54.852548
 21
-21.944950
 31
0.0
  0
LINE
  5
434
100
AcDbEntity
  8
T
 62
7
100
AcDbLine
 10
-54.852548
 20
-21.944950
 30
0.0
 11
-54.900478
 21
-22.124940
 31
0.0
  0
LINE
  5
435
100
AcDbEntity
  8
T
 62
7
100
AcDbLine
 10
-54.900478
 20
-22.124940
 30
0.0
 11
-53.983628
 21
-22.145440
 31
0.0
  0
LINE
  5
436
100
AcDbEntity
  8
T
 62
7
100
AcDbLine
 10
-53.983628
 20
-22.145440
 30
0.0
 11
-53.066777
 21
-22.165940
 31
0.0
  0
LINE
  5
437
100
AcDbEntity
  8
T
 62
7
100
AcDbLine
 10
-53.066777
 20
-22.165940
 30
0.0
 11
-52.149927
 21
-22.186440
 31
0.0
  0
LINE
  5
438
100
AcDbEntity
  8
T
 62
7
100
AcDbLine
 10
-52.149927
 20
-22.186440
 30
0.0
 11
-51.233076
 21
-22.206940
 31
0.0
  0
LINE
  5
439
100
AcDbEntity
  8
T
 62
7
100
AcDbLine
 10
-51.233076
 20
-22.206940
 30
0.0
 11
-49.771903
 21
-22.243340
 31
0.0
  0
LINE
  5
43a
100
AcDbEntity
  8
T
 62
7
100
AcDbLine
 10
-49.771903
 20
-22.243340
 30
0.0
 11
-48.504523
 21
-22.281840
 31
0.0
  0
LINE
  5
43b
100
AcDbEntity
  8
T
 62
7
100
AcDbLine
 10
-48.504523
 20
-22.281840
 30
0.0
 11
-47.566738
 21
-22.317840
 31
0.0
  0
LINE
  5
43c
100
AcDbEntity
  8
T
 62
7
100
AcDbLine
 10
-47.566738
 20
-22.317840
 30
0.0
 11
-47.094350
 21
-22.346840
 31
0.0
  0
LINE
  5
43d
100
AcDbEntity
  8
T
 62
7
100
AcDbLine
 10
-47.094350
 20
-22.346840
 30
0.0
 11
-46.899262
 21
-22.337840
 31
0.0
  0
LINE
  5
43e
100
AcDbEntity
  8
T
 62
7
100
AcDbLine
 10
-46.899262
 20
-22.337840
 30
0.0
 11
-46.716499
 21
-22.270540
 31
0.0
  0
LINE
  5
43f
100
AcDbEntity
  8
T
 62
7
100
AcDbLine
 10
-46.716499
 20
-22.270540
 30
0.0
 11
-46.566551
 21
-22.156140
 31
0.0
  0
LINE
  5
440
100
AcDbEntity
  8
T
 62
7
100
AcDbLine
 10
-46.566551
 20
-22.156140
 30
0.0
 11
-46.469911
 21
-22.005790
 31
0.0
  0
LINE
  5
441
100
AcDbEntity
  8
T
 62
7
100
AcDbLine
 10
-46.469911
 20
-22.005790
 30
0.0
 11
-46.469910
 21
-22.005810
 31
0.0
  0
LINE
  5
442
100
AcDbEntity
  8
T
 62
7
100
AcDbLine
 10
-46.469910
 20
-22.005810
 30
0.0
 11
-46.469910
 21
-22.005830
 31
0.0
  0
LINE
  5
443
100
AcDbEntity
  8
T
 62
7
100
AcDbLine
 10
-46.469910
 20
-22.005830
 30
0.0
 11
-46.469909
 21
-22.005840
 31
0.0
  0
LINE
  5
444
100
AcDbEntity
  8
T
 62
7
100
AcDbLine
 10
-46.469909
 20
-22.005840
 30
0.0
 11
-46.469934
 21
-22.006160
 31
0.0
  0
LINE
  5
445
100
AcDbEntity
  8
y
 62
7
100
AcDbLine
 10
37.629008
 20
1.737700
 30
0.0
 11
37.581688
 21
2.300250
 31
0.0
  0
LINE
  5
446
100
AcDbEntity
  8
y
 62
7
100
AcDbLine
 10
37.581688
 20
2.300250
 30
0.0
 11
37.609628
 21
2.845980
 31
0.0
  0
LINE
  5
447
100
AcDbEntity
  8
y
 62
7
100
AcDbLine
 10
37.609628
 20
2.845980
 30
0.0
 11
37.713859
 21
3.383280
 31
0.0
  0
LINE
  5
448
100
AcDbEntity
  8
y
 62
7
100
AcDbLine
 10
37.713859
 20
3.383280
 30
0.0
 11
37.895402
 21
3.920510
 31
0.0
  0
LINE
  5
449
100
AcDbEntity
  8
y
 62
7
100
AcDbLine
 10
37.895402
 20
3.920510
 30
0.0
 11
39.976294
 21
8.214700
 31
0.0
  0
LINE
  5
44a
100
AcDbEntity
  8
y
 62
7
100
AcDbLine
 10
39.976294
 20
8.214700
 30
0.0
 11
44.035382
 21
16.356080
 31
0.0
  0
LINE
  5
44b
100
AcDbEntity
  8
y
 62
7
100
AcDbLine
 10
44.035382
 20
16.356080
 30
0.0
 11
48.075768
 21
24.363280
 31
0.0
  0
LINE
  5
44c
100
AcDbEntity
  8
y
 62
7
100
AcDbLine
 10
48.075768
 20
24.363280
 30
0.0
 11
50.100554
 21
28.254910
 31
0.0
  0
LINE
  5
44d
100
AcDbEntity
  8
y
 62
7
100
AcDbLine
 10
50.100554
 20
28.254910
 30
0.0
 11
50.465337
 21
28.922900
 31
0.0
  0
LINE
  5
44e
100
AcDbEntity
  8
y
 62
7
100
AcDbLine
 10
50.465337
 20
28.922900
 30
0.0
 11
50.232047
 21
29.279870
 31
0.0
  0
LINE
  5
44f
100
AcDbEntity
  8
y
 62
7
100
AcDbLine
 10
50.232047
 20
29.279870
 30
0.0
 11
49.180119
 21
29.409270
 31
0.0
  0
LINE
  5
450
100
AcDbEntity
  8
y
 62
7
100
AcDbLine
 10
49.180119
 20
29.409270
 30
0.0
 11
47.088988
 21
29.394570
 31
0.0
  0
LINE
  5
451
100
AcDbEntity
  8
y
 62
7
100
AcDbLine
 10
47.088988
 20
29.394570
 30
0.0
 11
46.245628
 21
29.376070
 31
0.0
  0
LINE
  5
452
100
AcDbEntity
  8
y
 62
7
100
AcDbLine
 10
46.245628
 20
29.376070
 30
0.0
 11
45.402269
 21
29.357570
 31
0.0
  0
LINE
  5
453
100
AcDbEntity
  8
y
 62
7
100
AcDbLine
 10
45.402269
 20
29.357570
 30
0.0
 11
44.558909
 21
29.339070
 31
0.0
  0
LINE
  5
454
100
AcDbEntity
  8
y
 62
7
100
AcDbLine
 10
44.558909
 20
29.339070
 30
0.0
 11
43.715550
 21
29.320570
 31
0.0
  0
LINE
  5
455
100
AcDbEntity
  8
y
 62
7
100
AcDbLine
 10
43.715550
 20
29.320570
 30
0.0
 11
43.695010
 21
29.122130
 31
0.0
  0
LINE
  5
456
100
AcDbEntity
  8
y
 62
7
100
AcDbLine
 10
43.695010
 20
29.122130
 30
0.0
 11
43.674470
 21
28.923700
 31
0.0
  0
LINE
  5
457
100
AcDbEntity
  8
y
 62
7
100
AcDbLine
 10
43.674470
 20
28.923700
 30
0.0
 11
43.653930
 21
28.725260
 31
0.0
  0
LINE
  5
458
100
AcDbEntity
  8
y
 62
7
100
AcDbLine
 10
43.653930
 20
28.725260
 30
0.0
 11
43.633390
 21
28.526820
 31
0.0
  0
LINE
  5
459
100
AcDbEntity
  8
y
 62
7
100
AcDbLine
 10
43.633390
 20
28.526820
 30
0.0
 11
43.351480
 21
27.351360
 31
0.0
  0
LINE
  5
45a
100
AcDbEntity
  8
y
 62
7
100
AcDbLine
 10
43.351480
 20
27.351360
 30
0.0
 11
42.739961
 21
25.520310
 31
0.0
  0
LINE
  5
45b
100
AcDbEntity
  8
y
 62
7
100
AcDbLine
 10
42.739961
 20
25.520310
 30
0.0
 11
41.922555
 21
23.377720
 31
0.0
  0
LINE
  5
45c
100
AcDbEntity
  8
y
 62
7
100
AcDbLine
 10
41.922555
 20
23.377720
 30
0.0
 11
41.022984
 21
21.267640
 31
0.0
  0
LINE
  5
45d
100
AcDbEntity
  8
y
 62
7
100
AcDbLine
 10
41.022984
 20
21.267640
 30
0.0
 11
40.544084
 21
20.255470
 31
0.0
  0
LINE
  5
45e
100
AcDbEntity
  8
y
 62
7
100
AcDbLine
 10
40.544084
 20
20.255470
 30
0.0
 11
40.220258
 21
19.712500
 31
0.0
  0
LINE
  5
45f
100
AcDbEntity
  8
y
 62
7
100
AcDbLine
 10
40.220258
 20
19.712500
 30
0.0
 11
39.980817
 21
19.550220
 31
0.0
  0
LINE
  5
460
100
AcDbEntity
  8
y
 62
7
100
AcDbLine
 10
39.980817
 20
19.550220
 30
0.0
 11
39.755072
 21
19.680140
 31
0.0
  0
LINE
  5
461
100
AcDbEntity
  8
y
 62
7
100
AcDbLine
 10
39.755072
 20
19.680140
 30
0.0
 11
39.057383
 21
20.982780
 31
0.0
  0
LINE
  5
462
100
AcDbEntity
  8
y
 62
7
100
AcDbLine
 10
39.057383
 20
20.982780
 30
0.0
 11
37.932991
 21
23.521730
 31
0.0
  0
LINE
  5
463
100
AcDbEntity
  8
y
 62
7
100
AcDbLine
 10
37.932991
 20
23.521730
 30
0.0
 11
36.810798
 21
26.284780
 31
0.0
  0
LINE
  5
464
100
AcDbEntity
  8
y
 62
7
100
AcDbLine
 10
36.810798
 20
26.284780
 30
0.0
 11
36.119705
 21
28.259700
 31
0.0
  0
LINE
  5
465
100
AcDbEntity
  8
y
 62
7
100
AcDbLine
 10
36.119705
 20
28.259700
 30
0.0
 11
36.039925
 21
28.557990
 31
0.0
  0
LINE
  5
466
100
AcDbEntity
  8
y
 62
7
100
AcDbLine
 10
36.039925
 20
28.557990
 30
0.0
 11
35.960145
 21
28.856290
 31
0.0
  0
LINE
  5
467
100
AcDbEntity
  8
y
 62
7
100
AcDbLine
 10
35.960145
 20
28.856290
 30
0.0
 11
35.880365
 21
29.154580
 31
0.0
  0
LINE
  5
468
100
AcDbEntity
  8
y
 62
7
100
AcDbLine
 10
35.880365
 20
29.154580
 30
0.0
 11
35.800585
 21
29.452870
 31
0.0
  0
LINE
  5
469
100
AcDbEntity
  8
y
 62
7
100
AcDbLine
 10
35.800585
 20
29.452870
 30
0.0
 11
34.970945
 21
29.447870
 31
0.0
  0
LINE
  5
46a
100
AcDbEntity
  8
y
 62
7
100
AcDbLine
 10
34.970945
 20
29.447870
 30
0.0
 11
34.141305
 21
29.442870
 31
0.0
  0
LINE
  5
46b
100
AcDbEntity
  8
y
 62
7
100
AcDbLine
 10
34.141305
 20
29.442870
 30
0.0
 11
33.311665
 21
29.437870
 31
0.0
  0
LINE
  5
46c
100
AcDbEntity
  8
y
 62
7
100
AcDbLine
 10
33.311665
 20
29.437870
 30
0.0
 11
32.482025
 21
29.432870
 31
0.0
  0
LINE
  5
46d
100
AcDbEntity
  8
y
 62
7
100
AcDbLine
 10
32.482025
 20
29.432870
 30
0.0
 11
31.156899
 21
29.411170
 31
0.0
  0
LINE
  5
46e
100
AcDbEntity
  8
y
 62
7
100
AcDbLine
 10
31.156899
 20
29.411170
 30
0.0
 11
30.002073
 21
29.365870
 31
0.0
  0
LINE
  5
46f
100
AcDbEntity
  8
y
 62
7
100
AcDbLine
 10
30.002073
 20
29.365870
 30
0.0
 11
29.141654
 21
29.303470
 31
0.0
  0
LINE
  5
470
100
AcDbEntity
  8
y
 62
7
100
AcDbLine
 10
29.141654
 20
29.303470
 30
0.0
 11
28.699748
 21
29.230770
 31
0.0
  0
LINE
  5
471
100
AcDbEntity
  8
y
 62
7
100
AcDbLine
 10
28.699748
 20
29.230770
 30
0.0
 11
28.462945
 21
29.106230
 31
0.0
  0
LINE
  5
472
100
AcDbEntity
  8
y
 62
7
100
AcDbLine
 10
28.462945
 20
29.106230
 30
0.0
 11
28.401925
 21
28.933580
 31
0.0
  0
LINE
  5
473
100
AcDbEntity
  8
y
 62
7
100
AcDbLine
 10
28.401925
 20
28.933580
 30
0.0
 11
28.527595
 21
28.633060
 31
0.0
  0
LINE
  5
474
100
AcDbEntity
  8
y
 62
7
100
AcDbLine
 10
28.527595
 20
28.633060
 30
0.0
 11
28.850853
 21
28.124880
 31
0.0
  0
LINE
  5
475
100
AcDbEntity
  8
y
 62
7
100
AcDbLine
 10
28.850853
 20
28.124880
 30
0.0
 11
30.311164
 21
25.515040
 31
0.0
  0
LINE
  5
476
100
AcDbEntity
  8
y
 62
7
100
AcDbLine
 10
30.311164
 20
25.515040
 30
0.0
 11
32.773383
 21
20.866930
 31
0.0
  0
LINE
  5
477
100
AcDbEntity
  8
y
 62
7
100
AcDbLine
 10
32.773383
 20
20.866930
 30
0.0
 11
35.135343
 21
16.288510
 31
0.0
  0
LINE
  5
478
100
AcDbEntity
  8
y
 62
7
100
AcDbLine
 10
35.135343
 20
16.288510
 30
0.0
 11
36.294879
 21
13.887730
 31
0.0
  0
LINE
  5
479
100
AcDbEntity
  8
y
 62
7
100
AcDbLine
 10
36.294879
 20
13.887730
 30
0.0
 11
36.354999
 21
13.251740
 31
0.0
  0
LINE
  5
47a
100
AcDbEntity
  8
y
 62
7
100
AcDbLine
 10
36.354999
 20
13.251740
 30
0.0
 11
35.999056
 21
12.173680
 31
0.0
  0
LINE
  5
47b
100
AcDbEntity
  8
y
 62
7
100
AcDbLine
 10
35.999056
 20
12.173680
 30
0.0
 11
34.986399
 21
10.099220
 31
0.0
  0
LINE
  5
47c
100
AcDbEntity
  8
y
 62
7
100
AcDbLine
 10
34.986399
 20
10.099220
 30
0.0
 11
33.076380
 21
6.474030
 31
0.0
  0
LINE
  5
47d
100
AcDbEntity
  8
y
 62
7
100
AcDbLine
 10
33.076380
 20
6.474030
 30
0.0
 11
32.019364
 21
4.468470
 31
0.0
  0
LINE
  5
47e
100
AcDbEntity
  8
y
 62
7
100
AcDbLine
 10
32.019364
 20
4.468470
 30
0.0
 11
31.153760
 21
2.791270
 31
0.0
  0
LINE
  5
47f
100
AcDbEntity
  8
y
 62
7
100
AcDbLine
 10
31.153760
 20
2.791270
 30
0.0
 11
30.568891
 21
1.617970
 31
0.0
  0
LINE
  5
480
100
AcDbEntity
  8
y
 62
7
100
AcDbLine
 10
30.568891
 20
1.617970
 30
0.0
 11
30.354085
 21
1.124120
 31
0.0
  0
LINE
  5
481
100
AcDbEntity
  8
y
 62
7
100
AcDbLine
 10
30.354085
 20
1.124120
 30
0.0
 11
30.620270
 21
1.027620
 31
0.0
  0
LINE
  5
482
100
AcDbEntity
  8
y
 62
7
100
AcDbLine
 10
30.620270
 20
1.027620
 30
0.0
 11
31.345032
 21
0.936120
 31
0.0
  0
LINE
  5
483
100
AcDbEntity
  8
y
 62
7
100
AcDbLine
 10
31.345032
 20
0.936120
 30
0.0
 11
32.417680
 21
0.860020
 31
0.0
  0
LINE
  5
484
100
AcDbEntity
  8
y
 62
7
100
AcDbLine
 10
32.417680
 20
0.860020
 30
0.0
 11
33.727522
 21
0.809620
 31
0.0
  0
LINE
  5
485
100
AcDbEntity
  8
y
 62
7
100
AcDbLine
 10
33.727522
 20
0.809620
 30
0.0
 11
35.064740
 21
0.772920
 31
0.0
  0
LINE
  5
486
100
AcDbEntity
  8
y
 62
7
100
AcDbLine
 10
35.064740
 20
0.772920
 30
0.0
 11
36.211926
 21
0.734320
 31
0.0
  0
LINE
  5
487
100
AcDbEntity
  8
y
 62
7
100
AcDbLine
 10
36.211926
 20
0.734320
 30
0.0
 11
37.047004
 21
0.698320
 31
0.0
  0
LINE
  5
488
100
AcDbEntity
  8
y
 62
7
100
AcDbLine
 10
37.047004
 20
0.698320
 30
0.0
 11
37.447900
 21
0.669420
 31
0.0
  0
LINE
  5
489
100
AcDbEntity
  8
y
 62
7
100
AcDbLine
 10
37.447900
 20
0.669420
 30
0.0
 11
37.604294
 21
0.698420
 31
0.0
  0
LINE
  5
48a
100
AcDbEntity
  8
y
 62
7
100
AcDbLine
 10
37.604294
 20
0.698420
 30
0.0
 11
37.683614
 21
0.868280
 31
0.0
  0
LINE
  5
48b
100
AcDbEntity
  8
y
 62
7
100
AcDbLine
 10
37.683614
 20
0.868280
 30
0.0
 11
37.690314
 21
1.205430
 31
0.0
  0
LINE
  5
48c
100
AcDbEntity
  8
y
 62
7
100
AcDbLine
 10
37.690314
 20
1.205430
 30
0.0
 11
37.628964
 21
1.736370
 31
0.0
  0
LINE
  5
48d
100
AcDbEntity
  8
y
 62
7
100
AcDbLine
 10
37.628964
 20
1.736370
 30
0.0
 11
37.628963
 21
1.736380
 31
0.0
  0
LINE
  5
48e
100
AcDbEntity
  8
y
 62
7
100
AcDbLine
 10
37.628963
 20
1.736380
 30
0.0
 11
37.628962
 21
1.736390
 31
0.0
  0
LINE
  5
48f
100
AcDbEntity
  8
y
 62
7
100
AcDbLine
 10
37.628962
 20
1.736390
 30
0.0
 11
37.628962
 21
1.736400
 31
0.0
  0
LINE
  5
490
100
AcDbEntity
  8
y
 62
7
100
AcDbLine
 10
37.628962
 20
1.736400
 30
0.0
 11
37.629008
 21
1.737700
 31
0.0
  0
LINE
  5
491
100
AcDbEntity
  8
r
 62
7
100
AcDbLine
 10
22.292258
 20
9.675550
 30
0.0
 11
21.870319
 21
12.395520
 31
0.0
  0
LINE
  5
492
100
AcDbEntity
  8
r
 62
7
100
AcDbLine
 10
21.870319
 20
12.395520
 30
0.0
 11
21.629806
 21
16.391680
 31
0.0
  0
LINE
  5
493
100
AcDbEntity
  8
r
 62
7
100
AcDbLine
 10
21.629806
 20
16.391680
 30
0.0
 11
21.618476
 21
20.186680
 31
0.0
  0
LINE
  5
494
100
AcDbEntity
  8
r
 62
7
100
AcDbLine
 10
21.618476
 20
20.186680
 30
0.0
 11
21.884079
 21
22.303150
 31
0.0
  0
LINE
  5
495
100
AcDbEntity
  8
r
 62
7
100
AcDbLine
 10
21.884079
 20
22.303150
 30
0.0
 11
22.442259
 21
22.969600
 31
0.0
  0
LINE
  5
496
100
AcDbEntity
  8
r
 62
7
100
AcDbLine
 10
22.442259
 20
22.969600
 30
0.0
 11
23.273077
 21
23.478450
 31
0.0
  0
LINE
  5
497
100
AcDbEntity
  8
r
 62
7
100
AcDbLine
 10
23.273077
 20
23.478450
 30
0.0
 11
24.285934
 21
23.789410
 31
0.0
  0
LINE
  5
498
100
AcDbEntity
  8
r
 62
7
100
AcDbLine
 10
24.285934
 20
23.789410
 30
0.0
 11
25.390229
 21
23.862210
 31
0.0
  0
LINE
  5
499
100
AcDbEntity
  8
r
 62
7
100
AcDbLine
 10
25.390229
 20
23.862210
 30
0.0
 11
25.738226
 21
23.843610
 31
0.0
  0
LINE
  5
49a
100
AcDbEntity
  8
r
 62
7
100
AcDbLine
 10
25.738226
 20
23.843610
 30
0.0
 11
26.086224
 21
23.825010
 31
0.0
  0
LINE
  5
49b
100
AcDbEntity
  8
r
 62
7
100
AcDbLine
 10
26.086224
 20
23.825010
 30
0.0
 11
26.434221
 21
23.806410
 31
0.0
  0
LINE
  5
49c
100
AcDbEntity
  8
r
 62
7
100
AcDbLine
 10
26.434221
 20
23.806410
 30
0.0
 11
26.782218
 21
23.787810
 31
0.0
  0
LINE
  5
49d
100
AcDbEntity
  8
r
 62
7
100
AcDbLine
 10
26.782218
 20
23.787810
 30
0.0
 11
26.800788
 21
24.636500
 31
0.0
  0
LINE
  5
49e
100
AcDbEntity
  8
r
 62
7
100
AcDbLine
 10
26.800788
 20
24.636500
 30
0.0
 11
26.819358
 21
25.485190
 31
0.0
  0
LINE
  5
49f
100
AcDbEntity
  8
r
 62
7
100
AcDbLine
 10
26.819358
 20
25.485190
 30
0.0
 11
26.837938
 21
26.333880
 31
0.0
  0
LINE
  5
4a0
100
AcDbEntity
  8
r
 62
7
100
AcDbLine
 10
26.837938
 20
26.333880
 30
0.0
 11
26.856508
 21
27.182570
 31
0.0
  0
LINE
  5
4a1
100
AcDbEntity
  8
r
 62
7
100
AcDbLine
 10
26.856508
 20
27.182570
 30
0.0
 11
26.875088
 21
28.031260
 31
0.0
  0
LINE
  5
4a2
100
AcDbEntity
  8
r
 62
7
100
AcDbLine
 10
26.875088
 20
28.031260
 30
0.0
 11
26.893658
 21
28.879950
 31
0.0
  0
LINE
  5
4a3
100
AcDbEntity
  8
r
 62
7
100
AcDbLine
 10
26.893658
 20
28.879950
 30
0.0
 11
26.912238
 21
29.728640
 31
0.0
  0
LINE
  5
4a4
100
AcDbEntity
  8
r
 62
7
100
AcDbLine
 10
26.912238
 20
29.728640
 30
0.0
 11
26.930808
 21
30.577330
 31
0.0
  0
LINE
  5
4a5
100
AcDbEntity
  8
r
 62
7
100
AcDbLine
 10
26.930808
 20
30.577330
 30
0.0
 11
26.779942
 21
30.531530
 31
0.0
  0
LINE
  5
4a6
100
AcDbEntity
  8
r
 62
7
100
AcDbLine
 10
26.779942
 20
30.531530
 30
0.0
 11
26.629076
 21
30.485730
 31
0.0
  0
LINE
  5
4a7
100
AcDbEntity
  8
r
 62
7
100
AcDbLine
 10
26.629076
 20
30.485730
 30
0.0
 11
26.478210
 21
30.439930
 31
0.0
  0
LINE
  5
4a8
100
AcDbEntity
  8
r
 62
7
100
AcDbLine
 10
26.478210
 20
30.439930
 30
0.0
 11
26.327344
 21
30.394130
 31
0.0
  0
LINE
  5
4a9
100
AcDbEntity
  8
r
 62
7
100
AcDbLine
 10
26.327344
 20
30.394130
 30
0.0
 11
26.012885
 21
30.303030
 31
0.0
  0
LINE
  5
4aa
100
AcDbEntity
  8
r
 62
7
100
AcDbLine
 10
26.012885
 20
30.303030
 30
0.0
 11
25.602787
 21
30.190360
 31
0.0
  0
LINE
  5
4ab
100
AcDbEntity
  8
r
 62
7
100
AcDbLine
 10
25.602787
 20
30.190360
 30
0.0
 11
25.150177
 21
30.070470
 31
0.0
  0
LINE
  5
4ac
100
AcDbEntity
  8
r
 62
7
100
AcDbLine
 10
25.150177
 20
30.070470
 30
0.0
 11
24.708186
 21
29.957690
 31
0.0
  0
LINE
  5
4ad
100
AcDbEntity
  8
r
 62
7
100
AcDbLine
 10
24.708186
 20
29.957690
 30
0.0
 11
23.654518
 21
29.617630
 31
0.0
  0
LINE
  5
4ae
100
AcDbEntity
  8
r
 62
7
100
AcDbLine
 10
23.654518
 20
29.617630
 30
0.0
 11
22.653924
 21
29.163320
 31
0.0
  0
LINE
  5
4af
100
AcDbEntity
  8
r
 62
7
100
AcDbLine
 10
22.653924
 20
29.163320
 30
0.0
 11
21.854714
 21
28.672650
 31
0.0
  0
LINE
  5
4b0
100
AcDbEntity
  8
r
 62
7
100
AcDbLine
 10
21.854714
 20
28.672650
 30
0.0
 11
21.405197
 21
28.223470
 31
0.0
  0
LINE
  5
4b1
100
AcDbEntity
  8
r
 62
7
100
AcDbLine
 10
21.405197
 20
28.223470
 30
0.0
 11
21.083457
 21
27.930690
 31
0.0
  0
LINE
  5
4b2
100
AcDbEntity
  8
r
 62
7
100
AcDbLine
 10
21.083457
 20
27.930690
 30
0.0
 11
20.720079
 21
27.962890
 31
0.0
  0
LINE
  5
4b3
100
AcDbEntity
  8
r
 62
7
100
AcDbLine
 10
20.720079
 20
27.962890
 30
0.0
 11
20.422940
 21
28.265330
 31
0.0
  0
LINE
  5
4b4
100
AcDbEntity
  8
r
 62
7
100
AcDbLine
 10
20.422940
 20
28.265330
 30
0.0
 11
20.299921
 21
28.783390
 31
0.0
  0
LINE
  5
4b5
100
AcDbEntity
  8
r
 62
7
100
AcDbLine
 10
20.299921
 20
28.783390
 30
0.0
 11
20.260961
 21
29.170010
 31
0.0
  0
LINE
  5
4b6
100
AcDbEntity
  8
r
 62
7
100
AcDbLine
 10
20.260961
 20
29.170010
 30
0.0
 11
19.992082
 21
29.368920
 31
0.0
  0
LINE
  5
4b7
100
AcDbEntity
  8
r
 62
7
100
AcDbLine
 10
19.992082
 20
29.368920
 30
0.0
 11
19.265272
 21
29.442520
 31
0.0
  0
LINE
  5
4b8
100
AcDbEntity
  8
r
 62
7
100
AcDbLine
 10
19.265272
 20
29.442520
 30
0.0
 11
17.852523
 21
29.453220
 31
0.0
  0
LINE
  5
4b9
100
AcDbEntity
  8
r
 62
7
100
AcDbLine
 10
17.852523
 20
29.453220
 30
0.0
 11
17.240674
 21
29.453230
 31
0.0
  0
LINE
  5
4ba
100
AcDbEntity
  8
r
 62
7
100
AcDbLine
 10
17.240674
 20
29.453230
 30
0.0
 11
16.628825
 21
29.453240
 31
0.0
  0
LINE
  5
4bb
100
AcDbEntity
  8
r
 62
7
100
AcDbLine
 10
16.628825
 20
29.453240
 30
0.0
 11
16.016976
 21
29.453250
 31
0.0
  0
LINE
  5
4bc
100
AcDbEntity
  8
r
 62
7
100
AcDbLine
 10
16.016976
 20
29.453250
 30
0.0
 11
15.405127
 21
29.453260
 31
0.0
  0
LINE
  5
4bd
100
AcDbEntity
  8
r
 62
7
100
AcDbLine
 10
15.405127
 20
29.453260
 30
0.0
 11
15.405127
 21
26.941680
 31
0.0
  0
LINE
  5
4be
100
AcDbEntity
  8
r
 62
7
100
AcDbLine
 10
15.405127
 20
26.941680
 30
0.0
 11
15.405127
 21
24.430090
 31
0.0
  0
LINE
  5
4bf
100
AcDbEntity
  8
r
 62
7
100
AcDbLine
 10
15.405127
 20
24.430090
 30
0.0
 11
15.405127
 21
21.918510
 31
0.0
  0
LINE
  5
4c0
100
AcDbEntity
  8
r
 62
7
100
AcDbLine
 10
15.405127
 20
21.918510
 30
0.0
 11
15.405127
 21
19.406920
 31
0.0
  0
LINE
  5
4c1
100
AcDbEntity
  8
r
 62
7
100
AcDbLine
 10
15.405127
 20
19.406920
 30
0.0
 11
15.405127
 21
16.895340
 31
0.0
  0
LINE
  5
4c2
100
AcDbEntity
  8
r
 62
7
100
AcDbLine
 10
15.405127
 20
16.895340
 30
0.0
 11
15.405127
 21
14.383760
 31
0.0
  0
LINE
  5
4c3
100
AcDbEntity
  8
r
 62
7
100
AcDbLine
 10
15.405127
 20
14.383760
 30
0.0
 11
15.405127
 21
11.872170
 31
0.0
  0
LINE
  5
4c4
100
AcDbEntity
  8
r
 62
7
100
AcDbLine
 10
15.405127
 20
11.872170
 30
0.0
 11
15.405127
 21
9.360590
 31
0.0
  0
LINE
  5
4c5
100
AcDbEntity
  8
r
 62
7
100
AcDbLine
 10
15.405127
 20
9.360590
 30
0.0
 11
16.165804
 21
9.339790
 31
0.0
  0
LINE
  5
4c6
100
AcDbEntity
  8
r
 62
7
100
AcDbLine
 10
16.165804
 20
9.339790
 30
0.0
 11
16.926482
 21
9.318990
 31
0.0
  0
LINE
  5
4c7
100
AcDbEntity
  8
r
 62
7
100
AcDbLine
 10
16.926482
 20
9.318990
 30
0.0
 11
17.687159
 21
9.298190
 31
0.0
  0
LINE
  5
4c8
100
AcDbEntity
  8
r
 62
7
100
AcDbLine
 10
17.687159
 20
9.298190
 30
0.0
 11
18.447836
 21
9.277390
 31
0.0
  0
LINE
  5
4c9
100
AcDbEntity
  8
r
 62
7
100
AcDbLine
 10
18.447836
 20
9.277390
 30
0.0
 11
19.668232
 21
9.240590
 31
0.0
  0
LINE
  5
4ca
100
AcDbEntity
  8
r
 62
7
100
AcDbLine
 10
19.668232
 20
9.240590
 30
0.0
 11
20.741825
 21
9.201890
 31
0.0
  0
LINE
  5
4cb
100
AcDbEntity
  8
r
 62
7
100
AcDbLine
 10
20.741825
 20
9.201890
 30
0.0
 11
21.552570
 21
9.165890
 31
0.0
  0
LINE
  5
4cc
100
AcDbEntity
  8
r
 62
7
100
AcDbLine
 10
21.552570
 20
9.165890
 30
0.0
 11
21.984423
 21
9.137190
 31
0.0
  0
LINE
  5
4cd
100
AcDbEntity
  8
r
 62
7
100
AcDbLine
 10
21.984423
 20
9.137190
 30
0.0
 11
22.221703
 21
9.134190
 31
0.0
  0
LINE
  5
4ce
100
AcDbEntity
  8
r
 62
7
100
AcDbLine
 10
22.221703
 20
9.134190
 30
0.0
 11
22.344020
 21
9.208890
 31
0.0
  0
LINE
  5
4cf
100
AcDbEntity
  8
r
 62
7
100
AcDbLine
 10
22.344020
 20
9.208890
 30
0.0
 11
22.363500
 21
9.382210
 31
0.0
  0
LINE
  5
4d0
100
AcDbEntity
  8
r
 62
7
100
AcDbLine
 10
22.363500
 20
9.382210
 30
0.0
 11
22.292260
 21
9.675390
 31
0.0
  0
LINE
  5
4d1
100
AcDbEntity
  8
r
 62
7
100
AcDbLine
 10
22.292260
 20
9.675390
 30
0.0
 11
22.292259
 21
9.675410
 31
0.0
  0
LINE
  5
4d2
100
AcDbEntity
  8
r
 62
7
100
AcDbLine
 10
22.292259
 20
9.675410
 30
0.0
 11
22.292258
 21
9.675430
 31
0.0
  0
LINE
  5
4d3
100
AcDbEntity
  8
r
 62
7
100
AcDbLine
 10
22.292258
 20
9.675430
 30
0.0
 11
22.292256
 21
9.675450
 31
0.0
  0
LINE
  5
4d4
100
AcDbEntity
  8
r
 62
7
100
AcDbLine
 10
22.292256
 20
9.675450
 30
0.0
 11
22.292258
 21
9.675550
 31
0.0
  0
LINE
  5
4d5
100
AcDbEntity
  8
o
 62
7
100
AcDbLine
 10
5.092288
 20
9.362710
 30
0.0
 11
5.982546
 21
9.622230
 31
0.0
  0
LINE
  5
4d6
100
AcDbEntity
  8
o
 62
7
100
AcDbLine
 10
5.982546
 20
9.622230
 30
0.0
 11
6.861560
 21
9.924190
 31
0.0
  0
LINE
  5
4d7
100
AcDbEntity
  8
o
 62
7
100
AcDbLine
 10
6.861560
 20
9.924190
 30
0.0
 11
7.627999
 21
10.231090
 31
0.0
  0
LINE
  5
4d8
100
AcDbEntity
  8
o
 62
7
100
AcDbLine
 10
7.627999
 20
10.231090
 30
0.0
 11
8.180528
 21
10.505430
 31
0.0
  0
LINE
  5
4d9
100
AcDbEntity
  8
o
 62
7
100
AcDbLine
 10
8.180528
 20
10.505430
 30
0.0
 11
9.516905
 21
11.458840
 31
0.0
  0
LINE
  5
4da
100
AcDbEntity
  8
o
 62
7
100
AcDbLine
 10
9.516905
 20
11.458840
 30
0.0
 11
10.768279
 21
12.647730
 31
0.0
  0
LINE
  5
4db
100
AcDbEntity
  8
o
 62
7
100
AcDbLine
 10
10.768279
 20
12.647730
 30
0.0
 11
11.851704
 21
13.982470
 31
0.0
  0
LINE
  5
4dc
100
AcDbEntity
  8
o
 62
7
100
AcDbLine
 10
11.851704
 20
13.982470
 30
0.0
 11
12.684237
 21
15.373380
 31
0.0
  0
LINE
  5
4dd
100
AcDbEntity
  8
o
 62
7
100
AcDbLine
 10
12.684237
 20
15.373380
 30
0.0
 11
13.159894
 21
16.414240
 31
0.0
  0
LINE
  5
4de
100
AcDbEntity
  8
o
 62
7
100
AcDbLine
 10
13.159894
 20
16.414240
 30
0.0
 11
13.420774
 21
17.282060
 31
0.0
  0
LINE
  5
4df
100
AcDbEntity
  8
o
 62
7
100
AcDbLine
 10
13.420774
 20
17.282060
 30
0.0
 11
13.530576
 21
18.301070
 31
0.0
  0
LINE
  5
4e0
100
AcDbEntity
  8
o
 62
7
100
AcDbLine
 10
13.530576
 20
18.301070
 30
0.0
 11
13.552996
 21
19.795510
 31
0.0
  0
LINE
  5
4e1
100
AcDbEntity
  8
o
 62
7
100
AcDbLine
 10
13.552996
 20
19.795510
 30
0.0
 11
13.530196
 21
21.247740
 31
0.0
  0
LINE
  5
4e2
100
AcDbEntity
  8
o
 62
7
100
AcDbLine
 10
13.530196
 20
21.247740
 30
0.0
 11
13.431436
 21
22.247950
 31
0.0
  0
LINE
  5
4e3
100
AcDbEntity
  8
o
 62
7
100
AcDbLine
 10
13.431436
 20
22.247950
 30
0.0
 11
13.211078
 21
23.054590
 31
0.0
  0
LINE
  5
4e4
100
AcDbEntity
  8
o
 62
7
100
AcDbLine
 10
13.211078
 20
23.054590
 30
0.0
 11
12.823469
 21
23.926130
 31
0.0
  0
LINE
  5
4e5
100
AcDbEntity
  8
o
 62
7
100
AcDbLine
 10
12.823469
 20
23.926130
 30
0.0
 11
11.991955
 21
25.236090
 31
0.0
  0
LINE
  5
4e6
100
AcDbEntity
  8
o
 62
7
100
AcDbLine
 10
11.991955
 20
25.236090
 30
0.0
 11
10.830236
 21
26.574630
 31
0.0
  0
LINE
  5
4e7
100
AcDbEntity
  8
o
 62
7
100
AcDbLine
 10
10.830236
 20
26.574630
 30
0.0
 11
9.517766
 21
27.758760
 31
0.0
  0
LINE
  5
4e8
100
AcDbEntity
  8
o
 62
7
100
AcDbLine
 10
9.517766
 20
27.758760
 30
0.0
 11
8.233999
 21
28.605530
 31
0.0
  0
LINE
  5
4e9
100
AcDbEntity
  8
o
 62
7
100
AcDbLine
 10
8.233999
 20
28.605530
 30
0.0
 11
4.140733
 21
29.914280
 31
0.0
  0
LINE
  5
4ea
100
AcDbEntity
  8
o
 62
7
100
AcDbLine
 10
4.140733
 20
29.914280
 30
0.0
 11
-0.015958
 21
29.874680
 31
0.0
  0
LINE
  5
4eb
100
AcDbEntity
  8
o
 62
7
100
AcDbLine
 10
-0.015958
 20
29.874680
 30
0.0
 11
-3.843087
 21
28.553800
 31
0.0
  0
LINE
  5
4ec
100
AcDbEntity
  8
o
 62
7
100
AcDbLine
 10
-3.843087
 20
28.553800
 30
0.0
 11
-6.947666
 21
26.018550
 31
0.0
  0
LINE
  5
4ed
100
AcDbEntity
  8
o
 62
7
100
AcDbLine
 10
-6.947666
 20
26.018550
 30
0.0
 11
-8.063793
 21
24.521330
 31
0.0
  0
LINE
  5
4ee
100
AcDbEntity
  8
o
 62
7
100
AcDbLine
 10
-8.063793
 20
24.521330
 30
0.0
 11
-8.753528
 21
23.107630
 31
0.0
  0
LINE
  5
4ef
100
AcDbEntity
  8
o
 62
7
100
AcDbLine
 10
-8.753528
 20
23.107630
 30
0.0
 11
-9.103696
 21
21.527470
 31
0.0
  0
LINE
  5
4f0
100
AcDbEntity
  8
o
 62
7
100
AcDbLine
 10
-9.103696
 20
21.527470
 30
0.0
 11
-9.201124
 21
19.530880
 31
0.0
  0
LINE
  5
4f1
100
AcDbEntity
  8
o
 62
7
100
AcDbLine
 10
-9.201124
 20
19.530880
 30
0.0
 11
-9.178357
 21
18.077800
 31
0.0
  0
LINE
  5
4f2
100
AcDbEntity
  8
o
 62
7
100
AcDbLine
 10
-9.178357
 20
18.077800
 30
0.0
 11
-9.079426
 21
17.077210
 31
0.0
  0
LINE
  5
4f3
100
AcDbEntity
  8
o
 62
7
100
AcDbLine
 10
-9.079426
 20
17.077210
 30
0.0
 11
-8.858383
 21
16.269440
 31
0.0
  0
LINE
  5
4f4
100
AcDbEntity
  8
o
 62
7
100
AcDbLine
 10
-8.858383
 20
16.269440
 30
0.0
 11
-8.469282
 21
15.394810
 31
0.0
  0
LINE
  5
4f5
100
AcDbEntity
  8
o
 62
7
100
AcDbLine
 10
-8.469282
 20
15.394810
 30
0.0
 11
-7.546257
 21
13.904170
 31
0.0
  0
LINE
  5
4f6
100
AcDbEntity
  8
o
 62
7
100
AcDbLine
 10
-7.546257
 20
13.904170
 30
0.0
 11
-6.319659
 21
12.458800
 31
0.0
  0
LINE
  5
4f7
100
AcDbEntity
  8
o
 62
7
100
AcDbLine
 10
-6.319659
 20
12.458800
 30
0.0
 11
-4.960343
 21
11.235060
 31
0.0
  0
LINE
  5
4f8
100
AcDbEntity
  8
o
 62
7
100
AcDbLine
 10
-4.960343
 20
11.235060
 30
0.0
 11
-3.639168
 21
10.409300
 31
0.0
  0
LINE
  5
4f9
100
AcDbEntity
  8
o
 62
7
100
AcDbLine
 10
-3.639168
 20
10.409300
 30
0.0
 11
-2.189319
 21
9.834260
 31
0.0
  0
LINE
  5
4fa
100
AcDbEntity
  8
o
 62
7
100
AcDbLine
 10
-2.189319
 20
9.834260
 30
0.0
 11
-0.589077
 21
9.333280
 31
0.0
  0
LINE
  5
4fb
100
AcDbEntity
  8
o
 62
7
100
AcDbLine
 10
-0.589077
 20
9.333280
 30
0.0
 11
0.910907
 21
8.975790
 31
0.0
  0
LINE
  5
4fc
100
AcDbEntity
  8
o
 62
7
100
AcDbLine
 10
0.910907
 20
8.975790
 30
0.0
 11
2.059981
 21
8.831180
 31
0.0
  0
LINE
  5
4fd
100
AcDbEntity
  8
o
 62
7
100
AcDbLine
 10
2.059981
 20
8.831180
 30
0.0
 11
2.590791
 21
8.868080
 31
0.0
  0
LINE
  5
4fe
100
AcDbEntity
  8
o
 62
7
100
AcDbLine
 10
2.590791
 20
8.868080
 30
0.0
 11
3.339443
 21
8.980630
 31
0.0
  0
LINE
  5
4ff
100
AcDbEntity
  8
o
 62
7
100
AcDbLine
 10
3.339443
 20
8.980630
 30
0.0
 11
4.206439
 21
9.151330
 31
0.0
  0
LINE
  5
500
100
AcDbEntity
  8
o
 62
7
100
AcDbLine
 10
4.206439
 20
9.151330
 30
0.0
 11
5.092288
 21
9.362710
 31
0.0
  0
LINE
  5
501
100
AcDbEntity
  8
o
 62
7
100
AcDbLine
 10
0.059299
 20
15.133120
 30
0.0
 11
-1.846469
 21
16.892230
 31
0.0
  0
LINE
  5
502
100
AcDbEntity
  8
o
 62
7
100
AcDbLine
 10
-1.846469
 20
16.892230
 30
0.0
 11
-2.689860
 21
18.971150
 31
0.0
  0
LINE
  5
503
100
AcDbEntity
  8
o
 62
7
100
AcDbLine
 10
-2.689860
 20
18.971150
 30
0.0
 11
-2.433977
 21
21.105280
 31
0.0
  0
LINE
  5
504
100
AcDbEntity
  8
o
 62
7
100
AcDbLine
 10
-2.433977
 20
21.105280
 30
0.0
 11
-1.041921
 21
23.030010
 31
0.0
  0
LINE
  5
505
100
AcDbEntity
  8
o
 62
7
100
AcDbLine
 10
-1.041921
 20
23.030010
 30
0.0
 11
0.999569
 21
24.177330
 31
0.0
  0
LINE
  5
506
100
AcDbEntity
  8
o
 62
7
100
AcDbLine
 10
0.999569
 20
24.177330
 30
0.0
 11
3.183288
 21
24.326750
 31
0.0
  0
LINE
  5
507
100
AcDbEntity
  8
o
 62
7
100
AcDbLine
 10
3.183288
 20
24.326750
 30
0.0
 11
5.266036
 21
23.515970
 31
0.0
  0
LINE
  5
508
100
AcDbEntity
  8
o
 62
7
100
AcDbLine
 10
5.266036
 20
23.515970
 30
0.0
 11
7.004612
 21
21.782700
 31
0.0
  0
LINE
  5
509
100
AcDbEntity
  8
o
 62
7
100
AcDbLine
 10
7.004612
 20
21.782700
 30
0.0
 11
7.528845
 21
20.394910
 31
0.0
  0
LINE
  5
50a
100
AcDbEntity
  8
o
 62
7
100
AcDbLine
 10
7.528845
 20
20.394910
 30
0.0
 11
7.524315
 21
18.770960
 31
0.0
  0
LINE
  5
50b
100
AcDbEntity
  8
o
 62
7
100
AcDbLine
 10
7.524315
 20
18.770960
 30
0.0
 11
7.033041
 21
17.183050
 31
0.0
  0
LINE
  5
50c
100
AcDbEntity
  8
o
 62
7
100
AcDbLine
 10
7.033041
 20
17.183050
 30
0.0
 11
6.097039
 21
15.903350
 31
0.0
  0
LINE
  5
50d
100
AcDbEntity
  8
o
 62
7
100
AcDbLine
 10
6.097039
 20
15.903350
 30
0.0
 11
4.761542
 21
15.113140
 31
0.0
  0
LINE
  5
50e
100
AcDbEntity
  8
o
 62
7
100
AcDbLine
 10
4.761542
 20
15.113140
 30
0.0
 11
3.096582
 21
14.694120
 31
0.0
  0
LINE
  5
50f
100
AcDbEntity
  8
o
 62
7
100
AcDbLine
 10
3.096582
 20
14.694120
 30
0.0
 11
1.422416
 21
14.687120
 31
0.0
  0
LINE
  5
510
100
AcDbEntity
  8
o
 62
7
100
AcDbLine
 10
1.422416
 20
14.687120
 30
0.0
 11
0.059299
 21
15.133120
 31
0.0
  0
LINE
  5
511
100
AcDbEntity
  8
t
 62
7
100
AcDbLine
 10
-12.951563
 20
9.771130
 30
0.0
 11
-12.989533
 21
10.318290
 31
0.0
  0
LINE
  5
512
100
AcDbEntity
  8
t
 62
7
100
AcDbLine
 10
-12.989533
 20
10.318290
 30
0.0
 11
-13.058703
 21
11.243340
 31
0.0
  0
LINE
  5
513
100
AcDbEntity
  8
t
 62
7
100
AcDbLine
 10
-13.058703
 20
11.243340
 30
0.0
 11
-13.149243
 21
12.417020
 31
0.0
  0
LINE
  5
514
100
AcDbEntity
  8
t
 62
7
100
AcDbLine
 10
-13.149243
 20
12.417020
 30
0.0
 11
-13.251309
 21
13.710100
 31
0.0
  0
LINE
  5
515
100
AcDbEntity
  8
t
 62
7
100
AcDbLine
 10
-13.251309
 20
13.710100
 30
0.0
 11
-13.336509
 21
15.214300
 31
0.0
  0
LINE
  5
516
100
AcDbEntity
  8
t
 62
7
100
AcDbLine
 10
-13.336509
 20
15.214300
 30
0.0
 11
-13.381129
 21
16.962820
 31
0.0
  0
LINE
  5
517
100
AcDbEntity
  8
t
 62
7
100
AcDbLine
 10
-13.381129
 20
16.962820
 30
0.0
 11
-13.382329
 21
18.738630
 31
0.0
  0
LINE
  5
518
100
AcDbEntity
  8
t
 62
7
100
AcDbLine
 10
-13.382329
 20
18.738630
 30
0.0
 11
-13.337309
 21
20.324680
 31
0.0
  0
LINE
  5
519
100
AcDbEntity
  8
t
 62
7
100
AcDbLine
 10
-13.337309
 20
20.324680
 30
0.0
 11
-13.295449
 21
21.184570
 31
0.0
  0
LINE
  5
51a
100
AcDbEntity
  8
t
 62
7
100
AcDbLine
 10
-13.295449
 20
21.184570
 30
0.0
 11
-13.253589
 21
22.044470
 31
0.0
  0
LINE
  5
51b
100
AcDbEntity
  8
t
 62
7
100
AcDbLine
 10
-13.253589
 20
22.044470
 30
0.0
 11
-13.211729
 21
22.904360
 31
0.0
  0
LINE
  5
51c
100
AcDbEntity
  8
t
 62
7
100
AcDbLine
 10
-13.211729
 20
22.904360
 30
0.0
 11
-13.169869
 21
23.764260
 31
0.0
  0
LINE
  5
51d
100
AcDbEntity
  8
t
 62
7
100
AcDbLine
 10
-13.169869
 20
23.764260
 30
0.0
 11
-12.872213
 21
23.761260
 31
0.0
  0
LINE
  5
51e
100
AcDbEntity
  8
t
 62
7
100
AcDbLine
 10
-12.872213
 20
23.761260
 30
0.0
 11
-12.574557
 21
23.758260
 31
0.0
  0
LINE
  5
51f
100
AcDbEntity
  8
t
 62
7
100
AcDbLine
 10
-12.574557
 20
23.758260
 30
0.0
 11
-12.276900
 21
23.755260
 31
0.0
  0
LINE
  5
520
100
AcDbEntity
  8
t
 62
7
100
AcDbLine
 10
-12.276900
 20
23.755260
 30
0.0
 11
-11.979244
 21
23.752260
 31
0.0
  0
LINE
  5
521
100
AcDbEntity
  8
t
 62
7
100
AcDbLine
 10
-11.979244
 20
23.752260
 30
0.0
 11
-11.475192
 21
23.738460
 31
0.0
  0
LINE
  5
522
100
AcDbEntity
  8
t
 62
7
100
AcDbLine
 10
-11.475192
 20
23.738460
 30
0.0
 11
-10.982922
 21
23.708860
 31
0.0
  0
LINE
  5
523
100
AcDbEntity
  8
t
 62
7
100
AcDbLine
 10
-10.982922
 20
23.708860
 30
0.0
 11
-10.558865
 21
23.667860
 31
0.0
  0
LINE
  5
524
100
AcDbEntity
  8
t
 62
7
100
AcDbLine
 10
-10.558865
 20
23.667860
 30
0.0
 11
-10.259452
 21
23.619960
 31
0.0
  0
LINE
  5
525
100
AcDbEntity
  8
t
 62
7
100
AcDbLine
 10
-10.259452
 20
23.619960
 30
0.0
 11
-9.964342
 21
23.617960
 31
0.0
  0
LINE
  5
526
100
AcDbEntity
  8
t
 62
7
100
AcDbLine
 10
-9.964342
 20
23.617960
 30
0.0
 11
-9.796565
 21
23.917620
 31
0.0
  0
LINE
  5
527
100
AcDbEntity
  8
t
 62
7
100
AcDbLine
 10
-9.796565
 20
23.917620
 30
0.0
 11
-9.709013
 21
24.723330
 31
0.0
  0
LINE
  5
528
100
AcDbEntity
  8
t
 62
7
100
AcDbLine
 10
-9.709013
 20
24.723330
 30
0.0
 11
-9.654581
 21
26.239060
 31
0.0
  0
LINE
  5
529
100
AcDbEntity
  8
t
 62
7
100
AcDbLine
 10
-9.654581
 20
26.239060
 30
0.0
 11
-9.641535
 21
27.447190
 31
0.0
  0
LINE
  5
52a
100
AcDbEntity
  8
t
 62
7
100
AcDbLine
 10
-9.641535
 20
27.447190
 30
0.0
 11
-9.676187
 21
28.375160
 31
0.0
  0
LINE
  5
52b
100
AcDbEntity
  8
t
 62
7
100
AcDbLine
 10
-9.676187
 20
28.375160
 30
0.0
 11
-9.757744
 21
29.012290
 31
0.0
  0
LINE
  5
52c
100
AcDbEntity
  8
t
 62
7
100
AcDbLine
 10
-9.757744
 20
29.012290
 30
0.0
 11
-9.885413
 21
29.347910
 31
0.0
  0
LINE
  5
52d
100
AcDbEntity
  8
t
 62
7
100
AcDbLine
 10
-9.885413
 20
29.347910
 30
0.0
 11
-10.109510
 21
29.502910
 31
0.0
  0
LINE
  5
52e
100
AcDbEntity
  8
t
 62
7
100
AcDbLine
 10
-10.109510
 20
29.502910
 30
0.0
 11
-10.481225
 21
29.619070
 31
0.0
  0
LINE
  5
52f
100
AcDbEntity
  8
t
 62
7
100
AcDbLine
 10
-10.481225
 20
29.619070
 30
0.0
 11
-10.980295
 21
29.691970
 31
0.0
  0
LINE
  5
530
100
AcDbEntity
  8
t
 62
7
100
AcDbLine
 10
-10.980295
 20
29.691970
 30
0.0
 11
-11.586459
 21
29.717270
 31
0.0
  0
LINE
  5
531
100
AcDbEntity
  8
t
 62
7
100
AcDbLine
 10
-11.586459
 20
29.717270
 30
0.0
 11
-12.544353
 21
29.771770
 31
0.0
  0
LINE
  5
532
100
AcDbEntity
  8
t
 62
7
100
AcDbLine
 10
-12.544353
 20
29.771770
 30
0.0
 11
-13.057480
 21
30.068410
 31
0.0
  0
LINE
  5
533
100
AcDbEntity
  8
t
 62
7
100
AcDbLine
 10
-13.057480
 20
30.068410
 30
0.0
 11
-13.264750
 21
30.806730
 31
0.0
  0
LINE
  5
534
100
AcDbEntity
  8
t
 62
7
100
AcDbLine
 10
-13.264750
 20
30.806730
 30
0.0
 11
-13.305070
 21
32.186280
 31
0.0
  0
LINE
  5
535
100
AcDbEntity
  8
t
 62
7
100
AcDbLine
 10
-13.305070
 20
32.186280
 30
0.0
 11
-13.319140
 21
32.898250
 31
0.0
  0
LINE
  5
536
100
AcDbEntity
  8
t
 62
7
100
AcDbLine
 10
-13.319140
 20
32.898250
 30
0.0
 11
-13.355300
 21
33.630340
 31
0.0
  0
LINE
  5
537
100
AcDbEntity
  8
t
 62
7
100
AcDbLine
 10
-13.355300
 20
33.630340
 30
0.0
 11
-13.408070
 21
34.296450
 31
0.0
  0
LINE
  5
538
100
AcDbEntity
  8
t
 62
7
100
AcDbLine
 10
-13.408070
 20
34.296450
 30
0.0
 11
-13.471980
 21
34.810470
 31
0.0
  0
LINE
  5
539
100
AcDbEntity
  8
t
 62
7
100
AcDbLine
 10
-13.471980
 20
34.810470
 30
0.0
 11
-13.655485
 21
35.430320
 31
0.0
  0
LINE
  5
53a
100
AcDbEntity
  8
t
 62
7
100
AcDbLine
 10
-13.655485
 20
35.430320
 30
0.0
 11
-13.925537
 21
35.756870
 31
0.0
  0
LINE
  5
53b
100
AcDbEntity
  8
t
 62
7
100
AcDbLine
 10
-13.925537
 20
35.756870
 30
0.0
 11
-14.237261
 21
35.763870
 31
0.0
  0
LINE
  5
53c
100
AcDbEntity
  8
t
 62
7
100
AcDbLine
 10
-14.237261
 20
35.763870
 30
0.0
 11
-14.545781
 21
35.426530
 31
0.0
  0
LINE
  5
53d
100
AcDbEntity
  8
t
 62
7
100
AcDbLine
 10
-14.545781
 20
35.426530
 30
0.0
 11
-14.732868
 21
35.169390
 31
0.0
  0
LINE
  5
53e
100
AcDbEntity
  8
t
 62
7
100
AcDbLine
 10
-14.732868
 20
35.169390
 30
0.0
 11
-15.085853
 21
34.746960
 31
0.0
  0
LINE
  5
53f
100
AcDbEntity
  8
t
 62
7
100
AcDbLine
 10
-15.085853
 20
34.746960
 30
0.0
 11
-15.554158
 21
34.217820
 31
0.0
  0
LINE
  5
540
100
AcDbEntity
  8
t
 62
7
100
AcDbLine
 10
-15.554158
 20
34.217820
 30
0.0
 11
-16.087206
 21
33.640590
 31
0.0
  0
LINE
  5
541
100
AcDbEntity
  8
t
 62
7
100
AcDbLine
 10
-16.087206
 20
33.640590
 30
0.0
 11
-19.930687
 21
29.532730
 31
0.0
  0
LINE
  5
542
100
AcDbEntity
  8
t
 62
7
100
AcDbLine
 10
-19.930687
 20
29.532730
 30
0.0
 11
-22.415225
 21
26.791100
 31
0.0
  0
LINE
  5
543
100
AcDbEntity
  8
t
 62
7
100
AcDbLine
 10
-22.415225
 20
26.791100
 30
0.0
 11
-23.751470
 21
25.175460
 31
0.0
  0
LINE
  5
544
100
AcDbEntity
  8
t
 62
7
100
AcDbLine
 10
-23.751470
 20
25.175460
 30
0.0
 11
-24.150074
 21
24.445590
 31
0.0
  0
LINE
  5
545
100
AcDbEntity
  8
t
 62
7
100
AcDbLine
 10
-24.150074
 20
24.445590
 30
0.0
 11
-24.099964
 21
24.147360
 31
0.0
  0
LINE
  5
546
100
AcDbEntity
  8
t
 62
7
100
AcDbLine
 10
-24.099964
 20
24.147360
 30
0.0
 11
-23.864460
 21
23.982010
 31
0.0
  0
LINE
  5
547
100
AcDbEntity
  8
t
 62
7
100
AcDbLine
 10
-23.864460
 20
23.982010
 30
0.0
 11
-23.315821
 21
23.911010
 31
0.0
  0
LINE
  5
548
100
AcDbEntity
  8
t
 62
7
100
AcDbLine
 10
-23.315821
 20
23.911010
 30
0.0
 11
-22.326302
 21
23.895910
 31
0.0
  0
LINE
  5
549
100
AcDbEntity
  8
t
 62
7
100
AcDbLine
 10
-22.326302
 20
23.895910
 30
0.0
 11
-21.422860
 21
23.876510
 31
0.0
  0
LINE
  5
54a
100
AcDbEntity
  8
t
 62
7
100
AcDbLine
 10
-21.422860
 20
23.876510
 30
0.0
 11
-20.837509
 21
23.807910
 31
0.0
  0
LINE
  5
54b
100
AcDbEntity
  8
t
 62
7
100
AcDbLine
 10
-20.837509
 20
23.807910
 30
0.0
 11
-20.498864
 21
23.674520
 31
0.0
  0
LINE
  5
54c
100
AcDbEntity
  8
t
 62
7
100
AcDbLine
 10
-20.498864
 20
23.674520
 30
0.0
 11
-20.335538
 21
23.460740
 31
0.0
  0
LINE
  5
54d
100
AcDbEntity
  8
t
 62
7
100
AcDbLine
 10
-20.335538
 20
23.460740
 30
0.0
 11
-20.250128
 21
21.201370
 31
0.0
  0
LINE
  5
54e
100
AcDbEntity
  8
t
 62
7
100
AcDbLine
 10
-20.250128
 20
21.201370
 30
0.0
 11
-20.335948
 21
16.824330
 31
0.0
  0
LINE
  5
54f
100
AcDbEntity
  8
t
 62
7
100
AcDbLine
 10
-20.335948
 20
16.824330
 30
0.0
 11
-20.527005
 21
12.422160
 31
0.0
  0
LINE
  5
550
100
AcDbEntity
  8
t
 62
7
100
AcDbLine
 10
-20.527005
 20
12.422160
 30
0.0
 11
-20.757307
 21
10.087400
 31
0.0
  0
LINE
  5
551
100
AcDbEntity
  8
t
 62
7
100
AcDbLine
 10
-20.757307
 20
10.087400
 30
0.0
 11
-20.922746
 21
9.360740
 31
0.0
  0
LINE
  5
552
100
AcDbEntity
  8
t
 62
7
100
AcDbLine
 10
-20.922746
 20
9.360740
 30
0.0
 11
-20.516095
 21
8.979840
 31
0.0
  0
LINE
  5
553
100
AcDbEntity
  8
t
 62
7
100
AcDbLine
 10
-20.516095
 20
8.979840
 30
0.0
 11
-19.236159
 21
8.854260
 31
0.0
  0
LINE
  5
554
100
AcDbEntity
  8
t
 62
7
100
AcDbLine
 10
-19.236159
 20
8.854260
 30
0.0
 11
-16.781746
 21
8.893560
 31
0.0
  0
LINE
  5
555
100
AcDbEntity
  8
t
 62
7
100
AcDbLine
 10
-16.781746
 20
8.893560
 30
0.0
 11
-15.812632
 21
8.921760
 31
0.0
  0
LINE
  5
556
100
AcDbEntity
  8
t
 62
7
100
AcDbLine
 10
-15.812632
 20
8.921760
 30
0.0
 11
-14.843517
 21
8.950060
 31
0.0
  0
LINE
  5
557
100
AcDbEntity
  8
t
 62
7
100
AcDbLine
 10
-14.843517
 20
8.950060
 30
0.0
 11
-13.874403
 21
8.978260
 31
0.0
  0
LINE
  5
558
100
AcDbEntity
  8
t
 62
7
100
AcDbLine
 10
-13.874403
 20
8.978260
 30
0.0
 11
-12.905288
 21
9.006460
 31
0.0
  0
LINE
  5
559
100
AcDbEntity
  8
t
 62
7
100
AcDbLine
 10
-12.905288
 20
9.006460
 30
0.0
 11
-12.916858
 21
9.197440
 31
0.0
  0
LINE
  5
55a
100
AcDbEntity
  8
t
 62
7
100
AcDbLine
 10
-12.916858
 20
9.197440
 30
0.0
 11
-12.928428
 21
9.388430
 31
0.0
  0
LINE
  5
55b
100
AcDbEntity
  8
t
 62
7
100
AcDbLine
 10
-12.928428
 20
9.388430
 30
0.0
 11
-12.939998
 21
9.579420
 31
0.0
  0
LINE
  5
55c
100
AcDbEntity
  8
t
 62
7
100
AcDbLine
 10
-12.939998
 20
9.579420
 30
0.0
 11
-12.951563
 21
9.771130
 31
0.0
  0
LINE
  5
55d
100
AcDbEntity
  8
S
 62
7
100
AcDbLine
 10
-28.890060
 20
0.735880
 30
0.0
 11
-26.670709
 21
1.735000
 31
0.0
  0
LINE
  5
55e
100
AcDbEntity
  8
S
 62
7
100
AcDbLine
 10
-26.670709
 20
1.735000
 30
0.0
 11
-24.978450
 21
3.036490
 31
0.0
  0
LINE
  5
55f
100
AcDbEntity
  8
S
 62
7
100
AcDbLine
 10
-24.978450
 20
3.036490
 30
0.0
 11
-23.725499
 21
4.729590
 31
0.0
  0
LINE
  5
560
100
AcDbEntity
  8
S
 62
7
100
AcDbLine
 10
-23.725499
 20
4.729590
 30
0.0
 11
-22.831650
 21
6.220170
 31
0.0
  0
LINE
  5
561
100
AcDbEntity
  8
S
 62
7
100
AcDbLine
 10
-22.831650
 20
6.220170
 30
0.0
 11
-22.192959
 21
7.859030
 31
0.0
  0
LINE
  5
562
100
AcDbEntity
  8
S
 62
7
100
AcDbLine
 10
-22.192959
 20
7.859030
 30
0.0
 11
-21.746200
 21
9.623030
 31
0.0
  0
LINE
  5
563
100
AcDbEntity
  8
S
 62
7
100
AcDbLine
 10
-21.746200
 20
9.623030
 30
0.0
 11
-21.428140
 21
11.489050
 31
0.0
  0
LINE
  5
564
100
AcDbEntity
  8
S
 62
7
100
AcDbLine
 10
-21.428140
 20
11.489050
 30
0.0
 11
-21.273682
 21
12.562280
 31
0.0
  0
LINE
  5
565
100
AcDbEntity
  8
S
 62
7
100
AcDbLine
 10
-21.273682
 20
12.562280
 30
0.0
 11
-21.304662
 21
13.769570
 31
0.0
  0
LINE
  5
566
100
AcDbEntity
  8
S
 62
7
100
AcDbLine
 10
-21.304662
 20
13.769570
 30
0.0
 11
-21.520305
 21
15.125340
 31
0.0
  0
LINE
  5
567
100
AcDbEntity
  8
S
 62
7
100
AcDbLine
 10
-21.520305
 20
15.125340
 30
0.0
 11
-21.713513
 21
15.808910
 31
0.0
  0
LINE
  5
568
100
AcDbEntity
  8
S
 62
7
100
AcDbLine
 10
-21.713513
 20
15.808910
 30
0.0
 11
-21.999347
 21
16.414430
 31
0.0
  0
LINE
  5
569
100
AcDbEntity
  8
S
 62
7
100
AcDbLine
 10
-21.999347
 20
16.414430
 30
0.0
 11
-22.416003
 21
17.007050
 31
0.0
  0
LINE
  5
56a
100
AcDbEntity
  8
S
 62
7
100
AcDbLine
 10
-22.416003
 20
17.007050
 30
0.0
 11
-23.001673
 21
17.651910
 31
0.0
  0
LINE
  5
56b
100
AcDbEntity
  8
S
 62
7
100
AcDbLine
 10
-23.001673
 20
17.651910
 30
0.0
 11
-23.487703
 21
18.124800
 31
0.0
  0
LINE
  5
56c
100
AcDbEntity
  8
S
 62
7
100
AcDbLine
 10
-23.487703
 20
18.124800
 30
0.0
 11
-23.923447
 21
18.512060
 31
0.0
  0
LINE
  5
56d
100
AcDbEntity
  8
S
 62
7
100
AcDbLine
 10
-23.923447
 20
18.512060
 30
0.0
 11
-24.261265
 21
18.773720
 31
0.0
  0
LINE
  5
56e
100
AcDbEntity
  8
S
 62
7
100
AcDbLine
 10
-24.261265
 20
18.773720
 30
0.0
 11
-24.453519
 21
18.869820
 31
0.0
  0
LINE
  5
56f
100
AcDbEntity
  8
S
 62
7
100
AcDbLine
 10
-24.453519
 20
18.869820
 30
0.0
 11
-24.660461
 21
18.939820
 31
0.0
  0
LINE
  5
570
100
AcDbEntity
  8
S
 62
7
100
AcDbLine
 10
-24.660461
 20
18.939820
 30
0.0
 11
-25.038270
 21
19.130420
 31
0.0
  0
LINE
  5
571
100
AcDbEntity
  8
S
 62
7
100
AcDbLine
 10
-25.038270
 20
19.130420
 30
0.0
 11
-25.533200
 21
19.412510
 31
0.0
  0
LINE
  5
572
100
AcDbEntity
  8
S
 62
7
100
AcDbLine
 10
-25.533200
 20
19.412510
 30
0.0
 11
-26.091504
 21
19.756980
 31
0.0
  0
LINE
  5
573
100
AcDbEntity
  8
S
 62
7
100
AcDbLine
 10
-26.091504
 20
19.756980
 30
0.0
 11
-26.702234
 21
20.125350
 31
0.0
  0
LINE
  5
574
100
AcDbEntity
  8
S
 62
7
100
AcDbLine
 10
-26.702234
 20
20.125350
 30
0.0
 11
-27.339907
 21
20.472500
 31
0.0
  0
LINE
  5
575
100
AcDbEntity
  8
S
 62
7
100
AcDbLine
 10
-27.339907
 20
20.472500
 30
0.0
 11
-27.928978
 21
20.759400
 31
0.0
  0
LINE
  5
576
100
AcDbEntity
  8
S
 62
7
100
AcDbLine
 10
-27.928978
 20
20.759400
 30
0.0
 11
-28.393897
 21
20.947000
 31
0.0
  0
LINE
  5
577
100
AcDbEntity
  8
S
 62
7
100
AcDbLine
 10
-28.393897
 20
20.947000
 30
0.0
 11
-29.430853
 21
21.487890
 31
0.0
  0
LINE
  5
578
100
AcDbEntity
  8
S
 62
7
100
AcDbLine
 10
-29.430853
 20
21.487890
 30
0.0
 11
-30.745005
 21
22.388640
 31
0.0
  0
LINE
  5
579
100
AcDbEntity
  8
S
 62
7
100
AcDbLine
 10
-30.745005
 20
22.388640
 30
0.0
 11
-31.873167
 21
23.304680
 31
0.0
  0
LINE
  5
57a
100
AcDbEntity
  8
S
 62
7
100
AcDbLine
 10
-31.873167
 20
23.304680
 30
0.0
 11
-32.352151
 21
23.891470
 31
0.0
  0
LINE
  5
57b
100
AcDbEntity
  8
S
 62
7
100
AcDbLine
 10
-32.352151
 20
23.891470
 30
0.0
 11
-31.882058
 21
24.443640
 31
0.0
  0
LINE
  5
57c
100
AcDbEntity
  8
S
 62
7
100
AcDbLine
 10
-31.882058
 20
24.443640
 30
0.0
 11
-30.711065
 21
24.594440
 31
0.0
  0
LINE
  5
57d
100
AcDbEntity
  8
S
 62
7
100
AcDbLine
 10
-30.711065
 20
24.594440
 30
0.0
 11
-29.198100
 21
24.355630
 31
0.0
  0
LINE
  5
57e
100
AcDbEntity
  8
S
 62
7
100
AcDbLine
 10
-29.198100
 20
24.355630
 30
0.0
 11
-27.702091
 21
23.738990
 31
0.0
  0
LINE
  5
57f
100
AcDbEntity
  8
S
 62
7
100
AcDbLine
 10
-27.702091
 20
23.738990
 30
0.0
 11
-27.266992
 21
23.492110
 31
0.0
  0
LINE
  5
580
100
AcDbEntity
  8
S
 62
7
100
AcDbLine
 10
-27.266992
 20
23.492110
 30
0.0
 11
-26.884366
 21
23.289930
 31
0.0
  0
LINE
  5
581
100
AcDbEntity
  8
S
 62
7
100
AcDbLine
 10
-26.884366
 20
23.289930
 30
0.0
 11
-26.595561
 21
23.153330
 31
0.0
  0
LINE
  5
582
100
AcDbEntity
  8
S
 62
7
100
AcDbLine
 10
-26.595561
 20
23.153330
 30
0.0
 11
-26.441926
 21
23.103130
 31
0.0
  0
LINE
  5
583
100
AcDbEntity
  8
S
 62
7
100
AcDbLine
 10
-26.441926
 20
23.103130
 30
0.0
 11
-26.373906
 21
23.413480
 31
0.0
  0
LINE
  5
584
100
AcDbEntity
  8
S
 62
7
100
AcDbLine
 10
-26.373906
 20
23.413480
 30
0.0
 11
-26.318196
 21
24.258510
 31
0.0
  0
LINE
  5
585
100
AcDbEntity
  8
S
 62
7
100
AcDbLine
 10
-26.318196
 20
24.258510
 30
0.0
 11
-26.280556
 21
25.509140
 31
0.0
  0
LINE
  5
586
100
AcDbEntity
  8
S
 62
7
100
AcDbLine
 10
-26.280556
 20
25.509140
 30
0.0
 11
-26.266736
 21
27.036330
 31
0.0
  0
LINE
  5
587
100
AcDbEntity
  8
S
 62
7
100
AcDbLine
 10
-26.266736
 20
27.036330
 30
0.0
 11
-26.266736
 21
28.019630
 31
0.0
  0
LINE
  5
588
100
AcDbEntity
  8
S
 62
7
100
AcDbLine
 10
-26.266736
 20
28.019630
 30
0.0
 11
-26.266736
 21
29.002930
 31
0.0
  0
LINE
  5
589
100
AcDbEntity
  8
S
 62
7
100
AcDbLine
 10
-26.266736
 20
29.002930
 30
0.0
 11
-26.266736
 21
29.986220
 31
0.0
  0
LINE
  5
58a
100
AcDbEntity
  8
S
 62
7
100
AcDbLine
 10
-26.266736
 20
29.986220
 30
0.0
 11
-26.266736
 21
30.969520
 31
0.0
  0
LINE
  5
58b
100
AcDbEntity
  8
S
 62
7
100
AcDbLine
 10
-26.266736
 20
30.969520
 30
0.0
 11
-26.746293
 21
31.021420
 31
0.0
  0
LINE
  5
58c
100
AcDbEntity
  8
S
 62
7
100
AcDbLine
 10
-26.746293
 20
31.021420
 30
0.0
 11
-27.225851
 21
31.073320
 31
0.0
  0
LINE
  5
58d
100
AcDbEntity
  8
S
 62
7
100
AcDbLine
 10
-27.225851
 20
31.073320
 30
0.0
 11
-27.705408
 21
31.125220
 31
0.0
  0
LINE
  5
58e
100
AcDbEntity
  8
S
 62
7
100
AcDbLine
 10
-27.705408
 20
31.125220
 30
0.0
 11
-28.184965
 21
31.177120
 31
0.0
  0
LINE
  5
58f
100
AcDbEntity
  8
S
 62
7
100
AcDbLine
 10
-28.184965
 20
31.177120
 30
0.0
 11
-31.618220
 21
31.412760
 31
0.0
  0
LINE
  5
590
100
AcDbEntity
  8
S
 62
7
100
AcDbLine
 10
-31.618220
 20
31.412760
 30
0.0
 11
-34.184334
 21
31.229290
 31
0.0
  0
LINE
  5
591
100
AcDbEntity
  8
S
 62
7
100
AcDbLine
 10
-34.184334
 20
31.229290
 30
0.0
 11
-36.153714
 21
30.576870
 31
0.0
  0
LINE
  5
592
100
AcDbEntity
  8
S
 62
7
100
AcDbLine
 10
-36.153714
 20
30.576870
 30
0.0
 11
-37.796769
 21
29.405670
 31
0.0
  0
LINE
  5
593
100
AcDbEntity
  8
S
 62
7
100
AcDbLine
 10
-37.796769
 20
29.405670
 30
0.0
 11
-38.769038
 21
28.291230
 31
0.0
  0
LINE
  5
594
100
AcDbEntity
  8
S
 62
7
100
AcDbLine
 10
-38.769038
 20
28.291230
 30
0.0
 11
-39.492787
 21
26.962540
 31
0.0
  0
LINE
  5
595
100
AcDbEntity
  8
S
 62
7
100
AcDbLine
 10
-39.492787
 20
26.962540
 30
0.0
 11
-39.975012
 21
25.402850
 31
0.0
  0
LINE
  5
596
100
AcDbEntity
  8
S
 62
7
100
AcDbLine
 10
-39.975012
 20
25.402850
 30
0.0
 11
-40.222705
 21
23.595390
 31
0.0
  0
LINE
  5
597
100
AcDbEntity
  8
S
 62
7
100
AcDbLine
 10
-40.222705
 20
23.595390
 30
0.0
 11
-40.277145
 21
22.452790
 31
0.0
  0
LINE
  5
598
100
AcDbEntity
  8
S
 62
7
100
AcDbLine
 10
-40.277145
 20
22.452790
 30
0.0
 11
-40.226585
 21
21.642440
 31
0.0
  0
LINE
  5
599
100
AcDbEntity
  8
S
 62
7
100
AcDbLine
 10
-40.226585
 20
21.642440
 30
0.0
 11
-40.034816
 21
20.937980
 31
0.0
  0
LINE
  5
59a
100
AcDbEntity
  8
S
 62
7
100
AcDbLine
 10
-40.034816
 20
20.937980
 30
0.0
 11
-39.665627
 21
20.113080
 31
0.0
  0
LINE
  5
59b
100
AcDbEntity
  8
S
 62
7
100
AcDbLine
 10
-39.665627
 20
20.113080
 30
0.0
 11
-38.797248
 21
18.754840
 31
0.0
  0
LINE
  5
59c
100
AcDbEntity
  8
S
 62
7
100
AcDbLine
 10
-38.797248
 20
18.754840
 30
0.0
 11
-37.426541
 21
17.275920
 31
0.0
  0
LINE
  5
59d
100
AcDbEntity
  8
S
 62
7
100
AcDbLine
 10
-37.426541
 20
17.275920
 30
0.0
 11
-35.453922
 21
15.581800
 31
0.0
  0
LINE
  5
59e
100
AcDbEntity
  8
S
 62
7
100
AcDbLine
 10
-35.453922
 20
15.581800
 30
0.0
 11
-32.779806
 21
13.577960
 31
0.0
  0
LINE
  5
59f
100
AcDbEntity
  8
S
 62
7
100
AcDbLine
 10
-32.779806
 20
13.577960
 30
0.0
 11
-31.459606
 21
12.201650
 31
0.0
  0
LINE
  5
5a0
100
AcDbEntity
  8
S
 62
7
100
AcDbLine
 10
-31.459606
 20
12.201650
 30
0.0
 11
-30.847694
 21
10.611840
 31
0.0
  0
LINE
  5
5a1
100
AcDbEntity
  8
S
 62
7
100
AcDbLine
 10
-30.847694
 20
10.611840
 30
0.0
 11
-30.980063
 21
9.045420
 31
0.0
  0
LINE
  5
5a2
100
AcDbEntity
  8
S
 62
7
100
AcDbLine
 10
-30.980063
 20
9.045420
 30
0.0
 11
-31.892706
 21
7.739290
 31
0.0
  0
LINE
  5
5a3
100
AcDbEntity
  8
S
 62
7
100
AcDbLine
 10
-31.892706
 20
7.739290
 30
0.0
 11
-32.788894
 21
7.356700
 31
0.0
  0
LINE
  5
5a4
100
AcDbEntity
  8
S
 62
7
100
AcDbLine
 10
-32.788894
 20
7.356700
 30
0.0
 11
-34.077237
 21
7.231330
 31
0.0
  0
LINE
  5
5a5
100
AcDbEntity
  8
S
 62
7
100
AcDbLine
 10
-34.077237
 20
7.231330
 30
0.0
 11
-35.496117
 21
7.362620
 31
0.0
  0
LINE
  5
5a6
100
AcDbEntity
  8
S
 62
7
100
AcDbLine
 10
-35.496117
 20
7.362620
 30
0.0
 11
-36.783920
 21
7.749990
 31
0.0
  0
LINE
  5
5a7
100
AcDbEntity
  8
S
 62
7
100
AcDbLine
 10
-36.783920
 20
7.749990
 30
0.0
 11
-37.220534
 21
7.969780
 31
0.0
  0
LINE
  5
5a8
100
AcDbEntity
  8
S
 62
7
100
AcDbLine
 10
-37.220534
 20
7.969780
 30
0.0
 11
-37.578083
 21
8.190890
 31
0.0
  0
LINE
  5
5a9
100
AcDbEntity
  8
S
 62
7
100
AcDbLine
 10
-37.578083
 20
8.190890
 30
0.0
 11
-37.819671
 21
8.387600
 31
0.0
  0
LINE
  5
5aa
100
AcDbEntity
  8
S
 62
7
100
AcDbLine
 10
-37.819671
 20
8.387600
 30
0.0
 11
-37.908401
 21
8.534180
 31
0.0
  0
LINE
  5
5ab
100
AcDbEntity
  8
S
 62
7
100
AcDbLine
 10
-37.908401
 20
8.534180
 30
0.0
 11
-38.241554
 21
8.978690
 31
0.0
  0
LINE
  5
5ac
100
AcDbEntity
  8
S
 62
7
100
AcDbLine
 10
-38.241554
 20
8.978690
 30
0.0
 11
-38.992913
 21
9.520860
 31
0.0
  0
LINE
  5
5ad
100
AcDbEntity
  8
S
 62
7
100
AcDbLine
 10
-38.992913
 20
9.520860
 30
0.0
 11
-39.790324
 21
9.931680
 31
0.0
  0
LINE
  5
5ae
100
AcDbEntity
  8
S
 62
7
100
AcDbLine
 10
-39.790324
 20
9.931680
 30
0.0
 11
-40.261635
 21
9.982180
 31
0.0
  0
LINE
  5
5af
100
AcDbEntity
  8
S
 62
7
100
AcDbLine
 10
-40.261635
 20
9.982180
 30
0.0
 11
-40.332585
 21
9.533820
 31
0.0
  0
LINE
  5
5b0
100
AcDbEntity
  8
S
 62
7
100
AcDbLine
 10
-40.332585
 20
9.533820
 30
0.0
 11
-40.366695
 21
8.490940
 31
0.0
  0
LINE
  5
5b1
100
AcDbEntity
  8
S
 62
7
100
AcDbLine
 10
-40.366695
 20
8.490940
 30
0.0
 11
-40.362095
 21
7.009040
 31
0.0
  0
LINE
  5
5b2
100
AcDbEntity
  8
S
 62
7
100
AcDbLine
 10
-40.362095
 20
7.009040
 30
0.0
 11
-40.317055
 21
5.243590
 31
0.0
  0
LINE
  5
5b3
100
AcDbEntity
  8
S
 62
7
100
AcDbLine
 10
-40.317055
 20
5.243590
 30
0.0
 11
-40.277125
 21
4.119110
 31
0.0
  0
LINE
  5
5b4
100
AcDbEntity
  8
S
 62
7
100
AcDbLine
 10
-40.277125
 20
4.119110
 30
0.0
 11
-40.237195
 21
2.994640
 31
0.0
  0
LINE
  5
5b5
100
AcDbEntity
  8
S
 62
7
100
AcDbLine
 10
-40.237195
 20
2.994640
 30
0.0
 11
-40.197265
 21
1.870160
 31
0.0
  0
LINE
  5
5b6
100
AcDbEntity
  8
S
 62
7
100
AcDbLine
 10
-40.197265
 20
1.870160
 30
0.0
 11
-40.157335
 21
0.745680
 31
0.0
  0
LINE
  5
5b7
100
AcDbEntity
  8
S
 62
7
100
AcDbLine
 10
-40.157335
 20
0.745680
 30
0.0
 11
-39.628176
 21
0.697780
 31
0.0
  0
LINE
  5
5b8
100
AcDbEntity
  8
S
 62
7
100
AcDbLine
 10
-39.628176
 20
0.697780
 30
0.0
 11
-39.099018
 21
0.649880
 31
0.0
  0
LINE
  5
5b9
100
AcDbEntity
  8
S
 62
7
100
AcDbLine
 10
-39.099018
 20
0.649880
 30
0.0
 11
-38.569859
 21
0.601880
 31
0.0
  0
LINE
  5
5ba
100
AcDbEntity
  8
S
 62
7
100
AcDbLine
 10
-38.569859
 20
0.601880
 30
0.0
 11
-38.040700
 21
0.553980
 31
0.0
  0
LINE
  5
5bb
100
AcDbEntity
  8
S
 62
7
100
AcDbLine
 10
-38.040700
 20
0.553980
 30
0.0
 11
-37.187531
 21
0.470980
 31
0.0
  0
LINE
  5
5bc
100
AcDbEntity
  8
S
 62
7
100
AcDbLine
 10
-37.187531
 20
0.470980
 30
0.0
 11
-36.429234
 21
0.386780
 31
0.0
  0
LINE
  5
5bd
100
AcDbEntity
  8
S
 62
7
100
AcDbLine
 10
-36.429234
 20
0.386780
 30
0.0
 11
-35.848284
 21
0.311180
 31
0.0
  0
LINE
  5
5be
100
AcDbEntity
  8
S
 62
7
100
AcDbLine
 10
-35.848284
 20
0.311180
 30
0.0
 11
-35.527158
 21
0.253980
 31
0.0
  0
LINE
  5
5bf
100
AcDbEntity
  8
S
 62
7
100
AcDbLine
 10
-35.527158
 20
0.253980
 30
0.0
 11
-35.200416
 21
0.209480
 31
0.0
  0
LINE
  5
5c0
100
AcDbEntity
  8
S
 62
7
100
AcDbLine
 10
-35.200416
 20
0.209480
 30
0.0
 11
-34.604182
 21
0.168480
 31
0.0
  0
LINE
  5
5c1
100
AcDbEntity
  8
S
 62
7
100
AcDbLine
 10
-34.604182
 20
0.168480
 30
0.0
 11
-33.823263
 21
0.135480
 31
0.0
  0
LINE
  5
5c2
100
AcDbEntity
  8
S
 62
7
100
AcDbLine
 10
-33.823263
 20
0.135480
 30
0.0
 11
-32.942470
 21
0.115080
 31
0.0
  0
LINE
  5
5c3
100
AcDbEntity
  8
S
 62
7
100
AcDbLine
 10
-32.942470
 20
0.115080
 30
0.0
 11
-31.795663
 21
0.130780
 31
0.0
  0
LINE
  5
5c4
100
AcDbEntity
  8
S
 62
7
100
AcDbLine
 10
-31.795663
 20
0.130780
 30
0.0
 11
-30.822060
 21
0.226580
 31
0.0
  0
LINE
  5
5c5
100
AcDbEntity
  8
S
 62
7
100
AcDbLine
 10
-30.822060
 20
0.226580
 30
0.0
 11
-29.895552
 21
0.421830
 31
0.0
  0
LINE
  5
5c6
100
AcDbEntity
  8
S
 62
7
100
AcDbLine
 10
-29.895552
 20
0.421830
 30
0.0
 11
-28.890027
 21
0.735830
 31
0.0
  0
LINE
  5
5c7
100
AcDbEntity
  8
S
 62
7
100
AcDbLine
 10
-28.890027
 20
0.735830
 30
0.0
 11
-28.890028
 21
0.735830
 31
0.0
  0
LINE
  5
5c8
100
AcDbEntity
  8
S
 62
7
100
AcDbLine
 10
-28.890028
 20
0.735830
 30
0.0
 11
-28.890028
 21
0.735840
 31
0.0
  0
LINE
  5
5c9
100
AcDbEntity
  8
S
 62
7
100
AcDbLine
 10
-28.890028
 20
0.735840
 30
0.0
 11
-28.890029
 21
0.735840
 31
0.0
  0
LINE
  5
5ca
100
AcDbEntity
  8
S
 62
7
100
AcDbLine
 10
-28.890029
 20
0.735840
 30
0.0
 11
-28.890060
 21
0.735880
 31
0.0
  0
ENDSEC
  0
SECTION
  2
OBJECTS
  0
DICTIONARY
  5
C
330
0
100
AcDbDictionary
  3
ACAD_GROUP
350
D
  3
ACAD_MLINESTYLE
350
17
  0
DICTIONARY
  5
D
330
C
100
AcDbDictionary
  0
DICTIONARY
  5
1A
330
C
100
AcDbDictionary
  0
DICTIONARY
  5
17
330
C
100
AcDbDictionary
  3
STANDARD
350
18
  0
DICTIONARY
  5
19
330
C
100
AcDbDictionary
  0
ENDSEC
  0
EOF
